<?xml version="1.0" encoding="UTF-8" standalone="no"?><svg xmlns="http://www.w3.org/2000/svg" xmlns:xlink="http://www.w3.org/1999/xlink" contentStyleType="text/css" height="778px" preserveAspectRatio="none" style="width:1106px;height:778px;background:#FFFFFF;" version="1.1" viewBox="0 0 1106 778" width="1106px" zoomAndPan="magnify"><defs/><g><text fill="#000000" font-family="sans-serif" font-size="14" font-weight="bold" lengthAdjust="spacing" textLength="556" x="276.5" y="28.5352">0x720e126ea17f4e0b2fcf021e6c6b90b55c5283527cdf50d4c2eb3cdbc012dbfc</text><text fill="#000000" font-family="sans-serif" font-size="14" lengthAdjust="spacing" textLength="347" x="381" y="766.2109">block 16722386, Mon, 27 Feb 2023 22:04:11 GMT</text><line style="stroke:#181818;stroke-width:0.5;stroke-dasharray:5.0,5.0;" x1="56" x2="56" y1="118.9766" y2="675.1875"/><line style="stroke:#181818;stroke-width:0.5;stroke-dasharray:5.0,5.0;" x1="245" x2="245" y1="118.9766" y2="675.1875"/><line style="stroke:#181818;stroke-width:0.5;stroke-dasharray:5.0,5.0;" x1="366" x2="366" y1="118.9766" y2="675.1875"/><line style="stroke:#181818;stroke-width:0.5;stroke-dasharray:5.0,5.0;" x1="482" x2="482" y1="118.9766" y2="675.1875"/><line style="stroke:#181818;stroke-width:0.5;stroke-dasharray:5.0,5.0;" x1="594" x2="594" y1="118.9766" y2="675.1875"/><line style="stroke:#181818;stroke-width:0.5;stroke-dasharray:5.0,5.0;" x1="707" x2="707" y1="118.9766" y2="675.1875"/><line style="stroke:#181818;stroke-width:0.5;stroke-dasharray:5.0,5.0;" x1="825" x2="825" y1="118.9766" y2="675.1875"/><line style="stroke:#181818;stroke-width:0.5;stroke-dasharray:5.0,5.0;" x1="941" x2="941" y1="118.9766" y2="675.1875"/><line style="stroke:#181818;stroke-width:0.5;stroke-dasharray:5.0,5.0;" x1="1053" x2="1053" y1="118.9766" y2="675.1875"/><text fill="#000000" font-family="sans-serif" font-size="14" lengthAdjust="spacing" textLength="96" x="5" y="116.0234">0xA211..c92e</text><ellipse cx="56" cy="50.9883" fill="#E2E2F0" rx="8" ry="8" style="stroke:#181818;stroke-width:0.5;"/><path d="M56,58.9883 L56,85.9883 M43,66.9883 L69,66.9883 M56,85.9883 L43,100.9883 M56,85.9883 L69,100.9883 " fill="none" style="stroke:#181818;stroke-width:0.5;"/><text fill="#000000" font-family="sans-serif" font-size="14" lengthAdjust="spacing" textLength="96" x="5" y="687.7227">0xA211..c92e</text><ellipse cx="56" cy="699.1758" fill="#E2E2F0" rx="8" ry="8" style="stroke:#181818;stroke-width:0.5;"/><path d="M56,707.1758 L56,734.1758 M43,715.1758 L69,715.1758 M56,734.1758 L43,749.1758 M56,734.1758 L69,749.1758 " fill="none" style="stroke:#181818;stroke-width:0.5;"/><rect fill="#E2E2F0" height="30.4883" rx="2.5" ry="2.5" style="stroke:#181818;stroke-width:0.5;" width="112" x="189" y="87.4883"/><text fill="#000000" font-family="sans-serif" font-size="14" lengthAdjust="spacing" textLength="98" x="196" y="108.0234">0x39da..D541</text><rect fill="#E2E2F0" height="30.4883" rx="2.5" ry="2.5" style="stroke:#181818;stroke-width:0.5;" width="112" x="189" y="674.1875"/><text fill="#000000" font-family="sans-serif" font-size="14" lengthAdjust="spacing" textLength="98" x="196" y="694.7227">0x39da..D541</text><rect fill="#E2E2F0" height="30.4883" rx="2.5" ry="2.5" style="stroke:#181818;stroke-width:0.5;" width="111" x="311" y="87.4883"/><text fill="#000000" font-family="sans-serif" font-size="14" lengthAdjust="spacing" textLength="97" x="318" y="108.0234">0x0000..E581</text><rect fill="#E2E2F0" height="30.4883" rx="2.5" ry="2.5" style="stroke:#181818;stroke-width:0.5;" width="111" x="311" y="674.1875"/><text fill="#000000" font-family="sans-serif" font-size="14" lengthAdjust="spacing" textLength="97" x="318" y="694.7227">0x0000..E581</text><text fill="#000000" font-family="sans-serif" font-size="14" lengthAdjust="spacing" textLength="94" x="432" y="116.0234">0xF2bB..FF52</text><ellipse cx="482" cy="50.9883" fill="#E2E2F0" rx="8" ry="8" style="stroke:#181818;stroke-width:0.5;"/><path d="M482,58.9883 L482,85.9883 M469,66.9883 L495,66.9883 M482,85.9883 L469,100.9883 M482,85.9883 L495,100.9883 " fill="none" style="stroke:#181818;stroke-width:0.5;"/><text fill="#000000" font-family="sans-serif" font-size="14" lengthAdjust="spacing" textLength="94" x="432" y="687.7227">0xF2bB..FF52</text><ellipse cx="482" cy="699.1758" fill="#E2E2F0" rx="8" ry="8" style="stroke:#181818;stroke-width:0.5;"/><path d="M482,707.1758 L482,734.1758 M469,715.1758 L495,715.1758 M482,734.1758 L469,749.1758 M482,734.1758 L495,749.1758 " fill="none" style="stroke:#181818;stroke-width:0.5;"/><text fill="#000000" font-family="sans-serif" font-size="14" lengthAdjust="spacing" textLength="98" x="542" y="116.0234">0x21c8..4CdD</text><ellipse cx="594" cy="50.9883" fill="#E2E2F0" rx="8" ry="8" style="stroke:#181818;stroke-width:0.5;"/><path d="M594,58.9883 L594,85.9883 M581,66.9883 L607,66.9883 M594,85.9883 L581,100.9883 M594,85.9883 L607,100.9883 " fill="none" style="stroke:#181818;stroke-width:0.5;"/><text fill="#000000" font-family="sans-serif" font-size="14" lengthAdjust="spacing" textLength="98" x="542" y="687.7227">0x21c8..4CdD</text><ellipse cx="594" cy="699.1758" fill="#E2E2F0" rx="8" ry="8" style="stroke:#181818;stroke-width:0.5;"/><path d="M594,707.1758 L594,734.1758 M581,715.1758 L607,715.1758 M594,734.1758 L581,749.1758 M594,734.1758 L607,749.1758 " fill="none" style="stroke:#181818;stroke-width:0.5;"/><text fill="#000000" font-family="sans-serif" font-size="14" lengthAdjust="spacing" textLength="97" x="656" y="116.0234">0x7e5a..D924</text><ellipse cx="707.5" cy="50.9883" fill="#E2E2F0" rx="8" ry="8" style="stroke:#181818;stroke-width:0.5;"/><path d="M707.5,58.9883 L707.5,85.9883 M694.5,66.9883 L720.5,66.9883 M707.5,85.9883 L694.5,100.9883 M707.5,85.9883 L720.5,100.9883 " fill="none" style="stroke:#181818;stroke-width:0.5;"/><text fill="#000000" font-family="sans-serif" font-size="14" lengthAdjust="spacing" textLength="97" x="656" y="687.7227">0x7e5a..D924</text><ellipse cx="707.5" cy="699.1758" fill="#E2E2F0" rx="8" ry="8" style="stroke:#181818;stroke-width:0.5;"/><path d="M707.5,707.1758 L707.5,734.1758 M694.5,715.1758 L720.5,715.1758 M707.5,734.1758 L694.5,749.1758 M707.5,734.1758 L720.5,749.1758 " fill="none" style="stroke:#181818;stroke-width:0.5;"/><rect fill="#E2E2F0" height="30.4883" rx="2.5" ry="2.5" style="stroke:#181818;stroke-width:0.5;" width="112" x="769" y="87.4883"/><text fill="#000000" font-family="sans-serif" font-size="14" lengthAdjust="spacing" textLength="98" x="776" y="108.0234">0x0000..5127</text><rect fill="#E2E2F0" height="30.4883" rx="2.5" ry="2.5" style="stroke:#181818;stroke-width:0.5;" width="112" x="769" y="674.1875"/><text fill="#000000" font-family="sans-serif" font-size="14" lengthAdjust="spacing" textLength="98" x="776" y="694.7227">0x0000..5127</text><text fill="#000000" font-family="sans-serif" font-size="14" lengthAdjust="spacing" textLength="95" x="891" y="116.0234">0x3E8a..FB3D</text><ellipse cx="941.5" cy="50.9883" fill="#E2E2F0" rx="8" ry="8" style="stroke:#181818;stroke-width:0.5;"/><path d="M941.5,58.9883 L941.5,85.9883 M928.5,66.9883 L954.5,66.9883 M941.5,85.9883 L928.5,100.9883 M941.5,85.9883 L954.5,100.9883 " fill="none" style="stroke:#181818;stroke-width:0.5;"/><text fill="#000000" font-family="sans-serif" font-size="14" lengthAdjust="spacing" textLength="95" x="891" y="687.7227">0x3E8a..FB3D</text><ellipse cx="941.5" cy="699.1758" fill="#E2E2F0" rx="8" ry="8" style="stroke:#181818;stroke-width:0.5;"/><path d="M941.5,707.1758 L941.5,734.1758 M928.5,715.1758 L954.5,715.1758 M941.5,734.1758 L928.5,749.1758 M941.5,734.1758 L954.5,749.1758 " fill="none" style="stroke:#181818;stroke-width:0.5;"/><text fill="#000000" font-family="sans-serif" font-size="14" lengthAdjust="spacing" textLength="97" x="1002" y="116.0234">0x5219..07cD</text><ellipse cx="1053.5" cy="50.9883" fill="#E2E2F0" rx="8" ry="8" style="stroke:#181818;stroke-width:0.5;"/><path d="M1053.5,58.9883 L1053.5,85.9883 M1040.5,66.9883 L1066.5,66.9883 M1053.5,85.9883 L1040.5,100.9883 M1053.5,85.9883 L1066.5,100.9883 " fill="none" style="stroke:#181818;stroke-width:0.5;"/><text fill="#000000" font-family="sans-serif" font-size="14" lengthAdjust="spacing" textLength="97" x="1002" y="687.7227">0x5219..07cD</text><ellipse cx="1053.5" cy="699.1758" fill="#E2E2F0" rx="8" ry="8" style="stroke:#181818;stroke-width:0.5;"/><path d="M1053.5,707.1758 L1053.5,734.1758 M1040.5,715.1758 L1066.5,715.1758 M1053.5,734.1758 L1040.5,749.1758 M1053.5,734.1758 L1066.5,749.1758 " fill="none" style="stroke:#181818;stroke-width:0.5;"/><polygon fill="#181818" points="233,146.2871,243,150.2871,233,154.2871,237,150.2871" style="stroke:#181818;stroke-width:1.0;"/><line style="stroke:#181818;stroke-width:1.0;" x1="56" x2="239" y1="150.2871" y2="150.2871"/><text fill="#000000" font-family="sans-serif" font-size="13" lengthAdjust="spacing" textLength="73" x="63" y="145.5449">0.6188 ETH</text><polygon fill="#181818" points="354.5,175.5977,364.5,179.5977,354.5,183.5977,358.5,179.5977" style="stroke:#181818;stroke-width:1.0;"/><line style="stroke:#181818;stroke-width:1.0;" x1="245" x2="360.5" y1="179.5977" y2="179.5977"/><text fill="#000000" font-family="sans-serif" font-size="13" lengthAdjust="spacing" textLength="57" x="252" y="174.8555">0.23 ETH</text><polygon fill="#181818" points="470,204.9082,480,208.9082,470,212.9082,474,208.9082" style="stroke:#181818;stroke-width:1.0;"/><line style="stroke:#181818;stroke-width:1.0;" x1="366.5" x2="476" y1="208.9082" y2="208.9082"/><text fill="#000000" font-family="sans-serif" font-size="13" lengthAdjust="spacing" textLength="73" x="373.5" y="204.166">0.2185 ETH</text><polygon fill="#181818" points="582,234.2188,592,238.2188,582,242.2188,586,238.2188" style="stroke:#181818;stroke-width:1.0;"/><line style="stroke:#181818;stroke-width:1.0;" x1="366.5" x2="588" y1="238.2188" y2="238.2188"/><text fill="#000000" font-family="sans-serif" font-size="13" lengthAdjust="spacing" textLength="73" x="373.5" y="233.4766">0.0092 ETH</text><polygon fill="#181818" points="695.5,263.5293,705.5,267.5293,695.5,271.5293,699.5,267.5293" style="stroke:#181818;stroke-width:1.0;"/><line style="stroke:#181818;stroke-width:1.0;" x1="366.5" x2="701.5" y1="267.5293" y2="267.5293"/><text fill="#000000" font-family="sans-serif" font-size="13" lengthAdjust="spacing" textLength="73" x="373.5" y="262.7871">0.0023 ETH</text><polygon fill="#181818" points="67,292.8398,57,296.8398,67,300.8398,63,296.8398" style="stroke:#181818;stroke-width:1.0;"/><line style="stroke:#181818;stroke-width:1.0;" x1="61" x2="481" y1="296.8398" y2="296.8398"/><text fill="#000000" font-family="sans-serif" font-size="13" lengthAdjust="spacing" textLength="165" x="73" y="292.0977">Transfer CHUNGO id 8502</text><polygon fill="#181818" points="813,322.1504,823,326.1504,813,330.1504,817,326.1504" style="stroke:#181818;stroke-width:1.0;"/><line style="stroke:#181818;stroke-width:1.0;" x1="245" x2="819" y1="326.1504" y2="326.1504"/><text fill="#000000" font-family="sans-serif" font-size="13" lengthAdjust="spacing" textLength="73" x="252" y="321.4082">0.3888 ETH</text><polygon fill="#181818" points="605,351.4609,595,355.4609,605,359.4609,601,355.4609" style="stroke:#181818;stroke-width:1.0;"/><line style="stroke:#181818;stroke-width:1.0;" x1="599" x2="824" y1="355.4609" y2="355.4609"/><text fill="#000000" font-family="sans-serif" font-size="13" lengthAdjust="spacing" textLength="81" x="611" y="350.7188">0.00944 ETH</text><polygon fill="#181818" points="929.5,380.7715,939.5,384.7715,929.5,388.7715,933.5,384.7715" style="stroke:#181818;stroke-width:1.0;"/><line style="stroke:#181818;stroke-width:1.0;" x1="825" x2="935.5" y1="384.7715" y2="384.7715"/><text fill="#000000" font-family="sans-serif" font-size="13" lengthAdjust="spacing" textLength="81" x="832" y="380.0293">0.17936 ETH</text><polygon fill="#181818" points="256,410.082,246,414.082,256,418.082,252,414.082" style="stroke:#181818;stroke-width:1.0;"/><line style="stroke:#181818;stroke-width:1.0;" x1="250" x2="940.5" y1="414.082" y2="414.082"/><text fill="#000000" font-family="sans-serif" font-size="13" lengthAdjust="spacing" textLength="157" x="262" y="409.3398">Transfer CHUNGO id 266</text><polygon fill="#181818" points="605,439.3926,595,443.3926,605,447.3926,601,443.3926" style="stroke:#181818;stroke-width:1.0;"/><line style="stroke:#181818;stroke-width:1.0;" x1="599" x2="824" y1="443.3926" y2="443.3926"/><text fill="#000000" font-family="sans-serif" font-size="13" lengthAdjust="spacing" textLength="57" x="611" y="438.6504">0.01 ETH</text><polygon fill="#181818" points="1041.5,468.7031,1051.5,472.7031,1041.5,476.7031,1045.5,472.7031" style="stroke:#181818;stroke-width:1.0;"/><line style="stroke:#181818;stroke-width:1.0;" x1="825" x2="1047.5" y1="472.7031" y2="472.7031"/><text fill="#000000" font-family="sans-serif" font-size="13" lengthAdjust="spacing" textLength="57" x="832" y="467.9609">0.19 ETH</text><polygon fill="#181818" points="256,498.0137,246,502.0137,256,506.0137,252,502.0137" style="stroke:#181818;stroke-width:1.0;"/><line style="stroke:#181818;stroke-width:1.0;" x1="250" x2="1052.5" y1="502.0137" y2="502.0137"/><text fill="#000000" font-family="sans-serif" font-size="13" lengthAdjust="spacing" textLength="165" x="262" y="497.2715">Transfer CHUNGO id 6428</text><polygon fill="#181818" points="67,527.3242,57,531.3242,67,535.3242,63,531.3242" style="stroke:#181818;stroke-width:1.0;"/><line style="stroke:#181818;stroke-width:1.0;" x1="61" x2="244" y1="531.3242" y2="531.3242"/><text fill="#000000" font-family="sans-serif" font-size="13" lengthAdjust="spacing" textLength="157" x="73" y="526.582">Transfer CHUNGO id 266</text><polygon fill="#181818" points="67,556.6348,57,560.6348,67,564.6348,63,560.6348" style="stroke:#181818;stroke-width:1.0;"/><line style="stroke:#181818;stroke-width:1.0;" x1="61" x2="244" y1="560.6348" y2="560.6348"/><text fill="#000000" font-family="sans-serif" font-size="13" lengthAdjust="spacing" textLength="165" x="73" y="555.8926">Transfer CHUNGO id 6428</text><path d="M5,573.6348 L5,659.6348 L107,659.6348 L107,583.6348 L97,573.6348 L5,573.6348 " fill="#00FFFF" style="stroke:#181818;stroke-width:0.5;"/><path d="M97,573.6348 L97,583.6348 L107,583.6348 L97,573.6348 " fill="#00FFFF" style="stroke:#181818;stroke-width:0.5;"/><text fill="#000000" font-family="sans-serif" font-size="13" lengthAdjust="spacing" textLength="81" x="11" y="591.2031">-0.6188 ETH</text><text fill="#000000" font-family="sans-serif" font-size="13" lengthAdjust="spacing" textLength="57" x="11" y="606.5137">CHUNGO</text><text fill="#000000" font-family="sans-serif" font-size="13" lengthAdjust="spacing" textLength="42" x="19" y="621.8242">+8502</text><text fill="#000000" font-family="sans-serif" font-size="13" lengthAdjust="spacing" textLength="34" x="19" y="637.1348">+266</text><text fill="#000000" font-family="sans-serif" font-size="13" lengthAdjust="spacing" textLength="42" x="19" y="652.4453">+6428</text><path d="M206,573.6348 L206,628.6348 L284,628.6348 L284,583.6348 L274,573.6348 L206,573.6348 " fill="#00FFFF" style="stroke:#181818;stroke-width:0.5;"/><path d="M274,573.6348 L274,583.6348 L284,583.6348 L274,573.6348 " fill="#00FFFF" style="stroke:#181818;stroke-width:0.5;"/><text fill="#000000" font-family="sans-serif" font-size="13" lengthAdjust="spacing" textLength="57" x="212" y="591.2031">CHUNGO</text><text fill="#000000" font-family="sans-serif" font-size="13" lengthAdjust="spacing" textLength="32" x="220" y="606.5137">-266</text><text fill="#000000" font-family="sans-serif" font-size="13" lengthAdjust="spacing" textLength="40" x="220" y="621.8242">-6428</text><path d="M435,573.6348 L435,628.6348 L529,628.6348 L529,583.6348 L519,573.6348 L435,573.6348 " fill="#00FFFF" style="stroke:#181818;stroke-width:0.5;"/><path d="M519,573.6348 L519,583.6348 L529,583.6348 L519,573.6348 " fill="#00FFFF" style="stroke:#181818;stroke-width:0.5;"/><text fill="#000000" font-family="sans-serif" font-size="13" lengthAdjust="spacing" textLength="73" x="441" y="591.2031">0.2185 ETH</text><text fill="#000000" font-family="sans-serif" font-size="13" lengthAdjust="spacing" textLength="57" x="441" y="606.5137">CHUNGO</text><text fill="#000000" font-family="sans-serif" font-size="13" lengthAdjust="spacing" textLength="40" x="449" y="621.8242">-8502</text><path d="M543,573.6348 L543,598.6348 L645,598.6348 L645,583.6348 L635,573.6348 L543,573.6348 " fill="#00FFFF" style="stroke:#181818;stroke-width:0.5;"/><path d="M635,573.6348 L635,583.6348 L645,583.6348 L635,573.6348 " fill="#00FFFF" style="stroke:#181818;stroke-width:0.5;"/><text fill="#000000" font-family="sans-serif" font-size="13" lengthAdjust="spacing" textLength="81" x="549" y="591.2031">0.02864 ETH</text><path d="M660,573.6348 L660,598.6348 L754,598.6348 L754,583.6348 L744,573.6348 L660,573.6348 " fill="#00FFFF" style="stroke:#181818;stroke-width:0.5;"/><path d="M744,573.6348 L744,583.6348 L754,583.6348 L744,573.6348 " fill="#00FFFF" style="stroke:#181818;stroke-width:0.5;"/><text fill="#000000" font-family="sans-serif" font-size="13" lengthAdjust="spacing" textLength="73" x="666" y="591.2031">0.0023 ETH</text><path d="M890,573.6348 L890,628.6348 L992,628.6348 L992,583.6348 L982,573.6348 L890,573.6348 " fill="#00FFFF" style="stroke:#181818;stroke-width:0.5;"/><path d="M982,573.6348 L982,583.6348 L992,583.6348 L982,573.6348 " fill="#00FFFF" style="stroke:#181818;stroke-width:0.5;"/><text fill="#000000" font-family="sans-serif" font-size="13" lengthAdjust="spacing" textLength="81" x="896" y="591.2031">0.17936 ETH</text><text fill="#000000" font-family="sans-serif" font-size="13" lengthAdjust="spacing" textLength="57" x="896" y="606.5137">CHUNGO</text><text fill="#000000" font-family="sans-serif" font-size="13" lengthAdjust="spacing" textLength="32" x="904" y="621.8242">-266</text><path d="M1014,573.6348 L1014,628.6348 L1092,628.6348 L1092,583.6348 L1082,573.6348 L1014,573.6348 " fill="#00FFFF" style="stroke:#181818;stroke-width:0.5;"/><path d="M1082,573.6348 L1082,583.6348 L1092,583.6348 L1082,573.6348 " fill="#00FFFF" style="stroke:#181818;stroke-width:0.5;"/><text fill="#000000" font-family="sans-serif" font-size="13" lengthAdjust="spacing" textLength="57" x="1020" y="591.2031">0.19 ETH</text><text fill="#000000" font-family="sans-serif" font-size="13" lengthAdjust="spacing" textLength="57" x="1020" y="606.5137">CHUNGO</text><text fill="#000000" font-family="sans-serif" font-size="13" lengthAdjust="spacing" textLength="40" x="1028" y="621.8242">-6428</text><!--SRC=[ZPFBRjim44Nt-ef1kcpCaaDHehmeq2HsiacxSJ-0Bm560ybrr2AVNpuiMguKjze85pppqENLi1zU7D2t6gbZM3d5whPqL6DhMehCLQRI3TL2686I2woDRGMrfK6dkR7QK8PMjwOmwZ3i-mxqIsz-0AjgH2whMtZkkrl06hPE0rBaWBYcvPenU7pU5SeC_H5kwDiNP8mGqw2x0VKAoiiWe3Yeux0t-uFgXi3nnYf27aJ98XUazMB6KVyGiX4oSK4wB-0ySOlwZf3jLc0aMjIwRGLE26H64bBUsuT815aQQoT4xKJOfi4o4a5QBzxPHZ2iypP1J3hnZVITjdSypU9EgbRpwIo1h264rYOHGNhXYIARjVgS3La3K58nAM6pUogoJPuOhOY4luzmdktnvwCHwPn9CID68o91QOCpOZJYH9ocP8izCUwyXjrHTQ-jEyBzq_UlZzzWRq4AYhETWs6n7vUdhyesBknKbZDaz3GYh6vubRmPhRvmRs4hhAeh8zbitdX3QLuJp_Ej_MjOLQAyiE2gOM6r_uPZwwBe-i51_ziVvVnyK3z_gM8r2KwgAW0-nZlnxp3Als8Jrra8ROhY4vpRvKLIkznYbKfNLqfpXbBfCfHZbA19IC-ZuhRBvVat7iifoYgbPRaW_zMvO0pq-nyHCt3j8tBgngRdG5uQjboUSvJBcxzgBrt-0m00]--></g></svg>