<?xml version="1.0" encoding="UTF-8" standalone="no"?><svg xmlns="http://www.w3.org/2000/svg" xmlns:xlink="http://www.w3.org/1999/xlink" contentStyleType="text/css" height="778px" preserveAspectRatio="none" style="width:1148px;height:778px;background:#FFFFFF;" version="1.1" viewBox="0 0 1148 778" width="1148px" zoomAndPan="magnify"><defs/><g><text fill="#000000" font-family="sans-serif" font-size="14" font-weight="bold" lengthAdjust="spacing" textLength="556" x="297.5" y="28.5352">0x720e126ea17f4e0b2fcf021e6c6b90b55c5283527cdf50d4c2eb3cdbc012dbfc</text><text fill="#000000" font-family="sans-serif" font-size="14" lengthAdjust="spacing" textLength="411" x="370" y="766.2109">mainnet, block 16722386, Mon, 27 Feb 2023 22:04:11 GMT</text><line style="stroke:#181818;stroke-width:0.5;stroke-dasharray:5.0,5.0;" x1="56" x2="56" y1="118.9766" y2="675.1875"/><line style="stroke:#181818;stroke-width:0.5;stroke-dasharray:5.0,5.0;" x1="245" x2="245" y1="118.9766" y2="675.1875"/><line style="stroke:#181818;stroke-width:0.5;stroke-dasharray:5.0,5.0;" x1="398" x2="398" y1="118.9766" y2="675.1875"/><line style="stroke:#181818;stroke-width:0.5;stroke-dasharray:5.0,5.0;" x1="514" x2="514" y1="118.9766" y2="675.1875"/><line style="stroke:#181818;stroke-width:0.5;stroke-dasharray:5.0,5.0;" x1="626" x2="626" y1="118.9766" y2="675.1875"/><line style="stroke:#181818;stroke-width:0.5;stroke-dasharray:5.0,5.0;" x1="739" x2="739" y1="118.9766" y2="675.1875"/><line style="stroke:#181818;stroke-width:0.5;stroke-dasharray:5.0,5.0;" x1="862" x2="862" y1="118.9766" y2="675.1875"/><line style="stroke:#181818;stroke-width:0.5;stroke-dasharray:5.0,5.0;" x1="983" x2="983" y1="118.9766" y2="675.1875"/><line style="stroke:#181818;stroke-width:0.5;stroke-dasharray:5.0,5.0;" x1="1095" x2="1095" y1="118.9766" y2="675.1875"/><text fill="#000000" font-family="sans-serif" font-size="14" lengthAdjust="spacing" textLength="96" x="5" y="116.0234">0xA211..c92e</text><ellipse cx="56" cy="50.9883" fill="#E2E2F0" rx="8" ry="8" style="stroke:#181818;stroke-width:0.5;"/><path d="M56,58.9883 L56,85.9883 M43,66.9883 L69,66.9883 M56,85.9883 L43,100.9883 M56,85.9883 L69,100.9883 " fill="none" style="stroke:#181818;stroke-width:0.5;"/><text fill="#000000" font-family="sans-serif" font-size="14" lengthAdjust="spacing" textLength="96" x="5" y="687.7227">0xA211..c92e</text><ellipse cx="56" cy="699.1758" fill="#E2E2F0" rx="8" ry="8" style="stroke:#181818;stroke-width:0.5;"/><path d="M56,707.1758 L56,734.1758 M43,715.1758 L69,715.1758 M56,734.1758 L43,749.1758 M56,734.1758 L69,749.1758 " fill="none" style="stroke:#181818;stroke-width:0.5;"/><rect fill="#E2E2F0" height="63.4648" rx="2.5" ry="2.5" style="stroke:#181818;stroke-width:0.5;" width="176" x="157" y="54.5117"/><text fill="#000000" font-family="sans-serif" font-size="14" font-style="italic" lengthAdjust="spacing" textLength="98" x="196" y="75.0469">«marketplace»</text><text fill="#000000" font-family="sans-serif" font-size="14" font-style="italic" lengthAdjust="spacing" textLength="162" x="164" y="91.5352">«Blur.io: Marketplace 2»</text><text fill="#000000" font-family="sans-serif" font-size="14" lengthAdjust="spacing" textLength="98" x="196" y="108.0234">0x39da..D541</text><rect fill="#E2E2F0" height="63.4648" rx="2.5" ry="2.5" style="stroke:#181818;stroke-width:0.5;" width="176" x="157" y="674.1875"/><text fill="#000000" font-family="sans-serif" font-size="14" font-style="italic" lengthAdjust="spacing" textLength="98" x="196" y="694.7227">«marketplace»</text><text fill="#000000" font-family="sans-serif" font-size="14" font-style="italic" lengthAdjust="spacing" textLength="162" x="164" y="711.2109">«Blur.io: Marketplace 2»</text><text fill="#000000" font-family="sans-serif" font-size="14" lengthAdjust="spacing" textLength="98" x="196" y="727.6992">0x39da..D541</text><rect fill="#E2E2F0" height="46.9766" rx="2.5" ry="2.5" style="stroke:#181818;stroke-width:0.5;" width="111" x="343" y="71"/><text fill="#000000" font-family="sans-serif" font-size="14" font-style="italic" lengthAdjust="spacing" textLength="67" x="365" y="91.5352">«Seaport»</text><text fill="#000000" font-family="sans-serif" font-size="14" lengthAdjust="spacing" textLength="97" x="350" y="108.0234">0x0000..E581</text><rect fill="#E2E2F0" height="46.9766" rx="2.5" ry="2.5" style="stroke:#181818;stroke-width:0.5;" width="111" x="343" y="674.1875"/><text fill="#000000" font-family="sans-serif" font-size="14" font-style="italic" lengthAdjust="spacing" textLength="67" x="365" y="694.7227">«Seaport»</text><text fill="#000000" font-family="sans-serif" font-size="14" lengthAdjust="spacing" textLength="97" x="350" y="711.2109">0x0000..E581</text><text fill="#000000" font-family="sans-serif" font-size="14" lengthAdjust="spacing" textLength="94" x="464" y="116.0234">0xF2bB..FF52</text><ellipse cx="514" cy="50.9883" fill="#E2E2F0" rx="8" ry="8" style="stroke:#181818;stroke-width:0.5;"/><path d="M514,58.9883 L514,85.9883 M501,66.9883 L527,66.9883 M514,85.9883 L501,100.9883 M514,85.9883 L527,100.9883 " fill="none" style="stroke:#181818;stroke-width:0.5;"/><text fill="#000000" font-family="sans-serif" font-size="14" lengthAdjust="spacing" textLength="94" x="464" y="687.7227">0xF2bB..FF52</text><ellipse cx="514" cy="699.1758" fill="#E2E2F0" rx="8" ry="8" style="stroke:#181818;stroke-width:0.5;"/><path d="M514,707.1758 L514,734.1758 M501,715.1758 L527,715.1758 M514,734.1758 L501,749.1758 M514,734.1758 L527,749.1758 " fill="none" style="stroke:#181818;stroke-width:0.5;"/><text fill="#000000" font-family="sans-serif" font-size="14" lengthAdjust="spacing" textLength="98" x="574" y="116.0234">0x21c8..4CdD</text><ellipse cx="626" cy="50.9883" fill="#E2E2F0" rx="8" ry="8" style="stroke:#181818;stroke-width:0.5;"/><path d="M626,58.9883 L626,85.9883 M613,66.9883 L639,66.9883 M626,85.9883 L613,100.9883 M626,85.9883 L639,100.9883 " fill="none" style="stroke:#181818;stroke-width:0.5;"/><text fill="#000000" font-family="sans-serif" font-size="14" lengthAdjust="spacing" textLength="98" x="574" y="687.7227">0x21c8..4CdD</text><ellipse cx="626" cy="699.1758" fill="#E2E2F0" rx="8" ry="8" style="stroke:#181818;stroke-width:0.5;"/><path d="M626,707.1758 L626,734.1758 M613,715.1758 L639,715.1758 M626,734.1758 L613,749.1758 M626,734.1758 L639,749.1758 " fill="none" style="stroke:#181818;stroke-width:0.5;"/><text fill="#000000" font-family="sans-serif" font-size="14" lengthAdjust="spacing" textLength="97" x="688" y="116.0234">0x7e5a..D924</text><ellipse cx="739.5" cy="50.9883" fill="#E2E2F0" rx="8" ry="8" style="stroke:#181818;stroke-width:0.5;"/><path d="M739.5,58.9883 L739.5,85.9883 M726.5,66.9883 L752.5,66.9883 M739.5,85.9883 L726.5,100.9883 M739.5,85.9883 L752.5,100.9883 " fill="none" style="stroke:#181818;stroke-width:0.5;"/><text fill="#000000" font-family="sans-serif" font-size="14" lengthAdjust="spacing" textLength="97" x="688" y="687.7227">0x7e5a..D924</text><ellipse cx="739.5" cy="699.1758" fill="#E2E2F0" rx="8" ry="8" style="stroke:#181818;stroke-width:0.5;"/><path d="M739.5,707.1758 L739.5,734.1758 M726.5,715.1758 L752.5,715.1758 M739.5,734.1758 L726.5,749.1758 M739.5,734.1758 L752.5,749.1758 " fill="none" style="stroke:#181818;stroke-width:0.5;"/><rect fill="#E2E2F0" height="46.9766" rx="2.5" ry="2.5" style="stroke:#181818;stroke-width:0.5;" width="122" x="801" y="71"/><text fill="#000000" font-family="sans-serif" font-size="14" font-style="italic" lengthAdjust="spacing" textLength="108" x="808" y="91.5352">«BlurExchange»</text><text fill="#000000" font-family="sans-serif" font-size="14" lengthAdjust="spacing" textLength="98" x="813" y="108.0234">0x0000..5127</text><rect fill="#E2E2F0" height="46.9766" rx="2.5" ry="2.5" style="stroke:#181818;stroke-width:0.5;" width="122" x="801" y="674.1875"/><text fill="#000000" font-family="sans-serif" font-size="14" font-style="italic" lengthAdjust="spacing" textLength="108" x="808" y="694.7227">«BlurExchange»</text><text fill="#000000" font-family="sans-serif" font-size="14" lengthAdjust="spacing" textLength="98" x="813" y="711.2109">0x0000..5127</text><text fill="#000000" font-family="sans-serif" font-size="14" lengthAdjust="spacing" textLength="95" x="933" y="116.0234">0x3E8a..FB3D</text><ellipse cx="983.5" cy="50.9883" fill="#E2E2F0" rx="8" ry="8" style="stroke:#181818;stroke-width:0.5;"/><path d="M983.5,58.9883 L983.5,85.9883 M970.5,66.9883 L996.5,66.9883 M983.5,85.9883 L970.5,100.9883 M983.5,85.9883 L996.5,100.9883 " fill="none" style="stroke:#181818;stroke-width:0.5;"/><text fill="#000000" font-family="sans-serif" font-size="14" lengthAdjust="spacing" textLength="95" x="933" y="687.7227">0x3E8a..FB3D</text><ellipse cx="983.5" cy="699.1758" fill="#E2E2F0" rx="8" ry="8" style="stroke:#181818;stroke-width:0.5;"/><path d="M983.5,707.1758 L983.5,734.1758 M970.5,715.1758 L996.5,715.1758 M983.5,734.1758 L970.5,749.1758 M983.5,734.1758 L996.5,749.1758 " fill="none" style="stroke:#181818;stroke-width:0.5;"/><text fill="#000000" font-family="sans-serif" font-size="14" lengthAdjust="spacing" textLength="97" x="1044" y="116.0234">0x5219..07cD</text><ellipse cx="1095.5" cy="50.9883" fill="#E2E2F0" rx="8" ry="8" style="stroke:#181818;stroke-width:0.5;"/><path d="M1095.5,58.9883 L1095.5,85.9883 M1082.5,66.9883 L1108.5,66.9883 M1095.5,85.9883 L1082.5,100.9883 M1095.5,85.9883 L1108.5,100.9883 " fill="none" style="stroke:#181818;stroke-width:0.5;"/><text fill="#000000" font-family="sans-serif" font-size="14" lengthAdjust="spacing" textLength="97" x="1044" y="687.7227">0x5219..07cD</text><ellipse cx="1095.5" cy="699.1758" fill="#E2E2F0" rx="8" ry="8" style="stroke:#181818;stroke-width:0.5;"/><path d="M1095.5,707.1758 L1095.5,734.1758 M1082.5,715.1758 L1108.5,715.1758 M1095.5,734.1758 L1082.5,749.1758 M1095.5,734.1758 L1108.5,749.1758 " fill="none" style="stroke:#181818;stroke-width:0.5;"/><polygon fill="#181818" points="233,146.2871,243,150.2871,233,154.2871,237,150.2871" style="stroke:#181818;stroke-width:1.0;"/><line style="stroke:#181818;stroke-width:1.0;" x1="56" x2="239" y1="150.2871" y2="150.2871"/><text fill="#000000" font-family="sans-serif" font-size="13" lengthAdjust="spacing" textLength="73" x="63" y="145.5449">0.6188 ETH</text><polygon fill="#181818" points="386.5,175.5977,396.5,179.5977,386.5,183.5977,390.5,179.5977" style="stroke:#181818;stroke-width:1.0;"/><line style="stroke:#181818;stroke-width:1.0;" x1="245" x2="392.5" y1="179.5977" y2="179.5977"/><text fill="#000000" font-family="sans-serif" font-size="13" lengthAdjust="spacing" textLength="57" x="252" y="174.8555">0.23 ETH</text><polygon fill="#181818" points="502,204.9082,512,208.9082,502,212.9082,506,208.9082" style="stroke:#181818;stroke-width:1.0;"/><line style="stroke:#181818;stroke-width:1.0;" x1="398.5" x2="508" y1="208.9082" y2="208.9082"/><text fill="#000000" font-family="sans-serif" font-size="13" lengthAdjust="spacing" textLength="73" x="405.5" y="204.166">0.2185 ETH</text><polygon fill="#181818" points="614,234.2188,624,238.2188,614,242.2188,618,238.2188" style="stroke:#181818;stroke-width:1.0;"/><line style="stroke:#181818;stroke-width:1.0;" x1="398.5" x2="620" y1="238.2188" y2="238.2188"/><text fill="#000000" font-family="sans-serif" font-size="13" lengthAdjust="spacing" textLength="73" x="405.5" y="233.4766">0.0092 ETH</text><polygon fill="#181818" points="727.5,263.5293,737.5,267.5293,727.5,271.5293,731.5,267.5293" style="stroke:#181818;stroke-width:1.0;"/><line style="stroke:#181818;stroke-width:1.0;" x1="398.5" x2="733.5" y1="267.5293" y2="267.5293"/><text fill="#000000" font-family="sans-serif" font-size="13" lengthAdjust="spacing" textLength="73" x="405.5" y="262.7871">0.0023 ETH</text><polygon fill="#181818" points="67,292.8398,57,296.8398,67,300.8398,63,296.8398" style="stroke:#181818;stroke-width:1.0;"/><line style="stroke:#181818;stroke-width:1.0;" x1="61" x2="513" y1="296.8398" y2="296.8398"/><text fill="#000000" font-family="sans-serif" font-size="13" lengthAdjust="spacing" textLength="165" x="73" y="292.0977">Transfer CHUNGO id 8502</text><polygon fill="#181818" points="850,322.1504,860,326.1504,850,330.1504,854,326.1504" style="stroke:#181818;stroke-width:1.0;"/><line style="stroke:#181818;stroke-width:1.0;" x1="245" x2="856" y1="326.1504" y2="326.1504"/><text fill="#000000" font-family="sans-serif" font-size="13" lengthAdjust="spacing" textLength="73" x="252" y="321.4082">0.3888 ETH</text><polygon fill="#181818" points="637,351.4609,627,355.4609,637,359.4609,633,355.4609" style="stroke:#181818;stroke-width:1.0;"/><line style="stroke:#181818;stroke-width:1.0;" x1="631" x2="861" y1="355.4609" y2="355.4609"/><text fill="#000000" font-family="sans-serif" font-size="13" lengthAdjust="spacing" textLength="81" x="643" y="350.7188">0.00944 ETH</text><polygon fill="#181818" points="971.5,380.7715,981.5,384.7715,971.5,388.7715,975.5,384.7715" style="stroke:#181818;stroke-width:1.0;"/><line style="stroke:#181818;stroke-width:1.0;" x1="862" x2="977.5" y1="384.7715" y2="384.7715"/><text fill="#000000" font-family="sans-serif" font-size="13" lengthAdjust="spacing" textLength="81" x="869" y="380.0293">0.17936 ETH</text><polygon fill="#181818" points="256,410.082,246,414.082,256,418.082,252,414.082" style="stroke:#181818;stroke-width:1.0;"/><line style="stroke:#181818;stroke-width:1.0;" x1="250" x2="982.5" y1="414.082" y2="414.082"/><text fill="#000000" font-family="sans-serif" font-size="13" lengthAdjust="spacing" textLength="157" x="262" y="409.3398">Transfer CHUNGO id 266</text><polygon fill="#181818" points="637,439.3926,627,443.3926,637,447.3926,633,443.3926" style="stroke:#181818;stroke-width:1.0;"/><line style="stroke:#181818;stroke-width:1.0;" x1="631" x2="861" y1="443.3926" y2="443.3926"/><text fill="#000000" font-family="sans-serif" font-size="13" lengthAdjust="spacing" textLength="57" x="643" y="438.6504">0.01 ETH</text><polygon fill="#181818" points="1083.5,468.7031,1093.5,472.7031,1083.5,476.7031,1087.5,472.7031" style="stroke:#181818;stroke-width:1.0;"/><line style="stroke:#181818;stroke-width:1.0;" x1="862" x2="1089.5" y1="472.7031" y2="472.7031"/><text fill="#000000" font-family="sans-serif" font-size="13" lengthAdjust="spacing" textLength="57" x="869" y="467.9609">0.19 ETH</text><polygon fill="#181818" points="256,498.0137,246,502.0137,256,506.0137,252,502.0137" style="stroke:#181818;stroke-width:1.0;"/><line style="stroke:#181818;stroke-width:1.0;" x1="250" x2="1094.5" y1="502.0137" y2="502.0137"/><text fill="#000000" font-family="sans-serif" font-size="13" lengthAdjust="spacing" textLength="165" x="262" y="497.2715">Transfer CHUNGO id 6428</text><polygon fill="#181818" points="67,527.3242,57,531.3242,67,535.3242,63,531.3242" style="stroke:#181818;stroke-width:1.0;"/><line style="stroke:#181818;stroke-width:1.0;" x1="61" x2="244" y1="531.3242" y2="531.3242"/><text fill="#000000" font-family="sans-serif" font-size="13" lengthAdjust="spacing" textLength="157" x="73" y="526.582">Transfer CHUNGO id 266</text><polygon fill="#181818" points="67,556.6348,57,560.6348,67,564.6348,63,560.6348" style="stroke:#181818;stroke-width:1.0;"/><line style="stroke:#181818;stroke-width:1.0;" x1="61" x2="244" y1="560.6348" y2="560.6348"/><text fill="#000000" font-family="sans-serif" font-size="13" lengthAdjust="spacing" textLength="165" x="73" y="555.8926">Transfer CHUNGO id 6428</text><path d="M5,573.6348 L5,659.6348 L107,659.6348 L107,583.6348 L97,573.6348 L5,573.6348 " fill="#00FFFF" style="stroke:#181818;stroke-width:0.5;"/><path d="M97,573.6348 L97,583.6348 L107,583.6348 L97,573.6348 " fill="#00FFFF" style="stroke:#181818;stroke-width:0.5;"/><text fill="#000000" font-family="sans-serif" font-size="13" lengthAdjust="spacing" textLength="81" x="11" y="591.2031">-0.6188 ETH</text><text fill="#000000" font-family="sans-serif" font-size="13" lengthAdjust="spacing" textLength="57" x="11" y="606.5137">CHUNGO</text><text fill="#000000" font-family="sans-serif" font-size="13" lengthAdjust="spacing" textLength="42" x="19" y="621.8242">+8502</text><text fill="#000000" font-family="sans-serif" font-size="13" lengthAdjust="spacing" textLength="34" x="19" y="637.1348">+266</text><text fill="#000000" font-family="sans-serif" font-size="13" lengthAdjust="spacing" textLength="42" x="19" y="652.4453">+6428</text><path d="M206,573.6348 L206,628.6348 L284,628.6348 L284,583.6348 L274,573.6348 L206,573.6348 " fill="#00FFFF" style="stroke:#181818;stroke-width:0.5;"/><path d="M274,573.6348 L274,583.6348 L284,583.6348 L274,573.6348 " fill="#00FFFF" style="stroke:#181818;stroke-width:0.5;"/><text fill="#000000" font-family="sans-serif" font-size="13" lengthAdjust="spacing" textLength="57" x="212" y="591.2031">CHUNGO</text><text fill="#000000" font-family="sans-serif" font-size="13" lengthAdjust="spacing" textLength="32" x="220" y="606.5137">-266</text><text fill="#000000" font-family="sans-serif" font-size="13" lengthAdjust="spacing" textLength="40" x="220" y="621.8242">-6428</text><path d="M467,573.6348 L467,628.6348 L561,628.6348 L561,583.6348 L551,573.6348 L467,573.6348 " fill="#00FFFF" style="stroke:#181818;stroke-width:0.5;"/><path d="M551,573.6348 L551,583.6348 L561,583.6348 L551,573.6348 " fill="#00FFFF" style="stroke:#181818;stroke-width:0.5;"/><text fill="#000000" font-family="sans-serif" font-size="13" lengthAdjust="spacing" textLength="73" x="473" y="591.2031">0.2185 ETH</text><text fill="#000000" font-family="sans-serif" font-size="13" lengthAdjust="spacing" textLength="57" x="473" y="606.5137">CHUNGO</text><text fill="#000000" font-family="sans-serif" font-size="13" lengthAdjust="spacing" textLength="40" x="481" y="621.8242">-8502</text><path d="M575,573.6348 L575,598.6348 L677,598.6348 L677,583.6348 L667,573.6348 L575,573.6348 " fill="#00FFFF" style="stroke:#181818;stroke-width:0.5;"/><path d="M667,573.6348 L667,583.6348 L677,583.6348 L667,573.6348 " fill="#00FFFF" style="stroke:#181818;stroke-width:0.5;"/><text fill="#000000" font-family="sans-serif" font-size="13" lengthAdjust="spacing" textLength="81" x="581" y="591.2031">0.02864 ETH</text><path d="M692,573.6348 L692,598.6348 L786,598.6348 L786,583.6348 L776,573.6348 L692,573.6348 " fill="#00FFFF" style="stroke:#181818;stroke-width:0.5;"/><path d="M776,573.6348 L776,583.6348 L786,583.6348 L776,573.6348 " fill="#00FFFF" style="stroke:#181818;stroke-width:0.5;"/><text fill="#000000" font-family="sans-serif" font-size="13" lengthAdjust="spacing" textLength="73" x="698" y="591.2031">0.0023 ETH</text><path d="M932,573.6348 L932,628.6348 L1034,628.6348 L1034,583.6348 L1024,573.6348 L932,573.6348 " fill="#00FFFF" style="stroke:#181818;stroke-width:0.5;"/><path d="M1024,573.6348 L1024,583.6348 L1034,583.6348 L1024,573.6348 " fill="#00FFFF" style="stroke:#181818;stroke-width:0.5;"/><text fill="#000000" font-family="sans-serif" font-size="13" lengthAdjust="spacing" textLength="81" x="938" y="591.2031">0.17936 ETH</text><text fill="#000000" font-family="sans-serif" font-size="13" lengthAdjust="spacing" textLength="57" x="938" y="606.5137">CHUNGO</text><text fill="#000000" font-family="sans-serif" font-size="13" lengthAdjust="spacing" textLength="32" x="946" y="621.8242">-266</text><path d="M1056,573.6348 L1056,628.6348 L1134,628.6348 L1134,583.6348 L1124,573.6348 L1056,573.6348 " fill="#00FFFF" style="stroke:#181818;stroke-width:0.5;"/><path d="M1124,573.6348 L1124,583.6348 L1134,583.6348 L1124,573.6348 " fill="#00FFFF" style="stroke:#181818;stroke-width:0.5;"/><text fill="#000000" font-family="sans-serif" font-size="13" lengthAdjust="spacing" textLength="57" x="1062" y="591.2031">0.19 ETH</text><text fill="#000000" font-family="sans-serif" font-size="13" lengthAdjust="spacing" textLength="57" x="1062" y="606.5137">CHUNGO</text><text fill="#000000" font-family="sans-serif" font-size="13" lengthAdjust="spacing" textLength="40" x="1070" y="621.8242">-6428</text><!--SRC=[ZLDTSvim47pdLzoaZxLLwK0WF1xFr8cTlBXzgFi3X10j4mTSGZh- -TM7aUsOkkM5MRIxTxSw-hhVQQ273Abcc6h9iYhHjC1ALHIPJbLQvBJWN74KCSTCbHMdPQ9G5x4g2qKPbaMbeaZ9VL-t3Rp8kcbqFu5YrwfdO6c668jq0fkscG1ciDO58CKO46SqcJ46Zvjj95NVTd173v-HCK9KZleEv2j80os0Q2-xlbRrNZQzvSLvAGbvu0bpF0jB0s0-Vv7Ti-xtEwdqOZ6VBtTl7QdR6MnEtm4NY_U6r3o4hBZmXXPg0upXDottRTSRIUXoZSMIaFMQeoDNM1HLnH5E36HA49BSbm-EOM6YolACaMbk9yWnSGmBImDWl37EC0kDMG1-jDL1_PJD3ttUNRmIndczZ7tjM0jP5V5vROui9uHcoZCiDC0meX3uT152dG5GaZ8XOBLzYaBKXZ6av1ZcJkrvICwS3y7uSoRu5MC8nZ4epV6ACGHpP1ohXCWDO-Xv1jjEDg-Lxk3-wVkNnwzGbo0unQkURO3EBnR7gKAi8pqboHLboDHHM9R7gSzcYFeYlP6kC4rlb6HNzOORylLoTnvkxL_5qWJ5HGGt0xEj_JVPMKTHq_OQsj_cAEpF1_dhJKRJiyNngWZWexiJyxQbpCkPwAO4QnD5d-1a5nhnTi5YwgNJ6zAmGruwJWfhv4bdItegvReTbuVVUf1J5AdVbd51-Ck3O5Zelm_XTk3M467h1jFJGbu6DYuFUnJa-JljPSf_0000]--></g></svg>