<?xml version="1.0" encoding="UTF-8" standalone="no"?><svg xmlns="http://www.w3.org/2000/svg" xmlns:xlink="http://www.w3.org/1999/xlink" contentStyleType="text/css" height="811px" preserveAspectRatio="none" style="width:1252px;height:811px;background:#FFFFFF;" version="1.1" viewBox="0 0 1252 811" width="1252px" zoomAndPan="magnify"><defs/><g><text fill="#000000" font-family="sans-serif" font-size="14" font-weight="bold" lengthAdjust="spacing" textLength="556" x="349.5" y="28.5352">0x720e126ea17f4e0b2fcf021e6c6b90b55c5283527cdf50d4c2eb3cdbc012dbfc</text><text fill="#000000" font-family="sans-serif" font-size="14" lengthAdjust="spacing" textLength="411" x="422" y="799.1875">mainnet, block 16722386, Mon, 27 Feb 2023 22:04:11 GMT</text><line style="stroke:#181818;stroke-width:0.5;stroke-dasharray:5.0,5.0;" x1="80" x2="80" y1="135.4648" y2="691.6758"/><line style="stroke:#181818;stroke-width:0.5;stroke-dasharray:5.0,5.0;" x1="269" x2="269" y1="135.4648" y2="691.6758"/><line style="stroke:#181818;stroke-width:0.5;stroke-dasharray:5.0,5.0;" x1="422" x2="422" y1="135.4648" y2="691.6758"/><line style="stroke:#181818;stroke-width:0.5;stroke-dasharray:5.0,5.0;" x1="549" x2="549" y1="135.4648" y2="691.6758"/><line style="stroke:#181818;stroke-width:0.5;stroke-dasharray:5.0,5.0;" x1="688" x2="688" y1="135.4648" y2="691.6758"/><line style="stroke:#181818;stroke-width:0.5;stroke-dasharray:5.0,5.0;" x1="816" x2="816" y1="135.4648" y2="691.6758"/><line style="stroke:#181818;stroke-width:0.5;stroke-dasharray:5.0,5.0;" x1="939" x2="939" y1="135.4648" y2="691.6758"/><line style="stroke:#181818;stroke-width:0.5;stroke-dasharray:5.0,5.0;" x1="1074" x2="1074" y1="135.4648" y2="691.6758"/><line style="stroke:#181818;stroke-width:0.5;stroke-dasharray:5.0,5.0;" x1="1199" x2="1199" y1="135.4648" y2="691.6758"/><text fill="#000000" font-family="sans-serif" font-size="14" font-style="italic" lengthAdjust="spacing" textLength="144" x="5" y="116.0234">«(bokkypoobah.eth)»</text><text fill="#000000" font-family="sans-serif" font-size="14" lengthAdjust="spacing" textLength="96" x="29" y="132.5117">0xA211..c92e</text><ellipse cx="80" cy="50.9883" fill="#E2E2F0" rx="8" ry="8" style="stroke:#181818;stroke-width:0.5;"/><path d="M80,58.9883 L80,85.9883 M67,66.9883 L93,66.9883 M80,85.9883 L67,100.9883 M80,85.9883 L93,100.9883 " fill="none" style="stroke:#181818;stroke-width:0.5;"/><text fill="#000000" font-family="sans-serif" font-size="14" font-style="italic" lengthAdjust="spacing" textLength="144" x="5" y="704.2109">«(bokkypoobah.eth)»</text><text fill="#000000" font-family="sans-serif" font-size="14" lengthAdjust="spacing" textLength="96" x="29" y="720.6992">0xA211..c92e</text><ellipse cx="80" cy="732.1523" fill="#E2E2F0" rx="8" ry="8" style="stroke:#181818;stroke-width:0.5;"/><path d="M80,740.1523 L80,767.1523 M67,748.1523 L93,748.1523 M80,767.1523 L67,782.1523 M80,767.1523 L93,782.1523 " fill="none" style="stroke:#181818;stroke-width:0.5;"/><rect fill="#E2E2F0" height="63.4648" rx="2.5" ry="2.5" style="stroke:#181818;stroke-width:0.5;" width="176" x="181" y="71"/><text fill="#000000" font-family="sans-serif" font-size="14" font-style="italic" lengthAdjust="spacing" textLength="98" x="220" y="91.5352">«marketplace»</text><text fill="#000000" font-family="sans-serif" font-size="14" font-style="italic" lengthAdjust="spacing" textLength="162" x="188" y="108.0234">«Blur.io: Marketplace 2»</text><text fill="#000000" font-family="sans-serif" font-size="14" lengthAdjust="spacing" textLength="98" x="220" y="124.5117">0x39da..D541</text><rect fill="#E2E2F0" height="63.4648" rx="2.5" ry="2.5" style="stroke:#181818;stroke-width:0.5;" width="176" x="181" y="690.6758"/><text fill="#000000" font-family="sans-serif" font-size="14" font-style="italic" lengthAdjust="spacing" textLength="98" x="220" y="711.2109">«marketplace»</text><text fill="#000000" font-family="sans-serif" font-size="14" font-style="italic" lengthAdjust="spacing" textLength="162" x="188" y="727.6992">«Blur.io: Marketplace 2»</text><text fill="#000000" font-family="sans-serif" font-size="14" lengthAdjust="spacing" textLength="98" x="220" y="744.1875">0x39da..D541</text><rect fill="#E2E2F0" height="46.9766" rx="2.5" ry="2.5" style="stroke:#181818;stroke-width:0.5;" width="111" x="367" y="87.4883"/><text fill="#000000" font-family="sans-serif" font-size="14" font-style="italic" lengthAdjust="spacing" textLength="67" x="389" y="108.0234">«Seaport»</text><text fill="#000000" font-family="sans-serif" font-size="14" lengthAdjust="spacing" textLength="97" x="374" y="124.5117">0x0000..E581</text><rect fill="#E2E2F0" height="46.9766" rx="2.5" ry="2.5" style="stroke:#181818;stroke-width:0.5;" width="111" x="367" y="690.6758"/><text fill="#000000" font-family="sans-serif" font-size="14" font-style="italic" lengthAdjust="spacing" textLength="67" x="389" y="711.2109">«Seaport»</text><text fill="#000000" font-family="sans-serif" font-size="14" lengthAdjust="spacing" textLength="97" x="374" y="727.6992">0x0000..E581</text><text fill="#000000" font-family="sans-serif" font-size="14" font-style="italic" lengthAdjust="spacing" textLength="117" x="488" y="116.0234">«(muzzalad.eth)»</text><text fill="#000000" font-family="sans-serif" font-size="14" lengthAdjust="spacing" textLength="94" x="499.5" y="132.5117">0xF2bB..FF52</text><ellipse cx="549.5" cy="50.9883" fill="#E2E2F0" rx="8" ry="8" style="stroke:#181818;stroke-width:0.5;"/><path d="M549.5,58.9883 L549.5,85.9883 M536.5,66.9883 L562.5,66.9883 M549.5,85.9883 L536.5,100.9883 M549.5,85.9883 L562.5,100.9883 " fill="none" style="stroke:#181818;stroke-width:0.5;"/><text fill="#000000" font-family="sans-serif" font-size="14" font-style="italic" lengthAdjust="spacing" textLength="117" x="488" y="704.2109">«(muzzalad.eth)»</text><text fill="#000000" font-family="sans-serif" font-size="14" lengthAdjust="spacing" textLength="94" x="499.5" y="720.6992">0xF2bB..FF52</text><ellipse cx="549.5" cy="732.1523" fill="#E2E2F0" rx="8" ry="8" style="stroke:#181818;stroke-width:0.5;"/><path d="M549.5,740.1523 L549.5,767.1523 M536.5,748.1523 L562.5,748.1523 M549.5,767.1523 L536.5,782.1523 M549.5,767.1523 L562.5,782.1523 " fill="none" style="stroke:#181818;stroke-width:0.5;"/><text fill="#000000" font-family="sans-serif" font-size="14" font-style="italic" lengthAdjust="spacing" textLength="128" x="621" y="116.0234">«(chungosnft.eth)»</text><text fill="#000000" font-family="sans-serif" font-size="14" lengthAdjust="spacing" textLength="98" x="636" y="132.5117">0x21c8..4CdD</text><ellipse cx="688" cy="50.9883" fill="#E2E2F0" rx="8" ry="8" style="stroke:#181818;stroke-width:0.5;"/><path d="M688,58.9883 L688,85.9883 M675,66.9883 L701,66.9883 M688,85.9883 L675,100.9883 M688,85.9883 L701,100.9883 " fill="none" style="stroke:#181818;stroke-width:0.5;"/><text fill="#000000" font-family="sans-serif" font-size="14" font-style="italic" lengthAdjust="spacing" textLength="128" x="621" y="704.2109">«(chungosnft.eth)»</text><text fill="#000000" font-family="sans-serif" font-size="14" lengthAdjust="spacing" textLength="98" x="636" y="720.6992">0x21c8..4CdD</text><ellipse cx="688" cy="732.1523" fill="#E2E2F0" rx="8" ry="8" style="stroke:#181818;stroke-width:0.5;"/><path d="M688,740.1523 L688,767.1523 M675,748.1523 L701,748.1523 M688,767.1523 L675,782.1523 M688,767.1523 L701,782.1523 " fill="none" style="stroke:#181818;stroke-width:0.5;"/><text fill="#000000" font-family="sans-serif" font-size="14" lengthAdjust="spacing" textLength="97" x="765" y="132.5117">0x7e5a..D924</text><ellipse cx="816.5" cy="67.4766" fill="#E2E2F0" rx="8" ry="8" style="stroke:#181818;stroke-width:0.5;"/><path d="M816.5,75.4766 L816.5,102.4766 M803.5,83.4766 L829.5,83.4766 M816.5,102.4766 L803.5,117.4766 M816.5,102.4766 L829.5,117.4766 " fill="none" style="stroke:#181818;stroke-width:0.5;"/><text fill="#000000" font-family="sans-serif" font-size="14" lengthAdjust="spacing" textLength="97" x="765" y="704.2109">0x7e5a..D924</text><ellipse cx="816.5" cy="715.6641" fill="#E2E2F0" rx="8" ry="8" style="stroke:#181818;stroke-width:0.5;"/><path d="M816.5,723.6641 L816.5,750.6641 M803.5,731.6641 L829.5,731.6641 M816.5,750.6641 L803.5,765.6641 M816.5,750.6641 L829.5,765.6641 " fill="none" style="stroke:#181818;stroke-width:0.5;"/><rect fill="#E2E2F0" height="46.9766" rx="2.5" ry="2.5" style="stroke:#181818;stroke-width:0.5;" width="122" x="878" y="87.4883"/><text fill="#000000" font-family="sans-serif" font-size="14" font-style="italic" lengthAdjust="spacing" textLength="108" x="885" y="108.0234">«BlurExchange»</text><text fill="#000000" font-family="sans-serif" font-size="14" lengthAdjust="spacing" textLength="98" x="890" y="124.5117">0x0000..5127</text><rect fill="#E2E2F0" height="46.9766" rx="2.5" ry="2.5" style="stroke:#181818;stroke-width:0.5;" width="122" x="878" y="690.6758"/><text fill="#000000" font-family="sans-serif" font-size="14" font-style="italic" lengthAdjust="spacing" textLength="108" x="885" y="711.2109">«BlurExchange»</text><text fill="#000000" font-family="sans-serif" font-size="14" lengthAdjust="spacing" textLength="98" x="890" y="727.6992">0x0000..5127</text><text fill="#000000" font-family="sans-serif" font-size="14" font-style="italic" lengthAdjust="spacing" textLength="122" x="1010" y="116.0234">«(calzonenft.eth)»</text><text fill="#000000" font-family="sans-serif" font-size="14" lengthAdjust="spacing" textLength="95" x="1023.5" y="132.5117">0x3E8a..FB3D</text><ellipse cx="1074" cy="50.9883" fill="#E2E2F0" rx="8" ry="8" style="stroke:#181818;stroke-width:0.5;"/><path d="M1074,58.9883 L1074,85.9883 M1061,66.9883 L1087,66.9883 M1074,85.9883 L1061,100.9883 M1074,85.9883 L1087,100.9883 " fill="none" style="stroke:#181818;stroke-width:0.5;"/><text fill="#000000" font-family="sans-serif" font-size="14" font-style="italic" lengthAdjust="spacing" textLength="122" x="1010" y="704.2109">«(calzonenft.eth)»</text><text fill="#000000" font-family="sans-serif" font-size="14" lengthAdjust="spacing" textLength="95" x="1023.5" y="720.6992">0x3E8a..FB3D</text><ellipse cx="1074" cy="732.1523" fill="#E2E2F0" rx="8" ry="8" style="stroke:#181818;stroke-width:0.5;"/><path d="M1074,740.1523 L1074,767.1523 M1061,748.1523 L1087,748.1523 M1074,767.1523 L1061,782.1523 M1074,767.1523 L1087,782.1523 " fill="none" style="stroke:#181818;stroke-width:0.5;"/><text fill="#000000" font-family="sans-serif" font-size="14" lengthAdjust="spacing" textLength="97" x="1148" y="132.5117">0x5219..07cD</text><ellipse cx="1199.5" cy="67.4766" fill="#E2E2F0" rx="8" ry="8" style="stroke:#181818;stroke-width:0.5;"/><path d="M1199.5,75.4766 L1199.5,102.4766 M1186.5,83.4766 L1212.5,83.4766 M1199.5,102.4766 L1186.5,117.4766 M1199.5,102.4766 L1212.5,117.4766 " fill="none" style="stroke:#181818;stroke-width:0.5;"/><text fill="#000000" font-family="sans-serif" font-size="14" lengthAdjust="spacing" textLength="97" x="1148" y="704.2109">0x5219..07cD</text><ellipse cx="1199.5" cy="715.6641" fill="#E2E2F0" rx="8" ry="8" style="stroke:#181818;stroke-width:0.5;"/><path d="M1199.5,723.6641 L1199.5,750.6641 M1186.5,731.6641 L1212.5,731.6641 M1199.5,750.6641 L1186.5,765.6641 M1199.5,750.6641 L1212.5,765.6641 " fill="none" style="stroke:#181818;stroke-width:0.5;"/><polygon fill="#181818" points="257,162.7754,267,166.7754,257,170.7754,261,166.7754" style="stroke:#181818;stroke-width:1.0;"/><line style="stroke:#181818;stroke-width:1.0;" x1="80" x2="263" y1="166.7754" y2="166.7754"/><text fill="#000000" font-family="sans-serif" font-size="13" lengthAdjust="spacing" textLength="73" x="87" y="162.0332">0.6188 ETH</text><polygon fill="#181818" points="410.5,192.0859,420.5,196.0859,410.5,200.0859,414.5,196.0859" style="stroke:#181818;stroke-width:1.0;"/><line style="stroke:#181818;stroke-width:1.0;" x1="269" x2="416.5" y1="196.0859" y2="196.0859"/><text fill="#000000" font-family="sans-serif" font-size="13" lengthAdjust="spacing" textLength="57" x="276" y="191.3438">0.23 ETH</text><polygon fill="#181818" points="537.5,221.3965,547.5,225.3965,537.5,229.3965,541.5,225.3965" style="stroke:#181818;stroke-width:1.0;"/><line style="stroke:#181818;stroke-width:1.0;" x1="422.5" x2="543.5" y1="225.3965" y2="225.3965"/><text fill="#000000" font-family="sans-serif" font-size="13" lengthAdjust="spacing" textLength="73" x="429.5" y="220.6543">0.2185 ETH</text><polygon fill="#181818" points="676,250.707,686,254.707,676,258.707,680,254.707" style="stroke:#181818;stroke-width:1.0;"/><line style="stroke:#181818;stroke-width:1.0;" x1="422.5" x2="682" y1="254.707" y2="254.707"/><text fill="#000000" font-family="sans-serif" font-size="13" lengthAdjust="spacing" textLength="73" x="429.5" y="249.9648">0.0092 ETH</text><polygon fill="#181818" points="804.5,280.0176,814.5,284.0176,804.5,288.0176,808.5,284.0176" style="stroke:#181818;stroke-width:1.0;"/><line style="stroke:#181818;stroke-width:1.0;" x1="422.5" x2="810.5" y1="284.0176" y2="284.0176"/><text fill="#000000" font-family="sans-serif" font-size="13" lengthAdjust="spacing" textLength="73" x="429.5" y="279.2754">0.0023 ETH</text><polygon fill="#181818" points="91,309.3281,81,313.3281,91,317.3281,87,313.3281" style="stroke:#181818;stroke-width:1.0;"/><line style="stroke:#181818;stroke-width:1.0;" x1="85" x2="548.5" y1="313.3281" y2="313.3281"/><text fill="#000000" font-family="sans-serif" font-size="13" lengthAdjust="spacing" textLength="165" x="97" y="308.5859">Transfer CHUNGO id 8502</text><polygon fill="#181818" points="927,338.6387,937,342.6387,927,346.6387,931,342.6387" style="stroke:#181818;stroke-width:1.0;"/><line style="stroke:#181818;stroke-width:1.0;" x1="269" x2="933" y1="342.6387" y2="342.6387"/><text fill="#000000" font-family="sans-serif" font-size="13" lengthAdjust="spacing" textLength="73" x="276" y="337.8965">0.3888 ETH</text><polygon fill="#181818" points="699,367.9492,689,371.9492,699,375.9492,695,371.9492" style="stroke:#181818;stroke-width:1.0;"/><line style="stroke:#181818;stroke-width:1.0;" x1="693" x2="938" y1="371.9492" y2="371.9492"/><text fill="#000000" font-family="sans-serif" font-size="13" lengthAdjust="spacing" textLength="81" x="705" y="367.207">0.00944 ETH</text><polygon fill="#181818" points="1062,397.2598,1072,401.2598,1062,405.2598,1066,401.2598" style="stroke:#181818;stroke-width:1.0;"/><line style="stroke:#181818;stroke-width:1.0;" x1="939" x2="1068" y1="401.2598" y2="401.2598"/><text fill="#000000" font-family="sans-serif" font-size="13" lengthAdjust="spacing" textLength="81" x="946" y="396.5176">0.17936 ETH</text><polygon fill="#181818" points="280,426.5703,270,430.5703,280,434.5703,276,430.5703" style="stroke:#181818;stroke-width:1.0;"/><line style="stroke:#181818;stroke-width:1.0;" x1="274" x2="1073" y1="430.5703" y2="430.5703"/><text fill="#000000" font-family="sans-serif" font-size="13" lengthAdjust="spacing" textLength="157" x="286" y="425.8281">Transfer CHUNGO id 266</text><polygon fill="#181818" points="699,455.8809,689,459.8809,699,463.8809,695,459.8809" style="stroke:#181818;stroke-width:1.0;"/><line style="stroke:#181818;stroke-width:1.0;" x1="693" x2="938" y1="459.8809" y2="459.8809"/><text fill="#000000" font-family="sans-serif" font-size="13" lengthAdjust="spacing" textLength="57" x="705" y="455.1387">0.01 ETH</text><polygon fill="#181818" points="1187.5,485.1914,1197.5,489.1914,1187.5,493.1914,1191.5,489.1914" style="stroke:#181818;stroke-width:1.0;"/><line style="stroke:#181818;stroke-width:1.0;" x1="939" x2="1193.5" y1="489.1914" y2="489.1914"/><text fill="#000000" font-family="sans-serif" font-size="13" lengthAdjust="spacing" textLength="57" x="946" y="484.4492">0.19 ETH</text><polygon fill="#181818" points="280,514.502,270,518.502,280,522.502,276,518.502" style="stroke:#181818;stroke-width:1.0;"/><line style="stroke:#181818;stroke-width:1.0;" x1="274" x2="1198.5" y1="518.502" y2="518.502"/><text fill="#000000" font-family="sans-serif" font-size="13" lengthAdjust="spacing" textLength="165" x="286" y="513.7598">Transfer CHUNGO id 6428</text><polygon fill="#181818" points="91,543.8125,81,547.8125,91,551.8125,87,547.8125" style="stroke:#181818;stroke-width:1.0;"/><line style="stroke:#181818;stroke-width:1.0;" x1="85" x2="268" y1="547.8125" y2="547.8125"/><text fill="#000000" font-family="sans-serif" font-size="13" lengthAdjust="spacing" textLength="157" x="97" y="543.0703">Transfer CHUNGO id 266</text><polygon fill="#181818" points="91,573.123,81,577.123,91,581.123,87,577.123" style="stroke:#181818;stroke-width:1.0;"/><line style="stroke:#181818;stroke-width:1.0;" x1="85" x2="268" y1="577.123" y2="577.123"/><text fill="#000000" font-family="sans-serif" font-size="13" lengthAdjust="spacing" textLength="165" x="97" y="572.3809">Transfer CHUNGO id 6428</text><path d="M29,590.123 L29,676.123 L131,676.123 L131,600.123 L121,590.123 L29,590.123 " fill="#00FFFF" style="stroke:#181818;stroke-width:0.5;"/><path d="M121,590.123 L121,600.123 L131,600.123 L121,590.123 " fill="#00FFFF" style="stroke:#181818;stroke-width:0.5;"/><text fill="#000000" font-family="sans-serif" font-size="13" lengthAdjust="spacing" textLength="81" x="35" y="607.6914">-0.6188 ETH</text><text fill="#000000" font-family="sans-serif" font-size="13" lengthAdjust="spacing" textLength="57" x="35" y="623.002">CHUNGO</text><text fill="#000000" font-family="sans-serif" font-size="13" lengthAdjust="spacing" textLength="42" x="43" y="638.3125">+8502</text><text fill="#000000" font-family="sans-serif" font-size="13" lengthAdjust="spacing" textLength="34" x="43" y="653.623">+266</text><text fill="#000000" font-family="sans-serif" font-size="13" lengthAdjust="spacing" textLength="42" x="43" y="668.9336">+6428</text><path d="M230,590.123 L230,645.123 L308,645.123 L308,600.123 L298,590.123 L230,590.123 " fill="#00FFFF" style="stroke:#181818;stroke-width:0.5;"/><path d="M298,590.123 L298,600.123 L308,600.123 L298,590.123 " fill="#00FFFF" style="stroke:#181818;stroke-width:0.5;"/><text fill="#000000" font-family="sans-serif" font-size="13" lengthAdjust="spacing" textLength="57" x="236" y="607.6914">CHUNGO</text><text fill="#000000" font-family="sans-serif" font-size="13" lengthAdjust="spacing" textLength="32" x="244" y="623.002">-266</text><text fill="#000000" font-family="sans-serif" font-size="13" lengthAdjust="spacing" textLength="40" x="244" y="638.3125">-6428</text><path d="M502,590.123 L502,645.123 L596,645.123 L596,600.123 L586,590.123 L502,590.123 " fill="#00FFFF" style="stroke:#181818;stroke-width:0.5;"/><path d="M586,590.123 L586,600.123 L596,600.123 L586,590.123 " fill="#00FFFF" style="stroke:#181818;stroke-width:0.5;"/><text fill="#000000" font-family="sans-serif" font-size="13" lengthAdjust="spacing" textLength="73" x="508" y="607.6914">0.2185 ETH</text><text fill="#000000" font-family="sans-serif" font-size="13" lengthAdjust="spacing" textLength="57" x="508" y="623.002">CHUNGO</text><text fill="#000000" font-family="sans-serif" font-size="13" lengthAdjust="spacing" textLength="40" x="516" y="638.3125">-8502</text><path d="M637,590.123 L637,615.123 L739,615.123 L739,600.123 L729,590.123 L637,590.123 " fill="#00FFFF" style="stroke:#181818;stroke-width:0.5;"/><path d="M729,590.123 L729,600.123 L739,600.123 L729,590.123 " fill="#00FFFF" style="stroke:#181818;stroke-width:0.5;"/><text fill="#000000" font-family="sans-serif" font-size="13" lengthAdjust="spacing" textLength="81" x="643" y="607.6914">0.02864 ETH</text><path d="M769,590.123 L769,615.123 L863,615.123 L863,600.123 L853,590.123 L769,590.123 " fill="#00FFFF" style="stroke:#181818;stroke-width:0.5;"/><path d="M853,590.123 L853,600.123 L863,600.123 L853,590.123 " fill="#00FFFF" style="stroke:#181818;stroke-width:0.5;"/><text fill="#000000" font-family="sans-serif" font-size="13" lengthAdjust="spacing" textLength="73" x="775" y="607.6914">0.0023 ETH</text><path d="M1023,590.123 L1023,645.123 L1125,645.123 L1125,600.123 L1115,590.123 L1023,590.123 " fill="#00FFFF" style="stroke:#181818;stroke-width:0.5;"/><path d="M1115,590.123 L1115,600.123 L1125,600.123 L1115,590.123 " fill="#00FFFF" style="stroke:#181818;stroke-width:0.5;"/><text fill="#000000" font-family="sans-serif" font-size="13" lengthAdjust="spacing" textLength="81" x="1029" y="607.6914">0.17936 ETH</text><text fill="#000000" font-family="sans-serif" font-size="13" lengthAdjust="spacing" textLength="57" x="1029" y="623.002">CHUNGO</text><text fill="#000000" font-family="sans-serif" font-size="13" lengthAdjust="spacing" textLength="32" x="1037" y="638.3125">-266</text><path d="M1160,590.123 L1160,645.123 L1238,645.123 L1238,600.123 L1228,590.123 L1160,590.123 " fill="#00FFFF" style="stroke:#181818;stroke-width:0.5;"/><path d="M1228,590.123 L1228,600.123 L1238,600.123 L1228,590.123 " fill="#00FFFF" style="stroke:#181818;stroke-width:0.5;"/><text fill="#000000" font-family="sans-serif" font-size="13" lengthAdjust="spacing" textLength="57" x="1166" y="607.6914">0.19 ETH</text><text fill="#000000" font-family="sans-serif" font-size="13" lengthAdjust="spacing" textLength="57" x="1166" y="623.002">CHUNGO</text><text fill="#000000" font-family="sans-serif" font-size="13" lengthAdjust="spacing" textLength="40" x="1174" y="638.3125">-6428</text><!--SRC=[ZLFBRjim4BphAnRffKLZbbo9UXY6WIQnaulRGzCFu4knO4To7Rb8y_KbgOYEAzMjBiAACxF3sLLRjLi3z3b3QXYcHh2iJ0oLMAgI8ZEfIcL19UUAOnvpp9GkETM9GYDZfQMY3BKiLHGfiMkhfeP7KTMrQIz1RXkr0PPcY76UNiAggIy1CrWQ2KWn1iGfJQQCmUtgFXAgRVPmGPy_8sE4g0BD1OWd4BPq1SncxsMpsVpQDOqKQsBQzOVvFDg9VLkfQYVgrf7ZGWj2RdZ2FDcLsXQM_2Zs6zFkjaAP-NmskzeUzgHgfh0wVWSS2bBx4BBWUIVeIcCBA_ZDY5spRoqbM5-Yl29akUJemILAMPOSdVN7mykBs0hT-muSP2ed9BdMDvxZoaHfxJXgVQWVcgUwR0Uip71tpm8JptAbjWMCs-SCis3V5T05i7XMQr4_cBVAyIAtoikhkFCJcroKCkxyYErBKvinFnnPGGZDLCTofIqqH56OtsGUnZ45e2HbUGwB-xie3CaY-dmzmgw8Em-Ps_C-qkwSvNo0w0Fq24eB723wi5uHhrt2i2oYzpo5-xsedqgpX-kxxrzklqAb8USK1vvTg5ulpbzl5Q8UyPGa0qYViuUmh8ZJBfi-_fFqHbnXcfvfoGRz-Wbr_Gf_7gRshsPfWlb916S3SzR-6-obewXkMWFDJtiKzkUT-74GqUJDudIi2E2ZdubzkrRsvKLChS79HD4dECe58vrSa9XqrCaPQjYXZZeE2clKWTuiwR6LTpjE3xz_JwUOfzssZ1F2dny8_KB__H9-1yvT8cnTBtfSoDF0nkbXZmAz-8Dxcl9l]--></g></svg>