<?xml version="1.0" encoding="UTF-8" standalone="no"?><svg xmlns="http://www.w3.org/2000/svg" xmlns:xlink="http://www.w3.org/1999/xlink" contentStyleType="text/css" height="778px" preserveAspectRatio="none" style="width:1131px;height:778px;background:#FFFFFF;" version="1.1" viewBox="0 0 1131 778" width="1131px" zoomAndPan="magnify"><defs/><g><text fill="#000000" font-family="sans-serif" font-size="14" font-weight="bold" lengthAdjust="spacing" textLength="556" x="289" y="28.5352">0x720e126ea17f4e0b2fcf021e6c6b90b55c5283527cdf50d4c2eb3cdbc012dbfc</text><text fill="#000000" font-family="sans-serif" font-size="14" lengthAdjust="spacing" textLength="347" x="393.5" y="766.2109">block 16722386, Mon, 27 Feb 2023 22:04:11 GMT</text><line style="stroke:#181818;stroke-width:0.5;stroke-dasharray:5.0,5.0;" x1="56" x2="56" y1="118.9766" y2="675.1875"/><line style="stroke:#181818;stroke-width:0.5;stroke-dasharray:5.0,5.0;" x1="245" x2="245" y1="118.9766" y2="675.1875"/><line style="stroke:#181818;stroke-width:0.5;stroke-dasharray:5.0,5.0;" x1="398" x2="398" y1="118.9766" y2="675.1875"/><line style="stroke:#181818;stroke-width:0.5;stroke-dasharray:5.0,5.0;" x1="514" x2="514" y1="118.9766" y2="675.1875"/><line style="stroke:#181818;stroke-width:0.5;stroke-dasharray:5.0,5.0;" x1="625" x2="625" y1="118.9766" y2="675.1875"/><line style="stroke:#181818;stroke-width:0.5;stroke-dasharray:5.0,5.0;" x1="732" x2="732" y1="118.9766" y2="675.1875"/><line style="stroke:#181818;stroke-width:0.5;stroke-dasharray:5.0,5.0;" x1="849" x2="849" y1="118.9766" y2="675.1875"/><line style="stroke:#181818;stroke-width:0.5;stroke-dasharray:5.0,5.0;" x1="969" x2="969" y1="118.9766" y2="675.1875"/><line style="stroke:#181818;stroke-width:0.5;stroke-dasharray:5.0,5.0;" x1="1079" x2="1079" y1="118.9766" y2="675.1875"/><text fill="#000000" font-family="sans-serif" font-size="14" lengthAdjust="spacing" textLength="96" x="5" y="116.0234">0xA211..c92e</text><ellipse cx="56" cy="50.9883" fill="#E2E2F0" rx="8" ry="8" style="stroke:#181818;stroke-width:0.5;"/><path d="M56,58.9883 L56,85.9883 M43,66.9883 L69,66.9883 M56,85.9883 L43,100.9883 M56,85.9883 L69,100.9883 " fill="none" style="stroke:#181818;stroke-width:0.5;"/><text fill="#000000" font-family="sans-serif" font-size="14" lengthAdjust="spacing" textLength="96" x="5" y="687.7227">0xA211..c92e</text><ellipse cx="56" cy="699.1758" fill="#E2E2F0" rx="8" ry="8" style="stroke:#181818;stroke-width:0.5;"/><path d="M56,707.1758 L56,734.1758 M43,715.1758 L69,715.1758 M56,734.1758 L43,749.1758 M56,734.1758 L69,749.1758 " fill="none" style="stroke:#181818;stroke-width:0.5;"/><rect fill="#E2E2F0" height="63.4648" rx="2.5" ry="2.5" style="stroke:#181818;stroke-width:0.5;" width="176" x="157" y="54.5117"/><text fill="#000000" font-family="sans-serif" font-size="14" font-style="italic" lengthAdjust="spacing" textLength="98" x="196" y="75.0469">«marketplace»</text><text fill="#000000" font-family="sans-serif" font-size="14" font-style="italic" lengthAdjust="spacing" textLength="162" x="164" y="91.5352">«Blur.io: Marketplace 2»</text><text fill="#000000" font-family="sans-serif" font-size="14" lengthAdjust="spacing" textLength="98" x="196" y="108.0234">0x39da..D541</text><rect fill="#E2E2F0" height="63.4648" rx="2.5" ry="2.5" style="stroke:#181818;stroke-width:0.5;" width="176" x="157" y="674.1875"/><text fill="#000000" font-family="sans-serif" font-size="14" font-style="italic" lengthAdjust="spacing" textLength="98" x="196" y="694.7227">«marketplace»</text><text fill="#000000" font-family="sans-serif" font-size="14" font-style="italic" lengthAdjust="spacing" textLength="162" x="164" y="711.2109">«Blur.io: Marketplace 2»</text><text fill="#000000" font-family="sans-serif" font-size="14" lengthAdjust="spacing" textLength="98" x="196" y="727.6992">0x39da..D541</text><rect fill="#E2E2F0" height="46.9766" rx="2.5" ry="2.5" style="stroke:#181818;stroke-width:0.5;" width="111" x="343" y="71"/><text fill="#000000" font-family="sans-serif" font-size="14" font-style="italic" lengthAdjust="spacing" textLength="67" x="365" y="91.5352">«Seaport»</text><text fill="#000000" font-family="sans-serif" font-size="14" lengthAdjust="spacing" textLength="97" x="350" y="108.0234">0x0000..e581</text><rect fill="#E2E2F0" height="46.9766" rx="2.5" ry="2.5" style="stroke:#181818;stroke-width:0.5;" width="111" x="343" y="674.1875"/><text fill="#000000" font-family="sans-serif" font-size="14" font-style="italic" lengthAdjust="spacing" textLength="67" x="365" y="694.7227">«Seaport»</text><text fill="#000000" font-family="sans-serif" font-size="14" lengthAdjust="spacing" textLength="97" x="350" y="711.2109">0x0000..e581</text><text fill="#000000" font-family="sans-serif" font-size="14" lengthAdjust="spacing" textLength="94" x="464" y="116.0234">0x21c8..4cdd</text><ellipse cx="514" cy="50.9883" fill="#E2E2F0" rx="8" ry="8" style="stroke:#181818;stroke-width:0.5;"/><path d="M514,58.9883 L514,85.9883 M501,66.9883 L527,66.9883 M514,85.9883 L501,100.9883 M514,85.9883 L527,100.9883 " fill="none" style="stroke:#181818;stroke-width:0.5;"/><text fill="#000000" font-family="sans-serif" font-size="14" lengthAdjust="spacing" textLength="94" x="464" y="687.7227">0x21c8..4cdd</text><ellipse cx="514" cy="699.1758" fill="#E2E2F0" rx="8" ry="8" style="stroke:#181818;stroke-width:0.5;"/><path d="M514,707.1758 L514,734.1758 M501,715.1758 L527,715.1758 M514,734.1758 L501,749.1758 M514,734.1758 L527,749.1758 " fill="none" style="stroke:#181818;stroke-width:0.5;"/><text fill="#000000" font-family="sans-serif" font-size="14" lengthAdjust="spacing" textLength="96" x="574" y="116.0234">0x7e5a..d924</text><ellipse cx="625" cy="50.9883" fill="#E2E2F0" rx="8" ry="8" style="stroke:#181818;stroke-width:0.5;"/><path d="M625,58.9883 L625,85.9883 M612,66.9883 L638,66.9883 M625,85.9883 L612,100.9883 M625,85.9883 L638,100.9883 " fill="none" style="stroke:#181818;stroke-width:0.5;"/><text fill="#000000" font-family="sans-serif" font-size="14" lengthAdjust="spacing" textLength="96" x="574" y="687.7227">0x7e5a..d924</text><ellipse cx="625" cy="699.1758" fill="#E2E2F0" rx="8" ry="8" style="stroke:#181818;stroke-width:0.5;"/><path d="M625,707.1758 L625,734.1758 M612,715.1758 L638,715.1758 M625,734.1758 L612,749.1758 M625,734.1758 L638,749.1758 " fill="none" style="stroke:#181818;stroke-width:0.5;"/><text fill="#000000" font-family="sans-serif" font-size="14" lengthAdjust="spacing" textLength="86" x="686" y="116.0234">0xf2bb..ff52</text><ellipse cx="732" cy="50.9883" fill="#E2E2F0" rx="8" ry="8" style="stroke:#181818;stroke-width:0.5;"/><path d="M732,58.9883 L732,85.9883 M719,66.9883 L745,66.9883 M732,85.9883 L719,100.9883 M732,85.9883 L745,100.9883 " fill="none" style="stroke:#181818;stroke-width:0.5;"/><text fill="#000000" font-family="sans-serif" font-size="14" lengthAdjust="spacing" textLength="86" x="686" y="687.7227">0xf2bb..ff52</text><ellipse cx="732" cy="699.1758" fill="#E2E2F0" rx="8" ry="8" style="stroke:#181818;stroke-width:0.5;"/><path d="M732,707.1758 L732,734.1758 M719,715.1758 L745,715.1758 M732,734.1758 L719,749.1758 M732,734.1758 L745,749.1758 " fill="none" style="stroke:#181818;stroke-width:0.5;"/><rect fill="#E2E2F0" height="46.9766" rx="2.5" ry="2.5" style="stroke:#181818;stroke-width:0.5;" width="122" x="788" y="71"/><text fill="#000000" font-family="sans-serif" font-size="14" font-style="italic" lengthAdjust="spacing" textLength="108" x="795" y="91.5352">«BlurExchange»</text><text fill="#000000" font-family="sans-serif" font-size="14" lengthAdjust="spacing" textLength="98" x="800" y="108.0234">0x0000..5127</text><rect fill="#E2E2F0" height="46.9766" rx="2.5" ry="2.5" style="stroke:#181818;stroke-width:0.5;" width="122" x="788" y="674.1875"/><text fill="#000000" font-family="sans-serif" font-size="14" font-style="italic" lengthAdjust="spacing" textLength="108" x="795" y="694.7227">«BlurExchange»</text><text fill="#000000" font-family="sans-serif" font-size="14" lengthAdjust="spacing" textLength="98" x="800" y="711.2109">0x0000..5127</text><text fill="#000000" font-family="sans-serif" font-size="14" lengthAdjust="spacing" textLength="92" x="920" y="116.0234">0x3e8a..fb3d</text><ellipse cx="969" cy="50.9883" fill="#E2E2F0" rx="8" ry="8" style="stroke:#181818;stroke-width:0.5;"/><path d="M969,58.9883 L969,85.9883 M956,66.9883 L982,66.9883 M969,85.9883 L956,100.9883 M969,85.9883 L982,100.9883 " fill="none" style="stroke:#181818;stroke-width:0.5;"/><text fill="#000000" font-family="sans-serif" font-size="14" lengthAdjust="spacing" textLength="92" x="920" y="687.7227">0x3e8a..fb3d</text><ellipse cx="969" cy="699.1758" fill="#E2E2F0" rx="8" ry="8" style="stroke:#181818;stroke-width:0.5;"/><path d="M969,707.1758 L969,734.1758 M956,715.1758 L982,715.1758 M969,734.1758 L956,749.1758 M969,734.1758 L982,749.1758 " fill="none" style="stroke:#181818;stroke-width:0.5;"/><text fill="#000000" font-family="sans-serif" font-size="14" lengthAdjust="spacing" textLength="96" x="1028" y="116.0234">0x5219..07cd</text><ellipse cx="1079" cy="50.9883" fill="#E2E2F0" rx="8" ry="8" style="stroke:#181818;stroke-width:0.5;"/><path d="M1079,58.9883 L1079,85.9883 M1066,66.9883 L1092,66.9883 M1079,85.9883 L1066,100.9883 M1079,85.9883 L1092,100.9883 " fill="none" style="stroke:#181818;stroke-width:0.5;"/><text fill="#000000" font-family="sans-serif" font-size="14" lengthAdjust="spacing" textLength="96" x="1028" y="687.7227">0x5219..07cd</text><ellipse cx="1079" cy="699.1758" fill="#E2E2F0" rx="8" ry="8" style="stroke:#181818;stroke-width:0.5;"/><path d="M1079,707.1758 L1079,734.1758 M1066,715.1758 L1092,715.1758 M1079,734.1758 L1066,749.1758 M1079,734.1758 L1092,749.1758 " fill="none" style="stroke:#181818;stroke-width:0.5;"/><polygon fill="#181818" points="233,146.2871,243,150.2871,233,154.2871,237,150.2871" style="stroke:#181818;stroke-width:1.0;"/><line style="stroke:#181818;stroke-width:1.0;" x1="56" x2="239" y1="150.2871" y2="150.2871"/><text fill="#000000" font-family="sans-serif" font-size="13" lengthAdjust="spacing" textLength="73" x="63" y="145.5449">0.6188 ETH</text><polygon fill="#181818" points="386.5,175.5977,396.5,179.5977,386.5,183.5977,390.5,179.5977" style="stroke:#181818;stroke-width:1.0;"/><line style="stroke:#181818;stroke-width:1.0;" x1="245" x2="392.5" y1="179.5977" y2="179.5977"/><text fill="#000000" font-family="sans-serif" font-size="13" lengthAdjust="spacing" textLength="57" x="252" y="174.8555">0.23 ETH</text><polygon fill="#181818" points="720,204.9082,730,208.9082,720,212.9082,724,208.9082" style="stroke:#181818;stroke-width:1.0;"/><line style="stroke:#181818;stroke-width:1.0;" x1="398.5" x2="726" y1="208.9082" y2="208.9082"/><text fill="#000000" font-family="sans-serif" font-size="13" lengthAdjust="spacing" textLength="73" x="405.5" y="204.166">0.2185 ETH</text><polygon fill="#181818" points="502,234.2188,512,238.2188,502,242.2188,506,238.2188" style="stroke:#181818;stroke-width:1.0;"/><line style="stroke:#181818;stroke-width:1.0;" x1="398.5" x2="508" y1="238.2188" y2="238.2188"/><text fill="#000000" font-family="sans-serif" font-size="13" lengthAdjust="spacing" textLength="73" x="405.5" y="233.4766">0.0092 ETH</text><polygon fill="#181818" points="613,263.5293,623,267.5293,613,271.5293,617,267.5293" style="stroke:#181818;stroke-width:1.0;"/><line style="stroke:#181818;stroke-width:1.0;" x1="398.5" x2="619" y1="267.5293" y2="267.5293"/><text fill="#000000" font-family="sans-serif" font-size="13" lengthAdjust="spacing" textLength="73" x="405.5" y="262.7871">0.0023 ETH</text><polygon fill="#181818" points="67,292.8398,57,296.8398,67,300.8398,63,296.8398" style="stroke:#181818;stroke-width:1.0;"/><ellipse cx="731.5" cy="296.0898" fill="none" rx="4" ry="4" style="stroke:#181818;stroke-width:1.5;"/><line style="stroke:#181818;stroke-width:1.0;" x1="61" x2="727" y1="296.8398" y2="296.8398"/><text fill="#000000" font-family="sans-serif" font-size="13" lengthAdjust="spacing" textLength="165" x="73" y="292.0977">Transfer CHUNGO id 8502</text><polygon fill="#181818" points="837,322.1504,847,326.1504,837,330.1504,841,326.1504" style="stroke:#181818;stroke-width:1.0;"/><line style="stroke:#181818;stroke-width:1.0;" x1="245" x2="843" y1="326.1504" y2="326.1504"/><text fill="#000000" font-family="sans-serif" font-size="13" lengthAdjust="spacing" textLength="73" x="252" y="321.4082">0.3888 ETH</text><polygon fill="#181818" points="525,351.4609,515,355.4609,525,359.4609,521,355.4609" style="stroke:#181818;stroke-width:1.0;"/><line style="stroke:#181818;stroke-width:1.0;" x1="519" x2="848" y1="355.4609" y2="355.4609"/><text fill="#000000" font-family="sans-serif" font-size="13" lengthAdjust="spacing" textLength="81" x="531" y="350.7188">0.00944 ETH</text><polygon fill="#181818" points="957,380.7715,967,384.7715,957,388.7715,961,384.7715" style="stroke:#181818;stroke-width:1.0;"/><line style="stroke:#181818;stroke-width:1.0;" x1="849" x2="963" y1="384.7715" y2="384.7715"/><text fill="#000000" font-family="sans-serif" font-size="13" lengthAdjust="spacing" textLength="81" x="856" y="380.0293">0.17936 ETH</text><polygon fill="#181818" points="256,410.082,246,414.082,256,418.082,252,414.082" style="stroke:#181818;stroke-width:1.0;"/><ellipse cx="968.5" cy="413.332" fill="none" rx="4" ry="4" style="stroke:#181818;stroke-width:1.5;"/><line style="stroke:#181818;stroke-width:1.0;" x1="250" x2="964" y1="414.082" y2="414.082"/><text fill="#000000" font-family="sans-serif" font-size="13" lengthAdjust="spacing" textLength="157" x="262" y="409.3398">Transfer CHUNGO id 266</text><polygon fill="#181818" points="525,439.3926,515,443.3926,525,447.3926,521,443.3926" style="stroke:#181818;stroke-width:1.0;"/><line style="stroke:#181818;stroke-width:1.0;" x1="519" x2="848" y1="443.3926" y2="443.3926"/><text fill="#000000" font-family="sans-serif" font-size="13" lengthAdjust="spacing" textLength="57" x="531" y="438.6504">0.01 ETH</text><polygon fill="#181818" points="1067,468.7031,1077,472.7031,1067,476.7031,1071,472.7031" style="stroke:#181818;stroke-width:1.0;"/><line style="stroke:#181818;stroke-width:1.0;" x1="849" x2="1073" y1="472.7031" y2="472.7031"/><text fill="#000000" font-family="sans-serif" font-size="13" lengthAdjust="spacing" textLength="57" x="856" y="467.9609">0.19 ETH</text><polygon fill="#181818" points="256,498.0137,246,502.0137,256,506.0137,252,502.0137" style="stroke:#181818;stroke-width:1.0;"/><ellipse cx="1078.5" cy="501.2637" fill="none" rx="4" ry="4" style="stroke:#181818;stroke-width:1.5;"/><line style="stroke:#181818;stroke-width:1.0;" x1="250" x2="1074" y1="502.0137" y2="502.0137"/><text fill="#000000" font-family="sans-serif" font-size="13" lengthAdjust="spacing" textLength="165" x="262" y="497.2715">Transfer CHUNGO id 6428</text><polygon fill="#181818" points="67,527.3242,57,531.3242,67,535.3242,63,531.3242" style="stroke:#181818;stroke-width:1.0;"/><ellipse cx="244.5" cy="530.5742" fill="none" rx="4" ry="4" style="stroke:#181818;stroke-width:1.5;"/><line style="stroke:#181818;stroke-width:1.0;" x1="61" x2="240" y1="531.3242" y2="531.3242"/><text fill="#000000" font-family="sans-serif" font-size="13" lengthAdjust="spacing" textLength="157" x="73" y="526.582">Transfer CHUNGO id 266</text><polygon fill="#181818" points="67,556.6348,57,560.6348,67,564.6348,63,560.6348" style="stroke:#181818;stroke-width:1.0;"/><ellipse cx="244.5" cy="559.8848" fill="none" rx="4" ry="4" style="stroke:#181818;stroke-width:1.5;"/><line style="stroke:#181818;stroke-width:1.0;" x1="61" x2="240" y1="560.6348" y2="560.6348"/><text fill="#000000" font-family="sans-serif" font-size="13" lengthAdjust="spacing" textLength="165" x="73" y="555.8926">Transfer CHUNGO id 6428</text><path d="M5,573.6348 L5,659.6348 L107,659.6348 L107,583.6348 L97,573.6348 L5,573.6348 " fill="#00FFFF" style="stroke:#181818;stroke-width:0.5;"/><path d="M97,573.6348 L97,583.6348 L107,583.6348 L97,573.6348 " fill="#00FFFF" style="stroke:#181818;stroke-width:0.5;"/><text fill="#000000" font-family="sans-serif" font-size="13" lengthAdjust="spacing" textLength="81" x="11" y="591.2031">-0.6188 ETH</text><text fill="#000000" font-family="sans-serif" font-size="13" lengthAdjust="spacing" textLength="57" x="11" y="606.5137">CHUNGO</text><text fill="#000000" font-family="sans-serif" font-size="13" lengthAdjust="spacing" textLength="42" x="19" y="621.8242">+8502</text><text fill="#000000" font-family="sans-serif" font-size="13" lengthAdjust="spacing" textLength="34" x="19" y="637.1348">+266</text><text fill="#000000" font-family="sans-serif" font-size="13" lengthAdjust="spacing" textLength="42" x="19" y="652.4453">+6428</text><path d="M198,573.6348 L198,644.6348 L292,644.6348 L292,583.6348 L282,573.6348 L198,573.6348 " fill="#00FFFF" style="stroke:#181818;stroke-width:0.5;"/><path d="M282,573.6348 L282,583.6348 L292,583.6348 L282,573.6348 " fill="#00FFFF" style="stroke:#181818;stroke-width:0.5;"/><text fill="#000000" font-family="sans-serif" font-size="13" lengthAdjust="spacing" textLength="73" x="204" y="591.2031">0.6188 ETH</text><text fill="#000000" font-family="sans-serif" font-size="13" lengthAdjust="spacing" textLength="57" x="204" y="606.5137">CHUNGO</text><text fill="#000000" font-family="sans-serif" font-size="13" lengthAdjust="spacing" textLength="34" x="212" y="621.8242">+266</text><text fill="#000000" font-family="sans-serif" font-size="13" lengthAdjust="spacing" textLength="42" x="212" y="637.1348">+6428</text><path d="M194,573.6348 L194,598.6348 L296,598.6348 L296,583.6348 L286,573.6348 L194,573.6348 " fill="#00FFFF" style="stroke:#181818;stroke-width:0.5;"/><path d="M286,573.6348 L286,583.6348 L296,583.6348 L286,573.6348 " fill="#00FFFF" style="stroke:#181818;stroke-width:0.5;"/><text fill="#000000" font-family="sans-serif" font-size="13" lengthAdjust="spacing" textLength="81" x="200" y="591.2031">-0.6188 ETH</text><path d="M685,573.6348 L685,598.6348 L779,598.6348 L779,583.6348 L769,573.6348 L685,573.6348 " fill="#00FFFF" style="stroke:#181818;stroke-width:0.5;"/><path d="M769,573.6348 L769,583.6348 L779,583.6348 L769,573.6348 " fill="#00FFFF" style="stroke:#181818;stroke-width:0.5;"/><text fill="#000000" font-family="sans-serif" font-size="13" lengthAdjust="spacing" textLength="73" x="691" y="591.2031">0.2185 ETH</text><path d="M463,573.6348 L463,598.6348 L565,598.6348 L565,583.6348 L555,573.6348 L463,573.6348 " fill="#00FFFF" style="stroke:#181818;stroke-width:0.5;"/><path d="M555,573.6348 L555,583.6348 L565,583.6348 L555,573.6348 " fill="#00FFFF" style="stroke:#181818;stroke-width:0.5;"/><text fill="#000000" font-family="sans-serif" font-size="13" lengthAdjust="spacing" textLength="81" x="469" y="591.2031">0.02864 ETH</text><path d="M578,573.6348 L578,598.6348 L672,598.6348 L672,583.6348 L662,573.6348 L578,573.6348 " fill="#00FFFF" style="stroke:#181818;stroke-width:0.5;"/><path d="M662,573.6348 L662,583.6348 L672,583.6348 L662,573.6348 " fill="#00FFFF" style="stroke:#181818;stroke-width:0.5;"/><text fill="#000000" font-family="sans-serif" font-size="13" lengthAdjust="spacing" textLength="73" x="584" y="591.2031">0.0023 ETH</text><path d="M918,573.6348 L918,598.6348 L1020,598.6348 L1020,583.6348 L1010,573.6348 L918,573.6348 " fill="#00FFFF" style="stroke:#181818;stroke-width:0.5;"/><path d="M1010,573.6348 L1010,583.6348 L1020,583.6348 L1010,573.6348 " fill="#00FFFF" style="stroke:#181818;stroke-width:0.5;"/><text fill="#000000" font-family="sans-serif" font-size="13" lengthAdjust="spacing" textLength="81" x="924" y="591.2031">0.17936 ETH</text><path d="M1040,573.6348 L1040,598.6348 L1118,598.6348 L1118,583.6348 L1108,573.6348 L1040,573.6348 " fill="#00FFFF" style="stroke:#181818;stroke-width:0.5;"/><path d="M1108,573.6348 L1108,583.6348 L1118,583.6348 L1108,573.6348 " fill="#00FFFF" style="stroke:#181818;stroke-width:0.5;"/><text fill="#000000" font-family="sans-serif" font-size="13" lengthAdjust="spacing" textLength="57" x="1046" y="591.2031">0.19 ETH</text><!--SRC=[hPJFSfim4CRlFCLEUcoYIWlYZyVZcRgsaulRGzq744AqJ5nm2UduyIi9IwQ1EEvCVM4-zDjlLxjhkghRAw371AbY62l1aZ9IDCTIbXIPYcMSPpJdN79CGuw9B4fEYqYYoaDPv98oBF9I1b8Skggf8TytyX5Od226QNmBswQ-1KnWet90YY4WpcWqOmpkjxj0oAvfuOOUFo9ZXCWCrGs89n1Q6W71GRHT9Qk3g3l3XLaX25dnY5dEo48BcCz_YlPHTOUza6gncC-N- -UMLCqCjkVtW8l5j67n_mof_X6YUDeR6cc4DlognA5fEntYhrrYdXDIbXmjRAGHS2QGoPIGI1Q59OmqOa0aYfiRP1XPmaWZ1iG6yoKXcyqeosJfd67YIpS2-iklZ_A7gB-hOVsXIdNkCW_xwemqOf0xN1jYimnNhn4SMKO8rPjb2IEDc29MBuZ0xydTmezk1a19pD8Krhk7m0zK4suMbj2hQCxzVFIvQqn_pb8-8bpxBK5fXYF2jVz4dBBubZSQSKNFODUA-gbKBNnw-FRv_WjK1QISugXeCmLh6AQdQ_dPJ1GLHIF4jTqYBCd2k6-EcqRpL_ycoi8ulf2JZHAw6VK9Ctlkv_PcjZZ2zDo4DtjcYhkUjkP1K3UTWkQtFl9Bz4xyUXR1tM1x-gW0uBsTYtwQNFfXJLHTWB49WWzmjlELz7QJRl_iCYngEi0lOHym3VazTBNvBP_c_UV6yHJJEBeGuBy-Fi3z1QugwFMhsSMw1FbTTfdFQtvLm3JaTzQxPXSiNz0U-WC0]--></g></svg>