<?xml version="1.0" encoding="UTF-8" standalone="no"?><svg xmlns="http://www.w3.org/2000/svg" xmlns:xlink="http://www.w3.org/1999/xlink" contentStyleType="text/css" height="811px" preserveAspectRatio="none" style="width:1120px;height:811px;background:#FFFFFF;" version="1.1" viewBox="0 0 1120 811" width="1120px" zoomAndPan="magnify"><defs/><g><text fill="#000000" font-family="sans-serif" font-size="14" font-weight="bold" lengthAdjust="spacing" textLength="556" x="283.5" y="28.5352">0x720e126ea17f4e0b2fcf021e6c6b90b55c5283527cdf50d4c2eb3cdbc012dbfc</text><text fill="#000000" font-family="sans-serif" font-size="14" lengthAdjust="spacing" textLength="411" x="356" y="799.1875">mainnet, block 16722386, Mon, 27 Feb 2023 22:04:11 GMT</text><line style="stroke:#181818;stroke-width:0.5;stroke-dasharray:5.0,5.0;" x1="80" x2="80" y1="135.4648" y2="691.6758"/><line style="stroke:#181818;stroke-width:0.5;stroke-dasharray:5.0,5.0;" x1="269" x2="269" y1="135.4648" y2="691.6758"/><line style="stroke:#181818;stroke-width:0.5;stroke-dasharray:5.0,5.0;" x1="428" x2="428" y1="135.4648" y2="691.6758"/><line style="stroke:#181818;stroke-width:0.5;stroke-dasharray:5.0,5.0;" x1="567" x2="567" y1="135.4648" y2="691.6758"/><line style="stroke:#181818;stroke-width:0.5;stroke-dasharray:5.0,5.0;" x1="694" x2="694" y1="135.4648" y2="691.6758"/><line style="stroke:#181818;stroke-width:0.5;stroke-dasharray:5.0,5.0;" x1="811" x2="811" y1="135.4648" y2="691.6758"/><line style="stroke:#181818;stroke-width:0.5;stroke-dasharray:5.0,5.0;" x1="941" x2="941" y1="135.4648" y2="691.6758"/><line style="stroke:#181818;stroke-width:0.5;stroke-dasharray:5.0,5.0;" x1="1067" x2="1067" y1="135.4648" y2="691.6758"/><text fill="#000000" font-family="sans-serif" font-size="14" font-style="italic" lengthAdjust="spacing" textLength="144" x="5" y="116.0234">«(bokkypoobah.eth)»</text><text fill="#000000" font-family="sans-serif" font-size="14" lengthAdjust="spacing" textLength="100" x="27" y="132.5117">0xA211..0xA2</text><ellipse cx="80" cy="50.9883" fill="#E2E2F0" rx="8" ry="8" style="stroke:#181818;stroke-width:0.5;"/><path d="M80,58.9883 L80,85.9883 M67,66.9883 L93,66.9883 M80,85.9883 L67,100.9883 M80,85.9883 L93,100.9883 " fill="none" style="stroke:#181818;stroke-width:0.5;"/><text fill="#000000" font-family="sans-serif" font-size="14" font-style="italic" lengthAdjust="spacing" textLength="144" x="5" y="704.2109">«(bokkypoobah.eth)»</text><text fill="#000000" font-family="sans-serif" font-size="14" lengthAdjust="spacing" textLength="100" x="27" y="720.6992">0xA211..0xA2</text><ellipse cx="80" cy="732.1523" fill="#E2E2F0" rx="8" ry="8" style="stroke:#181818;stroke-width:0.5;"/><path d="M80,740.1523 L80,767.1523 M67,748.1523 L93,748.1523 M80,767.1523 L67,782.1523 M80,767.1523 L93,782.1523 " fill="none" style="stroke:#181818;stroke-width:0.5;"/><rect fill="#E2E2F0" height="63.4648" rx="2.5" ry="2.5" style="stroke:#181818;stroke-width:0.5;" width="176" x="181" y="71"/><text fill="#000000" font-family="sans-serif" font-size="14" font-style="italic" lengthAdjust="spacing" textLength="98" x="220" y="91.5352">«marketplace»</text><text fill="#000000" font-family="sans-serif" font-size="14" font-style="italic" lengthAdjust="spacing" textLength="162" x="188" y="108.0234">«Blur.io: Marketplace 2»</text><text fill="#000000" font-family="sans-serif" font-size="14" lengthAdjust="spacing" textLength="97" x="220.5" y="124.5117">0x39da..0x39</text><rect fill="#E2E2F0" height="63.4648" rx="2.5" ry="2.5" style="stroke:#181818;stroke-width:0.5;" width="176" x="181" y="690.6758"/><text fill="#000000" font-family="sans-serif" font-size="14" font-style="italic" lengthAdjust="spacing" textLength="98" x="220" y="711.2109">«marketplace»</text><text fill="#000000" font-family="sans-serif" font-size="14" font-style="italic" lengthAdjust="spacing" textLength="162" x="188" y="727.6992">«Blur.io: Marketplace 2»</text><text fill="#000000" font-family="sans-serif" font-size="14" lengthAdjust="spacing" textLength="97" x="220.5" y="744.1875">0x39da..0x39</text><text fill="#000000" font-family="sans-serif" font-size="14" font-style="italic" lengthAdjust="spacing" textLength="117" x="367" y="116.0234">«(muzzalad.eth)»</text><text fill="#000000" font-family="sans-serif" font-size="14" lengthAdjust="spacing" textLength="95" x="378" y="132.5117">0xF2bB..0xF2</text><ellipse cx="428.5" cy="50.9883" fill="#E2E2F0" rx="8" ry="8" style="stroke:#181818;stroke-width:0.5;"/><path d="M428.5,58.9883 L428.5,85.9883 M415.5,66.9883 L441.5,66.9883 M428.5,85.9883 L415.5,100.9883 M428.5,85.9883 L441.5,100.9883 " fill="none" style="stroke:#181818;stroke-width:0.5;"/><text fill="#000000" font-family="sans-serif" font-size="14" font-style="italic" lengthAdjust="spacing" textLength="117" x="367" y="704.2109">«(muzzalad.eth)»</text><text fill="#000000" font-family="sans-serif" font-size="14" lengthAdjust="spacing" textLength="95" x="378" y="720.6992">0xF2bB..0xF2</text><ellipse cx="428.5" cy="732.1523" fill="#E2E2F0" rx="8" ry="8" style="stroke:#181818;stroke-width:0.5;"/><path d="M428.5,740.1523 L428.5,767.1523 M415.5,748.1523 L441.5,748.1523 M428.5,767.1523 L415.5,782.1523 M428.5,767.1523 L441.5,782.1523 " fill="none" style="stroke:#181818;stroke-width:0.5;"/><text fill="#000000" font-family="sans-serif" font-size="14" font-style="italic" lengthAdjust="spacing" textLength="128" x="500" y="116.0234">«(chungosnft.eth)»</text><text fill="#000000" font-family="sans-serif" font-size="14" lengthAdjust="spacing" textLength="96" x="516" y="132.5117">0x21c8..0x21</text><ellipse cx="567" cy="50.9883" fill="#E2E2F0" rx="8" ry="8" style="stroke:#181818;stroke-width:0.5;"/><path d="M567,58.9883 L567,85.9883 M554,66.9883 L580,66.9883 M567,85.9883 L554,100.9883 M567,85.9883 L580,100.9883 " fill="none" style="stroke:#181818;stroke-width:0.5;"/><text fill="#000000" font-family="sans-serif" font-size="14" font-style="italic" lengthAdjust="spacing" textLength="128" x="500" y="704.2109">«(chungosnft.eth)»</text><text fill="#000000" font-family="sans-serif" font-size="14" lengthAdjust="spacing" textLength="96" x="516" y="720.6992">0x21c8..0x21</text><ellipse cx="567" cy="732.1523" fill="#E2E2F0" rx="8" ry="8" style="stroke:#181818;stroke-width:0.5;"/><path d="M567,740.1523 L567,767.1523 M554,748.1523 L580,748.1523 M567,767.1523 L554,782.1523 M567,767.1523 L580,782.1523 " fill="none" style="stroke:#181818;stroke-width:0.5;"/><text fill="#000000" font-family="sans-serif" font-size="14" lengthAdjust="spacing" textLength="95" x="644" y="132.5117">0x7e5a..0x7e</text><ellipse cx="694.5" cy="67.4766" fill="#E2E2F0" rx="8" ry="8" style="stroke:#181818;stroke-width:0.5;"/><path d="M694.5,75.4766 L694.5,102.4766 M681.5,83.4766 L707.5,83.4766 M694.5,102.4766 L681.5,117.4766 M694.5,102.4766 L707.5,117.4766 " fill="none" style="stroke:#181818;stroke-width:0.5;"/><text fill="#000000" font-family="sans-serif" font-size="14" lengthAdjust="spacing" textLength="95" x="644" y="704.2109">0x7e5a..0x7e</text><ellipse cx="694.5" cy="715.6641" fill="#E2E2F0" rx="8" ry="8" style="stroke:#181818;stroke-width:0.5;"/><path d="M694.5,723.6641 L694.5,750.6641 M681.5,731.6641 L707.5,731.6641 M694.5,750.6641 L681.5,765.6641 M694.5,750.6641 L707.5,765.6641 " fill="none" style="stroke:#181818;stroke-width:0.5;"/><rect fill="#E2E2F0" height="46.9766" rx="2.5" ry="2.5" style="stroke:#181818;stroke-width:0.5;" width="112" x="755" y="87.4883"/><text fill="#000000" font-family="sans-serif" font-size="14" font-style="italic" lengthAdjust="spacing" textLength="67" x="777.5" y="108.0234">«Seaport»</text><text fill="#000000" font-family="sans-serif" font-size="14" lengthAdjust="spacing" textLength="98" x="762" y="124.5117">0x0000..0x00</text><rect fill="#E2E2F0" height="46.9766" rx="2.5" ry="2.5" style="stroke:#181818;stroke-width:0.5;" width="112" x="755" y="690.6758"/><text fill="#000000" font-family="sans-serif" font-size="14" font-style="italic" lengthAdjust="spacing" textLength="67" x="777.5" y="711.2109">«Seaport»</text><text fill="#000000" font-family="sans-serif" font-size="14" lengthAdjust="spacing" textLength="98" x="762" y="727.6992">0x0000..0x00</text><text fill="#000000" font-family="sans-serif" font-size="14" font-style="italic" lengthAdjust="spacing" textLength="122" x="877" y="116.0234">«(calzonenft.eth)»</text><text fill="#000000" font-family="sans-serif" font-size="14" lengthAdjust="spacing" textLength="95" x="890.5" y="132.5117">0x3E8a..0x3E</text><ellipse cx="941" cy="50.9883" fill="#E2E2F0" rx="8" ry="8" style="stroke:#181818;stroke-width:0.5;"/><path d="M941,58.9883 L941,85.9883 M928,66.9883 L954,66.9883 M941,85.9883 L928,100.9883 M941,85.9883 L954,100.9883 " fill="none" style="stroke:#181818;stroke-width:0.5;"/><text fill="#000000" font-family="sans-serif" font-size="14" font-style="italic" lengthAdjust="spacing" textLength="122" x="877" y="704.2109">«(calzonenft.eth)»</text><text fill="#000000" font-family="sans-serif" font-size="14" lengthAdjust="spacing" textLength="95" x="890.5" y="720.6992">0x3E8a..0x3E</text><ellipse cx="941" cy="732.1523" fill="#E2E2F0" rx="8" ry="8" style="stroke:#181818;stroke-width:0.5;"/><path d="M941,740.1523 L941,767.1523 M928,748.1523 L954,748.1523 M941,767.1523 L928,782.1523 M941,767.1523 L954,782.1523 " fill="none" style="stroke:#181818;stroke-width:0.5;"/><text fill="#000000" font-family="sans-serif" font-size="14" lengthAdjust="spacing" textLength="98" x="1015" y="132.5117">0x5219..0x52</text><ellipse cx="1067" cy="67.4766" fill="#E2E2F0" rx="8" ry="8" style="stroke:#181818;stroke-width:0.5;"/><path d="M1067,75.4766 L1067,102.4766 M1054,83.4766 L1080,83.4766 M1067,102.4766 L1054,117.4766 M1067,102.4766 L1080,117.4766 " fill="none" style="stroke:#181818;stroke-width:0.5;"/><text fill="#000000" font-family="sans-serif" font-size="14" lengthAdjust="spacing" textLength="98" x="1015" y="704.2109">0x5219..0x52</text><ellipse cx="1067" cy="715.6641" fill="#E2E2F0" rx="8" ry="8" style="stroke:#181818;stroke-width:0.5;"/><path d="M1067,723.6641 L1067,750.6641 M1054,731.6641 L1080,731.6641 M1067,750.6641 L1054,765.6641 M1067,750.6641 L1080,765.6641 " fill="none" style="stroke:#181818;stroke-width:0.5;"/><polygon fill="#181818" points="257,162.7754,267,166.7754,257,170.7754,261,166.7754" style="stroke:#181818;stroke-width:1.0;"/><line style="stroke:#181818;stroke-width:1.0;" x1="80" x2="263" y1="166.7754" y2="166.7754"/><text fill="#000000" font-family="sans-serif" font-size="13" lengthAdjust="spacing" textLength="73" x="87" y="162.0332">0.6188 ETH</text><polygon fill="#181818" points="799,192.0859,809,196.0859,799,200.0859,803,196.0859" style="stroke:#181818;stroke-width:1.0;"/><line style="stroke:#181818;stroke-width:1.0;" x1="269" x2="805" y1="196.0859" y2="196.0859"/><text fill="#000000" font-family="sans-serif" font-size="13" lengthAdjust="spacing" textLength="57" x="276" y="191.3438">0.23 ETH</text><polygon fill="#181818" points="439.5,221.3965,429.5,225.3965,439.5,229.3965,435.5,225.3965" style="stroke:#181818;stroke-width:1.0;"/><line style="stroke:#181818;stroke-width:1.0;" x1="433.5" x2="810" y1="225.3965" y2="225.3965"/><text fill="#000000" font-family="sans-serif" font-size="13" lengthAdjust="spacing" textLength="73" x="445.5" y="220.6543">0.2185 ETH</text><polygon fill="#181818" points="578,250.707,568,254.707,578,258.707,574,254.707" style="stroke:#181818;stroke-width:1.0;"/><line style="stroke:#181818;stroke-width:1.0;" x1="572" x2="810" y1="254.707" y2="254.707"/><text fill="#000000" font-family="sans-serif" font-size="13" lengthAdjust="spacing" textLength="73" x="584" y="249.9648">0.0092 ETH</text><polygon fill="#181818" points="705.5,280.0176,695.5,284.0176,705.5,288.0176,701.5,284.0176" style="stroke:#181818;stroke-width:1.0;"/><line style="stroke:#181818;stroke-width:1.0;" x1="699.5" x2="810" y1="284.0176" y2="284.0176"/><text fill="#000000" font-family="sans-serif" font-size="13" lengthAdjust="spacing" textLength="73" x="711.5" y="279.2754">0.0023 ETH</text><polygon fill="#181818" points="91,309.3281,81,313.3281,91,317.3281,87,313.3281" style="stroke:#181818;stroke-width:1.0;"/><line style="stroke:#181818;stroke-width:1.0;" x1="85" x2="427.5" y1="313.3281" y2="313.3281"/><text fill="#000000" font-family="sans-serif" font-size="13" lengthAdjust="spacing" textLength="165" x="97" y="308.5859">Transfer CHUNGO id 8502</text><polygon fill="#181818" points="799,338.6387,809,342.6387,799,346.6387,803,342.6387" style="stroke:#181818;stroke-width:1.0;"/><line style="stroke:#181818;stroke-width:1.0;" x1="269" x2="805" y1="342.6387" y2="342.6387"/><text fill="#000000" font-family="sans-serif" font-size="13" lengthAdjust="spacing" textLength="73" x="276" y="337.8965">0.3888 ETH</text><polygon fill="#181818" points="578,367.9492,568,371.9492,578,375.9492,574,371.9492" style="stroke:#181818;stroke-width:1.0;"/><line style="stroke:#181818;stroke-width:1.0;" x1="572" x2="810" y1="371.9492" y2="371.9492"/><text fill="#000000" font-family="sans-serif" font-size="13" lengthAdjust="spacing" textLength="81" x="584" y="367.207">0.00944 ETH</text><polygon fill="#181818" points="929,397.2598,939,401.2598,929,405.2598,933,401.2598" style="stroke:#181818;stroke-width:1.0;"/><line style="stroke:#181818;stroke-width:1.0;" x1="811" x2="935" y1="401.2598" y2="401.2598"/><text fill="#000000" font-family="sans-serif" font-size="13" lengthAdjust="spacing" textLength="81" x="818" y="396.5176">0.17936 ETH</text><polygon fill="#181818" points="280,426.5703,270,430.5703,280,434.5703,276,430.5703" style="stroke:#181818;stroke-width:1.0;"/><line style="stroke:#181818;stroke-width:1.0;" x1="274" x2="940" y1="430.5703" y2="430.5703"/><text fill="#000000" font-family="sans-serif" font-size="13" lengthAdjust="spacing" textLength="157" x="286" y="425.8281">Transfer CHUNGO id 266</text><polygon fill="#181818" points="578,455.8809,568,459.8809,578,463.8809,574,459.8809" style="stroke:#181818;stroke-width:1.0;"/><line style="stroke:#181818;stroke-width:1.0;" x1="572" x2="810" y1="459.8809" y2="459.8809"/><text fill="#000000" font-family="sans-serif" font-size="13" lengthAdjust="spacing" textLength="57" x="584" y="455.1387">0.01 ETH</text><polygon fill="#181818" points="1055,485.1914,1065,489.1914,1055,493.1914,1059,489.1914" style="stroke:#181818;stroke-width:1.0;"/><line style="stroke:#181818;stroke-width:1.0;" x1="811" x2="1061" y1="489.1914" y2="489.1914"/><text fill="#000000" font-family="sans-serif" font-size="13" lengthAdjust="spacing" textLength="57" x="818" y="484.4492">0.19 ETH</text><polygon fill="#181818" points="280,514.502,270,518.502,280,522.502,276,518.502" style="stroke:#181818;stroke-width:1.0;"/><line style="stroke:#181818;stroke-width:1.0;" x1="274" x2="1066" y1="518.502" y2="518.502"/><text fill="#000000" font-family="sans-serif" font-size="13" lengthAdjust="spacing" textLength="165" x="286" y="513.7598">Transfer CHUNGO id 6428</text><polygon fill="#181818" points="91,543.8125,81,547.8125,91,551.8125,87,547.8125" style="stroke:#181818;stroke-width:1.0;"/><line style="stroke:#181818;stroke-width:1.0;" x1="85" x2="268" y1="547.8125" y2="547.8125"/><text fill="#000000" font-family="sans-serif" font-size="13" lengthAdjust="spacing" textLength="157" x="97" y="543.0703">Transfer CHUNGO id 266</text><polygon fill="#181818" points="91,573.123,81,577.123,91,581.123,87,577.123" style="stroke:#181818;stroke-width:1.0;"/><line style="stroke:#181818;stroke-width:1.0;" x1="85" x2="268" y1="577.123" y2="577.123"/><text fill="#000000" font-family="sans-serif" font-size="13" lengthAdjust="spacing" textLength="165" x="97" y="572.3809">Transfer CHUNGO id 6428</text><path d="M29,590.123 L29,676.123 L131,676.123 L131,600.123 L121,590.123 L29,590.123 " fill="#00FFFF" style="stroke:#181818;stroke-width:0.5;"/><path d="M121,590.123 L121,600.123 L131,600.123 L121,590.123 " fill="#00FFFF" style="stroke:#181818;stroke-width:0.5;"/><text fill="#000000" font-family="sans-serif" font-size="13" lengthAdjust="spacing" textLength="81" x="35" y="607.6914">-0.6188 ETH</text><text fill="#000000" font-family="sans-serif" font-size="13" lengthAdjust="spacing" textLength="57" x="35" y="623.002">CHUNGO</text><text fill="#000000" font-family="sans-serif" font-size="13" lengthAdjust="spacing" textLength="42" x="43" y="638.3125">+8502</text><text fill="#000000" font-family="sans-serif" font-size="13" lengthAdjust="spacing" textLength="34" x="43" y="653.623">+266</text><text fill="#000000" font-family="sans-serif" font-size="13" lengthAdjust="spacing" textLength="42" x="43" y="668.9336">+6428</text><path d="M230,590.123 L230,645.123 L308,645.123 L308,600.123 L298,590.123 L230,590.123 " fill="#00FFFF" style="stroke:#181818;stroke-width:0.5;"/><path d="M298,590.123 L298,600.123 L308,600.123 L298,590.123 " fill="#00FFFF" style="stroke:#181818;stroke-width:0.5;"/><text fill="#000000" font-family="sans-serif" font-size="13" lengthAdjust="spacing" textLength="57" x="236" y="607.6914">CHUNGO</text><text fill="#000000" font-family="sans-serif" font-size="13" lengthAdjust="spacing" textLength="32" x="244" y="623.002">-266</text><text fill="#000000" font-family="sans-serif" font-size="13" lengthAdjust="spacing" textLength="40" x="244" y="638.3125">-6428</text><path d="M381,590.123 L381,645.123 L475,645.123 L475,600.123 L465,590.123 L381,590.123 " fill="#00FFFF" style="stroke:#181818;stroke-width:0.5;"/><path d="M465,590.123 L465,600.123 L475,600.123 L465,590.123 " fill="#00FFFF" style="stroke:#181818;stroke-width:0.5;"/><text fill="#000000" font-family="sans-serif" font-size="13" lengthAdjust="spacing" textLength="73" x="387" y="607.6914">0.2185 ETH</text><text fill="#000000" font-family="sans-serif" font-size="13" lengthAdjust="spacing" textLength="57" x="387" y="623.002">CHUNGO</text><text fill="#000000" font-family="sans-serif" font-size="13" lengthAdjust="spacing" textLength="40" x="395" y="638.3125">-8502</text><path d="M516,590.123 L516,615.123 L618,615.123 L618,600.123 L608,590.123 L516,590.123 " fill="#00FFFF" style="stroke:#181818;stroke-width:0.5;"/><path d="M608,590.123 L608,600.123 L618,600.123 L608,590.123 " fill="#00FFFF" style="stroke:#181818;stroke-width:0.5;"/><text fill="#000000" font-family="sans-serif" font-size="13" lengthAdjust="spacing" textLength="81" x="522" y="607.6914">0.02864 ETH</text><path d="M647,590.123 L647,615.123 L741,615.123 L741,600.123 L731,590.123 L647,590.123 " fill="#00FFFF" style="stroke:#181818;stroke-width:0.5;"/><path d="M731,590.123 L731,600.123 L741,600.123 L731,590.123 " fill="#00FFFF" style="stroke:#181818;stroke-width:0.5;"/><text fill="#000000" font-family="sans-serif" font-size="13" lengthAdjust="spacing" textLength="73" x="653" y="607.6914">0.0023 ETH</text><path d="M890,590.123 L890,645.123 L992,645.123 L992,600.123 L982,590.123 L890,590.123 " fill="#00FFFF" style="stroke:#181818;stroke-width:0.5;"/><path d="M982,590.123 L982,600.123 L992,600.123 L982,590.123 " fill="#00FFFF" style="stroke:#181818;stroke-width:0.5;"/><text fill="#000000" font-family="sans-serif" font-size="13" lengthAdjust="spacing" textLength="81" x="896" y="607.6914">0.17936 ETH</text><text fill="#000000" font-family="sans-serif" font-size="13" lengthAdjust="spacing" textLength="57" x="896" y="623.002">CHUNGO</text><text fill="#000000" font-family="sans-serif" font-size="13" lengthAdjust="spacing" textLength="32" x="904" y="638.3125">-266</text><path d="M1028,590.123 L1028,645.123 L1106,645.123 L1106,600.123 L1096,590.123 L1028,590.123 " fill="#00FFFF" style="stroke:#181818;stroke-width:0.5;"/><path d="M1096,590.123 L1096,600.123 L1106,600.123 L1096,590.123 " fill="#00FFFF" style="stroke:#181818;stroke-width:0.5;"/><text fill="#000000" font-family="sans-serif" font-size="13" lengthAdjust="spacing" textLength="57" x="1034" y="607.6914">0.19 ETH</text><text fill="#000000" font-family="sans-serif" font-size="13" lengthAdjust="spacing" textLength="57" x="1034" y="623.002">CHUNGO</text><text fill="#000000" font-family="sans-serif" font-size="13" lengthAdjust="spacing" textLength="40" x="1042" y="638.3125">-6428</text><!--SRC=[dLFBRjim4BppAnRffKLjbroz3SD0KzZ9nUsXxWTG51KBbaLNbWitNr- -_8YZ645r8QNPcHqELrtLrHBe8K4g6SQIiwGC9Ssn52L59cCHvndDeqX4c0OH9g8e8rg40cKUY28Nb66Hbu8GmRTTfHhOyAffP3U0l5PY3InE48Cq7i12DGF01EOo1wGO0EAOXcF6u66n95nqgeKxUlYAZ8r6Phq3lWEEzC0H9fEFkLgl_swLolbg9BlLf-cKR7dRLQBQygOpr20hkA46cQK6cTbgweQtQzbjQoxaT3gPtDVxTbIfCIpEtm5Vor7z63bAhPn-qrijzrFohMexJJYPdcD-RqhdpdIfJPVMz6R__CnhNXmTdnZ8H6eOo2m3cTaQXbZjcoUrQyhk5IUHaJrV8YqdaMOBxxLjZZqxY1LldkIbQZ1BNMepbvfM3QHrmkjdrSW-9n6op70YTzu8pHO8yRSrdFhmnm1q5BCqXTdoaVWBqQWpPL4z20RpDZNcmdCOIwChr0LbKKepl49T91xroluoDEhSZM7PycPNoXQ-FVxw_l03gWBIY6A_lo3rxj_o48PNi4lGmYp9WjYTtSLwaKoF2upZDzgmgnukSTSZivY_WziDuX3JYsFU2CHOULUXbIIaKPq4zKT3VWO-yDzxJeONr-yu1E2pJLklfebUh8Hi2Z0YX7o1ivYtuCHE0aD77DuW-gWSiR_43uOhkHYsSnlhiv_iVzWZcM8QkpdeB_V_wgdyE9p_RTxFqr7mF6WlG-ed-ravaRChvijS_m40]--></g></svg>