<?xml version="1.0" encoding="us-ascii" standalone="no"?><svg xmlns:xlink="http://www.w3.org/1999/xlink" xmlns="http://www.w3.org/2000/svg" contentStyleType="text/css" height="887px" preserveAspectRatio="none" style="width:1177px;height:887px;background:#FFFFFF;" version="1.1" viewBox="0 0 1177 887" width="1177px" zoomAndPan="magnify"><defs/><g><text fill="#000000" font-family="sans-serif" font-size="14" font-weight="bold" lengthAdjust="spacing" textLength="556" x="309.5" y="28.5352">0x720e126ea17f4e0b2fcf021e6c6b90b55c5283527cdf50d4c2eb3cdbc012dbfc</text><text fill="#000000" font-family="sans-serif" font-size="14" lengthAdjust="spacing" textLength="411" x="382" y="875.7402">mainnet, block 16722386, Mon, 27 Feb 2023 22:04:11 GMT</text><line style="stroke:#181818;stroke-width:0.5;stroke-dasharray:5.0,5.0;" x1="80" x2="80" y1="135.4648" y2="768.2285"/><line style="stroke:#181818;stroke-width:0.5;stroke-dasharray:5.0,5.0;" x1="221" x2="221" y1="135.4648" y2="768.2285"/><line style="stroke:#181818;stroke-width:0.5;stroke-dasharray:5.0,5.0;" x1="342" x2="342" y1="135.4648" y2="768.2285"/><line style="stroke:#181818;stroke-width:0.5;stroke-dasharray:5.0,5.0;" x1="469" x2="469" y1="135.4648" y2="768.2285"/><line style="stroke:#181818;stroke-width:0.5;stroke-dasharray:5.0,5.0;" x1="608" x2="608" y1="135.4648" y2="768.2285"/><line style="stroke:#181818;stroke-width:0.5;stroke-dasharray:5.0,5.0;" x1="736" x2="736" y1="135.4648" y2="768.2285"/><line style="stroke:#181818;stroke-width:0.5;stroke-dasharray:5.0,5.0;" x1="859" x2="859" y1="135.4648" y2="768.2285"/><line style="stroke:#181818;stroke-width:0.5;stroke-dasharray:5.0,5.0;" x1="994" x2="994" y1="135.4648" y2="768.2285"/><line style="stroke:#181818;stroke-width:0.5;stroke-dasharray:5.0,5.0;" x1="1119" x2="1119" y1="135.4648" y2="768.2285"/><text fill="#000000" font-family="sans-serif" font-size="14" font-style="italic" lengthAdjust="spacing" textLength="144" x="5" y="116.0234">&#171;(bokkypoobah.eth)&#187;</text><text fill="#000000" font-family="sans-serif" font-size="14" lengthAdjust="spacing" textLength="96" x="29" y="132.5117">0xA211..c92e</text><ellipse cx="80" cy="50.9883" fill="#E2E2F0" rx="8" ry="8" style="stroke:#181818;stroke-width:0.5;"/><path d="M80,58.9883 L80,85.9883 M67,66.9883 L93,66.9883 M80,85.9883 L67,100.9883 M80,85.9883 L93,100.9883 " fill="none" style="stroke:#181818;stroke-width:0.5;"/><text fill="#000000" font-family="sans-serif" font-size="14" font-style="italic" lengthAdjust="spacing" textLength="144" x="5" y="780.7637">&#171;(bokkypoobah.eth)&#187;</text><text fill="#000000" font-family="sans-serif" font-size="14" lengthAdjust="spacing" textLength="96" x="29" y="797.252">0xA211..c92e</text><ellipse cx="80" cy="808.7051" fill="#E2E2F0" rx="8" ry="8" style="stroke:#181818;stroke-width:0.5;"/><path d="M80,816.7051 L80,843.7051 M67,824.7051 L93,824.7051 M80,843.7051 L67,858.7051 M80,843.7051 L93,858.7051 " fill="none" style="stroke:#181818;stroke-width:0.5;"/><rect fill="#E2E2F0" height="63.4648" rx="2.5" ry="2.5" style="stroke:#181818;stroke-width:0.5;" width="112" x="165" y="71"/><text fill="#000000" font-family="sans-serif" font-size="14" font-style="italic" lengthAdjust="spacing" textLength="98" x="172" y="91.5352">&#171;marketplace&#187;</text><text fill="#000000" font-family="sans-serif" font-size="14" font-style="italic" lengthAdjust="spacing" textLength="77" x="182.5" y="108.0234">&#171;BlurSwap&#187;</text><text fill="#000000" font-family="sans-serif" font-size="14" lengthAdjust="spacing" textLength="98" x="172" y="124.5117">0x39da..D541</text><rect fill="#E2E2F0" height="63.4648" rx="2.5" ry="2.5" style="stroke:#181818;stroke-width:0.5;" width="112" x="165" y="767.2285"/><text fill="#000000" font-family="sans-serif" font-size="14" font-style="italic" lengthAdjust="spacing" textLength="98" x="172" y="787.7637">&#171;marketplace&#187;</text><text fill="#000000" font-family="sans-serif" font-size="14" font-style="italic" lengthAdjust="spacing" textLength="77" x="182.5" y="804.252">&#171;BlurSwap&#187;</text><text fill="#000000" font-family="sans-serif" font-size="14" lengthAdjust="spacing" textLength="98" x="172" y="820.7402">0x39da..D541</text><rect fill="#E2E2F0" height="79.9531" rx="2.5" ry="2.5" style="stroke:#181818;stroke-width:0.5;" width="111" x="287" y="54.5117"/><text fill="#000000" font-family="sans-serif" font-size="14" font-style="italic" lengthAdjust="spacing" textLength="67" x="309" y="75.0469">&#171;Seaport&#187;</text><text fill="#000000" font-family="sans-serif" font-size="14" font-style="italic" lengthAdjust="spacing" textLength="77" x="304" y="91.5352">&#171;(Seaport)&#187;</text><text fill="#000000" font-family="sans-serif" font-size="14" font-style="italic" lengthAdjust="spacing" textLength="67" x="309" y="108.0234">&#171;Seaport&#187;</text><text fill="#000000" font-family="sans-serif" font-size="14" lengthAdjust="spacing" textLength="97" x="294" y="124.5117">0x0000..E581</text><rect fill="#E2E2F0" height="79.9531" rx="2.5" ry="2.5" style="stroke:#181818;stroke-width:0.5;" width="111" x="287" y="767.2285"/><text fill="#000000" font-family="sans-serif" font-size="14" font-style="italic" lengthAdjust="spacing" textLength="67" x="309" y="787.7637">&#171;Seaport&#187;</text><text fill="#000000" font-family="sans-serif" font-size="14" font-style="italic" lengthAdjust="spacing" textLength="77" x="304" y="804.252">&#171;(Seaport)&#187;</text><text fill="#000000" font-family="sans-serif" font-size="14" font-style="italic" lengthAdjust="spacing" textLength="67" x="309" y="820.7402">&#171;Seaport&#187;</text><text fill="#000000" font-family="sans-serif" font-size="14" lengthAdjust="spacing" textLength="97" x="294" y="837.2285">0x0000..E581</text><text fill="#000000" font-family="sans-serif" font-size="14" font-style="italic" lengthAdjust="spacing" textLength="117" x="408" y="116.0234">&#171;(muzzalad.eth)&#187;</text><text fill="#000000" font-family="sans-serif" font-size="14" lengthAdjust="spacing" textLength="94" x="419.5" y="132.5117">0xF2bB..FF52</text><ellipse cx="469.5" cy="50.9883" fill="#E2E2F0" rx="8" ry="8" style="stroke:#181818;stroke-width:0.5;"/><path d="M469.5,58.9883 L469.5,85.9883 M456.5,66.9883 L482.5,66.9883 M469.5,85.9883 L456.5,100.9883 M469.5,85.9883 L482.5,100.9883 " fill="none" style="stroke:#181818;stroke-width:0.5;"/><text fill="#000000" font-family="sans-serif" font-size="14" font-style="italic" lengthAdjust="spacing" textLength="117" x="408" y="780.7637">&#171;(muzzalad.eth)&#187;</text><text fill="#000000" font-family="sans-serif" font-size="14" lengthAdjust="spacing" textLength="94" x="419.5" y="797.252">0xF2bB..FF52</text><ellipse cx="469.5" cy="808.7051" fill="#E2E2F0" rx="8" ry="8" style="stroke:#181818;stroke-width:0.5;"/><path d="M469.5,816.7051 L469.5,843.7051 M456.5,824.7051 L482.5,824.7051 M469.5,843.7051 L456.5,858.7051 M469.5,843.7051 L482.5,858.7051 " fill="none" style="stroke:#181818;stroke-width:0.5;"/><text fill="#000000" font-family="sans-serif" font-size="14" font-style="italic" lengthAdjust="spacing" textLength="128" x="541" y="116.0234">&#171;(chungosnft.eth)&#187;</text><text fill="#000000" font-family="sans-serif" font-size="14" lengthAdjust="spacing" textLength="98" x="556" y="132.5117">0x21c8..4CdD</text><ellipse cx="608" cy="50.9883" fill="#E2E2F0" rx="8" ry="8" style="stroke:#181818;stroke-width:0.5;"/><path d="M608,58.9883 L608,85.9883 M595,66.9883 L621,66.9883 M608,85.9883 L595,100.9883 M608,85.9883 L621,100.9883 " fill="none" style="stroke:#181818;stroke-width:0.5;"/><text fill="#000000" font-family="sans-serif" font-size="14" font-style="italic" lengthAdjust="spacing" textLength="128" x="541" y="780.7637">&#171;(chungosnft.eth)&#187;</text><text fill="#000000" font-family="sans-serif" font-size="14" lengthAdjust="spacing" textLength="98" x="556" y="797.252">0x21c8..4CdD</text><ellipse cx="608" cy="808.7051" fill="#E2E2F0" rx="8" ry="8" style="stroke:#181818;stroke-width:0.5;"/><path d="M608,816.7051 L608,843.7051 M595,824.7051 L621,824.7051 M608,843.7051 L595,858.7051 M608,843.7051 L621,858.7051 " fill="none" style="stroke:#181818;stroke-width:0.5;"/><text fill="#000000" font-family="sans-serif" font-size="14" lengthAdjust="spacing" textLength="97" x="685" y="132.5117">0x7e5a..D924</text><ellipse cx="736.5" cy="67.4766" fill="#E2E2F0" rx="8" ry="8" style="stroke:#181818;stroke-width:0.5;"/><path d="M736.5,75.4766 L736.5,102.4766 M723.5,83.4766 L749.5,83.4766 M736.5,102.4766 L723.5,117.4766 M736.5,102.4766 L749.5,117.4766 " fill="none" style="stroke:#181818;stroke-width:0.5;"/><text fill="#000000" font-family="sans-serif" font-size="14" lengthAdjust="spacing" textLength="97" x="685" y="780.7637">0x7e5a..D924</text><ellipse cx="736.5" cy="792.2168" fill="#E2E2F0" rx="8" ry="8" style="stroke:#181818;stroke-width:0.5;"/><path d="M736.5,800.2168 L736.5,827.2168 M723.5,808.2168 L749.5,808.2168 M736.5,827.2168 L723.5,842.2168 M736.5,827.2168 L749.5,842.2168 " fill="none" style="stroke:#181818;stroke-width:0.5;"/><rect fill="#E2E2F0" height="46.9766" rx="2.5" ry="2.5" style="stroke:#181818;stroke-width:0.5;" width="122" x="798" y="87.4883"/><text fill="#000000" font-family="sans-serif" font-size="14" font-style="italic" lengthAdjust="spacing" textLength="108" x="805" y="108.0234">&#171;BlurExchange&#187;</text><text fill="#000000" font-family="sans-serif" font-size="14" lengthAdjust="spacing" textLength="98" x="810" y="124.5117">0x0000..5127</text><rect fill="#E2E2F0" height="46.9766" rx="2.5" ry="2.5" style="stroke:#181818;stroke-width:0.5;" width="122" x="798" y="767.2285"/><text fill="#000000" font-family="sans-serif" font-size="14" font-style="italic" lengthAdjust="spacing" textLength="108" x="805" y="787.7637">&#171;BlurExchange&#187;</text><text fill="#000000" font-family="sans-serif" font-size="14" lengthAdjust="spacing" textLength="98" x="810" y="804.252">0x0000..5127</text><text fill="#000000" font-family="sans-serif" font-size="14" font-style="italic" lengthAdjust="spacing" textLength="122" x="930" y="116.0234">&#171;(calzonenft.eth)&#187;</text><text fill="#000000" font-family="sans-serif" font-size="14" lengthAdjust="spacing" textLength="95" x="943.5" y="132.5117">0x3E8a..FB3D</text><ellipse cx="994" cy="50.9883" fill="#E2E2F0" rx="8" ry="8" style="stroke:#181818;stroke-width:0.5;"/><path d="M994,58.9883 L994,85.9883 M981,66.9883 L1007,66.9883 M994,85.9883 L981,100.9883 M994,85.9883 L1007,100.9883 " fill="none" style="stroke:#181818;stroke-width:0.5;"/><text fill="#000000" font-family="sans-serif" font-size="14" font-style="italic" lengthAdjust="spacing" textLength="122" x="930" y="780.7637">&#171;(calzonenft.eth)&#187;</text><text fill="#000000" font-family="sans-serif" font-size="14" lengthAdjust="spacing" textLength="95" x="943.5" y="797.252">0x3E8a..FB3D</text><ellipse cx="994" cy="808.7051" fill="#E2E2F0" rx="8" ry="8" style="stroke:#181818;stroke-width:0.5;"/><path d="M994,816.7051 L994,843.7051 M981,824.7051 L1007,824.7051 M994,843.7051 L981,858.7051 M994,843.7051 L1007,858.7051 " fill="none" style="stroke:#181818;stroke-width:0.5;"/><text fill="#000000" font-family="sans-serif" font-size="14" lengthAdjust="spacing" textLength="97" x="1068" y="132.5117">0x5219..07cD</text><ellipse cx="1119.5" cy="67.4766" fill="#E2E2F0" rx="8" ry="8" style="stroke:#181818;stroke-width:0.5;"/><path d="M1119.5,75.4766 L1119.5,102.4766 M1106.5,83.4766 L1132.5,83.4766 M1119.5,102.4766 L1106.5,117.4766 M1119.5,102.4766 L1132.5,117.4766 " fill="none" style="stroke:#181818;stroke-width:0.5;"/><text fill="#000000" font-family="sans-serif" font-size="14" lengthAdjust="spacing" textLength="97" x="1068" y="780.7637">0x5219..07cD</text><ellipse cx="1119.5" cy="792.2168" fill="#E2E2F0" rx="8" ry="8" style="stroke:#181818;stroke-width:0.5;"/><path d="M1119.5,800.2168 L1119.5,827.2168 M1106.5,808.2168 L1132.5,808.2168 M1119.5,827.2168 L1106.5,842.2168 M1119.5,827.2168 L1132.5,842.2168 " fill="none" style="stroke:#181818;stroke-width:0.5;"/><polygon fill="#181818" points="209,162.7754,219,166.7754,209,170.7754,213,166.7754" style="stroke:#181818;stroke-width:1.0;"/><line style="stroke:#181818;stroke-width:1.0;" x1="80" x2="215" y1="166.7754" y2="166.7754"/><text fill="#000000" font-family="sans-serif" font-size="13" lengthAdjust="spacing" textLength="73" x="87" y="162.0332">0.6188 ETH</text><polygon fill="#181818" points="330.5,192.0859,340.5,196.0859,330.5,200.0859,334.5,196.0859" style="stroke:#181818;stroke-width:1.0;"/><line style="stroke:#181818;stroke-width:1.0;" x1="221" x2="336.5" y1="196.0859" y2="196.0859"/><text fill="#000000" font-family="sans-serif" font-size="13" lengthAdjust="spacing" textLength="57" x="228" y="191.3438">0.23 ETH</text><polygon fill="#181818" points="457.5,221.3965,467.5,225.3965,457.5,229.3965,461.5,225.3965" style="stroke:#181818;stroke-width:1.0;"/><line style="stroke:#181818;stroke-width:1.0;" x1="342.5" x2="463.5" y1="225.3965" y2="225.3965"/><text fill="#000000" font-family="sans-serif" font-size="13" lengthAdjust="spacing" textLength="73" x="349.5" y="220.6543">0.2185 ETH</text><polygon fill="#181818" points="596,250.707,606,254.707,596,258.707,600,254.707" style="stroke:#181818;stroke-width:1.0;"/><line style="stroke:#181818;stroke-width:1.0;" x1="342.5" x2="602" y1="254.707" y2="254.707"/><text fill="#000000" font-family="sans-serif" font-size="13" lengthAdjust="spacing" textLength="73" x="349.5" y="249.9648">0.0092 ETH</text><polygon fill="#181818" points="724.5,280.0176,734.5,284.0176,724.5,288.0176,728.5,284.0176" style="stroke:#181818;stroke-width:1.0;"/><line style="stroke:#181818;stroke-width:1.0;" x1="342.5" x2="730.5" y1="284.0176" y2="284.0176"/><text fill="#000000" font-family="sans-serif" font-size="13" lengthAdjust="spacing" textLength="73" x="349.5" y="279.2754">0.0023 ETH</text><polygon fill="#181818" points="91,324.6387,81,328.6387,91,332.6387,87,328.6387" style="stroke:#181818;stroke-width:1.0;"/><line style="stroke:#181818;stroke-width:1.0;" x1="85" x2="468.5" y1="328.6387" y2="328.6387"/><text fill="#000000" font-family="sans-serif" font-size="13" lengthAdjust="spacing" textLength="113" x="97" y="308.5859">Transfer CHUNGO</text><text fill="#000000" font-family="sans-serif" font-size="13" lengthAdjust="spacing" textLength="48" x="97" y="323.8965">id 8502</text><polygon fill="#181818" points="847,353.9492,857,357.9492,847,361.9492,851,357.9492" style="stroke:#181818;stroke-width:1.0;"/><line style="stroke:#181818;stroke-width:1.0;" x1="221" x2="853" y1="357.9492" y2="357.9492"/><text fill="#000000" font-family="sans-serif" font-size="13" lengthAdjust="spacing" textLength="73" x="228" y="353.207">0.3888 ETH</text><polygon fill="#181818" points="619,383.2598,609,387.2598,619,391.2598,615,387.2598" style="stroke:#181818;stroke-width:1.0;"/><line style="stroke:#181818;stroke-width:1.0;" x1="613" x2="858" y1="387.2598" y2="387.2598"/><text fill="#000000" font-family="sans-serif" font-size="13" lengthAdjust="spacing" textLength="81" x="625" y="382.5176">0.00944 ETH</text><polygon fill="#181818" points="982,412.5703,992,416.5703,982,420.5703,986,416.5703" style="stroke:#181818;stroke-width:1.0;"/><line style="stroke:#181818;stroke-width:1.0;" x1="859" x2="988" y1="416.5703" y2="416.5703"/><text fill="#000000" font-family="sans-serif" font-size="13" lengthAdjust="spacing" textLength="81" x="866" y="411.8281">0.17936 ETH</text><polygon fill="#181818" points="232,457.1914,222,461.1914,232,465.1914,228,461.1914" style="stroke:#181818;stroke-width:1.0;"/><line style="stroke:#181818;stroke-width:1.0;" x1="226" x2="993" y1="461.1914" y2="461.1914"/><text fill="#000000" font-family="sans-serif" font-size="13" lengthAdjust="spacing" textLength="113" x="238" y="441.1387">Transfer CHUNGO</text><text fill="#000000" font-family="sans-serif" font-size="13" lengthAdjust="spacing" textLength="40" x="238" y="456.4492">id 266</text><polygon fill="#181818" points="619,486.502,609,490.502,619,494.502,615,490.502" style="stroke:#181818;stroke-width:1.0;"/><line style="stroke:#181818;stroke-width:1.0;" x1="613" x2="858" y1="490.502" y2="490.502"/><text fill="#000000" font-family="sans-serif" font-size="13" lengthAdjust="spacing" textLength="57" x="625" y="485.7598">0.01 ETH</text><polygon fill="#181818" points="1107.5,515.8125,1117.5,519.8125,1107.5,523.8125,1111.5,519.8125" style="stroke:#181818;stroke-width:1.0;"/><line style="stroke:#181818;stroke-width:1.0;" x1="859" x2="1113.5" y1="519.8125" y2="519.8125"/><text fill="#000000" font-family="sans-serif" font-size="13" lengthAdjust="spacing" textLength="57" x="866" y="515.0703">0.19 ETH</text><polygon fill="#181818" points="232,560.4336,222,564.4336,232,568.4336,228,564.4336" style="stroke:#181818;stroke-width:1.0;"/><line style="stroke:#181818;stroke-width:1.0;" x1="226" x2="1118.5" y1="564.4336" y2="564.4336"/><text fill="#000000" font-family="sans-serif" font-size="13" lengthAdjust="spacing" textLength="113" x="238" y="544.3809">Transfer CHUNGO</text><text fill="#000000" font-family="sans-serif" font-size="13" lengthAdjust="spacing" textLength="48" x="238" y="559.6914">id 6428</text><polygon fill="#181818" points="91,605.0547,81,609.0547,91,613.0547,87,609.0547" style="stroke:#181818;stroke-width:1.0;"/><line style="stroke:#181818;stroke-width:1.0;" x1="85" x2="220" y1="609.0547" y2="609.0547"/><text fill="#000000" font-family="sans-serif" font-size="13" lengthAdjust="spacing" textLength="113" x="97" y="589.002">Transfer CHUNGO</text><text fill="#000000" font-family="sans-serif" font-size="13" lengthAdjust="spacing" textLength="40" x="97" y="604.3125">id 266</text><polygon fill="#181818" points="91,649.6758,81,653.6758,91,657.6758,87,653.6758" style="stroke:#181818;stroke-width:1.0;"/><line style="stroke:#181818;stroke-width:1.0;" x1="85" x2="220" y1="653.6758" y2="653.6758"/><text fill="#000000" font-family="sans-serif" font-size="13" lengthAdjust="spacing" textLength="113" x="97" y="633.623">Transfer CHUNGO</text><text fill="#000000" font-family="sans-serif" font-size="13" lengthAdjust="spacing" textLength="48" x="97" y="648.9336">id 6428</text><path d="M28,666.6758 L28,752.6758 L131,752.6758 L131,676.6758 L121,666.6758 L28,666.6758 " fill="#00FFFF" style="stroke:#181818;stroke-width:0.5;"/><path d="M121,666.6758 L121,676.6758 L131,676.6758 L121,666.6758 " fill="#00FFFF" style="stroke:#181818;stroke-width:0.5;"/><text fill="#000000" font-family="sans-serif" font-size="13" lengthAdjust="spacing" textLength="81" x="34" y="684.2441">-0.6188 ETH</text><text fill="#000000" font-family="sans-serif" font-size="13" lengthAdjust="spacing" textLength="57" x="34" y="699.5547">CHUNGO</text><text fill="#000000" font-family="sans-serif" font-size="13" lengthAdjust="spacing" textLength="62" x="46" y="714.8652">+1 id 266</text><text fill="#000000" font-family="sans-serif" font-size="13" lengthAdjust="spacing" textLength="70" x="46" y="730.1758">+1 id 6428</text><text fill="#000000" font-family="sans-serif" font-size="13" lengthAdjust="spacing" textLength="70" x="46" y="745.4863">+1 id 8502</text><path d="M417,666.6758 L417,721.6758 L521,721.6758 L521,676.6758 L511,666.6758 L417,666.6758 " fill="#00FFFF" style="stroke:#181818;stroke-width:0.5;"/><path d="M511,666.6758 L511,676.6758 L521,676.6758 L511,666.6758 " fill="#00FFFF" style="stroke:#181818;stroke-width:0.5;"/><text fill="#000000" font-family="sans-serif" font-size="13" lengthAdjust="spacing" textLength="83" x="423" y="684.2441">+0.2185 ETH</text><text fill="#000000" font-family="sans-serif" font-size="13" lengthAdjust="spacing" textLength="57" x="423" y="699.5547">CHUNGO</text><text fill="#000000" font-family="sans-serif" font-size="13" lengthAdjust="spacing" textLength="68" x="435" y="714.8652">-1 id 8502</text><path d="M552,666.6758 L552,691.6758 L664,691.6758 L664,676.6758 L654,666.6758 L552,666.6758 " fill="#00FFFF" style="stroke:#181818;stroke-width:0.5;"/><path d="M654,666.6758 L654,676.6758 L664,676.6758 L654,666.6758 " fill="#00FFFF" style="stroke:#181818;stroke-width:0.5;"/><text fill="#000000" font-family="sans-serif" font-size="13" lengthAdjust="spacing" textLength="91" x="558" y="684.2441">+0.02864 ETH</text><path d="M684,666.6758 L684,691.6758 L788,691.6758 L788,676.6758 L778,666.6758 L684,666.6758 " fill="#00FFFF" style="stroke:#181818;stroke-width:0.5;"/><path d="M778,666.6758 L778,676.6758 L788,676.6758 L778,666.6758 " fill="#00FFFF" style="stroke:#181818;stroke-width:0.5;"/><text fill="#000000" font-family="sans-serif" font-size="13" lengthAdjust="spacing" textLength="83" x="690" y="684.2441">+0.0023 ETH</text><path d="M938,666.6758 L938,721.6758 L1050,721.6758 L1050,676.6758 L1040,666.6758 L938,666.6758 " fill="#00FFFF" style="stroke:#181818;stroke-width:0.5;"/><path d="M1040,666.6758 L1040,676.6758 L1050,676.6758 L1040,666.6758 " fill="#00FFFF" style="stroke:#181818;stroke-width:0.5;"/><text fill="#000000" font-family="sans-serif" font-size="13" lengthAdjust="spacing" textLength="91" x="944" y="684.2441">+0.17936 ETH</text><text fill="#000000" font-family="sans-serif" font-size="13" lengthAdjust="spacing" textLength="57" x="944" y="699.5547">CHUNGO</text><text fill="#000000" font-family="sans-serif" font-size="13" lengthAdjust="spacing" textLength="60" x="956" y="714.8652">-1 id 266</text><path d="M1069,666.6758 L1069,721.6758 L1170,721.6758 L1170,676.6758 L1160,666.6758 L1069,666.6758 " fill="#00FFFF" style="stroke:#181818;stroke-width:0.5;"/><path d="M1160,666.6758 L1160,676.6758 L1170,676.6758 L1160,666.6758 " fill="#00FFFF" style="stroke:#181818;stroke-width:0.5;"/><text fill="#000000" font-family="sans-serif" font-size="13" lengthAdjust="spacing" textLength="67" x="1075" y="684.2441">+0.19 ETH</text><text fill="#000000" font-family="sans-serif" font-size="13" lengthAdjust="spacing" textLength="57" x="1075" y="699.5547">CHUNGO</text><text fill="#000000" font-family="sans-serif" font-size="13" lengthAdjust="spacing" textLength="68" x="1087" y="714.8652">-1 id 6428</text><!--SRC=[ZLJBKjj04BphAwR81GhOx8wqUhXShWfWmuNa0BdbiYzXbusa23aXV3sxahM6I37noUtjxfdfcNApQZO6ZkXpWjGmZ8rWIHuPAZ5NEKLcOXNBZ4hE5SSqv9WedNEg8uL6XafBHHbgcQkZ852YQbPb0OzYLHIcEGEvATKQM9mWXcby1hTbSGQOmC98G8eX84veD64Chc_l0w6QidQjV476254PcYCGJo0iT02cqsDPhjT_ghAKOabCipoPpO9ArCrAhIfHD4uSPbeGSiKZreeTr1POyQEerwQfDaAPsMmwlTXiwxlVeXfQKFiXPCxJpi91Ou6rk3EYAkl6oOzttqySyB_lXrYWl21aiU3OckGePPvpT4CyRbzUn4ReVWAlGQPIGg9BVTLg78oKrawZbjlYeNmgycQWIWnt4sSOjIe7jGKmFXPdcFYn780kYlcpMehYmRnr3kUfTLvSX5q_eKb5BiEk7x5vAGiprWz7bX524zMf7BH0Gn3uJPxF_68c09J4B4rXVdyJ-7LPHfzxox37ujxzBknx7sdtpb8-OFG1jWnACnmm-h1sZ5qLlopBw7kUm7qjYgVSr71vy_thzRSVnKf3oYaEcdQfjePXkXlBPptIL1GDA7tGBOKbMHXtuVJvlujlh2sCumCrsQ1WlwEkODQ- -xrzM2sEC7qNmk7CN7F_psxDWw0e6mFbB_lcZ-YJ-BaLmVcRw-ba0G2SCjXLyg0rygXTd2aqEECW-0px0hwthi0uoH_H8PA_euvq-kPCzwsUVzIF_nlmBXJJkBkQSON_2zWh-jF-zpJjBHoQnf-VTzsVvj_ZkEJ7NVnPxLsoKOjsNzxZ5G00]--></g></svg>
