<?xml version="1.0" encoding="UTF-8" standalone="no"?><svg xmlns="http://www.w3.org/2000/svg" xmlns:xlink="http://www.w3.org/1999/xlink" contentStyleType="text/css" height="510px" preserveAspectRatio="none" style="width:1339px;height:510px;background:#FFFFFF;" version="1.1" viewBox="0 0 1339 510" width="1339px" zoomAndPan="magnify"><defs/><g><text fill="#000000" font-family="sans-serif" font-size="14" font-weight="bold" lengthAdjust="spacing" textLength="569" x="383.75" y="28.5352">0xc717e875d1a3e9b59e721537287f5aba6542c12604f65f0a1026f55644d191a4</text><text fill="#000000" font-family="sans-serif" font-size="14" lengthAdjust="spacing" textLength="335" x="500.75" y="498.3906">block 16094966, Fri, 02 Dec 2022 05:15:23 GMT</text><line style="stroke:#181818;stroke-width:0.5;stroke-dasharray:5.0,5.0;" x1="160" x2="160" y1="139.9297" y2="386.4141"/><line style="stroke:#181818;stroke-width:0.5;stroke-dasharray:5.0,5.0;" x1="530" x2="530" y1="139.9297" y2="386.4141"/><line style="stroke:#181818;stroke-width:0.5;stroke-dasharray:5.0,5.0;" x1="779" x2="779" y1="139.9297" y2="386.4141"/><line style="stroke:#181818;stroke-width:0.5;stroke-dasharray:5.0,5.0;" x1="1006" x2="1006" y1="139.9297" y2="386.4141"/><line style="stroke:#181818;stroke-width:0.5;stroke-dasharray:5.0,5.0;" x1="1213" x2="1213" y1="139.9297" y2="386.4141"/><text fill="#000000" font-family="sans-serif" font-size="14" lengthAdjust="spacing" textLength="93" x="111" y="136.9766">0x7203..3efd</text><ellipse cx="160.5" cy="71.9414" fill="#E2E2F0" rx="8" ry="8" style="stroke:#181818;stroke-width:0.5;"/><path d="M160.5,79.9414 L160.5,106.9414 M147.5,87.9414 L173.5,87.9414 M160.5,106.9414 L147.5,121.9414 M160.5,106.9414 L173.5,121.9414 " fill="none" style="stroke:#181818;stroke-width:0.5;"/><text fill="#000000" font-family="sans-serif" font-size="14" lengthAdjust="spacing" textLength="93" x="111" y="398.9492">0x7203..3efd</text><ellipse cx="160.5" cy="410.4023" fill="#E2E2F0" rx="8" ry="8" style="stroke:#181818;stroke-width:0.5;"/><path d="M160.5,418.4023 L160.5,445.4023 M147.5,426.4023 L173.5,426.4023 M160.5,445.4023 L147.5,460.4023 M160.5,445.4023 L173.5,460.4023 " fill="none" style="stroke:#181818;stroke-width:0.5;"/><rect fill="#E2E2F0" height="63.4648" rx="2.5" ry="2.5" style="stroke:#181818;stroke-width:0.5;" width="241" x="410" y="75.4648"/><text fill="#000000" font-family="sans-serif" font-size="14" font-style="italic" lengthAdjust="spacing" textLength="227" x="417" y="96">«USDC 3Pool Convex Meta Vault»</text><text fill="#000000" font-family="sans-serif" font-size="14" font-style="italic" lengthAdjust="spacing" textLength="126" x="467.5" y="112.4883">«(mvUSDC-3PCV)»</text><text fill="#000000" font-family="sans-serif" font-size="14" lengthAdjust="spacing" textLength="94" x="483.5" y="128.9766">0x455f..36d2</text><rect fill="#E2E2F0" height="63.4648" rx="2.5" ry="2.5" style="stroke:#181818;stroke-width:0.5;" width="241" x="410" y="385.4141"/><text fill="#000000" font-family="sans-serif" font-size="14" font-style="italic" lengthAdjust="spacing" textLength="227" x="417" y="405.9492">«USDC 3Pool Convex Meta Vault»</text><text fill="#000000" font-family="sans-serif" font-size="14" font-style="italic" lengthAdjust="spacing" textLength="126" x="467.5" y="422.4375">«(mvUSDC-3PCV)»</text><text fill="#000000" font-family="sans-serif" font-size="14" lengthAdjust="spacing" textLength="94" x="483.5" y="438.9258">0x455f..36d2</text><rect fill="#E2E2F0" height="96.4414" rx="2.5" ry="2.5" style="stroke:#181818;stroke-width:0.5;" width="236" x="661" y="42.4883"/><text fill="#000000" font-family="sans-serif" font-size="14" font-style="italic" lengthAdjust="spacing" textLength="68" x="745" y="63.0234">«curve-fi»</text><text fill="#000000" font-family="sans-serif" font-size="14" font-style="italic" lengthAdjust="spacing" textLength="40" x="759" y="79.5117">«defi»</text><text fill="#000000" font-family="sans-serif" font-size="14" font-style="italic" lengthAdjust="spacing" textLength="40" x="759" y="96">«dex»</text><text fill="#000000" font-family="sans-serif" font-size="14" font-style="italic" lengthAdjust="spacing" textLength="222" x="668" y="112.4883">«Curve.fi: DAI/USDC/USDT Pool»</text><text fill="#000000" font-family="sans-serif" font-size="14" lengthAdjust="spacing" textLength="95" x="731.5" y="128.9766">0xbEbc..F1C7</text><rect fill="#E2E2F0" height="96.4414" rx="2.5" ry="2.5" style="stroke:#181818;stroke-width:0.5;" width="236" x="661" y="385.4141"/><text fill="#000000" font-family="sans-serif" font-size="14" font-style="italic" lengthAdjust="spacing" textLength="68" x="745" y="405.9492">«curve-fi»</text><text fill="#000000" font-family="sans-serif" font-size="14" font-style="italic" lengthAdjust="spacing" textLength="40" x="759" y="422.4375">«defi»</text><text fill="#000000" font-family="sans-serif" font-size="14" font-style="italic" lengthAdjust="spacing" textLength="40" x="759" y="438.9258">«dex»</text><text fill="#000000" font-family="sans-serif" font-size="14" font-style="italic" lengthAdjust="spacing" textLength="222" x="668" y="455.4141">«Curve.fi: DAI/USDC/USDT Pool»</text><text fill="#000000" font-family="sans-serif" font-size="14" lengthAdjust="spacing" textLength="95" x="731.5" y="471.9023">0xbEbc..F1C7</text><rect fill="#E2E2F0" height="79.9531" rx="2.5" ry="2.5" style="stroke:#181818;stroke-width:0.5;" width="198" x="907" y="58.9766"/><text fill="#000000" font-family="sans-serif" font-size="14" font-style="italic" lengthAdjust="spacing" textLength="68" x="972" y="79.5117">«curve-fi»</text><text fill="#000000" font-family="sans-serif" font-size="14" font-style="italic" lengthAdjust="spacing" textLength="184" x="914" y="96">«Curve.fi DAI/USDC/USDT»</text><text fill="#000000" font-family="sans-serif" font-size="14" font-style="italic" lengthAdjust="spacing" textLength="56" x="978" y="112.4883">«(3Crv)»</text><text fill="#000000" font-family="sans-serif" font-size="14" lengthAdjust="spacing" textLength="94" x="959" y="128.9766">0x6c3F..E490</text><rect fill="#E2E2F0" height="79.9531" rx="2.5" ry="2.5" style="stroke:#181818;stroke-width:0.5;" width="198" x="907" y="385.4141"/><text fill="#000000" font-family="sans-serif" font-size="14" font-style="italic" lengthAdjust="spacing" textLength="68" x="972" y="405.9492">«curve-fi»</text><text fill="#000000" font-family="sans-serif" font-size="14" font-style="italic" lengthAdjust="spacing" textLength="184" x="914" y="422.4375">«Curve.fi DAI/USDC/USDT»</text><text fill="#000000" font-family="sans-serif" font-size="14" font-style="italic" lengthAdjust="spacing" textLength="56" x="978" y="438.9258">«(3Crv)»</text><text fill="#000000" font-family="sans-serif" font-size="14" lengthAdjust="spacing" textLength="94" x="959" y="455.4141">0x6c3F..E490</text><rect fill="#E2E2F0" height="63.4648" rx="2.5" ry="2.5" style="stroke:#181818;stroke-width:0.5;" width="197" x="1115" y="75.4648"/><text fill="#000000" font-family="sans-serif" font-size="14" font-style="italic" lengthAdjust="spacing" textLength="183" x="1122" y="96">«3CRV Convex Meta Vault»</text><text fill="#000000" font-family="sans-serif" font-size="14" font-style="italic" lengthAdjust="spacing" textLength="117" x="1155" y="112.4883">«(mv3CRV-CVX)»</text><text fill="#000000" font-family="sans-serif" font-size="14" lengthAdjust="spacing" textLength="99" x="1164" y="128.9766">0x9614..93C5</text><rect fill="#E2E2F0" height="63.4648" rx="2.5" ry="2.5" style="stroke:#181818;stroke-width:0.5;" width="197" x="1115" y="385.4141"/><text fill="#000000" font-family="sans-serif" font-size="14" font-style="italic" lengthAdjust="spacing" textLength="183" x="1122" y="405.9492">«3CRV Convex Meta Vault»</text><text fill="#000000" font-family="sans-serif" font-size="14" font-style="italic" lengthAdjust="spacing" textLength="117" x="1155" y="422.4375">«(mv3CRV-CVX)»</text><text fill="#000000" font-family="sans-serif" font-size="14" lengthAdjust="spacing" textLength="99" x="1164" y="438.9258">0x9614..93C5</text><polygon fill="#181818" points="518.5,167.2402,528.5,171.2402,518.5,175.2402,522.5,171.2402" style="stroke:#181818;stroke-width:1.0;"/><line style="stroke:#181818;stroke-width:1.0;" x1="160.5" x2="524.5" y1="171.2402" y2="171.2402"/><text fill="#000000" font-family="sans-serif" font-size="13" lengthAdjust="spacing" textLength="191" x="167.5" y="166.498">Transfer 70,026.819019 USDC</text><polygon fill="#181818" points="767,196.5508,777,200.5508,767,204.5508,771,200.5508" style="stroke:#181818;stroke-width:1.0;"/><line style="stroke:#181818;stroke-width:1.0;" x1="530.5" x2="773" y1="200.5508" y2="200.5508"/><text fill="#000000" font-family="sans-serif" font-size="13" lengthAdjust="spacing" textLength="191" x="537.5" y="195.8086">Transfer 70,026.819019 USDC</text><polygon fill="#181818" points="541.5,225.8613,531.5,229.8613,541.5,233.8613,537.5,229.8613" style="stroke:#181818;stroke-width:1.0;"/><ellipse cx="1005.5" cy="229.1113" fill="none" rx="4" ry="4" style="stroke:#181818;stroke-width:1.5;"/><line style="stroke:#181818;stroke-width:1.0;" x1="535.5" x2="1001" y1="229.8613" y2="229.8613"/><text fill="#000000" font-family="sans-serif" font-size="13" lengthAdjust="spacing" textLength="273" x="547.5" y="225.1191">Transfer 68,453.62471696328355866 3Crv</text><polygon fill="#181818" points="1201.5,255.1719,1211.5,259.1719,1201.5,263.1719,1205.5,259.1719" style="stroke:#181818;stroke-width:1.0;"/><line style="stroke:#181818;stroke-width:1.0;" x1="530.5" x2="1207.5" y1="259.1719" y2="259.1719"/><text fill="#000000" font-family="sans-serif" font-size="13" lengthAdjust="spacing" textLength="273" x="537.5" y="254.4297">Transfer 68,453.62471696328355866 3Crv</text><polygon fill="#181818" points="541.5,284.4824,531.5,288.4824,541.5,292.4824,537.5,288.4824" style="stroke:#181818;stroke-width:1.0;"/><ellipse cx="1213" cy="287.7324" fill="none" rx="4" ry="4" style="stroke:#181818;stroke-width:1.5;"/><line style="stroke:#181818;stroke-width:1.0;" x1="535.5" x2="1208.5" y1="288.4824" y2="288.4824"/><text fill="#000000" font-family="sans-serif" font-size="13" lengthAdjust="spacing" textLength="329" x="547.5" y="283.7402">Transfer 62,767.07602132630571026 mv3CRV-CVX</text><polygon fill="#181818" points="171.5,313.793,161.5,317.793,171.5,321.793,167.5,317.793" style="stroke:#181818;stroke-width:1.0;"/><ellipse cx="530" cy="317.043" fill="none" rx="4" ry="4" style="stroke:#181818;stroke-width:1.5;"/><line style="stroke:#181818;stroke-width:1.0;" x1="165.5" x2="525.5" y1="317.793" y2="317.793"/><text fill="#000000" font-family="sans-serif" font-size="13" lengthAdjust="spacing" textLength="346" x="177.5" y="313.0508">Transfer 62,767.069482365908615733 mvUSDC-3PCV</text><path d="M5,330.793 L5,370.793 L316,370.793 L316,340.793 L306,330.793 L5,330.793 " fill="#00FFFF" style="stroke:#181818;stroke-width:0.5;"/><path d="M306,330.793 L306,340.793 L316,340.793 L306,330.793 " fill="#00FFFF" style="stroke:#181818;stroke-width:0.5;"/><text fill="#000000" font-family="sans-serif" font-size="13" lengthAdjust="spacing" textLength="143" x="11" y="348.3613">-70,026.819019 USDC</text><text fill="#000000" font-family="sans-serif" font-size="13" lengthAdjust="spacing" textLength="290" x="11" y="363.6719">62,767.069482365908615733 mvUSDC-3PCV</text><path d="M383,330.793 L383,355.793 L677,355.793 L677,340.793 L667,330.793 L383,330.793 " fill="#00FFFF" style="stroke:#181818;stroke-width:0.5;"/><path d="M667,330.793 L667,340.793 L677,340.793 L667,330.793 " fill="#00FFFF" style="stroke:#181818;stroke-width:0.5;"/><text fill="#000000" font-family="sans-serif" font-size="13" lengthAdjust="spacing" textLength="273" x="389" y="348.3613">62,767.07602132630571026 mv3CRV-CVX</text><path d="M701,330.793 L701,355.793 L857,355.793 L857,340.793 L847,330.793 L701,330.793 " fill="#00FFFF" style="stroke:#181818;stroke-width:0.5;"/><path d="M847,330.793 L847,340.793 L857,340.793 L847,330.793 " fill="#00FFFF" style="stroke:#181818;stroke-width:0.5;"/><text fill="#000000" font-family="sans-serif" font-size="13" lengthAdjust="spacing" textLength="135" x="707" y="348.3613">70,026.819019 USDC</text><path d="M1094,330.793 L1094,355.793 L1332,355.793 L1332,340.793 L1322,330.793 L1094,330.793 " fill="#00FFFF" style="stroke:#181818;stroke-width:0.5;"/><path d="M1322,330.793 L1322,340.793 L1332,340.793 L1322,330.793 " fill="#00FFFF" style="stroke:#181818;stroke-width:0.5;"/><text fill="#000000" font-family="sans-serif" font-size="13" lengthAdjust="spacing" textLength="217" x="1100" y="348.3613">68,453.62471696328355866 3Crv</text><!--SRC=[ZPFVQzim4CVV_LSSxSi6YQgV9ok4m72QiOT2sRAmLrcMm3IpCzS9-VDd9RMpTcx9YyMXkyzzxtjoMxPR3_JeDDC-rQfWLdYJA-CrPqfedkgWR6vHIUuOHoe3ga0jeno3KYXbmGopCd5srvPr1VcsTa_0a1ff42UmQie9K0vBxu1Jpe6g6LCpBk3hmpgnhgqRkA57pQaWHFXGt81zXXZ609ATRThIbJjRjJ5FAXMwF2puAI-6CO3v_EUFPGRYiQwtaDNLmH_XmRSMDdQ_RHUB-VpJxqDCcOh7RFDviNWBpkzpHyYAPVe4pdtk0dEw0xjzS_3JK4P8uVlp68yiNf5Gpc3vvTjTnCVF6gAA_rkW4oj2xgMXfnPT67mNl6dHCryZJnE8h3cCI3V89256PEh4ZQ4HJdLSaNtVlEj6l9nccr-Hc0o6JnU3gJDODxPw3hu1JIVTmadA36K6egfaiBwhwDtwk68Ok1vlWkb4Aa6GIytGeE2fK2f5X3ZtgtxzY5SN3vwyrvfFD6f2DLBE14T1bOvF72usNGH4Hk_N20EDJBb0PMYAJ6aXu9-NboH9LRSUwaFqg3VzrlxPssGwvjbLK5yL4B59SWSN_23uZBzcnd7Gy3ESGICon-k6XP_hnfE6rRoe_72F0-8l]--></g></svg>