<?xml version="1.0" encoding="UTF-8" standalone="no"?><svg xmlns="http://www.w3.org/2000/svg" xmlns:xlink="http://www.w3.org/1999/xlink" contentStyleType="text/css" height="468px" preserveAspectRatio="none" style="width:1431px;height:468px;background:#FFFFFF;" version="1.1" viewBox="0 0 1431 468" width="1431px" zoomAndPan="magnify"><defs/><g><text fill="#000000" font-family="sans-serif" font-size="14" font-weight="bold" lengthAdjust="spacing" textLength="569" x="429.5" y="28.5352">0xc717e875d1a3e9b59e721537287f5aba6542c12604f65f0a1026f55644d191a4</text><text fill="#000000" font-family="sans-serif" font-size="14" lengthAdjust="spacing" textLength="335" x="546.5" y="456.4844">block 16094966, Fri, 02 Dec 2022 05:15:23 GMT</text><line style="stroke:#181818;stroke-width:0.5;stroke-dasharray:5.0,5.0;" x1="160" x2="160" y1="118.9766" y2="365.4609"/><line style="stroke:#181818;stroke-width:0.5;stroke-dasharray:5.0,5.0;" x1="530" x2="530" y1="118.9766" y2="365.4609"/><line style="stroke:#181818;stroke-width:0.5;stroke-dasharray:5.0,5.0;" x1="777.5" x2="777.5" y1="118.9766" y2="365.4609"/><line style="stroke:#181818;stroke-width:0.5;stroke-dasharray:5.0,5.0;" x1="989" x2="989" y1="118.9766" y2="365.4609"/><line style="stroke:#181818;stroke-width:0.5;stroke-dasharray:5.0,5.0;" x1="1272.5" x2="1272.5" y1="118.9766" y2="365.4609"/><text fill="#000000" font-family="sans-serif" font-size="14" lengthAdjust="spacing" textLength="93" x="111" y="116.0234">0x7203..3efd</text><ellipse cx="160.5" cy="50.9883" fill="#E2E2F0" rx="8" ry="8" style="stroke:#181818;stroke-width:0.5;"/><path d="M160.5,58.9883 L160.5,85.9883 M147.5,66.9883 L173.5,66.9883 M160.5,85.9883 L147.5,100.9883 M160.5,85.9883 L173.5,100.9883 " fill="none" style="stroke:#181818;stroke-width:0.5;"/><text fill="#000000" font-family="sans-serif" font-size="14" lengthAdjust="spacing" textLength="93" x="111" y="377.9961">0x7203..3efd</text><ellipse cx="160.5" cy="389.4492" fill="#E2E2F0" rx="8" ry="8" style="stroke:#181818;stroke-width:0.5;"/><path d="M160.5,397.4492 L160.5,424.4492 M147.5,405.4492 L173.5,405.4492 M160.5,424.4492 L147.5,439.4492 M160.5,424.4492 L173.5,439.4492 " fill="none" style="stroke:#181818;stroke-width:0.5;"/><rect fill="#E2E2F0" height="63.4648" rx="2.5" ry="2.5" style="stroke:#181818;stroke-width:0.5;" width="241" x="410" y="54.5117"/><text fill="#000000" font-family="sans-serif" font-size="14" font-style="italic" lengthAdjust="spacing" textLength="227" x="417" y="75.0469">«USDC 3Pool Convex Meta Vault»</text><text fill="#000000" font-family="sans-serif" font-size="14" font-style="italic" lengthAdjust="spacing" textLength="126" x="467.5" y="91.5352">«(mvUSDC-3PCV)»</text><text fill="#000000" font-family="sans-serif" font-size="14" lengthAdjust="spacing" textLength="94" x="483.5" y="108.0234">0x455f..36d2</text><rect fill="#E2E2F0" height="63.4648" rx="2.5" ry="2.5" style="stroke:#181818;stroke-width:0.5;" width="241" x="410" y="364.4609"/><text fill="#000000" font-family="sans-serif" font-size="14" font-style="italic" lengthAdjust="spacing" textLength="227" x="417" y="384.9961">«USDC 3Pool Convex Meta Vault»</text><text fill="#000000" font-family="sans-serif" font-size="14" font-style="italic" lengthAdjust="spacing" textLength="126" x="467.5" y="401.4844">«(mvUSDC-3PCV)»</text><text fill="#000000" font-family="sans-serif" font-size="14" lengthAdjust="spacing" textLength="94" x="483.5" y="417.9727">0x455f..36d2</text><rect fill="#E2E2F0" height="30.4883" rx="2.5" ry="2.5" style="stroke:#181818;stroke-width:0.5;" width="109" x="723.5" y="87.4883"/><text fill="#000000" font-family="sans-serif" font-size="14" lengthAdjust="spacing" textLength="95" x="730.5" y="108.0234">0xbEbc..F1C7</text><rect fill="#E2E2F0" height="30.4883" rx="2.5" ry="2.5" style="stroke:#181818;stroke-width:0.5;" width="109" x="723.5" y="364.4609"/><text fill="#000000" font-family="sans-serif" font-size="14" lengthAdjust="spacing" textLength="95" x="730.5" y="384.9961">0xbEbc..F1C7</text><rect fill="#E2E2F0" height="63.4648" rx="2.5" ry="2.5" style="stroke:#181818;stroke-width:0.5;" width="198" x="890" y="54.5117"/><text fill="#000000" font-family="sans-serif" font-size="14" font-style="italic" lengthAdjust="spacing" textLength="184" x="897" y="75.0469">«Curve.fi DAI/USDC/USDT»</text><text fill="#000000" font-family="sans-serif" font-size="14" font-style="italic" lengthAdjust="spacing" textLength="56" x="961" y="91.5352">«(3Crv)»</text><text fill="#000000" font-family="sans-serif" font-size="14" lengthAdjust="spacing" textLength="94" x="942" y="108.0234">0x6c3F..E490</text><rect fill="#E2E2F0" height="63.4648" rx="2.5" ry="2.5" style="stroke:#181818;stroke-width:0.5;" width="198" x="890" y="364.4609"/><text fill="#000000" font-family="sans-serif" font-size="14" font-style="italic" lengthAdjust="spacing" textLength="184" x="897" y="384.9961">«Curve.fi DAI/USDC/USDT»</text><text fill="#000000" font-family="sans-serif" font-size="14" font-style="italic" lengthAdjust="spacing" textLength="56" x="961" y="401.4844">«(3Crv)»</text><text fill="#000000" font-family="sans-serif" font-size="14" lengthAdjust="spacing" textLength="94" x="942" y="417.9727">0x6c3F..E490</text><rect fill="#E2E2F0" height="63.4648" rx="2.5" ry="2.5" style="stroke:#181818;stroke-width:0.5;" width="197" x="1174.5" y="54.5117"/><text fill="#000000" font-family="sans-serif" font-size="14" font-style="italic" lengthAdjust="spacing" textLength="183" x="1181.5" y="75.0469">«3CRV Convex Meta Vault»</text><text fill="#000000" font-family="sans-serif" font-size="14" font-style="italic" lengthAdjust="spacing" textLength="117" x="1214.5" y="91.5352">«(mv3CRV-CVX)»</text><text fill="#000000" font-family="sans-serif" font-size="14" lengthAdjust="spacing" textLength="99" x="1223.5" y="108.0234">0x9614..93C5</text><rect fill="#E2E2F0" height="63.4648" rx="2.5" ry="2.5" style="stroke:#181818;stroke-width:0.5;" width="197" x="1174.5" y="364.4609"/><text fill="#000000" font-family="sans-serif" font-size="14" font-style="italic" lengthAdjust="spacing" textLength="183" x="1181.5" y="384.9961">«3CRV Convex Meta Vault»</text><text fill="#000000" font-family="sans-serif" font-size="14" font-style="italic" lengthAdjust="spacing" textLength="117" x="1214.5" y="401.4844">«(mv3CRV-CVX)»</text><text fill="#000000" font-family="sans-serif" font-size="14" lengthAdjust="spacing" textLength="99" x="1223.5" y="417.9727">0x9614..93C5</text><polygon fill="#181818" points="518.5,146.2871,528.5,150.2871,518.5,154.2871,522.5,150.2871" style="stroke:#181818;stroke-width:1.0;"/><line style="stroke:#181818;stroke-width:1.0;" x1="160.5" x2="524.5" y1="150.2871" y2="150.2871"/><text fill="#000000" font-family="sans-serif" font-size="13" lengthAdjust="spacing" textLength="191" x="167.5" y="145.5449">Transfer 70,026.819019 USDC</text><polygon fill="#181818" points="766,175.5977,776,179.5977,766,183.5977,770,179.5977" style="stroke:#181818;stroke-width:1.0;"/><line style="stroke:#181818;stroke-width:1.0;" x1="530.5" x2="772" y1="179.5977" y2="179.5977"/><text fill="#000000" font-family="sans-serif" font-size="13" lengthAdjust="spacing" textLength="191" x="537.5" y="174.8555">Transfer 70,026.819019 USDC</text><polygon fill="#181818" points="541.5,204.9082,531.5,208.9082,541.5,212.9082,537.5,208.9082" style="stroke:#181818;stroke-width:1.0;"/><ellipse cx="988.5" cy="208.1582" fill="none" rx="4" ry="4" style="stroke:#181818;stroke-width:1.5;"/><line style="stroke:#181818;stroke-width:1.0;" x1="535.5" x2="984" y1="208.9082" y2="208.9082"/><text fill="#000000" font-family="sans-serif" font-size="13" lengthAdjust="spacing" textLength="273" x="547.5" y="204.166">Transfer 68,453.62471696328355866 3Crv</text><polygon fill="#181818" points="1261,234.2188,1271,238.2188,1261,242.2188,1265,238.2188" style="stroke:#181818;stroke-width:1.0;"/><line style="stroke:#181818;stroke-width:1.0;" x1="530.5" x2="1267" y1="238.2188" y2="238.2188"/><text fill="#000000" font-family="sans-serif" font-size="13" lengthAdjust="spacing" textLength="273" x="537.5" y="233.4766">Transfer 68,453.62471696328355866 3Crv</text><polygon fill="#181818" points="541.5,263.5293,531.5,267.5293,541.5,271.5293,537.5,267.5293" style="stroke:#181818;stroke-width:1.0;"/><ellipse cx="1272.5" cy="266.7793" fill="none" rx="4" ry="4" style="stroke:#181818;stroke-width:1.5;"/><line style="stroke:#181818;stroke-width:1.0;" x1="535.5" x2="1268" y1="267.5293" y2="267.5293"/><text fill="#000000" font-family="sans-serif" font-size="13" lengthAdjust="spacing" textLength="329" x="547.5" y="262.7871">Transfer 62,767.07602132630571026 mv3CRV-CVX</text><polygon fill="#181818" points="171.5,292.8398,161.5,296.8398,171.5,300.8398,167.5,296.8398" style="stroke:#181818;stroke-width:1.0;"/><ellipse cx="530" cy="296.0898" fill="none" rx="4" ry="4" style="stroke:#181818;stroke-width:1.5;"/><line style="stroke:#181818;stroke-width:1.0;" x1="165.5" x2="525.5" y1="296.8398" y2="296.8398"/><text fill="#000000" font-family="sans-serif" font-size="13" lengthAdjust="spacing" textLength="346" x="177.5" y="292.0977">Transfer 62,767.069482365908615733 mvUSDC-3PCV</text><path d="M5,309.8398 L5,349.8398 L316,349.8398 L316,319.8398 L306,309.8398 L5,309.8398 " fill="#00FFFF" style="stroke:#181818;stroke-width:0.5;"/><path d="M306,309.8398 L306,319.8398 L316,319.8398 L306,309.8398 " fill="#00FFFF" style="stroke:#181818;stroke-width:0.5;"/><text fill="#000000" font-family="sans-serif" font-size="13" lengthAdjust="spacing" textLength="143" x="11" y="327.4082">-70,026.819019 USDC</text><text fill="#000000" font-family="sans-serif" font-size="13" lengthAdjust="spacing" textLength="290" x="11" y="342.7188">62,767.069482365908615733 mvUSDC-3PCV</text><path d="M371,309.8398 L371,349.8398 L690,349.8398 L690,319.8398 L680,309.8398 L371,309.8398 " fill="#00FFFF" style="stroke:#181818;stroke-width:0.5;"/><path d="M680,309.8398 L680,319.8398 L690,319.8398 L680,309.8398 " fill="#00FFFF" style="stroke:#181818;stroke-width:0.5;"/><text fill="#000000" font-family="sans-serif" font-size="13" lengthAdjust="spacing" textLength="273" x="377" y="327.4082">62,767.07602132630571026 mv3CRV-CVX</text><text fill="#000000" font-family="sans-serif" font-size="13" lengthAdjust="spacing" textLength="298" x="377" y="342.7188">-62,767.069482365908615733 mvUSDC-3PCV</text><path d="M700,309.8398 L700,334.8398 L856,334.8398 L856,319.8398 L846,309.8398 L700,309.8398 " fill="#00FFFF" style="stroke:#181818;stroke-width:0.5;"/><path d="M846,309.8398 L846,319.8398 L856,319.8398 L846,309.8398 " fill="#00FFFF" style="stroke:#181818;stroke-width:0.5;"/><text fill="#000000" font-family="sans-serif" font-size="13" lengthAdjust="spacing" textLength="135" x="706" y="327.4082">70,026.819019 USDC</text><path d="M866,309.8398 L866,334.8398 L1112,334.8398 L1112,319.8398 L1102,309.8398 L866,309.8398 " fill="#00FFFF" style="stroke:#181818;stroke-width:0.5;"/><path d="M1102,309.8398 L1102,319.8398 L1112,319.8398 L1102,309.8398 " fill="#00FFFF" style="stroke:#181818;stroke-width:0.5;"/><text fill="#000000" font-family="sans-serif" font-size="13" lengthAdjust="spacing" textLength="225" x="872" y="327.4082">-68,453.62471696328355866 3Crv</text><path d="M1122,309.8398 L1122,349.8398 L1424,349.8398 L1424,319.8398 L1414,309.8398 L1122,309.8398 " fill="#00FFFF" style="stroke:#181818;stroke-width:0.5;"/><path d="M1414,309.8398 L1414,319.8398 L1424,319.8398 L1414,309.8398 " fill="#00FFFF" style="stroke:#181818;stroke-width:0.5;"/><text fill="#000000" font-family="sans-serif" font-size="13" lengthAdjust="spacing" textLength="217" x="1128" y="327.4082">68,453.62471696328355866 3Crv</text><text fill="#000000" font-family="sans-serif" font-size="13" lengthAdjust="spacing" textLength="281" x="1128" y="342.7188">-62,767.07602132630571026 mv3CRV-CVX</text><!--SRC=[fP9FQzj04CNl-oc6zDA2jTc_irfZ34MEIm-1aBYcrzLg1QAkv2goySUlredbDbMCeHV1e9dVc_TskghR1607RxW9gT45TpBONDjW1DVIYDIKskKEjHAU2sIgH5qonvd0KcjKgk2MEqMystPLKqE-QVmFuCYiieWJMBRL19Y0HV0Wc130z9JhgP3mvNv5dE-Q5cxOmGWcAPMXB6x0FKCiOm5awzgkyjNMrLtiKrgNVHyMujWNorZ0RFRjQP61V6YQ3MHDlGy7k0-TWxNRRRhvV3Rx-7CVMnBvaAq_pUTlmVbTxYbTyimSmNd8VScz-MS1z799wPsoxDZNbsNeYtw1RDVk0oqhM7p-UXkbucTrb9PPkn_HjCWLfLPc-iYAfPLUzooPFQxVjH5_9jdwUoII8QbaFgGnXLNhwkSoj63Of7yfcdBBk8Mu5HaowoTEDYzF32QRSH5C9qfBYa8PZXQbIANMAI94tt_fdInUFJnayfwqc1Wqb1baWak1acaJRnFECPqNY8nJNYCCj2eL4hLbAN9jf8G_JeOGKZTTW6OVCpg5_i7zsZcIZ6Ls5JJK1KGi8RTmnWyBl-2lyPZyZzvmx2zw8sx6vuQxU8tXybEECuO7VlLw4P5S4yMWyni0]--></g></svg>