<?xml version="1.0" encoding="UTF-8" standalone="no"?><svg xmlns="http://www.w3.org/2000/svg" xmlns:xlink="http://www.w3.org/1999/xlink" contentStyleType="text/css" height="477px" preserveAspectRatio="none" style="width:1431px;height:477px;background:#FFFFFF;" version="1.1" viewBox="0 0 1431 477" width="1431px" zoomAndPan="magnify"><defs/><g><text fill="#000000" font-family="sans-serif" font-size="14" font-weight="bold" lengthAdjust="spacing" textLength="569" x="429.5" y="28.5352">0xc717e875d1a3e9b59e721537287f5aba6542c12604f65f0a1026f55644d191a4</text><text fill="#000000" font-family="sans-serif" font-size="14" lengthAdjust="spacing" textLength="335" x="546.5" y="465.4141">block 16094966, Fri, 02 Dec 2022 05:15:23 GMT</text><line style="stroke:#181818;stroke-width:0.5;stroke-dasharray:5.0,5.0;" x1="160" x2="160" y1="123.4414" y2="369.9258"/><line style="stroke:#181818;stroke-width:0.5;stroke-dasharray:5.0,5.0;" x1="530" x2="530" y1="123.4414" y2="369.9258"/><line style="stroke:#181818;stroke-width:0.5;stroke-dasharray:5.0,5.0;" x1="777.5" x2="777.5" y1="123.4414" y2="369.9258"/><line style="stroke:#181818;stroke-width:0.5;stroke-dasharray:5.0,5.0;" x1="988.5" x2="988.5" y1="123.4414" y2="369.9258"/><line style="stroke:#181818;stroke-width:0.5;stroke-dasharray:5.0,5.0;" x1="1272.5" x2="1272.5" y1="123.4414" y2="369.9258"/><text fill="#000000" font-family="sans-serif" font-size="14" lengthAdjust="spacing" textLength="93" x="111" y="120.4883">0x7203..3efd</text><ellipse cx="160.5" cy="55.4531" fill="#E2E2F0" rx="8" ry="8" style="stroke:#181818;stroke-width:0.5;"/><path d="M160.5,63.4531 L160.5,90.4531 M147.5,71.4531 L173.5,71.4531 M160.5,90.4531 L147.5,105.4531 M160.5,90.4531 L173.5,105.4531 " fill="none" style="stroke:#181818;stroke-width:0.5;"/><text fill="#000000" font-family="sans-serif" font-size="14" lengthAdjust="spacing" textLength="93" x="111" y="382.4609">0x7203..3efd</text><ellipse cx="160.5" cy="393.9141" fill="#E2E2F0" rx="8" ry="8" style="stroke:#181818;stroke-width:0.5;"/><path d="M160.5,401.9141 L160.5,428.9141 M147.5,409.9141 L173.5,409.9141 M160.5,428.9141 L147.5,443.9141 M160.5,428.9141 L173.5,443.9141 " fill="none" style="stroke:#181818;stroke-width:0.5;"/><rect fill="#E2E2F0" height="63.4648" rx="2.5" ry="2.5" style="stroke:#181818;stroke-width:0.5;" width="241" x="410" y="58.9766"/><text fill="#000000" font-family="sans-serif" font-size="14" font-style="italic" lengthAdjust="spacing" textLength="227" x="417" y="79.5117">«USDC 3Pool Convex Meta Vault»</text><text fill="#000000" font-family="sans-serif" font-size="14" font-style="italic" lengthAdjust="spacing" textLength="126" x="467.5" y="96">«(mvUSDC-3PCV)»</text><text fill="#000000" font-family="sans-serif" font-size="14" lengthAdjust="spacing" textLength="94" x="483.5" y="112.4883">0x455f..36d2</text><rect fill="#E2E2F0" height="63.4648" rx="2.5" ry="2.5" style="stroke:#181818;stroke-width:0.5;" width="241" x="410" y="368.9258"/><text fill="#000000" font-family="sans-serif" font-size="14" font-style="italic" lengthAdjust="spacing" textLength="227" x="417" y="389.4609">«USDC 3Pool Convex Meta Vault»</text><text fill="#000000" font-family="sans-serif" font-size="14" font-style="italic" lengthAdjust="spacing" textLength="126" x="467.5" y="405.9492">«(mvUSDC-3PCV)»</text><text fill="#000000" font-family="sans-serif" font-size="14" lengthAdjust="spacing" textLength="94" x="483.5" y="422.4375">0x455f..36d2</text><rect fill="#E2E2F0" height="30.4883" rx="2.5" ry="2.5" style="stroke:#181818;stroke-width:0.5;" width="109" x="723.5" y="91.9531"/><text fill="#000000" font-family="sans-serif" font-size="14" lengthAdjust="spacing" textLength="95" x="730.5" y="112.4883">0xbEbc..F1C7</text><rect fill="#E2E2F0" height="30.4883" rx="2.5" ry="2.5" style="stroke:#181818;stroke-width:0.5;" width="109" x="723.5" y="368.9258"/><text fill="#000000" font-family="sans-serif" font-size="14" lengthAdjust="spacing" textLength="95" x="730.5" y="389.4609">0xbEbc..F1C7</text><rect fill="#E2E2F0" height="79.9531" rx="2.5" ry="2.5" style="stroke:#181818;stroke-width:0.5;" width="171" x="903.5" y="42.4883"/><text fill="#000000" font-family="sans-serif" font-size="14" font-style="italic" lengthAdjust="spacing" textLength="157" x="910.5" y="63.0234">«Curve.fi DAI...  (3Crv)»</text><text fill="#000000" font-family="sans-serif" font-size="14" font-style="italic" lengthAdjust="spacing" textLength="40" x="969" y="79.5117">«dex»</text><text fill="#000000" font-family="sans-serif" font-size="14" font-style="italic" lengthAdjust="spacing" textLength="84" x="947" y="96">«stablecoin»</text><text fill="#000000" font-family="sans-serif" font-size="14" lengthAdjust="spacing" textLength="94" x="942" y="112.4883">0x6c3F..E490</text><rect fill="#E2E2F0" height="79.9531" rx="2.5" ry="2.5" style="stroke:#181818;stroke-width:0.5;" width="171" x="903.5" y="368.9258"/><text fill="#000000" font-family="sans-serif" font-size="14" font-style="italic" lengthAdjust="spacing" textLength="157" x="910.5" y="389.4609">«Curve.fi DAI...  (3Crv)»</text><text fill="#000000" font-family="sans-serif" font-size="14" font-style="italic" lengthAdjust="spacing" textLength="40" x="969" y="405.9492">«dex»</text><text fill="#000000" font-family="sans-serif" font-size="14" font-style="italic" lengthAdjust="spacing" textLength="84" x="947" y="422.4375">«stablecoin»</text><text fill="#000000" font-family="sans-serif" font-size="14" lengthAdjust="spacing" textLength="94" x="942" y="438.9258">0x6c3F..E490</text><rect fill="#E2E2F0" height="63.4648" rx="2.5" ry="2.5" style="stroke:#181818;stroke-width:0.5;" width="197" x="1174.5" y="58.9766"/><text fill="#000000" font-family="sans-serif" font-size="14" font-style="italic" lengthAdjust="spacing" textLength="183" x="1181.5" y="79.5117">«3CRV Convex Meta Vault»</text><text fill="#000000" font-family="sans-serif" font-size="14" font-style="italic" lengthAdjust="spacing" textLength="117" x="1214.5" y="96">«(mv3CRV-CVX)»</text><text fill="#000000" font-family="sans-serif" font-size="14" lengthAdjust="spacing" textLength="99" x="1223.5" y="112.4883">0x9614..93C5</text><rect fill="#E2E2F0" height="63.4648" rx="2.5" ry="2.5" style="stroke:#181818;stroke-width:0.5;" width="197" x="1174.5" y="368.9258"/><text fill="#000000" font-family="sans-serif" font-size="14" font-style="italic" lengthAdjust="spacing" textLength="183" x="1181.5" y="389.4609">«3CRV Convex Meta Vault»</text><text fill="#000000" font-family="sans-serif" font-size="14" font-style="italic" lengthAdjust="spacing" textLength="117" x="1214.5" y="405.9492">«(mv3CRV-CVX)»</text><text fill="#000000" font-family="sans-serif" font-size="14" lengthAdjust="spacing" textLength="99" x="1223.5" y="422.4375">0x9614..93C5</text><polygon fill="#181818" points="518.5,150.752,528.5,154.752,518.5,158.752,522.5,154.752" style="stroke:#181818;stroke-width:1.0;"/><line style="stroke:#181818;stroke-width:1.0;" x1="160.5" x2="524.5" y1="154.752" y2="154.752"/><text fill="#000000" font-family="sans-serif" font-size="13" lengthAdjust="spacing" textLength="191" x="167.5" y="150.0098">Transfer 70,026.819019 USDC</text><polygon fill="#181818" points="766,180.0625,776,184.0625,766,188.0625,770,184.0625" style="stroke:#181818;stroke-width:1.0;"/><line style="stroke:#181818;stroke-width:1.0;" x1="530.5" x2="772" y1="184.0625" y2="184.0625"/><text fill="#000000" font-family="sans-serif" font-size="13" lengthAdjust="spacing" textLength="191" x="537.5" y="179.3203">Transfer 70,026.819019 USDC</text><polygon fill="#181818" points="541.5,209.373,531.5,213.373,541.5,217.373,537.5,213.373" style="stroke:#181818;stroke-width:1.0;"/><ellipse cx="988.5" cy="212.623" fill="none" rx="4" ry="4" style="stroke:#181818;stroke-width:1.5;"/><line style="stroke:#181818;stroke-width:1.0;" x1="535.5" x2="984" y1="213.373" y2="213.373"/><text fill="#000000" font-family="sans-serif" font-size="13" lengthAdjust="spacing" textLength="273" x="547.5" y="208.6309">Transfer 68,453.62471696328355866 3Crv</text><polygon fill="#181818" points="1261,238.6836,1271,242.6836,1261,246.6836,1265,242.6836" style="stroke:#181818;stroke-width:1.0;"/><line style="stroke:#181818;stroke-width:1.0;" x1="530.5" x2="1267" y1="242.6836" y2="242.6836"/><text fill="#000000" font-family="sans-serif" font-size="13" lengthAdjust="spacing" textLength="273" x="537.5" y="237.9414">Transfer 68,453.62471696328355866 3Crv</text><polygon fill="#181818" points="541.5,267.9941,531.5,271.9941,541.5,275.9941,537.5,271.9941" style="stroke:#181818;stroke-width:1.0;"/><ellipse cx="1272.5" cy="271.2441" fill="none" rx="4" ry="4" style="stroke:#181818;stroke-width:1.5;"/><line style="stroke:#181818;stroke-width:1.0;" x1="535.5" x2="1268" y1="271.9941" y2="271.9941"/><text fill="#000000" font-family="sans-serif" font-size="13" lengthAdjust="spacing" textLength="329" x="547.5" y="267.252">Transfer 62,767.07602132630571026 mv3CRV-CVX</text><polygon fill="#181818" points="171.5,297.3047,161.5,301.3047,171.5,305.3047,167.5,301.3047" style="stroke:#181818;stroke-width:1.0;"/><ellipse cx="530" cy="300.5547" fill="none" rx="4" ry="4" style="stroke:#181818;stroke-width:1.5;"/><line style="stroke:#181818;stroke-width:1.0;" x1="165.5" x2="525.5" y1="301.3047" y2="301.3047"/><text fill="#000000" font-family="sans-serif" font-size="13" lengthAdjust="spacing" textLength="346" x="177.5" y="296.5625">Transfer 62,767.069482365908615733 mvUSDC-3PCV</text><path d="M5,314.3047 L5,354.3047 L316,354.3047 L316,324.3047 L306,314.3047 L5,314.3047 " fill="#00FFFF" style="stroke:#181818;stroke-width:0.5;"/><path d="M306,314.3047 L306,324.3047 L316,324.3047 L306,314.3047 " fill="#00FFFF" style="stroke:#181818;stroke-width:0.5;"/><text fill="#000000" font-family="sans-serif" font-size="13" lengthAdjust="spacing" textLength="143" x="11" y="331.873">-70,026.819019 USDC</text><text fill="#000000" font-family="sans-serif" font-size="13" lengthAdjust="spacing" textLength="290" x="11" y="347.1836">62,767.069482365908615733 mvUSDC-3PCV</text><path d="M371,314.3047 L371,354.3047 L690,354.3047 L690,324.3047 L680,314.3047 L371,314.3047 " fill="#00FFFF" style="stroke:#181818;stroke-width:0.5;"/><path d="M680,314.3047 L680,324.3047 L690,324.3047 L680,314.3047 " fill="#00FFFF" style="stroke:#181818;stroke-width:0.5;"/><text fill="#000000" font-family="sans-serif" font-size="13" lengthAdjust="spacing" textLength="273" x="377" y="331.873">62,767.07602132630571026 mv3CRV-CVX</text><text fill="#000000" font-family="sans-serif" font-size="13" lengthAdjust="spacing" textLength="298" x="377" y="347.1836">-62,767.069482365908615733 mvUSDC-3PCV</text><path d="M700,314.3047 L700,339.3047 L856,339.3047 L856,324.3047 L846,314.3047 L700,314.3047 " fill="#00FFFF" style="stroke:#181818;stroke-width:0.5;"/><path d="M846,314.3047 L846,324.3047 L856,324.3047 L846,314.3047 " fill="#00FFFF" style="stroke:#181818;stroke-width:0.5;"/><text fill="#000000" font-family="sans-serif" font-size="13" lengthAdjust="spacing" textLength="135" x="706" y="331.873">70,026.819019 USDC</text><path d="M866,314.3047 L866,339.3047 L1112,339.3047 L1112,324.3047 L1102,314.3047 L866,314.3047 " fill="#00FFFF" style="stroke:#181818;stroke-width:0.5;"/><path d="M1102,314.3047 L1102,324.3047 L1112,324.3047 L1102,314.3047 " fill="#00FFFF" style="stroke:#181818;stroke-width:0.5;"/><text fill="#000000" font-family="sans-serif" font-size="13" lengthAdjust="spacing" textLength="225" x="872" y="331.873">-68,453.62471696328355866 3Crv</text><path d="M1122,314.3047 L1122,354.3047 L1424,354.3047 L1424,324.3047 L1414,314.3047 L1122,314.3047 " fill="#00FFFF" style="stroke:#181818;stroke-width:0.5;"/><path d="M1414,314.3047 L1414,324.3047 L1424,324.3047 L1414,314.3047 " fill="#00FFFF" style="stroke:#181818;stroke-width:0.5;"/><text fill="#000000" font-family="sans-serif" font-size="13" lengthAdjust="spacing" textLength="217" x="1128" y="331.873">68,453.62471696328355866 3Crv</text><text fill="#000000" font-family="sans-serif" font-size="13" lengthAdjust="spacing" textLength="281" x="1128" y="347.1836">-62,767.07602132630571026 mv3CRV-CVX</text><!--SRC=[fP9FQzj04CNl-oc6z9A0jTs_irfZ34MEIm-1aAQcrzLg1QAkvCgoySUlredbjb6CeISnQEQzUR-ThkhM0TZ16sv2QdJ1dGmsrpOOmRKq8ZMbThb3hOJd0fagKPVCSIQmr1gLAhZbJX7lDbtLr92l6_y3E3AhBE84bcqr0IPW4Jm89WGmFULwAYHyVdWcpdTD2pViO0IJbCfG5ZVWjX3BM03PkBQhVBLnTHVxbDPbtuU5EFR5CXOmcttxkiX0FZRD6hActeS3F8JEmShjrjryFflT_jp7baG-Pgkx-VnVuVm-zvGkUMQEmdd8VSczURC0Uhcaz5vPTkphopBqHRz0jcltWPOLB3vzePG2tCgitTz5xo8SucVRkNmTV5FLR_qjSaMfbPa-wiRIIgzxNPazhTwD57ycsUfxJ4G6Qiby83E5vzRLspAqODYaVpMQSikuXGY33FpwYLFaonD3u6RS1DE9qfAYK8QZHIbIgNMA2176NtwdY5SF3qpUinOJWuOoWqnmAL0oRUATmXdJUO6eSU8ree5MfKAYjYn5hesKyCVv44BgfWlGx2EZ4_GFxjVEaMICsLMYeIuWoXBo4Sxomy8lyjTaJFx7RpZy5x-HDEDpmrsyOhZybECQmmE_PhqeaLo3Ol3v3G00]--></g></svg>