<?xml version="1.0" encoding="us-ascii" standalone="no"?><svg xmlns:xlink="http://www.w3.org/1999/xlink" xmlns="http://www.w3.org/2000/svg" contentStyleType="text/css" height="568px" preserveAspectRatio="none" style="width:1198px;height:568px;background:#FFFFFF;" version="1.1" viewBox="0 0 1198 568" width="1198px" zoomAndPan="magnify"><defs/><g><text fill="#000000" font-family="sans-serif" font-size="14" font-weight="bold" lengthAdjust="spacing" textLength="573" x="311" y="28.5352">0xd96e4fa0b545652e99b35aee027246cb14739e27e7d74d92eb3875380f1e71ea</text><text fill="#000000" font-family="sans-serif" font-size="14" lengthAdjust="spacing" textLength="404" x="395.5" y="557.0117">polygon, block 38280908, Thu, 19 Jan 2023 18:52:09 GMT</text><line style="stroke:#181818;stroke-width:0.5;stroke-dasharray:5.0,5.0;" x1="116" x2="116" y1="139.9297" y2="445.0352"/><line style="stroke:#181818;stroke-width:0.5;stroke-dasharray:5.0,5.0;" x1="386.5" x2="386.5" y1="139.9297" y2="445.0352"/><line style="stroke:#181818;stroke-width:0.5;stroke-dasharray:5.0,5.0;" x1="599.5" x2="599.5" y1="139.9297" y2="445.0352"/><line style="stroke:#181818;stroke-width:0.5;stroke-dasharray:5.0,5.0;" x1="798.5" x2="798.5" y1="139.9297" y2="445.0352"/><line style="stroke:#181818;stroke-width:0.5;stroke-dasharray:5.0,5.0;" x1="1081" x2="1081" y1="139.9297" y2="445.0352"/><text fill="#000000" font-family="sans-serif" font-size="14" lengthAdjust="spacing" textLength="98" x="64" y="136.9766">0x23cA..C179</text><ellipse cx="116" cy="71.9414" fill="#E2E2F0" rx="8" ry="8" style="stroke:#181818;stroke-width:0.5;"/><path d="M116,79.9414 L116,106.9414 M103,87.9414 L129,87.9414 M116,106.9414 L103,121.9414 M116,106.9414 L129,121.9414 " fill="none" style="stroke:#181818;stroke-width:0.5;"/><text fill="#000000" font-family="sans-serif" font-size="14" lengthAdjust="spacing" textLength="98" x="64" y="457.5703">0x23cA..C179</text><ellipse cx="116" cy="469.0234" fill="#E2E2F0" rx="8" ry="8" style="stroke:#181818;stroke-width:0.5;"/><path d="M116,477.0234 L116,504.0234 M103,485.0234 L129,485.0234 M116,504.0234 L103,519.0234 M116,504.0234 L129,519.0234 " fill="none" style="stroke:#181818;stroke-width:0.5;"/><rect fill="#E2E2F0" height="46.9766" rx="2.5" ry="2.5" style="stroke:#181818;stroke-width:0.5;" width="145" x="314.5" y="91.9531"/><text fill="#000000" font-family="sans-serif" font-size="14" font-style="italic" lengthAdjust="spacing" textLength="131" x="321.5" y="112.4883">&#171;PAaveIntegration&#187;</text><text fill="#000000" font-family="sans-serif" font-size="14" lengthAdjust="spacing" textLength="94" x="340" y="128.9766">0xeab7..25c3</text><rect fill="#E2E2F0" height="46.9766" rx="2.5" ry="2.5" style="stroke:#181818;stroke-width:0.5;" width="145" x="314.5" y="444.0352"/><text fill="#000000" font-family="sans-serif" font-size="14" font-style="italic" lengthAdjust="spacing" textLength="131" x="321.5" y="464.5703">&#171;PAaveIntegration&#187;</text><text fill="#000000" font-family="sans-serif" font-size="14" lengthAdjust="spacing" textLength="94" x="340" y="481.0586">0xeab7..25c3</text><rect fill="#E2E2F0" height="96.4414" rx="2.5" ry="2.5" style="stroke:#181818;stroke-width:0.5;" width="193" x="503.5" y="42.4883"/><text fill="#000000" font-family="sans-serif" font-size="14" font-style="italic" lengthAdjust="spacing" textLength="45" x="577.5" y="63.0234">&#171;aave&#187;</text><text fill="#000000" font-family="sans-serif" font-size="14" font-style="italic" lengthAdjust="spacing" textLength="179" x="510.5" y="79.5117">&#171;Aave Matic Market USDT&#187;</text><text fill="#000000" font-family="sans-serif" font-size="14" font-style="italic" lengthAdjust="spacing" textLength="82" x="559" y="96">&#171;(amUSDT)&#187;</text><text fill="#000000" font-family="sans-serif" font-size="14" font-style="italic" lengthAdjust="spacing" textLength="67" x="566.5" y="112.4883">&#171;AToken&#187;</text><text fill="#000000" font-family="sans-serif" font-size="14" lengthAdjust="spacing" textLength="100" x="550" y="128.9766">0x60D5..5CeC</text><rect fill="#E2E2F0" height="96.4414" rx="2.5" ry="2.5" style="stroke:#181818;stroke-width:0.5;" width="193" x="503.5" y="444.0352"/><text fill="#000000" font-family="sans-serif" font-size="14" font-style="italic" lengthAdjust="spacing" textLength="45" x="577.5" y="464.5703">&#171;aave&#187;</text><text fill="#000000" font-family="sans-serif" font-size="14" font-style="italic" lengthAdjust="spacing" textLength="179" x="510.5" y="481.0586">&#171;Aave Matic Market USDT&#187;</text><text fill="#000000" font-family="sans-serif" font-size="14" font-style="italic" lengthAdjust="spacing" textLength="82" x="559" y="497.5469">&#171;(amUSDT)&#187;</text><text fill="#000000" font-family="sans-serif" font-size="14" font-style="italic" lengthAdjust="spacing" textLength="67" x="566.5" y="514.0352">&#171;AToken&#187;</text><text fill="#000000" font-family="sans-serif" font-size="14" lengthAdjust="spacing" textLength="100" x="550" y="530.5234">0x60D5..5CeC</text><rect fill="#E2E2F0" height="79.9531" rx="2.5" ry="2.5" style="stroke:#181818;stroke-width:0.5;" width="111" x="743.5" y="58.9766"/><text fill="#000000" font-family="sans-serif" font-size="14" font-style="italic" lengthAdjust="spacing" textLength="45" x="776.5" y="79.5117">&#171;aave&#187;</text><text fill="#000000" font-family="sans-serif" font-size="14" font-style="italic" lengthAdjust="spacing" textLength="40" x="779" y="96">&#171;defi&#187;</text><text fill="#000000" font-family="sans-serif" font-size="14" font-style="italic" lengthAdjust="spacing" textLength="76" x="761" y="112.4883">&#171;Collector&#187;</text><text fill="#000000" font-family="sans-serif" font-size="14" lengthAdjust="spacing" textLength="97" x="750.5" y="128.9766">0x7734..39e9</text><rect fill="#E2E2F0" height="79.9531" rx="2.5" ry="2.5" style="stroke:#181818;stroke-width:0.5;" width="111" x="743.5" y="444.0352"/><text fill="#000000" font-family="sans-serif" font-size="14" font-style="italic" lengthAdjust="spacing" textLength="45" x="776.5" y="464.5703">&#171;aave&#187;</text><text fill="#000000" font-family="sans-serif" font-size="14" font-style="italic" lengthAdjust="spacing" textLength="40" x="779" y="481.0586">&#171;defi&#187;</text><text fill="#000000" font-family="sans-serif" font-size="14" font-style="italic" lengthAdjust="spacing" textLength="76" x="761" y="497.5469">&#171;Collector&#187;</text><text fill="#000000" font-family="sans-serif" font-size="14" lengthAdjust="spacing" textLength="97" x="750.5" y="514.0352">0x7734..39e9</text><rect fill="#E2E2F0" height="96.4414" rx="2.5" ry="2.5" style="stroke:#181818;stroke-width:0.5;" width="180" x="991" y="42.4883"/><text fill="#000000" font-family="sans-serif" font-size="14" font-style="italic" lengthAdjust="spacing" textLength="45" x="1058.5" y="63.0234">&#171;aave&#187;</text><text fill="#000000" font-family="sans-serif" font-size="14" font-style="italic" lengthAdjust="spacing" textLength="166" x="998" y="79.5117">&#171;Aave Matic Market DAI&#187;</text><text fill="#000000" font-family="sans-serif" font-size="14" font-style="italic" lengthAdjust="spacing" textLength="69" x="1046.5" y="96">&#171;(amDAI)&#187;</text><text fill="#000000" font-family="sans-serif" font-size="14" font-style="italic" lengthAdjust="spacing" textLength="67" x="1047.5" y="112.4883">&#171;AToken&#187;</text><text fill="#000000" font-family="sans-serif" font-size="14" lengthAdjust="spacing" textLength="97" x="1032.5" y="128.9766">0x27F8..0A6e</text><rect fill="#E2E2F0" height="96.4414" rx="2.5" ry="2.5" style="stroke:#181818;stroke-width:0.5;" width="180" x="991" y="444.0352"/><text fill="#000000" font-family="sans-serif" font-size="14" font-style="italic" lengthAdjust="spacing" textLength="45" x="1058.5" y="464.5703">&#171;aave&#187;</text><text fill="#000000" font-family="sans-serif" font-size="14" font-style="italic" lengthAdjust="spacing" textLength="166" x="998" y="481.0586">&#171;Aave Matic Market DAI&#187;</text><text fill="#000000" font-family="sans-serif" font-size="14" font-style="italic" lengthAdjust="spacing" textLength="69" x="1046.5" y="497.5469">&#171;(amDAI)&#187;</text><text fill="#000000" font-family="sans-serif" font-size="14" font-style="italic" lengthAdjust="spacing" textLength="67" x="1047.5" y="514.0352">&#171;AToken&#187;</text><text fill="#000000" font-family="sans-serif" font-size="14" lengthAdjust="spacing" textLength="97" x="1032.5" y="530.5234">0x27F8..0A6e</text><polygon fill="#181818" points="375,167.2402,385,171.2402,375,175.2402,379,171.2402" style="stroke:#181818;stroke-width:1.0;"/><line style="stroke:#181818;stroke-width:1.0;" x1="116" x2="381" y1="171.2402" y2="171.2402"/><text fill="#000000" font-family="sans-serif" font-size="13" lengthAdjust="spacing" textLength="170" x="123" y="166.498">Transfer 243.504511 USDT</text><ellipse cx="599.5" cy="199.8008" fill="none" rx="4" ry="4" style="stroke:#181818;stroke-width:1.5;"/><polygon fill="#181818" points="787,196.5508,797,200.5508,787,204.5508,791,200.5508" style="stroke:#181818;stroke-width:1.0;"/><line style="stroke:#181818;stroke-width:1.0;" x1="604" x2="793" y1="200.5508" y2="200.5508"/><text fill="#000000" font-family="sans-serif" font-size="13" lengthAdjust="spacing" textLength="173" x="607" y="195.8086">Transfer 0.133046 amUSDT</text><polygon fill="#181818" points="588,225.8613,598,229.8613,588,233.8613,592,229.8613" style="stroke:#181818;stroke-width:1.0;"/><line style="stroke:#181818;stroke-width:1.0;" x1="387" x2="594" y1="229.8613" y2="229.8613"/><text fill="#000000" font-family="sans-serif" font-size="13" lengthAdjust="spacing" textLength="170" x="394" y="225.1191">Transfer 243.504511 USDT</text><polygon fill="#181818" points="398,255.1719,388,259.1719,398,263.1719,394,259.1719" style="stroke:#181818;stroke-width:1.0;"/><ellipse cx="599.5" cy="258.4219" fill="none" rx="4" ry="4" style="stroke:#181818;stroke-width:1.5;"/><line style="stroke:#181818;stroke-width:1.0;" x1="392" x2="595" y1="259.1719" y2="259.1719"/><text fill="#000000" font-family="sans-serif" font-size="13" lengthAdjust="spacing" textLength="189" x="404" y="254.4297">Transfer 243.504511 amUSDT</text><polygon fill="#181818" points="810,284.4824,800,288.4824,810,292.4824,806,288.4824" style="stroke:#181818;stroke-width:1.0;"/><ellipse cx="1080.5" cy="287.7324" fill="none" rx="4" ry="4" style="stroke:#181818;stroke-width:1.5;"/><line style="stroke:#181818;stroke-width:1.0;" x1="804" x2="1076" y1="288.4824" y2="288.4824"/><text fill="#000000" font-family="sans-serif" font-size="13" lengthAdjust="spacing" textLength="258" x="816" y="283.7402">Transfer 0.087144677270871666 amDAI</text><polygon fill="#181818" points="398,313.793,388,317.793,398,321.793,394,317.793" style="stroke:#181818;stroke-width:1.0;"/><line style="stroke:#181818;stroke-width:1.0;" x1="392" x2="1080" y1="317.793" y2="317.793"/><text fill="#000000" font-family="sans-serif" font-size="13" lengthAdjust="spacing" textLength="247" x="404" y="313.0508">Transfer 243.49791288972326292 DAI</text><line style="stroke:#181818;stroke-width:2.0;" x1="1063" x2="1073" y1="342.1035" y2="352.1035"/><line style="stroke:#181818;stroke-width:2.0;" x1="1063" x2="1073" y1="352.1035" y2="342.1035"/><line style="stroke:#181818;stroke-width:1.0;" x1="387" x2="1068" y1="347.1035" y2="347.1035"/><text fill="#000000" font-family="sans-serif" font-size="13" lengthAdjust="spacing" textLength="266" x="394" y="342.3613">Transfer 243.49791288972326292 amDAI</text><polygon fill="#181818" points="127,372.4141,117,376.4141,127,380.4141,123,376.4141" style="stroke:#181818;stroke-width:1.0;"/><line style="stroke:#181818;stroke-width:1.0;" x1="121" x2="386" y1="376.4141" y2="376.4141"/><text fill="#000000" font-family="sans-serif" font-size="13" lengthAdjust="spacing" textLength="247" x="133" y="371.6719">Transfer 243.49791288972326292 DAI</text><path d="M5,389.4141 L5,429.4141 L227,429.4141 L227,399.4141 L217,389.4141 L5,389.4141 " fill="#00FFFF" style="stroke:#181818;stroke-width:0.5;"/><path d="M217,389.4141 L217,399.4141 L227,399.4141 L217,389.4141 " fill="#00FFFF" style="stroke:#181818;stroke-width:0.5;"/><text fill="#000000" font-family="sans-serif" font-size="13" lengthAdjust="spacing" textLength="122" x="11" y="406.9824">-243.504511 USDT</text><text fill="#000000" font-family="sans-serif" font-size="13" lengthAdjust="spacing" textLength="201" x="11" y="422.293">+243.49791288972326292 DAI</text><path d="M267,389.4141 L267,429.4141 L506,429.4141 L506,399.4141 L496,389.4141 L267,389.4141 " fill="#00FFFF" style="stroke:#181818;stroke-width:0.5;"/><path d="M496,389.4141 L496,399.4141 L506,399.4141 L496,389.4141 " fill="#00FFFF" style="stroke:#181818;stroke-width:0.5;"/><text fill="#000000" font-family="sans-serif" font-size="13" lengthAdjust="spacing" textLength="143" x="273" y="406.9824">+243.504511 amUSDT</text><text fill="#000000" font-family="sans-serif" font-size="13" lengthAdjust="spacing" textLength="218" x="273" y="422.293">-243.49791288972326292 amDAI</text><path d="M527,389.4141 L527,414.4141 L672,414.4141 L672,399.4141 L662,389.4141 L527,389.4141 " fill="#00FFFF" style="stroke:#181818;stroke-width:0.5;"/><path d="M662,389.4141 L662,399.4141 L672,399.4141 L662,389.4141 " fill="#00FFFF" style="stroke:#181818;stroke-width:0.5;"/><text fill="#000000" font-family="sans-serif" font-size="13" lengthAdjust="spacing" textLength="124" x="533" y="406.9824">+243.504511 USDT</text><path d="M682,389.4141 L682,429.4141 L915,429.4141 L915,399.4141 L905,389.4141 L682,389.4141 " fill="#00FFFF" style="stroke:#181818;stroke-width:0.5;"/><path d="M905,389.4141 L905,399.4141 L915,399.4141 L905,389.4141 " fill="#00FFFF" style="stroke:#181818;stroke-width:0.5;"/><text fill="#000000" font-family="sans-serif" font-size="13" lengthAdjust="spacing" textLength="127" x="688" y="406.9824">+0.133046 amUSDT</text><text fill="#000000" font-family="sans-serif" font-size="13" lengthAdjust="spacing" textLength="212" x="688" y="422.293">+0.087144677270871666 amDAI</text><path d="M971,389.4141 L971,414.4141 L1191,414.4141 L1191,399.4141 L1181,389.4141 L971,389.4141 " fill="#00FFFF" style="stroke:#181818;stroke-width:0.5;"/><path d="M1181,389.4141 L1181,399.4141 L1191,399.4141 L1181,389.4141 " fill="#00FFFF" style="stroke:#181818;stroke-width:0.5;"/><text fill="#000000" font-family="sans-serif" font-size="13" lengthAdjust="spacing" textLength="199" x="977" y="406.9824">-243.49791288972326292 DAI</text><!--SRC=[ZLFRRjf057pVhrYHbrR0TkyNX90Gg5KgHQfK-W7hzI6nS6tgE57wzzt5u50W92_s7ldCd9avwxPeIy03-f8x3NBjQQQaqeg3SvbG7e1omwKE6PD6EE06J6vaxZXamXebB5qpC0py0A7WjsrHLtXRbt_lwsg4ix8E6omijzHHEyAhXwSHPWv_znNcb0lCx4Jn2NNuszqA-T3MJPB2HPWJic363R1_nB7q8HOORNtJ5g7O-gfDVU0pGmXNGUpwKfaAF9t-cFjdkArQk6zyaZIRdM8rNIf2r08MEwockL81GiJw29tDfjD4WUyYFCHdiu4M__gvNAKld_plTFoywrhL6xZ0RuoGXCJ4EW-fJCKHVmxh8hqNTLb2idvEmirNImYTQ-Y2C6jBlOQh8fVpsxt6UFfV8kgJ7C_wj2PurVZgSGqDvb8GHQLYR6SLzQ7KiV_WuAYV4YO4bHftUQ1-0R7zWFqe_NKv-m5z06yAejOmARKntAIZrabS3E8L-lOiwOnZt5fdkE2QEvwoF3BrqY_WNM0typYFG_GVcebGLRVHvNFgEkpinlzvycXyckBmYlGgnua8eI_ubR1NrH4EpsCUNpLraRJVvJbfTpKkelg_OeywlL33AmkzpDYl-IYjTyBv1m00]--></g></svg>
