<?xml version="1.0" encoding="UTF-8" standalone="no"?><svg xmlns="http://www.w3.org/2000/svg" xmlns:xlink="http://www.w3.org/1999/xlink" contentStyleType="text/css" height="527px" preserveAspectRatio="none" style="width:1191px;height:527px;background:#FFFFFF;" version="1.1" viewBox="0 0 1191 527" width="1191px" zoomAndPan="magnify"><defs/><g><text fill="#000000" font-family="sans-serif" font-size="14" font-weight="bold" lengthAdjust="spacing" textLength="573" x="307.5" y="28.5352">0xd96e4fa0b545652e99b35aee027246cb14739e27e7d74d92eb3875380f1e71ea</text><text fill="#000000" font-family="sans-serif" font-size="14" lengthAdjust="spacing" textLength="404" x="392" y="515.1055">polygon, block 38280908, Thu, 19 Jan 2023 18:52:09 GMT</text><line style="stroke:#181818;stroke-width:0.5;stroke-dasharray:5.0,5.0;" x1="111" x2="111" y1="118.9766" y2="424.082"/><line style="stroke:#181818;stroke-width:0.5;stroke-dasharray:5.0,5.0;" x1="381.5" x2="381.5" y1="118.9766" y2="424.082"/><line style="stroke:#181818;stroke-width:0.5;stroke-dasharray:5.0,5.0;" x1="594.5" x2="594.5" y1="118.9766" y2="424.082"/><line style="stroke:#181818;stroke-width:0.5;stroke-dasharray:5.0,5.0;" x1="791.5" x2="791.5" y1="118.9766" y2="424.082"/><line style="stroke:#181818;stroke-width:0.5;stroke-dasharray:5.0,5.0;" x1="1074" x2="1074" y1="118.9766" y2="424.082"/><text fill="#000000" font-family="sans-serif" font-size="14" lengthAdjust="spacing" textLength="98" x="59" y="116.0234">0x23cA..C179</text><ellipse cx="111" cy="50.9883" fill="#E2E2F0" rx="8" ry="8" style="stroke:#181818;stroke-width:0.5;"/><path d="M111,58.9883 L111,85.9883 M98,66.9883 L124,66.9883 M111,85.9883 L98,100.9883 M111,85.9883 L124,100.9883 " fill="none" style="stroke:#181818;stroke-width:0.5;"/><text fill="#000000" font-family="sans-serif" font-size="14" lengthAdjust="spacing" textLength="98" x="59" y="436.6172">0x23cA..C179</text><ellipse cx="111" cy="448.0703" fill="#E2E2F0" rx="8" ry="8" style="stroke:#181818;stroke-width:0.5;"/><path d="M111,456.0703 L111,483.0703 M98,464.0703 L124,464.0703 M111,483.0703 L98,498.0703 M111,483.0703 L124,498.0703 " fill="none" style="stroke:#181818;stroke-width:0.5;"/><rect fill="#E2E2F0" height="46.9766" rx="2.5" ry="2.5" style="stroke:#181818;stroke-width:0.5;" width="145" x="309.5" y="71"/><text fill="#000000" font-family="sans-serif" font-size="14" font-style="italic" lengthAdjust="spacing" textLength="131" x="316.5" y="91.5352">«PAaveIntegration»</text><text fill="#000000" font-family="sans-serif" font-size="14" lengthAdjust="spacing" textLength="94" x="335" y="108.0234">0xeab7..25c3</text><rect fill="#E2E2F0" height="46.9766" rx="2.5" ry="2.5" style="stroke:#181818;stroke-width:0.5;" width="145" x="309.5" y="423.082"/><text fill="#000000" font-family="sans-serif" font-size="14" font-style="italic" lengthAdjust="spacing" textLength="131" x="316.5" y="443.6172">«PAaveIntegration»</text><text fill="#000000" font-family="sans-serif" font-size="14" lengthAdjust="spacing" textLength="94" x="335" y="460.1055">0xeab7..25c3</text><rect fill="#E2E2F0" height="63.4648" rx="2.5" ry="2.5" style="stroke:#181818;stroke-width:0.5;" width="193" x="498.5" y="54.5117"/><text fill="#000000" font-family="sans-serif" font-size="14" font-style="italic" lengthAdjust="spacing" textLength="179" x="505.5" y="75.0469">«Aave Matic Market USDT»</text><text fill="#000000" font-family="sans-serif" font-size="14" font-style="italic" lengthAdjust="spacing" textLength="82" x="554" y="91.5352">«(amUSDT)»</text><text fill="#000000" font-family="sans-serif" font-size="14" lengthAdjust="spacing" textLength="100" x="545" y="108.0234">0x60D5..5CeC</text><rect fill="#E2E2F0" height="63.4648" rx="2.5" ry="2.5" style="stroke:#181818;stroke-width:0.5;" width="193" x="498.5" y="423.082"/><text fill="#000000" font-family="sans-serif" font-size="14" font-style="italic" lengthAdjust="spacing" textLength="179" x="505.5" y="443.6172">«Aave Matic Market USDT»</text><text fill="#000000" font-family="sans-serif" font-size="14" font-style="italic" lengthAdjust="spacing" textLength="82" x="554" y="460.1055">«(amUSDT)»</text><text fill="#000000" font-family="sans-serif" font-size="14" lengthAdjust="spacing" textLength="100" x="545" y="476.5938">0x60D5..5CeC</text><rect fill="#E2E2F0" height="46.9766" rx="2.5" ry="2.5" style="stroke:#181818;stroke-width:0.5;" width="111" x="736.5" y="71"/><text fill="#000000" font-family="sans-serif" font-size="14" font-style="italic" lengthAdjust="spacing" textLength="76" x="754" y="91.5352">«Collector»</text><text fill="#000000" font-family="sans-serif" font-size="14" lengthAdjust="spacing" textLength="97" x="743.5" y="108.0234">0x7734..39e9</text><rect fill="#E2E2F0" height="46.9766" rx="2.5" ry="2.5" style="stroke:#181818;stroke-width:0.5;" width="111" x="736.5" y="423.082"/><text fill="#000000" font-family="sans-serif" font-size="14" font-style="italic" lengthAdjust="spacing" textLength="76" x="754" y="443.6172">«Collector»</text><text fill="#000000" font-family="sans-serif" font-size="14" lengthAdjust="spacing" textLength="97" x="743.5" y="460.1055">0x7734..39e9</text><rect fill="#E2E2F0" height="63.4648" rx="2.5" ry="2.5" style="stroke:#181818;stroke-width:0.5;" width="180" x="984" y="54.5117"/><text fill="#000000" font-family="sans-serif" font-size="14" font-style="italic" lengthAdjust="spacing" textLength="166" x="991" y="75.0469">«Aave Matic Market DAI»</text><text fill="#000000" font-family="sans-serif" font-size="14" font-style="italic" lengthAdjust="spacing" textLength="69" x="1039.5" y="91.5352">«(amDAI)»</text><text fill="#000000" font-family="sans-serif" font-size="14" lengthAdjust="spacing" textLength="97" x="1025.5" y="108.0234">0x27F8..0A6e</text><rect fill="#E2E2F0" height="63.4648" rx="2.5" ry="2.5" style="stroke:#181818;stroke-width:0.5;" width="180" x="984" y="423.082"/><text fill="#000000" font-family="sans-serif" font-size="14" font-style="italic" lengthAdjust="spacing" textLength="166" x="991" y="443.6172">«Aave Matic Market DAI»</text><text fill="#000000" font-family="sans-serif" font-size="14" font-style="italic" lengthAdjust="spacing" textLength="69" x="1039.5" y="460.1055">«(amDAI)»</text><text fill="#000000" font-family="sans-serif" font-size="14" lengthAdjust="spacing" textLength="97" x="1025.5" y="476.5938">0x27F8..0A6e</text><polygon fill="#181818" points="370,146.2871,380,150.2871,370,154.2871,374,150.2871" style="stroke:#181818;stroke-width:1.0;"/><line style="stroke:#181818;stroke-width:1.0;" x1="111" x2="376" y1="150.2871" y2="150.2871"/><text fill="#000000" font-family="sans-serif" font-size="13" lengthAdjust="spacing" textLength="170" x="118" y="145.5449">Transfer 243.504511 USDT</text><ellipse cx="594.5" cy="178.8477" fill="none" rx="4" ry="4" style="stroke:#181818;stroke-width:1.5;"/><polygon fill="#181818" points="780,175.5977,790,179.5977,780,183.5977,784,179.5977" style="stroke:#181818;stroke-width:1.0;"/><line style="stroke:#181818;stroke-width:1.0;" x1="599" x2="786" y1="179.5977" y2="179.5977"/><text fill="#000000" font-family="sans-serif" font-size="13" lengthAdjust="spacing" textLength="173" x="602" y="174.8555">Transfer 0.133046 amUSDT</text><polygon fill="#181818" points="583,204.9082,593,208.9082,583,212.9082,587,208.9082" style="stroke:#181818;stroke-width:1.0;"/><line style="stroke:#181818;stroke-width:1.0;" x1="382" x2="589" y1="208.9082" y2="208.9082"/><text fill="#000000" font-family="sans-serif" font-size="13" lengthAdjust="spacing" textLength="170" x="389" y="204.166">Transfer 243.504511 USDT</text><polygon fill="#181818" points="393,234.2188,383,238.2188,393,242.2188,389,238.2188" style="stroke:#181818;stroke-width:1.0;"/><ellipse cx="594.5" cy="237.4688" fill="none" rx="4" ry="4" style="stroke:#181818;stroke-width:1.5;"/><line style="stroke:#181818;stroke-width:1.0;" x1="387" x2="590" y1="238.2188" y2="238.2188"/><text fill="#000000" font-family="sans-serif" font-size="13" lengthAdjust="spacing" textLength="189" x="399" y="233.4766">Transfer 243.504511 amUSDT</text><polygon fill="#181818" points="803,263.5293,793,267.5293,803,271.5293,799,267.5293" style="stroke:#181818;stroke-width:1.0;"/><ellipse cx="1073.5" cy="266.7793" fill="none" rx="4" ry="4" style="stroke:#181818;stroke-width:1.5;"/><line style="stroke:#181818;stroke-width:1.0;" x1="797" x2="1069" y1="267.5293" y2="267.5293"/><text fill="#000000" font-family="sans-serif" font-size="13" lengthAdjust="spacing" textLength="258" x="809" y="262.7871">Transfer 0.087144677270871666 amDAI</text><polygon fill="#181818" points="393,292.8398,383,296.8398,393,300.8398,389,296.8398" style="stroke:#181818;stroke-width:1.0;"/><line style="stroke:#181818;stroke-width:1.0;" x1="387" x2="1073" y1="296.8398" y2="296.8398"/><text fill="#000000" font-family="sans-serif" font-size="13" lengthAdjust="spacing" textLength="247" x="399" y="292.0977">Transfer 243.49791288972326292 DAI</text><line style="stroke:#181818;stroke-width:2.0;" x1="1056" x2="1066" y1="321.1504" y2="331.1504"/><line style="stroke:#181818;stroke-width:2.0;" x1="1056" x2="1066" y1="331.1504" y2="321.1504"/><line style="stroke:#181818;stroke-width:1.0;" x1="382" x2="1061" y1="326.1504" y2="326.1504"/><text fill="#000000" font-family="sans-serif" font-size="13" lengthAdjust="spacing" textLength="266" x="389" y="321.4082">Transfer 243.49791288972326292 amDAI</text><polygon fill="#181818" points="122,351.4609,112,355.4609,122,359.4609,118,355.4609" style="stroke:#181818;stroke-width:1.0;"/><line style="stroke:#181818;stroke-width:1.0;" x1="116" x2="381" y1="355.4609" y2="355.4609"/><text fill="#000000" font-family="sans-serif" font-size="13" lengthAdjust="spacing" textLength="247" x="128" y="350.7188">Transfer 243.49791288972326292 DAI</text><path d="M5,368.4609 L5,408.4609 L217,408.4609 L217,378.4609 L207,368.4609 L5,368.4609 " fill="#00FFFF" style="stroke:#181818;stroke-width:0.5;"/><path d="M207,368.4609 L207,378.4609 L217,378.4609 L207,368.4609 " fill="#00FFFF" style="stroke:#181818;stroke-width:0.5;"/><text fill="#000000" font-family="sans-serif" font-size="13" lengthAdjust="spacing" textLength="122" x="11" y="386.0293">-243.504511 USDT</text><text fill="#000000" font-family="sans-serif" font-size="13" lengthAdjust="spacing" textLength="191" x="11" y="401.3398">243.49791288972326292 DAI</text><path d="M262,368.4609 L262,408.4609 L501,408.4609 L501,378.4609 L491,368.4609 L262,368.4609 " fill="#00FFFF" style="stroke:#181818;stroke-width:0.5;"/><path d="M491,368.4609 L491,378.4609 L501,378.4609 L491,368.4609 " fill="#00FFFF" style="stroke:#181818;stroke-width:0.5;"/><text fill="#000000" font-family="sans-serif" font-size="13" lengthAdjust="spacing" textLength="133" x="268" y="386.0293">243.504511 amUSDT</text><text fill="#000000" font-family="sans-serif" font-size="13" lengthAdjust="spacing" textLength="218" x="268" y="401.3398">-243.49791288972326292 amDAI</text><path d="M527,368.4609 L527,393.4609 L662,393.4609 L662,378.4609 L652,368.4609 L527,368.4609 " fill="#00FFFF" style="stroke:#181818;stroke-width:0.5;"/><path d="M652,368.4609 L652,378.4609 L662,378.4609 L652,368.4609 " fill="#00FFFF" style="stroke:#181818;stroke-width:0.5;"/><text fill="#000000" font-family="sans-serif" font-size="13" lengthAdjust="spacing" textLength="114" x="533" y="386.0293">243.504511 USDT</text><path d="M680,368.4609 L680,408.4609 L903,408.4609 L903,378.4609 L893,368.4609 L680,368.4609 " fill="#00FFFF" style="stroke:#181818;stroke-width:0.5;"/><path d="M893,368.4609 L893,378.4609 L903,378.4609 L893,368.4609 " fill="#00FFFF" style="stroke:#181818;stroke-width:0.5;"/><text fill="#000000" font-family="sans-serif" font-size="13" lengthAdjust="spacing" textLength="117" x="686" y="386.0293">0.133046 amUSDT</text><text fill="#000000" font-family="sans-serif" font-size="13" lengthAdjust="spacing" textLength="202" x="686" y="401.3398">0.087144677270871666 amDAI</text><path d="M964,368.4609 L964,393.4609 L1184,393.4609 L1184,378.4609 L1174,368.4609 L964,368.4609 " fill="#00FFFF" style="stroke:#181818;stroke-width:0.5;"/><path d="M1174,368.4609 L1174,378.4609 L1184,378.4609 L1174,368.4609 " fill="#00FFFF" style="stroke:#181818;stroke-width:0.5;"/><text fill="#000000" font-family="sans-serif" font-size="13" lengthAdjust="spacing" textLength="199" x="970" y="386.0293">-243.49791288972326292 DAI</text><!--SRC=[ZLBRQXin47tNLmp9Imksgll5c0LZqv92853t0xHQEJ7PxhgRJN3_lf8tLepjE7aHCp3dp3bdrA_xEW3PLbO5iNAab48goOAr9PSk1C8q4ygNL6Xk0zD1LrfKbeMI6osv8IiQD0qE8Uys_RfjODFM_-xRPWHbtVf7u8OPOeaPmVBXUGJKma_N02EC0pKJoIR4me_R9NA-Rpku8bl6_GpZETNs2jmJnDRvs03QkAvV-_N6DNsQ2wxK63Ff-MukjQc1wVHkvbx2JTE7-yubIKLnZ5La8J6Myp3VOHMffFJ1Hso2mcs4-VXsZw67txyMowAOJh-uFwdyUigcDHSOntW6nQbDJMIRjtKTah5J4DFV3SPafi9WKwyCSIgSbR2OtRmgY5KIW78guo8xdy2oSytJAdJ01CUI24dfJZxA1jiulzTtC4ymvPm81OD7bCECutliP-alotbTaEs-AuWOJOLGMZETIgMIk6Z_3Vh-Bc6rfSmOgnbdYbcM4ZmmjSrnVmWSTXxciO_-KpiHQje-kdn9K_kRNRk_pmwDZrEyeBof8F4Wz0tU-BAeWUyqvF55IsSvyoLFE8T_SHQKF_m0ElvC5svvdYzV-22e3uBv3m00]--></g></svg>