<?xml version="1.0" encoding="us-ascii" standalone="no"?><svg xmlns:xlink="http://www.w3.org/1999/xlink" xmlns="http://www.w3.org/2000/svg" contentStyleType="text/css" height="518px" preserveAspectRatio="none" style="width:715px;height:518px;background:#FFFFFF;" version="1.1" viewBox="0 0 715 518" width="715px" zoomAndPan="magnify"><defs/><g><text fill="#000000" font-family="sans-serif" font-size="14" font-weight="bold" lengthAdjust="spacing" textLength="552" x="80.75" y="28.5352">0x3cf8fd116d366bcf3e3fc7e8e03e87a22fb644fef31594811dfe9e6b10b5dbf8</text><text fill="#000000" font-family="sans-serif" font-size="14" lengthAdjust="spacing" textLength="407" x="153.25" y="506.082">mainnet, block 18171607, Tue, 19 Sep 2023 18:01:23 GMT</text><line style="stroke:#181818;stroke-width:0.5;stroke-dasharray:5.0,5.0;" x1="74" x2="74" y1="135.4648" y2="398.5703"/><line style="stroke:#181818;stroke-width:0.5;stroke-dasharray:5.0,5.0;" x1="262.5" x2="262.5" y1="135.4648" y2="398.5703"/><line style="stroke:#181818;stroke-width:0.5;stroke-dasharray:5.0,5.0;" x1="450" x2="450" y1="135.4648" y2="398.5703"/><line style="stroke:#181818;stroke-width:0.5;stroke-dasharray:5.0,5.0;" x1="638.5" x2="638.5" y1="135.4648" y2="398.5703"/><text fill="#000000" font-family="sans-serif" font-size="14" lengthAdjust="spacing" textLength="99" x="22" y="132.5117">0x4575..C889</text><ellipse cx="74.5" cy="67.4766" fill="#E2E2F0" rx="8" ry="8" style="stroke:#181818;stroke-width:0.5;"/><path d="M74.5,75.4766 L74.5,102.4766 M61.5,83.4766 L87.5,83.4766 M74.5,102.4766 L61.5,117.4766 M74.5,102.4766 L87.5,117.4766 " fill="none" style="stroke:#181818;stroke-width:0.5;"/><text fill="#000000" font-family="sans-serif" font-size="14" lengthAdjust="spacing" textLength="99" x="22" y="411.1055">0x4575..C889</text><ellipse cx="74.5" cy="422.5586" fill="#E2E2F0" rx="8" ry="8" style="stroke:#181818;stroke-width:0.5;"/><path d="M74.5,430.5586 L74.5,457.5586 M61.5,438.5586 L87.5,438.5586 M74.5,457.5586 L61.5,472.5586 M74.5,457.5586 L87.5,472.5586 " fill="none" style="stroke:#181818;stroke-width:0.5;"/><rect fill="#E2E2F0" height="46.9766" rx="2.5" ry="2.5" style="stroke:#181818;stroke-width:0.5;" width="134" x="195.5" y="87.4883"/><text fill="#000000" font-family="sans-serif" font-size="14" font-style="italic" lengthAdjust="spacing" textLength="120" x="202.5" y="108.0234">&#171;ElementModule&#187;</text><text fill="#000000" font-family="sans-serif" font-size="14" lengthAdjust="spacing" textLength="97" x="214" y="124.5117">0x5d92..E0b4</text><rect fill="#E2E2F0" height="46.9766" rx="2.5" ry="2.5" style="stroke:#181818;stroke-width:0.5;" width="134" x="195.5" y="397.5703"/><text fill="#000000" font-family="sans-serif" font-size="14" font-style="italic" lengthAdjust="spacing" textLength="120" x="202.5" y="418.1055">&#171;ElementModule&#187;</text><text fill="#000000" font-family="sans-serif" font-size="14" lengthAdjust="spacing" textLength="97" x="214" y="434.5938">0x5d92..E0b4</text><text fill="#000000" font-family="sans-serif" font-size="14" font-style="italic" lengthAdjust="spacing" textLength="82" x="406.5" y="116.0234">&#171;(ireth.eth)&#187;</text><text fill="#000000" font-family="sans-serif" font-size="14" lengthAdjust="spacing" textLength="95" x="400" y="132.5117">0xedB6..BF7D</text><ellipse cx="450.5" cy="50.9883" fill="#E2E2F0" rx="8" ry="8" style="stroke:#181818;stroke-width:0.5;"/><path d="M450.5,58.9883 L450.5,85.9883 M437.5,66.9883 L463.5,66.9883 M450.5,85.9883 L437.5,100.9883 M450.5,85.9883 L463.5,100.9883 " fill="none" style="stroke:#181818;stroke-width:0.5;"/><text fill="#000000" font-family="sans-serif" font-size="14" font-style="italic" lengthAdjust="spacing" textLength="82" x="406.5" y="411.1055">&#171;(ireth.eth)&#187;</text><text fill="#000000" font-family="sans-serif" font-size="14" lengthAdjust="spacing" textLength="95" x="400" y="427.5938">0xedB6..BF7D</text><ellipse cx="450.5" cy="439.0469" fill="#E2E2F0" rx="8" ry="8" style="stroke:#181818;stroke-width:0.5;"/><path d="M450.5,447.0469 L450.5,474.0469 M437.5,455.0469 L463.5,455.0469 M450.5,474.0469 L437.5,489.0469 M450.5,474.0469 L463.5,489.0469 " fill="none" style="stroke:#181818;stroke-width:0.5;"/><rect fill="#E2E2F0" height="46.9766" rx="2.5" ry="2.5" style="stroke:#181818;stroke-width:0.5;" width="142" x="567.5" y="87.4883"/><text fill="#000000" font-family="sans-serif" font-size="14" font-style="italic" lengthAdjust="spacing" textLength="128" x="574.5" y="108.0234">&#171;GnosisSafeProxy&#187;</text><text fill="#000000" font-family="sans-serif" font-size="14" lengthAdjust="spacing" textLength="96" x="590.5" y="124.5117">0x00cA..75F3</text><rect fill="#E2E2F0" height="46.9766" rx="2.5" ry="2.5" style="stroke:#181818;stroke-width:0.5;" width="142" x="567.5" y="397.5703"/><text fill="#000000" font-family="sans-serif" font-size="14" font-style="italic" lengthAdjust="spacing" textLength="128" x="574.5" y="418.1055">&#171;GnosisSafeProxy&#187;</text><text fill="#000000" font-family="sans-serif" font-size="14" lengthAdjust="spacing" textLength="96" x="590.5" y="434.5938">0x00cA..75F3</text><polygon fill="#181818" points="250.5,178.0859,260.5,182.0859,250.5,186.0859,254.5,182.0859" style="stroke:#181818;stroke-width:1.0;"/><line style="stroke:#181818;stroke-width:1.0;" x1="74.5" x2="256.5" y1="182.0859" y2="182.0859"/><text fill="#000000" font-family="sans-serif" font-size="13" lengthAdjust="spacing" textLength="132" x="81.5" y="162.0332">TransferSingle 1 ZGC</text><text fill="#000000" font-family="sans-serif" font-size="13" lengthAdjust="spacing" textLength="24" x="81.5" y="177.3438">id 3</text><polygon fill="#181818" points="273.5,207.3965,263.5,211.3965,273.5,215.3965,269.5,211.3965" style="stroke:#181818;stroke-width:1.0;"/><line style="stroke:#181818;stroke-width:1.0;" x1="267.5" x2="449.5" y1="211.3965" y2="211.3965"/><text fill="#000000" font-family="sans-serif" font-size="13" lengthAdjust="spacing" textLength="164" x="279.5" y="206.6543">Transfer 0.0176115 WETH</text><polygon fill="#181818" points="438.5,252.0176,448.5,256.0176,438.5,260.0176,442.5,256.0176" style="stroke:#181818;stroke-width:1.0;"/><line style="stroke:#181818;stroke-width:1.0;" x1="262.5" x2="444.5" y1="256.0176" y2="256.0176"/><text fill="#000000" font-family="sans-serif" font-size="13" lengthAdjust="spacing" textLength="132" x="269.5" y="235.9648">TransferSingle 1 ZGC</text><text fill="#000000" font-family="sans-serif" font-size="13" lengthAdjust="spacing" textLength="24" x="269.5" y="251.2754">id 3</text><polygon fill="#181818" points="626.5,281.3281,636.5,285.3281,626.5,289.3281,630.5,285.3281" style="stroke:#181818;stroke-width:1.0;"/><line style="stroke:#181818;stroke-width:1.0;" x1="450.5" x2="632.5" y1="285.3281" y2="285.3281"/><text fill="#000000" font-family="sans-serif" font-size="13" lengthAdjust="spacing" textLength="164" x="457.5" y="280.5859">Transfer 0.0000885 WETH</text><polygon fill="#181818" points="85.5,310.6387,75.5,314.6387,85.5,318.6387,81.5,314.6387" style="stroke:#181818;stroke-width:1.0;"/><line style="stroke:#181818;stroke-width:1.0;" x1="79.5" x2="261.5" y1="314.6387" y2="314.6387"/><text fill="#000000" font-family="sans-serif" font-size="13" lengthAdjust="spacing" textLength="164" x="91.5" y="309.8965">Transfer 0.0176115 WETH</text><path d="M5,327.6387 L5,382.6387 L144,382.6387 L144,337.6387 L134,327.6387 L5,327.6387 " fill="#00FFFF" style="stroke:#181818;stroke-width:0.5;"/><path d="M134,327.6387 L134,337.6387 L144,337.6387 L134,327.6387 " fill="#00FFFF" style="stroke:#181818;stroke-width:0.5;"/><text fill="#000000" font-family="sans-serif" font-size="13" lengthAdjust="spacing" textLength="26" x="11" y="345.207">ZGC</text><text fill="#000000" font-family="sans-serif" font-size="13" lengthAdjust="spacing" textLength="44" x="23" y="360.5176">-1 id 3</text><text fill="#000000" font-family="sans-serif" font-size="13" lengthAdjust="spacing" textLength="118" x="11" y="375.8281">+0.0176115 WETH</text><path d="M394,327.6387 L394,382.6387 L507,382.6387 L507,337.6387 L497,327.6387 L394,327.6387 " fill="#00FFFF" style="stroke:#181818;stroke-width:0.5;"/><path d="M497,327.6387 L497,337.6387 L507,337.6387 L497,327.6387 " fill="#00FFFF" style="stroke:#181818;stroke-width:0.5;"/><text fill="#000000" font-family="sans-serif" font-size="13" lengthAdjust="spacing" textLength="92" x="400" y="345.207">-0.0177 WETH</text><text fill="#000000" font-family="sans-serif" font-size="13" lengthAdjust="spacing" textLength="26" x="400" y="360.5176">ZGC</text><text fill="#000000" font-family="sans-serif" font-size="13" lengthAdjust="spacing" textLength="46" x="412" y="375.8281">+1 id 3</text><path d="M569,327.6387 L569,352.6387 L708,352.6387 L708,337.6387 L698,327.6387 L569,327.6387 " fill="#00FFFF" style="stroke:#181818;stroke-width:0.5;"/><path d="M698,327.6387 L698,337.6387 L708,337.6387 L698,327.6387 " fill="#00FFFF" style="stroke:#181818;stroke-width:0.5;"/><text fill="#000000" font-family="sans-serif" font-size="13" lengthAdjust="spacing" textLength="118" x="575" y="345.207">+0.0000885 WETH</text><!--SRC=[ZP5HQzim58NVzIiksSj64asoR4aE9R1sQVfI62Gm67kHfQlDB9KpHndTlv_iD2eB6SnWy47dE_TSERPnXp1Xpy9wxHtdqWaf6-i52cyLQcG2jJ95uHjPbXwzu5LTQiwTnnfbmrbJkSRh2I7Mx6FR1NWoRGWOPz3iEli3kEQAIwPci3tY37WD6zn3mGgHZXQCBzB7-d5BZ8rTFrGfArLHUgTrFG5pW47Q983iJHzRs-vDY8ElSdL1wOervUWR92O1DpUh7JvXY8-TE-vmkNoDHdShARszLnz715qZ6wzSGjwsFSRlDBtl4d0nYJ7xWL9LtOiHIzAeoek4hKDtQ0yRu_5Jtpt_JYZ9VUVBt6a1szw4WyT-quPlwSOvV5dVVGsj0q5oYwi0CCguafnNy7crVI1vpUG-a_yTVsx-TtnwjBuIVzxatsK82Lr4w7wbexpt6_FpQ4WgG01Wpc5iCRqWCJWOM4BUmsj6ddxAk6xA2vrCyp5PdM9VfavVfbuFoF_l532zk88C_G40]--></g></svg>
