<?xml version="1.0" encoding="us-ascii" standalone="no"?><svg xmlns:xlink="http://www.w3.org/1999/xlink" xmlns="http://www.w3.org/2000/svg" contentStyleType="text/css" height="404px" preserveAspectRatio="none" style="width:598px;height:404px;background:#FFFFFF;" version="1.1" viewBox="0 0 598 404" width="598px" zoomAndPan="magnify"><defs/><g><text fill="#000000" font-family="sans-serif" font-size="14" font-weight="bold" lengthAdjust="spacing" textLength="570" x="10" y="28.5352">0xe5e35ee13bb6326df4da89f17504a81923299d4986de06a019ca7856cbe76bca</text><text fill="#000000" font-family="sans-serif" font-size="14" lengthAdjust="spacing" textLength="402" x="94" y="392.793">mainnet, block 9548578, Mon, 24 Feb 2020 21:30:47 GMT</text><line style="stroke:#181818;stroke-width:0.5;stroke-dasharray:5.0,5.0;" x1="147.25" x2="147.25" y1="123.4414" y2="297.3047"/><line style="stroke:#181818;stroke-width:0.5;stroke-dasharray:5.0,5.0;" x1="442.75" x2="442.75" y1="123.4414" y2="297.3047"/><rect fill="#E2E2F0" height="79.9531" rx="2.5" ry="2.5" style="stroke:#181818;stroke-width:0.5;" width="243" x="26.25" y="42.4883"/><text fill="#000000" font-family="sans-serif" font-size="14" font-style="italic" lengthAdjust="spacing" textLength="94" x="100.75" y="63.0234">&#171;Uniswap V1&#187;</text><text fill="#000000" font-family="sans-serif" font-size="14" font-style="italic" lengthAdjust="spacing" textLength="74" x="110.75" y="79.5117">&#171;(UNI-V1)&#187;</text><text fill="#000000" font-family="sans-serif" font-size="14" font-style="italic" lengthAdjust="spacing" textLength="229" x="33.25" y="96">&#171;Uniswap Exchange Interface V1&#187;</text><text fill="#000000" font-family="sans-serif" font-size="14" lengthAdjust="spacing" textLength="98" x="98.75" y="112.4883">0x2C4B..0957</text><rect fill="#E2E2F0" height="79.9531" rx="2.5" ry="2.5" style="stroke:#181818;stroke-width:0.5;" width="243" x="26.25" y="296.3047"/><text fill="#000000" font-family="sans-serif" font-size="14" font-style="italic" lengthAdjust="spacing" textLength="94" x="100.75" y="316.8398">&#171;Uniswap V1&#187;</text><text fill="#000000" font-family="sans-serif" font-size="14" font-style="italic" lengthAdjust="spacing" textLength="74" x="110.75" y="333.3281">&#171;(UNI-V1)&#187;</text><text fill="#000000" font-family="sans-serif" font-size="14" font-style="italic" lengthAdjust="spacing" textLength="229" x="33.25" y="349.8164">&#171;Uniswap Exchange Interface V1&#187;</text><text fill="#000000" font-family="sans-serif" font-size="14" lengthAdjust="spacing" textLength="98" x="98.75" y="366.3047">0x2C4B..0957</text><text fill="#000000" font-family="sans-serif" font-size="14" lengthAdjust="spacing" textLength="100" x="389.75" y="120.4883">0x7A39..D042</text><ellipse cx="442.75" cy="55.4531" fill="#E2E2F0" rx="8" ry="8" style="stroke:#181818;stroke-width:0.5;"/><path d="M442.75,63.4531 L442.75,90.4531 M429.75,71.4531 L455.75,71.4531 M442.75,90.4531 L429.75,105.4531 M442.75,90.4531 L455.75,105.4531 " fill="none" style="stroke:#181818;stroke-width:0.5;"/><text fill="#000000" font-family="sans-serif" font-size="14" lengthAdjust="spacing" textLength="100" x="389.75" y="309.8398">0x7A39..D042</text><ellipse cx="442.75" cy="321.293" fill="#E2E2F0" rx="8" ry="8" style="stroke:#181818;stroke-width:0.5;"/><path d="M442.75,329.293 L442.75,356.293 M429.75,337.293 L455.75,337.293 M442.75,356.293 L429.75,371.293 M442.75,356.293 L455.75,371.293 " fill="none" style="stroke:#181818;stroke-width:0.5;"/><polygon fill="#181818" points="430.75,150.752,440.75,154.752,430.75,158.752,434.75,154.752" style="stroke:#181818;stroke-width:1.0;"/><line style="stroke:#181818;stroke-width:1.0;" x1="147.75" x2="436.75" y1="154.752" y2="154.752"/><text fill="#000000" font-family="sans-serif" font-size="13" lengthAdjust="spacing" textLength="193" x="154.75" y="150.0098">69.746325185294574661 ETH</text><polygon fill="#181818" points="430.75,180.0625,440.75,184.0625,430.75,188.0625,434.75,184.0625" style="stroke:#181818;stroke-width:1.0;"/><line style="stroke:#181818;stroke-width:1.0;" x1="147.75" x2="436.75" y1="184.0625" y2="184.0625"/><text fill="#000000" font-family="sans-serif" font-size="13" lengthAdjust="spacing" textLength="251" x="154.75" y="179.3203">Transfer 29.074911588632574683 MKR</text><line style="stroke:#181818;stroke-width:2.0;" x1="154.75" x2="164.75" y1="208.373" y2="218.373"/><line style="stroke:#181818;stroke-width:2.0;" x1="154.75" x2="164.75" y1="218.373" y2="208.373"/><line style="stroke:#181818;stroke-width:1.0;" x1="159.75" x2="441.75" y1="213.373" y2="213.373"/><text fill="#000000" font-family="sans-serif" font-size="13" lengthAdjust="spacing" textLength="271" x="164.75" y="208.6309">Transfer 70.650110457930182639 UNI-V1</text><path d="M35.25,226.373 L35.25,266.373 L259.25,266.373 L259.25,236.373 L249.25,226.373 L35.25,226.373 " fill="#00FFFF" style="stroke:#181818;stroke-width:0.5;"/><path d="M249.25,226.373 L249.25,236.373 L259.25,236.373 L249.25,226.373 " fill="#00FFFF" style="stroke:#181818;stroke-width:0.5;"/><text fill="#000000" font-family="sans-serif" font-size="13" lengthAdjust="spacing" textLength="201" x="41.25" y="243.9414">-69.746325185294574661 ETH</text><text fill="#000000" font-family="sans-serif" font-size="13" lengthAdjust="spacing" textLength="203" x="41.25" y="259.252">-29.074911588632574683 MKR</text><path d="M320.25,226.373 L320.25,281.373 L564.25,281.373 L564.25,236.373 L554.25,226.373 L320.25,226.373 " fill="#00FFFF" style="stroke:#181818;stroke-width:0.5;"/><path d="M554.25,226.373 L554.25,236.373 L564.25,236.373 L554.25,226.373 " fill="#00FFFF" style="stroke:#181818;stroke-width:0.5;"/><text fill="#000000" font-family="sans-serif" font-size="13" lengthAdjust="spacing" textLength="203" x="326.25" y="243.9414">+69.746325185294574661 ETH</text><text fill="#000000" font-family="sans-serif" font-size="13" lengthAdjust="spacing" textLength="205" x="326.25" y="259.252">+29.074911588632574683 MKR</text><text fill="#000000" font-family="sans-serif" font-size="13" lengthAdjust="spacing" textLength="223" x="326.25" y="274.5625">-70.650110457930182639 UNI-V1</text><!--SRC=[VP1BJyCm48Jl_XMhSW7H1ByVLLM9DnKg1rHwtpWkH81JKWFz-IH512xXvlLwlfbngj9BW17T1HM42e69ej22wt8jIxHkpOoY4YrpN73dIkciBWFLI9dpQApIlWX65nv7X7ZSfAgEy8fLZ26DeNYf_JCu9QqoTWoBEew1IxWA1N3AAN0s4NGY3LmlbcI3JQfyjS6OkZpyN9xbENNAZ02tmBqikW6cquTORJzn0oiscqsdXmztysp5Zhhpp-PovvymFWQOnnIQDVgmVqpGfxhfuEPKk3o_e9BluGQ5Azi12Ebzibb_FG7GBZUo_HV5hE9EgdRG32wNDmE2PODnkmuDS9TJ8nrZojfEtmgjWCNjFUbDirtVxe_Gq5mhoXXjpPoWp78j77oN9OJ4EWMeFpg7dm07-FQE91kEcWs72R643ad82VoY-uZVwEDXzF4mElktIM_y1G00]--></g></svg>
