<?xml version="1.0" encoding="UTF-8" standalone="no"?><svg xmlns="http://www.w3.org/2000/svg" xmlns:xlink="http://www.w3.org/1999/xlink" contentStyleType="text/css" height="481px" preserveAspectRatio="none" style="width:668px;height:481px;background:#FFFFFF;" version="1.1" viewBox="0 0 668 481" width="668px" zoomAndPan="magnify"><defs/><g><text fill="#000000" font-family="sans-serif" font-size="14" font-weight="bold" lengthAdjust="spacing" textLength="544" x="60.75" y="28.5352">0xafc8b33fd096bffaaec0c75f4fad0fc8815bc906761a44a8db72d8aea3c9fec6</text><text fill="#000000" font-family="sans-serif" font-size="14" lengthAdjust="spacing" textLength="347" x="159.25" y="469.4844">block 16717449, Mon, 27 Feb 2023 05:27:59 GMT</text><line style="stroke:#181818;stroke-width:0.5;stroke-dasharray:5.0,5.0;" x1="115" x2="115" y1="118.9766" y2="378.4609"/><line style="stroke:#181818;stroke-width:0.5;stroke-dasharray:5.0,5.0;" x1="230" x2="230" y1="118.9766" y2="378.4609"/><line style="stroke:#181818;stroke-width:0.5;stroke-dasharray:5.0,5.0;" x1="374.5" x2="374.5" y1="118.9766" y2="378.4609"/><line style="stroke:#181818;stroke-width:0.5;stroke-dasharray:5.0,5.0;" x1="547" x2="547" y1="118.9766" y2="378.4609"/><text fill="#000000" font-family="sans-serif" font-size="14" lengthAdjust="spacing" textLength="94" x="65" y="116.0234">0xFc55..820F</text><ellipse cx="115" cy="50.9883" fill="#E2E2F0" rx="8" ry="8" style="stroke:#181818;stroke-width:0.5;"/><path d="M115,58.9883 L115,85.9883 M102,66.9883 L128,66.9883 M115,85.9883 L102,100.9883 M115,85.9883 L128,100.9883 " fill="none" style="stroke:#181818;stroke-width:0.5;"/><text fill="#000000" font-family="sans-serif" font-size="14" lengthAdjust="spacing" textLength="94" x="65" y="390.9961">0xFc55..820F</text><ellipse cx="115" cy="402.4492" fill="#E2E2F0" rx="8" ry="8" style="stroke:#181818;stroke-width:0.5;"/><path d="M115,410.4492 L115,437.4492 M102,418.4492 L128,418.4492 M115,437.4492 L102,452.4492 M115,437.4492 L128,452.4492 " fill="none" style="stroke:#181818;stroke-width:0.5;"/><rect fill="#E2E2F0" height="30.4883" rx="2.5" ry="2.5" style="stroke:#181818;stroke-width:0.5;" width="102" x="179" y="87.4883"/><text fill="#000000" font-family="sans-serif" font-size="14" lengthAdjust="spacing" textLength="88" x="186" y="108.0234">0xEf1c..BF6B</text><rect fill="#E2E2F0" height="30.4883" rx="2.5" ry="2.5" style="stroke:#181818;stroke-width:0.5;" width="102" x="179" y="377.4609"/><text fill="#000000" font-family="sans-serif" font-size="14" lengthAdjust="spacing" textLength="88" x="186" y="397.9961">0xEf1c..BF6B</text><rect fill="#E2E2F0" height="63.4648" rx="2.5" ry="2.5" style="stroke:#181818;stroke-width:0.5;" width="129" x="310.5" y="54.5117"/><text fill="#000000" font-family="sans-serif" font-size="14" font-style="italic" lengthAdjust="spacing" textLength="115" x="317.5" y="75.0469">«Wrapped Ether»</text><text fill="#000000" font-family="sans-serif" font-size="14" font-style="italic" lengthAdjust="spacing" textLength="63" x="343.5" y="91.5352">«(WETH)»</text><text fill="#000000" font-family="sans-serif" font-size="14" lengthAdjust="spacing" textLength="97" x="326.5" y="108.0234">0xC02a..6Cc2</text><rect fill="#E2E2F0" height="63.4648" rx="2.5" ry="2.5" style="stroke:#181818;stroke-width:0.5;" width="129" x="310.5" y="377.4609"/><text fill="#000000" font-family="sans-serif" font-size="14" font-style="italic" lengthAdjust="spacing" textLength="115" x="317.5" y="397.9961">«Wrapped Ether»</text><text fill="#000000" font-family="sans-serif" font-size="14" font-style="italic" lengthAdjust="spacing" textLength="63" x="343.5" y="414.4844">«(WETH)»</text><text fill="#000000" font-family="sans-serif" font-size="14" lengthAdjust="spacing" textLength="97" x="326.5" y="430.9727">0xC02a..6Cc2</text><rect fill="#E2E2F0" height="30.4883" rx="2.5" ry="2.5" style="stroke:#181818;stroke-width:0.5;" width="109" x="493" y="87.4883"/><text fill="#000000" font-family="sans-serif" font-size="14" lengthAdjust="spacing" textLength="95" x="500" y="108.0234">0x701B..3E8B</text><rect fill="#E2E2F0" height="30.4883" rx="2.5" ry="2.5" style="stroke:#181818;stroke-width:0.5;" width="109" x="493" y="377.4609"/><text fill="#000000" font-family="sans-serif" font-size="14" lengthAdjust="spacing" textLength="95" x="500" y="397.9961">0x701B..3E8B</text><polygon fill="#181818" points="218,146.2871,228,150.2871,218,154.2871,222,150.2871" style="stroke:#181818;stroke-width:1.0;"/><line style="stroke:#181818;stroke-width:1.0;" x1="115" x2="224" y1="150.2871" y2="150.2871"/><text fill="#000000" font-family="sans-serif" font-size="13" lengthAdjust="spacing" textLength="57" x="122" y="145.5449">0.35 ETH</text><polygon fill="#181818" points="363,175.5977,373,179.5977,363,183.5977,367,179.5977" style="stroke:#181818;stroke-width:1.0;"/><line style="stroke:#181818;stroke-width:1.0;" x1="230" x2="369" y1="179.5977" y2="179.5977"/><text fill="#000000" font-family="sans-serif" font-size="13" lengthAdjust="spacing" textLength="57" x="237" y="174.8555">0.35 ETH</text><polygon fill="#181818" points="241,204.9082,231,208.9082,241,212.9082,237,208.9082" style="stroke:#181818;stroke-width:1.0;"/><ellipse cx="374.5" cy="208.1582" fill="none" rx="4" ry="4" style="stroke:#181818;stroke-width:1.5;"/><line style="stroke:#181818;stroke-width:1.0;" x1="235" x2="370" y1="208.9082" y2="208.9082"/><text fill="#000000" font-family="sans-serif" font-size="13" lengthAdjust="spacing" textLength="121" x="247" y="204.166">Deposit 0.35 WETH</text><line style="stroke:#181818;stroke-width:1.0;" x1="230" x2="272" y1="238.2188" y2="238.2188"/><line style="stroke:#181818;stroke-width:1.0;" x1="272" x2="272" y1="238.2188" y2="251.2188"/><line style="stroke:#181818;stroke-width:1.0;" x1="231" x2="272" y1="251.2188" y2="251.2188"/><polygon fill="#181818" points="241,247.2188,231,251.2188,241,255.2188,237,251.2188" style="stroke:#181818;stroke-width:1.0;"/><text fill="#000000" font-family="sans-serif" font-size="13" lengthAdjust="spacing" textLength="124" x="237" y="233.4766">Transfer 0.35 WETH</text><polygon fill="#181818" points="126,276.5293,116,280.5293,126,284.5293,122,280.5293" style="stroke:#181818;stroke-width:1.0;"/><line style="stroke:#181818;stroke-width:1.0;" x1="120" x2="546.5" y1="280.5293" y2="280.5293"/><text fill="#000000" font-family="sans-serif" font-size="13" lengthAdjust="spacing" textLength="255" x="132" y="275.7871">Transfer 207.849013441177659501 XFT</text><polygon fill="#181818" points="535.5,305.8398,545.5,309.8398,535.5,313.8398,539.5,309.8398" style="stroke:#181818;stroke-width:1.0;"/><line style="stroke:#181818;stroke-width:1.0;" x1="230" x2="541.5" y1="309.8398" y2="309.8398"/><text fill="#000000" font-family="sans-serif" font-size="13" lengthAdjust="spacing" textLength="124" x="237" y="305.0977">Transfer 0.35 WETH</text><path d="M5,322.8398 L5,362.8398 L225,362.8398 L225,332.8398 L215,322.8398 L5,322.8398 " fill="#00FFFF" style="stroke:#181818;stroke-width:0.5;"/><path d="M215,322.8398 L215,332.8398 L225,332.8398 L215,322.8398 " fill="#00FFFF" style="stroke:#181818;stroke-width:0.5;"/><text fill="#000000" font-family="sans-serif" font-size="13" lengthAdjust="spacing" textLength="65" x="11" y="340.4082">-0.35 ETH</text><text fill="#000000" font-family="sans-serif" font-size="13" lengthAdjust="spacing" textLength="199" x="11" y="355.7188">207.849013441177659501 XFT</text><path d="M326,322.8398 L326,362.8398 L423,362.8398 L423,332.8398 L413,322.8398 L326,322.8398 " fill="#00FFFF" style="stroke:#181818;stroke-width:0.5;"/><path d="M413,322.8398 L413,332.8398 L423,332.8398 L413,322.8398 " fill="#00FFFF" style="stroke:#181818;stroke-width:0.5;"/><text fill="#000000" font-family="sans-serif" font-size="13" lengthAdjust="spacing" textLength="57" x="332" y="340.4082">0.35 ETH</text><text fill="#000000" font-family="sans-serif" font-size="13" lengthAdjust="spacing" textLength="76" x="332" y="355.7188">-0.35 WETH</text><path d="M433,322.8398 L433,362.8398 L661,362.8398 L661,332.8398 L651,322.8398 L433,322.8398 " fill="#00FFFF" style="stroke:#181818;stroke-width:0.5;"/><path d="M651,322.8398 L651,332.8398 L661,332.8398 L651,322.8398 " fill="#00FFFF" style="stroke:#181818;stroke-width:0.5;"/><text fill="#000000" font-family="sans-serif" font-size="13" lengthAdjust="spacing" textLength="207" x="439" y="340.4082">-207.849013441177659501 XFT</text><text fill="#000000" font-family="sans-serif" font-size="13" lengthAdjust="spacing" textLength="68" x="439" y="355.7188">0.35 WETH</text><!--SRC=[VP0nJyCm58Ht_ugdie14ZUt4Tb9L6GeDBDqgbVNPiKK4Ia9g43yVjwMcGCLuUL_kpXVQyEA0VQ2tXSaotx1I6UyHdMLMIvzxR5Yy5LmQMpAb5SSynw8nMZG5EiniwPrLnE8Gshu3yzBRP-1ASvtdvJMi-kuQX8RQ6H1CPC3aJEYPBE5-jIPeGp_2X7tKLafA2y7g2U0MV9HHU203Zg6rxO1Ts75BposbYrejzfoBqdXb_d2tJ22bwjQAFMUZLDOAcCyt8mw3Qs0PdjnOLVFvvMQvVhYggjyMcl45fTcoE4H5QJ9Nn2YIsashr606m6Wc8NgHr2hUZycdzzIc_s5mvuP-suO3j_bjzCsjH-osteqdO2eNmMEx4r0mJOkyP3pBSywrLhAKZCDZlVuHSNGv6q58rmS7_NlycWQumDSt9DFqil-2kWPs3eJSmBTJYZyudOVINWSefKrFbZhxOvhbg-S_zSvOVG80]--></g></svg>