<?xml version="1.0" encoding="UTF-8" standalone="no"?><svg xmlns="http://www.w3.org/2000/svg" xmlns:xlink="http://www.w3.org/1999/xlink" contentStyleType="text/css" height="481px" preserveAspectRatio="none" style="width:672px;height:481px;background:#FFFFFF;" version="1.1" viewBox="0 0 672 481" width="672px" zoomAndPan="magnify"><defs/><g><text fill="#000000" font-family="sans-serif" font-size="14" font-weight="bold" lengthAdjust="spacing" textLength="544" x="62.75" y="28.5352">0xafc8b33fd096bffaaec0c75f4fad0fc8815bc906761a44a8db72d8aea3c9fec6</text><text fill="#000000" font-family="sans-serif" font-size="14" lengthAdjust="spacing" textLength="411" x="129.25" y="469.4844">mainnet, block 16717449, Mon, 27 Feb 2023 05:27:59 GMT</text><line style="stroke:#181818;stroke-width:0.5;stroke-dasharray:5.0,5.0;" x1="115" x2="115" y1="118.9766" y2="378.4609"/><line style="stroke:#181818;stroke-width:0.5;stroke-dasharray:5.0,5.0;" x1="243" x2="243" y1="118.9766" y2="378.4609"/><line style="stroke:#181818;stroke-width:0.5;stroke-dasharray:5.0,5.0;" x1="388" x2="388" y1="118.9766" y2="378.4609"/><line style="stroke:#181818;stroke-width:0.5;stroke-dasharray:5.0,5.0;" x1="551.5" x2="551.5" y1="118.9766" y2="378.4609"/><text fill="#000000" font-family="sans-serif" font-size="14" lengthAdjust="spacing" textLength="94" x="65" y="116.0234">0xFc55..820F</text><ellipse cx="115" cy="50.9883" fill="#E2E2F0" rx="8" ry="8" style="stroke:#181818;stroke-width:0.5;"/><path d="M115,58.9883 L115,85.9883 M102,66.9883 L128,66.9883 M115,85.9883 L102,100.9883 M115,85.9883 L128,100.9883 " fill="none" style="stroke:#181818;stroke-width:0.5;"/><text fill="#000000" font-family="sans-serif" font-size="14" lengthAdjust="spacing" textLength="94" x="65" y="390.9961">0xFc55..820F</text><ellipse cx="115" cy="402.4492" fill="#E2E2F0" rx="8" ry="8" style="stroke:#181818;stroke-width:0.5;"/><path d="M115,410.4492 L115,437.4492 M102,418.4492 L128,418.4492 M115,437.4492 L102,452.4492 M115,437.4492 L128,452.4492 " fill="none" style="stroke:#181818;stroke-width:0.5;"/><rect fill="#E2E2F0" height="46.9766" rx="2.5" ry="2.5" style="stroke:#181818;stroke-width:0.5;" width="137" x="175" y="71"/><text fill="#000000" font-family="sans-serif" font-size="14" font-style="italic" lengthAdjust="spacing" textLength="123" x="182" y="91.5352">«UniversalRouter»</text><text fill="#000000" font-family="sans-serif" font-size="14" lengthAdjust="spacing" textLength="88" x="199.5" y="108.0234">0xEf1c..BF6B</text><rect fill="#E2E2F0" height="46.9766" rx="2.5" ry="2.5" style="stroke:#181818;stroke-width:0.5;" width="137" x="175" y="377.4609"/><text fill="#000000" font-family="sans-serif" font-size="14" font-style="italic" lengthAdjust="spacing" textLength="123" x="182" y="397.9961">«UniversalRouter»</text><text fill="#000000" font-family="sans-serif" font-size="14" lengthAdjust="spacing" textLength="88" x="199.5" y="414.4844">0xEf1c..BF6B</text><rect fill="#E2E2F0" height="63.4648" rx="2.5" ry="2.5" style="stroke:#181818;stroke-width:0.5;" width="129" x="324" y="54.5117"/><text fill="#000000" font-family="sans-serif" font-size="14" font-style="italic" lengthAdjust="spacing" textLength="115" x="331" y="75.0469">«Wrapped Ether»</text><text fill="#000000" font-family="sans-serif" font-size="14" font-style="italic" lengthAdjust="spacing" textLength="63" x="357" y="91.5352">«(WETH)»</text><text fill="#000000" font-family="sans-serif" font-size="14" lengthAdjust="spacing" textLength="97" x="340" y="108.0234">0xC02a..6Cc2</text><rect fill="#E2E2F0" height="63.4648" rx="2.5" ry="2.5" style="stroke:#181818;stroke-width:0.5;" width="129" x="324" y="377.4609"/><text fill="#000000" font-family="sans-serif" font-size="14" font-style="italic" lengthAdjust="spacing" textLength="115" x="331" y="397.9961">«Wrapped Ether»</text><text fill="#000000" font-family="sans-serif" font-size="14" font-style="italic" lengthAdjust="spacing" textLength="63" x="357" y="414.4844">«(WETH)»</text><text fill="#000000" font-family="sans-serif" font-size="14" lengthAdjust="spacing" textLength="97" x="340" y="430.9727">0xC02a..6Cc2</text><rect fill="#E2E2F0" height="46.9766" rx="2.5" ry="2.5" style="stroke:#181818;stroke-width:0.5;" width="134" x="484.5" y="71"/><text fill="#000000" font-family="sans-serif" font-size="14" font-style="italic" lengthAdjust="spacing" textLength="120" x="491.5" y="91.5352">«UniswapV3Pool»</text><text fill="#000000" font-family="sans-serif" font-size="14" lengthAdjust="spacing" textLength="95" x="504" y="108.0234">0x701B..3E8B</text><rect fill="#E2E2F0" height="46.9766" rx="2.5" ry="2.5" style="stroke:#181818;stroke-width:0.5;" width="134" x="484.5" y="377.4609"/><text fill="#000000" font-family="sans-serif" font-size="14" font-style="italic" lengthAdjust="spacing" textLength="120" x="491.5" y="397.9961">«UniswapV3Pool»</text><text fill="#000000" font-family="sans-serif" font-size="14" lengthAdjust="spacing" textLength="95" x="504" y="414.4844">0x701B..3E8B</text><polygon fill="#181818" points="231.5,146.2871,241.5,150.2871,231.5,154.2871,235.5,150.2871" style="stroke:#181818;stroke-width:1.0;"/><line style="stroke:#181818;stroke-width:1.0;" x1="115" x2="237.5" y1="150.2871" y2="150.2871"/><text fill="#000000" font-family="sans-serif" font-size="13" lengthAdjust="spacing" textLength="57" x="122" y="145.5449">0.35 ETH</text><polygon fill="#181818" points="376.5,175.5977,386.5,179.5977,376.5,183.5977,380.5,179.5977" style="stroke:#181818;stroke-width:1.0;"/><line style="stroke:#181818;stroke-width:1.0;" x1="243.5" x2="382.5" y1="179.5977" y2="179.5977"/><text fill="#000000" font-family="sans-serif" font-size="13" lengthAdjust="spacing" textLength="57" x="250.5" y="174.8555">0.35 ETH</text><polygon fill="#181818" points="254.5,204.9082,244.5,208.9082,254.5,212.9082,250.5,208.9082" style="stroke:#181818;stroke-width:1.0;"/><ellipse cx="388" cy="208.1582" fill="none" rx="4" ry="4" style="stroke:#181818;stroke-width:1.5;"/><line style="stroke:#181818;stroke-width:1.0;" x1="248.5" x2="383.5" y1="208.9082" y2="208.9082"/><text fill="#000000" font-family="sans-serif" font-size="13" lengthAdjust="spacing" textLength="121" x="260.5" y="204.166">Deposit 0.35 WETH</text><line style="stroke:#181818;stroke-width:1.0;" x1="243.5" x2="285.5" y1="238.2188" y2="238.2188"/><line style="stroke:#181818;stroke-width:1.0;" x1="285.5" x2="285.5" y1="238.2188" y2="251.2188"/><line style="stroke:#181818;stroke-width:1.0;" x1="244.5" x2="285.5" y1="251.2188" y2="251.2188"/><polygon fill="#181818" points="254.5,247.2188,244.5,251.2188,254.5,255.2188,250.5,251.2188" style="stroke:#181818;stroke-width:1.0;"/><text fill="#000000" font-family="sans-serif" font-size="13" lengthAdjust="spacing" textLength="124" x="250.5" y="233.4766">Transfer 0.35 WETH</text><polygon fill="#181818" points="126,276.5293,116,280.5293,126,284.5293,122,280.5293" style="stroke:#181818;stroke-width:1.0;"/><line style="stroke:#181818;stroke-width:1.0;" x1="120" x2="550.5" y1="280.5293" y2="280.5293"/><text fill="#000000" font-family="sans-serif" font-size="13" lengthAdjust="spacing" textLength="255" x="132" y="275.7871">Transfer 207.849013441177659501 XFT</text><polygon fill="#181818" points="539.5,305.8398,549.5,309.8398,539.5,313.8398,543.5,309.8398" style="stroke:#181818;stroke-width:1.0;"/><line style="stroke:#181818;stroke-width:1.0;" x1="243.5" x2="545.5" y1="309.8398" y2="309.8398"/><text fill="#000000" font-family="sans-serif" font-size="13" lengthAdjust="spacing" textLength="124" x="250.5" y="305.0977">Transfer 0.35 WETH</text><path d="M5,322.8398 L5,362.8398 L225,362.8398 L225,332.8398 L215,322.8398 L5,322.8398 " fill="#00FFFF" style="stroke:#181818;stroke-width:0.5;"/><path d="M215,322.8398 L215,332.8398 L225,332.8398 L215,322.8398 " fill="#00FFFF" style="stroke:#181818;stroke-width:0.5;"/><text fill="#000000" font-family="sans-serif" font-size="13" lengthAdjust="spacing" textLength="65" x="11" y="340.4082">-0.35 ETH</text><text fill="#000000" font-family="sans-serif" font-size="13" lengthAdjust="spacing" textLength="199" x="11" y="355.7188">207.849013441177659501 XFT</text><path d="M349,322.8398 L349,347.8398 L427,347.8398 L427,332.8398 L417,322.8398 L349,322.8398 " fill="#00FFFF" style="stroke:#181818;stroke-width:0.5;"/><path d="M417,322.8398 L417,332.8398 L427,332.8398 L417,322.8398 " fill="#00FFFF" style="stroke:#181818;stroke-width:0.5;"/><text fill="#000000" font-family="sans-serif" font-size="13" lengthAdjust="spacing" textLength="57" x="355" y="340.4082">0.35 ETH</text><path d="M437,322.8398 L437,362.8398 L665,362.8398 L665,332.8398 L655,322.8398 L437,322.8398 " fill="#00FFFF" style="stroke:#181818;stroke-width:0.5;"/><path d="M655,322.8398 L655,332.8398 L665,332.8398 L655,322.8398 " fill="#00FFFF" style="stroke:#181818;stroke-width:0.5;"/><text fill="#000000" font-family="sans-serif" font-size="13" lengthAdjust="spacing" textLength="207" x="443" y="340.4082">-207.849013441177659501 XFT</text><text fill="#000000" font-family="sans-serif" font-size="13" lengthAdjust="spacing" textLength="68" x="443" y="355.7188">0.35 WETH</text><!--SRC=[VP7FRziW5CVl_1LFtMMJKWROW1r5EQIBjqkbQSgQNXyOD6kPyMowzSyVQHgITb6FJ-_p_S4ZTd7dW3sYjvKf2j-oMXdl4PrbLajVUcnPsbLS6bipfHN7iiIgDLgq5JeiREsTLOHO768NUlY5NT-xE0Ep2_OdSAMvBijw1hUXdu7Gq3W3Wea2c9mBFPSrVBxT4BGnZ7357Xih9QMLOCqLu0G-ZMdmG0OSOsUx0VkuvzQUMqfNZLezSIwDnYi3YyNtlllZnWbtty93TEDo-LfwmmHIgcwiU9BQD2fhHP9kHnm6ry8w_jWB5ults_NcouV_BJJZAqgBTNL8JwCfNFMSFlt5uQxu6i8k2Kb-mVKojvm3C5f8IEOaDq_xOvNpVQuNNXXySaEOkdZWjg-DJjncn7xoRZm3Szi47jkTWO9fMfKruqLPSgwrahLa7EwRpOk8eyl524Bw41s4z16dBto7ln-GNEUNlHNKjx1t8EGZd9no_C7fCfJlTO1ETxv8vriybtkZqzcbZrR_0000]--></g></svg>