<?xml version="1.0" encoding="us-ascii" standalone="no"?><svg xmlns:xlink="http://www.w3.org/1999/xlink" xmlns="http://www.w3.org/2000/svg" contentStyleType="text/css" height="523px" preserveAspectRatio="none" style="width:683px;height:523px;background:#FFFFFF;" version="1.1" viewBox="0 0 683 523" width="683px" zoomAndPan="magnify"><defs/><g><text fill="#000000" font-family="sans-serif" font-size="14" font-weight="bold" lengthAdjust="spacing" textLength="544" x="68.25" y="28.5352">0xafc8b33fd096bffaaec0c75f4fad0fc8815bc906761a44a8db72d8aea3c9fec6</text><text fill="#000000" font-family="sans-serif" font-size="14" lengthAdjust="spacing" textLength="411" x="134.75" y="511.3906">mainnet, block 16717449, Mon, 27 Feb 2023 05:27:59 GMT</text><line style="stroke:#181818;stroke-width:0.5;stroke-dasharray:5.0,5.0;" x1="120" x2="120" y1="139.9297" y2="399.4141"/><line style="stroke:#181818;stroke-width:0.5;stroke-dasharray:5.0,5.0;" x1="248" x2="248" y1="139.9297" y2="399.4141"/><line style="stroke:#181818;stroke-width:0.5;stroke-dasharray:5.0,5.0;" x1="394" x2="394" y1="139.9297" y2="399.4141"/><line style="stroke:#181818;stroke-width:0.5;stroke-dasharray:5.0,5.0;" x1="562.5" x2="562.5" y1="139.9297" y2="399.4141"/><text fill="#000000" font-family="sans-serif" font-size="14" lengthAdjust="spacing" textLength="94" x="70" y="136.9766">0xFc55..820F</text><ellipse cx="120" cy="71.9414" fill="#E2E2F0" rx="8" ry="8" style="stroke:#181818;stroke-width:0.5;"/><path d="M120,79.9414 L120,106.9414 M107,87.9414 L133,87.9414 M120,106.9414 L107,121.9414 M120,106.9414 L133,121.9414 " fill="none" style="stroke:#181818;stroke-width:0.5;"/><text fill="#000000" font-family="sans-serif" font-size="14" lengthAdjust="spacing" textLength="94" x="70" y="411.9492">0xFc55..820F</text><ellipse cx="120" cy="423.4023" fill="#E2E2F0" rx="8" ry="8" style="stroke:#181818;stroke-width:0.5;"/><path d="M120,431.4023 L120,458.4023 M107,439.4023 L133,439.4023 M120,458.4023 L107,473.4023 M120,458.4023 L133,473.4023 " fill="none" style="stroke:#181818;stroke-width:0.5;"/><rect fill="#E2E2F0" height="63.4648" rx="2.5" ry="2.5" style="stroke:#181818;stroke-width:0.5;" width="137" x="180" y="75.4648"/><text fill="#000000" font-family="sans-serif" font-size="14" font-style="italic" lengthAdjust="spacing" textLength="40" x="228.5" y="96">&#171;dex&#187;</text><text fill="#000000" font-family="sans-serif" font-size="14" font-style="italic" lengthAdjust="spacing" textLength="123" x="187" y="112.4883">&#171;UniversalRouter&#187;</text><text fill="#000000" font-family="sans-serif" font-size="14" lengthAdjust="spacing" textLength="88" x="204.5" y="128.9766">0xEf1c..BF6B</text><rect fill="#E2E2F0" height="63.4648" rx="2.5" ry="2.5" style="stroke:#181818;stroke-width:0.5;" width="137" x="180" y="398.4141"/><text fill="#000000" font-family="sans-serif" font-size="14" font-style="italic" lengthAdjust="spacing" textLength="40" x="228.5" y="418.9492">&#171;dex&#187;</text><text fill="#000000" font-family="sans-serif" font-size="14" font-style="italic" lengthAdjust="spacing" textLength="123" x="187" y="435.4375">&#171;UniversalRouter&#187;</text><text fill="#000000" font-family="sans-serif" font-size="14" lengthAdjust="spacing" textLength="88" x="204.5" y="451.9258">0xEf1c..BF6B</text><rect fill="#E2E2F0" height="96.4414" rx="2.5" ry="2.5" style="stroke:#181818;stroke-width:0.5;" width="135" x="327" y="42.4883"/><text fill="#000000" font-family="sans-serif" font-size="14" font-style="italic" lengthAdjust="spacing" textLength="121" x="334" y="63.0234">&#171;wrapped-token&#187;</text><text fill="#000000" font-family="sans-serif" font-size="14" font-style="italic" lengthAdjust="spacing" textLength="115" x="337" y="79.5117">&#171;Wrapped Ether&#187;</text><text fill="#000000" font-family="sans-serif" font-size="14" font-style="italic" lengthAdjust="spacing" textLength="63" x="363" y="96">&#171;(WETH)&#187;</text><text fill="#000000" font-family="sans-serif" font-size="14" font-style="italic" lengthAdjust="spacing" textLength="62" x="363.5" y="112.4883">&#171;WETH9&#187;</text><text fill="#000000" font-family="sans-serif" font-size="14" lengthAdjust="spacing" textLength="97" x="346" y="128.9766">0xC02a..6Cc2</text><rect fill="#E2E2F0" height="96.4414" rx="2.5" ry="2.5" style="stroke:#181818;stroke-width:0.5;" width="135" x="327" y="398.4141"/><text fill="#000000" font-family="sans-serif" font-size="14" font-style="italic" lengthAdjust="spacing" textLength="121" x="334" y="418.9492">&#171;wrapped-token&#187;</text><text fill="#000000" font-family="sans-serif" font-size="14" font-style="italic" lengthAdjust="spacing" textLength="115" x="337" y="435.4375">&#171;Wrapped Ether&#187;</text><text fill="#000000" font-family="sans-serif" font-size="14" font-style="italic" lengthAdjust="spacing" textLength="63" x="363" y="451.9258">&#171;(WETH)&#187;</text><text fill="#000000" font-family="sans-serif" font-size="14" font-style="italic" lengthAdjust="spacing" textLength="62" x="363.5" y="468.4141">&#171;WETH9&#187;</text><text fill="#000000" font-family="sans-serif" font-size="14" lengthAdjust="spacing" textLength="97" x="346" y="484.9023">0xC02a..6Cc2</text><rect fill="#E2E2F0" height="46.9766" rx="2.5" ry="2.5" style="stroke:#181818;stroke-width:0.5;" width="134" x="495.5" y="91.9531"/><text fill="#000000" font-family="sans-serif" font-size="14" font-style="italic" lengthAdjust="spacing" textLength="120" x="502.5" y="112.4883">&#171;UniswapV3Pool&#187;</text><text fill="#000000" font-family="sans-serif" font-size="14" lengthAdjust="spacing" textLength="95" x="515" y="128.9766">0x701B..3E8B</text><rect fill="#E2E2F0" height="46.9766" rx="2.5" ry="2.5" style="stroke:#181818;stroke-width:0.5;" width="134" x="495.5" y="398.4141"/><text fill="#000000" font-family="sans-serif" font-size="14" font-style="italic" lengthAdjust="spacing" textLength="120" x="502.5" y="418.9492">&#171;UniswapV3Pool&#187;</text><text fill="#000000" font-family="sans-serif" font-size="14" lengthAdjust="spacing" textLength="95" x="515" y="435.4375">0x701B..3E8B</text><polygon fill="#181818" points="236.5,167.2402,246.5,171.2402,236.5,175.2402,240.5,171.2402" style="stroke:#181818;stroke-width:1.0;"/><line style="stroke:#181818;stroke-width:1.0;" x1="120" x2="242.5" y1="171.2402" y2="171.2402"/><text fill="#000000" font-family="sans-serif" font-size="13" lengthAdjust="spacing" textLength="57" x="127" y="166.498">0.35 ETH</text><polygon fill="#181818" points="382.5,196.5508,392.5,200.5508,382.5,204.5508,386.5,200.5508" style="stroke:#181818;stroke-width:1.0;"/><line style="stroke:#181818;stroke-width:1.0;" x1="248.5" x2="388.5" y1="200.5508" y2="200.5508"/><text fill="#000000" font-family="sans-serif" font-size="13" lengthAdjust="spacing" textLength="57" x="255.5" y="195.8086">0.35 ETH</text><polygon fill="#181818" points="259.5,225.8613,249.5,229.8613,259.5,233.8613,255.5,229.8613" style="stroke:#181818;stroke-width:1.0;"/><ellipse cx="394" cy="229.1113" fill="none" rx="4" ry="4" style="stroke:#181818;stroke-width:1.5;"/><line style="stroke:#181818;stroke-width:1.0;" x1="253.5" x2="389.5" y1="229.8613" y2="229.8613"/><text fill="#000000" font-family="sans-serif" font-size="13" lengthAdjust="spacing" textLength="121" x="265.5" y="225.1191">Deposit 0.35 WETH</text><line style="stroke:#181818;stroke-width:1.0;" x1="248.5" x2="290.5" y1="259.1719" y2="259.1719"/><line style="stroke:#181818;stroke-width:1.0;" x1="290.5" x2="290.5" y1="259.1719" y2="272.1719"/><line style="stroke:#181818;stroke-width:1.0;" x1="249.5" x2="290.5" y1="272.1719" y2="272.1719"/><polygon fill="#181818" points="259.5,268.1719,249.5,272.1719,259.5,276.1719,255.5,272.1719" style="stroke:#181818;stroke-width:1.0;"/><text fill="#000000" font-family="sans-serif" font-size="13" lengthAdjust="spacing" textLength="124" x="255.5" y="254.4297">Transfer 0.35 WETH</text><polygon fill="#181818" points="131,297.4824,121,301.4824,131,305.4824,127,301.4824" style="stroke:#181818;stroke-width:1.0;"/><line style="stroke:#181818;stroke-width:1.0;" x1="125" x2="561.5" y1="301.4824" y2="301.4824"/><text fill="#000000" font-family="sans-serif" font-size="13" lengthAdjust="spacing" textLength="255" x="137" y="296.7402">Transfer 207.849013441177659501 XFT</text><polygon fill="#181818" points="550.5,326.793,560.5,330.793,550.5,334.793,554.5,330.793" style="stroke:#181818;stroke-width:1.0;"/><line style="stroke:#181818;stroke-width:1.0;" x1="248.5" x2="556.5" y1="330.793" y2="330.793"/><text fill="#000000" font-family="sans-serif" font-size="13" lengthAdjust="spacing" textLength="124" x="255.5" y="326.0508">Transfer 0.35 WETH</text><path d="M5,343.793 L5,383.793 L235,383.793 L235,353.793 L225,343.793 L5,343.793 " fill="#00FFFF" style="stroke:#181818;stroke-width:0.5;"/><path d="M225,343.793 L225,353.793 L235,353.793 L225,343.793 " fill="#00FFFF" style="stroke:#181818;stroke-width:0.5;"/><text fill="#000000" font-family="sans-serif" font-size="13" lengthAdjust="spacing" textLength="65" x="11" y="361.3613">-0.35 ETH</text><text fill="#000000" font-family="sans-serif" font-size="13" lengthAdjust="spacing" textLength="209" x="11" y="376.6719">+207.849013441177659501 XFT</text><path d="M350,343.793 L350,368.793 L438,368.793 L438,353.793 L428,343.793 L350,343.793 " fill="#00FFFF" style="stroke:#181818;stroke-width:0.5;"/><path d="M428,343.793 L428,353.793 L438,353.793 L428,343.793 " fill="#00FFFF" style="stroke:#181818;stroke-width:0.5;"/><text fill="#000000" font-family="sans-serif" font-size="13" lengthAdjust="spacing" textLength="67" x="356" y="361.3613">+0.35 ETH</text><path d="M448,343.793 L448,383.793 L676,383.793 L676,353.793 L666,343.793 L448,343.793 " fill="#00FFFF" style="stroke:#181818;stroke-width:0.5;"/><path d="M666,343.793 L666,353.793 L676,353.793 L666,343.793 " fill="#00FFFF" style="stroke:#181818;stroke-width:0.5;"/><text fill="#000000" font-family="sans-serif" font-size="13" lengthAdjust="spacing" textLength="207" x="454" y="361.3613">-207.849013441177659501 XFT</text><text fill="#000000" font-family="sans-serif" font-size="13" lengthAdjust="spacing" textLength="78" x="454" y="376.6719">+0.35 WETH</text><!--SRC=[VP7DRjim48JlV8g5UsbXcoNrGqg6e8DJgxq4A0etpdL5aQWGbrGbfidZbx9ZsKcDt3ZSuRUpIz_wlOOPUqQZiZgEJSDoKHk3g1LJCZM9mOQ5MiRJMkLCIC4nIJ1hQXar6MgCLMwq4ZD257Q-THP-OskjzWkezquz01UIooJ95t3hx08Y2PMk8M9H32nTHNALvl3rTajGUTUFKIgLffHc4QjcW0EO88CmG3hiVQlQ3gqVVHl35QNhIgmFFXraRKGDHT7evx8iYf-s_Qlx0VS_tAFNVLc-9Tom22aLDoew45IGGgae49vwx3hTBBrxq7PaxOuNiF6_Hb9HVDnjjjy-7KhXaFyFbuolAOqtsJ5Ua7Miip5Uo3KyONSNVtTk7nwIQSHbEOsn0c0qJY70oJHQg9z2NjQduEuLu8lktD3wes_t5dJsRNkqWz7zXN5A6uodT1V6Y4cQ9JdZSP9mBgL8yvHnkA-shrgSA5TR46ATr-325vt_-0F-UKIod2QRlzV9DZ0Y2FaCPzJK_uYwRfeMTZJDpvk-Qf-syHBldL3pYsMVMFy0]--></g></svg>
