<?xml version="1.0" encoding="us-ascii" standalone="no"?><svg xmlns:xlink="http://www.w3.org/1999/xlink" xmlns="http://www.w3.org/2000/svg" contentStyleType="text/css" height="682px" preserveAspectRatio="none" style="width:1076px;height:682px;background:#FFFFFF;" version="1.1" viewBox="0 0 1076 682" width="1076px" zoomAndPan="magnify"><defs/><g><rect fill="none" height="126.5527" style="stroke:#000000;stroke-width:1.5;" width="618" x="10" y="119.4414"/><rect fill="none" height="214.4844" style="stroke:#000000;stroke-width:1.5;" width="948" x="122" y="259.9941"/><line style="stroke:#181818;stroke-width:0.5;stroke-dasharray:5.0,5.0;" x1="73" x2="73" y1="102.4414" y2="542.0996"/><line style="stroke:#181818;stroke-width:0.5;stroke-dasharray:5.0,5.0;" x1="239" x2="239" y1="102.4414" y2="542.0996"/><line style="stroke:#181818;stroke-width:0.5;stroke-dasharray:5.0,5.0;" x1="464" x2="464" y1="102.4414" y2="542.0996"/><line style="stroke:#181818;stroke-width:0.5;stroke-dasharray:5.0,5.0;" x1="695" x2="695" y1="102.4414" y2="542.0996"/><line style="stroke:#181818;stroke-width:0.5;stroke-dasharray:5.0,5.0;" x1="971" x2="971" y1="102.4414" y2="542.0996"/><text fill="#000000" font-family="sans-serif" font-size="14" font-style="italic" lengthAdjust="spacing" textLength="98" x="21" y="83">&#171;(edicius.eth)&#187;</text><text fill="#000000" font-family="sans-serif" font-size="14" lengthAdjust="spacing" textLength="100" x="20" y="99.4883">0x9AdD..3745</text><ellipse cx="73" cy="17.9648" fill="#E2E2F0" rx="8" ry="8" style="stroke:#181818;stroke-width:0.5;"/><path d="M73,25.9648 L73,52.9648 M60,33.9648 L86,33.9648 M73,52.9648 L60,67.9648 M73,52.9648 L86,67.9648 " fill="none" style="stroke:#181818;stroke-width:0.5;"/><text fill="#000000" font-family="sans-serif" font-size="14" font-style="italic" lengthAdjust="spacing" textLength="98" x="21" y="554.6348">&#171;(edicius.eth)&#187;</text><text fill="#000000" font-family="sans-serif" font-size="14" lengthAdjust="spacing" textLength="100" x="20" y="571.123">0x9AdD..3745</text><ellipse cx="73" cy="582.5762" fill="#E2E2F0" rx="8" ry="8" style="stroke:#181818;stroke-width:0.5;"/><path d="M73,590.5762 L73,617.5762 M60,598.5762 L86,598.5762 M73,617.5762 L60,632.5762 M73,617.5762 L86,632.5762 " fill="none" style="stroke:#181818;stroke-width:0.5;"/><rect fill="#E2E2F0" height="96.4414" rx="2.5" ry="2.5" style="stroke:#181818;stroke-width:0.5;" width="135" x="172" y="5"/><text fill="#000000" font-family="sans-serif" font-size="14" font-style="italic" lengthAdjust="spacing" textLength="121" x="179" y="25.5352">&#171;wrapped-token&#187;</text><text fill="#000000" font-family="sans-serif" font-size="14" font-style="italic" lengthAdjust="spacing" textLength="115" x="182" y="42.0234">&#171;Wrapped Ether&#187;</text><text fill="#000000" font-family="sans-serif" font-size="14" font-style="italic" lengthAdjust="spacing" textLength="63" x="208" y="58.5117">&#171;(WETH)&#187;</text><text fill="#000000" font-family="sans-serif" font-size="14" font-style="italic" lengthAdjust="spacing" textLength="62" x="208.5" y="75">&#171;WETH9&#187;</text><text fill="#000000" font-family="sans-serif" font-size="14" lengthAdjust="spacing" textLength="97" x="191" y="91.4883">0xC02a..6Cc2</text><rect fill="#E2E2F0" height="96.4414" rx="2.5" ry="2.5" style="stroke:#181818;stroke-width:0.5;" width="135" x="172" y="541.0996"/><text fill="#000000" font-family="sans-serif" font-size="14" font-style="italic" lengthAdjust="spacing" textLength="121" x="179" y="561.6348">&#171;wrapped-token&#187;</text><text fill="#000000" font-family="sans-serif" font-size="14" font-style="italic" lengthAdjust="spacing" textLength="115" x="182" y="578.123">&#171;Wrapped Ether&#187;</text><text fill="#000000" font-family="sans-serif" font-size="14" font-style="italic" lengthAdjust="spacing" textLength="63" x="208" y="594.6113">&#171;(WETH)&#187;</text><text fill="#000000" font-family="sans-serif" font-size="14" font-style="italic" lengthAdjust="spacing" textLength="62" x="208.5" y="611.0996">&#171;WETH9&#187;</text><text fill="#000000" font-family="sans-serif" font-size="14" lengthAdjust="spacing" textLength="97" x="191" y="627.5879">0xC02a..6Cc2</text><text fill="#000000" font-family="sans-serif" font-size="14" lengthAdjust="spacing" textLength="95" x="414" y="99.4883">0x6470..3BEe</text><ellipse cx="464.5" cy="34.4531" fill="#E2E2F0" rx="8" ry="8" style="stroke:#181818;stroke-width:0.5;"/><path d="M464.5,42.4531 L464.5,69.4531 M451.5,50.4531 L477.5,50.4531 M464.5,69.4531 L451.5,84.4531 M464.5,69.4531 L477.5,84.4531 " fill="none" style="stroke:#181818;stroke-width:0.5;"/><text fill="#000000" font-family="sans-serif" font-size="14" lengthAdjust="spacing" textLength="95" x="414" y="554.6348">0x6470..3BEe</text><ellipse cx="464.5" cy="566.0879" fill="#E2E2F0" rx="8" ry="8" style="stroke:#181818;stroke-width:0.5;"/><path d="M464.5,574.0879 L464.5,601.0879 M451.5,582.0879 L477.5,582.0879 M464.5,601.0879 L451.5,616.0879 M464.5,601.0879 L477.5,616.0879 " fill="none" style="stroke:#181818;stroke-width:0.5;"/><rect fill="#E2E2F0" height="79.9531" rx="2.5" ry="2.5" style="stroke:#181818;stroke-width:0.5;" width="142" x="624" y="21.4883"/><text fill="#000000" font-family="sans-serif" font-size="14" font-style="italic" lengthAdjust="spacing" textLength="115" x="637.5" y="42.0234">&#171;CRO Defi Swap&#187;</text><text fill="#000000" font-family="sans-serif" font-size="14" font-style="italic" lengthAdjust="spacing" textLength="100" x="645" y="58.5117">&#171;(CRO-SWAP)&#187;</text><text fill="#000000" font-family="sans-serif" font-size="14" font-style="italic" lengthAdjust="spacing" textLength="128" x="631" y="75">&#171;CroDefiSwapPair&#187;</text><text fill="#000000" font-family="sans-serif" font-size="14" lengthAdjust="spacing" textLength="96" x="647" y="91.4883">0x3Aa3..7e0F</text><rect fill="#E2E2F0" height="79.9531" rx="2.5" ry="2.5" style="stroke:#181818;stroke-width:0.5;" width="142" x="624" y="541.0996"/><text fill="#000000" font-family="sans-serif" font-size="14" font-style="italic" lengthAdjust="spacing" textLength="115" x="637.5" y="561.6348">&#171;CRO Defi Swap&#187;</text><text fill="#000000" font-family="sans-serif" font-size="14" font-style="italic" lengthAdjust="spacing" textLength="100" x="645" y="578.123">&#171;(CRO-SWAP)&#187;</text><text fill="#000000" font-family="sans-serif" font-size="14" font-style="italic" lengthAdjust="spacing" textLength="128" x="631" y="594.6113">&#171;CroDefiSwapPair&#187;</text><text fill="#000000" font-family="sans-serif" font-size="14" lengthAdjust="spacing" textLength="96" x="647" y="611.0996">0x3Aa3..7e0F</text><rect fill="#E2E2F0" height="79.9531" rx="2.5" ry="2.5" style="stroke:#181818;stroke-width:0.5;" width="178" x="882" y="21.4883"/><text fill="#000000" font-family="sans-serif" font-size="14" font-style="italic" lengthAdjust="spacing" textLength="52" x="945" y="42.0234">&#171;1inch&#187;</text><text fill="#000000" font-family="sans-serif" font-size="14" font-style="italic" lengthAdjust="spacing" textLength="40" x="951" y="58.5117">&#171;dex&#187;</text><text fill="#000000" font-family="sans-serif" font-size="14" font-style="italic" lengthAdjust="spacing" textLength="164" x="889" y="75">&#171;AggregationRouterV4&#187;</text><text fill="#000000" font-family="sans-serif" font-size="14" lengthAdjust="spacing" textLength="98" x="922" y="91.4883">0x1111..097d</text><rect fill="#E2E2F0" height="79.9531" rx="2.5" ry="2.5" style="stroke:#181818;stroke-width:0.5;" width="178" x="882" y="541.0996"/><text fill="#000000" font-family="sans-serif" font-size="14" font-style="italic" lengthAdjust="spacing" textLength="52" x="945" y="561.6348">&#171;1inch&#187;</text><text fill="#000000" font-family="sans-serif" font-size="14" font-style="italic" lengthAdjust="spacing" textLength="40" x="951" y="578.123">&#171;dex&#187;</text><text fill="#000000" font-family="sans-serif" font-size="14" font-style="italic" lengthAdjust="spacing" textLength="164" x="889" y="594.6113">&#171;AggregationRouterV4&#187;</text><text fill="#000000" font-family="sans-serif" font-size="14" lengthAdjust="spacing" textLength="98" x="922" y="611.0996">0x1111..097d</text><path d="M10,119.4414 L623,119.4414 L623,126.752 L613,136.752 L10,136.752 L10,119.4414 " fill="#EEEEEE" style="stroke:#000000;stroke-width:1.5;"/><rect fill="none" height="126.5527" style="stroke:#000000;stroke-width:1.5;" width="618" x="10" y="119.4414"/><text fill="#000000" font-family="sans-serif" font-size="13" font-weight="bold" lengthAdjust="spacing" textLength="568" x="25" y="133.0098">0x883e76ca9590e6cf37138548f04b5c3317e0e8d62c44665d2083cbee70152bd1</text><polygon fill="#181818" points="227.5,154.0625,237.5,158.0625,227.5,162.0625,231.5,158.0625" style="stroke:#181818;stroke-width:1.0;"/><line style="stroke:#181818;stroke-width:1.0;" x1="73" x2="233.5" y1="158.0625" y2="158.0625"/><text fill="#000000" font-family="sans-serif" font-size="13" lengthAdjust="spacing" textLength="57" x="80" y="153.3203">0.03 ETH</text><polygon fill="#181818" points="84,183.373,74,187.373,84,191.373,80,187.373" style="stroke:#181818;stroke-width:1.0;"/><ellipse cx="239" cy="186.623" fill="none" rx="4" ry="4" style="stroke:#181818;stroke-width:1.5;"/><line style="stroke:#181818;stroke-width:1.0;" x1="78" x2="234.5" y1="187.373" y2="187.373"/><text fill="#000000" font-family="sans-serif" font-size="13" lengthAdjust="spacing" textLength="121" x="90" y="182.6309">Deposit 0.03 WETH</text><path d="M23,200.373 L23,240.373 L122,240.373 L122,210.373 L112,200.373 L23,200.373 " fill="#00FFFF" style="stroke:#181818;stroke-width:0.5;"/><path d="M112,200.373 L112,210.373 L122,210.373 L112,200.373 " fill="#00FFFF" style="stroke:#181818;stroke-width:0.5;"/><text fill="#000000" font-family="sans-serif" font-size="13" lengthAdjust="spacing" textLength="65" x="29" y="217.9414">-0.03 ETH</text><text fill="#000000" font-family="sans-serif" font-size="13" lengthAdjust="spacing" textLength="78" x="29" y="233.252">+0.03 WETH</text><path d="M195,200.373 L195,225.373 L283,225.373 L283,210.373 L273,200.373 L195,200.373 " fill="#00FFFF" style="stroke:#181818;stroke-width:0.5;"/><path d="M273,200.373 L273,210.373 L283,210.373 L273,200.373 " fill="#00FFFF" style="stroke:#181818;stroke-width:0.5;"/><text fill="#000000" font-family="sans-serif" font-size="13" lengthAdjust="spacing" textLength="67" x="201" y="217.9414">+0.03 ETH</text><path d="M122,259.9941 L727,259.9941 L727,267.3047 L717,277.3047 L122,277.3047 L122,259.9941 " fill="#EEEEEE" style="stroke:#000000;stroke-width:1.5;"/><rect fill="none" height="214.4844" style="stroke:#000000;stroke-width:1.5;" width="948" x="122" y="259.9941"/><text fill="#000000" font-family="sans-serif" font-size="13" font-weight="bold" lengthAdjust="spacing" textLength="560" x="137" y="273.5625">0x13142a10fe690b3e4c10708a68037e795fb85e048d70ccf15c639efb339e2e43</text><polygon fill="#181818" points="683,294.6152,693,298.6152,683,302.6152,687,298.6152" style="stroke:#181818;stroke-width:1.0;"/><line style="stroke:#181818;stroke-width:1.0;" x1="464.5" x2="689" y1="298.6152" y2="298.6152"/><text fill="#000000" font-family="sans-serif" font-size="13" lengthAdjust="spacing" textLength="123" x="471.5" y="293.873">Transfer 50.0 USDC</text><polygon fill="#181818" points="959,323.9258,969,327.9258,959,331.9258,963,327.9258" style="stroke:#181818;stroke-width:1.0;"/><line style="stroke:#181818;stroke-width:1.0;" x1="695" x2="965" y1="327.9258" y2="327.9258"/><text fill="#000000" font-family="sans-serif" font-size="13" lengthAdjust="spacing" textLength="252" x="702" y="323.1836">Transfer 0.030976485805895783 WETH</text><polygon fill="#181818" points="959,353.2363,969,357.2363,959,361.2363,963,357.2363" style="stroke:#181818;stroke-width:1.0;"/><line style="stroke:#181818;stroke-width:1.0;" x1="239.5" x2="965" y1="357.2363" y2="357.2363"/><text fill="#000000" font-family="sans-serif" font-size="13" lengthAdjust="spacing" textLength="185" x="246.5" y="352.4941">0.030976485805895783 ETH</text><line style="stroke:#181818;stroke-width:2.0;" x1="246.5" x2="256.5" y1="381.5469" y2="391.5469"/><line style="stroke:#181818;stroke-width:2.0;" x1="246.5" x2="256.5" y1="391.5469" y2="381.5469"/><line style="stroke:#181818;stroke-width:1.0;" x1="251.5" x2="970" y1="386.5469" y2="386.5469"/><text fill="#000000" font-family="sans-serif" font-size="13" lengthAdjust="spacing" textLength="258" x="256.5" y="381.8047">Withdraw 0.030976485805895783 WETH</text><polygon fill="#181818" points="475.5,411.8574,465.5,415.8574,475.5,419.8574,471.5,415.8574" style="stroke:#181818;stroke-width:1.0;"/><line style="stroke:#181818;stroke-width:1.0;" x1="469.5" x2="970" y1="415.8574" y2="415.8574"/><text fill="#000000" font-family="sans-serif" font-size="13" lengthAdjust="spacing" textLength="185" x="481.5" y="411.1152">0.030976485805895783 ETH</text><path d="M356,428.8574 L356,468.8574 L572,468.8574 L572,438.8574 L562,428.8574 L356,428.8574 " fill="#00FFFF" style="stroke:#181818;stroke-width:0.5;"/><path d="M562,428.8574 L562,438.8574 L572,438.8574 L562,428.8574 " fill="#00FFFF" style="stroke:#181818;stroke-width:0.5;"/><text fill="#000000" font-family="sans-serif" font-size="13" lengthAdjust="spacing" textLength="75" x="362" y="446.4258">-50.0 USDC</text><text fill="#000000" font-family="sans-serif" font-size="13" lengthAdjust="spacing" textLength="195" x="362" y="461.7363">+0.030976485805895783 ETH</text><path d="M582,428.8574 L582,468.8574 L807,468.8574 L807,438.8574 L797,428.8574 L582,428.8574 " fill="#00FFFF" style="stroke:#181818;stroke-width:0.5;"/><path d="M797,428.8574 L797,438.8574 L807,438.8574 L797,428.8574 " fill="#00FFFF" style="stroke:#181818;stroke-width:0.5;"/><text fill="#000000" font-family="sans-serif" font-size="13" lengthAdjust="spacing" textLength="77" x="588" y="446.4258">+50.0 USDC</text><text fill="#000000" font-family="sans-serif" font-size="13" lengthAdjust="spacing" textLength="204" x="588" y="461.7363">-0.030976485805895783 WETH</text><path d="M132,428.8574 L132,453.8574 L346,453.8574 L346,438.8574 L336,428.8574 L132,428.8574 " fill="#00FFFF" style="stroke:#181818;stroke-width:0.5;"/><path d="M336,428.8574 L336,438.8574 L346,438.8574 L336,428.8574 " fill="#00FFFF" style="stroke:#181818;stroke-width:0.5;"/><text fill="#000000" font-family="sans-serif" font-size="13" lengthAdjust="spacing" textLength="193" x="138" y="446.4258">-0.030976485805895783 ETH</text><path d="M23,486.4785 L23,526.4785 L122,526.4785 L122,496.4785 L112,486.4785 L23,486.4785 " fill="#00FFFF" style="stroke:#181818;stroke-width:0.5;"/><path d="M112,486.4785 L112,496.4785 L122,496.4785 L112,486.4785 " fill="#00FFFF" style="stroke:#181818;stroke-width:0.5;"/><text fill="#000000" font-family="sans-serif" font-size="13" lengthAdjust="spacing" textLength="65" x="29" y="504.0469">-0.03 ETH</text><text fill="#000000" font-family="sans-serif" font-size="13" lengthAdjust="spacing" textLength="78" x="29" y="519.3574">+0.03 WETH</text><path d="M132,486.4785 L132,511.4785 L346,511.4785 L346,496.4785 L336,486.4785 L132,486.4785 " fill="#00FFFF" style="stroke:#181818;stroke-width:0.5;"/><path d="M336,486.4785 L336,496.4785 L346,496.4785 L336,486.4785 " fill="#00FFFF" style="stroke:#181818;stroke-width:0.5;"/><text fill="#000000" font-family="sans-serif" font-size="13" lengthAdjust="spacing" textLength="193" x="138" y="504.0469">-0.000976485805895783 ETH</text><path d="M356,486.4785 L356,526.4785 L572,526.4785 L572,496.4785 L562,486.4785 L356,486.4785 " fill="#00FFFF" style="stroke:#181818;stroke-width:0.5;"/><path d="M562,486.4785 L562,496.4785 L572,496.4785 L562,486.4785 " fill="#00FFFF" style="stroke:#181818;stroke-width:0.5;"/><text fill="#000000" font-family="sans-serif" font-size="13" lengthAdjust="spacing" textLength="75" x="362" y="504.0469">-50.0 USDC</text><text fill="#000000" font-family="sans-serif" font-size="13" lengthAdjust="spacing" textLength="195" x="362" y="519.3574">+0.030976485805895783 ETH</text><path d="M582,486.4785 L582,526.4785 L807,526.4785 L807,496.4785 L797,486.4785 L582,486.4785 " fill="#00FFFF" style="stroke:#181818;stroke-width:0.5;"/><path d="M797,486.4785 L797,496.4785 L807,496.4785 L797,486.4785 " fill="#00FFFF" style="stroke:#181818;stroke-width:0.5;"/><text fill="#000000" font-family="sans-serif" font-size="13" lengthAdjust="spacing" textLength="77" x="588" y="504.0469">+50.0 USDC</text><text fill="#000000" font-family="sans-serif" font-size="13" lengthAdjust="spacing" textLength="204" x="588" y="519.3574">-0.030976485805895783 WETH</text><text fill="#888888" font-family="sans-serif" font-size="10" lengthAdjust="spacing" textLength="287" x="396" y="649.209">mainnet, block 16731720, Wed, 01 Mar 2023 05:33:35 GMT</text><text fill="#888888" font-family="sans-serif" font-size="10" lengthAdjust="spacing" textLength="287" x="396" y="660.9863">mainnet, block 16730628, Wed, 01 Mar 2023 01:52:35 GMT</text><text fill="#888888" font-family="sans-serif" font-size="10" lengthAdjust="spacing" textLength="3" x="538" y="672.7637">&#160;</text><!--SRC=[rL9DSzCm4BthLsZAfPtMPcLPifp9P2Qa1IuTEcqXPrcI4q_1Dev3y_DPvKCka7RAWGC-s5vfttkx-xPicjvrv9kkwjhr5xJusfW7ocJ6MPR01PqxUq61qMlTqGGIJa6CE1znGJzStn-3WKpKCHWRYUG08wwsvKvOcxxfw0biygczZ6EUfUA4wXNDjRK-eEFngRELgTQhsFNBiyc4jBhhyQ3LTU-1CqXq7CkPIRP0Ww4q9a7WOwVRrjceRnvSFPcCn_FT0Rtgbwxp1wVpg_kFPzih_CcHFDGZqmomddTNRalhGruuHt-NvrFDupXpy7wRnxNc69GeFxlzH2zTMT6xHzrkrV0akfjFRxQAiwxnj_xoHbVTduqnVE8OyinkcNte0sHcLMsMdiEwZVzC5ulEBNHVDVLjiyQnVacHZYowPjrIs2Z5NIQDpaKEJfgIPumhaQeIqa8OZauxSChAnAIfbC8ceBZ1NZDW8Yai8y6CQ1BcEw8KOk0KvqR2p1jCE2IFiFcsMLNzBiyFc11Ie-kq-U6wmU4t-ljQaoYmdG_vk2VK8mXvImTaaDiXpmDoICU_q3xZB4qqWzB970hkKiCW0wMb0hGgoqLPAE4WLJO3OqecZEIvAmkExyIbd0JliRk3loDwt-bwLM8v0lNfvxlB6GdcO-B1hYU9lauyagaI2eJAHQRsVOQEVW4U1_Zyi0lHveaXywfVsau_lY0q02TXfLyIUcfO6CFUiA7lysVnnmqCSzeRE315pvT-d2eqjADwrS94hoZNBz2_M5QFXByOrNyrz9y0]--></g></svg>
