<?xml version="1.0" encoding="UTF-8" standalone="no"?><svg xmlns="http://www.w3.org/2000/svg" xmlns:xlink="http://www.w3.org/1999/xlink" contentStyleType="text/css" height="602px" preserveAspectRatio="none" style="width:1031px;height:602px;background:#FFFFFF;" version="1.1" viewBox="0 0 1031 602" width="1031px" zoomAndPan="magnify"><defs/><g><rect fill="none" height="126.5527" style="stroke:#000000;stroke-width:1.5;" width="618" x="10" y="98.4883"/><rect fill="none" height="214.4844" style="stroke:#000000;stroke-width:1.5;" width="908" x="117" y="239.041"/><line style="stroke:#181818;stroke-width:0.5;stroke-dasharray:5.0,5.0;" x1="73" x2="73" y1="81.4883" y2="521.1465"/><line style="stroke:#181818;stroke-width:0.5;stroke-dasharray:5.0,5.0;" x1="235.5" x2="235.5" y1="81.4883" y2="521.1465"/><line style="stroke:#181818;stroke-width:0.5;stroke-dasharray:5.0,5.0;" x1="457" x2="457" y1="81.4883" y2="521.1465"/><line style="stroke:#181818;stroke-width:0.5;stroke-dasharray:5.0,5.0;" x1="682.5" x2="682.5" y1="81.4883" y2="521.1465"/><line style="stroke:#181818;stroke-width:0.5;stroke-dasharray:5.0,5.0;" x1="959" x2="959" y1="81.4883" y2="521.1465"/><text fill="#000000" font-family="sans-serif" font-size="14" lengthAdjust="spacing" textLength="100" x="20" y="78.5352">0x9AdD..3745</text><ellipse cx="73" cy="13.5" fill="#E2E2F0" rx="8" ry="8" style="stroke:#181818;stroke-width:0.5;"/><path d="M73,21.5 L73,48.5 M60,29.5 L86,29.5 M73,48.5 L60,63.5 M73,48.5 L86,63.5 " fill="none" style="stroke:#181818;stroke-width:0.5;"/><text fill="#000000" font-family="sans-serif" font-size="14" lengthAdjust="spacing" textLength="100" x="20" y="533.6816">0x9AdD..3745</text><ellipse cx="73" cy="545.1348" fill="#E2E2F0" rx="8" ry="8" style="stroke:#181818;stroke-width:0.5;"/><path d="M73,553.1348 L73,580.1348 M60,561.1348 L86,561.1348 M73,580.1348 L60,595.1348 M73,580.1348 L86,595.1348 " fill="none" style="stroke:#181818;stroke-width:0.5;"/><rect fill="#E2E2F0" height="63.4648" rx="2.5" ry="2.5" style="stroke:#181818;stroke-width:0.5;" width="129" x="171.5" y="17.0234"/><text fill="#000000" font-family="sans-serif" font-size="14" font-style="italic" lengthAdjust="spacing" textLength="115" x="178.5" y="37.5586">«Wrapped Ether»</text><text fill="#000000" font-family="sans-serif" font-size="14" font-style="italic" lengthAdjust="spacing" textLength="63" x="204.5" y="54.0469">«(WETH)»</text><text fill="#000000" font-family="sans-serif" font-size="14" lengthAdjust="spacing" textLength="97" x="187.5" y="70.5352">0xC02a..6Cc2</text><rect fill="#E2E2F0" height="63.4648" rx="2.5" ry="2.5" style="stroke:#181818;stroke-width:0.5;" width="129" x="171.5" y="520.1465"/><text fill="#000000" font-family="sans-serif" font-size="14" font-style="italic" lengthAdjust="spacing" textLength="115" x="178.5" y="540.6816">«Wrapped Ether»</text><text fill="#000000" font-family="sans-serif" font-size="14" font-style="italic" lengthAdjust="spacing" textLength="63" x="204.5" y="557.1699">«(WETH)»</text><text fill="#000000" font-family="sans-serif" font-size="14" lengthAdjust="spacing" textLength="97" x="187.5" y="573.6582">0xC02a..6Cc2</text><text fill="#000000" font-family="sans-serif" font-size="14" lengthAdjust="spacing" textLength="95" x="407" y="78.5352">0x6470..3BEe</text><ellipse cx="457.5" cy="13.5" fill="#E2E2F0" rx="8" ry="8" style="stroke:#181818;stroke-width:0.5;"/><path d="M457.5,21.5 L457.5,48.5 M444.5,29.5 L470.5,29.5 M457.5,48.5 L444.5,63.5 M457.5,48.5 L470.5,63.5 " fill="none" style="stroke:#181818;stroke-width:0.5;"/><text fill="#000000" font-family="sans-serif" font-size="14" lengthAdjust="spacing" textLength="95" x="407" y="533.6816">0x6470..3BEe</text><ellipse cx="457.5" cy="545.1348" fill="#E2E2F0" rx="8" ry="8" style="stroke:#181818;stroke-width:0.5;"/><path d="M457.5,553.1348 L457.5,580.1348 M444.5,561.1348 L470.5,561.1348 M457.5,580.1348 L444.5,595.1348 M457.5,580.1348 L470.5,595.1348 " fill="none" style="stroke:#181818;stroke-width:0.5;"/><rect fill="#E2E2F0" height="63.4648" rx="2.5" ry="2.5" style="stroke:#181818;stroke-width:0.5;" width="129" x="618.5" y="17.0234"/><text fill="#000000" font-family="sans-serif" font-size="14" font-style="italic" lengthAdjust="spacing" textLength="115" x="625.5" y="37.5586">«CRO Defi Swap»</text><text fill="#000000" font-family="sans-serif" font-size="14" font-style="italic" lengthAdjust="spacing" textLength="100" x="633" y="54.0469">«(CRO-SWAP)»</text><text fill="#000000" font-family="sans-serif" font-size="14" lengthAdjust="spacing" textLength="96" x="635" y="70.5352">0x3Aa3..7e0F</text><rect fill="#E2E2F0" height="63.4648" rx="2.5" ry="2.5" style="stroke:#181818;stroke-width:0.5;" width="129" x="618.5" y="520.1465"/><text fill="#000000" font-family="sans-serif" font-size="14" font-style="italic" lengthAdjust="spacing" textLength="115" x="625.5" y="540.6816">«CRO Defi Swap»</text><text fill="#000000" font-family="sans-serif" font-size="14" font-style="italic" lengthAdjust="spacing" textLength="100" x="633" y="557.1699">«(CRO-SWAP)»</text><text fill="#000000" font-family="sans-serif" font-size="14" lengthAdjust="spacing" textLength="96" x="635" y="573.6582">0x3Aa3..7e0F</text><rect fill="#E2E2F0" height="30.4883" rx="2.5" ry="2.5" style="stroke:#181818;stroke-width:0.5;" width="112" x="903" y="50"/><text fill="#000000" font-family="sans-serif" font-size="14" lengthAdjust="spacing" textLength="98" x="910" y="70.5352">0x1111..097d</text><rect fill="#E2E2F0" height="30.4883" rx="2.5" ry="2.5" style="stroke:#181818;stroke-width:0.5;" width="112" x="903" y="520.1465"/><text fill="#000000" font-family="sans-serif" font-size="14" lengthAdjust="spacing" textLength="98" x="910" y="540.6816">0x1111..097d</text><path d="M10,98.4883 L623,98.4883 L623,105.7988 L613,115.7988 L10,115.7988 L10,98.4883 " fill="#EEEEEE" style="stroke:#000000;stroke-width:1.5;"/><rect fill="none" height="126.5527" style="stroke:#000000;stroke-width:1.5;" width="618" x="10" y="98.4883"/><text fill="#000000" font-family="sans-serif" font-size="13" font-weight="bold" lengthAdjust="spacing" textLength="568" x="25" y="112.0566">0x883e76ca9590e6cf37138548f04b5c3317e0e8d62c44665d2083cbee70152bd1</text><polygon fill="#181818" points="224,133.1094,234,137.1094,224,141.1094,228,137.1094" style="stroke:#181818;stroke-width:1.0;"/><line style="stroke:#181818;stroke-width:1.0;" x1="73" x2="230" y1="137.1094" y2="137.1094"/><text fill="#000000" font-family="sans-serif" font-size="13" lengthAdjust="spacing" textLength="57" x="80" y="132.3672">0.03 ETH</text><polygon fill="#181818" points="84,162.4199,74,166.4199,84,170.4199,80,166.4199" style="stroke:#181818;stroke-width:1.0;"/><line style="stroke:#181818;stroke-width:1.0;" x1="78" x2="235" y1="166.4199" y2="166.4199"/><text fill="#000000" font-family="sans-serif" font-size="13" lengthAdjust="spacing" textLength="121" x="90" y="161.6777">Deposit 0.03 WETH</text><path d="M28,179.4199 L28,219.4199 L117,219.4199 L117,189.4199 L107,179.4199 L28,179.4199 " fill="#00FFFF" style="stroke:#181818;stroke-width:0.5;"/><path d="M107,179.4199 L107,189.4199 L117,189.4199 L107,179.4199 " fill="#00FFFF" style="stroke:#181818;stroke-width:0.5;"/><text fill="#000000" font-family="sans-serif" font-size="13" lengthAdjust="spacing" textLength="65" x="34" y="196.9883">-0.03 ETH</text><text fill="#000000" font-family="sans-serif" font-size="13" lengthAdjust="spacing" textLength="68" x="34" y="212.2988">0.03 WETH</text><path d="M187,179.4199 L187,219.4199 L284,219.4199 L284,189.4199 L274,179.4199 L187,179.4199 " fill="#00FFFF" style="stroke:#181818;stroke-width:0.5;"/><path d="M274,179.4199 L274,189.4199 L284,189.4199 L274,179.4199 " fill="#00FFFF" style="stroke:#181818;stroke-width:0.5;"/><text fill="#000000" font-family="sans-serif" font-size="13" lengthAdjust="spacing" textLength="57" x="193" y="196.9883">0.03 ETH</text><text fill="#000000" font-family="sans-serif" font-size="13" lengthAdjust="spacing" textLength="76" x="193" y="212.2988">-0.03 WETH</text><path d="M117,239.041 L722,239.041 L722,246.3516 L712,256.3516 L117,256.3516 L117,239.041 " fill="#EEEEEE" style="stroke:#000000;stroke-width:1.5;"/><rect fill="none" height="214.4844" style="stroke:#000000;stroke-width:1.5;" width="908" x="117" y="239.041"/><text fill="#000000" font-family="sans-serif" font-size="13" font-weight="bold" lengthAdjust="spacing" textLength="560" x="132" y="252.6094">0x13142a10fe690b3e4c10708a68037e795fb85e048d70ccf15c639efb339e2e43</text><polygon fill="#181818" points="671,273.6621,681,277.6621,671,281.6621,675,277.6621" style="stroke:#181818;stroke-width:1.0;"/><line style="stroke:#181818;stroke-width:1.0;" x1="457.5" x2="677" y1="277.6621" y2="277.6621"/><text fill="#000000" font-family="sans-serif" font-size="13" lengthAdjust="spacing" textLength="123" x="464.5" y="272.9199">Transfer 50.0 USDC</text><polygon fill="#181818" points="947,302.9727,957,306.9727,947,310.9727,951,306.9727" style="stroke:#181818;stroke-width:1.0;"/><line style="stroke:#181818;stroke-width:1.0;" x1="683" x2="953" y1="306.9727" y2="306.9727"/><text fill="#000000" font-family="sans-serif" font-size="13" lengthAdjust="spacing" textLength="252" x="690" y="302.2305">Transfer 0.030976485805895783 WETH</text><polygon fill="#181818" points="947,332.2832,957,336.2832,947,340.2832,951,336.2832" style="stroke:#181818;stroke-width:1.0;"/><line style="stroke:#181818;stroke-width:1.0;" x1="236" x2="953" y1="336.2832" y2="336.2832"/><text fill="#000000" font-family="sans-serif" font-size="13" lengthAdjust="spacing" textLength="185" x="243" y="331.541">0.030976485805895783 ETH</text><polygon fill="#181818" points="247,361.5938,237,365.5938,247,369.5938,243,365.5938" style="stroke:#181818;stroke-width:1.0;"/><line style="stroke:#181818;stroke-width:1.0;" x1="241" x2="958" y1="365.5938" y2="365.5938"/><text fill="#000000" font-family="sans-serif" font-size="13" lengthAdjust="spacing" textLength="258" x="253" y="360.8516">Withdraw 0.030976485805895783 WETH</text><polygon fill="#181818" points="468.5,390.9043,458.5,394.9043,468.5,398.9043,464.5,394.9043" style="stroke:#181818;stroke-width:1.0;"/><line style="stroke:#181818;stroke-width:1.0;" x1="462.5" x2="958" y1="394.9043" y2="394.9043"/><text fill="#000000" font-family="sans-serif" font-size="13" lengthAdjust="spacing" textLength="185" x="474.5" y="390.1621">0.030976485805895783 ETH</text><path d="M354,407.9043 L354,447.9043 L560,447.9043 L560,417.9043 L550,407.9043 L354,407.9043 " fill="#00FFFF" style="stroke:#181818;stroke-width:0.5;"/><path d="M550,407.9043 L550,417.9043 L560,417.9043 L550,407.9043 " fill="#00FFFF" style="stroke:#181818;stroke-width:0.5;"/><text fill="#000000" font-family="sans-serif" font-size="13" lengthAdjust="spacing" textLength="75" x="360" y="425.4727">-50.0 USDC</text><text fill="#000000" font-family="sans-serif" font-size="13" lengthAdjust="spacing" textLength="185" x="360" y="440.7832">0.030976485805895783 ETH</text><path d="M570,407.9043 L570,447.9043 L795,447.9043 L795,417.9043 L785,407.9043 L570,407.9043 " fill="#00FFFF" style="stroke:#181818;stroke-width:0.5;"/><path d="M785,407.9043 L785,417.9043 L795,417.9043 L785,407.9043 " fill="#00FFFF" style="stroke:#181818;stroke-width:0.5;"/><text fill="#000000" font-family="sans-serif" font-size="13" lengthAdjust="spacing" textLength="67" x="576" y="425.4727">50.0 USDC</text><text fill="#000000" font-family="sans-serif" font-size="13" lengthAdjust="spacing" textLength="204" x="576" y="440.7832">-0.030976485805895783 WETH</text><path d="M127,407.9043 L127,447.9043 L344,447.9043 L344,417.9043 L334,407.9043 L127,407.9043 " fill="#00FFFF" style="stroke:#181818;stroke-width:0.5;"/><path d="M334,407.9043 L334,417.9043 L344,417.9043 L334,407.9043 " fill="#00FFFF" style="stroke:#181818;stroke-width:0.5;"/><text fill="#000000" font-family="sans-serif" font-size="13" lengthAdjust="spacing" textLength="193" x="133" y="425.4727">-0.030976485805895783 ETH</text><text fill="#000000" font-family="sans-serif" font-size="13" lengthAdjust="spacing" textLength="196" x="133" y="440.7832">0.030976485805895783 WETH</text><path d="M28,465.5254 L28,505.5254 L117,505.5254 L117,475.5254 L107,465.5254 L28,465.5254 " fill="#00FFFF" style="stroke:#181818;stroke-width:0.5;"/><path d="M107,465.5254 L107,475.5254 L117,475.5254 L107,465.5254 " fill="#00FFFF" style="stroke:#181818;stroke-width:0.5;"/><text fill="#000000" font-family="sans-serif" font-size="13" lengthAdjust="spacing" textLength="65" x="34" y="483.0938">-0.03 ETH</text><text fill="#000000" font-family="sans-serif" font-size="13" lengthAdjust="spacing" textLength="68" x="34" y="498.4043">0.03 WETH</text><path d="M127,465.5254 L127,505.5254 L344,505.5254 L344,475.5254 L334,465.5254 L127,465.5254 " fill="#00FFFF" style="stroke:#181818;stroke-width:0.5;"/><path d="M334,465.5254 L334,475.5254 L344,475.5254 L334,465.5254 " fill="#00FFFF" style="stroke:#181818;stroke-width:0.5;"/><text fill="#000000" font-family="sans-serif" font-size="13" lengthAdjust="spacing" textLength="193" x="133" y="483.0938">-0.000976485805895783 ETH</text><text fill="#000000" font-family="sans-serif" font-size="13" lengthAdjust="spacing" textLength="196" x="133" y="498.4043">0.000976485805895783 WETH</text><path d="M354,465.5254 L354,505.5254 L560,505.5254 L560,475.5254 L550,465.5254 L354,465.5254 " fill="#00FFFF" style="stroke:#181818;stroke-width:0.5;"/><path d="M550,465.5254 L550,475.5254 L560,475.5254 L550,465.5254 " fill="#00FFFF" style="stroke:#181818;stroke-width:0.5;"/><text fill="#000000" font-family="sans-serif" font-size="13" lengthAdjust="spacing" textLength="75" x="360" y="483.0938">-50.0 USDC</text><text fill="#000000" font-family="sans-serif" font-size="13" lengthAdjust="spacing" textLength="185" x="360" y="498.4043">0.030976485805895783 ETH</text><path d="M570,465.5254 L570,505.5254 L795,505.5254 L795,475.5254 L785,465.5254 L570,465.5254 " fill="#00FFFF" style="stroke:#181818;stroke-width:0.5;"/><path d="M785,465.5254 L785,475.5254 L795,475.5254 L785,465.5254 " fill="#00FFFF" style="stroke:#181818;stroke-width:0.5;"/><text fill="#000000" font-family="sans-serif" font-size="13" lengthAdjust="spacing" textLength="67" x="576" y="483.0938">50.0 USDC</text><text fill="#000000" font-family="sans-serif" font-size="13" lengthAdjust="spacing" textLength="204" x="576" y="498.4043">-0.030976485805895783 WETH</text><!--SRC=[rL9DZzCm5BpxLrZB1Gu9p_5dgYfIQOkuWRQBUdRymURIX3JBxi_7JZTEWNQr73YGGvJdpBnvRyRQ36sFR-2fNDbDdbF9-0tMHrngQsE1KQVxeJ5Dfmz3nAsXq7akrgOOSIQKmfW2BvVxNdUTitWxtBk-gfRBj_ljtQTtLONq92AOX23oOUj6SYnfxTmV8dIbQPvB1nz77DMQXi87aVNjPxnnli6xHzsD8k4as-rNNwBGRsr8UF8SIcd7Dh6C1KReMzy-T1YUbA9E2gDBNe8JnbD9gE9CUM0rDvII8EkK5OLXJ0Xk2r3KX8ab45xKbg3aKrObBnOOGmuKX-rHyYVydx2Bi47N7flX18ik8OGExU1m-yFri_TlzFS7ZRBKR8QxWyMHWD1xF1EJs8cOUDa5OlX8BX1AMA49U2TAgAbZXe04fOM2uBiikQyLTy2KbM2C9zm8MZfVq_0k7ACe1HcsdC9QuBjU7uu-pCM3FlwwswnHIZ80fpZEW77ES2IOuWguAhbKptEV-pWJBnCYFcNzIoxxPhYtlNvyGUYSEAtraj1vSCc6v-3clQ_IBmUPR3ercljarmU_t2cjS-hqgdkJNPts5UhnNls3kno9S6qc-1j7_gEGVW80]--></g></svg>