<?xml version="1.0" encoding="UTF-8" standalone="no"?><svg xmlns="http://www.w3.org/2000/svg" xmlns:xlink="http://www.w3.org/1999/xlink" contentStyleType="text/css" height="649px" preserveAspectRatio="none" style="width:1087px;height:649px;background:#FFFFFF;" version="1.1" viewBox="0 0 1087 649" width="1087px" zoomAndPan="magnify"><defs/><g><rect fill="none" height="126.5527" style="stroke:#000000;stroke-width:1.5;" width="618" x="10" y="102.9531"/><rect fill="none" height="214.4844" style="stroke:#000000;stroke-width:1.5;" width="964" x="117" y="243.5059"/><line style="stroke:#181818;stroke-width:0.5;stroke-dasharray:5.0,5.0;" x1="73" x2="73" y1="85.9531" y2="525.6113"/><line style="stroke:#181818;stroke-width:0.5;stroke-dasharray:5.0,5.0;" x1="234" x2="234" y1="85.9531" y2="525.6113"/><line style="stroke:#181818;stroke-width:0.5;stroke-dasharray:5.0,5.0;" x1="454" x2="454" y1="85.9531" y2="525.6113"/><line style="stroke:#181818;stroke-width:0.5;stroke-dasharray:5.0,5.0;" x1="679.5" x2="679.5" y1="85.9531" y2="525.6113"/><line style="stroke:#181818;stroke-width:0.5;stroke-dasharray:5.0,5.0;" x1="956" x2="956" y1="85.9531" y2="525.6113"/><text fill="#000000" font-family="sans-serif" font-size="14" lengthAdjust="spacing" textLength="100" x="20" y="83">0x9AdD..3745</text><ellipse cx="73" cy="17.9648" fill="#E2E2F0" rx="8" ry="8" style="stroke:#181818;stroke-width:0.5;"/><path d="M73,25.9648 L73,52.9648 M60,33.9648 L86,33.9648 M73,52.9648 L60,67.9648 M73,52.9648 L86,67.9648 " fill="none" style="stroke:#181818;stroke-width:0.5;"/><text fill="#000000" font-family="sans-serif" font-size="14" lengthAdjust="spacing" textLength="100" x="20" y="538.1465">0x9AdD..3745</text><ellipse cx="73" cy="549.5996" fill="#E2E2F0" rx="8" ry="8" style="stroke:#181818;stroke-width:0.5;"/><path d="M73,557.5996 L73,584.5996 M60,565.5996 L86,565.5996 M73,584.5996 L60,599.5996 M73,584.5996 L86,599.5996 " fill="none" style="stroke:#181818;stroke-width:0.5;"/><rect fill="#E2E2F0" height="63.4648" rx="2.5" ry="2.5" style="stroke:#181818;stroke-width:0.5;" width="129" x="170" y="21.4883"/><text fill="#000000" font-family="sans-serif" font-size="14" font-style="italic" lengthAdjust="spacing" textLength="115" x="177" y="42.0234">«Wrapped Ether»</text><text fill="#000000" font-family="sans-serif" font-size="14" font-style="italic" lengthAdjust="spacing" textLength="63" x="203" y="58.5117">«(WETH)»</text><text fill="#000000" font-family="sans-serif" font-size="14" lengthAdjust="spacing" textLength="97" x="186" y="75">0xC02a..6Cc2</text><rect fill="#E2E2F0" height="63.4648" rx="2.5" ry="2.5" style="stroke:#181818;stroke-width:0.5;" width="129" x="170" y="524.6113"/><text fill="#000000" font-family="sans-serif" font-size="14" font-style="italic" lengthAdjust="spacing" textLength="115" x="177" y="545.1465">«Wrapped Ether»</text><text fill="#000000" font-family="sans-serif" font-size="14" font-style="italic" lengthAdjust="spacing" textLength="63" x="203" y="561.6348">«(WETH)»</text><text fill="#000000" font-family="sans-serif" font-size="14" lengthAdjust="spacing" textLength="97" x="186" y="578.123">0xC02a..6Cc2</text><text fill="#000000" font-family="sans-serif" font-size="14" lengthAdjust="spacing" textLength="95" x="404" y="83">0x6470..3BEe</text><ellipse cx="454.5" cy="17.9648" fill="#E2E2F0" rx="8" ry="8" style="stroke:#181818;stroke-width:0.5;"/><path d="M454.5,25.9648 L454.5,52.9648 M441.5,33.9648 L467.5,33.9648 M454.5,52.9648 L441.5,67.9648 M454.5,52.9648 L467.5,67.9648 " fill="none" style="stroke:#181818;stroke-width:0.5;"/><text fill="#000000" font-family="sans-serif" font-size="14" lengthAdjust="spacing" textLength="95" x="404" y="538.1465">0x6470..3BEe</text><ellipse cx="454.5" cy="549.5996" fill="#E2E2F0" rx="8" ry="8" style="stroke:#181818;stroke-width:0.5;"/><path d="M454.5,557.5996 L454.5,584.5996 M441.5,565.5996 L467.5,565.5996 M454.5,584.5996 L441.5,599.5996 M454.5,584.5996 L467.5,599.5996 " fill="none" style="stroke:#181818;stroke-width:0.5;"/><rect fill="#E2E2F0" height="63.4648" rx="2.5" ry="2.5" style="stroke:#181818;stroke-width:0.5;" width="129" x="615.5" y="21.4883"/><text fill="#000000" font-family="sans-serif" font-size="14" font-style="italic" lengthAdjust="spacing" textLength="115" x="622.5" y="42.0234">«CRO Defi Swap»</text><text fill="#000000" font-family="sans-serif" font-size="14" font-style="italic" lengthAdjust="spacing" textLength="100" x="630" y="58.5117">«(CRO-SWAP)»</text><text fill="#000000" font-family="sans-serif" font-size="14" lengthAdjust="spacing" textLength="96" x="632" y="75">0x3Aa3..7e0F</text><rect fill="#E2E2F0" height="63.4648" rx="2.5" ry="2.5" style="stroke:#181818;stroke-width:0.5;" width="129" x="615.5" y="524.6113"/><text fill="#000000" font-family="sans-serif" font-size="14" font-style="italic" lengthAdjust="spacing" textLength="115" x="622.5" y="545.1465">«CRO Defi Swap»</text><text fill="#000000" font-family="sans-serif" font-size="14" font-style="italic" lengthAdjust="spacing" textLength="100" x="630" y="561.6348">«(CRO-SWAP)»</text><text fill="#000000" font-family="sans-serif" font-size="14" lengthAdjust="spacing" textLength="96" x="632" y="578.123">0x3Aa3..7e0F</text><rect fill="#E2E2F0" height="79.9531" rx="2.5" ry="2.5" style="stroke:#181818;stroke-width:0.5;" width="230" x="841" y="5"/><text fill="#000000" font-family="sans-serif" font-size="14" font-style="italic" lengthAdjust="spacing" textLength="52" x="930" y="25.5352">«1inch»</text><text fill="#000000" font-family="sans-serif" font-size="14" font-style="italic" lengthAdjust="spacing" textLength="40" x="936" y="42.0234">«dex»</text><text fill="#000000" font-family="sans-serif" font-size="14" font-style="italic" lengthAdjust="spacing" textLength="216" x="848" y="58.5117">«1inch v4: Aggregation Router»</text><text fill="#000000" font-family="sans-serif" font-size="14" lengthAdjust="spacing" textLength="98" x="907" y="75">0x1111..097d</text><rect fill="#E2E2F0" height="79.9531" rx="2.5" ry="2.5" style="stroke:#181818;stroke-width:0.5;" width="230" x="841" y="524.6113"/><text fill="#000000" font-family="sans-serif" font-size="14" font-style="italic" lengthAdjust="spacing" textLength="52" x="930" y="545.1465">«1inch»</text><text fill="#000000" font-family="sans-serif" font-size="14" font-style="italic" lengthAdjust="spacing" textLength="40" x="936" y="561.6348">«dex»</text><text fill="#000000" font-family="sans-serif" font-size="14" font-style="italic" lengthAdjust="spacing" textLength="216" x="848" y="578.123">«1inch v4: Aggregation Router»</text><text fill="#000000" font-family="sans-serif" font-size="14" lengthAdjust="spacing" textLength="98" x="907" y="594.6113">0x1111..097d</text><path d="M10,102.9531 L623,102.9531 L623,110.2637 L613,120.2637 L10,120.2637 L10,102.9531 " fill="#EEEEEE" style="stroke:#000000;stroke-width:1.5;"/><rect fill="none" height="126.5527" style="stroke:#000000;stroke-width:1.5;" width="618" x="10" y="102.9531"/><text fill="#000000" font-family="sans-serif" font-size="13" font-weight="bold" lengthAdjust="spacing" textLength="568" x="25" y="116.5215">0x883e76ca9590e6cf37138548f04b5c3317e0e8d62c44665d2083cbee70152bd1</text><polygon fill="#181818" points="222.5,137.5742,232.5,141.5742,222.5,145.5742,226.5,141.5742" style="stroke:#181818;stroke-width:1.0;"/><line style="stroke:#181818;stroke-width:1.0;" x1="73" x2="228.5" y1="141.5742" y2="141.5742"/><text fill="#000000" font-family="sans-serif" font-size="13" lengthAdjust="spacing" textLength="57" x="80" y="136.832">0.03 ETH</text><polygon fill="#181818" points="84,166.8848,74,170.8848,84,174.8848,80,170.8848" style="stroke:#181818;stroke-width:1.0;"/><ellipse cx="234" cy="170.1348" fill="none" rx="4" ry="4" style="stroke:#181818;stroke-width:1.5;"/><line style="stroke:#181818;stroke-width:1.0;" x1="78" x2="229.5" y1="170.8848" y2="170.8848"/><text fill="#000000" font-family="sans-serif" font-size="13" lengthAdjust="spacing" textLength="121" x="90" y="166.1426">Deposit 0.03 WETH</text><path d="M28,183.8848 L28,223.8848 L117,223.8848 L117,193.8848 L107,183.8848 L28,183.8848 " fill="#00FFFF" style="stroke:#181818;stroke-width:0.5;"/><path d="M107,183.8848 L107,193.8848 L117,193.8848 L107,183.8848 " fill="#00FFFF" style="stroke:#181818;stroke-width:0.5;"/><text fill="#000000" font-family="sans-serif" font-size="13" lengthAdjust="spacing" textLength="65" x="34" y="201.4531">-0.03 ETH</text><text fill="#000000" font-family="sans-serif" font-size="13" lengthAdjust="spacing" textLength="68" x="34" y="216.7637">0.03 WETH</text><path d="M195,183.8848 L195,208.8848 L273,208.8848 L273,193.8848 L263,183.8848 L195,183.8848 " fill="#00FFFF" style="stroke:#181818;stroke-width:0.5;"/><path d="M263,183.8848 L263,193.8848 L273,193.8848 L263,183.8848 " fill="#00FFFF" style="stroke:#181818;stroke-width:0.5;"/><text fill="#000000" font-family="sans-serif" font-size="13" lengthAdjust="spacing" textLength="57" x="201" y="201.4531">0.03 ETH</text><path d="M117,243.5059 L722,243.5059 L722,250.8164 L712,260.8164 L117,260.8164 L117,243.5059 " fill="#EEEEEE" style="stroke:#000000;stroke-width:1.5;"/><rect fill="none" height="214.4844" style="stroke:#000000;stroke-width:1.5;" width="964" x="117" y="243.5059"/><text fill="#000000" font-family="sans-serif" font-size="13" font-weight="bold" lengthAdjust="spacing" textLength="560" x="132" y="257.0742">0x13142a10fe690b3e4c10708a68037e795fb85e048d70ccf15c639efb339e2e43</text><polygon fill="#181818" points="668,278.127,678,282.127,668,286.127,672,282.127" style="stroke:#181818;stroke-width:1.0;"/><line style="stroke:#181818;stroke-width:1.0;" x1="454.5" x2="674" y1="282.127" y2="282.127"/><text fill="#000000" font-family="sans-serif" font-size="13" lengthAdjust="spacing" textLength="123" x="461.5" y="277.3848">Transfer 50.0 USDC</text><polygon fill="#181818" points="944,307.4375,954,311.4375,944,315.4375,948,311.4375" style="stroke:#181818;stroke-width:1.0;"/><line style="stroke:#181818;stroke-width:1.0;" x1="680" x2="950" y1="311.4375" y2="311.4375"/><text fill="#000000" font-family="sans-serif" font-size="13" lengthAdjust="spacing" textLength="252" x="687" y="306.6953">Transfer 0.030976485805895783 WETH</text><polygon fill="#181818" points="944,336.748,954,340.748,944,344.748,948,340.748" style="stroke:#181818;stroke-width:1.0;"/><line style="stroke:#181818;stroke-width:1.0;" x1="234.5" x2="950" y1="340.748" y2="340.748"/><text fill="#000000" font-family="sans-serif" font-size="13" lengthAdjust="spacing" textLength="185" x="241.5" y="336.0059">0.030976485805895783 ETH</text><line style="stroke:#181818;stroke-width:2.0;" x1="241.5" x2="251.5" y1="365.0586" y2="375.0586"/><line style="stroke:#181818;stroke-width:2.0;" x1="241.5" x2="251.5" y1="375.0586" y2="365.0586"/><line style="stroke:#181818;stroke-width:1.0;" x1="246.5" x2="955" y1="370.0586" y2="370.0586"/><text fill="#000000" font-family="sans-serif" font-size="13" lengthAdjust="spacing" textLength="258" x="251.5" y="365.3164">Withdraw 0.030976485805895783 WETH</text><polygon fill="#181818" points="465.5,395.3691,455.5,399.3691,465.5,403.3691,461.5,399.3691" style="stroke:#181818;stroke-width:1.0;"/><line style="stroke:#181818;stroke-width:1.0;" x1="459.5" x2="955" y1="399.3691" y2="399.3691"/><text fill="#000000" font-family="sans-serif" font-size="13" lengthAdjust="spacing" textLength="185" x="471.5" y="394.627">0.030976485805895783 ETH</text><path d="M351,412.3691 L351,452.3691 L557,452.3691 L557,422.3691 L547,412.3691 L351,412.3691 " fill="#00FFFF" style="stroke:#181818;stroke-width:0.5;"/><path d="M547,412.3691 L547,422.3691 L557,422.3691 L547,412.3691 " fill="#00FFFF" style="stroke:#181818;stroke-width:0.5;"/><text fill="#000000" font-family="sans-serif" font-size="13" lengthAdjust="spacing" textLength="75" x="357" y="429.9375">-50.0 USDC</text><text fill="#000000" font-family="sans-serif" font-size="13" lengthAdjust="spacing" textLength="185" x="357" y="445.248">0.030976485805895783 ETH</text><path d="M567,412.3691 L567,452.3691 L792,452.3691 L792,422.3691 L782,412.3691 L567,412.3691 " fill="#00FFFF" style="stroke:#181818;stroke-width:0.5;"/><path d="M782,412.3691 L782,422.3691 L792,422.3691 L782,412.3691 " fill="#00FFFF" style="stroke:#181818;stroke-width:0.5;"/><text fill="#000000" font-family="sans-serif" font-size="13" lengthAdjust="spacing" textLength="67" x="573" y="429.9375">50.0 USDC</text><text fill="#000000" font-family="sans-serif" font-size="13" lengthAdjust="spacing" textLength="204" x="573" y="445.248">-0.030976485805895783 WETH</text><path d="M127,412.3691 L127,437.3691 L341,437.3691 L341,422.3691 L331,412.3691 L127,412.3691 " fill="#00FFFF" style="stroke:#181818;stroke-width:0.5;"/><path d="M331,412.3691 L331,422.3691 L341,422.3691 L331,412.3691 " fill="#00FFFF" style="stroke:#181818;stroke-width:0.5;"/><text fill="#000000" font-family="sans-serif" font-size="13" lengthAdjust="spacing" textLength="193" x="133" y="429.9375">-0.030976485805895783 ETH</text><path d="M28,469.9902 L28,509.9902 L117,509.9902 L117,479.9902 L107,469.9902 L28,469.9902 " fill="#00FFFF" style="stroke:#181818;stroke-width:0.5;"/><path d="M107,469.9902 L107,479.9902 L117,479.9902 L107,469.9902 " fill="#00FFFF" style="stroke:#181818;stroke-width:0.5;"/><text fill="#000000" font-family="sans-serif" font-size="13" lengthAdjust="spacing" textLength="65" x="34" y="487.5586">-0.03 ETH</text><text fill="#000000" font-family="sans-serif" font-size="13" lengthAdjust="spacing" textLength="68" x="34" y="502.8691">0.03 WETH</text><path d="M127,469.9902 L127,494.9902 L341,494.9902 L341,479.9902 L331,469.9902 L127,469.9902 " fill="#00FFFF" style="stroke:#181818;stroke-width:0.5;"/><path d="M331,469.9902 L331,479.9902 L341,479.9902 L331,469.9902 " fill="#00FFFF" style="stroke:#181818;stroke-width:0.5;"/><text fill="#000000" font-family="sans-serif" font-size="13" lengthAdjust="spacing" textLength="193" x="133" y="487.5586">-0.000976485805895783 ETH</text><path d="M351,469.9902 L351,509.9902 L557,509.9902 L557,479.9902 L547,469.9902 L351,469.9902 " fill="#00FFFF" style="stroke:#181818;stroke-width:0.5;"/><path d="M547,469.9902 L547,479.9902 L557,479.9902 L547,469.9902 " fill="#00FFFF" style="stroke:#181818;stroke-width:0.5;"/><text fill="#000000" font-family="sans-serif" font-size="13" lengthAdjust="spacing" textLength="75" x="357" y="487.5586">-50.0 USDC</text><text fill="#000000" font-family="sans-serif" font-size="13" lengthAdjust="spacing" textLength="185" x="357" y="502.8691">0.030976485805895783 ETH</text><path d="M567,469.9902 L567,509.9902 L792,509.9902 L792,479.9902 L782,469.9902 L567,469.9902 " fill="#00FFFF" style="stroke:#181818;stroke-width:0.5;"/><path d="M782,469.9902 L782,479.9902 L792,479.9902 L782,469.9902 " fill="#00FFFF" style="stroke:#181818;stroke-width:0.5;"/><text fill="#000000" font-family="sans-serif" font-size="13" lengthAdjust="spacing" textLength="67" x="573" y="487.5586">50.0 USDC</text><text fill="#000000" font-family="sans-serif" font-size="13" lengthAdjust="spacing" textLength="204" x="573" y="502.8691">-0.030976485805895783 WETH</text><text fill="#888888" font-family="sans-serif" font-size="10" lengthAdjust="spacing" textLength="287" x="401.5" y="616.2324">mainnet, block 16731720, Wed, 01 Mar 2023 05:33:35 GMT</text><text fill="#888888" font-family="sans-serif" font-size="10" lengthAdjust="spacing" textLength="287" x="401.5" y="628.0098">mainnet, block 16730628, Wed, 01 Mar 2023 01:52:35 GMT</text><text fill="#888888" font-family="sans-serif" font-size="10" lengthAdjust="spacing" textLength="3" x="543.5" y="639.7871"> </text><!--SRC=[rL9DSzCm4BthL-oK2ymqPYLP7_PaCXEI0fSEJ5CcPrcM4mzW6zTjy_EHaaOka7RAWGC-s5xDU_kqxstLjeFhoNTJDuqRpg7urjglGANYL34yXxKhpm4fN9eU638EA7BESoxWm-NrAHfAfa_HQ2xOaKPSKrO7OME7jeSpt6NpSfaaNANY3CmDPAOiGm6aC_rGsxeppH1m2sGcIUJ2iZtE-b9Qos0wNVUcwrm95yFMzRFPTFfwVN7zySriDeh8LA4NUNVXzkHGyiAvFqJutF0aKGxVxt7S6EwBoeiihZx1qbKrhEvDjnVn9vFLUluv2FtMXledIJ1JvRvDA4FXsz2wiTj0BzqkVFOrtAKvp3URtctCKBSDNBMtGnY5a4tVtdQ0EwsvKzAQJ6JefAsueboBL5UO5i9o7vf3fql9R9fAAKg6cbi_eK8gM55I4dsTpA9tEG0coC6xHQAVhGSSmRaVkMjlwk602xOIGXeV8BHthX_3UcL-t1eoYTr6k4yS0e6Gjp0Iezg167aZsl_5uIcdAJCKAoSpBBXBBKM5saYDFXwLYQhGmc6gIuNMLbHOoJDN5To_cKivYNdxsOwPvd3Tc-QcyhSHNX- -h9OB4WFtm6DgZu3Xdlv8fbfe53eJIZ-C6GVwXNYQ4F1n9IQxHt6iws5RzkR-6Q6HE8jh_9pGuxYY3GznZNC_IJyTNxJfq6ZiCtdwugSxnN4EdLwqBPCNt3QippzOr434lp3gFtBy9m00]--></g></svg>