<?xml version="1.0" encoding="UTF-8" standalone="no"?><svg xmlns:xlink="http://www.w3.org/1999/xlink" xmlns="http://www.w3.org/2000/svg" contentStyleType="text/css" height="2054px" preserveAspectRatio="none" style="width:1340px;height:2054px;background:#FFFFFF;" version="1.1" viewBox="0 0 1340 2054" width="1340px" zoomAndPan="magnify"><defs/><g><text fill="#000000" font-family="sans-serif" font-size="14" font-weight="bold" lengthAdjust="spacing" textLength="557" x="390" y="28.5352">0x3f019f050e79b3c7fbb5caf67fb3c842cad53e1c993f084836ae60215e3e3370</text><text fill="#000000" font-family="sans-serif" font-size="14" lengthAdjust="spacing" textLength="408" x="464.5" y="2042.2578">mainnet, block 17512892, Mon, 19 Jun 2023 09:26:23 GMT</text><rect fill="#FFFFFF" height="14" style="stroke:#181818;stroke-width:1.0;" width="10" x="106" y="1598.4219"/><rect fill="#FFFFFF" height="1300.6328" style="stroke:#181818;stroke-width:1.0;" width="10" x="314" y="404.4102"/><rect fill="#FFFFFF" height="133.8633" style="stroke:#181818;stroke-width:1.0;" width="10" x="319" y="914.4844"/><rect fill="#FFFFFF" height="87.9316" style="stroke:#181818;stroke-width:1.0;" width="10" x="319" y="1538.4902"/><rect fill="#FFFFFF" height="14" style="stroke:#181818;stroke-width:1.0;" width="10" x="573" y="464.3418"/><rect fill="#FFFFFF" height="44.6211" style="stroke:#181818;stroke-width:1.0;" width="10" x="573" y="779.3105"/><rect fill="#FFFFFF" height="44.6211" style="stroke:#181818;stroke-width:1.0;" width="10" x="573" y="989.7266"/><rect fill="#FFFFFF" height="44.6211" style="stroke:#181818;stroke-width:1.0;" width="10" x="573" y="1158.9004"/><rect fill="#FFFFFF" height="44.6211" style="stroke:#181818;stroke-width:1.0;" width="10" x="573" y="1374.0059"/><rect fill="#FFFFFF" height="161.8633" style="stroke:#181818;stroke-width:1.0;" width="10" x="573" y="1478.5586"/><rect fill="#FFFFFF" height="663.9375" style="stroke:#181818;stroke-width:1.0;" width="10" x="928" y="599.5156"/><rect fill="#FFFFFF" height="44.6211" style="stroke:#181818;stroke-width:1.0;" width="10" x="1243" y="674.7578"/><line style="stroke:#181818;stroke-width:0.5;stroke-dasharray:5.0,5.0;" x1="111" x2="111" y1="123.4414" y2="1946.7695"/><line style="stroke:#181818;stroke-width:0.5;stroke-dasharray:5.0,5.0;" x1="318.5" x2="318.5" y1="123.4414" y2="1946.7695"/><line style="stroke:#181818;stroke-width:0.5;stroke-dasharray:5.0,5.0;" x1="577.5" x2="577.5" y1="123.4414" y2="1946.7695"/><line style="stroke:#181818;stroke-width:0.5;stroke-dasharray:5.0,5.0;" x1="933" x2="933" y1="123.4414" y2="1946.7695"/><line style="stroke:#181818;stroke-width:0.5;stroke-dasharray:5.0,5.0;" x1="1247.5" x2="1247.5" y1="123.4414" y2="1946.7695"/><text fill="#000000" font-family="sans-serif" font-size="14" lengthAdjust="spacing" textLength="98" x="59" y="120.4883">0x04bd..8287</text><ellipse cx="111" cy="55.4531" fill="#E2E2F0" rx="8" ry="8" style="stroke:#181818;stroke-width:0.5;"/><path d="M111,63.4531 L111,90.4531 M98,71.4531 L124,71.4531 M111,90.4531 L98,105.4531 M111,90.4531 L124,105.4531 " fill="none" style="stroke:#181818;stroke-width:0.5;"/><text fill="#000000" font-family="sans-serif" font-size="14" lengthAdjust="spacing" textLength="98" x="59" y="1959.3047">0x04bd..8287</text><ellipse cx="111" cy="1970.7578" fill="#E2E2F0" rx="8" ry="8" style="stroke:#181818;stroke-width:0.5;"/><path d="M111,1978.7578 L111,2005.7578 M98,1986.7578 L124,1986.7578 M111,2005.7578 L98,2020.7578 M111,2005.7578 L124,2020.7578 " fill="none" style="stroke:#181818;stroke-width:0.5;"/><rect fill="#E2E2F0" height="46.9766" rx="2.5" ry="2.5" style="stroke:#181818;stroke-width:0.5;" width="137" x="250.5" y="75.4648"/><text fill="#000000" font-family="sans-serif" font-size="14" font-style="italic" lengthAdjust="spacing" textLength="123" x="257.5" y="96">«UniversalRouter»</text><text fill="#000000" font-family="sans-serif" font-size="14" lengthAdjust="spacing" textLength="87" x="275.5" y="112.4883">0x3fc9..7fad</text><rect fill="#E2E2F0" height="46.9766" rx="2.5" ry="2.5" style="stroke:#181818;stroke-width:0.5;" width="137" x="250.5" y="1945.7695"/><text fill="#000000" font-family="sans-serif" font-size="14" font-style="italic" lengthAdjust="spacing" textLength="123" x="257.5" y="1966.3047">«UniversalRouter»</text><text fill="#000000" font-family="sans-serif" font-size="14" lengthAdjust="spacing" textLength="87" x="275.5" y="1982.793">0x3fc9..7fad</text><rect fill="#E2E2F0" height="79.9531" rx="2.5" ry="2.5" style="stroke:#181818;stroke-width:0.5;" width="129" x="513.5" y="42.4883"/><text fill="#000000" font-family="sans-serif" font-size="14" font-style="italic" lengthAdjust="spacing" textLength="115" x="520.5" y="63.0234">«Wrapped Ether»</text><text fill="#000000" font-family="sans-serif" font-size="14" font-style="italic" lengthAdjust="spacing" textLength="63" x="546.5" y="79.5117">«(WETH)»</text><text fill="#000000" font-family="sans-serif" font-size="14" font-style="italic" lengthAdjust="spacing" textLength="62" x="547" y="96">«WETH9»</text><text fill="#000000" font-family="sans-serif" font-size="14" lengthAdjust="spacing" textLength="91" x="532.5" y="112.4883">0xc02a..6cc2</text><rect fill="#E2E2F0" height="79.9531" rx="2.5" ry="2.5" style="stroke:#181818;stroke-width:0.5;" width="129" x="513.5" y="1945.7695"/><text fill="#000000" font-family="sans-serif" font-size="14" font-style="italic" lengthAdjust="spacing" textLength="115" x="520.5" y="1966.3047">«Wrapped Ether»</text><text fill="#000000" font-family="sans-serif" font-size="14" font-style="italic" lengthAdjust="spacing" textLength="63" x="546.5" y="1982.793">«(WETH)»</text><text fill="#000000" font-family="sans-serif" font-size="14" font-style="italic" lengthAdjust="spacing" textLength="62" x="547" y="1999.2813">«WETH9»</text><text fill="#000000" font-family="sans-serif" font-size="14" lengthAdjust="spacing" textLength="91" x="532.5" y="2015.7695">0xc02a..6cc2</text><rect fill="#E2E2F0" height="46.9766" rx="2.5" ry="2.5" style="stroke:#181818;stroke-width:0.5;" width="134" x="866" y="75.4648"/><text fill="#000000" font-family="sans-serif" font-size="14" font-style="italic" lengthAdjust="spacing" textLength="120" x="873" y="96">«UniswapV3Pool»</text><text fill="#000000" font-family="sans-serif" font-size="14" lengthAdjust="spacing" textLength="97" x="884.5" y="112.4883">0x88e6..5640</text><rect fill="#E2E2F0" height="46.9766" rx="2.5" ry="2.5" style="stroke:#181818;stroke-width:0.5;" width="134" x="866" y="1945.7695"/><text fill="#000000" font-family="sans-serif" font-size="14" font-style="italic" lengthAdjust="spacing" textLength="120" x="873" y="1966.3047">«UniswapV3Pool»</text><text fill="#000000" font-family="sans-serif" font-size="14" lengthAdjust="spacing" textLength="97" x="884.5" y="1982.793">0x88e6..5640</text><rect fill="#E2E2F0" height="79.9531" rx="2.5" ry="2.5" style="stroke:#181818;stroke-width:0.5;" width="135" x="1180.5" y="42.4883"/><text fill="#000000" font-family="sans-serif" font-size="14" font-style="italic" lengthAdjust="spacing" textLength="78" x="1209" y="63.0234">«USD Coin»</text><text fill="#000000" font-family="sans-serif" font-size="14" font-style="italic" lengthAdjust="spacing" textLength="62" x="1217" y="79.5117">«(USDC)»</text><text fill="#000000" font-family="sans-serif" font-size="14" font-style="italic" lengthAdjust="spacing" textLength="121" x="1187.5" y="96">«FiatTokenProxy»</text><text fill="#000000" font-family="sans-serif" font-size="14" lengthAdjust="spacing" textLength="96" x="1200" y="112.4883">0xa0b8..eb48</text><rect fill="#E2E2F0" height="79.9531" rx="2.5" ry="2.5" style="stroke:#181818;stroke-width:0.5;" width="135" x="1180.5" y="1945.7695"/><text fill="#000000" font-family="sans-serif" font-size="14" font-style="italic" lengthAdjust="spacing" textLength="78" x="1209" y="1966.3047">«USD Coin»</text><text fill="#000000" font-family="sans-serif" font-size="14" font-style="italic" lengthAdjust="spacing" textLength="62" x="1217" y="1982.793">«(USDC)»</text><text fill="#000000" font-family="sans-serif" font-size="14" font-style="italic" lengthAdjust="spacing" textLength="121" x="1187.5" y="1999.2813">«FiatTokenProxy»</text><text fill="#000000" font-family="sans-serif" font-size="14" lengthAdjust="spacing" textLength="96" x="1200" y="2015.7695">0xa0b8..eb48</text><rect fill="#FFFFFF" height="14" style="stroke:#181818;stroke-width:1.0;" width="10" x="106" y="1598.4219"/><rect fill="#FFFFFF" height="1300.6328" style="stroke:#181818;stroke-width:1.0;" width="10" x="314" y="404.4102"/><rect fill="#FFFFFF" height="133.8633" style="stroke:#181818;stroke-width:1.0;" width="10" x="319" y="914.4844"/><rect fill="#FFFFFF" height="87.9316" style="stroke:#181818;stroke-width:1.0;" width="10" x="319" y="1538.4902"/><rect fill="#FFFFFF" height="14" style="stroke:#181818;stroke-width:1.0;" width="10" x="573" y="464.3418"/><rect fill="#FFFFFF" height="44.6211" style="stroke:#181818;stroke-width:1.0;" width="10" x="573" y="779.3105"/><rect fill="#FFFFFF" height="44.6211" style="stroke:#181818;stroke-width:1.0;" width="10" x="573" y="989.7266"/><rect fill="#FFFFFF" height="44.6211" style="stroke:#181818;stroke-width:1.0;" width="10" x="573" y="1158.9004"/><rect fill="#FFFFFF" height="44.6211" style="stroke:#181818;stroke-width:1.0;" width="10" x="573" y="1374.0059"/><rect fill="#FFFFFF" height="161.8633" style="stroke:#181818;stroke-width:1.0;" width="10" x="573" y="1478.5586"/><rect fill="#FFFFFF" height="663.9375" style="stroke:#181818;stroke-width:1.0;" width="10" x="928" y="599.5156"/><rect fill="#FFFFFF" height="44.6211" style="stroke:#181818;stroke-width:1.0;" width="10" x="1243" y="674.7578"/><path d="M5,138.4414 L5,255.4414 L217,255.4414 L217,148.4414 L207,138.4414 L5,138.4414 " fill="#FEFFDD" style="stroke:#181818;stroke-width:0.5;"/><path d="M207,138.4414 L207,148.4414 L217,148.4414 L207,138.4414 " fill="#FEFFDD" style="stroke:#181818;stroke-width:0.5;"/><text fill="#000000" font-family="sans-serif" font-size="13" lengthAdjust="spacing" textLength="84" x="11" y="156.0098">Nonce: 1,789</text><text fill="#000000" font-family="sans-serif" font-size="13" lengthAdjust="spacing" textLength="191" x="11" y="171.3203">Gas Price: 31.749720311 Gwei</text><text fill="#000000" font-family="sans-serif" font-size="13" lengthAdjust="spacing" textLength="185" x="11" y="186.6309">Max Fee: 44.631775126 Gwei</text><text fill="#000000" font-family="sans-serif" font-size="13" lengthAdjust="spacing" textLength="137" x="11" y="201.9414">Max Priority: 0.1 Gwei</text><text fill="#000000" font-family="sans-serif" font-size="13" lengthAdjust="spacing" textLength="119" x="11" y="217.252">Gas Limit: 216,141</text><text fill="#000000" font-family="sans-serif" font-size="13" lengthAdjust="spacing" textLength="118" x="11" y="232.5625">Gas Used: 143,735</text><text fill="#000000" font-family="sans-serif" font-size="13" lengthAdjust="spacing" textLength="114" x="11" y="247.873">Tx Fee: 0.005 ETH</text><polygon fill="#181818" points="302,400.4102,312,404.4102,302,408.4102,306,404.4102" style="stroke:#181818;stroke-width:1.0;"/><line style="stroke:#181818;stroke-width:1.0;" x1="111" x2="308" y1="404.4102" y2="404.4102"/><text fill="#000000" font-family="sans-serif" font-size="13" lengthAdjust="spacing" textLength="53" x="118" y="277.1836">execute(</text><text fill="#000000" font-family="sans-serif" font-size="13" lengthAdjust="spacing" textLength="144" x="118" y="292.4941">commands: 0x0b010c,</text><text fill="#000000" font-family="sans-serif" font-size="13" lengthAdjust="spacing" textLength="52" x="118" y="307.8047">inputs: [</text><text fill="#000000" font-family="sans-serif" font-size="13" lengthAdjust="spacing" textLength="170" x="126" y="323.1152">0: 0x00000000..a2444d8a,</text><text fill="#000000" font-family="sans-serif" font-size="13" lengthAdjust="spacing" textLength="172" x="126" y="338.4258">1: 0x00000000..00000000,</text><text fill="#000000" font-family="sans-serif" font-size="13" lengthAdjust="spacing" textLength="176" x="126" y="353.7363">2: 0x00000000..00000000],</text><text fill="#000000" font-family="sans-serif" font-size="13" lengthAdjust="spacing" textLength="157" x="118" y="369.0469">deadline: 1,687,168,559)</text><text fill="#000000" font-family="sans-serif" font-size="13" lengthAdjust="spacing" textLength="78" x="118" y="384.3574">143,735 gas</text><text fill="#000000" font-family="sans-serif" font-size="13" lengthAdjust="spacing" textLength="73" x="118" y="399.668">47.656 ETH</text><polygon fill="#181818" points="561,460.3418,571,464.3418,561,468.3418,565,464.3418" style="stroke:#181818;stroke-width:1.0;"/><line style="stroke:#181818;stroke-width:1.0;" x1="324" x2="567" y1="464.3418" y2="464.3418"/><text fill="#000000" font-family="sans-serif" font-size="13" lengthAdjust="spacing" textLength="55" x="331" y="428.9785">deposit()</text><text fill="#000000" font-family="sans-serif" font-size="13" lengthAdjust="spacing" textLength="70" x="331" y="444.2891">23,974 gas</text><text fill="#000000" font-family="sans-serif" font-size="13" lengthAdjust="spacing" textLength="73" x="331" y="459.5996">47.656 ETH</text><polygon fill="#181818" points="335,474.3418,325,478.3418,335,482.3418,331,478.3418" style="stroke:#181818;stroke-width:1.0;"/><line style="stroke:#181818;stroke-width:1.0;stroke-dasharray:2.0,2.0;" x1="329" x2="577" y1="478.3418" y2="478.3418"/><polygon fill="#181818" points="916,595.5156,926,599.5156,916,603.5156,920,599.5156" style="stroke:#181818;stroke-width:1.0;"/><line style="stroke:#181818;stroke-width:1.0;" x1="324" x2="922" y1="599.5156" y2="599.5156"/><text fill="#000000" font-family="sans-serif" font-size="13" lengthAdjust="spacing" textLength="36" x="331" y="502.9102">swap(</text><text fill="#000000" font-family="sans-serif" font-size="13" lengthAdjust="spacing" textLength="157" x="331" y="518.2207">recipient: 0x04bD..8287,</text><text fill="#000000" font-family="sans-serif" font-size="13" lengthAdjust="spacing" textLength="114" x="331" y="533.5313">zeroForOne: false,</text><text fill="#000000" font-family="sans-serif" font-size="13" lengthAdjust="spacing" textLength="213" x="331" y="548.8418">amountSpecified: -82000000000,</text><text fill="#000000" font-family="sans-serif" font-size="13" lengthAdjust="spacing" textLength="583" x="331" y="564.1523">sqrtPriceLimitX96: 1,461,446,703,485,210,103,287,273,052,203,,988,822,378,723,970,341,</text><text fill="#000000" font-family="sans-serif" font-size="13" lengthAdjust="spacing" textLength="191" x="331" y="579.4629">data: 0x00000000..00000000)</text><text fill="#000000" font-family="sans-serif" font-size="13" lengthAdjust="spacing" textLength="70" x="331" y="594.7734">74,396 gas</text><polygon fill="#181818" points="1231,670.7578,1241,674.7578,1231,678.7578,1235,674.7578" style="stroke:#181818;stroke-width:1.0;"/><line style="stroke:#181818;stroke-width:1.0;" x1="938" x2="1237" y1="674.7578" y2="674.7578"/><text fill="#000000" font-family="sans-serif" font-size="13" lengthAdjust="spacing" textLength="53" x="945" y="624.084">transfer(</text><text fill="#000000" font-family="sans-serif" font-size="13" lengthAdjust="spacing" textLength="122" x="945" y="639.3945">dst: 0x04bD..8287,</text><text fill="#000000" font-family="sans-serif" font-size="13" lengthAdjust="spacing" textLength="137" x="945" y="654.7051">wad: 82,000,000,000)</text><text fill="#000000" font-family="sans-serif" font-size="13" lengthAdjust="spacing" textLength="70" x="945" y="670.0156">26,917 gas</text><polygon fill="#181818" points="949,715.3789,939,719.3789,949,723.3789,945,719.3789" style="stroke:#181818;stroke-width:1.0;"/><line style="stroke:#181818;stroke-width:1.0;stroke-dasharray:2.0,2.0;" x1="943" x2="1247" y1="719.3789" y2="719.3789"/><text fill="#000000" font-family="sans-serif" font-size="13" lengthAdjust="spacing" textLength="4" x="955" y="699.3262"> </text><text fill="#000000" font-family="sans-serif" font-size="13" lengthAdjust="spacing" textLength="25" x="955" y="714.6367">true</text><polygon fill="#181818" points="594,775.3105,584,779.3105,594,783.3105,590,779.3105" style="stroke:#181818;stroke-width:1.0;"/><line style="stroke:#181818;stroke-width:1.0;" x1="588" x2="927" y1="779.3105" y2="779.3105"/><text fill="#000000" font-family="sans-serif" font-size="13" lengthAdjust="spacing" textLength="67" x="600" y="743.9473">balanceOf(</text><text fill="#000000" font-family="sans-serif" font-size="13" lengthAdjust="spacing" textLength="91" x="600" y="759.2578">0x88e6..5640)</text><text fill="#000000" font-family="sans-serif" font-size="13" lengthAdjust="spacing" textLength="62" x="600" y="774.5684">2,534 gas</text><polygon fill="#181818" points="916,819.9316,926,823.9316,916,827.9316,920,823.9316" style="stroke:#181818;stroke-width:1.0;"/><line style="stroke:#181818;stroke-width:1.0;stroke-dasharray:2.0,2.0;" x1="578" x2="922" y1="823.9316" y2="823.9316"/><text fill="#000000" font-family="sans-serif" font-size="13" lengthAdjust="spacing" textLength="4" x="585" y="803.8789"> </text><text fill="#000000" font-family="sans-serif" font-size="13" lengthAdjust="spacing" textLength="216" x="585" y="819.1895">93,454,,431,606,916,877,326,776</text><polygon fill="#181818" points="340,910.4844,330,914.4844,340,918.4844,336,914.4844" style="stroke:#181818;stroke-width:1.0;"/><line style="stroke:#181818;stroke-width:1.0;" x1="334" x2="927" y1="914.4844" y2="914.4844"/><text fill="#000000" font-family="sans-serif" font-size="13" lengthAdjust="spacing" textLength="158" x="346" y="848.5">uniswapV3SwapCallback(</text><text fill="#000000" font-family="sans-serif" font-size="13" lengthAdjust="spacing" textLength="197" x="346" y="863.8105">amount0Delta: -82000000000,</text><text fill="#000000" font-family="sans-serif" font-size="13" lengthAdjust="spacing" textLength="289" x="346" y="879.1211">amount1Delta: 47,,628,336,242,120,781,963,</text><text fill="#000000" font-family="sans-serif" font-size="13" lengthAdjust="spacing" textLength="191" x="346" y="894.4316">data: 0x00000000..00000000)</text><text fill="#000000" font-family="sans-serif" font-size="13" lengthAdjust="spacing" textLength="62" x="346" y="909.7422">8,634 gas</text><polygon fill="#181818" points="561,985.7266,571,989.7266,561,993.7266,565,989.7266" style="stroke:#181818;stroke-width:1.0;"/><line style="stroke:#181818;stroke-width:1.0;" x1="329" x2="567" y1="989.7266" y2="989.7266"/><text fill="#000000" font-family="sans-serif" font-size="13" lengthAdjust="spacing" textLength="53" x="336" y="939.0527">transfer(</text><text fill="#000000" font-family="sans-serif" font-size="13" lengthAdjust="spacing" textLength="119" x="336" y="954.3633">dst: 0x88e6..5640,</text><text fill="#000000" font-family="sans-serif" font-size="13" lengthAdjust="spacing" textLength="225" x="336" y="969.6738">wad: 47,,628,336,242,120,781,963)</text><text fill="#000000" font-family="sans-serif" font-size="13" lengthAdjust="spacing" textLength="62" x="336" y="984.9844">6,062 gas</text><polygon fill="#181818" points="340,1030.3477,330,1034.3477,340,1038.3477,336,1034.3477" style="stroke:#181818;stroke-width:1.0;"/><line style="stroke:#181818;stroke-width:1.0;stroke-dasharray:2.0,2.0;" x1="334" x2="577" y1="1034.3477" y2="1034.3477"/><text fill="#000000" font-family="sans-serif" font-size="13" lengthAdjust="spacing" textLength="4" x="346" y="1014.2949"> </text><text fill="#000000" font-family="sans-serif" font-size="13" lengthAdjust="spacing" textLength="25" x="346" y="1029.6055">true</text><polygon fill="#181818" points="916,1044.3477,926,1048.3477,916,1052.3477,920,1048.3477" style="stroke:#181818;stroke-width:1.0;"/><line style="stroke:#181818;stroke-width:1.0;stroke-dasharray:2.0,2.0;" x1="324" x2="922" y1="1048.3477" y2="1048.3477"/><path d="M329,1061.3477 L329,1101.3477 L412,1101.3477 L412,1071.3477 L402,1061.3477 L329,1061.3477 " fill="#FEFFDD" style="stroke:#181818;stroke-width:0.5;"/><path d="M402,1061.3477 L402,1071.3477 L412,1071.3477 L402,1061.3477 " fill="#FEFFDD" style="stroke:#181818;stroke-width:0.5;"/><text fill="#000000" font-family="sans-serif" font-size="13" lengthAdjust="spacing" textLength="4" x="335" y="1078.916"> </text><text fill="#000000" font-family="sans-serif" font-size="13" lengthAdjust="spacing" textLength="62" x="335" y="1094.2266">2,572 gas</text><polygon fill="#181818" points="594,1154.9004,584,1158.9004,594,1162.9004,590,1158.9004" style="stroke:#181818;stroke-width:1.0;"/><line style="stroke:#181818;stroke-width:1.0;" x1="588" x2="927" y1="1158.9004" y2="1158.9004"/><text fill="#000000" font-family="sans-serif" font-size="13" lengthAdjust="spacing" textLength="67" x="600" y="1123.5371">balanceOf(</text><text fill="#000000" font-family="sans-serif" font-size="13" lengthAdjust="spacing" textLength="91" x="600" y="1138.8477">0x88e6..5640)</text><text fill="#000000" font-family="sans-serif" font-size="13" lengthAdjust="spacing" textLength="50" x="600" y="1154.1582">534 gas</text><polygon fill="#181818" points="916,1199.5215,926,1203.5215,916,1207.5215,920,1203.5215" style="stroke:#181818;stroke-width:1.0;"/><line style="stroke:#181818;stroke-width:1.0;stroke-dasharray:2.0,2.0;" x1="578" x2="922" y1="1203.5215" y2="1203.5215"/><text fill="#000000" font-family="sans-serif" font-size="13" lengthAdjust="spacing" textLength="4" x="585" y="1183.4688"> </text><text fill="#000000" font-family="sans-serif" font-size="13" lengthAdjust="spacing" textLength="216" x="585" y="1198.7793">93,502,,059,943,158,998,108,739</text><polygon fill="#181818" points="335,1259.4531,325,1263.4531,335,1267.4531,331,1263.4531" style="stroke:#181818;stroke-width:1.0;"/><line style="stroke:#181818;stroke-width:1.0;stroke-dasharray:2.0,2.0;" x1="329" x2="932" y1="1263.4531" y2="1263.4531"/><text fill="#000000" font-family="sans-serif" font-size="13" lengthAdjust="spacing" textLength="4" x="341" y="1228.0898"> </text><text fill="#000000" font-family="sans-serif" font-size="13" lengthAdjust="spacing" textLength="164" x="341" y="1243.4004">amount0: -82000000000,</text><text fill="#000000" font-family="sans-serif" font-size="13" lengthAdjust="spacing" textLength="252" x="341" y="1258.7109">amount1: 47,,628,336,242,120,781,963</text><path d="M938,1276.4531 L938,1316.4531 L1029,1316.4531 L1029,1286.4531 L1019,1276.4531 L938,1276.4531 " fill="#FEFFDD" style="stroke:#181818;stroke-width:0.5;"/><path d="M1019,1276.4531 L1019,1286.4531 L1029,1286.4531 L1019,1276.4531 " fill="#FEFFDD" style="stroke:#181818;stroke-width:0.5;"/><text fill="#000000" font-family="sans-serif" font-size="13" lengthAdjust="spacing" textLength="4" x="944" y="1294.0215"> </text><text fill="#000000" font-family="sans-serif" font-size="13" lengthAdjust="spacing" textLength="70" x="944" y="1309.332">35,777 gas</text><polygon fill="#181818" points="561,1370.0059,571,1374.0059,561,1378.0059,565,1374.0059" style="stroke:#181818;stroke-width:1.0;"/><line style="stroke:#181818;stroke-width:1.0;" x1="324" x2="567" y1="1374.0059" y2="1374.0059"/><text fill="#000000" font-family="sans-serif" font-size="13" lengthAdjust="spacing" textLength="67" x="331" y="1338.6426">balanceOf(</text><text fill="#000000" font-family="sans-serif" font-size="13" lengthAdjust="spacing" textLength="92" x="331" y="1353.9531">0x3fC9..7FAD)</text><text fill="#000000" font-family="sans-serif" font-size="13" lengthAdjust="spacing" textLength="50" x="331" y="1369.2637">534 gas</text><polygon fill="#181818" points="335,1414.627,325,1418.627,335,1422.627,331,1418.627" style="stroke:#181818;stroke-width:1.0;"/><line style="stroke:#181818;stroke-width:1.0;stroke-dasharray:2.0,2.0;" x1="329" x2="577" y1="1418.627" y2="1418.627"/><text fill="#000000" font-family="sans-serif" font-size="13" lengthAdjust="spacing" textLength="4" x="341" y="1398.5742"> </text><text fill="#000000" font-family="sans-serif" font-size="13" lengthAdjust="spacing" textLength="156" x="341" y="1413.8848">27,942,873,480,256,767</text><polygon fill="#181818" points="561,1474.5586,571,1478.5586,561,1482.5586,565,1478.5586" style="stroke:#181818;stroke-width:1.0;"/><line style="stroke:#181818;stroke-width:1.0;" x1="324" x2="567" y1="1478.5586" y2="1478.5586"/><text fill="#000000" font-family="sans-serif" font-size="13" lengthAdjust="spacing" textLength="61" x="331" y="1443.1953">withdraw(</text><text fill="#000000" font-family="sans-serif" font-size="13" lengthAdjust="spacing" textLength="193" x="331" y="1458.5059">wad: 27,942,873,480,256,767)</text><text fill="#000000" font-family="sans-serif" font-size="13" lengthAdjust="spacing" textLength="62" x="331" y="1473.8164">9,220 gas</text><polygon fill="#181818" points="340,1534.4902,330,1538.4902,340,1542.4902,336,1538.4902" style="stroke:#181818;stroke-width:1.0;"/><line style="stroke:#181818;stroke-width:1.0;" x1="334" x2="572" y1="1538.4902" y2="1538.4902"/><text fill="#000000" font-family="sans-serif" font-size="13" lengthAdjust="spacing" textLength="58" x="346" y="1503.127">fallback()</text><text fill="#000000" font-family="sans-serif" font-size="13" lengthAdjust="spacing" textLength="42" x="346" y="1518.4375">80 gas</text><text fill="#000000" font-family="sans-serif" font-size="13" lengthAdjust="spacing" textLength="65" x="346" y="1533.748">0.028 ETH</text><polygon fill="#181818" points="127,1594.4219,117,1598.4219,127,1602.4219,123,1598.4219" style="stroke:#181818;stroke-width:1.0;"/><line style="stroke:#181818;stroke-width:1.0;" x1="121" x2="318" y1="1598.4219" y2="1598.4219"/><text fill="#000000" font-family="sans-serif" font-size="13" lengthAdjust="spacing" textLength="58" x="133" y="1563.0586">fallback()</text><text fill="#000000" font-family="sans-serif" font-size="13" lengthAdjust="spacing" textLength="34" x="133" y="1578.3691">0 gas</text><text fill="#000000" font-family="sans-serif" font-size="13" lengthAdjust="spacing" textLength="65" x="133" y="1593.6797">0.028 ETH</text><polygon fill="#181818" points="307,1608.4219,317,1612.4219,307,1616.4219,311,1612.4219" style="stroke:#181818;stroke-width:1.0;"/><line style="stroke:#181818;stroke-width:1.0;stroke-dasharray:2.0,2.0;" x1="111" x2="313" y1="1612.4219" y2="1612.4219"/><polygon fill="#181818" points="561,1622.4219,571,1626.4219,561,1630.4219,565,1626.4219" style="stroke:#181818;stroke-width:1.0;"/><line style="stroke:#181818;stroke-width:1.0;stroke-dasharray:2.0,2.0;" x1="324" x2="567" y1="1626.4219" y2="1626.4219"/><polygon fill="#181818" points="335,1636.4219,325,1640.4219,335,1644.4219,331,1640.4219" style="stroke:#181818;stroke-width:1.0;"/><line style="stroke:#181818;stroke-width:1.0;stroke-dasharray:2.0,2.0;" x1="329" x2="577" y1="1640.4219" y2="1640.4219"/><path d="M583,1653.4219 L583,1693.4219 L666,1693.4219 L666,1663.4219 L656,1653.4219 L583,1653.4219 " fill="#FEFFDD" style="stroke:#181818;stroke-width:0.5;"/><path d="M656,1653.4219 L656,1663.4219 L666,1663.4219 L656,1653.4219 " fill="#FEFFDD" style="stroke:#181818;stroke-width:0.5;"/><text fill="#000000" font-family="sans-serif" font-size="13" lengthAdjust="spacing" textLength="4" x="589" y="1670.9902"> </text><text fill="#000000" font-family="sans-serif" font-size="13" lengthAdjust="spacing" textLength="62" x="589" y="1686.3008">9,140 gas</text><polygon fill="#181818" points="122,1701.043,112,1705.043,122,1709.043,118,1705.043" style="stroke:#181818;stroke-width:1.0;"/><line style="stroke:#181818;stroke-width:1.0;stroke-dasharray:2.0,2.0;" x1="116" x2="318" y1="1705.043" y2="1705.043"/><path d="M324,1718.043 L324,1758.043 L415,1758.043 L415,1728.043 L405,1718.043 L324,1718.043 " fill="#FEFFDD" style="stroke:#181818;stroke-width:0.5;"/><path d="M405,1718.043 L405,1728.043 L415,1728.043 L405,1718.043 " fill="#FEFFDD" style="stroke:#181818;stroke-width:0.5;"/><text fill="#000000" font-family="sans-serif" font-size="13" lengthAdjust="spacing" textLength="4" x="330" y="1735.6113"> </text><text fill="#000000" font-family="sans-serif" font-size="13" lengthAdjust="spacing" textLength="70" x="330" y="1750.9219">35,611 gas</text><path d="M453,1768.6641 L453,1931.6641 L703,1931.6641 L703,1778.6641 L693,1768.6641 L453,1768.6641 " fill="#00FFFF" style="stroke:#181818;stroke-width:0.5;"/><path d="M693,1768.6641 L693,1778.6641 L703,1778.6641 L693,1768.6641 " fill="#00FFFF" style="stroke:#181818;stroke-width:0.5;"/><text fill="#000000" font-family="sans-serif" font-size="13" lengthAdjust="spacing" textLength="53" x="459" y="1786.2324">Deposit:</text><text fill="#000000" font-family="sans-serif" font-size="13" lengthAdjust="spacing" textLength="120" x="467" y="1801.543">dst: 0x3fC9..7FAD,</text><text fill="#000000" font-family="sans-serif" font-size="13" lengthAdjust="spacing" textLength="221" x="467" y="1816.8535">wad: 47,,656,279,115,601,038,730</text><text fill="#000000" font-family="sans-serif" font-size="13" lengthAdjust="spacing" textLength="56" x="459" y="1832.1641">Transfer:</text><text fill="#000000" font-family="sans-serif" font-size="13" lengthAdjust="spacing" textLength="119" x="467" y="1847.4746">src: 0x3fC9..7FAD,</text><text fill="#000000" font-family="sans-serif" font-size="13" lengthAdjust="spacing" textLength="119" x="467" y="1862.7852">dst: 0x88e6..5640,</text><text fill="#000000" font-family="sans-serif" font-size="13" lengthAdjust="spacing" textLength="221" x="467" y="1878.0957">wad: 47,,628,336,242,120,781,963</text><text fill="#000000" font-family="sans-serif" font-size="13" lengthAdjust="spacing" textLength="73" x="459" y="1893.4063">Withdrawal:</text><text fill="#000000" font-family="sans-serif" font-size="13" lengthAdjust="spacing" textLength="119" x="467" y="1908.7168">src: 0x3fC9..7FAD,</text><text fill="#000000" font-family="sans-serif" font-size="13" lengthAdjust="spacing" textLength="189" x="467" y="1924.0273">wad: 27,942,873,480,256,767</text><path d="M713,1768.6641 L713,1900.6641 L1153,1900.6641 L1153,1778.6641 L1143,1768.6641 L713,1768.6641 " fill="#00FFFF" style="stroke:#181818;stroke-width:0.5;"/><path d="M1143,1768.6641 L1143,1778.6641 L1153,1778.6641 L1143,1768.6641 " fill="#00FFFF" style="stroke:#181818;stroke-width:0.5;"/><text fill="#000000" font-family="sans-serif" font-size="13" lengthAdjust="spacing" textLength="36" x="719" y="1786.2324">Swap:</text><text fill="#000000" font-family="sans-serif" font-size="13" lengthAdjust="spacing" textLength="142" x="727" y="1801.543">sender: 0x3fC9..7FAD,</text><text fill="#000000" font-family="sans-serif" font-size="13" lengthAdjust="spacing" textLength="157" x="727" y="1816.8535">recipient: 0x04bD..8287,</text><text fill="#000000" font-family="sans-serif" font-size="13" lengthAdjust="spacing" textLength="164" x="727" y="1832.1641">amount0: -82000000000,</text><text fill="#000000" font-family="sans-serif" font-size="13" lengthAdjust="spacing" textLength="256" x="727" y="1847.4746">amount1: 47,,628,336,242,120,781,963,</text><text fill="#000000" font-family="sans-serif" font-size="13" lengthAdjust="spacing" textLength="411" x="727" y="1862.7852">sqrtPriceX96: 1,908,960,690,136,249,,716,683,134,167,751,252,</text><text fill="#000000" font-family="sans-serif" font-size="13" lengthAdjust="spacing" textLength="272" x="727" y="1878.0957">liquidity: 1,922,,912,149,612,681,006,043,</text><text fill="#000000" font-family="sans-serif" font-size="13" lengthAdjust="spacing" textLength="84" x="727" y="1893.4063">tick: 201,804</text><path d="M1163,1768.6641 L1163,1839.6641 L1333,1839.6641 L1333,1778.6641 L1323,1768.6641 L1163,1768.6641 " fill="#00FFFF" style="stroke:#181818;stroke-width:0.5;"/><path d="M1323,1768.6641 L1323,1778.6641 L1333,1778.6641 L1323,1768.6641 " fill="#00FFFF" style="stroke:#181818;stroke-width:0.5;"/><text fill="#000000" font-family="sans-serif" font-size="13" lengthAdjust="spacing" textLength="56" x="1169" y="1786.2324">Transfer:</text><text fill="#000000" font-family="sans-serif" font-size="13" lengthAdjust="spacing" textLength="129" x="1177" y="1801.543">from: 0x88e6..5640,</text><text fill="#000000" font-family="sans-serif" font-size="13" lengthAdjust="spacing" textLength="115" x="1177" y="1816.8535">to: 0x04bD..8287,</text><text fill="#000000" font-family="sans-serif" font-size="13" lengthAdjust="spacing" textLength="141" x="1177" y="1832.1641">value: 82,000,000,000</text><!--SRC=[bLRRRjj647tdLopI5mUOi7lZNWGZG677Begu2HgdAL3rOKKk4yBqKgOes-dNTvOYASkox5I092vdPuRdd9aTTbLNUqBlHKcPBMb6lROBaUjoiSXoLogy4BcHF7T59ZpBhSMTHXgXd5UKiymBBuIcIPAxPLSrWLoxAWJV0LdKJNv5cCuODvO3kMW246R9R-j0EEM2K3lZQeONvnUNYSkxfYMlw3sLYo9D3JVw5N4h4fTnGPAbQxighvOkT76VA7ERfhfqHRylBkE271z_3jMjRrUk_gDPTxvz-_QnQqwvIrELvxntZSkuGDSlhLikVK7UTT-Yu_7nqPTtbx- -ZbVnmkx7CiQhDCsKf7sik8oBpMEixjpoJ_6nQUfzHqSN9atzGfhUCIxZ8Zf-EYKdJHNw_BWuwVEVLQwxRAvy-DWszzynNXAQpfC6eKua9Ryt8VSpma0RcvnZs8zj5My8bcffDQU2CN9-vwlamjsJCuycALCbc8uogQq9_PgswhxF24q7ZnZkVNLTTJF2cG8cMN_hyyeNc54Aq29BBeUeDAKq8qXPuaD1ufCcoIJbcxUJN3FYxtsECXtDGzvSNxjGhD3xdYueepdCGnMMwmvl_JqFXD3UD7pIr74fPM4SH1lRjOrNlOq_RVi7ZOLtHLs5dZHbD31b8CliwtaO896lRZKFKgUeQmy8AxMwTKZzY26PQW-1ZSKq8uLVDgkgEy9GN83Lyd2aqIbfVRTkmqx0iQ9c95OJqjHwBABAXwu79HUdcsv1BF_wjZbhsWyHJUdgbSTxxhfPX-xJ4ftAAYhrnd3wW9pLJTlrHT9B-vTLaGYfy2iLQ2f0cWmuey3mEgRXMW3DE60j0LXZm70EGXlGFKeAGhB8g-lSqwmZ7rg2i2hoiULWn9bCBOJWnwwOaQvrOLNw5WaeLllGxs8f6GuHrF2Dl2kmJE_c6KCENCz3rwxzJjAjX0jNEsoe3oLcVTZgCJHaGkv6VgJYF5XaBvC0Kc1jqVWi2epM8F2vj5OxIRSDiHxFZK_uU-BgUk7ogwDHINhgwyZi8natHZOOfGPGt80G2hZam3Z54u61LU8bQGoenxXUgFDzPRP4ZSeyyq2OKm5L_0KkUvM6zkWFlhRw-gqZJVc0kLuLlOdqlmNz8JapoW6htuB5mu5b1gmrs1bO_C9E-mQX3cdqB1kFi6sRVnv4XaMpAUQdXTW59ygJE1_FVZdz8N1S8oQEvHaxdWBFi4ILFf3fhkg-5QsxEnhaVTePyrhWd1x8F8tTdUelnuAFjKWtHoOE4sv-uEmT1ynkbCD1fh4vrDNktwuIM_0H5PCRL2yM98gcSEJ6lG_czGJz9tUpTidfPbBC4aA63jgA1tXpsq98BDUOdc5Ooe2AM7aqkHnQC4POjVb-XFt6t0bxe1Q_33Ax-c3WP-H_CFb_9bliKsDkiCT3he-Ekn70Ne93qmvDJ_VPP7Y-qUA-QVODOyzY8rj5GLaSTxsB1T1uQ2k3tIualXnem1SbHCYZVrtThAkYVqj2Pno3UC9Z4lHI-Aym4SLJdye-6RxxNI5Lg9gXyW0tqqlWXfk7ifPjSxqlOTViqtBhwhL_F0ot2Vy3]--></g></svg>
