<?xml version="1.0" encoding="us-ascii" standalone="no"?><svg xmlns:xlink="http://www.w3.org/1999/xlink" xmlns="http://www.w3.org/2000/svg" contentStyleType="text/css" height="1403px" preserveAspectRatio="none" style="width:690px;height:1403px;background:#FFFFFF;" version="1.1" viewBox="0 0 690 1403" width="690px" zoomAndPan="magnify"><defs/><g><text fill="#000000" font-family="sans-serif" font-size="14" font-weight="bold" lengthAdjust="spacing" textLength="557" x="65.5" y="28.5352">0x3f019f050e79b3c7fbb5caf67fb3c842cad53e1c993f084836ae60215e3e3370</text><text fill="#000000" font-family="sans-serif" font-size="14" lengthAdjust="spacing" textLength="408" x="140" y="1391.0781">mainnet, block 17512892, Mon, 19 Jun 2023 09:26:23 GMT</text><rect fill="#FFFFFF" height="14" style="stroke:#181818;stroke-width:1.0;" width="10" x="52" y="1048.4844"/><rect fill="#FFFFFF" height="888.4902" style="stroke:#181818;stroke-width:1.0;" width="10" x="182.5" y="215.9941"/><rect fill="#FFFFFF" height="103.2422" style="stroke:#181818;stroke-width:1.0;" width="10" x="187.5" y="618.8945"/><rect fill="#FFFFFF" height="72.6211" style="stroke:#181818;stroke-width:1.0;" width="10" x="187.5" y="1003.8633"/><rect fill="#FFFFFF" height="14" style="stroke:#181818;stroke-width:1.0;" width="10" x="325.5" y="260.6152"/><rect fill="#FFFFFF" height="29.3105" style="stroke:#181818;stroke-width:1.0;" width="10" x="325.5" y="514.3418"/><rect fill="#FFFFFF" height="29.3105" style="stroke:#181818;stroke-width:1.0;" width="10" x="325.5" y="678.8262"/><rect fill="#FFFFFF" height="29.3105" style="stroke:#181818;stroke-width:1.0;" width="10" x="325.5" y="766.7578"/><rect fill="#FFFFFF" height="29.3105" style="stroke:#181818;stroke-width:1.0;" width="10" x="325.5" y="885.3105"/><rect fill="#FFFFFF" height="131.2422" style="stroke:#181818;stroke-width:1.0;" width="10" x="325.5" y="959.2422"/><rect fill="#FFFFFF" height="460.2109" style="stroke:#181818;stroke-width:1.0;" width="10" x="467" y="380.4785"/><rect fill="#FFFFFF" height="29.3105" style="stroke:#181818;stroke-width:1.0;" width="10" x="611.5" y="440.4102"/><line style="stroke:#181818;stroke-width:0.5;stroke-dasharray:5.0,5.0;" x1="57" x2="57" y1="123.4414" y2="1295.5898"/><line style="stroke:#181818;stroke-width:0.5;stroke-dasharray:5.0,5.0;" x1="187" x2="187" y1="123.4414" y2="1295.5898"/><line style="stroke:#181818;stroke-width:0.5;stroke-dasharray:5.0,5.0;" x1="330" x2="330" y1="123.4414" y2="1295.5898"/><line style="stroke:#181818;stroke-width:0.5;stroke-dasharray:5.0,5.0;" x1="472" x2="472" y1="123.4414" y2="1295.5898"/><line style="stroke:#181818;stroke-width:0.5;stroke-dasharray:5.0,5.0;" x1="616" x2="616" y1="123.4414" y2="1295.5898"/><text fill="#000000" font-family="sans-serif" font-size="14" lengthAdjust="spacing" textLength="98" x="5" y="120.4883">0x04bd..8287</text><ellipse cx="57" cy="55.4531" fill="#E2E2F0" rx="8" ry="8" style="stroke:#181818;stroke-width:0.5;"/><path d="M57,63.4531 L57,90.4531 M44,71.4531 L70,71.4531 M57,90.4531 L44,105.4531 M57,90.4531 L70,105.4531 " fill="none" style="stroke:#181818;stroke-width:0.5;"/><text fill="#000000" font-family="sans-serif" font-size="14" lengthAdjust="spacing" textLength="98" x="5" y="1308.125">0x04bd..8287</text><ellipse cx="57" cy="1319.5781" fill="#E2E2F0" rx="8" ry="8" style="stroke:#181818;stroke-width:0.5;"/><path d="M57,1327.5781 L57,1354.5781 M44,1335.5781 L70,1335.5781 M57,1354.5781 L44,1369.5781 M57,1354.5781 L70,1369.5781 " fill="none" style="stroke:#181818;stroke-width:0.5;"/><rect fill="#E2E2F0" height="46.9766" rx="2.5" ry="2.5" style="stroke:#181818;stroke-width:0.5;" width="137" x="119" y="75.4648"/><text fill="#000000" font-family="sans-serif" font-size="14" font-style="italic" lengthAdjust="spacing" textLength="123" x="126" y="96">&#171;UniversalRouter&#187;</text><text fill="#000000" font-family="sans-serif" font-size="14" lengthAdjust="spacing" textLength="87" x="144" y="112.4883">0x3fc9..7fad</text><rect fill="#E2E2F0" height="46.9766" rx="2.5" ry="2.5" style="stroke:#181818;stroke-width:0.5;" width="137" x="119" y="1294.5898"/><text fill="#000000" font-family="sans-serif" font-size="14" font-style="italic" lengthAdjust="spacing" textLength="123" x="126" y="1315.125">&#171;UniversalRouter&#187;</text><text fill="#000000" font-family="sans-serif" font-size="14" lengthAdjust="spacing" textLength="87" x="144" y="1331.6133">0x3fc9..7fad</text><rect fill="#E2E2F0" height="79.9531" rx="2.5" ry="2.5" style="stroke:#181818;stroke-width:0.5;" width="129" x="266" y="42.4883"/><text fill="#000000" font-family="sans-serif" font-size="14" font-style="italic" lengthAdjust="spacing" textLength="115" x="273" y="63.0234">&#171;Wrapped Ether&#187;</text><text fill="#000000" font-family="sans-serif" font-size="14" font-style="italic" lengthAdjust="spacing" textLength="63" x="299" y="79.5117">&#171;(WETH)&#187;</text><text fill="#000000" font-family="sans-serif" font-size="14" font-style="italic" lengthAdjust="spacing" textLength="62" x="299.5" y="96">&#171;WETH9&#187;</text><text fill="#000000" font-family="sans-serif" font-size="14" lengthAdjust="spacing" textLength="91" x="285" y="112.4883">0xc02a..6cc2</text><rect fill="#E2E2F0" height="79.9531" rx="2.5" ry="2.5" style="stroke:#181818;stroke-width:0.5;" width="129" x="266" y="1294.5898"/><text fill="#000000" font-family="sans-serif" font-size="14" font-style="italic" lengthAdjust="spacing" textLength="115" x="273" y="1315.125">&#171;Wrapped Ether&#187;</text><text fill="#000000" font-family="sans-serif" font-size="14" font-style="italic" lengthAdjust="spacing" textLength="63" x="299" y="1331.6133">&#171;(WETH)&#187;</text><text fill="#000000" font-family="sans-serif" font-size="14" font-style="italic" lengthAdjust="spacing" textLength="62" x="299.5" y="1348.1016">&#171;WETH9&#187;</text><text fill="#000000" font-family="sans-serif" font-size="14" lengthAdjust="spacing" textLength="91" x="285" y="1364.5898">0xc02a..6cc2</text><rect fill="#E2E2F0" height="46.9766" rx="2.5" ry="2.5" style="stroke:#181818;stroke-width:0.5;" width="134" x="405" y="75.4648"/><text fill="#000000" font-family="sans-serif" font-size="14" font-style="italic" lengthAdjust="spacing" textLength="120" x="412" y="96">&#171;UniswapV3Pool&#187;</text><text fill="#000000" font-family="sans-serif" font-size="14" lengthAdjust="spacing" textLength="97" x="423.5" y="112.4883">0x88e6..5640</text><rect fill="#E2E2F0" height="46.9766" rx="2.5" ry="2.5" style="stroke:#181818;stroke-width:0.5;" width="134" x="405" y="1294.5898"/><text fill="#000000" font-family="sans-serif" font-size="14" font-style="italic" lengthAdjust="spacing" textLength="120" x="412" y="1315.125">&#171;UniswapV3Pool&#187;</text><text fill="#000000" font-family="sans-serif" font-size="14" lengthAdjust="spacing" textLength="97" x="423.5" y="1331.6133">0x88e6..5640</text><rect fill="#E2E2F0" height="79.9531" rx="2.5" ry="2.5" style="stroke:#181818;stroke-width:0.5;" width="135" x="549" y="42.4883"/><text fill="#000000" font-family="sans-serif" font-size="14" font-style="italic" lengthAdjust="spacing" textLength="78" x="577.5" y="63.0234">&#171;USD Coin&#187;</text><text fill="#000000" font-family="sans-serif" font-size="14" font-style="italic" lengthAdjust="spacing" textLength="62" x="585.5" y="79.5117">&#171;(USDC)&#187;</text><text fill="#000000" font-family="sans-serif" font-size="14" font-style="italic" lengthAdjust="spacing" textLength="121" x="556" y="96">&#171;FiatTokenProxy&#187;</text><text fill="#000000" font-family="sans-serif" font-size="14" lengthAdjust="spacing" textLength="96" x="568.5" y="112.4883">0xa0b8..eb48</text><rect fill="#E2E2F0" height="79.9531" rx="2.5" ry="2.5" style="stroke:#181818;stroke-width:0.5;" width="135" x="549" y="1294.5898"/><text fill="#000000" font-family="sans-serif" font-size="14" font-style="italic" lengthAdjust="spacing" textLength="78" x="577.5" y="1315.125">&#171;USD Coin&#187;</text><text fill="#000000" font-family="sans-serif" font-size="14" font-style="italic" lengthAdjust="spacing" textLength="62" x="585.5" y="1331.6133">&#171;(USDC)&#187;</text><text fill="#000000" font-family="sans-serif" font-size="14" font-style="italic" lengthAdjust="spacing" textLength="121" x="556" y="1348.1016">&#171;FiatTokenProxy&#187;</text><text fill="#000000" font-family="sans-serif" font-size="14" lengthAdjust="spacing" textLength="96" x="568.5" y="1364.5898">0xa0b8..eb48</text><rect fill="#FFFFFF" height="14" style="stroke:#181818;stroke-width:1.0;" width="10" x="52" y="1048.4844"/><rect fill="#FFFFFF" height="888.4902" style="stroke:#181818;stroke-width:1.0;" width="10" x="182.5" y="215.9941"/><rect fill="#FFFFFF" height="103.2422" style="stroke:#181818;stroke-width:1.0;" width="10" x="187.5" y="618.8945"/><rect fill="#FFFFFF" height="72.6211" style="stroke:#181818;stroke-width:1.0;" width="10" x="187.5" y="1003.8633"/><rect fill="#FFFFFF" height="14" style="stroke:#181818;stroke-width:1.0;" width="10" x="325.5" y="260.6152"/><rect fill="#FFFFFF" height="29.3105" style="stroke:#181818;stroke-width:1.0;" width="10" x="325.5" y="514.3418"/><rect fill="#FFFFFF" height="29.3105" style="stroke:#181818;stroke-width:1.0;" width="10" x="325.5" y="678.8262"/><rect fill="#FFFFFF" height="29.3105" style="stroke:#181818;stroke-width:1.0;" width="10" x="325.5" y="766.7578"/><rect fill="#FFFFFF" height="29.3105" style="stroke:#181818;stroke-width:1.0;" width="10" x="325.5" y="885.3105"/><rect fill="#FFFFFF" height="131.2422" style="stroke:#181818;stroke-width:1.0;" width="10" x="325.5" y="959.2422"/><rect fill="#FFFFFF" height="460.2109" style="stroke:#181818;stroke-width:1.0;" width="10" x="467" y="380.4785"/><rect fill="#FFFFFF" height="29.3105" style="stroke:#181818;stroke-width:1.0;" width="10" x="611.5" y="440.4102"/><polygon fill="#181818" points="170.5,211.9941,180.5,215.9941,170.5,219.9941,174.5,215.9941" style="stroke:#181818;stroke-width:1.0;"/><line style="stroke:#181818;stroke-width:1.0;" x1="57" x2="176.5" y1="215.9941" y2="215.9941"/><text fill="#000000" font-family="sans-serif" font-size="13" lengthAdjust="spacing" textLength="53" x="64" y="150.0098">execute(</text><text fill="#000000" font-family="sans-serif" font-size="13" lengthAdjust="spacing" textLength="73" x="72" y="165.3203">commands,</text><text fill="#000000" font-family="sans-serif" font-size="13" lengthAdjust="spacing" textLength="44" x="72" y="180.6309">inputs,</text><text fill="#000000" font-family="sans-serif" font-size="13" lengthAdjust="spacing" textLength="57" x="72" y="195.9414">deadline)</text><text fill="#000000" font-family="sans-serif" font-size="13" lengthAdjust="spacing" textLength="73" x="64" y="211.252">47.656 ETH</text><polygon fill="#181818" points="313.5,256.6152,323.5,260.6152,313.5,264.6152,317.5,260.6152" style="stroke:#181818;stroke-width:1.0;"/><line style="stroke:#181818;stroke-width:1.0;" x1="192.5" x2="319.5" y1="260.6152" y2="260.6152"/><text fill="#000000" font-family="sans-serif" font-size="13" lengthAdjust="spacing" textLength="55" x="199.5" y="240.5625">deposit()</text><text fill="#000000" font-family="sans-serif" font-size="13" lengthAdjust="spacing" textLength="73" x="199.5" y="255.873">47.656 ETH</text><polygon fill="#181818" points="203.5,270.6152,193.5,274.6152,203.5,278.6152,199.5,274.6152" style="stroke:#181818;stroke-width:1.0;"/><line style="stroke:#181818;stroke-width:1.0;stroke-dasharray:2.0,2.0;" x1="197.5" x2="329.5" y1="274.6152" y2="274.6152"/><polygon fill="#181818" points="455,376.4785,465,380.4785,455,384.4785,459,380.4785" style="stroke:#181818;stroke-width:1.0;"/><line style="stroke:#181818;stroke-width:1.0;" x1="192.5" x2="461" y1="380.4785" y2="380.4785"/><text fill="#000000" font-family="sans-serif" font-size="13" lengthAdjust="spacing" textLength="36" x="199.5" y="299.1836">swap(</text><text fill="#000000" font-family="sans-serif" font-size="13" lengthAdjust="spacing" textLength="59" x="207.5" y="314.4941">recipient,</text><text fill="#000000" font-family="sans-serif" font-size="13" lengthAdjust="spacing" textLength="76" x="207.5" y="329.8047">zeroForOne,</text><text fill="#000000" font-family="sans-serif" font-size="13" lengthAdjust="spacing" textLength="109" x="207.5" y="345.1152">amountSpecified,</text><text fill="#000000" font-family="sans-serif" font-size="13" lengthAdjust="spacing" textLength="115" x="207.5" y="360.4258">sqrtPriceLimitX96,</text><text fill="#000000" font-family="sans-serif" font-size="13" lengthAdjust="spacing" textLength="31" x="207.5" y="375.7363">data)</text><polygon fill="#181818" points="599.5,436.4102,609.5,440.4102,599.5,444.4102,603.5,440.4102" style="stroke:#181818;stroke-width:1.0;"/><line style="stroke:#181818;stroke-width:1.0;" x1="477" x2="605.5" y1="440.4102" y2="440.4102"/><text fill="#000000" font-family="sans-serif" font-size="13" lengthAdjust="spacing" textLength="53" x="484" y="405.0469">transfer(</text><text fill="#000000" font-family="sans-serif" font-size="13" lengthAdjust="spacing" textLength="24" x="492" y="420.3574">dst,</text><text fill="#000000" font-family="sans-serif" font-size="13" lengthAdjust="spacing" textLength="29" x="492" y="435.668">wad)</text><polygon fill="#181818" points="488,465.7207,478,469.7207,488,473.7207,484,469.7207" style="stroke:#181818;stroke-width:1.0;"/><line style="stroke:#181818;stroke-width:1.0;stroke-dasharray:2.0,2.0;" x1="482" x2="615.5" y1="469.7207" y2="469.7207"/><text fill="#000000" font-family="sans-serif" font-size="13" lengthAdjust="spacing" textLength="5" x="494" y="464.9785">?</text><polygon fill="#181818" points="346.5,510.3418,336.5,514.3418,346.5,518.3418,342.5,514.3418" style="stroke:#181818;stroke-width:1.0;"/><line style="stroke:#181818;stroke-width:1.0;" x1="340.5" x2="466" y1="514.3418" y2="514.3418"/><text fill="#000000" font-family="sans-serif" font-size="13" lengthAdjust="spacing" textLength="67" x="352.5" y="494.2891">balanceOf(</text><text fill="#000000" font-family="sans-serif" font-size="13" lengthAdjust="spacing" textLength="9" x="360.5" y="509.5996">?)</text><polygon fill="#181818" points="455,539.6523,465,543.6523,455,547.6523,459,543.6523" style="stroke:#181818;stroke-width:1.0;"/><line style="stroke:#181818;stroke-width:1.0;stroke-dasharray:2.0,2.0;" x1="330.5" x2="461" y1="543.6523" y2="543.6523"/><text fill="#000000" font-family="sans-serif" font-size="13" lengthAdjust="spacing" textLength="5" x="337.5" y="538.9102">?</text><polygon fill="#181818" points="208.5,614.8945,198.5,618.8945,208.5,622.8945,204.5,618.8945" style="stroke:#181818;stroke-width:1.0;"/><line style="stroke:#181818;stroke-width:1.0;" x1="202.5" x2="466" y1="618.8945" y2="618.8945"/><text fill="#000000" font-family="sans-serif" font-size="13" lengthAdjust="spacing" textLength="158" x="214.5" y="568.2207">uniswapV3SwapCallback(</text><text fill="#000000" font-family="sans-serif" font-size="13" lengthAdjust="spacing" textLength="93" x="222.5" y="583.5313">amount0Delta,</text><text fill="#000000" font-family="sans-serif" font-size="13" lengthAdjust="spacing" textLength="93" x="222.5" y="598.8418">amount1Delta,</text><text fill="#000000" font-family="sans-serif" font-size="13" lengthAdjust="spacing" textLength="31" x="222.5" y="614.1523">data)</text><polygon fill="#181818" points="313.5,674.8262,323.5,678.8262,313.5,682.8262,317.5,678.8262" style="stroke:#181818;stroke-width:1.0;"/><line style="stroke:#181818;stroke-width:1.0;" x1="197.5" x2="319.5" y1="678.8262" y2="678.8262"/><text fill="#000000" font-family="sans-serif" font-size="13" lengthAdjust="spacing" textLength="53" x="204.5" y="643.4629">transfer(</text><text fill="#000000" font-family="sans-serif" font-size="13" lengthAdjust="spacing" textLength="24" x="212.5" y="658.7734">dst,</text><text fill="#000000" font-family="sans-serif" font-size="13" lengthAdjust="spacing" textLength="29" x="212.5" y="674.084">wad)</text><polygon fill="#181818" points="208.5,704.1367,198.5,708.1367,208.5,712.1367,204.5,708.1367" style="stroke:#181818;stroke-width:1.0;"/><line style="stroke:#181818;stroke-width:1.0;stroke-dasharray:2.0,2.0;" x1="202.5" x2="329.5" y1="708.1367" y2="708.1367"/><text fill="#000000" font-family="sans-serif" font-size="13" lengthAdjust="spacing" textLength="5" x="214.5" y="703.3945">?</text><polygon fill="#181818" points="455,718.1367,465,722.1367,455,726.1367,459,722.1367" style="stroke:#181818;stroke-width:1.0;"/><line style="stroke:#181818;stroke-width:1.0;stroke-dasharray:2.0,2.0;" x1="192.5" x2="461" y1="722.1367" y2="722.1367"/><polygon fill="#181818" points="346.5,762.7578,336.5,766.7578,346.5,770.7578,342.5,766.7578" style="stroke:#181818;stroke-width:1.0;"/><line style="stroke:#181818;stroke-width:1.0;" x1="340.5" x2="466" y1="766.7578" y2="766.7578"/><text fill="#000000" font-family="sans-serif" font-size="13" lengthAdjust="spacing" textLength="67" x="352.5" y="746.7051">balanceOf(</text><text fill="#000000" font-family="sans-serif" font-size="13" lengthAdjust="spacing" textLength="9" x="360.5" y="762.0156">?)</text><polygon fill="#181818" points="455,792.0684,465,796.0684,455,800.0684,459,796.0684" style="stroke:#181818;stroke-width:1.0;"/><line style="stroke:#181818;stroke-width:1.0;stroke-dasharray:2.0,2.0;" x1="330.5" x2="461" y1="796.0684" y2="796.0684"/><text fill="#000000" font-family="sans-serif" font-size="13" lengthAdjust="spacing" textLength="5" x="337.5" y="791.3262">?</text><polygon fill="#181818" points="203.5,836.6895,193.5,840.6895,203.5,844.6895,199.5,840.6895" style="stroke:#181818;stroke-width:1.0;"/><line style="stroke:#181818;stroke-width:1.0;stroke-dasharray:2.0,2.0;" x1="197.5" x2="471" y1="840.6895" y2="840.6895"/><text fill="#000000" font-family="sans-serif" font-size="13" lengthAdjust="spacing" textLength="60" x="209.5" y="820.6367">amount0,</text><text fill="#000000" font-family="sans-serif" font-size="13" lengthAdjust="spacing" textLength="56" x="209.5" y="835.9473">amount1</text><polygon fill="#181818" points="313.5,881.3105,323.5,885.3105,313.5,889.3105,317.5,885.3105" style="stroke:#181818;stroke-width:1.0;"/><line style="stroke:#181818;stroke-width:1.0;" x1="192.5" x2="319.5" y1="885.3105" y2="885.3105"/><text fill="#000000" font-family="sans-serif" font-size="13" lengthAdjust="spacing" textLength="67" x="199.5" y="865.2578">balanceOf(</text><text fill="#000000" font-family="sans-serif" font-size="13" lengthAdjust="spacing" textLength="9" x="207.5" y="880.5684">?)</text><polygon fill="#181818" points="203.5,910.6211,193.5,914.6211,203.5,918.6211,199.5,914.6211" style="stroke:#181818;stroke-width:1.0;"/><line style="stroke:#181818;stroke-width:1.0;stroke-dasharray:2.0,2.0;" x1="197.5" x2="329.5" y1="914.6211" y2="914.6211"/><text fill="#000000" font-family="sans-serif" font-size="13" lengthAdjust="spacing" textLength="5" x="209.5" y="909.8789">?</text><polygon fill="#181818" points="313.5,955.2422,323.5,959.2422,313.5,963.2422,317.5,959.2422" style="stroke:#181818;stroke-width:1.0;"/><line style="stroke:#181818;stroke-width:1.0;" x1="192.5" x2="319.5" y1="959.2422" y2="959.2422"/><text fill="#000000" font-family="sans-serif" font-size="13" lengthAdjust="spacing" textLength="61" x="199.5" y="939.1895">withdraw(</text><text fill="#000000" font-family="sans-serif" font-size="13" lengthAdjust="spacing" textLength="29" x="207.5" y="954.5">wad)</text><polygon fill="#181818" points="208.5,999.8633,198.5,1003.8633,208.5,1007.8633,204.5,1003.8633" style="stroke:#181818;stroke-width:1.0;"/><line style="stroke:#181818;stroke-width:1.0;" x1="202.5" x2="324.5" y1="1003.8633" y2="1003.8633"/><text fill="#000000" font-family="sans-serif" font-size="13" lengthAdjust="spacing" textLength="58" x="214.5" y="983.8105">fallback()</text><text fill="#000000" font-family="sans-serif" font-size="13" lengthAdjust="spacing" textLength="65" x="214.5" y="999.1211">0.028 ETH</text><polygon fill="#181818" points="73,1044.4844,63,1048.4844,73,1052.4844,69,1048.4844" style="stroke:#181818;stroke-width:1.0;"/><line style="stroke:#181818;stroke-width:1.0;" x1="67" x2="186.5" y1="1048.4844" y2="1048.4844"/><text fill="#000000" font-family="sans-serif" font-size="13" lengthAdjust="spacing" textLength="58" x="79" y="1028.4316">fallback()</text><text fill="#000000" font-family="sans-serif" font-size="13" lengthAdjust="spacing" textLength="65" x="79" y="1043.7422">0.028 ETH</text><polygon fill="#181818" points="175.5,1058.4844,185.5,1062.4844,175.5,1066.4844,179.5,1062.4844" style="stroke:#181818;stroke-width:1.0;"/><line style="stroke:#181818;stroke-width:1.0;stroke-dasharray:2.0,2.0;" x1="57" x2="181.5" y1="1062.4844" y2="1062.4844"/><polygon fill="#181818" points="313.5,1072.4844,323.5,1076.4844,313.5,1080.4844,317.5,1076.4844" style="stroke:#181818;stroke-width:1.0;"/><line style="stroke:#181818;stroke-width:1.0;stroke-dasharray:2.0,2.0;" x1="192.5" x2="319.5" y1="1076.4844" y2="1076.4844"/><polygon fill="#181818" points="203.5,1086.4844,193.5,1090.4844,203.5,1094.4844,199.5,1090.4844" style="stroke:#181818;stroke-width:1.0;"/><line style="stroke:#181818;stroke-width:1.0;stroke-dasharray:2.0,2.0;" x1="197.5" x2="329.5" y1="1090.4844" y2="1090.4844"/><polygon fill="#181818" points="68,1100.4844,58,1104.4844,68,1108.4844,64,1104.4844" style="stroke:#181818;stroke-width:1.0;"/><line style="stroke:#181818;stroke-width:1.0;stroke-dasharray:2.0,2.0;" x1="62" x2="186.5" y1="1104.4844" y2="1104.4844"/><path d="M283,1117.4844 L283,1280.4844 L377,1280.4844 L377,1127.4844 L367,1117.4844 L283,1117.4844 " fill="#00FFFF" style="stroke:#181818;stroke-width:0.5;"/><path d="M367,1117.4844 L367,1127.4844 L377,1127.4844 L367,1117.4844 " fill="#00FFFF" style="stroke:#181818;stroke-width:0.5;"/><text fill="#000000" font-family="sans-serif" font-size="13" lengthAdjust="spacing" textLength="53" x="289" y="1135.0527">Deposit:</text><text fill="#000000" font-family="sans-serif" font-size="13" lengthAdjust="spacing" textLength="24" x="297" y="1150.3633">dst,</text><text fill="#000000" font-family="sans-serif" font-size="13" lengthAdjust="spacing" textLength="25" x="297" y="1165.6738">wad</text><text fill="#000000" font-family="sans-serif" font-size="13" lengthAdjust="spacing" textLength="56" x="289" y="1180.9844">Transfer:</text><text fill="#000000" font-family="sans-serif" font-size="13" lengthAdjust="spacing" textLength="23" x="297" y="1196.2949">src,</text><text fill="#000000" font-family="sans-serif" font-size="13" lengthAdjust="spacing" textLength="24" x="297" y="1211.6055">dst,</text><text fill="#000000" font-family="sans-serif" font-size="13" lengthAdjust="spacing" textLength="25" x="297" y="1226.916">wad</text><text fill="#000000" font-family="sans-serif" font-size="13" lengthAdjust="spacing" textLength="73" x="289" y="1242.2266">Withdrawal:</text><text fill="#000000" font-family="sans-serif" font-size="13" lengthAdjust="spacing" textLength="23" x="297" y="1257.5371">src,</text><text fill="#000000" font-family="sans-serif" font-size="13" lengthAdjust="spacing" textLength="25" x="297" y="1272.8477">wad</text><path d="M416,1117.4844 L416,1249.4844 L528,1249.4844 L528,1127.4844 L518,1117.4844 L416,1117.4844 " fill="#00FFFF" style="stroke:#181818;stroke-width:0.5;"/><path d="M518,1117.4844 L518,1127.4844 L528,1127.4844 L518,1117.4844 " fill="#00FFFF" style="stroke:#181818;stroke-width:0.5;"/><text fill="#000000" font-family="sans-serif" font-size="13" lengthAdjust="spacing" textLength="36" x="422" y="1135.0527">Swap:</text><text fill="#000000" font-family="sans-serif" font-size="13" lengthAdjust="spacing" textLength="46" x="430" y="1150.3633">sender,</text><text fill="#000000" font-family="sans-serif" font-size="13" lengthAdjust="spacing" textLength="59" x="430" y="1165.6738">recipient,</text><text fill="#000000" font-family="sans-serif" font-size="13" lengthAdjust="spacing" textLength="60" x="430" y="1180.9844">amount0,</text><text fill="#000000" font-family="sans-serif" font-size="13" lengthAdjust="spacing" textLength="60" x="430" y="1196.2949">amount1,</text><text fill="#000000" font-family="sans-serif" font-size="13" lengthAdjust="spacing" textLength="83" x="430" y="1211.6055">sqrtPriceX96,</text><text fill="#000000" font-family="sans-serif" font-size="13" lengthAdjust="spacing" textLength="56" x="430" y="1226.916">liquidity,</text><text fill="#000000" font-family="sans-serif" font-size="13" lengthAdjust="spacing" textLength="24" x="430" y="1242.2266">tick</text><path d="M578,1117.4844 L578,1188.4844 L655,1188.4844 L655,1127.4844 L645,1117.4844 L578,1117.4844 " fill="#00FFFF" style="stroke:#181818;stroke-width:0.5;"/><path d="M645,1117.4844 L645,1127.4844 L655,1127.4844 L645,1117.4844 " fill="#00FFFF" style="stroke:#181818;stroke-width:0.5;"/><text fill="#000000" font-family="sans-serif" font-size="13" lengthAdjust="spacing" textLength="56" x="584" y="1135.0527">Transfer:</text><text fill="#000000" font-family="sans-serif" font-size="13" lengthAdjust="spacing" textLength="34" x="592" y="1150.3633">from,</text><text fill="#000000" font-family="sans-serif" font-size="13" lengthAdjust="spacing" textLength="17" x="592" y="1165.6738">to,</text><text fill="#000000" font-family="sans-serif" font-size="13" lengthAdjust="spacing" textLength="33" x="592" y="1180.9844">value</text><!--SRC=[fLHDRzim3BthLmZR9G4oJx4Jnmw2zj2F3SEA5cksxj0BBTEe44ToPRb9z-idsR7TjClQOHURp-OZ-KXHHfWSATi66Hl76PiodCL9m6TPaamvPA4r0XvDV0xfDC0nZsFh6KsY80GCcJ-UOe11C6E4S2YCK9AkGKY9PaIJNF4L7S-cOp-A_H6zK794np7zKadgCp-WB9xxuTmQdowM1BXHchvZMpP9Ki-B_6ZsZa997NI0aWAq4LmK88tp2p8UUzuiWxJsSz01kbXyb-81TGdvDrKPr4T7pwcS-U1v8UT-JNNG0KkzqL0KcD8pS-U8YyNWvcpvUUWiPyGlOqKHXfut3IUiZkMW0qqPvGQA7y6LKlbB8h0ayZnC9b5DTD01Hxm-fITAo3g_1ITr_dC1PgbMAA-qsZxQUAHhpOUZJlwSuXQvbJsubPHojLw3JCkH0q8MbMdC527DXSJXhPpCF5imjUBS2CG36Eo2aQwfDaFRfRbb5weKPd20tJeIZQRIakv5QVipfwutTP4QRLC4IbENzWkrEbVwKc8DOQqgQQuBwvC9JEjlvRqsLrfm_2hMmloCmqOJ61ZsLRI9I3SHcxrjyfmQ3RBCKDSLf6MJUmFfamYjSwlZU2zKtuu4Sf0SBxCwrl7mS2Vs8_GZgzgJScsV9v3d2V3Le9VFJZ4tyAGVu_x3CzclZEuDibyMtSxn_-NlZ9qgctmdvq2r_nBwpn4smjob6ZQ3l-Zirdzl9bax1dlAcSVyw0qhqYxag-pMiMljeJUHohehUvtrjzHxkA-0d3PBE2VD74ajZontytMVIyr7-tzlTjs0_Cb_zmDbIbqcGZxIFcCtxoQZEvmrptgZTjH-SqbtL7jpxCnkLzsQMfoB-qgamZmwOA_3rO7StNNOv7wgAzDgNRELUpv0Nc4Vv3S0]--></g></svg>
