<?xml version="1.0" encoding="us-ascii" standalone="no"?><svg xmlns:xlink="http://www.w3.org/1999/xlink" xmlns="http://www.w3.org/2000/svg" contentStyleType="text/css" height="1494px" preserveAspectRatio="none" style="width:690px;height:1494px;background:#FFFFFF;" version="1.1" viewBox="0 0 690 1494" width="690px" zoomAndPan="magnify"><defs/><g><text fill="#000000" font-family="sans-serif" font-size="14" font-weight="bold" lengthAdjust="spacing" textLength="557" x="65.5" y="28.5352">0x3f019f050e79b3c7fbb5caf67fb3c842cad53e1c993f084836ae60215e3e3370</text><text fill="#000000" font-family="sans-serif" font-size="14" lengthAdjust="spacing" textLength="408" x="140" y="1482.9414">mainnet, block 17512892, Mon, 19 Jun 2023 09:26:23 GMT</text><rect fill="#FFFFFF" height="14" style="stroke:#181818;stroke-width:1.0;" width="10" x="52" y="1140.3477"/><rect fill="#FFFFFF" height="980.3535" style="stroke:#181818;stroke-width:1.0;" width="10" x="182.5" y="215.9941"/><rect fill="#FFFFFF" height="118.5527" style="stroke:#181818;stroke-width:1.0;" width="10" x="187.5" y="649.5156"/><rect fill="#FFFFFF" height="72.6211" style="stroke:#181818;stroke-width:1.0;" width="10" x="187.5" y="1095.7266"/><rect fill="#FFFFFF" height="14" style="stroke:#181818;stroke-width:1.0;" width="10" x="325.5" y="260.6152"/><rect fill="#FFFFFF" height="44.6211" style="stroke:#181818;stroke-width:1.0;" width="10" x="325.5" y="529.6523"/><rect fill="#FFFFFF" height="44.6211" style="stroke:#181818;stroke-width:1.0;" width="10" x="325.5" y="709.4473"/><rect fill="#FFFFFF" height="44.6211" style="stroke:#181818;stroke-width:1.0;" width="10" x="325.5" y="812.6895"/><rect fill="#FFFFFF" height="44.6211" style="stroke:#181818;stroke-width:1.0;" width="10" x="325.5" y="961.8633"/><rect fill="#FFFFFF" height="131.2422" style="stroke:#181818;stroke-width:1.0;" width="10" x="325.5" y="1051.1055"/><rect fill="#FFFFFF" height="536.7637" style="stroke:#181818;stroke-width:1.0;" width="10" x="467" y="380.4785"/><rect fill="#FFFFFF" height="44.6211" style="stroke:#181818;stroke-width:1.0;" width="10" x="611.5" y="440.4102"/><line style="stroke:#181818;stroke-width:0.5;stroke-dasharray:5.0,5.0;" x1="57" x2="57" y1="123.4414" y2="1387.4531"/><line style="stroke:#181818;stroke-width:0.5;stroke-dasharray:5.0,5.0;" x1="187" x2="187" y1="123.4414" y2="1387.4531"/><line style="stroke:#181818;stroke-width:0.5;stroke-dasharray:5.0,5.0;" x1="330" x2="330" y1="123.4414" y2="1387.4531"/><line style="stroke:#181818;stroke-width:0.5;stroke-dasharray:5.0,5.0;" x1="472" x2="472" y1="123.4414" y2="1387.4531"/><line style="stroke:#181818;stroke-width:0.5;stroke-dasharray:5.0,5.0;" x1="616" x2="616" y1="123.4414" y2="1387.4531"/><text fill="#000000" font-family="sans-serif" font-size="14" lengthAdjust="spacing" textLength="98" x="5" y="120.4883">0x04bd..8287</text><ellipse cx="57" cy="55.4531" fill="#E2E2F0" rx="8" ry="8" style="stroke:#181818;stroke-width:0.5;"/><path d="M57,63.4531 L57,90.4531 M44,71.4531 L70,71.4531 M57,90.4531 L44,105.4531 M57,90.4531 L70,105.4531 " fill="none" style="stroke:#181818;stroke-width:0.5;"/><text fill="#000000" font-family="sans-serif" font-size="14" lengthAdjust="spacing" textLength="98" x="5" y="1399.9883">0x04bd..8287</text><ellipse cx="57" cy="1411.4414" fill="#E2E2F0" rx="8" ry="8" style="stroke:#181818;stroke-width:0.5;"/><path d="M57,1419.4414 L57,1446.4414 M44,1427.4414 L70,1427.4414 M57,1446.4414 L44,1461.4414 M57,1446.4414 L70,1461.4414 " fill="none" style="stroke:#181818;stroke-width:0.5;"/><rect fill="#E2E2F0" height="46.9766" rx="2.5" ry="2.5" style="stroke:#181818;stroke-width:0.5;" width="137" x="119" y="75.4648"/><text fill="#000000" font-family="sans-serif" font-size="14" font-style="italic" lengthAdjust="spacing" textLength="123" x="126" y="96">&#171;UniversalRouter&#187;</text><text fill="#000000" font-family="sans-serif" font-size="14" lengthAdjust="spacing" textLength="87" x="144" y="112.4883">0x3fc9..7fad</text><rect fill="#E2E2F0" height="46.9766" rx="2.5" ry="2.5" style="stroke:#181818;stroke-width:0.5;" width="137" x="119" y="1386.4531"/><text fill="#000000" font-family="sans-serif" font-size="14" font-style="italic" lengthAdjust="spacing" textLength="123" x="126" y="1406.9883">&#171;UniversalRouter&#187;</text><text fill="#000000" font-family="sans-serif" font-size="14" lengthAdjust="spacing" textLength="87" x="144" y="1423.4766">0x3fc9..7fad</text><rect fill="#E2E2F0" height="79.9531" rx="2.5" ry="2.5" style="stroke:#181818;stroke-width:0.5;" width="129" x="266" y="42.4883"/><text fill="#000000" font-family="sans-serif" font-size="14" font-style="italic" lengthAdjust="spacing" textLength="115" x="273" y="63.0234">&#171;Wrapped Ether&#187;</text><text fill="#000000" font-family="sans-serif" font-size="14" font-style="italic" lengthAdjust="spacing" textLength="63" x="299" y="79.5117">&#171;(WETH)&#187;</text><text fill="#000000" font-family="sans-serif" font-size="14" font-style="italic" lengthAdjust="spacing" textLength="62" x="299.5" y="96">&#171;WETH9&#187;</text><text fill="#000000" font-family="sans-serif" font-size="14" lengthAdjust="spacing" textLength="91" x="285" y="112.4883">0xc02a..6cc2</text><rect fill="#E2E2F0" height="79.9531" rx="2.5" ry="2.5" style="stroke:#181818;stroke-width:0.5;" width="129" x="266" y="1386.4531"/><text fill="#000000" font-family="sans-serif" font-size="14" font-style="italic" lengthAdjust="spacing" textLength="115" x="273" y="1406.9883">&#171;Wrapped Ether&#187;</text><text fill="#000000" font-family="sans-serif" font-size="14" font-style="italic" lengthAdjust="spacing" textLength="63" x="299" y="1423.4766">&#171;(WETH)&#187;</text><text fill="#000000" font-family="sans-serif" font-size="14" font-style="italic" lengthAdjust="spacing" textLength="62" x="299.5" y="1439.9648">&#171;WETH9&#187;</text><text fill="#000000" font-family="sans-serif" font-size="14" lengthAdjust="spacing" textLength="91" x="285" y="1456.4531">0xc02a..6cc2</text><rect fill="#E2E2F0" height="46.9766" rx="2.5" ry="2.5" style="stroke:#181818;stroke-width:0.5;" width="134" x="405" y="75.4648"/><text fill="#000000" font-family="sans-serif" font-size="14" font-style="italic" lengthAdjust="spacing" textLength="120" x="412" y="96">&#171;UniswapV3Pool&#187;</text><text fill="#000000" font-family="sans-serif" font-size="14" lengthAdjust="spacing" textLength="97" x="423.5" y="112.4883">0x88e6..5640</text><rect fill="#E2E2F0" height="46.9766" rx="2.5" ry="2.5" style="stroke:#181818;stroke-width:0.5;" width="134" x="405" y="1386.4531"/><text fill="#000000" font-family="sans-serif" font-size="14" font-style="italic" lengthAdjust="spacing" textLength="120" x="412" y="1406.9883">&#171;UniswapV3Pool&#187;</text><text fill="#000000" font-family="sans-serif" font-size="14" lengthAdjust="spacing" textLength="97" x="423.5" y="1423.4766">0x88e6..5640</text><rect fill="#E2E2F0" height="79.9531" rx="2.5" ry="2.5" style="stroke:#181818;stroke-width:0.5;" width="135" x="549" y="42.4883"/><text fill="#000000" font-family="sans-serif" font-size="14" font-style="italic" lengthAdjust="spacing" textLength="78" x="577.5" y="63.0234">&#171;USD Coin&#187;</text><text fill="#000000" font-family="sans-serif" font-size="14" font-style="italic" lengthAdjust="spacing" textLength="62" x="585.5" y="79.5117">&#171;(USDC)&#187;</text><text fill="#000000" font-family="sans-serif" font-size="14" font-style="italic" lengthAdjust="spacing" textLength="121" x="556" y="96">&#171;FiatTokenProxy&#187;</text><text fill="#000000" font-family="sans-serif" font-size="14" lengthAdjust="spacing" textLength="96" x="568.5" y="112.4883">0xa0b8..eb48</text><rect fill="#E2E2F0" height="79.9531" rx="2.5" ry="2.5" style="stroke:#181818;stroke-width:0.5;" width="135" x="549" y="1386.4531"/><text fill="#000000" font-family="sans-serif" font-size="14" font-style="italic" lengthAdjust="spacing" textLength="78" x="577.5" y="1406.9883">&#171;USD Coin&#187;</text><text fill="#000000" font-family="sans-serif" font-size="14" font-style="italic" lengthAdjust="spacing" textLength="62" x="585.5" y="1423.4766">&#171;(USDC)&#187;</text><text fill="#000000" font-family="sans-serif" font-size="14" font-style="italic" lengthAdjust="spacing" textLength="121" x="556" y="1439.9648">&#171;FiatTokenProxy&#187;</text><text fill="#000000" font-family="sans-serif" font-size="14" lengthAdjust="spacing" textLength="96" x="568.5" y="1456.4531">0xa0b8..eb48</text><rect fill="#FFFFFF" height="14" style="stroke:#181818;stroke-width:1.0;" width="10" x="52" y="1140.3477"/><rect fill="#FFFFFF" height="980.3535" style="stroke:#181818;stroke-width:1.0;" width="10" x="182.5" y="215.9941"/><rect fill="#FFFFFF" height="118.5527" style="stroke:#181818;stroke-width:1.0;" width="10" x="187.5" y="649.5156"/><rect fill="#FFFFFF" height="72.6211" style="stroke:#181818;stroke-width:1.0;" width="10" x="187.5" y="1095.7266"/><rect fill="#FFFFFF" height="14" style="stroke:#181818;stroke-width:1.0;" width="10" x="325.5" y="260.6152"/><rect fill="#FFFFFF" height="44.6211" style="stroke:#181818;stroke-width:1.0;" width="10" x="325.5" y="529.6523"/><rect fill="#FFFFFF" height="44.6211" style="stroke:#181818;stroke-width:1.0;" width="10" x="325.5" y="709.4473"/><rect fill="#FFFFFF" height="44.6211" style="stroke:#181818;stroke-width:1.0;" width="10" x="325.5" y="812.6895"/><rect fill="#FFFFFF" height="44.6211" style="stroke:#181818;stroke-width:1.0;" width="10" x="325.5" y="961.8633"/><rect fill="#FFFFFF" height="131.2422" style="stroke:#181818;stroke-width:1.0;" width="10" x="325.5" y="1051.1055"/><rect fill="#FFFFFF" height="536.7637" style="stroke:#181818;stroke-width:1.0;" width="10" x="467" y="380.4785"/><rect fill="#FFFFFF" height="44.6211" style="stroke:#181818;stroke-width:1.0;" width="10" x="611.5" y="440.4102"/><polygon fill="#181818" points="170.5,211.9941,180.5,215.9941,170.5,219.9941,174.5,215.9941" style="stroke:#181818;stroke-width:1.0;"/><line style="stroke:#181818;stroke-width:1.0;" x1="57" x2="176.5" y1="215.9941" y2="215.9941"/><text fill="#000000" font-family="sans-serif" font-size="13" lengthAdjust="spacing" textLength="53" x="64" y="150.0098">execute(</text><text fill="#000000" font-family="sans-serif" font-size="13" lengthAdjust="spacing" textLength="73" x="64" y="165.3203">commands,</text><text fill="#000000" font-family="sans-serif" font-size="13" lengthAdjust="spacing" textLength="44" x="64" y="180.6309">inputs,</text><text fill="#000000" font-family="sans-serif" font-size="13" lengthAdjust="spacing" textLength="57" x="64" y="195.9414">deadline)</text><text fill="#000000" font-family="sans-serif" font-size="13" lengthAdjust="spacing" textLength="73" x="64" y="211.252">47.656 ETH</text><polygon fill="#181818" points="313.5,256.6152,323.5,260.6152,313.5,264.6152,317.5,260.6152" style="stroke:#181818;stroke-width:1.0;"/><line style="stroke:#181818;stroke-width:1.0;" x1="192.5" x2="319.5" y1="260.6152" y2="260.6152"/><text fill="#000000" font-family="sans-serif" font-size="13" lengthAdjust="spacing" textLength="55" x="199.5" y="240.5625">deposit()</text><text fill="#000000" font-family="sans-serif" font-size="13" lengthAdjust="spacing" textLength="73" x="199.5" y="255.873">47.656 ETH</text><polygon fill="#181818" points="203.5,270.6152,193.5,274.6152,203.5,278.6152,199.5,274.6152" style="stroke:#181818;stroke-width:1.0;"/><line style="stroke:#181818;stroke-width:1.0;stroke-dasharray:2.0,2.0;" x1="197.5" x2="329.5" y1="274.6152" y2="274.6152"/><polygon fill="#181818" points="455,376.4785,465,380.4785,455,384.4785,459,380.4785" style="stroke:#181818;stroke-width:1.0;"/><line style="stroke:#181818;stroke-width:1.0;" x1="192.5" x2="461" y1="380.4785" y2="380.4785"/><text fill="#000000" font-family="sans-serif" font-size="13" lengthAdjust="spacing" textLength="36" x="199.5" y="299.1836">swap(</text><text fill="#000000" font-family="sans-serif" font-size="13" lengthAdjust="spacing" textLength="59" x="199.5" y="314.4941">recipient,</text><text fill="#000000" font-family="sans-serif" font-size="13" lengthAdjust="spacing" textLength="76" x="199.5" y="329.8047">zeroForOne,</text><text fill="#000000" font-family="sans-serif" font-size="13" lengthAdjust="spacing" textLength="109" x="199.5" y="345.1152">amountSpecified,</text><text fill="#000000" font-family="sans-serif" font-size="13" lengthAdjust="spacing" textLength="115" x="199.5" y="360.4258">sqrtPriceLimitX96,</text><text fill="#000000" font-family="sans-serif" font-size="13" lengthAdjust="spacing" textLength="31" x="199.5" y="375.7363">data)</text><polygon fill="#181818" points="599.5,436.4102,609.5,440.4102,599.5,444.4102,603.5,440.4102" style="stroke:#181818;stroke-width:1.0;"/><line style="stroke:#181818;stroke-width:1.0;" x1="477" x2="605.5" y1="440.4102" y2="440.4102"/><text fill="#000000" font-family="sans-serif" font-size="13" lengthAdjust="spacing" textLength="53" x="484" y="405.0469">transfer(</text><text fill="#000000" font-family="sans-serif" font-size="13" lengthAdjust="spacing" textLength="24" x="484" y="420.3574">dst,</text><text fill="#000000" font-family="sans-serif" font-size="13" lengthAdjust="spacing" textLength="29" x="484" y="435.668">wad)</text><polygon fill="#181818" points="488,481.0313,478,485.0313,488,489.0313,484,485.0313" style="stroke:#181818;stroke-width:1.0;"/><line style="stroke:#181818;stroke-width:1.0;stroke-dasharray:2.0,2.0;" x1="482" x2="615.5" y1="485.0313" y2="485.0313"/><text fill="#000000" font-family="sans-serif" font-size="13" lengthAdjust="spacing" textLength="4" x="494" y="464.9785">&#160;</text><text fill="#000000" font-family="sans-serif" font-size="13" lengthAdjust="spacing" textLength="5" x="494" y="480.2891">?</text><polygon fill="#181818" points="346.5,525.6523,336.5,529.6523,346.5,533.6523,342.5,529.6523" style="stroke:#181818;stroke-width:1.0;"/><line style="stroke:#181818;stroke-width:1.0;" x1="340.5" x2="466" y1="529.6523" y2="529.6523"/><text fill="#000000" font-family="sans-serif" font-size="13" lengthAdjust="spacing" textLength="67" x="352.5" y="509.5996">balanceOf(</text><text fill="#000000" font-family="sans-serif" font-size="13" lengthAdjust="spacing" textLength="9" x="352.5" y="524.9102">?)</text><polygon fill="#181818" points="455,570.2734,465,574.2734,455,578.2734,459,574.2734" style="stroke:#181818;stroke-width:1.0;"/><line style="stroke:#181818;stroke-width:1.0;stroke-dasharray:2.0,2.0;" x1="330.5" x2="461" y1="574.2734" y2="574.2734"/><text fill="#000000" font-family="sans-serif" font-size="13" lengthAdjust="spacing" textLength="4" x="337.5" y="554.2207">&#160;</text><text fill="#000000" font-family="sans-serif" font-size="13" lengthAdjust="spacing" textLength="5" x="337.5" y="569.5313">?</text><polygon fill="#181818" points="208.5,645.5156,198.5,649.5156,208.5,653.5156,204.5,649.5156" style="stroke:#181818;stroke-width:1.0;"/><line style="stroke:#181818;stroke-width:1.0;" x1="202.5" x2="466" y1="649.5156" y2="649.5156"/><text fill="#000000" font-family="sans-serif" font-size="13" lengthAdjust="spacing" textLength="158" x="214.5" y="598.8418">uniswapV3SwapCallback(</text><text fill="#000000" font-family="sans-serif" font-size="13" lengthAdjust="spacing" textLength="93" x="214.5" y="614.1523">amount0Delta,</text><text fill="#000000" font-family="sans-serif" font-size="13" lengthAdjust="spacing" textLength="93" x="214.5" y="629.4629">amount1Delta,</text><text fill="#000000" font-family="sans-serif" font-size="13" lengthAdjust="spacing" textLength="31" x="214.5" y="644.7734">data)</text><polygon fill="#181818" points="313.5,705.4473,323.5,709.4473,313.5,713.4473,317.5,709.4473" style="stroke:#181818;stroke-width:1.0;"/><line style="stroke:#181818;stroke-width:1.0;" x1="197.5" x2="319.5" y1="709.4473" y2="709.4473"/><text fill="#000000" font-family="sans-serif" font-size="13" lengthAdjust="spacing" textLength="53" x="204.5" y="674.084">transfer(</text><text fill="#000000" font-family="sans-serif" font-size="13" lengthAdjust="spacing" textLength="24" x="204.5" y="689.3945">dst,</text><text fill="#000000" font-family="sans-serif" font-size="13" lengthAdjust="spacing" textLength="29" x="204.5" y="704.7051">wad)</text><polygon fill="#181818" points="208.5,750.0684,198.5,754.0684,208.5,758.0684,204.5,754.0684" style="stroke:#181818;stroke-width:1.0;"/><line style="stroke:#181818;stroke-width:1.0;stroke-dasharray:2.0,2.0;" x1="202.5" x2="329.5" y1="754.0684" y2="754.0684"/><text fill="#000000" font-family="sans-serif" font-size="13" lengthAdjust="spacing" textLength="4" x="214.5" y="734.0156">&#160;</text><text fill="#000000" font-family="sans-serif" font-size="13" lengthAdjust="spacing" textLength="5" x="214.5" y="749.3262">?</text><polygon fill="#181818" points="455,764.0684,465,768.0684,455,772.0684,459,768.0684" style="stroke:#181818;stroke-width:1.0;"/><line style="stroke:#181818;stroke-width:1.0;stroke-dasharray:2.0,2.0;" x1="192.5" x2="461" y1="768.0684" y2="768.0684"/><polygon fill="#181818" points="346.5,808.6895,336.5,812.6895,346.5,816.6895,342.5,812.6895" style="stroke:#181818;stroke-width:1.0;"/><line style="stroke:#181818;stroke-width:1.0;" x1="340.5" x2="466" y1="812.6895" y2="812.6895"/><text fill="#000000" font-family="sans-serif" font-size="13" lengthAdjust="spacing" textLength="67" x="352.5" y="792.6367">balanceOf(</text><text fill="#000000" font-family="sans-serif" font-size="13" lengthAdjust="spacing" textLength="9" x="352.5" y="807.9473">?)</text><polygon fill="#181818" points="455,853.3105,465,857.3105,455,861.3105,459,857.3105" style="stroke:#181818;stroke-width:1.0;"/><line style="stroke:#181818;stroke-width:1.0;stroke-dasharray:2.0,2.0;" x1="330.5" x2="461" y1="857.3105" y2="857.3105"/><text fill="#000000" font-family="sans-serif" font-size="13" lengthAdjust="spacing" textLength="4" x="337.5" y="837.2578">&#160;</text><text fill="#000000" font-family="sans-serif" font-size="13" lengthAdjust="spacing" textLength="5" x="337.5" y="852.5684">?</text><polygon fill="#181818" points="203.5,913.2422,193.5,917.2422,203.5,921.2422,199.5,917.2422" style="stroke:#181818;stroke-width:1.0;"/><line style="stroke:#181818;stroke-width:1.0;stroke-dasharray:2.0,2.0;" x1="197.5" x2="471" y1="917.2422" y2="917.2422"/><text fill="#000000" font-family="sans-serif" font-size="13" lengthAdjust="spacing" textLength="4" x="209.5" y="881.8789">&#160;</text><text fill="#000000" font-family="sans-serif" font-size="13" lengthAdjust="spacing" textLength="60" x="209.5" y="897.1895">amount0,</text><text fill="#000000" font-family="sans-serif" font-size="13" lengthAdjust="spacing" textLength="56" x="209.5" y="912.5">amount1</text><polygon fill="#181818" points="313.5,957.8633,323.5,961.8633,313.5,965.8633,317.5,961.8633" style="stroke:#181818;stroke-width:1.0;"/><line style="stroke:#181818;stroke-width:1.0;" x1="192.5" x2="319.5" y1="961.8633" y2="961.8633"/><text fill="#000000" font-family="sans-serif" font-size="13" lengthAdjust="spacing" textLength="67" x="199.5" y="941.8105">balanceOf(</text><text fill="#000000" font-family="sans-serif" font-size="13" lengthAdjust="spacing" textLength="9" x="199.5" y="957.1211">?)</text><polygon fill="#181818" points="203.5,1002.4844,193.5,1006.4844,203.5,1010.4844,199.5,1006.4844" style="stroke:#181818;stroke-width:1.0;"/><line style="stroke:#181818;stroke-width:1.0;stroke-dasharray:2.0,2.0;" x1="197.5" x2="329.5" y1="1006.4844" y2="1006.4844"/><text fill="#000000" font-family="sans-serif" font-size="13" lengthAdjust="spacing" textLength="4" x="209.5" y="986.4316">&#160;</text><text fill="#000000" font-family="sans-serif" font-size="13" lengthAdjust="spacing" textLength="5" x="209.5" y="1001.7422">?</text><polygon fill="#181818" points="313.5,1047.1055,323.5,1051.1055,313.5,1055.1055,317.5,1051.1055" style="stroke:#181818;stroke-width:1.0;"/><line style="stroke:#181818;stroke-width:1.0;" x1="192.5" x2="319.5" y1="1051.1055" y2="1051.1055"/><text fill="#000000" font-family="sans-serif" font-size="13" lengthAdjust="spacing" textLength="61" x="199.5" y="1031.0527">withdraw(</text><text fill="#000000" font-family="sans-serif" font-size="13" lengthAdjust="spacing" textLength="29" x="199.5" y="1046.3633">wad)</text><polygon fill="#181818" points="208.5,1091.7266,198.5,1095.7266,208.5,1099.7266,204.5,1095.7266" style="stroke:#181818;stroke-width:1.0;"/><line style="stroke:#181818;stroke-width:1.0;" x1="202.5" x2="324.5" y1="1095.7266" y2="1095.7266"/><text fill="#000000" font-family="sans-serif" font-size="13" lengthAdjust="spacing" textLength="58" x="214.5" y="1075.6738">fallback()</text><text fill="#000000" font-family="sans-serif" font-size="13" lengthAdjust="spacing" textLength="65" x="214.5" y="1090.9844">0.028 ETH</text><polygon fill="#181818" points="73,1136.3477,63,1140.3477,73,1144.3477,69,1140.3477" style="stroke:#181818;stroke-width:1.0;"/><line style="stroke:#181818;stroke-width:1.0;" x1="67" x2="186.5" y1="1140.3477" y2="1140.3477"/><text fill="#000000" font-family="sans-serif" font-size="13" lengthAdjust="spacing" textLength="58" x="79" y="1120.2949">fallback()</text><text fill="#000000" font-family="sans-serif" font-size="13" lengthAdjust="spacing" textLength="65" x="79" y="1135.6055">0.028 ETH</text><polygon fill="#181818" points="175.5,1150.3477,185.5,1154.3477,175.5,1158.3477,179.5,1154.3477" style="stroke:#181818;stroke-width:1.0;"/><line style="stroke:#181818;stroke-width:1.0;stroke-dasharray:2.0,2.0;" x1="57" x2="181.5" y1="1154.3477" y2="1154.3477"/><polygon fill="#181818" points="313.5,1164.3477,323.5,1168.3477,313.5,1172.3477,317.5,1168.3477" style="stroke:#181818;stroke-width:1.0;"/><line style="stroke:#181818;stroke-width:1.0;stroke-dasharray:2.0,2.0;" x1="192.5" x2="319.5" y1="1168.3477" y2="1168.3477"/><polygon fill="#181818" points="203.5,1178.3477,193.5,1182.3477,203.5,1186.3477,199.5,1182.3477" style="stroke:#181818;stroke-width:1.0;"/><line style="stroke:#181818;stroke-width:1.0;stroke-dasharray:2.0,2.0;" x1="197.5" x2="329.5" y1="1182.3477" y2="1182.3477"/><polygon fill="#181818" points="68,1192.3477,58,1196.3477,68,1200.3477,64,1196.3477" style="stroke:#181818;stroke-width:1.0;"/><line style="stroke:#181818;stroke-width:1.0;stroke-dasharray:2.0,2.0;" x1="62" x2="186.5" y1="1196.3477" y2="1196.3477"/><path d="M283,1209.3477 L283,1372.3477 L377,1372.3477 L377,1219.3477 L367,1209.3477 L283,1209.3477 " fill="#00FFFF" style="stroke:#181818;stroke-width:0.5;"/><path d="M367,1209.3477 L367,1219.3477 L377,1219.3477 L367,1209.3477 " fill="#00FFFF" style="stroke:#181818;stroke-width:0.5;"/><text fill="#000000" font-family="sans-serif" font-size="13" lengthAdjust="spacing" textLength="53" x="289" y="1226.916">Deposit:</text><text fill="#000000" font-family="sans-serif" font-size="13" lengthAdjust="spacing" textLength="24" x="297" y="1242.2266">dst,</text><text fill="#000000" font-family="sans-serif" font-size="13" lengthAdjust="spacing" textLength="25" x="297" y="1257.5371">wad</text><text fill="#000000" font-family="sans-serif" font-size="13" lengthAdjust="spacing" textLength="56" x="289" y="1272.8477">Transfer:</text><text fill="#000000" font-family="sans-serif" font-size="13" lengthAdjust="spacing" textLength="23" x="297" y="1288.1582">src,</text><text fill="#000000" font-family="sans-serif" font-size="13" lengthAdjust="spacing" textLength="24" x="297" y="1303.4688">dst,</text><text fill="#000000" font-family="sans-serif" font-size="13" lengthAdjust="spacing" textLength="25" x="297" y="1318.7793">wad</text><text fill="#000000" font-family="sans-serif" font-size="13" lengthAdjust="spacing" textLength="73" x="289" y="1334.0898">Withdrawal:</text><text fill="#000000" font-family="sans-serif" font-size="13" lengthAdjust="spacing" textLength="23" x="297" y="1349.4004">src,</text><text fill="#000000" font-family="sans-serif" font-size="13" lengthAdjust="spacing" textLength="25" x="297" y="1364.7109">wad</text><path d="M416,1209.3477 L416,1341.3477 L528,1341.3477 L528,1219.3477 L518,1209.3477 L416,1209.3477 " fill="#00FFFF" style="stroke:#181818;stroke-width:0.5;"/><path d="M518,1209.3477 L518,1219.3477 L528,1219.3477 L518,1209.3477 " fill="#00FFFF" style="stroke:#181818;stroke-width:0.5;"/><text fill="#000000" font-family="sans-serif" font-size="13" lengthAdjust="spacing" textLength="36" x="422" y="1226.916">Swap:</text><text fill="#000000" font-family="sans-serif" font-size="13" lengthAdjust="spacing" textLength="46" x="430" y="1242.2266">sender,</text><text fill="#000000" font-family="sans-serif" font-size="13" lengthAdjust="spacing" textLength="59" x="430" y="1257.5371">recipient,</text><text fill="#000000" font-family="sans-serif" font-size="13" lengthAdjust="spacing" textLength="60" x="430" y="1272.8477">amount0,</text><text fill="#000000" font-family="sans-serif" font-size="13" lengthAdjust="spacing" textLength="60" x="430" y="1288.1582">amount1,</text><text fill="#000000" font-family="sans-serif" font-size="13" lengthAdjust="spacing" textLength="83" x="430" y="1303.4688">sqrtPriceX96,</text><text fill="#000000" font-family="sans-serif" font-size="13" lengthAdjust="spacing" textLength="56" x="430" y="1318.7793">liquidity,</text><text fill="#000000" font-family="sans-serif" font-size="13" lengthAdjust="spacing" textLength="24" x="430" y="1334.0898">tick</text><path d="M578,1209.3477 L578,1280.3477 L655,1280.3477 L655,1219.3477 L645,1209.3477 L578,1209.3477 " fill="#00FFFF" style="stroke:#181818;stroke-width:0.5;"/><path d="M645,1209.3477 L645,1219.3477 L655,1219.3477 L645,1209.3477 " fill="#00FFFF" style="stroke:#181818;stroke-width:0.5;"/><text fill="#000000" font-family="sans-serif" font-size="13" lengthAdjust="spacing" textLength="56" x="584" y="1226.916">Transfer:</text><text fill="#000000" font-family="sans-serif" font-size="13" lengthAdjust="spacing" textLength="34" x="592" y="1242.2266">from,</text><text fill="#000000" font-family="sans-serif" font-size="13" lengthAdjust="spacing" textLength="17" x="592" y="1257.5371">to,</text><text fill="#000000" font-family="sans-serif" font-size="13" lengthAdjust="spacing" textLength="33" x="592" y="1272.8477">value</text><!--SRC=[fLHDRzim3BtxLmZT9G4oJxOJnmw2zj2F3SEA5cktxf0BBTEe44ToPRb9z-idEP7Tj0swOHURpo8V-KXJckiI2Tr41GtIWaueJjCiOjCYooOCYjWO4Kl68ODy4c70qjHu9kCaYW5Z6WOJZ32AfjJp65IQIq5Mm8L0FI9PATcI1DD942PfE2ANKen8a9AlZI0X3ID2qraOpupn-VBM0wQb8aTqGyTPxlj9c4oF2DJ4GWk8Lu7IdF4AXBP-KS5ItvyMaBT-5bf0vlCVWZ-Ygg7yBXkDwlZuPIYZ8VX-p5ZOXbfeWGczKr1Lc9DpVMy3v_F1tVdjbw6rh96-vaeIZ7r_4ezfosMX1TiowZLKFwDhASlNWK2pnFSn6oTje8KMsC2RCt8gkMZp6t3Qvh_We6_b4iMrafidm-TrhVbutCcV4TmWCx872y7aQWKYhqSBmKNLQ6la27d91GuNOZprJQd4oBBDvu-WiQFnkdOQRjUV6ScnaZNNWmFHpj5Jg1ibzaXSOsR4DiLKfz3qWgFGfghVgEI5L5S23O2LR8I-gSnvmJ4tN-e7fQyLP_YDhxZ-bSPM26WOzgaTlTSDmEHqFPqHhK3K1IgJDwzjnZNapwATuwxmXJZPu-aRa449Wk5LOOXEXWULloJefzEud-B6F4-XB3DWou4JJS-mrD3r873mXTXtflIEs3TgtSthlpKxQwUc5tAWqd-WVfjWpVLzhc0zE2YoM-wzCHIky-PFfZuDaxzO0xTkxqOxHzVMDr-UaCPLcekglty-m4C3tjbsoMOU8NPyvcMaURUxeThFjMAZ_TExNH-WV7Pk3r3an6Rol4-apzWDUflH_ejjdF56PKFxvJJ0JRCp0sjsIsdtqU2IFpGyv_h90dFHBG_axYwwRUxdkWebLssqjCz7A1liIVu0]--></g></svg>
