<?xml version="1.0" encoding="us-ascii" standalone="no"?><svg xmlns:xlink="http://www.w3.org/1999/xlink" xmlns="http://www.w3.org/2000/svg" contentStyleType="text/css" height="750px" preserveAspectRatio="none" style="width:599px;height:750px;background:#FFFFFF;" version="1.1" viewBox="0 0 599 750" width="599px" zoomAndPan="magnify"><defs/><g><text fill="#000000" font-family="sans-serif" font-size="14" font-weight="bold" lengthAdjust="spacing" textLength="571" x="10" y="28.5352">0x519acb59e0986ce142abbcec412617378499227f83e6149c2dd4aa445dda6117</text><text fill="#000000" font-family="sans-serif" font-size="14" lengthAdjust="spacing" textLength="402" x="94.5" y="738.3828">mainnet, block 16952796, Sat, 01 Apr 2023 07:23:35 GMT</text><rect fill="#FFFFFF" height="14" style="stroke:#181818;stroke-width:1.0;" width="10" x="90" y="334.5469"/><rect fill="#FFFFFF" height="266.416" style="stroke:#181818;stroke-width:1.0;" width="10" x="275" y="215.9941"/><rect fill="#FFFFFF" height="29.3105" style="stroke:#181818;stroke-width:1.0;" width="10" x="474" y="260.6152"/><rect fill="#FFFFFF" height="29.3105" style="stroke:#181818;stroke-width:1.0;" width="10" x="474" y="423.7891"/><line style="stroke:#181818;stroke-width:0.5;stroke-dasharray:5.0,5.0;" x1="94.5" x2="94.5" y1="123.4414" y2="642.8945"/><line style="stroke:#181818;stroke-width:0.5;stroke-dasharray:5.0,5.0;" x1="279.5" x2="279.5" y1="123.4414" y2="642.8945"/><line style="stroke:#181818;stroke-width:0.5;stroke-dasharray:5.0,5.0;" x1="478.5" x2="478.5" y1="123.4414" y2="642.8945"/><text fill="#000000" font-family="sans-serif" font-size="14" lengthAdjust="spacing" textLength="93" x="45.5" y="120.4883">0xd8c2..c04a</text><ellipse cx="95" cy="55.4531" fill="#E2E2F0" rx="8" ry="8" style="stroke:#181818;stroke-width:0.5;"/><path d="M95,63.4531 L95,90.4531 M82,71.4531 L108,71.4531 M95,90.4531 L82,105.4531 M95,90.4531 L108,105.4531 " fill="none" style="stroke:#181818;stroke-width:0.5;"/><text fill="#000000" font-family="sans-serif" font-size="14" lengthAdjust="spacing" textLength="93" x="45.5" y="655.4297">0xd8c2..c04a</text><ellipse cx="95" cy="666.8828" fill="#E2E2F0" rx="8" ry="8" style="stroke:#181818;stroke-width:0.5;"/><path d="M95,674.8828 L95,701.8828 M82,682.8828 L108,682.8828 M95,701.8828 L82,716.8828 M95,701.8828 L108,716.8828 " fill="none" style="stroke:#181818;stroke-width:0.5;"/><rect fill="#E2E2F0" height="79.9531" rx="2.5" ry="2.5" style="stroke:#181818;stroke-width:0.5;" width="243" x="158.5" y="42.4883"/><text fill="#000000" font-family="sans-serif" font-size="14" font-style="italic" lengthAdjust="spacing" textLength="94" x="233" y="63.0234">&#171;Uniswap V1&#187;</text><text fill="#000000" font-family="sans-serif" font-size="14" font-style="italic" lengthAdjust="spacing" textLength="74" x="243" y="79.5117">&#171;(UNI-V1)&#187;</text><text fill="#000000" font-family="sans-serif" font-size="14" font-style="italic" lengthAdjust="spacing" textLength="229" x="165.5" y="96">&#171;Uniswap Exchange Interface V1&#187;</text><text fill="#000000" font-family="sans-serif" font-size="14" lengthAdjust="spacing" textLength="97" x="231.5" y="112.4883">0x97de..8126</text><rect fill="#E2E2F0" height="79.9531" rx="2.5" ry="2.5" style="stroke:#181818;stroke-width:0.5;" width="243" x="158.5" y="641.8945"/><text fill="#000000" font-family="sans-serif" font-size="14" font-style="italic" lengthAdjust="spacing" textLength="94" x="233" y="662.4297">&#171;Uniswap V1&#187;</text><text fill="#000000" font-family="sans-serif" font-size="14" font-style="italic" lengthAdjust="spacing" textLength="74" x="243" y="678.918">&#171;(UNI-V1)&#187;</text><text fill="#000000" font-family="sans-serif" font-size="14" font-style="italic" lengthAdjust="spacing" textLength="229" x="165.5" y="695.4063">&#171;Uniswap Exchange Interface V1&#187;</text><text fill="#000000" font-family="sans-serif" font-size="14" lengthAdjust="spacing" textLength="97" x="231.5" y="711.8945">0x97de..8126</text><rect fill="#E2E2F0" height="79.9531" rx="2.5" ry="2.5" style="stroke:#181818;stroke-width:0.5;" width="135" x="411.5" y="42.4883"/><text fill="#000000" font-family="sans-serif" font-size="14" font-style="italic" lengthAdjust="spacing" textLength="78" x="440" y="63.0234">&#171;USD Coin&#187;</text><text fill="#000000" font-family="sans-serif" font-size="14" font-style="italic" lengthAdjust="spacing" textLength="62" x="448" y="79.5117">&#171;(USDC)&#187;</text><text fill="#000000" font-family="sans-serif" font-size="14" font-style="italic" lengthAdjust="spacing" textLength="121" x="418.5" y="96">&#171;FiatTokenProxy&#187;</text><text fill="#000000" font-family="sans-serif" font-size="14" lengthAdjust="spacing" textLength="96" x="431" y="112.4883">0xa0b8..eb48</text><rect fill="#E2E2F0" height="79.9531" rx="2.5" ry="2.5" style="stroke:#181818;stroke-width:0.5;" width="135" x="411.5" y="641.8945"/><text fill="#000000" font-family="sans-serif" font-size="14" font-style="italic" lengthAdjust="spacing" textLength="78" x="440" y="662.4297">&#171;USD Coin&#187;</text><text fill="#000000" font-family="sans-serif" font-size="14" font-style="italic" lengthAdjust="spacing" textLength="62" x="448" y="678.918">&#171;(USDC)&#187;</text><text fill="#000000" font-family="sans-serif" font-size="14" font-style="italic" lengthAdjust="spacing" textLength="121" x="418.5" y="695.4063">&#171;FiatTokenProxy&#187;</text><text fill="#000000" font-family="sans-serif" font-size="14" lengthAdjust="spacing" textLength="96" x="431" y="711.8945">0xa0b8..eb48</text><rect fill="#FFFFFF" height="14" style="stroke:#181818;stroke-width:1.0;" width="10" x="90" y="334.5469"/><rect fill="#FFFFFF" height="266.416" style="stroke:#181818;stroke-width:1.0;" width="10" x="275" y="215.9941"/><rect fill="#FFFFFF" height="29.3105" style="stroke:#181818;stroke-width:1.0;" width="10" x="474" y="260.6152"/><rect fill="#FFFFFF" height="29.3105" style="stroke:#181818;stroke-width:1.0;" width="10" x="474" y="423.7891"/><polygon fill="#181818" points="263,211.9941,273,215.9941,263,219.9941,267,215.9941" style="stroke:#181818;stroke-width:1.0;"/><line style="stroke:#181818;stroke-width:1.0;" x1="95" x2="269" y1="215.9941" y2="215.9941"/><text fill="#000000" font-family="sans-serif" font-size="13" lengthAdjust="spacing" textLength="161" x="102" y="150.0098">tokenToEthTransferInput(</text><text fill="#000000" font-family="sans-serif" font-size="13" lengthAdjust="spacing" textLength="81" x="110" y="165.3203">tokens_sold,</text><text fill="#000000" font-family="sans-serif" font-size="13" lengthAdjust="spacing" textLength="55" x="110" y="180.6309">min_eth,</text><text fill="#000000" font-family="sans-serif" font-size="13" lengthAdjust="spacing" textLength="57" x="110" y="195.9414">deadline,</text><text fill="#000000" font-family="sans-serif" font-size="13" lengthAdjust="spacing" textLength="59" x="110" y="211.252">recipient)</text><polygon fill="#181818" points="462,256.6152,472,260.6152,462,264.6152,466,260.6152" style="stroke:#181818;stroke-width:1.0;"/><line style="stroke:#181818;stroke-width:1.0;" x1="285" x2="468" y1="260.6152" y2="260.6152"/><text fill="#000000" font-family="sans-serif" font-size="13" lengthAdjust="spacing" textLength="67" x="292" y="240.5625">balanceOf(</text><text fill="#000000" font-family="sans-serif" font-size="13" lengthAdjust="spacing" textLength="49" x="300" y="255.873">_owner)</text><polygon fill="#181818" points="296,285.9258,286,289.9258,296,293.9258,292,289.9258" style="stroke:#181818;stroke-width:1.0;"/><line style="stroke:#181818;stroke-width:1.0;stroke-dasharray:2.0,2.0;" x1="290" x2="478" y1="289.9258" y2="289.9258"/><text fill="#000000" font-family="sans-serif" font-size="13" lengthAdjust="spacing" textLength="21" x="302" y="285.1836">out</text><polygon fill="#181818" points="111,330.5469,101,334.5469,111,338.5469,107,334.5469" style="stroke:#181818;stroke-width:1.0;"/><line style="stroke:#181818;stroke-width:1.0;" x1="105" x2="274" y1="334.5469" y2="334.5469"/><text fill="#000000" font-family="sans-serif" font-size="13" lengthAdjust="spacing" textLength="58" x="117" y="314.4941">fallback()</text><text fill="#000000" font-family="sans-serif" font-size="13" lengthAdjust="spacing" textLength="65" x="117" y="329.8047">0.012 ETH</text><polygon fill="#181818" points="263,344.5469,273,348.5469,263,352.5469,267,348.5469" style="stroke:#181818;stroke-width:1.0;"/><line style="stroke:#181818;stroke-width:1.0;stroke-dasharray:2.0,2.0;" x1="95" x2="269" y1="348.5469" y2="348.5469"/><polygon fill="#181818" points="462,419.7891,472,423.7891,462,427.7891,466,423.7891" style="stroke:#181818;stroke-width:1.0;"/><line style="stroke:#181818;stroke-width:1.0;" x1="285" x2="468" y1="423.7891" y2="423.7891"/><text fill="#000000" font-family="sans-serif" font-size="13" lengthAdjust="spacing" textLength="85" x="292" y="373.1152">transferFrom(</text><text fill="#000000" font-family="sans-serif" font-size="13" lengthAdjust="spacing" textLength="41" x="300" y="388.4258">_from,</text><text fill="#000000" font-family="sans-serif" font-size="13" lengthAdjust="spacing" textLength="24" x="300" y="403.7363">_to,</text><text fill="#000000" font-family="sans-serif" font-size="13" lengthAdjust="spacing" textLength="44" x="300" y="419.0469">_value)</text><polygon fill="#181818" points="296,449.0996,286,453.0996,296,457.0996,292,453.0996" style="stroke:#181818;stroke-width:1.0;"/><line style="stroke:#181818;stroke-width:1.0;stroke-dasharray:2.0,2.0;" x1="290" x2="478" y1="453.0996" y2="453.0996"/><text fill="#000000" font-family="sans-serif" font-size="13" lengthAdjust="spacing" textLength="21" x="302" y="448.3574">out</text><polygon fill="#181818" points="106,478.4102,96,482.4102,106,486.4102,102,482.4102" style="stroke:#181818;stroke-width:1.0;"/><line style="stroke:#181818;stroke-width:1.0;stroke-dasharray:2.0,2.0;" x1="100" x2="279" y1="482.4102" y2="482.4102"/><text fill="#000000" font-family="sans-serif" font-size="13" lengthAdjust="spacing" textLength="21" x="112" y="477.668">out</text><path d="M224.5,495.4102 L224.5,627.4102 L334.5,627.4102 L334.5,505.4102 L324.5,495.4102 L224.5,495.4102 " fill="#00FFFF" style="stroke:#181818;stroke-width:0.5;"/><path d="M324.5,495.4102 L324.5,505.4102 L334.5,505.4102 L324.5,495.4102 " fill="#00FFFF" style="stroke:#181818;stroke-width:0.5;"/><text fill="#000000" font-family="sans-serif" font-size="13" lengthAdjust="spacing" textLength="80" x="230.5" y="512.9785">EthPurchase:</text><text fill="#000000" font-family="sans-serif" font-size="13" lengthAdjust="spacing" textLength="39" x="238.5" y="528.2891">buyer,</text><text fill="#000000" font-family="sans-serif" font-size="13" lengthAdjust="spacing" textLength="81" x="238.5" y="543.5996">tokens_sold,</text><text fill="#000000" font-family="sans-serif" font-size="13" lengthAdjust="spacing" textLength="72" x="238.5" y="558.9102">eth_bought</text><text fill="#000000" font-family="sans-serif" font-size="13" lengthAdjust="spacing" textLength="80" x="230.5" y="574.2207">EthPurchase:</text><text fill="#000000" font-family="sans-serif" font-size="13" lengthAdjust="spacing" textLength="39" x="238.5" y="589.5313">buyer,</text><text fill="#000000" font-family="sans-serif" font-size="13" lengthAdjust="spacing" textLength="81" x="238.5" y="604.8418">tokens_sold,</text><text fill="#000000" font-family="sans-serif" font-size="13" lengthAdjust="spacing" textLength="72" x="238.5" y="620.1523">eth_bought</text><path d="M440.5,495.4102 L440.5,566.4102 L517.5,566.4102 L517.5,505.4102 L507.5,495.4102 L440.5,495.4102 " fill="#00FFFF" style="stroke:#181818;stroke-width:0.5;"/><path d="M507.5,495.4102 L507.5,505.4102 L517.5,505.4102 L507.5,495.4102 " fill="#00FFFF" style="stroke:#181818;stroke-width:0.5;"/><text fill="#000000" font-family="sans-serif" font-size="13" lengthAdjust="spacing" textLength="56" x="446.5" y="512.9785">Transfer:</text><text fill="#000000" font-family="sans-serif" font-size="13" lengthAdjust="spacing" textLength="34" x="454.5" y="528.2891">from,</text><text fill="#000000" font-family="sans-serif" font-size="13" lengthAdjust="spacing" textLength="17" x="454.5" y="543.5996">to,</text><text fill="#000000" font-family="sans-serif" font-size="13" lengthAdjust="spacing" textLength="33" x="454.5" y="558.9102">value</text><!--SRC=[dL9TRzem57tthxZgNa2YMHn2leIGffPkF7Ih1ErJ9NJZt1IBO3F7eVJVBmuBj9EcINj9xh6FppdtsbRQYi0_JdYA8f-avAT998Y70UQv817o8EBnE4x2D0s2k4p65F4m5K5HX8XXE2aAZ3YF6HEujr8hsA5KYkm8yagBBV0edGHn6erWYUsYp-7Bta3W1sFmuomOP-C9VBrVCHHM6xZoZqKY0iyJVeXNW3Kuw02mFHehXToZiewNnWLvNjBcwtWEEW3JwQEIzIlkuOdFPjFfuF7xulg93rtTxyoFOeFgXM2XB9aI1NNaFotGpnFFepnCEWi77N0MorkuqLAT39QtDvtydKIxqbjI3qOVtrezTav_FJidpC0wpahFxMPbKDKbcONQDtRmhE2qLwzhNHKZXtTIhSbkkheWB2gfg0E6sg2Ib1swsSa3MZfRiFCqMjy-TWOvLgW4_IWxfxL-LMJUdUw9p91jZ0BTs0z2VJCPb5XLEOhjOFYiVC_d0SnNtov2FR4N-aiS-xlvEwDtfqHbMtNDhQq-_GzODVIFZEzAfdHBqWSobmVn2NysoDfXFpIclVQQCWQGDszaHkpZl5lOZdgTw-PbO__Z1Aa2N036FiCboFdPd8BqL-uqktuxIVVjUhs8_080]--></g></svg>
