<?xml version="1.0" encoding="us-ascii" standalone="no"?><svg xmlns:xlink="http://www.w3.org/1999/xlink" xmlns="http://www.w3.org/2000/svg" contentStyleType="text/css" height="796px" preserveAspectRatio="none" style="width:599px;height:796px;background:#FFFFFF;" version="1.1" viewBox="0 0 599 796" width="599px" zoomAndPan="magnify"><defs/><g><text fill="#000000" font-family="sans-serif" font-size="14" font-weight="bold" lengthAdjust="spacing" textLength="571" x="10" y="28.5352">0x519acb59e0986ce142abbcec412617378499227f83e6149c2dd4aa445dda6117</text><text fill="#000000" font-family="sans-serif" font-size="14" lengthAdjust="spacing" textLength="402" x="94.5" y="784.3145">mainnet, block 16952796, Sat, 01 Apr 2023 07:23:35 GMT</text><rect fill="#FFFFFF" height="14" style="stroke:#181818;stroke-width:1.0;" width="10" x="90" y="349.8574"/><rect fill="#FFFFFF" height="312.3477" style="stroke:#181818;stroke-width:1.0;" width="10" x="275" y="215.9941"/><rect fill="#FFFFFF" height="44.6211" style="stroke:#181818;stroke-width:1.0;" width="10" x="474" y="260.6152"/><rect fill="#FFFFFF" height="44.6211" style="stroke:#181818;stroke-width:1.0;" width="10" x="474" y="439.0996"/><line style="stroke:#181818;stroke-width:0.5;stroke-dasharray:5.0,5.0;" x1="94.5" x2="94.5" y1="123.4414" y2="688.8262"/><line style="stroke:#181818;stroke-width:0.5;stroke-dasharray:5.0,5.0;" x1="279.5" x2="279.5" y1="123.4414" y2="688.8262"/><line style="stroke:#181818;stroke-width:0.5;stroke-dasharray:5.0,5.0;" x1="478.5" x2="478.5" y1="123.4414" y2="688.8262"/><text fill="#000000" font-family="sans-serif" font-size="14" lengthAdjust="spacing" textLength="93" x="45.5" y="120.4883">0xd8c2..c04a</text><ellipse cx="95" cy="55.4531" fill="#E2E2F0" rx="8" ry="8" style="stroke:#181818;stroke-width:0.5;"/><path d="M95,63.4531 L95,90.4531 M82,71.4531 L108,71.4531 M95,90.4531 L82,105.4531 M95,90.4531 L108,105.4531 " fill="none" style="stroke:#181818;stroke-width:0.5;"/><text fill="#000000" font-family="sans-serif" font-size="14" lengthAdjust="spacing" textLength="93" x="45.5" y="701.3613">0xd8c2..c04a</text><ellipse cx="95" cy="712.8145" fill="#E2E2F0" rx="8" ry="8" style="stroke:#181818;stroke-width:0.5;"/><path d="M95,720.8145 L95,747.8145 M82,728.8145 L108,728.8145 M95,747.8145 L82,762.8145 M95,747.8145 L108,762.8145 " fill="none" style="stroke:#181818;stroke-width:0.5;"/><rect fill="#E2E2F0" height="79.9531" rx="2.5" ry="2.5" style="stroke:#181818;stroke-width:0.5;" width="243" x="158.5" y="42.4883"/><text fill="#000000" font-family="sans-serif" font-size="14" font-style="italic" lengthAdjust="spacing" textLength="94" x="233" y="63.0234">&#171;Uniswap V1&#187;</text><text fill="#000000" font-family="sans-serif" font-size="14" font-style="italic" lengthAdjust="spacing" textLength="74" x="243" y="79.5117">&#171;(UNI-V1)&#187;</text><text fill="#000000" font-family="sans-serif" font-size="14" font-style="italic" lengthAdjust="spacing" textLength="229" x="165.5" y="96">&#171;Uniswap Exchange Interface V1&#187;</text><text fill="#000000" font-family="sans-serif" font-size="14" lengthAdjust="spacing" textLength="97" x="231.5" y="112.4883">0x97de..8126</text><rect fill="#E2E2F0" height="79.9531" rx="2.5" ry="2.5" style="stroke:#181818;stroke-width:0.5;" width="243" x="158.5" y="687.8262"/><text fill="#000000" font-family="sans-serif" font-size="14" font-style="italic" lengthAdjust="spacing" textLength="94" x="233" y="708.3613">&#171;Uniswap V1&#187;</text><text fill="#000000" font-family="sans-serif" font-size="14" font-style="italic" lengthAdjust="spacing" textLength="74" x="243" y="724.8496">&#171;(UNI-V1)&#187;</text><text fill="#000000" font-family="sans-serif" font-size="14" font-style="italic" lengthAdjust="spacing" textLength="229" x="165.5" y="741.3379">&#171;Uniswap Exchange Interface V1&#187;</text><text fill="#000000" font-family="sans-serif" font-size="14" lengthAdjust="spacing" textLength="97" x="231.5" y="757.8262">0x97de..8126</text><rect fill="#E2E2F0" height="79.9531" rx="2.5" ry="2.5" style="stroke:#181818;stroke-width:0.5;" width="135" x="411.5" y="42.4883"/><text fill="#000000" font-family="sans-serif" font-size="14" font-style="italic" lengthAdjust="spacing" textLength="78" x="440" y="63.0234">&#171;USD Coin&#187;</text><text fill="#000000" font-family="sans-serif" font-size="14" font-style="italic" lengthAdjust="spacing" textLength="62" x="448" y="79.5117">&#171;(USDC)&#187;</text><text fill="#000000" font-family="sans-serif" font-size="14" font-style="italic" lengthAdjust="spacing" textLength="121" x="418.5" y="96">&#171;FiatTokenProxy&#187;</text><text fill="#000000" font-family="sans-serif" font-size="14" lengthAdjust="spacing" textLength="96" x="431" y="112.4883">0xa0b8..eb48</text><rect fill="#E2E2F0" height="79.9531" rx="2.5" ry="2.5" style="stroke:#181818;stroke-width:0.5;" width="135" x="411.5" y="687.8262"/><text fill="#000000" font-family="sans-serif" font-size="14" font-style="italic" lengthAdjust="spacing" textLength="78" x="440" y="708.3613">&#171;USD Coin&#187;</text><text fill="#000000" font-family="sans-serif" font-size="14" font-style="italic" lengthAdjust="spacing" textLength="62" x="448" y="724.8496">&#171;(USDC)&#187;</text><text fill="#000000" font-family="sans-serif" font-size="14" font-style="italic" lengthAdjust="spacing" textLength="121" x="418.5" y="741.3379">&#171;FiatTokenProxy&#187;</text><text fill="#000000" font-family="sans-serif" font-size="14" lengthAdjust="spacing" textLength="96" x="431" y="757.8262">0xa0b8..eb48</text><rect fill="#FFFFFF" height="14" style="stroke:#181818;stroke-width:1.0;" width="10" x="90" y="349.8574"/><rect fill="#FFFFFF" height="312.3477" style="stroke:#181818;stroke-width:1.0;" width="10" x="275" y="215.9941"/><rect fill="#FFFFFF" height="44.6211" style="stroke:#181818;stroke-width:1.0;" width="10" x="474" y="260.6152"/><rect fill="#FFFFFF" height="44.6211" style="stroke:#181818;stroke-width:1.0;" width="10" x="474" y="439.0996"/><polygon fill="#181818" points="263,211.9941,273,215.9941,263,219.9941,267,215.9941" style="stroke:#181818;stroke-width:1.0;"/><line style="stroke:#181818;stroke-width:1.0;" x1="95" x2="269" y1="215.9941" y2="215.9941"/><text fill="#000000" font-family="sans-serif" font-size="13" lengthAdjust="spacing" textLength="161" x="102" y="150.0098">tokenToEthTransferInput(</text><text fill="#000000" font-family="sans-serif" font-size="13" lengthAdjust="spacing" textLength="81" x="102" y="165.3203">tokens_sold,</text><text fill="#000000" font-family="sans-serif" font-size="13" lengthAdjust="spacing" textLength="55" x="102" y="180.6309">min_eth,</text><text fill="#000000" font-family="sans-serif" font-size="13" lengthAdjust="spacing" textLength="57" x="102" y="195.9414">deadline,</text><text fill="#000000" font-family="sans-serif" font-size="13" lengthAdjust="spacing" textLength="59" x="102" y="211.252">recipient)</text><polygon fill="#181818" points="462,256.6152,472,260.6152,462,264.6152,466,260.6152" style="stroke:#181818;stroke-width:1.0;"/><line style="stroke:#181818;stroke-width:1.0;" x1="285" x2="468" y1="260.6152" y2="260.6152"/><text fill="#000000" font-family="sans-serif" font-size="13" lengthAdjust="spacing" textLength="67" x="292" y="240.5625">balanceOf(</text><text fill="#000000" font-family="sans-serif" font-size="13" lengthAdjust="spacing" textLength="49" x="292" y="255.873">_owner)</text><polygon fill="#181818" points="296,301.2363,286,305.2363,296,309.2363,292,305.2363" style="stroke:#181818;stroke-width:1.0;"/><line style="stroke:#181818;stroke-width:1.0;stroke-dasharray:2.0,2.0;" x1="290" x2="478" y1="305.2363" y2="305.2363"/><text fill="#000000" font-family="sans-serif" font-size="13" lengthAdjust="spacing" textLength="4" x="302" y="285.1836">&#160;</text><text fill="#000000" font-family="sans-serif" font-size="13" lengthAdjust="spacing" textLength="21" x="302" y="300.4941">out</text><polygon fill="#181818" points="111,345.8574,101,349.8574,111,353.8574,107,349.8574" style="stroke:#181818;stroke-width:1.0;"/><line style="stroke:#181818;stroke-width:1.0;" x1="105" x2="274" y1="349.8574" y2="349.8574"/><text fill="#000000" font-family="sans-serif" font-size="13" lengthAdjust="spacing" textLength="58" x="117" y="329.8047">fallback()</text><text fill="#000000" font-family="sans-serif" font-size="13" lengthAdjust="spacing" textLength="65" x="117" y="345.1152">0.012 ETH</text><polygon fill="#181818" points="263,359.8574,273,363.8574,263,367.8574,267,363.8574" style="stroke:#181818;stroke-width:1.0;"/><line style="stroke:#181818;stroke-width:1.0;stroke-dasharray:2.0,2.0;" x1="95" x2="269" y1="363.8574" y2="363.8574"/><polygon fill="#181818" points="462,435.0996,472,439.0996,462,443.0996,466,439.0996" style="stroke:#181818;stroke-width:1.0;"/><line style="stroke:#181818;stroke-width:1.0;" x1="285" x2="468" y1="439.0996" y2="439.0996"/><text fill="#000000" font-family="sans-serif" font-size="13" lengthAdjust="spacing" textLength="85" x="292" y="388.4258">transferFrom(</text><text fill="#000000" font-family="sans-serif" font-size="13" lengthAdjust="spacing" textLength="41" x="292" y="403.7363">_from,</text><text fill="#000000" font-family="sans-serif" font-size="13" lengthAdjust="spacing" textLength="24" x="292" y="419.0469">_to,</text><text fill="#000000" font-family="sans-serif" font-size="13" lengthAdjust="spacing" textLength="44" x="292" y="434.3574">_value)</text><polygon fill="#181818" points="296,479.7207,286,483.7207,296,487.7207,292,483.7207" style="stroke:#181818;stroke-width:1.0;"/><line style="stroke:#181818;stroke-width:1.0;stroke-dasharray:2.0,2.0;" x1="290" x2="478" y1="483.7207" y2="483.7207"/><text fill="#000000" font-family="sans-serif" font-size="13" lengthAdjust="spacing" textLength="4" x="302" y="463.668">&#160;</text><text fill="#000000" font-family="sans-serif" font-size="13" lengthAdjust="spacing" textLength="21" x="302" y="478.9785">out</text><polygon fill="#181818" points="106,524.3418,96,528.3418,106,532.3418,102,528.3418" style="stroke:#181818;stroke-width:1.0;"/><line style="stroke:#181818;stroke-width:1.0;stroke-dasharray:2.0,2.0;" x1="100" x2="279" y1="528.3418" y2="528.3418"/><text fill="#000000" font-family="sans-serif" font-size="13" lengthAdjust="spacing" textLength="4" x="112" y="508.2891">&#160;</text><text fill="#000000" font-family="sans-serif" font-size="13" lengthAdjust="spacing" textLength="21" x="112" y="523.5996">out</text><path d="M224.5,541.3418 L224.5,673.3418 L334.5,673.3418 L334.5,551.3418 L324.5,541.3418 L224.5,541.3418 " fill="#00FFFF" style="stroke:#181818;stroke-width:0.5;"/><path d="M324.5,541.3418 L324.5,551.3418 L334.5,551.3418 L324.5,541.3418 " fill="#00FFFF" style="stroke:#181818;stroke-width:0.5;"/><text fill="#000000" font-family="sans-serif" font-size="13" lengthAdjust="spacing" textLength="80" x="230.5" y="558.9102">EthPurchase:</text><text fill="#000000" font-family="sans-serif" font-size="13" lengthAdjust="spacing" textLength="39" x="238.5" y="574.2207">buyer,</text><text fill="#000000" font-family="sans-serif" font-size="13" lengthAdjust="spacing" textLength="81" x="238.5" y="589.5313">tokens_sold,</text><text fill="#000000" font-family="sans-serif" font-size="13" lengthAdjust="spacing" textLength="72" x="238.5" y="604.8418">eth_bought</text><text fill="#000000" font-family="sans-serif" font-size="13" lengthAdjust="spacing" textLength="80" x="230.5" y="620.1523">EthPurchase:</text><text fill="#000000" font-family="sans-serif" font-size="13" lengthAdjust="spacing" textLength="39" x="238.5" y="635.4629">buyer,</text><text fill="#000000" font-family="sans-serif" font-size="13" lengthAdjust="spacing" textLength="81" x="238.5" y="650.7734">tokens_sold,</text><text fill="#000000" font-family="sans-serif" font-size="13" lengthAdjust="spacing" textLength="72" x="238.5" y="666.084">eth_bought</text><path d="M440.5,541.3418 L440.5,612.3418 L517.5,612.3418 L517.5,551.3418 L507.5,541.3418 L440.5,541.3418 " fill="#00FFFF" style="stroke:#181818;stroke-width:0.5;"/><path d="M507.5,541.3418 L507.5,551.3418 L517.5,551.3418 L507.5,541.3418 " fill="#00FFFF" style="stroke:#181818;stroke-width:0.5;"/><text fill="#000000" font-family="sans-serif" font-size="13" lengthAdjust="spacing" textLength="56" x="446.5" y="558.9102">Transfer:</text><text fill="#000000" font-family="sans-serif" font-size="13" lengthAdjust="spacing" textLength="34" x="454.5" y="574.2207">from,</text><text fill="#000000" font-family="sans-serif" font-size="13" lengthAdjust="spacing" textLength="17" x="454.5" y="589.5313">to,</text><text fill="#000000" font-family="sans-serif" font-size="13" lengthAdjust="spacing" textLength="33" x="454.5" y="604.8418">value</text><!--SRC=[dL9TRzem57tthxZgNa2YMHn2leIGffPkVUXM2Ted97JZt9I8O3F7eVJVpquRO9EcINjnxecFppdtsgOoDO5_dF0KHJv9oK-JI10F0ynpGIBaGSJZSPo4QHe4SPcCAU9XAeAY2173S58K674UCoPmRoebOOULb6H6aDTAR857wII8qsW42xG_VGvVzXe2FnY37sV1E1jFuEl3ag4mIiELVomI4NYUy4Ey0cp0GGU0xL6RIbHxbCRnqhWWpqjilexde0CmdJx9gdd5FJppsMmw7Jnzlxz-vaDNzplpezYWV26ubuPqYO8wyfyMwEU9vr4U9fs5WmuuYyKjtAXAlXiiRcyw-RiApL9jIJvgTNopUkoK_dfsIfY1SPobcflDKgDiIjBtSj-QmKfsEyswKNKnMibT9TTaDhOg28kwacHBJJPWHT8CtSog0newIRFJ5AnV7pU376kKWdwKrc6jNYNfYxCzZMaohPOhgLhpcqxVGmObrdMEOZiOhgJl-Jo0-VBRMQadVYZz9OpvQFbEgvtBKzglRMjjb5iFMBVqhtINDPFAqjI1zFa9VCAVBJ8xtiTMsujkA6C0UVj6UcIBonbRQ0UypbNxiZ7_SO9a0Iu0Ov_X7EJqKDw3z9ViDBjkEqctTjsUHNu1]--></g></svg>
