<?xml version="1.0" encoding="UTF-8" standalone="no"?><svg xmlns:xlink="http://www.w3.org/1999/xlink" xmlns="http://www.w3.org/2000/svg" contentStyleType="text/css" height="1035px" preserveAspectRatio="none" style="width:663px;height:1035px;background:#FFFFFF;" version="1.1" viewBox="0 0 663 1035" width="663px" zoomAndPan="magnify"><defs/><g><text fill="#000000" font-family="sans-serif" font-size="14" font-weight="bold" lengthAdjust="spacing" textLength="571" x="44.5" y="28.5352">0x519acb59e0986ce142abbcec412617378499227f83e6149c2dd4aa445dda6117</text><text fill="#000000" font-family="sans-serif" font-size="14" lengthAdjust="spacing" textLength="402" x="129" y="1023.3516">mainnet, block 16952796, Sat, 01 Apr 2023 07:23:35 GMT</text><rect fill="#FFFFFF" height="14" style="stroke:#181818;stroke-width:1.0;" width="10" x="105.5" y="522.9629"/><rect fill="#FFFFFF" height="358.2793" style="stroke:#181818;stroke-width:1.0;" width="10" x="348.5" y="358.4785"/><rect fill="#FFFFFF" height="44.6211" style="stroke:#181818;stroke-width:1.0;" width="10" x="571" y="418.4102"/><rect fill="#FFFFFF" height="44.6211" style="stroke:#181818;stroke-width:1.0;" width="10" x="571" y="627.5156"/><line style="stroke:#181818;stroke-width:0.5;stroke-dasharray:5.0,5.0;" x1="110" x2="110" y1="123.4414" y2="927.8633"/><line style="stroke:#181818;stroke-width:0.5;stroke-dasharray:5.0,5.0;" x1="353" x2="353" y1="123.4414" y2="927.8633"/><line style="stroke:#181818;stroke-width:0.5;stroke-dasharray:5.0,5.0;" x1="575.5" x2="575.5" y1="123.4414" y2="927.8633"/><text fill="#000000" font-family="sans-serif" font-size="14" lengthAdjust="spacing" textLength="93" x="61" y="120.4883">0xd8c2..c04a</text><ellipse cx="110.5" cy="55.4531" fill="#E2E2F0" rx="8" ry="8" style="stroke:#181818;stroke-width:0.5;"/><path d="M110.5,63.4531 L110.5,90.4531 M97.5,71.4531 L123.5,71.4531 M110.5,90.4531 L97.5,105.4531 M110.5,90.4531 L123.5,105.4531 " fill="none" style="stroke:#181818;stroke-width:0.5;"/><text fill="#000000" font-family="sans-serif" font-size="14" lengthAdjust="spacing" textLength="93" x="61" y="940.3984">0xd8c2..c04a</text><ellipse cx="110.5" cy="951.8516" fill="#E2E2F0" rx="8" ry="8" style="stroke:#181818;stroke-width:0.5;"/><path d="M110.5,959.8516 L110.5,986.8516 M97.5,967.8516 L123.5,967.8516 M110.5,986.8516 L97.5,1001.8516 M110.5,986.8516 L123.5,1001.8516 " fill="none" style="stroke:#181818;stroke-width:0.5;"/><rect fill="#E2E2F0" height="79.9531" rx="2.5" ry="2.5" style="stroke:#181818;stroke-width:0.5;" width="243" x="232" y="42.4883"/><text fill="#000000" font-family="sans-serif" font-size="14" font-style="italic" lengthAdjust="spacing" textLength="94" x="306.5" y="63.0234">«Uniswap V1»</text><text fill="#000000" font-family="sans-serif" font-size="14" font-style="italic" lengthAdjust="spacing" textLength="74" x="316.5" y="79.5117">«(UNI-V1)»</text><text fill="#000000" font-family="sans-serif" font-size="14" font-style="italic" lengthAdjust="spacing" textLength="229" x="239" y="96">«Uniswap Exchange Interface V1»</text><text fill="#000000" font-family="sans-serif" font-size="14" lengthAdjust="spacing" textLength="97" x="305" y="112.4883">0x97de..8126</text><rect fill="#E2E2F0" height="79.9531" rx="2.5" ry="2.5" style="stroke:#181818;stroke-width:0.5;" width="243" x="232" y="926.8633"/><text fill="#000000" font-family="sans-serif" font-size="14" font-style="italic" lengthAdjust="spacing" textLength="94" x="306.5" y="947.3984">«Uniswap V1»</text><text fill="#000000" font-family="sans-serif" font-size="14" font-style="italic" lengthAdjust="spacing" textLength="74" x="316.5" y="963.8867">«(UNI-V1)»</text><text fill="#000000" font-family="sans-serif" font-size="14" font-style="italic" lengthAdjust="spacing" textLength="229" x="239" y="980.375">«Uniswap Exchange Interface V1»</text><text fill="#000000" font-family="sans-serif" font-size="14" lengthAdjust="spacing" textLength="97" x="305" y="996.8633">0x97de..8126</text><rect fill="#E2E2F0" height="79.9531" rx="2.5" ry="2.5" style="stroke:#181818;stroke-width:0.5;" width="135" x="508.5" y="42.4883"/><text fill="#000000" font-family="sans-serif" font-size="14" font-style="italic" lengthAdjust="spacing" textLength="78" x="537" y="63.0234">«USD Coin»</text><text fill="#000000" font-family="sans-serif" font-size="14" font-style="italic" lengthAdjust="spacing" textLength="62" x="545" y="79.5117">«(USDC)»</text><text fill="#000000" font-family="sans-serif" font-size="14" font-style="italic" lengthAdjust="spacing" textLength="121" x="515.5" y="96">«FiatTokenProxy»</text><text fill="#000000" font-family="sans-serif" font-size="14" lengthAdjust="spacing" textLength="96" x="528" y="112.4883">0xa0b8..eb48</text><rect fill="#E2E2F0" height="79.9531" rx="2.5" ry="2.5" style="stroke:#181818;stroke-width:0.5;" width="135" x="508.5" y="926.8633"/><text fill="#000000" font-family="sans-serif" font-size="14" font-style="italic" lengthAdjust="spacing" textLength="78" x="537" y="947.3984">«USD Coin»</text><text fill="#000000" font-family="sans-serif" font-size="14" font-style="italic" lengthAdjust="spacing" textLength="62" x="545" y="963.8867">«(USDC)»</text><text fill="#000000" font-family="sans-serif" font-size="14" font-style="italic" lengthAdjust="spacing" textLength="121" x="515.5" y="980.375">«FiatTokenProxy»</text><text fill="#000000" font-family="sans-serif" font-size="14" lengthAdjust="spacing" textLength="96" x="528" y="996.8633">0xa0b8..eb48</text><rect fill="#FFFFFF" height="14" style="stroke:#181818;stroke-width:1.0;" width="10" x="105.5" y="522.9629"/><rect fill="#FFFFFF" height="358.2793" style="stroke:#181818;stroke-width:1.0;" width="10" x="348.5" y="358.4785"/><rect fill="#FFFFFF" height="44.6211" style="stroke:#181818;stroke-width:1.0;" width="10" x="571" y="418.4102"/><rect fill="#FFFFFF" height="44.6211" style="stroke:#181818;stroke-width:1.0;" width="10" x="571" y="627.5156"/><path d="M5,138.4414 L5,255.4414 L217,255.4414 L217,148.4414 L207,138.4414 L5,138.4414 " fill="#FEFFDD" style="stroke:#181818;stroke-width:0.5;"/><path d="M207,138.4414 L207,148.4414 L217,148.4414 L207,138.4414 " fill="#FEFFDD" style="stroke:#181818;stroke-width:0.5;"/><text fill="#000000" font-family="sans-serif" font-size="13" lengthAdjust="spacing" textLength="64" x="11" y="156.0098">Nonce: 54</text><text fill="#000000" font-family="sans-serif" font-size="13" lengthAdjust="spacing" textLength="191" x="11" y="171.3203">Gas Price: 23.215706331 Gwei</text><text fill="#000000" font-family="sans-serif" font-size="13" lengthAdjust="spacing" textLength="185" x="11" y="186.6309">Max Fee: 26.062270477 Gwei</text><text fill="#000000" font-family="sans-serif" font-size="13" lengthAdjust="spacing" textLength="137" x="11" y="201.9414">Max Priority: 0.1 Gwei</text><text fill="#000000" font-family="sans-serif" font-size="13" lengthAdjust="spacing" textLength="111" x="11" y="217.252">Gas Limit: 84,211</text><text fill="#000000" font-family="sans-serif" font-size="13" lengthAdjust="spacing" textLength="110" x="11" y="232.5625">Gas Used: 70,973</text><text fill="#000000" font-family="sans-serif" font-size="13" lengthAdjust="spacing" textLength="114" x="11" y="247.873">Tx Fee: 0.002 ETH</text><polygon fill="#181818" points="336.5,354.4785,346.5,358.4785,336.5,362.4785,340.5,358.4785" style="stroke:#181818;stroke-width:1.0;"/><line style="stroke:#181818;stroke-width:1.0;" x1="110.5" x2="342.5" y1="358.4785" y2="358.4785"/><text fill="#000000" font-family="sans-serif" font-size="13" lengthAdjust="spacing" textLength="161" x="117.5" y="277.1836">tokenToEthTransferInput(</text><text fill="#000000" font-family="sans-serif" font-size="13" lengthAdjust="spacing" textLength="161" x="117.5" y="292.4941">tokens_sold: 22,000,000,</text><text fill="#000000" font-family="sans-serif" font-size="13" lengthAdjust="spacing" textLength="219" x="117.5" y="307.8047">min_eth: 11,948,409,244,131,348,</text><text fill="#000000" font-family="sans-serif" font-size="13" lengthAdjust="spacing" textLength="157" x="117.5" y="323.1152">deadline: 1,680,335,001,</text><text fill="#000000" font-family="sans-serif" font-size="13" lengthAdjust="spacing" textLength="156" x="117.5" y="338.4258">recipient: 0xD8C2..c04a)</text><text fill="#000000" font-family="sans-serif" font-size="13" lengthAdjust="spacing" textLength="70" x="117.5" y="353.7363">70,973 gas</text><polygon fill="#181818" points="559,414.4102,569,418.4102,559,422.4102,563,418.4102" style="stroke:#181818;stroke-width:1.0;"/><line style="stroke:#181818;stroke-width:1.0;" x1="358.5" x2="565" y1="418.4102" y2="418.4102"/><text fill="#000000" font-family="sans-serif" font-size="13" lengthAdjust="spacing" textLength="67" x="365.5" y="383.0469">balanceOf(</text><text fill="#000000" font-family="sans-serif" font-size="13" lengthAdjust="spacing" textLength="144" x="365.5" y="398.3574">_owner: 0x97de..8126)</text><text fill="#000000" font-family="sans-serif" font-size="13" lengthAdjust="spacing" textLength="62" x="365.5" y="413.668">9,815 gas</text><polygon fill="#181818" points="369.5,459.0313,359.5,463.0313,369.5,467.0313,365.5,463.0313" style="stroke:#181818;stroke-width:1.0;"/><line style="stroke:#181818;stroke-width:1.0;stroke-dasharray:2.0,2.0;" x1="363.5" x2="575" y1="463.0313" y2="463.0313"/><text fill="#000000" font-family="sans-serif" font-size="13" lengthAdjust="spacing" textLength="4" x="375.5" y="442.9785"> </text><text fill="#000000" font-family="sans-serif" font-size="13" lengthAdjust="spacing" textLength="137" x="375.5" y="458.2891">out: 315,900,611,714</text><polygon fill="#181818" points="126.5,518.9629,116.5,522.9629,126.5,526.9629,122.5,522.9629" style="stroke:#181818;stroke-width:1.0;"/><line style="stroke:#181818;stroke-width:1.0;" x1="120.5" x2="347.5" y1="522.9629" y2="522.9629"/><text fill="#000000" font-family="sans-serif" font-size="13" lengthAdjust="spacing" textLength="58" x="132.5" y="487.5996">fallback()</text><text fill="#000000" font-family="sans-serif" font-size="13" lengthAdjust="spacing" textLength="34" x="132.5" y="502.9102">0 gas</text><text fill="#000000" font-family="sans-serif" font-size="13" lengthAdjust="spacing" textLength="65" x="132.5" y="518.2207">0.012 ETH</text><polygon fill="#181818" points="336.5,532.9629,346.5,536.9629,336.5,540.9629,340.5,536.9629" style="stroke:#181818;stroke-width:1.0;"/><line style="stroke:#181818;stroke-width:1.0;stroke-dasharray:2.0,2.0;" x1="110.5" x2="342.5" y1="536.9629" y2="536.9629"/><polygon fill="#181818" points="559,623.5156,569,627.5156,559,631.5156,563,627.5156" style="stroke:#181818;stroke-width:1.0;"/><line style="stroke:#181818;stroke-width:1.0;" x1="358.5" x2="565" y1="627.5156" y2="627.5156"/><text fill="#000000" font-family="sans-serif" font-size="13" lengthAdjust="spacing" textLength="85" x="365.5" y="561.5313">transferFrom(</text><text fill="#000000" font-family="sans-serif" font-size="13" lengthAdjust="spacing" textLength="138" x="365.5" y="576.8418">_from: 0xD8C2..c04a,</text><text fill="#000000" font-family="sans-serif" font-size="13" lengthAdjust="spacing" textLength="119" x="365.5" y="592.1523">_to: 0x97de..8126,</text><text fill="#000000" font-family="sans-serif" font-size="13" lengthAdjust="spacing" textLength="124" x="365.5" y="607.4629">_value: 22,000,000)</text><text fill="#000000" font-family="sans-serif" font-size="13" lengthAdjust="spacing" textLength="70" x="365.5" y="622.7734">24,392 gas</text><polygon fill="#181818" points="369.5,668.1367,359.5,672.1367,369.5,676.1367,365.5,672.1367" style="stroke:#181818;stroke-width:1.0;"/><line style="stroke:#181818;stroke-width:1.0;stroke-dasharray:2.0,2.0;" x1="363.5" x2="575" y1="672.1367" y2="672.1367"/><text fill="#000000" font-family="sans-serif" font-size="13" lengthAdjust="spacing" textLength="4" x="375.5" y="652.084"> </text><text fill="#000000" font-family="sans-serif" font-size="13" lengthAdjust="spacing" textLength="54" x="375.5" y="667.3945">out: true</text><polygon fill="#181818" points="121.5,712.7578,111.5,716.7578,121.5,720.7578,117.5,716.7578" style="stroke:#181818;stroke-width:1.0;"/><line style="stroke:#181818;stroke-width:1.0;stroke-dasharray:2.0,2.0;" x1="115.5" x2="352.5" y1="716.7578" y2="716.7578"/><text fill="#000000" font-family="sans-serif" font-size="13" lengthAdjust="spacing" textLength="4" x="127.5" y="696.7051"> </text><text fill="#000000" font-family="sans-serif" font-size="13" lengthAdjust="spacing" textLength="185" x="127.5" y="712.0156">out: 12,008,151,290,352,005</text><path d="M358,729.7578 L358,769.7578 L449,769.7578 L449,739.7578 L439,729.7578 L358,729.7578 " fill="#FEFFDD" style="stroke:#181818;stroke-width:0.5;"/><path d="M439,729.7578 L439,739.7578 L449,739.7578 L439,729.7578 " fill="#FEFFDD" style="stroke:#181818;stroke-width:0.5;"/><text fill="#000000" font-family="sans-serif" font-size="13" lengthAdjust="spacing" textLength="4" x="364" y="747.3262"> </text><text fill="#000000" font-family="sans-serif" font-size="13" lengthAdjust="spacing" textLength="70" x="364" y="762.6367">36,766 gas</text><path d="M221,780.3789 L221,912.3789 L486,912.3789 L486,790.3789 L476,780.3789 L221,780.3789 " fill="#00FFFF" style="stroke:#181818;stroke-width:0.5;"/><path d="M476,780.3789 L476,790.3789 L486,790.3789 L476,780.3789 " fill="#00FFFF" style="stroke:#181818;stroke-width:0.5;"/><text fill="#000000" font-family="sans-serif" font-size="13" lengthAdjust="spacing" textLength="80" x="227" y="797.9473">EthPurchase:</text><text fill="#000000" font-family="sans-serif" font-size="13" lengthAdjust="spacing" textLength="136" x="235" y="813.2578">buyer: 0xD8C2..c04a,</text><text fill="#000000" font-family="sans-serif" font-size="13" lengthAdjust="spacing" textLength="161" x="235" y="828.5684">tokens_sold: 22,000,000,</text><text fill="#000000" font-family="sans-serif" font-size="13" lengthAdjust="spacing" textLength="236" x="235" y="843.8789">eth_bought: 12,008,151,290,352,005</text><text fill="#000000" font-family="sans-serif" font-size="13" lengthAdjust="spacing" textLength="80" x="227" y="859.1895">EthPurchase:</text><text fill="#000000" font-family="sans-serif" font-size="13" lengthAdjust="spacing" textLength="136" x="235" y="874.5">buyer: 0xD8C2..c04a,</text><text fill="#000000" font-family="sans-serif" font-size="13" lengthAdjust="spacing" textLength="161" x="235" y="889.8105">tokens_sold: 22,000,000,</text><text fill="#000000" font-family="sans-serif" font-size="13" lengthAdjust="spacing" textLength="236" x="235" y="905.1211">eth_bought: 12,008,151,290,352,005</text><path d="M496,780.3789 L496,851.3789 L656,851.3789 L656,790.3789 L646,780.3789 L496,780.3789 " fill="#00FFFF" style="stroke:#181818;stroke-width:0.5;"/><path d="M646,780.3789 L646,790.3789 L656,790.3789 L646,780.3789 " fill="#00FFFF" style="stroke:#181818;stroke-width:0.5;"/><text fill="#000000" font-family="sans-serif" font-size="13" lengthAdjust="spacing" textLength="56" x="502" y="797.9473">Transfer:</text><text fill="#000000" font-family="sans-serif" font-size="13" lengthAdjust="spacing" textLength="131" x="510" y="813.2578">from: 0xD8C2..c04a,</text><text fill="#000000" font-family="sans-serif" font-size="13" lengthAdjust="spacing" textLength="112" x="510" y="828.5684">to: 0x97de..8126,</text><text fill="#000000" font-family="sans-serif" font-size="13" lengthAdjust="spacing" textLength="113" x="510" y="843.8789">value: 22,000,000</text><!--SRC=[lLHBJnin4BxlhnZH2qXcQtkzJo6aYbUH2aKYS8eKUNSTOf7OgUE5yEyxthm8BL9FFKIRcLb_ZvdnUksd2kWoPQLiwhHKj2ooHZ71PLqtgX6CPonFyaAK9UVvk4XKnaJPyBOLKWgHjgtC6CkZg95phws1cTJ6A4-Wdjhc6LXMfZmlCmBt4fEKmRUv0qvv0ZIlU58bALpT32BPUElWW2xRek5nt50X3q0k88GXW6WkdTUDdalZmtjbtgeuBb1V_ru8Gm0d9mz6Brxb71xPwUd9oU73xVNn8piA_pULYsKpaUP9mRNnoerbe_gNFr98MXTnh6fHz1GX346Wk3-7CwlDYk3-_Ao7lzJI3-opCdVEBjyGBpBMAx0locrzHBVMDAg2L4HNY7ddT8Xu4dEMvZHB4WPNhqf7Dt89bogKifXcs7egydnNmdFMQVzM0OtN9mBS3ptJle924CvOdtbOgBQ2d98oJwB16fF6b7Au67oFb6aXY8oYRQEFJxVDhC07EmDxuIS39yrYhDorcNV-S6ZwocAqi5F4vvnGIllVqCoq6Ia_gO0nKeg225eIBWHX2IC9naFJAjbEjK4bZ6G59KcIubc65QUm_LePD46NvyNPUXMEXcPb0Pxa8koAVf7OsOtEQ3jz5ByPKmMrd4fiziynoXtPLwDSGDqj3gAMf63fFkZcVEIKxvmP6jkXceIbf4HxkEmaPsAFSTEw2iPoEgrbyto8q3J0uYEcRDNhBSDs5rOCdwZtwuPVEZiB1iRutEyAzclaxRwda7kHqqwz7mgguO8a9VyNfzvrQZ_30b11MCe8Bt5QQOZJrN8x_JJnOCVlTcPeaepaMTQJlRi2MvjVvAzEHhXJTvt3YxXGLGHGTs-h-RppX-dFrWnBk6EZsdR8_wd4_y6nkq9VOMTs-x5OcTtSdg3YBuFiHNmO9ER-6EIEx3S0]--></g></svg>
