<?xml version="1.0" encoding="UTF-8" standalone="no"?><svg xmlns:xlink="http://www.w3.org/1999/xlink" xmlns="http://www.w3.org/2000/svg" contentStyleType="text/css" height="2793px" preserveAspectRatio="none" style="width:2070px;height:2793px;background:#FFFFFF;" version="1.1" viewBox="0 0 2070 2793" width="2070px" zoomAndPan="magnify"><defs/><g><text fill="#000000" font-family="sans-serif" font-size="14" font-weight="bold" lengthAdjust="spacing" textLength="555" x="756" y="28.5352">0x57d4dadabddcf30b35199837af2614f55d09f0ae4ccf0710cbedee69324f2fa7</text><text fill="#000000" font-family="sans-serif" font-size="14" lengthAdjust="spacing" textLength="396" x="835.5" y="2781.3008">mainnet, block 17538866, Fri, 23 Jun 2023 00:57:47 GMT</text><rect fill="#FFFFFF" height="1978.4336" style="stroke:#181818;stroke-width:1.0;" width="10" x="442" y="480.9629"/><rect fill="#FFFFFF" height="439.5215" style="stroke:#181818;stroke-width:1.0;" width="10" x="447" y="1238.0742"/><rect fill="#FFFFFF" height="136.4844" style="stroke:#181818;stroke-width:1.0;" width="10" x="1384" y="525.584"/><rect fill="#FFFFFF" height="1369.1855" style="stroke:#181818;stroke-width:1.0;" width="10" x="1384" y="783.2422"/><rect fill="#FFFFFF" height="105.8633" style="stroke:#181818;stroke-width:1.0;" width="10" x="1384" y="2262.9805"/><rect fill="#FFFFFF" height="149.1738" style="stroke:#181818;stroke-width:1.0;" width="10" x="1615.5" y="843.1738"/><rect fill="#FFFFFF" height="149.1738" style="stroke:#181818;stroke-width:1.0;" width="10" x="1615.5" y="1328.627"/><rect fill="#FFFFFF" height="149.1738" style="stroke:#181818;stroke-width:1.0;" width="10" x="1615.5" y="1788.1484"/><rect fill="#809ECB" height="44.6211" style="stroke:#181818;stroke-width:1.0;" width="10" x="1793.5" y="903.1055"/><rect fill="#809ECB" height="44.6211" style="stroke:#181818;stroke-width:1.0;" width="10" x="1793.5" y="1419.1797"/><rect fill="#809ECB" height="44.6211" style="stroke:#181818;stroke-width:1.0;" width="10" x="1793.5" y="1848.0801"/><rect fill="#FFFFFF" height="44.6211" style="stroke:#181818;stroke-width:1.0;" width="10" x="1933" y="1102.9004"/><rect fill="#FFFFFF" height="44.6211" style="stroke:#181818;stroke-width:1.0;" width="10" x="1933" y="1618.9746"/><rect fill="#FFFFFF" height="44.6211" style="stroke:#181818;stroke-width:1.0;" width="10" x="1933" y="2047.875"/><line style="stroke:#181818;stroke-width:0.5;stroke-dasharray:5.0,5.0;" x1="111" x2="111" y1="123.4414" y2="2685.8125"/><line style="stroke:#181818;stroke-width:0.5;stroke-dasharray:5.0,5.0;" x1="446.5" x2="446.5" y1="123.4414" y2="2685.8125"/><line style="stroke:#181818;stroke-width:0.5;stroke-dasharray:5.0,5.0;" x1="1389" x2="1389" y1="123.4414" y2="2685.8125"/><line style="stroke:#181818;stroke-width:0.5;stroke-dasharray:5.0,5.0;" x1="1620" x2="1620" y1="123.4414" y2="2685.8125"/><line style="stroke:#181818;stroke-width:0.5;stroke-dasharray:5.0,5.0;" x1="1798.5" x2="1798.5" y1="123.4414" y2="2685.8125"/><line style="stroke:#181818;stroke-width:0.5;stroke-dasharray:5.0,5.0;" x1="1937.5" x2="1937.5" y1="123.4414" y2="2685.8125"/><text fill="#000000" font-family="sans-serif" font-size="14" lengthAdjust="spacing" textLength="94" x="61" y="120.4883">0x192b..cc60</text><ellipse cx="111" cy="55.4531" fill="#E2E2F0" rx="8" ry="8" style="stroke:#181818;stroke-width:0.5;"/><path d="M111,63.4531 L111,90.4531 M98,71.4531 L124,71.4531 M111,90.4531 L98,105.4531 M111,90.4531 L124,105.4531 " fill="none" style="stroke:#181818;stroke-width:0.5;"/><text fill="#000000" font-family="sans-serif" font-size="14" lengthAdjust="spacing" textLength="94" x="61" y="2698.3477">0x192b..cc60</text><ellipse cx="111" cy="2709.8008" fill="#E2E2F0" rx="8" ry="8" style="stroke:#181818;stroke-width:0.5;"/><path d="M111,2717.8008 L111,2744.8008 M98,2725.8008 L124,2725.8008 M111,2744.8008 L98,2759.8008 M111,2744.8008 L124,2759.8008 " fill="none" style="stroke:#181818;stroke-width:0.5;"/><rect fill="#E2E2F0" height="79.9531" rx="2.5" ry="2.5" style="stroke:#181818;stroke-width:0.5;" width="231" x="331.5" y="42.4883"/><text fill="#000000" font-family="sans-serif" font-size="14" font-style="italic" lengthAdjust="spacing" textLength="217" x="338.5" y="63.0234">«Uniswap V3 Positions NFT-V1»</text><text fill="#000000" font-family="sans-serif" font-size="14" font-style="italic" lengthAdjust="spacing" textLength="109" x="392.5" y="79.5117">«(UNI-V3-POS)»</text><text fill="#000000" font-family="sans-serif" font-size="14" font-style="italic" lengthAdjust="spacing" textLength="214" x="340" y="96">«NonfungiblePositionManager»</text><text fill="#000000" font-family="sans-serif" font-size="14" lengthAdjust="spacing" textLength="91" x="401.5" y="112.4883">0xc364..fe88</text><rect fill="#E2E2F0" height="79.9531" rx="2.5" ry="2.5" style="stroke:#181818;stroke-width:0.5;" width="231" x="331.5" y="2684.8125"/><text fill="#000000" font-family="sans-serif" font-size="14" font-style="italic" lengthAdjust="spacing" textLength="217" x="338.5" y="2705.3477">«Uniswap V3 Positions NFT-V1»</text><text fill="#000000" font-family="sans-serif" font-size="14" font-style="italic" lengthAdjust="spacing" textLength="109" x="392.5" y="2721.8359">«(UNI-V3-POS)»</text><text fill="#000000" font-family="sans-serif" font-size="14" font-style="italic" lengthAdjust="spacing" textLength="214" x="340" y="2738.3242">«NonfungiblePositionManager»</text><text fill="#000000" font-family="sans-serif" font-size="14" lengthAdjust="spacing" textLength="91" x="401.5" y="2754.8125">0xc364..fe88</text><rect fill="#E2E2F0" height="46.9766" rx="2.5" ry="2.5" style="stroke:#181818;stroke-width:0.5;" width="134" x="1322" y="75.4648"/><text fill="#000000" font-family="sans-serif" font-size="14" font-style="italic" lengthAdjust="spacing" textLength="120" x="1329" y="96">«UniswapV3Pool»</text><text fill="#000000" font-family="sans-serif" font-size="14" lengthAdjust="spacing" textLength="97" x="1340.5" y="112.4883">0x88e6..5640</text><rect fill="#E2E2F0" height="46.9766" rx="2.5" ry="2.5" style="stroke:#181818;stroke-width:0.5;" width="134" x="1322" y="2684.8125"/><text fill="#000000" font-family="sans-serif" font-size="14" font-style="italic" lengthAdjust="spacing" textLength="120" x="1329" y="2705.3477">«UniswapV3Pool»</text><text fill="#000000" font-family="sans-serif" font-size="14" lengthAdjust="spacing" textLength="97" x="1340.5" y="2721.8359">0x88e6..5640</text><rect fill="#E2E2F0" height="79.9531" rx="2.5" ry="2.5" style="stroke:#181818;stroke-width:0.5;" width="135" x="1553" y="42.4883"/><text fill="#000000" font-family="sans-serif" font-size="14" font-style="italic" lengthAdjust="spacing" textLength="78" x="1581.5" y="63.0234">«USD Coin»</text><text fill="#000000" font-family="sans-serif" font-size="14" font-style="italic" lengthAdjust="spacing" textLength="62" x="1589.5" y="79.5117">«(USDC)»</text><text fill="#000000" font-family="sans-serif" font-size="14" font-style="italic" lengthAdjust="spacing" textLength="121" x="1560" y="96">«FiatTokenProxy»</text><text fill="#000000" font-family="sans-serif" font-size="14" lengthAdjust="spacing" textLength="96" x="1572.5" y="112.4883">0xa0b8..eb48</text><rect fill="#E2E2F0" height="79.9531" rx="2.5" ry="2.5" style="stroke:#181818;stroke-width:0.5;" width="135" x="1553" y="2684.8125"/><text fill="#000000" font-family="sans-serif" font-size="14" font-style="italic" lengthAdjust="spacing" textLength="78" x="1581.5" y="2705.3477">«USD Coin»</text><text fill="#000000" font-family="sans-serif" font-size="14" font-style="italic" lengthAdjust="spacing" textLength="62" x="1589.5" y="2721.8359">«(USDC)»</text><text fill="#000000" font-family="sans-serif" font-size="14" font-style="italic" lengthAdjust="spacing" textLength="121" x="1560" y="2738.3242">«FiatTokenProxy»</text><text fill="#000000" font-family="sans-serif" font-size="14" lengthAdjust="spacing" textLength="96" x="1572.5" y="2754.8125">0xa0b8..eb48</text><rect fill="#E2E2F0" height="46.9766" rx="2.5" ry="2.5" style="stroke:#181818;stroke-width:0.5;" width="130" x="1733.5" y="75.4648"/><text fill="#000000" font-family="sans-serif" font-size="14" font-style="italic" lengthAdjust="spacing" textLength="116" x="1740.5" y="96">«FiatTokenV2_1»</text><text fill="#000000" font-family="sans-serif" font-size="14" lengthAdjust="spacing" textLength="91" x="1753" y="112.4883">0xa232..bdcf</text><rect fill="#E2E2F0" height="46.9766" rx="2.5" ry="2.5" style="stroke:#181818;stroke-width:0.5;" width="130" x="1733.5" y="2684.8125"/><text fill="#000000" font-family="sans-serif" font-size="14" font-style="italic" lengthAdjust="spacing" textLength="116" x="1740.5" y="2705.3477">«FiatTokenV2_1»</text><text fill="#000000" font-family="sans-serif" font-size="14" lengthAdjust="spacing" textLength="91" x="1753" y="2721.8359">0xa232..bdcf</text><rect fill="#E2E2F0" height="79.9531" rx="2.5" ry="2.5" style="stroke:#181818;stroke-width:0.5;" width="129" x="1873.5" y="42.4883"/><text fill="#000000" font-family="sans-serif" font-size="14" font-style="italic" lengthAdjust="spacing" textLength="115" x="1880.5" y="63.0234">«Wrapped Ether»</text><text fill="#000000" font-family="sans-serif" font-size="14" font-style="italic" lengthAdjust="spacing" textLength="63" x="1906.5" y="79.5117">«(WETH)»</text><text fill="#000000" font-family="sans-serif" font-size="14" font-style="italic" lengthAdjust="spacing" textLength="62" x="1907" y="96">«WETH9»</text><text fill="#000000" font-family="sans-serif" font-size="14" lengthAdjust="spacing" textLength="91" x="1892.5" y="112.4883">0xc02a..6cc2</text><rect fill="#E2E2F0" height="79.9531" rx="2.5" ry="2.5" style="stroke:#181818;stroke-width:0.5;" width="129" x="1873.5" y="2684.8125"/><text fill="#000000" font-family="sans-serif" font-size="14" font-style="italic" lengthAdjust="spacing" textLength="115" x="1880.5" y="2705.3477">«Wrapped Ether»</text><text fill="#000000" font-family="sans-serif" font-size="14" font-style="italic" lengthAdjust="spacing" textLength="63" x="1906.5" y="2721.8359">«(WETH)»</text><text fill="#000000" font-family="sans-serif" font-size="14" font-style="italic" lengthAdjust="spacing" textLength="62" x="1907" y="2738.3242">«WETH9»</text><text fill="#000000" font-family="sans-serif" font-size="14" lengthAdjust="spacing" textLength="91" x="1892.5" y="2754.8125">0xc02a..6cc2</text><rect fill="#FFFFFF" height="1978.4336" style="stroke:#181818;stroke-width:1.0;" width="10" x="442" y="480.9629"/><rect fill="#FFFFFF" height="439.5215" style="stroke:#181818;stroke-width:1.0;" width="10" x="447" y="1238.0742"/><rect fill="#FFFFFF" height="136.4844" style="stroke:#181818;stroke-width:1.0;" width="10" x="1384" y="525.584"/><rect fill="#FFFFFF" height="1369.1855" style="stroke:#181818;stroke-width:1.0;" width="10" x="1384" y="783.2422"/><rect fill="#FFFFFF" height="105.8633" style="stroke:#181818;stroke-width:1.0;" width="10" x="1384" y="2262.9805"/><rect fill="#FFFFFF" height="149.1738" style="stroke:#181818;stroke-width:1.0;" width="10" x="1615.5" y="843.1738"/><rect fill="#FFFFFF" height="149.1738" style="stroke:#181818;stroke-width:1.0;" width="10" x="1615.5" y="1328.627"/><rect fill="#FFFFFF" height="149.1738" style="stroke:#181818;stroke-width:1.0;" width="10" x="1615.5" y="1788.1484"/><rect fill="#809ECB" height="44.6211" style="stroke:#181818;stroke-width:1.0;" width="10" x="1793.5" y="903.1055"/><rect fill="#809ECB" height="44.6211" style="stroke:#181818;stroke-width:1.0;" width="10" x="1793.5" y="1419.1797"/><rect fill="#809ECB" height="44.6211" style="stroke:#181818;stroke-width:1.0;" width="10" x="1793.5" y="1848.0801"/><rect fill="#FFFFFF" height="44.6211" style="stroke:#181818;stroke-width:1.0;" width="10" x="1933" y="1102.9004"/><rect fill="#FFFFFF" height="44.6211" style="stroke:#181818;stroke-width:1.0;" width="10" x="1933" y="1618.9746"/><rect fill="#FFFFFF" height="44.6211" style="stroke:#181818;stroke-width:1.0;" width="10" x="1933" y="2047.875"/><path d="M5,138.4414 L5,255.4414 L217,255.4414 L217,148.4414 L207,138.4414 L5,138.4414 " fill="#FEFFDD" style="stroke:#181818;stroke-width:0.5;"/><path d="M207,138.4414 L207,148.4414 L217,148.4414 L207,138.4414 " fill="#FEFFDD" style="stroke:#181818;stroke-width:0.5;"/><text fill="#000000" font-family="sans-serif" font-size="13" lengthAdjust="spacing" textLength="72" x="11" y="156.0098">Nonce: 215</text><text fill="#000000" font-family="sans-serif" font-size="13" lengthAdjust="spacing" textLength="191" x="11" y="171.3203">Gas Price: 14.699449722 Gwei</text><text fill="#000000" font-family="sans-serif" font-size="13" lengthAdjust="spacing" textLength="185" x="11" y="186.6309">Max Fee: 19.340686144 Gwei</text><text fill="#000000" font-family="sans-serif" font-size="13" lengthAdjust="spacing" textLength="137" x="11" y="201.9414">Max Priority: 0.1 Gwei</text><text fill="#000000" font-family="sans-serif" font-size="13" lengthAdjust="spacing" textLength="119" x="11" y="217.252">Gas Limit: 627,836</text><text fill="#000000" font-family="sans-serif" font-size="13" lengthAdjust="spacing" textLength="118" x="11" y="232.5625">Gas Used: 523,197</text><text fill="#000000" font-family="sans-serif" font-size="13" lengthAdjust="spacing" textLength="114" x="11" y="247.873">Tx Fee: 0.008 ETH</text><polygon fill="#181818" points="430,476.9629,440,480.9629,430,484.9629,434,480.9629" style="stroke:#181818;stroke-width:1.0;"/><line style="stroke:#181818;stroke-width:1.0;" x1="111" x2="436" y1="480.9629" y2="480.9629"/><text fill="#000000" font-family="sans-serif" font-size="13" lengthAdjust="spacing" textLength="33" x="118" y="277.1836">mint(</text><text fill="#000000" font-family="sans-serif" font-size="13" lengthAdjust="spacing" textLength="58" x="118" y="292.4941">params: [</text><text fill="#000000" font-family="sans-serif" font-size="13" lengthAdjust="spacing" textLength="143" x="126" y="307.8047">token0: 0xA0b8..eB48,</text><text fill="#000000" font-family="sans-serif" font-size="13" lengthAdjust="spacing" textLength="144" x="126" y="323.1152">token1: 0xC02a..6Cc2,</text><text fill="#000000" font-family="sans-serif" font-size="13" lengthAdjust="spacing" textLength="55" x="126" y="338.4258">fee: 500,</text><text fill="#000000" font-family="sans-serif" font-size="13" lengthAdjust="spacing" textLength="125" x="126" y="353.7363">tickLower: 198,370,</text><text fill="#000000" font-family="sans-serif" font-size="13" lengthAdjust="spacing" textLength="125" x="126" y="369.0469">tickUpper: 201,070,</text><text fill="#000000" font-family="sans-serif" font-size="13" lengthAdjust="spacing" textLength="208" x="126" y="384.3574">amount0Desired: 1,655,023,202,</text><text fill="#000000" font-family="sans-serif" font-size="13" lengthAdjust="spacing" textLength="304" x="126" y="399.668">amount1Desired: 17,,605,393,681,863,875,822,</text><text fill="#000000" font-family="sans-serif" font-size="13" lengthAdjust="spacing" textLength="171" x="126" y="414.9785">amount0Min: 974,716,628,</text><text fill="#000000" font-family="sans-serif" font-size="13" lengthAdjust="spacing" textLength="279" x="126" y="430.2891">amount1Min: 17,,241,045,132,531,366,496,</text><text fill="#000000" font-family="sans-serif" font-size="13" lengthAdjust="spacing" textLength="153" x="126" y="445.5996">recipient: 0x192b..cc60,</text><text fill="#000000" font-family="sans-serif" font-size="13" lengthAdjust="spacing" textLength="161" x="126" y="460.9102">deadline: 1,687,483,631])</text><text fill="#000000" font-family="sans-serif" font-size="13" lengthAdjust="spacing" textLength="78" x="118" y="476.2207">523,197 gas</text><polygon fill="#181818" points="1372,521.584,1382,525.584,1372,529.584,1376,525.584" style="stroke:#181818;stroke-width:1.0;"/><line style="stroke:#181818;stroke-width:1.0;stroke-dasharray:2.0,2.0;" x1="452" x2="1378" y1="525.584" y2="525.584"/><text fill="#000000" font-family="sans-serif" font-size="13" lengthAdjust="spacing" textLength="40" x="459" y="505.5313">slot0()</text><text fill="#000000" font-family="sans-serif" font-size="13" lengthAdjust="spacing" textLength="62" x="459" y="520.8418">2,696 gas</text><polygon fill="#181818" points="463,658.0684,453,662.0684,463,666.0684,459,662.0684" style="stroke:#181818;stroke-width:1.0;"/><line style="stroke:#181818;stroke-width:1.0;stroke-dasharray:2.0,2.0;" x1="457" x2="1388" y1="662.0684" y2="662.0684"/><text fill="#000000" font-family="sans-serif" font-size="13" lengthAdjust="spacing" textLength="4" x="469" y="550.1523"> </text><text fill="#000000" font-family="sans-serif" font-size="13" lengthAdjust="spacing" textLength="411" x="469" y="565.4629">sqrtPriceX96: 1,828,943,583,213,858,,850,576,451,359,085,817,</text><text fill="#000000" font-family="sans-serif" font-size="13" lengthAdjust="spacing" textLength="88" x="469" y="580.7734">tick: 200,948,</text><text fill="#000000" font-family="sans-serif" font-size="13" lengthAdjust="spacing" textLength="145" x="469" y="596.084">observationIndex: 419,</text><text fill="#000000" font-family="sans-serif" font-size="13" lengthAdjust="spacing" textLength="178" x="469" y="611.3945">observationCardinality: 722,</text><text fill="#000000" font-family="sans-serif" font-size="13" lengthAdjust="spacing" textLength="208" x="469" y="626.7051">observationCardinalityNext: 722,</text><text fill="#000000" font-family="sans-serif" font-size="13" lengthAdjust="spacing" textLength="83" x="469" y="642.0156">feeProtocol: ,</text><text fill="#000000" font-family="sans-serif" font-size="13" lengthAdjust="spacing" textLength="91" x="469" y="657.3262">unlocked: true</text><polygon fill="#181818" points="1372,779.2422,1382,783.2422,1372,787.2422,1376,783.2422" style="stroke:#181818;stroke-width:1.0;"/><line style="stroke:#181818;stroke-width:1.0;stroke-dasharray:2.0,2.0;" x1="452" x2="1378" y1="783.2422" y2="783.2422"/><text fill="#000000" font-family="sans-serif" font-size="13" lengthAdjust="spacing" textLength="33" x="459" y="686.6367">mint(</text><text fill="#000000" font-family="sans-serif" font-size="13" lengthAdjust="spacing" textLength="154" x="459" y="701.9473">recipient: 0xC364..FE88,</text><text fill="#000000" font-family="sans-serif" font-size="13" lengthAdjust="spacing" textLength="125" x="459" y="717.2578">tickLower: 198,370,</text><text fill="#000000" font-family="sans-serif" font-size="13" lengthAdjust="spacing" textLength="125" x="459" y="732.5684">tickUpper: 201,070,</text><text fill="#000000" font-family="sans-serif" font-size="13" lengthAdjust="spacing" textLength="208" x="459" y="747.8789">amount: 6,302,802,252,419,399,</text><text fill="#000000" font-family="sans-serif" font-size="13" lengthAdjust="spacing" textLength="189" x="459" y="763.1895">data: 0x00000000..2d10cc60)</text><text fill="#000000" font-family="sans-serif" font-size="13" lengthAdjust="spacing" textLength="78" x="459" y="778.5">275,746 gas</text><polygon fill="#181818" points="1603.5,839.1738,1613.5,843.1738,1603.5,847.1738,1607.5,843.1738" style="stroke:#181818;stroke-width:1.0;"/><line style="stroke:#181818;stroke-width:1.0;stroke-dasharray:2.0,2.0;" x1="1394" x2="1609.5" y1="843.1738" y2="843.1738"/><text fill="#000000" font-family="sans-serif" font-size="13" lengthAdjust="spacing" textLength="67" x="1401" y="807.8105">balanceOf(</text><text fill="#000000" font-family="sans-serif" font-size="13" lengthAdjust="spacing" textLength="137" x="1401" y="823.1211">owner: 0x88e6..5640)</text><text fill="#000000" font-family="sans-serif" font-size="13" lengthAdjust="spacing" textLength="62" x="1401" y="838.4316">9,815 gas</text><line style="stroke:#181818;stroke-width:1.0;" x1="1791.5" x2="1781.5" y1="903.1055" y2="899.1055"/><line style="stroke:#181818;stroke-width:1.0;" x1="1791.5" x2="1781.5" y1="903.1055" y2="907.1055"/><line style="stroke:#181818;stroke-width:1.0;" x1="1625.5" x2="1792.5" y1="903.1055" y2="903.1055"/><text fill="#000000" font-family="sans-serif" font-size="13" lengthAdjust="spacing" textLength="67" x="1632.5" y="867.7422">balanceOf(</text><text fill="#000000" font-family="sans-serif" font-size="13" lengthAdjust="spacing" textLength="149" x="1632.5" y="883.0527">account: 0x88e6..5640)</text><text fill="#000000" font-family="sans-serif" font-size="13" lengthAdjust="spacing" textLength="62" x="1632.5" y="898.3633">2,529 gas</text><line style="stroke:#181818;stroke-width:1.0;" x1="1626.5" x2="1636.5" y1="947.7266" y2="943.7266"/><line style="stroke:#181818;stroke-width:1.0;" x1="1626.5" x2="1636.5" y1="947.7266" y2="951.7266"/><line style="stroke:#181818;stroke-width:1.0;stroke-dasharray:2.0,2.0;" x1="1625.5" x2="1797.5" y1="947.7266" y2="947.7266"/><text fill="#000000" font-family="sans-serif" font-size="13" lengthAdjust="spacing" textLength="4" x="1642.5" y="927.6738"> </text><text fill="#000000" font-family="sans-serif" font-size="13" lengthAdjust="spacing" textLength="136" x="1642.5" y="942.9844">109,819,519,398,747</text><polygon fill="#181818" points="1405,988.3477,1395,992.3477,1405,996.3477,1401,992.3477" style="stroke:#181818;stroke-width:1.0;"/><line style="stroke:#181818;stroke-width:1.0;stroke-dasharray:2.0,2.0;" x1="1399" x2="1619.5" y1="992.3477" y2="992.3477"/><text fill="#000000" font-family="sans-serif" font-size="13" lengthAdjust="spacing" textLength="4" x="1411" y="972.2949"> </text><text fill="#000000" font-family="sans-serif" font-size="13" lengthAdjust="spacing" textLength="136" x="1411" y="987.6055">109,819,519,398,747</text><path d="M1625,1005.3477 L1625,1045.3477 L1708,1045.3477 L1708,1015.3477 L1698,1005.3477 L1625,1005.3477 " fill="#FEFFDD" style="stroke:#181818;stroke-width:0.5;"/><path d="M1698,1005.3477 L1698,1015.3477 L1708,1015.3477 L1698,1005.3477 " fill="#FEFFDD" style="stroke:#181818;stroke-width:0.5;"/><text fill="#000000" font-family="sans-serif" font-size="13" lengthAdjust="spacing" textLength="4" x="1631" y="1022.916"> </text><text fill="#000000" font-family="sans-serif" font-size="13" lengthAdjust="spacing" textLength="62" x="1631" y="1038.2266">7,286 gas</text><polygon fill="#181818" points="1921,1098.9004,1931,1102.9004,1921,1106.9004,1925,1102.9004" style="stroke:#181818;stroke-width:1.0;"/><line style="stroke:#181818;stroke-width:1.0;" x1="1394" x2="1927" y1="1102.9004" y2="1102.9004"/><text fill="#000000" font-family="sans-serif" font-size="13" lengthAdjust="spacing" textLength="67" x="1401" y="1067.5371">balanceOf(</text><text fill="#000000" font-family="sans-serif" font-size="13" lengthAdjust="spacing" textLength="91" x="1401" y="1082.8477">0x88e6..5640)</text><text fill="#000000" font-family="sans-serif" font-size="13" lengthAdjust="spacing" textLength="62" x="1401" y="1098.1582">2,534 gas</text><polygon fill="#181818" points="1405,1143.5215,1395,1147.5215,1405,1151.5215,1401,1147.5215" style="stroke:#181818;stroke-width:1.0;"/><line style="stroke:#181818;stroke-width:1.0;stroke-dasharray:2.0,2.0;" x1="1399" x2="1937" y1="1147.5215" y2="1147.5215"/><text fill="#000000" font-family="sans-serif" font-size="13" lengthAdjust="spacing" textLength="4" x="1411" y="1127.4688"> </text><text fill="#000000" font-family="sans-serif" font-size="13" lengthAdjust="spacing" textLength="216" x="1411" y="1142.7793">63,178,,856,326,334,546,059,764</text><polygon fill="#181818" points="468,1234.0742,458,1238.0742,468,1242.0742,464,1238.0742" style="stroke:#181818;stroke-width:1.0;"/><line style="stroke:#181818;stroke-width:1.0;" x1="462" x2="1383" y1="1238.0742" y2="1238.0742"/><text fill="#000000" font-family="sans-serif" font-size="13" lengthAdjust="spacing" textLength="154" x="474" y="1172.0898">uniswapV3MintCallback(</text><text fill="#000000" font-family="sans-serif" font-size="13" lengthAdjust="spacing" textLength="195" x="474" y="1187.4004">amount0Owed: 1,655,023,202,</text><text fill="#000000" font-family="sans-serif" font-size="13" lengthAdjust="spacing" textLength="291" x="474" y="1202.7109">amount1Owed: 17,,597,832,323,497,058,897,</text><text fill="#000000" font-family="sans-serif" font-size="13" lengthAdjust="spacing" textLength="189" x="474" y="1218.0215">data: 0x00000000..2d10cc60)</text><text fill="#000000" font-family="sans-serif" font-size="13" lengthAdjust="spacing" textLength="70" x="474" y="1233.332">43,891 gas</text><polygon fill="#181818" points="1603.5,1324.627,1613.5,1328.627,1603.5,1332.627,1607.5,1328.627" style="stroke:#181818;stroke-width:1.0;"/><line style="stroke:#181818;stroke-width:1.0;stroke-dasharray:2.0,2.0;" x1="457" x2="1609.5" y1="1328.627" y2="1328.627"/><text fill="#000000" font-family="sans-serif" font-size="13" lengthAdjust="spacing" textLength="85" x="464" y="1262.6426">transferFrom(</text><text fill="#000000" font-family="sans-serif" font-size="13" lengthAdjust="spacing" textLength="128" x="464" y="1277.9531">from: 0x192b..cc60,</text><text fill="#000000" font-family="sans-serif" font-size="13" lengthAdjust="spacing" textLength="112" x="464" y="1293.2637">to: 0x88e6..5640,</text><text fill="#000000" font-family="sans-serif" font-size="13" lengthAdjust="spacing" textLength="152" x="464" y="1308.5742">tokenId: 1,655,023,202)</text><text fill="#000000" font-family="sans-serif" font-size="13" lengthAdjust="spacing" textLength="70" x="464" y="1323.8848">26,392 gas</text><line style="stroke:#181818;stroke-width:1.0;" x1="1791.5" x2="1781.5" y1="1419.1797" y2="1415.1797"/><line style="stroke:#181818;stroke-width:1.0;" x1="1791.5" x2="1781.5" y1="1419.1797" y2="1423.1797"/><line style="stroke:#181818;stroke-width:1.0;" x1="1625.5" x2="1792.5" y1="1419.1797" y2="1419.1797"/><text fill="#000000" font-family="sans-serif" font-size="13" lengthAdjust="spacing" textLength="85" x="1632.5" y="1353.1953">transferFrom(</text><text fill="#000000" font-family="sans-serif" font-size="13" lengthAdjust="spacing" textLength="128" x="1632.5" y="1368.5059">from: 0x192b..cc60,</text><text fill="#000000" font-family="sans-serif" font-size="13" lengthAdjust="spacing" textLength="112" x="1632.5" y="1383.8164">to: 0x88e6..5640,</text><text fill="#000000" font-family="sans-serif" font-size="13" lengthAdjust="spacing" textLength="137" x="1632.5" y="1399.127">value: 1,655,023,202)</text><text fill="#000000" font-family="sans-serif" font-size="13" lengthAdjust="spacing" textLength="70" x="1632.5" y="1414.4375">25,597 gas</text><line style="stroke:#181818;stroke-width:1.0;" x1="1626.5" x2="1636.5" y1="1463.8008" y2="1459.8008"/><line style="stroke:#181818;stroke-width:1.0;" x1="1626.5" x2="1636.5" y1="1463.8008" y2="1467.8008"/><line style="stroke:#181818;stroke-width:1.0;stroke-dasharray:2.0,2.0;" x1="1625.5" x2="1797.5" y1="1463.8008" y2="1463.8008"/><text fill="#000000" font-family="sans-serif" font-size="13" lengthAdjust="spacing" textLength="4" x="1642.5" y="1443.748"> </text><text fill="#000000" font-family="sans-serif" font-size="13" lengthAdjust="spacing" textLength="25" x="1642.5" y="1459.0586">true</text><polygon fill="#181818" points="468,1473.8008,458,1477.8008,468,1481.8008,464,1477.8008" style="stroke:#181818;stroke-width:1.0;"/><line style="stroke:#181818;stroke-width:1.0;stroke-dasharray:2.0,2.0;" x1="462" x2="1619.5" y1="1477.8008" y2="1477.8008"/><path d="M1625,1490.8008 L1625,1530.8008 L1696,1530.8008 L1696,1500.8008 L1686,1490.8008 L1625,1490.8008 " fill="#FEFFDD" style="stroke:#181818;stroke-width:0.5;"/><path d="M1686,1490.8008 L1686,1500.8008 L1696,1500.8008 L1686,1490.8008 " fill="#FEFFDD" style="stroke:#181818;stroke-width:0.5;"/><text fill="#000000" font-family="sans-serif" font-size="13" lengthAdjust="spacing" textLength="4" x="1631" y="1508.3691"> </text><text fill="#000000" font-family="sans-serif" font-size="13" lengthAdjust="spacing" textLength="50" x="1631" y="1523.6797">795 gas</text><polygon fill="#181818" points="1921,1614.9746,1931,1618.9746,1921,1622.9746,1925,1618.9746" style="stroke:#181818;stroke-width:1.0;"/><line style="stroke:#181818;stroke-width:1.0;" x1="457" x2="1927" y1="1618.9746" y2="1618.9746"/><text fill="#000000" font-family="sans-serif" font-size="13" lengthAdjust="spacing" textLength="85" x="464" y="1552.9902">transferFrom(</text><text fill="#000000" font-family="sans-serif" font-size="13" lengthAdjust="spacing" textLength="117" x="464" y="1568.3008">src: 0x192b..cc60,</text><text fill="#000000" font-family="sans-serif" font-size="13" lengthAdjust="spacing" textLength="119" x="464" y="1583.6113">dst: 0x88e6..5640,</text><text fill="#000000" font-family="sans-serif" font-size="13" lengthAdjust="spacing" textLength="225" x="464" y="1598.9219">wad: 17,,597,832,323,497,058,897)</text><text fill="#000000" font-family="sans-serif" font-size="13" lengthAdjust="spacing" textLength="70" x="464" y="1614.2324">13,025 gas</text><polygon fill="#181818" points="468,1659.5957,458,1663.5957,468,1667.5957,464,1663.5957" style="stroke:#181818;stroke-width:1.0;"/><line style="stroke:#181818;stroke-width:1.0;stroke-dasharray:2.0,2.0;" x1="462" x2="1937" y1="1663.5957" y2="1663.5957"/><text fill="#000000" font-family="sans-serif" font-size="13" lengthAdjust="spacing" textLength="4" x="474" y="1643.543"> </text><text fill="#000000" font-family="sans-serif" font-size="13" lengthAdjust="spacing" textLength="25" x="474" y="1658.8535">true</text><polygon fill="#181818" points="1372,1673.5957,1382,1677.5957,1372,1681.5957,1376,1677.5957" style="stroke:#181818;stroke-width:1.0;"/><line style="stroke:#181818;stroke-width:1.0;stroke-dasharray:2.0,2.0;" x1="452" x2="1378" y1="1677.5957" y2="1677.5957"/><path d="M457,1690.5957 L457,1730.5957 L540,1730.5957 L540,1700.5957 L530,1690.5957 L457,1690.5957 " fill="#FEFFDD" style="stroke:#181818;stroke-width:0.5;"/><path d="M530,1690.5957 L530,1700.5957 L540,1700.5957 L530,1690.5957 " fill="#FEFFDD" style="stroke:#181818;stroke-width:0.5;"/><text fill="#000000" font-family="sans-serif" font-size="13" lengthAdjust="spacing" textLength="4" x="463" y="1708.1641"> </text><text fill="#000000" font-family="sans-serif" font-size="13" lengthAdjust="spacing" textLength="62" x="463" y="1723.4746">4,474 gas</text><polygon fill="#181818" points="1603.5,1784.1484,1613.5,1788.1484,1603.5,1792.1484,1607.5,1788.1484" style="stroke:#181818;stroke-width:1.0;"/><line style="stroke:#181818;stroke-width:1.0;stroke-dasharray:2.0,2.0;" x1="1394" x2="1609.5" y1="1788.1484" y2="1788.1484"/><text fill="#000000" font-family="sans-serif" font-size="13" lengthAdjust="spacing" textLength="67" x="1401" y="1752.7852">balanceOf(</text><text fill="#000000" font-family="sans-serif" font-size="13" lengthAdjust="spacing" textLength="137" x="1401" y="1768.0957">owner: 0x88e6..5640)</text><text fill="#000000" font-family="sans-serif" font-size="13" lengthAdjust="spacing" textLength="62" x="1401" y="1783.4063">1,315 gas</text><line style="stroke:#181818;stroke-width:1.0;" x1="1791.5" x2="1781.5" y1="1848.0801" y2="1844.0801"/><line style="stroke:#181818;stroke-width:1.0;" x1="1791.5" x2="1781.5" y1="1848.0801" y2="1852.0801"/><line style="stroke:#181818;stroke-width:1.0;" x1="1625.5" x2="1792.5" y1="1848.0801" y2="1848.0801"/><text fill="#000000" font-family="sans-serif" font-size="13" lengthAdjust="spacing" textLength="67" x="1632.5" y="1812.7168">balanceOf(</text><text fill="#000000" font-family="sans-serif" font-size="13" lengthAdjust="spacing" textLength="149" x="1632.5" y="1828.0273">account: 0x88e6..5640)</text><text fill="#000000" font-family="sans-serif" font-size="13" lengthAdjust="spacing" textLength="50" x="1632.5" y="1843.3379">529 gas</text><line style="stroke:#181818;stroke-width:1.0;" x1="1626.5" x2="1636.5" y1="1892.7012" y2="1888.7012"/><line style="stroke:#181818;stroke-width:1.0;" x1="1626.5" x2="1636.5" y1="1892.7012" y2="1896.7012"/><line style="stroke:#181818;stroke-width:1.0;stroke-dasharray:2.0,2.0;" x1="1625.5" x2="1797.5" y1="1892.7012" y2="1892.7012"/><text fill="#000000" font-family="sans-serif" font-size="13" lengthAdjust="spacing" textLength="4" x="1642.5" y="1872.6484"> </text><text fill="#000000" font-family="sans-serif" font-size="13" lengthAdjust="spacing" textLength="136" x="1642.5" y="1887.959">109,821,174,421,949</text><polygon fill="#181818" points="1405,1933.3223,1395,1937.3223,1405,1941.3223,1401,1937.3223" style="stroke:#181818;stroke-width:1.0;"/><line style="stroke:#181818;stroke-width:1.0;stroke-dasharray:2.0,2.0;" x1="1399" x2="1619.5" y1="1937.3223" y2="1937.3223"/><text fill="#000000" font-family="sans-serif" font-size="13" lengthAdjust="spacing" textLength="4" x="1411" y="1917.2695"> </text><text fill="#000000" font-family="sans-serif" font-size="13" lengthAdjust="spacing" textLength="136" x="1411" y="1932.5801">109,821,174,421,949</text><path d="M1625,1950.3223 L1625,1990.3223 L1696,1990.3223 L1696,1960.3223 L1686,1950.3223 L1625,1950.3223 " fill="#FEFFDD" style="stroke:#181818;stroke-width:0.5;"/><path d="M1686,1950.3223 L1686,1960.3223 L1696,1960.3223 L1686,1950.3223 " fill="#FEFFDD" style="stroke:#181818;stroke-width:0.5;"/><text fill="#000000" font-family="sans-serif" font-size="13" lengthAdjust="spacing" textLength="4" x="1631" y="1967.8906"> </text><text fill="#000000" font-family="sans-serif" font-size="13" lengthAdjust="spacing" textLength="50" x="1631" y="1983.2012">786 gas</text><polygon fill="#181818" points="1921,2043.875,1931,2047.875,1921,2051.875,1925,2047.875" style="stroke:#181818;stroke-width:1.0;"/><line style="stroke:#181818;stroke-width:1.0;" x1="1394" x2="1927" y1="2047.875" y2="2047.875"/><text fill="#000000" font-family="sans-serif" font-size="13" lengthAdjust="spacing" textLength="67" x="1401" y="2012.5117">balanceOf(</text><text fill="#000000" font-family="sans-serif" font-size="13" lengthAdjust="spacing" textLength="91" x="1401" y="2027.8223">0x88e6..5640)</text><text fill="#000000" font-family="sans-serif" font-size="13" lengthAdjust="spacing" textLength="50" x="1401" y="2043.1328">534 gas</text><polygon fill="#181818" points="1405,2088.4961,1395,2092.4961,1405,2096.4961,1401,2092.4961" style="stroke:#181818;stroke-width:1.0;"/><line style="stroke:#181818;stroke-width:1.0;stroke-dasharray:2.0,2.0;" x1="1399" x2="1937" y1="2092.4961" y2="2092.4961"/><text fill="#000000" font-family="sans-serif" font-size="13" lengthAdjust="spacing" textLength="4" x="1411" y="2072.4434"> </text><text fill="#000000" font-family="sans-serif" font-size="13" lengthAdjust="spacing" textLength="216" x="1411" y="2087.7539">63,196,,454,158,658,043,118,661</text><polygon fill="#181818" points="463,2148.4277,453,2152.4277,463,2156.4277,459,2152.4277" style="stroke:#181818;stroke-width:1.0;"/><line style="stroke:#181818;stroke-width:1.0;stroke-dasharray:2.0,2.0;" x1="457" x2="1388" y1="2152.4277" y2="2152.4277"/><text fill="#000000" font-family="sans-serif" font-size="13" lengthAdjust="spacing" textLength="4" x="469" y="2117.0645"> </text><text fill="#000000" font-family="sans-serif" font-size="13" lengthAdjust="spacing" textLength="160" x="469" y="2132.375">amount0: 1,655,023,202,</text><text fill="#000000" font-family="sans-serif" font-size="13" lengthAdjust="spacing" textLength="252" x="469" y="2147.6855">amount1: 17,,597,832,323,497,058,897</text><path d="M1394,2165.4277 L1394,2205.4277 L1493,2205.4277 L1493,2175.4277 L1483,2165.4277 L1394,2165.4277 " fill="#FEFFDD" style="stroke:#181818;stroke-width:0.5;"/><path d="M1483,2165.4277 L1483,2175.4277 L1493,2175.4277 L1483,2165.4277 " fill="#FEFFDD" style="stroke:#181818;stroke-width:0.5;"/><text fill="#000000" font-family="sans-serif" font-size="13" lengthAdjust="spacing" textLength="4" x="1400" y="2182.9961"> </text><text fill="#000000" font-family="sans-serif" font-size="13" lengthAdjust="spacing" textLength="78" x="1400" y="2198.3066">217,657 gas</text><polygon fill="#181818" points="1372,2258.9805,1382,2262.9805,1372,2266.9805,1376,2262.9805" style="stroke:#181818;stroke-width:1.0;"/><line style="stroke:#181818;stroke-width:1.0;stroke-dasharray:2.0,2.0;" x1="452" x2="1378" y1="2262.9805" y2="2262.9805"/><text fill="#000000" font-family="sans-serif" font-size="13" lengthAdjust="spacing" textLength="63" x="459" y="2227.6172">positions(</text><text fill="#000000" font-family="sans-serif" font-size="13" lengthAdjust="spacing" textLength="154" x="459" y="2242.9277">0xd31d6a57..c6645dd3)</text><text fill="#000000" font-family="sans-serif" font-size="13" lengthAdjust="spacing" textLength="62" x="459" y="2258.2383">1,013 gas</text><polygon fill="#181818" points="463,2364.8438,453,2368.8438,463,2372.8438,459,2368.8438" style="stroke:#181818;stroke-width:1.0;"/><line style="stroke:#181818;stroke-width:1.0;stroke-dasharray:2.0,2.0;" x1="457" x2="1388" y1="2368.8438" y2="2368.8438"/><text fill="#000000" font-family="sans-serif" font-size="13" lengthAdjust="spacing" textLength="4" x="469" y="2287.5488"> </text><text fill="#000000" font-family="sans-serif" font-size="13" lengthAdjust="spacing" textLength="212" x="469" y="2302.8594">liquidity: 6,302,802,252,419,399,</text><text fill="#000000" font-family="sans-serif" font-size="13" lengthAdjust="spacing" textLength="908" x="469" y="2318.1699">feeGrowthInside0LastX128: 115,792,089,237,316,195,423,570,985,008,687,907,853,269,983,852,376,922,521,851,,387,932,641,738,657,791,</text><text fill="#000000" font-family="sans-serif" font-size="13" lengthAdjust="spacing" textLength="908" x="469" y="2333.4805">feeGrowthInside1LastX128: 115,792,089,237,316,195,423,570,985,008,687,907,266,688,585,677,526,477,511,826,,995,108,310,614,239,456,</text><text fill="#000000" font-family="sans-serif" font-size="13" lengthAdjust="spacing" textLength="106" x="469" y="2348.791">tokensOwed0: 0,</text><text fill="#000000" font-family="sans-serif" font-size="13" lengthAdjust="spacing" textLength="102" x="469" y="2364.1016">tokensOwed1: 0</text><polygon fill="#181818" points="122,2455.3965,112,2459.3965,122,2463.3965,118,2459.3965" style="stroke:#181818;stroke-width:1.0;"/><line style="stroke:#181818;stroke-width:1.0;stroke-dasharray:2.0,2.0;" x1="116" x2="446" y1="2459.3965" y2="2459.3965"/><text fill="#000000" font-family="sans-serif" font-size="13" lengthAdjust="spacing" textLength="4" x="128" y="2393.4121"> </text><text fill="#000000" font-family="sans-serif" font-size="13" lengthAdjust="spacing" textLength="112" x="128" y="2408.7227">tokenId: 528,722,</text><text fill="#000000" font-family="sans-serif" font-size="13" lengthAdjust="spacing" textLength="212" x="128" y="2424.0332">liquidity: 6,302,802,252,419,399,</text><text fill="#000000" font-family="sans-serif" font-size="13" lengthAdjust="spacing" textLength="160" x="128" y="2439.3438">amount0: 1,655,023,202,</text><text fill="#000000" font-family="sans-serif" font-size="13" lengthAdjust="spacing" textLength="252" x="128" y="2454.6543">amount1: 17,,597,832,323,497,058,897</text><path d="M452,2472.3965 L452,2512.3965 L551,2512.3965 L551,2482.3965 L541,2472.3965 L452,2472.3965 " fill="#FEFFDD" style="stroke:#181818;stroke-width:0.5;"/><path d="M541,2472.3965 L541,2482.3965 L551,2482.3965 L541,2472.3965 " fill="#FEFFDD" style="stroke:#181818;stroke-width:0.5;"/><text fill="#000000" font-family="sans-serif" font-size="13" lengthAdjust="spacing" textLength="4" x="458" y="2489.9648"> </text><text fill="#000000" font-family="sans-serif" font-size="13" lengthAdjust="spacing" textLength="78" x="458" y="2505.2754">243,742 gas</text><path d="M306,2523.0176 L306,2670.0176 L587,2670.0176 L587,2533.0176 L577,2523.0176 L306,2523.0176 " fill="#00FFFF" style="stroke:#181818;stroke-width:0.5;"/><path d="M577,2523.0176 L577,2533.0176 L587,2533.0176 L577,2523.0176 " fill="#00FFFF" style="stroke:#181818;stroke-width:0.5;"/><text fill="#000000" font-family="sans-serif" font-size="13" lengthAdjust="spacing" textLength="56" x="312" y="2540.5859">Transfer:</text><text fill="#000000" font-family="sans-serif" font-size="13" lengthAdjust="spacing" textLength="130" x="320" y="2555.8965">from: 0x0000..0000,</text><text fill="#000000" font-family="sans-serif" font-size="13" lengthAdjust="spacing" textLength="111" x="320" y="2571.207">to: 0x192b..cc60,</text><text fill="#000000" font-family="sans-serif" font-size="13" lengthAdjust="spacing" textLength="108" x="320" y="2586.5176">tokenId: 528,722</text><text fill="#000000" font-family="sans-serif" font-size="13" lengthAdjust="spacing" textLength="111" x="312" y="2601.8281">IncreaseLiquidity:</text><text fill="#000000" font-family="sans-serif" font-size="13" lengthAdjust="spacing" textLength="112" x="320" y="2617.1387">tokenId: 528,722,</text><text fill="#000000" font-family="sans-serif" font-size="13" lengthAdjust="spacing" textLength="212" x="320" y="2632.4492">liquidity: 6,302,802,252,419,399,</text><text fill="#000000" font-family="sans-serif" font-size="13" lengthAdjust="spacing" textLength="160" x="320" y="2647.7598">amount0: 1,655,023,202,</text><text fill="#000000" font-family="sans-serif" font-size="13" lengthAdjust="spacing" textLength="252" x="320" y="2663.0703">amount1: 17,,597,832,323,497,058,897</text><path d="M1248,2523.0176 L1248,2655.0176 L1529,2655.0176 L1529,2533.0176 L1519,2523.0176 L1248,2523.0176 " fill="#00FFFF" style="stroke:#181818;stroke-width:0.5;"/><path d="M1519,2523.0176 L1519,2533.0176 L1529,2533.0176 L1519,2523.0176 " fill="#00FFFF" style="stroke:#181818;stroke-width:0.5;"/><text fill="#000000" font-family="sans-serif" font-size="13" lengthAdjust="spacing" textLength="32" x="1254" y="2540.5859">Mint:</text><text fill="#000000" font-family="sans-serif" font-size="13" lengthAdjust="spacing" textLength="141" x="1262" y="2555.8965">sender: 0xC364..FE88,</text><text fill="#000000" font-family="sans-serif" font-size="13" lengthAdjust="spacing" textLength="137" x="1262" y="2571.207">owner: 0xC364..FE88,</text><text fill="#000000" font-family="sans-serif" font-size="13" lengthAdjust="spacing" textLength="125" x="1262" y="2586.5176">tickLower: 198,370,</text><text fill="#000000" font-family="sans-serif" font-size="13" lengthAdjust="spacing" textLength="125" x="1262" y="2601.8281">tickUpper: 201,070,</text><text fill="#000000" font-family="sans-serif" font-size="13" lengthAdjust="spacing" textLength="208" x="1262" y="2617.1387">amount: 6,302,802,252,419,399,</text><text fill="#000000" font-family="sans-serif" font-size="13" lengthAdjust="spacing" textLength="160" x="1262" y="2632.4492">amount0: 1,655,023,202,</text><text fill="#000000" font-family="sans-serif" font-size="13" lengthAdjust="spacing" textLength="252" x="1262" y="2647.7598">amount1: 17,,597,832,323,497,058,897</text><path d="M1539,2523.0176 L1539,2594.0176 L1701,2594.0176 L1701,2533.0176 L1691,2523.0176 L1539,2523.0176 " fill="#00FFFF" style="stroke:#181818;stroke-width:0.5;"/><path d="M1691,2523.0176 L1691,2533.0176 L1701,2533.0176 L1691,2523.0176 " fill="#00FFFF" style="stroke:#181818;stroke-width:0.5;"/><text fill="#000000" font-family="sans-serif" font-size="13" lengthAdjust="spacing" textLength="56" x="1545" y="2540.5859">Transfer:</text><text fill="#000000" font-family="sans-serif" font-size="13" lengthAdjust="spacing" textLength="128" x="1553" y="2555.8965">from: 0x192b..cc60,</text><text fill="#000000" font-family="sans-serif" font-size="13" lengthAdjust="spacing" textLength="112" x="1553" y="2571.207">to: 0x88e6..5640,</text><text fill="#000000" font-family="sans-serif" font-size="13" lengthAdjust="spacing" textLength="133" x="1553" y="2586.5176">value: 1,655,023,202</text><path d="M1813,2523.0176 L1813,2594.0176 L2063,2594.0176 L2063,2533.0176 L2053,2523.0176 L1813,2523.0176 " fill="#00FFFF" style="stroke:#181818;stroke-width:0.5;"/><path d="M2053,2523.0176 L2053,2533.0176 L2063,2533.0176 L2053,2523.0176 " fill="#00FFFF" style="stroke:#181818;stroke-width:0.5;"/><text fill="#000000" font-family="sans-serif" font-size="13" lengthAdjust="spacing" textLength="56" x="1819" y="2540.5859">Transfer:</text><text fill="#000000" font-family="sans-serif" font-size="13" lengthAdjust="spacing" textLength="117" x="1827" y="2555.8965">src: 0x192b..cc60,</text><text fill="#000000" font-family="sans-serif" font-size="13" lengthAdjust="spacing" textLength="119" x="1827" y="2571.207">dst: 0x88e6..5640,</text><text fill="#000000" font-family="sans-serif" font-size="13" lengthAdjust="spacing" textLength="221" x="1827" y="2586.5176">wad: 17,,597,832,323,497,058,897</text><!--SRC=[lLTPRzj647xdhrWqBmwmPlS-14D0uzYk2zin4Di9K1V5YbmvXEMbGrAny-yxIqhKwID1Mm4IDNlEySqtmwPe9XwHHwbpaRlSZV8y6tCouf9QQxXsOwQe64kP4picpeii6nDDIJRokVVASYR6REnqacJklYdAWEvS4O9lC1fDokmMKIsvCKfXT5WL636E_fW6n0Zy8MGWzK1eT7HwaRYiAIlq2tcabetIDCiK-GMv6aKn2YYvTrLJPCMz2qrSbt4bqdJiZMdNHJ4AQ6_lCXJrWxj7LnoTbtKHjQhHsU75xXKT3lVsTYxFZdUl-ExvXuzletnMXl4qt1IZYPylFtN1tVXgE5o_r1YlqbGgqIaNnIWiBhtYvsKvsTpeoCYagH-9JjieHY5k_FWUxPT5w5Jx-7w_LUgmSCr5UUl3ULK-Vjzo7kCiJKSGhEuy4AE0bdPUiR_fviQCC9UcAijOvpOGem0RFrNk_jxdwA3v4aq7RJuTNFpUQXF_M3Wh2MNZKVdDLtrS4d1VvWU8KPaSmO7dLH55Ab9bhH1MCuQE7doHdBf7TEZZb4sv8Ce0hiHY2lQLLT5y7o2Iqcuu7dTIt1ND02cciU6g7RgiVJv0ad5ChKukPgUIb123GC_4Xnn5FPEanyxkiCV70DqLeTcv3k0NTrSFq9_N0Q4cEep0AO-_TO5w9mpk9sYSsEySjv-nTc8SBvM4TAkAxFQaVF1LjCvWhXV3b-1J66Q4OZ8RTdVbD3JalQ-BAff2iP8IGqPWI8kb5NInGcEiYCJSSgmCnKPnRBJ4XYsl9wT5622h1TPKOSNCybdjN3o72T14I4mvmv9Jp24tXLNjsie3K0eVccZm8X7RkToxV584t-fhD1O6TE7qhxVNOHOBTEFgcCV5DmSecJiywJDp5y8mpvW1gYTbGtPWDyFAgjMzyrL9vPjf5Qv3_RLgMcHzjYegOC0uApYMe0IZu0nfCFmGB3LO8y4gQJ4nu24m-Jh4GCGO4DWKlLAEQb_1JP3gno7tZmCag5qTttTLNWGtQI6fMpzldptpZyry1O02yhKfit8oG21FG-J06C6cclgdF343v8hpzrjsEpmmPgR-1hosWgiBDkGBvW0b0ryc6Ox6SHiDp5tZul5azabJbWEPGunZ801HMZmLYfxhel9p_XgWaPiu880FOx2WV0XHdMMQX6Cj146k7ZhVdlGyk3iSzYIsUgZBiiwcjMC1lSok7JjdmJU6s8FzTpryA8bAM2nRHnYmKZyxrz9SLTnyQL0vNZBsEcZCJEUXXJ-6FOkkQhwfC1ThEJBRroi3UKrr2sM888Cl5rWAXGd0MIknUcdFQDDvxO4aR_RTP39osUtE70tamyCsbfdnmcmIY47QoB4CxkL021hkDDXO_H9g80kDfQ_9_OKVcyg5Ukohmwgy0pt7yDXWdAPS3Nax16Hyl6vBT2ruoh8VmzXFwl3DJQP-YmOo-k-LS6p9e1EUWvhjicRXmsMWhQbVLzc6zddTRAZ_u9wFDfW2T4gOV06eJvkmW2LW0mijrhBb1za3gFo_O8yVv0v68I_16dXQOP-TUoQWFyiSh-CDgE5G-WIc44a5NmAPIIdyLxHVDsE49zdWMMoicROeO01_sAQaNiFhIfMxdxVYhNqvfxboKWDObH8optaRQqBv2vt0fFWwBVAsAZzLvA0A7rNbG_FbEDH5xic9gvlFb44CA8KAPnbq1XOphW5Q2lmc8NRGIa01jT0nG1lPzZUMW1Ca-4TP68yj1ZW4kWlBOkM15WIw3CpZGl2KWgPAy-Xt3HVGJINepol1e45Jq0T865TQm-NGuiGdZNqG1Dt2PWeRE2KOcceur08Gr9mmwqZniRTT6OWzxIARvyGgeQ_gMfbN-FdV1DCoQp00hXOTdI-zSVIuUkE-JbroCIF0GGBD-8oyk-8KVt4IU_SrIanc_VoIfSbno2hlQd_IsxjbLTpveaEIlWzVzqW_yu9B5cyklwA5tJrTT7R76Xzrh65rnvTBlIACzpIwEhobXqoslg7qolxVTlPi_dHyrsEvLjvWR5jvVkA-_jLtyxxDQWg3c-KK1b-gfukx_m40]--></g></svg>
