<?xml version="1.0" encoding="us-ascii" standalone="no"?><svg xmlns:xlink="http://www.w3.org/1999/xlink" xmlns="http://www.w3.org/2000/svg" contentStyleType="text/css" height="2609px" preserveAspectRatio="none" style="width:2086px;height:2609px;background:#FFFFFF;" version="1.1" viewBox="0 0 2086 2609" width="2086px" zoomAndPan="magnify"><defs/><g><text fill="#000000" font-family="sans-serif" font-size="14" font-weight="bold" lengthAdjust="spacing" textLength="555" x="764" y="28.5352">0x57d4dadabddcf30b35199837af2614f55d09f0ae4ccf0710cbedee69324f2fa7</text><text fill="#000000" font-family="sans-serif" font-size="14" lengthAdjust="spacing" textLength="396" x="843.5" y="2597.5742">mainnet, block 17538866, Fri, 23 Jun 2023 00:57:47 GMT</text><rect fill="#FFFFFF" height="1794.707" style="stroke:#181818;stroke-width:1.0;" width="10" x="450" y="480.9629"/><rect fill="#FFFFFF" height="408.9004" style="stroke:#181818;stroke-width:1.0;" width="10" x="455" y="1176.832"/><rect fill="#FFFFFF" height="121.1738" style="stroke:#181818;stroke-width:1.0;" width="10" x="1392" y="525.584"/><rect fill="#FFFFFF" height="1231.3906" style="stroke:#181818;stroke-width:1.0;" width="10" x="1392" y="767.9316"/><rect fill="#FFFFFF" height="90.5527" style="stroke:#181818;stroke-width:1.0;" width="10" x="1392" y="2109.875"/><rect fill="#FFFFFF" height="118.5527" style="stroke:#181818;stroke-width:1.0;" width="10" x="1623.5" y="827.8633"/><rect fill="#FFFFFF" height="133.8633" style="stroke:#181818;stroke-width:1.0;" width="10" x="1623.5" y="1267.3848"/><rect fill="#FFFFFF" height="118.5527" style="stroke:#181818;stroke-width:1.0;" width="10" x="1623.5" y="1696.2852"/><rect fill="#809ECB" height="29.3105" style="stroke:#181818;stroke-width:1.0;" width="10" x="1809.5" y="887.7949"/><rect fill="#809ECB" height="29.3105" style="stroke:#181818;stroke-width:1.0;" width="10" x="1809.5" y="1357.9375"/><rect fill="#809ECB" height="29.3105" style="stroke:#181818;stroke-width:1.0;" width="10" x="1809.5" y="1756.2168"/><rect fill="#FFFFFF" height="29.3105" style="stroke:#181818;stroke-width:1.0;" width="10" x="1949" y="1056.9688"/><rect fill="#FFFFFF" height="29.3105" style="stroke:#181818;stroke-width:1.0;" width="10" x="1949" y="1542.4219"/><rect fill="#FFFFFF" height="29.3105" style="stroke:#181818;stroke-width:1.0;" width="10" x="1949" y="1925.3906"/><line style="stroke:#181818;stroke-width:0.5;stroke-dasharray:5.0,5.0;" x1="111" x2="111" y1="123.4414" y2="2502.0859"/><line style="stroke:#181818;stroke-width:0.5;stroke-dasharray:5.0,5.0;" x1="454.5" x2="454.5" y1="123.4414" y2="2502.0859"/><line style="stroke:#181818;stroke-width:0.5;stroke-dasharray:5.0,5.0;" x1="1397" x2="1397" y1="123.4414" y2="2502.0859"/><line style="stroke:#181818;stroke-width:0.5;stroke-dasharray:5.0,5.0;" x1="1628" x2="1628" y1="123.4414" y2="2502.0859"/><line style="stroke:#181818;stroke-width:0.5;stroke-dasharray:5.0,5.0;" x1="1814.5" x2="1814.5" y1="123.4414" y2="2502.0859"/><line style="stroke:#181818;stroke-width:0.5;stroke-dasharray:5.0,5.0;" x1="1953.5" x2="1953.5" y1="123.4414" y2="2502.0859"/><text fill="#000000" font-family="sans-serif" font-size="14" lengthAdjust="spacing" textLength="94" x="61" y="120.4883">0x192b..cc60</text><ellipse cx="111" cy="55.4531" fill="#E2E2F0" rx="8" ry="8" style="stroke:#181818;stroke-width:0.5;"/><path d="M111,63.4531 L111,90.4531 M98,71.4531 L124,71.4531 M111,90.4531 L98,105.4531 M111,90.4531 L124,105.4531 " fill="none" style="stroke:#181818;stroke-width:0.5;"/><text fill="#000000" font-family="sans-serif" font-size="14" lengthAdjust="spacing" textLength="94" x="61" y="2514.6211">0x192b..cc60</text><ellipse cx="111" cy="2526.0742" fill="#E2E2F0" rx="8" ry="8" style="stroke:#181818;stroke-width:0.5;"/><path d="M111,2534.0742 L111,2561.0742 M98,2542.0742 L124,2542.0742 M111,2561.0742 L98,2576.0742 M111,2561.0742 L124,2576.0742 " fill="none" style="stroke:#181818;stroke-width:0.5;"/><rect fill="#E2E2F0" height="79.9531" rx="2.5" ry="2.5" style="stroke:#181818;stroke-width:0.5;" width="231" x="339.5" y="42.4883"/><text fill="#000000" font-family="sans-serif" font-size="14" font-style="italic" lengthAdjust="spacing" textLength="217" x="346.5" y="63.0234">&#171;Uniswap V3 Positions NFT-V1&#187;</text><text fill="#000000" font-family="sans-serif" font-size="14" font-style="italic" lengthAdjust="spacing" textLength="109" x="400.5" y="79.5117">&#171;(UNI-V3-POS)&#187;</text><text fill="#000000" font-family="sans-serif" font-size="14" font-style="italic" lengthAdjust="spacing" textLength="214" x="348" y="96">&#171;NonfungiblePositionManager&#187;</text><text fill="#000000" font-family="sans-serif" font-size="14" lengthAdjust="spacing" textLength="91" x="409.5" y="112.4883">0xc364..fe88</text><rect fill="#E2E2F0" height="79.9531" rx="2.5" ry="2.5" style="stroke:#181818;stroke-width:0.5;" width="231" x="339.5" y="2501.0859"/><text fill="#000000" font-family="sans-serif" font-size="14" font-style="italic" lengthAdjust="spacing" textLength="217" x="346.5" y="2521.6211">&#171;Uniswap V3 Positions NFT-V1&#187;</text><text fill="#000000" font-family="sans-serif" font-size="14" font-style="italic" lengthAdjust="spacing" textLength="109" x="400.5" y="2538.1094">&#171;(UNI-V3-POS)&#187;</text><text fill="#000000" font-family="sans-serif" font-size="14" font-style="italic" lengthAdjust="spacing" textLength="214" x="348" y="2554.5977">&#171;NonfungiblePositionManager&#187;</text><text fill="#000000" font-family="sans-serif" font-size="14" lengthAdjust="spacing" textLength="91" x="409.5" y="2571.0859">0xc364..fe88</text><rect fill="#E2E2F0" height="46.9766" rx="2.5" ry="2.5" style="stroke:#181818;stroke-width:0.5;" width="134" x="1330" y="75.4648"/><text fill="#000000" font-family="sans-serif" font-size="14" font-style="italic" lengthAdjust="spacing" textLength="120" x="1337" y="96">&#171;UniswapV3Pool&#187;</text><text fill="#000000" font-family="sans-serif" font-size="14" lengthAdjust="spacing" textLength="97" x="1348.5" y="112.4883">0x88e6..5640</text><rect fill="#E2E2F0" height="46.9766" rx="2.5" ry="2.5" style="stroke:#181818;stroke-width:0.5;" width="134" x="1330" y="2501.0859"/><text fill="#000000" font-family="sans-serif" font-size="14" font-style="italic" lengthAdjust="spacing" textLength="120" x="1337" y="2521.6211">&#171;UniswapV3Pool&#187;</text><text fill="#000000" font-family="sans-serif" font-size="14" lengthAdjust="spacing" textLength="97" x="1348.5" y="2538.1094">0x88e6..5640</text><rect fill="#E2E2F0" height="79.9531" rx="2.5" ry="2.5" style="stroke:#181818;stroke-width:0.5;" width="135" x="1561" y="42.4883"/><text fill="#000000" font-family="sans-serif" font-size="14" font-style="italic" lengthAdjust="spacing" textLength="78" x="1589.5" y="63.0234">&#171;USD Coin&#187;</text><text fill="#000000" font-family="sans-serif" font-size="14" font-style="italic" lengthAdjust="spacing" textLength="62" x="1597.5" y="79.5117">&#171;(USDC)&#187;</text><text fill="#000000" font-family="sans-serif" font-size="14" font-style="italic" lengthAdjust="spacing" textLength="121" x="1568" y="96">&#171;FiatTokenProxy&#187;</text><text fill="#000000" font-family="sans-serif" font-size="14" lengthAdjust="spacing" textLength="96" x="1580.5" y="112.4883">0xa0b8..eb48</text><rect fill="#E2E2F0" height="79.9531" rx="2.5" ry="2.5" style="stroke:#181818;stroke-width:0.5;" width="135" x="1561" y="2501.0859"/><text fill="#000000" font-family="sans-serif" font-size="14" font-style="italic" lengthAdjust="spacing" textLength="78" x="1589.5" y="2521.6211">&#171;USD Coin&#187;</text><text fill="#000000" font-family="sans-serif" font-size="14" font-style="italic" lengthAdjust="spacing" textLength="62" x="1597.5" y="2538.1094">&#171;(USDC)&#187;</text><text fill="#000000" font-family="sans-serif" font-size="14" font-style="italic" lengthAdjust="spacing" textLength="121" x="1568" y="2554.5977">&#171;FiatTokenProxy&#187;</text><text fill="#000000" font-family="sans-serif" font-size="14" lengthAdjust="spacing" textLength="96" x="1580.5" y="2571.0859">0xa0b8..eb48</text><rect fill="#E2E2F0" height="46.9766" rx="2.5" ry="2.5" style="stroke:#181818;stroke-width:0.5;" width="130" x="1749.5" y="75.4648"/><text fill="#000000" font-family="sans-serif" font-size="14" font-style="italic" lengthAdjust="spacing" textLength="116" x="1756.5" y="96">&#171;FiatTokenV2_1&#187;</text><text fill="#000000" font-family="sans-serif" font-size="14" lengthAdjust="spacing" textLength="91" x="1769" y="112.4883">0xa232..bdcf</text><rect fill="#E2E2F0" height="46.9766" rx="2.5" ry="2.5" style="stroke:#181818;stroke-width:0.5;" width="130" x="1749.5" y="2501.0859"/><text fill="#000000" font-family="sans-serif" font-size="14" font-style="italic" lengthAdjust="spacing" textLength="116" x="1756.5" y="2521.6211">&#171;FiatTokenV2_1&#187;</text><text fill="#000000" font-family="sans-serif" font-size="14" lengthAdjust="spacing" textLength="91" x="1769" y="2538.1094">0xa232..bdcf</text><rect fill="#E2E2F0" height="79.9531" rx="2.5" ry="2.5" style="stroke:#181818;stroke-width:0.5;" width="129" x="1889.5" y="42.4883"/><text fill="#000000" font-family="sans-serif" font-size="14" font-style="italic" lengthAdjust="spacing" textLength="115" x="1896.5" y="63.0234">&#171;Wrapped Ether&#187;</text><text fill="#000000" font-family="sans-serif" font-size="14" font-style="italic" lengthAdjust="spacing" textLength="63" x="1922.5" y="79.5117">&#171;(WETH)&#187;</text><text fill="#000000" font-family="sans-serif" font-size="14" font-style="italic" lengthAdjust="spacing" textLength="62" x="1923" y="96">&#171;WETH9&#187;</text><text fill="#000000" font-family="sans-serif" font-size="14" lengthAdjust="spacing" textLength="91" x="1908.5" y="112.4883">0xc02a..6cc2</text><rect fill="#E2E2F0" height="79.9531" rx="2.5" ry="2.5" style="stroke:#181818;stroke-width:0.5;" width="129" x="1889.5" y="2501.0859"/><text fill="#000000" font-family="sans-serif" font-size="14" font-style="italic" lengthAdjust="spacing" textLength="115" x="1896.5" y="2521.6211">&#171;Wrapped Ether&#187;</text><text fill="#000000" font-family="sans-serif" font-size="14" font-style="italic" lengthAdjust="spacing" textLength="63" x="1922.5" y="2538.1094">&#171;(WETH)&#187;</text><text fill="#000000" font-family="sans-serif" font-size="14" font-style="italic" lengthAdjust="spacing" textLength="62" x="1923" y="2554.5977">&#171;WETH9&#187;</text><text fill="#000000" font-family="sans-serif" font-size="14" lengthAdjust="spacing" textLength="91" x="1908.5" y="2571.0859">0xc02a..6cc2</text><rect fill="#FFFFFF" height="1794.707" style="stroke:#181818;stroke-width:1.0;" width="10" x="450" y="480.9629"/><rect fill="#FFFFFF" height="408.9004" style="stroke:#181818;stroke-width:1.0;" width="10" x="455" y="1176.832"/><rect fill="#FFFFFF" height="121.1738" style="stroke:#181818;stroke-width:1.0;" width="10" x="1392" y="525.584"/><rect fill="#FFFFFF" height="1231.3906" style="stroke:#181818;stroke-width:1.0;" width="10" x="1392" y="767.9316"/><rect fill="#FFFFFF" height="90.5527" style="stroke:#181818;stroke-width:1.0;" width="10" x="1392" y="2109.875"/><rect fill="#FFFFFF" height="118.5527" style="stroke:#181818;stroke-width:1.0;" width="10" x="1623.5" y="827.8633"/><rect fill="#FFFFFF" height="133.8633" style="stroke:#181818;stroke-width:1.0;" width="10" x="1623.5" y="1267.3848"/><rect fill="#FFFFFF" height="118.5527" style="stroke:#181818;stroke-width:1.0;" width="10" x="1623.5" y="1696.2852"/><rect fill="#809ECB" height="29.3105" style="stroke:#181818;stroke-width:1.0;" width="10" x="1809.5" y="887.7949"/><rect fill="#809ECB" height="29.3105" style="stroke:#181818;stroke-width:1.0;" width="10" x="1809.5" y="1357.9375"/><rect fill="#809ECB" height="29.3105" style="stroke:#181818;stroke-width:1.0;" width="10" x="1809.5" y="1756.2168"/><rect fill="#FFFFFF" height="29.3105" style="stroke:#181818;stroke-width:1.0;" width="10" x="1949" y="1056.9688"/><rect fill="#FFFFFF" height="29.3105" style="stroke:#181818;stroke-width:1.0;" width="10" x="1949" y="1542.4219"/><rect fill="#FFFFFF" height="29.3105" style="stroke:#181818;stroke-width:1.0;" width="10" x="1949" y="1925.3906"/><path d="M5,138.4414 L5,255.4414 L217,255.4414 L217,148.4414 L207,138.4414 L5,138.4414 " fill="#FEFFDD" style="stroke:#181818;stroke-width:0.5;"/><path d="M207,138.4414 L207,148.4414 L217,148.4414 L207,138.4414 " fill="#FEFFDD" style="stroke:#181818;stroke-width:0.5;"/><text fill="#000000" font-family="sans-serif" font-size="13" lengthAdjust="spacing" textLength="72" x="11" y="156.0098">Nonce: 215</text><text fill="#000000" font-family="sans-serif" font-size="13" lengthAdjust="spacing" textLength="191" x="11" y="171.3203">Gas Price: 14.699449722 Gwei</text><text fill="#000000" font-family="sans-serif" font-size="13" lengthAdjust="spacing" textLength="185" x="11" y="186.6309">Max Fee: 19.340686144 Gwei</text><text fill="#000000" font-family="sans-serif" font-size="13" lengthAdjust="spacing" textLength="137" x="11" y="201.9414">Max Priority: 0.1 Gwei</text><text fill="#000000" font-family="sans-serif" font-size="13" lengthAdjust="spacing" textLength="119" x="11" y="217.252">Gas Limit: 627,836</text><text fill="#000000" font-family="sans-serif" font-size="13" lengthAdjust="spacing" textLength="118" x="11" y="232.5625">Gas Used: 523,197</text><text fill="#000000" font-family="sans-serif" font-size="13" lengthAdjust="spacing" textLength="114" x="11" y="247.873">Tx Fee: 0.008 ETH</text><polygon fill="#181818" points="438,476.9629,448,480.9629,438,484.9629,442,480.9629" style="stroke:#181818;stroke-width:1.0;"/><line style="stroke:#181818;stroke-width:1.0;" x1="111" x2="444" y1="480.9629" y2="480.9629"/><text fill="#000000" font-family="sans-serif" font-size="13" lengthAdjust="spacing" textLength="33" x="118" y="277.1836">mint(</text><text fill="#000000" font-family="sans-serif" font-size="13" lengthAdjust="spacing" textLength="58" x="126" y="292.4941">params: [</text><text fill="#000000" font-family="sans-serif" font-size="13" lengthAdjust="spacing" textLength="143" x="134" y="307.8047">token0: 0xA0b8..eB48,</text><text fill="#000000" font-family="sans-serif" font-size="13" lengthAdjust="spacing" textLength="144" x="134" y="323.1152">token1: 0xC02a..6Cc2,</text><text fill="#000000" font-family="sans-serif" font-size="13" lengthAdjust="spacing" textLength="55" x="134" y="338.4258">fee: 500,</text><text fill="#000000" font-family="sans-serif" font-size="13" lengthAdjust="spacing" textLength="125" x="134" y="353.7363">tickLower: 198,370,</text><text fill="#000000" font-family="sans-serif" font-size="13" lengthAdjust="spacing" textLength="125" x="134" y="369.0469">tickUpper: 201,070,</text><text fill="#000000" font-family="sans-serif" font-size="13" lengthAdjust="spacing" textLength="208" x="134" y="384.3574">amount0Desired: 1,655,023,202,</text><text fill="#000000" font-family="sans-serif" font-size="13" lengthAdjust="spacing" textLength="304" x="134" y="399.668">amount1Desired: 17,,605,393,681,863,875,822,</text><text fill="#000000" font-family="sans-serif" font-size="13" lengthAdjust="spacing" textLength="171" x="134" y="414.9785">amount0Min: 974,716,628,</text><text fill="#000000" font-family="sans-serif" font-size="13" lengthAdjust="spacing" textLength="279" x="134" y="430.2891">amount1Min: 17,,241,045,132,531,366,496,</text><text fill="#000000" font-family="sans-serif" font-size="13" lengthAdjust="spacing" textLength="153" x="134" y="445.5996">recipient: 0x192b..cc60,</text><text fill="#000000" font-family="sans-serif" font-size="13" lengthAdjust="spacing" textLength="161" x="134" y="460.9102">deadline: 1,687,483,631])</text><text fill="#000000" font-family="sans-serif" font-size="13" lengthAdjust="spacing" textLength="78" x="118" y="476.2207">523,197 gas</text><polygon fill="#181818" points="1380,521.584,1390,525.584,1380,529.584,1384,525.584" style="stroke:#181818;stroke-width:1.0;"/><line style="stroke:#181818;stroke-width:1.0;stroke-dasharray:2.0,2.0;" x1="460" x2="1386" y1="525.584" y2="525.584"/><text fill="#000000" font-family="sans-serif" font-size="13" lengthAdjust="spacing" textLength="40" x="467" y="505.5313">slot0()</text><text fill="#000000" font-family="sans-serif" font-size="13" lengthAdjust="spacing" textLength="62" x="467" y="520.8418">2,696 gas</text><polygon fill="#181818" points="471,642.7578,461,646.7578,471,650.7578,467,646.7578" style="stroke:#181818;stroke-width:1.0;"/><line style="stroke:#181818;stroke-width:1.0;stroke-dasharray:2.0,2.0;" x1="465" x2="1396" y1="646.7578" y2="646.7578"/><text fill="#000000" font-family="sans-serif" font-size="13" lengthAdjust="spacing" textLength="411" x="477" y="550.1523">sqrtPriceX96: 1,828,943,583,213,858,,850,576,451,359,085,817,</text><text fill="#000000" font-family="sans-serif" font-size="13" lengthAdjust="spacing" textLength="88" x="477" y="565.4629">tick: 200,948,</text><text fill="#000000" font-family="sans-serif" font-size="13" lengthAdjust="spacing" textLength="145" x="477" y="580.7734">observationIndex: 419,</text><text fill="#000000" font-family="sans-serif" font-size="13" lengthAdjust="spacing" textLength="178" x="477" y="596.084">observationCardinality: 722,</text><text fill="#000000" font-family="sans-serif" font-size="13" lengthAdjust="spacing" textLength="208" x="477" y="611.3945">observationCardinalityNext: 722,</text><text fill="#000000" font-family="sans-serif" font-size="13" lengthAdjust="spacing" textLength="83" x="477" y="626.7051">feeProtocol: ,</text><text fill="#000000" font-family="sans-serif" font-size="13" lengthAdjust="spacing" textLength="91" x="477" y="642.0156">unlocked: true</text><polygon fill="#181818" points="1380,763.9316,1390,767.9316,1380,771.9316,1384,767.9316" style="stroke:#181818;stroke-width:1.0;"/><line style="stroke:#181818;stroke-width:1.0;stroke-dasharray:2.0,2.0;" x1="460" x2="1386" y1="767.9316" y2="767.9316"/><text fill="#000000" font-family="sans-serif" font-size="13" lengthAdjust="spacing" textLength="33" x="467" y="671.3262">mint(</text><text fill="#000000" font-family="sans-serif" font-size="13" lengthAdjust="spacing" textLength="154" x="475" y="686.6367">recipient: 0xC364..FE88,</text><text fill="#000000" font-family="sans-serif" font-size="13" lengthAdjust="spacing" textLength="125" x="475" y="701.9473">tickLower: 198,370,</text><text fill="#000000" font-family="sans-serif" font-size="13" lengthAdjust="spacing" textLength="125" x="475" y="717.2578">tickUpper: 201,070,</text><text fill="#000000" font-family="sans-serif" font-size="13" lengthAdjust="spacing" textLength="208" x="475" y="732.5684">amount: 6,302,802,252,419,399,</text><text fill="#000000" font-family="sans-serif" font-size="13" lengthAdjust="spacing" textLength="189" x="475" y="747.8789">data: 0x00000000..2d10cc60)</text><text fill="#000000" font-family="sans-serif" font-size="13" lengthAdjust="spacing" textLength="78" x="467" y="763.1895">275,746 gas</text><polygon fill="#181818" points="1611.5,823.8633,1621.5,827.8633,1611.5,831.8633,1615.5,827.8633" style="stroke:#181818;stroke-width:1.0;"/><line style="stroke:#181818;stroke-width:1.0;stroke-dasharray:2.0,2.0;" x1="1402" x2="1617.5" y1="827.8633" y2="827.8633"/><text fill="#000000" font-family="sans-serif" font-size="13" lengthAdjust="spacing" textLength="67" x="1409" y="792.5">balanceOf(</text><text fill="#000000" font-family="sans-serif" font-size="13" lengthAdjust="spacing" textLength="137" x="1417" y="807.8105">owner: 0x88e6..5640)</text><text fill="#000000" font-family="sans-serif" font-size="13" lengthAdjust="spacing" textLength="62" x="1409" y="823.1211">9,815 gas</text><line style="stroke:#181818;stroke-width:1.0;" x1="1807.5" x2="1797.5" y1="887.7949" y2="883.7949"/><line style="stroke:#181818;stroke-width:1.0;" x1="1807.5" x2="1797.5" y1="887.7949" y2="891.7949"/><line style="stroke:#181818;stroke-width:1.0;" x1="1633.5" x2="1808.5" y1="887.7949" y2="887.7949"/><text fill="#000000" font-family="sans-serif" font-size="13" lengthAdjust="spacing" textLength="67" x="1640.5" y="852.4316">balanceOf(</text><text fill="#000000" font-family="sans-serif" font-size="13" lengthAdjust="spacing" textLength="149" x="1648.5" y="867.7422">account: 0x88e6..5640)</text><text fill="#000000" font-family="sans-serif" font-size="13" lengthAdjust="spacing" textLength="62" x="1640.5" y="883.0527">2,529 gas</text><line style="stroke:#181818;stroke-width:1.0;" x1="1634.5" x2="1644.5" y1="917.1055" y2="913.1055"/><line style="stroke:#181818;stroke-width:1.0;" x1="1634.5" x2="1644.5" y1="917.1055" y2="921.1055"/><line style="stroke:#181818;stroke-width:1.0;stroke-dasharray:2.0,2.0;" x1="1633.5" x2="1813.5" y1="917.1055" y2="917.1055"/><text fill="#000000" font-family="sans-serif" font-size="13" lengthAdjust="spacing" textLength="136" x="1650.5" y="912.3633">109,819,519,398,747</text><polygon fill="#181818" points="1413,942.416,1403,946.416,1413,950.416,1409,946.416" style="stroke:#181818;stroke-width:1.0;"/><line style="stroke:#181818;stroke-width:1.0;stroke-dasharray:2.0,2.0;" x1="1407" x2="1627.5" y1="946.416" y2="946.416"/><text fill="#000000" font-family="sans-serif" font-size="13" lengthAdjust="spacing" textLength="136" x="1419" y="941.6738">109,819,519,398,747</text><path d="M1633,959.416 L1633,999.416 L1716,999.416 L1716,969.416 L1706,959.416 L1633,959.416 " fill="#FEFFDD" style="stroke:#181818;stroke-width:0.5;"/><path d="M1706,959.416 L1706,969.416 L1716,969.416 L1706,959.416 " fill="#FEFFDD" style="stroke:#181818;stroke-width:0.5;"/><text fill="#000000" font-family="sans-serif" font-size="13" lengthAdjust="spacing" textLength="4" x="1639" y="976.9844">&#160;</text><text fill="#000000" font-family="sans-serif" font-size="13" lengthAdjust="spacing" textLength="62" x="1639" y="992.2949">7,286 gas</text><polygon fill="#181818" points="1937,1052.9688,1947,1056.9688,1937,1060.9688,1941,1056.9688" style="stroke:#181818;stroke-width:1.0;"/><line style="stroke:#181818;stroke-width:1.0;" x1="1402" x2="1943" y1="1056.9688" y2="1056.9688"/><text fill="#000000" font-family="sans-serif" font-size="13" lengthAdjust="spacing" textLength="67" x="1409" y="1021.6055">balanceOf(</text><text fill="#000000" font-family="sans-serif" font-size="13" lengthAdjust="spacing" textLength="91" x="1417" y="1036.916">0x88e6..5640)</text><text fill="#000000" font-family="sans-serif" font-size="13" lengthAdjust="spacing" textLength="62" x="1409" y="1052.2266">2,534 gas</text><polygon fill="#181818" points="1413,1082.2793,1403,1086.2793,1413,1090.2793,1409,1086.2793" style="stroke:#181818;stroke-width:1.0;"/><line style="stroke:#181818;stroke-width:1.0;stroke-dasharray:2.0,2.0;" x1="1407" x2="1953" y1="1086.2793" y2="1086.2793"/><text fill="#000000" font-family="sans-serif" font-size="13" lengthAdjust="spacing" textLength="216" x="1419" y="1081.5371">63,178,,856,326,334,546,059,764</text><polygon fill="#181818" points="476,1172.832,466,1176.832,476,1180.832,472,1176.832" style="stroke:#181818;stroke-width:1.0;"/><line style="stroke:#181818;stroke-width:1.0;" x1="470" x2="1391" y1="1176.832" y2="1176.832"/><text fill="#000000" font-family="sans-serif" font-size="13" lengthAdjust="spacing" textLength="154" x="482" y="1110.8477">uniswapV3MintCallback(</text><text fill="#000000" font-family="sans-serif" font-size="13" lengthAdjust="spacing" textLength="195" x="490" y="1126.1582">amount0Owed: 1,655,023,202,</text><text fill="#000000" font-family="sans-serif" font-size="13" lengthAdjust="spacing" textLength="291" x="490" y="1141.4688">amount1Owed: 17,,597,832,323,497,058,897,</text><text fill="#000000" font-family="sans-serif" font-size="13" lengthAdjust="spacing" textLength="189" x="490" y="1156.7793">data: 0x00000000..2d10cc60)</text><text fill="#000000" font-family="sans-serif" font-size="13" lengthAdjust="spacing" textLength="70" x="482" y="1172.0898">43,891 gas</text><polygon fill="#181818" points="1611.5,1263.3848,1621.5,1267.3848,1611.5,1271.3848,1615.5,1267.3848" style="stroke:#181818;stroke-width:1.0;"/><line style="stroke:#181818;stroke-width:1.0;stroke-dasharray:2.0,2.0;" x1="465" x2="1617.5" y1="1267.3848" y2="1267.3848"/><text fill="#000000" font-family="sans-serif" font-size="13" lengthAdjust="spacing" textLength="85" x="472" y="1201.4004">transferFrom(</text><text fill="#000000" font-family="sans-serif" font-size="13" lengthAdjust="spacing" textLength="128" x="480" y="1216.7109">from: 0x192b..cc60,</text><text fill="#000000" font-family="sans-serif" font-size="13" lengthAdjust="spacing" textLength="112" x="480" y="1232.0215">to: 0x88e6..5640,</text><text fill="#000000" font-family="sans-serif" font-size="13" lengthAdjust="spacing" textLength="152" x="480" y="1247.332">tokenId: 1,655,023,202)</text><text fill="#000000" font-family="sans-serif" font-size="13" lengthAdjust="spacing" textLength="70" x="472" y="1262.6426">26,392 gas</text><line style="stroke:#181818;stroke-width:1.0;" x1="1807.5" x2="1797.5" y1="1357.9375" y2="1353.9375"/><line style="stroke:#181818;stroke-width:1.0;" x1="1807.5" x2="1797.5" y1="1357.9375" y2="1361.9375"/><line style="stroke:#181818;stroke-width:1.0;" x1="1633.5" x2="1808.5" y1="1357.9375" y2="1357.9375"/><text fill="#000000" font-family="sans-serif" font-size="13" lengthAdjust="spacing" textLength="85" x="1640.5" y="1291.9531">transferFrom(</text><text fill="#000000" font-family="sans-serif" font-size="13" lengthAdjust="spacing" textLength="128" x="1648.5" y="1307.2637">from: 0x192b..cc60,</text><text fill="#000000" font-family="sans-serif" font-size="13" lengthAdjust="spacing" textLength="112" x="1648.5" y="1322.5742">to: 0x88e6..5640,</text><text fill="#000000" font-family="sans-serif" font-size="13" lengthAdjust="spacing" textLength="137" x="1648.5" y="1337.8848">value: 1,655,023,202)</text><text fill="#000000" font-family="sans-serif" font-size="13" lengthAdjust="spacing" textLength="70" x="1640.5" y="1353.1953">25,597 gas</text><line style="stroke:#181818;stroke-width:1.0;" x1="1634.5" x2="1644.5" y1="1387.248" y2="1383.248"/><line style="stroke:#181818;stroke-width:1.0;" x1="1634.5" x2="1644.5" y1="1387.248" y2="1391.248"/><line style="stroke:#181818;stroke-width:1.0;stroke-dasharray:2.0,2.0;" x1="1633.5" x2="1813.5" y1="1387.248" y2="1387.248"/><text fill="#000000" font-family="sans-serif" font-size="13" lengthAdjust="spacing" textLength="25" x="1650.5" y="1382.5059">true</text><polygon fill="#181818" points="476,1397.248,466,1401.248,476,1405.248,472,1401.248" style="stroke:#181818;stroke-width:1.0;"/><line style="stroke:#181818;stroke-width:1.0;stroke-dasharray:2.0,2.0;" x1="470" x2="1627.5" y1="1401.248" y2="1401.248"/><path d="M1633,1414.248 L1633,1454.248 L1704,1454.248 L1704,1424.248 L1694,1414.248 L1633,1414.248 " fill="#FEFFDD" style="stroke:#181818;stroke-width:0.5;"/><path d="M1694,1414.248 L1694,1424.248 L1704,1424.248 L1694,1414.248 " fill="#FEFFDD" style="stroke:#181818;stroke-width:0.5;"/><text fill="#000000" font-family="sans-serif" font-size="13" lengthAdjust="spacing" textLength="4" x="1639" y="1431.8164">&#160;</text><text fill="#000000" font-family="sans-serif" font-size="13" lengthAdjust="spacing" textLength="50" x="1639" y="1447.127">795 gas</text><polygon fill="#181818" points="1937,1538.4219,1947,1542.4219,1937,1546.4219,1941,1542.4219" style="stroke:#181818;stroke-width:1.0;"/><line style="stroke:#181818;stroke-width:1.0;" x1="465" x2="1943" y1="1542.4219" y2="1542.4219"/><text fill="#000000" font-family="sans-serif" font-size="13" lengthAdjust="spacing" textLength="85" x="472" y="1476.4375">transferFrom(</text><text fill="#000000" font-family="sans-serif" font-size="13" lengthAdjust="spacing" textLength="117" x="480" y="1491.748">src: 0x192b..cc60,</text><text fill="#000000" font-family="sans-serif" font-size="13" lengthAdjust="spacing" textLength="119" x="480" y="1507.0586">dst: 0x88e6..5640,</text><text fill="#000000" font-family="sans-serif" font-size="13" lengthAdjust="spacing" textLength="225" x="480" y="1522.3691">wad: 17,,597,832,323,497,058,897)</text><text fill="#000000" font-family="sans-serif" font-size="13" lengthAdjust="spacing" textLength="70" x="472" y="1537.6797">13,025 gas</text><polygon fill="#181818" points="476,1567.7324,466,1571.7324,476,1575.7324,472,1571.7324" style="stroke:#181818;stroke-width:1.0;"/><line style="stroke:#181818;stroke-width:1.0;stroke-dasharray:2.0,2.0;" x1="470" x2="1953" y1="1571.7324" y2="1571.7324"/><text fill="#000000" font-family="sans-serif" font-size="13" lengthAdjust="spacing" textLength="25" x="482" y="1566.9902">true</text><polygon fill="#181818" points="1380,1581.7324,1390,1585.7324,1380,1589.7324,1384,1585.7324" style="stroke:#181818;stroke-width:1.0;"/><line style="stroke:#181818;stroke-width:1.0;stroke-dasharray:2.0,2.0;" x1="460" x2="1386" y1="1585.7324" y2="1585.7324"/><path d="M465,1598.7324 L465,1638.7324 L548,1638.7324 L548,1608.7324 L538,1598.7324 L465,1598.7324 " fill="#FEFFDD" style="stroke:#181818;stroke-width:0.5;"/><path d="M538,1598.7324 L538,1608.7324 L548,1608.7324 L538,1598.7324 " fill="#FEFFDD" style="stroke:#181818;stroke-width:0.5;"/><text fill="#000000" font-family="sans-serif" font-size="13" lengthAdjust="spacing" textLength="4" x="471" y="1616.3008">&#160;</text><text fill="#000000" font-family="sans-serif" font-size="13" lengthAdjust="spacing" textLength="62" x="471" y="1631.6113">4,474 gas</text><polygon fill="#181818" points="1611.5,1692.2852,1621.5,1696.2852,1611.5,1700.2852,1615.5,1696.2852" style="stroke:#181818;stroke-width:1.0;"/><line style="stroke:#181818;stroke-width:1.0;stroke-dasharray:2.0,2.0;" x1="1402" x2="1617.5" y1="1696.2852" y2="1696.2852"/><text fill="#000000" font-family="sans-serif" font-size="13" lengthAdjust="spacing" textLength="67" x="1409" y="1660.9219">balanceOf(</text><text fill="#000000" font-family="sans-serif" font-size="13" lengthAdjust="spacing" textLength="137" x="1417" y="1676.2324">owner: 0x88e6..5640)</text><text fill="#000000" font-family="sans-serif" font-size="13" lengthAdjust="spacing" textLength="62" x="1409" y="1691.543">1,315 gas</text><line style="stroke:#181818;stroke-width:1.0;" x1="1807.5" x2="1797.5" y1="1756.2168" y2="1752.2168"/><line style="stroke:#181818;stroke-width:1.0;" x1="1807.5" x2="1797.5" y1="1756.2168" y2="1760.2168"/><line style="stroke:#181818;stroke-width:1.0;" x1="1633.5" x2="1808.5" y1="1756.2168" y2="1756.2168"/><text fill="#000000" font-family="sans-serif" font-size="13" lengthAdjust="spacing" textLength="67" x="1640.5" y="1720.8535">balanceOf(</text><text fill="#000000" font-family="sans-serif" font-size="13" lengthAdjust="spacing" textLength="149" x="1648.5" y="1736.1641">account: 0x88e6..5640)</text><text fill="#000000" font-family="sans-serif" font-size="13" lengthAdjust="spacing" textLength="50" x="1640.5" y="1751.4746">529 gas</text><line style="stroke:#181818;stroke-width:1.0;" x1="1634.5" x2="1644.5" y1="1785.5273" y2="1781.5273"/><line style="stroke:#181818;stroke-width:1.0;" x1="1634.5" x2="1644.5" y1="1785.5273" y2="1789.5273"/><line style="stroke:#181818;stroke-width:1.0;stroke-dasharray:2.0,2.0;" x1="1633.5" x2="1813.5" y1="1785.5273" y2="1785.5273"/><text fill="#000000" font-family="sans-serif" font-size="13" lengthAdjust="spacing" textLength="136" x="1650.5" y="1780.7852">109,821,174,421,949</text><polygon fill="#181818" points="1413,1810.8379,1403,1814.8379,1413,1818.8379,1409,1814.8379" style="stroke:#181818;stroke-width:1.0;"/><line style="stroke:#181818;stroke-width:1.0;stroke-dasharray:2.0,2.0;" x1="1407" x2="1627.5" y1="1814.8379" y2="1814.8379"/><text fill="#000000" font-family="sans-serif" font-size="13" lengthAdjust="spacing" textLength="136" x="1419" y="1810.0957">109,821,174,421,949</text><path d="M1633,1827.8379 L1633,1867.8379 L1704,1867.8379 L1704,1837.8379 L1694,1827.8379 L1633,1827.8379 " fill="#FEFFDD" style="stroke:#181818;stroke-width:0.5;"/><path d="M1694,1827.8379 L1694,1837.8379 L1704,1837.8379 L1694,1827.8379 " fill="#FEFFDD" style="stroke:#181818;stroke-width:0.5;"/><text fill="#000000" font-family="sans-serif" font-size="13" lengthAdjust="spacing" textLength="4" x="1639" y="1845.4063">&#160;</text><text fill="#000000" font-family="sans-serif" font-size="13" lengthAdjust="spacing" textLength="50" x="1639" y="1860.7168">786 gas</text><polygon fill="#181818" points="1937,1921.3906,1947,1925.3906,1937,1929.3906,1941,1925.3906" style="stroke:#181818;stroke-width:1.0;"/><line style="stroke:#181818;stroke-width:1.0;" x1="1402" x2="1943" y1="1925.3906" y2="1925.3906"/><text fill="#000000" font-family="sans-serif" font-size="13" lengthAdjust="spacing" textLength="67" x="1409" y="1890.0273">balanceOf(</text><text fill="#000000" font-family="sans-serif" font-size="13" lengthAdjust="spacing" textLength="91" x="1417" y="1905.3379">0x88e6..5640)</text><text fill="#000000" font-family="sans-serif" font-size="13" lengthAdjust="spacing" textLength="50" x="1409" y="1920.6484">534 gas</text><polygon fill="#181818" points="1413,1950.7012,1403,1954.7012,1413,1958.7012,1409,1954.7012" style="stroke:#181818;stroke-width:1.0;"/><line style="stroke:#181818;stroke-width:1.0;stroke-dasharray:2.0,2.0;" x1="1407" x2="1953" y1="1954.7012" y2="1954.7012"/><text fill="#000000" font-family="sans-serif" font-size="13" lengthAdjust="spacing" textLength="216" x="1419" y="1949.959">63,196,,454,158,658,043,118,661</text><polygon fill="#181818" points="471,1995.3223,461,1999.3223,471,2003.3223,467,1999.3223" style="stroke:#181818;stroke-width:1.0;"/><line style="stroke:#181818;stroke-width:1.0;stroke-dasharray:2.0,2.0;" x1="465" x2="1396" y1="1999.3223" y2="1999.3223"/><text fill="#000000" font-family="sans-serif" font-size="13" lengthAdjust="spacing" textLength="160" x="477" y="1979.2695">amount0: 1,655,023,202,</text><text fill="#000000" font-family="sans-serif" font-size="13" lengthAdjust="spacing" textLength="252" x="477" y="1994.5801">amount1: 17,,597,832,323,497,058,897</text><path d="M1402,2012.3223 L1402,2052.3223 L1501,2052.3223 L1501,2022.3223 L1491,2012.3223 L1402,2012.3223 " fill="#FEFFDD" style="stroke:#181818;stroke-width:0.5;"/><path d="M1491,2012.3223 L1491,2022.3223 L1501,2022.3223 L1491,2012.3223 " fill="#FEFFDD" style="stroke:#181818;stroke-width:0.5;"/><text fill="#000000" font-family="sans-serif" font-size="13" lengthAdjust="spacing" textLength="4" x="1408" y="2029.8906">&#160;</text><text fill="#000000" font-family="sans-serif" font-size="13" lengthAdjust="spacing" textLength="78" x="1408" y="2045.2012">217,657 gas</text><polygon fill="#181818" points="1380,2105.875,1390,2109.875,1380,2113.875,1384,2109.875" style="stroke:#181818;stroke-width:1.0;"/><line style="stroke:#181818;stroke-width:1.0;stroke-dasharray:2.0,2.0;" x1="460" x2="1386" y1="2109.875" y2="2109.875"/><text fill="#000000" font-family="sans-serif" font-size="13" lengthAdjust="spacing" textLength="63" x="467" y="2074.5117">positions(</text><text fill="#000000" font-family="sans-serif" font-size="13" lengthAdjust="spacing" textLength="154" x="475" y="2089.8223">0xd31d6a57..c6645dd3)</text><text fill="#000000" font-family="sans-serif" font-size="13" lengthAdjust="spacing" textLength="62" x="467" y="2105.1328">1,013 gas</text><polygon fill="#181818" points="471,2196.4277,461,2200.4277,471,2204.4277,467,2200.4277" style="stroke:#181818;stroke-width:1.0;"/><line style="stroke:#181818;stroke-width:1.0;stroke-dasharray:2.0,2.0;" x1="465" x2="1396" y1="2200.4277" y2="2200.4277"/><text fill="#000000" font-family="sans-serif" font-size="13" lengthAdjust="spacing" textLength="212" x="477" y="2134.4434">liquidity: 6,302,802,252,419,399,</text><text fill="#000000" font-family="sans-serif" font-size="13" lengthAdjust="spacing" textLength="908" x="477" y="2149.7539">feeGrowthInside0LastX128: 115,792,089,237,316,195,423,570,985,008,687,907,853,269,983,852,376,922,521,851,,387,932,641,738,657,791,</text><text fill="#000000" font-family="sans-serif" font-size="13" lengthAdjust="spacing" textLength="908" x="477" y="2165.0645">feeGrowthInside1LastX128: 115,792,089,237,316,195,423,570,985,008,687,907,266,688,585,677,526,477,511,826,,995,108,310,614,239,456,</text><text fill="#000000" font-family="sans-serif" font-size="13" lengthAdjust="spacing" textLength="106" x="477" y="2180.375">tokensOwed0: 0,</text><text fill="#000000" font-family="sans-serif" font-size="13" lengthAdjust="spacing" textLength="102" x="477" y="2195.6855">tokensOwed1: 0</text><polygon fill="#181818" points="122,2271.6699,112,2275.6699,122,2279.6699,118,2275.6699" style="stroke:#181818;stroke-width:1.0;"/><line style="stroke:#181818;stroke-width:1.0;stroke-dasharray:2.0,2.0;" x1="116" x2="454" y1="2275.6699" y2="2275.6699"/><text fill="#000000" font-family="sans-serif" font-size="13" lengthAdjust="spacing" textLength="112" x="128" y="2224.9961">tokenId: 528,722,</text><text fill="#000000" font-family="sans-serif" font-size="13" lengthAdjust="spacing" textLength="212" x="128" y="2240.3066">liquidity: 6,302,802,252,419,399,</text><text fill="#000000" font-family="sans-serif" font-size="13" lengthAdjust="spacing" textLength="160" x="128" y="2255.6172">amount0: 1,655,023,202,</text><text fill="#000000" font-family="sans-serif" font-size="13" lengthAdjust="spacing" textLength="252" x="128" y="2270.9277">amount1: 17,,597,832,323,497,058,897</text><path d="M460,2288.6699 L460,2328.6699 L559,2328.6699 L559,2298.6699 L549,2288.6699 L460,2288.6699 " fill="#FEFFDD" style="stroke:#181818;stroke-width:0.5;"/><path d="M549,2288.6699 L549,2298.6699 L559,2298.6699 L549,2288.6699 " fill="#FEFFDD" style="stroke:#181818;stroke-width:0.5;"/><text fill="#000000" font-family="sans-serif" font-size="13" lengthAdjust="spacing" textLength="4" x="466" y="2306.2383">&#160;</text><text fill="#000000" font-family="sans-serif" font-size="13" lengthAdjust="spacing" textLength="78" x="466" y="2321.5488">243,742 gas</text><path d="M314,2339.291 L314,2486.291 L595,2486.291 L595,2349.291 L585,2339.291 L314,2339.291 " fill="#00FFFF" style="stroke:#181818;stroke-width:0.5;"/><path d="M585,2339.291 L585,2349.291 L595,2349.291 L585,2339.291 " fill="#00FFFF" style="stroke:#181818;stroke-width:0.5;"/><text fill="#000000" font-family="sans-serif" font-size="13" lengthAdjust="spacing" textLength="56" x="320" y="2356.8594">Transfer:</text><text fill="#000000" font-family="sans-serif" font-size="13" lengthAdjust="spacing" textLength="130" x="328" y="2372.1699">from: 0x0000..0000,</text><text fill="#000000" font-family="sans-serif" font-size="13" lengthAdjust="spacing" textLength="111" x="328" y="2387.4805">to: 0x192b..cc60,</text><text fill="#000000" font-family="sans-serif" font-size="13" lengthAdjust="spacing" textLength="108" x="328" y="2402.791">tokenId: 528,722</text><text fill="#000000" font-family="sans-serif" font-size="13" lengthAdjust="spacing" textLength="111" x="320" y="2418.1016">IncreaseLiquidity:</text><text fill="#000000" font-family="sans-serif" font-size="13" lengthAdjust="spacing" textLength="112" x="328" y="2433.4121">tokenId: 528,722,</text><text fill="#000000" font-family="sans-serif" font-size="13" lengthAdjust="spacing" textLength="212" x="328" y="2448.7227">liquidity: 6,302,802,252,419,399,</text><text fill="#000000" font-family="sans-serif" font-size="13" lengthAdjust="spacing" textLength="160" x="328" y="2464.0332">amount0: 1,655,023,202,</text><text fill="#000000" font-family="sans-serif" font-size="13" lengthAdjust="spacing" textLength="252" x="328" y="2479.3438">amount1: 17,,597,832,323,497,058,897</text><path d="M1256,2339.291 L1256,2471.291 L1537,2471.291 L1537,2349.291 L1527,2339.291 L1256,2339.291 " fill="#00FFFF" style="stroke:#181818;stroke-width:0.5;"/><path d="M1527,2339.291 L1527,2349.291 L1537,2349.291 L1527,2339.291 " fill="#00FFFF" style="stroke:#181818;stroke-width:0.5;"/><text fill="#000000" font-family="sans-serif" font-size="13" lengthAdjust="spacing" textLength="32" x="1262" y="2356.8594">Mint:</text><text fill="#000000" font-family="sans-serif" font-size="13" lengthAdjust="spacing" textLength="141" x="1270" y="2372.1699">sender: 0xC364..FE88,</text><text fill="#000000" font-family="sans-serif" font-size="13" lengthAdjust="spacing" textLength="137" x="1270" y="2387.4805">owner: 0xC364..FE88,</text><text fill="#000000" font-family="sans-serif" font-size="13" lengthAdjust="spacing" textLength="125" x="1270" y="2402.791">tickLower: 198,370,</text><text fill="#000000" font-family="sans-serif" font-size="13" lengthAdjust="spacing" textLength="125" x="1270" y="2418.1016">tickUpper: 201,070,</text><text fill="#000000" font-family="sans-serif" font-size="13" lengthAdjust="spacing" textLength="208" x="1270" y="2433.4121">amount: 6,302,802,252,419,399,</text><text fill="#000000" font-family="sans-serif" font-size="13" lengthAdjust="spacing" textLength="160" x="1270" y="2448.7227">amount0: 1,655,023,202,</text><text fill="#000000" font-family="sans-serif" font-size="13" lengthAdjust="spacing" textLength="252" x="1270" y="2464.0332">amount1: 17,,597,832,323,497,058,897</text><path d="M1547,2339.291 L1547,2410.291 L1709,2410.291 L1709,2349.291 L1699,2339.291 L1547,2339.291 " fill="#00FFFF" style="stroke:#181818;stroke-width:0.5;"/><path d="M1699,2339.291 L1699,2349.291 L1709,2349.291 L1699,2339.291 " fill="#00FFFF" style="stroke:#181818;stroke-width:0.5;"/><text fill="#000000" font-family="sans-serif" font-size="13" lengthAdjust="spacing" textLength="56" x="1553" y="2356.8594">Transfer:</text><text fill="#000000" font-family="sans-serif" font-size="13" lengthAdjust="spacing" textLength="128" x="1561" y="2372.1699">from: 0x192b..cc60,</text><text fill="#000000" font-family="sans-serif" font-size="13" lengthAdjust="spacing" textLength="112" x="1561" y="2387.4805">to: 0x88e6..5640,</text><text fill="#000000" font-family="sans-serif" font-size="13" lengthAdjust="spacing" textLength="133" x="1561" y="2402.791">value: 1,655,023,202</text><path d="M1829,2339.291 L1829,2410.291 L2079,2410.291 L2079,2349.291 L2069,2339.291 L1829,2339.291 " fill="#00FFFF" style="stroke:#181818;stroke-width:0.5;"/><path d="M2069,2339.291 L2069,2349.291 L2079,2349.291 L2069,2339.291 " fill="#00FFFF" style="stroke:#181818;stroke-width:0.5;"/><text fill="#000000" font-family="sans-serif" font-size="13" lengthAdjust="spacing" textLength="56" x="1835" y="2356.8594">Transfer:</text><text fill="#000000" font-family="sans-serif" font-size="13" lengthAdjust="spacing" textLength="117" x="1843" y="2372.1699">src: 0x192b..cc60,</text><text fill="#000000" font-family="sans-serif" font-size="13" lengthAdjust="spacing" textLength="119" x="1843" y="2387.4805">dst: 0x88e6..5640,</text><text fill="#000000" font-family="sans-serif" font-size="13" lengthAdjust="spacing" textLength="221" x="1843" y="2402.791">wad: 17,,597,832,323,497,058,897</text><!--SRC=[jLTjJzj84FxkNx5glr1fyUtxIuGYNIdqE055Aj1An-cqiJVK8jZKTWhzzpThnyvxeBqhKeZ7kpixByyyCwcpUk8HUP8w5QbBtIXDap4d8owfjOPhDsQAYh6KAR5Zuhn8aZ7Hb2GZdtglB6TYpCPEHr7Y7kgioD6zo_BSrnYD9aLoXwYMt1YbC3ekCumOHtzESyG8F10oa7eWD7f_TXcvf2vAz8eyKSj6SPmaYhn2ha9130AA7bnPPqdsuF8wx4ku4d4yziOq-u8O17HmS9LdrQDxGDSSNHHL5gogqFdnvVur7GuF3lQkpa_sh_d-nOUFRu9yNkJZQNwRZIQ-stxcSdVho-5mzL9Zl8fZgKHhN123CB_qcbyKnMJze2CZ4yT-95fhWnY4SF3ZEtHOP7bhsiTtXurHnvchBuixdr-KnTFt3VeOPt4yWcIr-a0C0beuUSt-eUi74y9S7AiaOMtOG0m27FnKkeS7dwAZ-ajm7QpvT7JvHsDDUB2WAygBsgFYco_xl4GGliGF4ACoUWyAByeiY5J4obeXh6OClN_qMNJcdj2n3qisve8e0xWIyoKuLvHP_Ns0I4pRrq7TQNQVrGEacCQ6g-RLLUNJ0PACOsfrT3dJIc92308x8v-dADWPHJrszeSzFWReFilhlPiS8OYCkwy6wAyW85I7e17GzFHxcwotmk259HgM3jlm7IPijZGEbqj2kfrPSdTQFFeo-6amruiBLn1VM624Oj8lkFjYcjVadQ-oCZX6iP8IGtrWA9AbFNI-HsEiYCJSSgmCnKPnRBJ4XYsV86TPFa1M2wofmegPPNtDQj3515Wa9AQSOSafvb2lmghPxj83V3AVro40y_AShQRUfPCizutbHcDXm2PE_tvpayzoX6vT5Uex- -O0FLqYehvYzo4zNIKDK3KfQh87fnbMLYsVxNP5fQ-dPOwghsNT0EwpLU5-0nvQmR446nY5c4Y3uH_1KeD34XoJ5XC3WGAlR_AGav0E0eT2Q8fHvKku21ZW94_zqm09QfVV7xeopN8tQP2gct1lNZttJtMt0p02PLmNIJ4P892dUQ36aCYwdFfjWUXnkXJ_muRsZezCcyijUDk2jZRlK4wO0xOCV9XaE3Z9hMrsfAvsuHeo-ujZbWBRGxf3HW1YMcpBIK-6mOsEu0Pev2OE6EB3kF6bUCo3KOjC2eej94Gkg-qKH3rLxW-7FS-jgdL9qdgseXZWpEoAueugNnjYZmxVTbYY95XXiMoYOS1HlMkfOS8ok_rIesAyuEvDhZ4pROpc4HdsHBjg-Rh1NAmKpEnaPmtKEjKDhY6D33vSO2aK9e1jhSJohJthJRl-14LV7xh9PEIIkxqvACY7nytiC-EAsJAGXRI1YndSpO4aDDnhiB7wUVX0OHfBNy86yt3MfSkhiI-Fo-A-iNOC3njug2wMSpzx2RHzikfLY394pR8V0zn_ikIRcqpz1ZjaYERByDbGnUnv5_fiMqZpU2vYRys9gams-91MzGOd7jrk1813mBc4oTtutU787Aw05YoqM2cZ7oOMOFnVGom_HYkCGic2G_1jXTsrj2EnFqygBw8KQFVG8WMca4m57mBbIYayAzfjcp75EalCE68dEbPSc_SvA0CufgHUmUrICtpe1lcPVocdgN9I0sYL4Z9DUPDjGldkYM6IVPrcQTEzjpL1wDRlo-An_dAILrdgoQchwi-KGH8eXVvd6KmG5ZEk0LiAuYOXUJ1oG8krC5d05DgCGPP052G4I5bu7qOHY0XC8PQ5dWIZ2amZc8UD42e5yvVc8UuQBg3hHj2VDuB1BATWMf3mNcaDbyCe5Bvfc9SWwHOEKpZ0AS4mauDI2q08mr_3drLW_Z0MBxq8mt1Vq1tDIXY_sedd1M7-Fy6qo1iCSAj5I-uBlrTwNBrsNwSkkfmHuI2Q4tdRiC9_77Kyla2C4LhpD3h9azAxof_s_cxO5Ku-6v08RIklVkMPaCn_z_o6vdxtTD7w7Rf_iB62tIrVBWoKqGADBh_UC6P66wVCwBaXyrVvsRFvzlokvdAbnKMRs_IM-_eVpklthVVKQ5DBZPxlgFEx_mK0]--></g></svg>
