<?xml version="1.0" encoding="us-ascii" standalone="no"?><svg xmlns:xlink="http://www.w3.org/1999/xlink" xmlns="http://www.w3.org/2000/svg" contentStyleType="text/css" height="676px" preserveAspectRatio="none" style="width:603px;height:676px;background:#FFFFFF;" version="1.1" viewBox="0 0 603 676" width="603px" zoomAndPan="magnify"><defs/><g><text fill="#000000" font-family="sans-serif" font-size="14" font-weight="bold" lengthAdjust="spacing" textLength="575" x="10" y="28.5352">0x59bd1333b443de0c3f138f5051963a9831ce3605544b27e88b2bd341d6bf7b5e</text><text fill="#000000" font-family="sans-serif" font-size="14" lengthAdjust="spacing" textLength="411" x="92" y="664.4512">mainnet, block 16934485, Wed, 29 Mar 2023 17:39:59 GMT</text><rect fill="#FFFFFF" height="192.4844" style="stroke:#181818;stroke-width:1.0;" width="10" x="279.25" y="215.9941"/><rect fill="#FFFFFF" height="29.3105" style="stroke:#181818;stroke-width:1.0;" width="10" x="478.25" y="260.6152"/><rect fill="#FFFFFF" height="29.3105" style="stroke:#181818;stroke-width:1.0;" width="10" x="478.25" y="349.8574"/><line style="stroke:#181818;stroke-width:0.5;stroke-dasharray:5.0,5.0;" x1="96.25" x2="96.25" y1="123.4414" y2="568.9629"/><line style="stroke:#181818;stroke-width:0.5;stroke-dasharray:5.0,5.0;" x1="283.75" x2="283.75" y1="123.4414" y2="568.9629"/><line style="stroke:#181818;stroke-width:0.5;stroke-dasharray:5.0,5.0;" x1="482.75" x2="482.75" y1="123.4414" y2="568.9629"/><text fill="#000000" font-family="sans-serif" font-size="14" lengthAdjust="spacing" textLength="96" x="45.25" y="120.4883">0xd31b..57c9</text><ellipse cx="96.25" cy="55.4531" fill="#E2E2F0" rx="8" ry="8" style="stroke:#181818;stroke-width:0.5;"/><path d="M96.25,63.4531 L96.25,90.4531 M83.25,71.4531 L109.25,71.4531 M96.25,90.4531 L83.25,105.4531 M96.25,90.4531 L109.25,105.4531 " fill="none" style="stroke:#181818;stroke-width:0.5;"/><text fill="#000000" font-family="sans-serif" font-size="14" lengthAdjust="spacing" textLength="96" x="45.25" y="581.498">0xd31b..57c9</text><ellipse cx="96.25" cy="592.9512" fill="#E2E2F0" rx="8" ry="8" style="stroke:#181818;stroke-width:0.5;"/><path d="M96.25,600.9512 L96.25,627.9512 M83.25,608.9512 L109.25,608.9512 M96.25,627.9512 L83.25,642.9512 M96.25,627.9512 L109.25,642.9512 " fill="none" style="stroke:#181818;stroke-width:0.5;"/><rect fill="#E2E2F0" height="79.9531" rx="2.5" ry="2.5" style="stroke:#181818;stroke-width:0.5;" width="243" x="162.75" y="42.4883"/><text fill="#000000" font-family="sans-serif" font-size="14" font-style="italic" lengthAdjust="spacing" textLength="94" x="237.25" y="63.0234">&#171;Uniswap V1&#187;</text><text fill="#000000" font-family="sans-serif" font-size="14" font-style="italic" lengthAdjust="spacing" textLength="74" x="247.25" y="79.5117">&#171;(UNI-V1)&#187;</text><text fill="#000000" font-family="sans-serif" font-size="14" font-style="italic" lengthAdjust="spacing" textLength="229" x="169.75" y="96">&#171;Uniswap Exchange Interface V1&#187;</text><text fill="#000000" font-family="sans-serif" font-size="14" lengthAdjust="spacing" textLength="97" x="235.75" y="112.4883">0x97de..8126</text><rect fill="#E2E2F0" height="79.9531" rx="2.5" ry="2.5" style="stroke:#181818;stroke-width:0.5;" width="243" x="162.75" y="567.9629"/><text fill="#000000" font-family="sans-serif" font-size="14" font-style="italic" lengthAdjust="spacing" textLength="94" x="237.25" y="588.498">&#171;Uniswap V1&#187;</text><text fill="#000000" font-family="sans-serif" font-size="14" font-style="italic" lengthAdjust="spacing" textLength="74" x="247.25" y="604.9863">&#171;(UNI-V1)&#187;</text><text fill="#000000" font-family="sans-serif" font-size="14" font-style="italic" lengthAdjust="spacing" textLength="229" x="169.75" y="621.4746">&#171;Uniswap Exchange Interface V1&#187;</text><text fill="#000000" font-family="sans-serif" font-size="14" lengthAdjust="spacing" textLength="97" x="235.75" y="637.9629">0x97de..8126</text><rect fill="#E2E2F0" height="79.9531" rx="2.5" ry="2.5" style="stroke:#181818;stroke-width:0.5;" width="135" x="415.75" y="42.4883"/><text fill="#000000" font-family="sans-serif" font-size="14" font-style="italic" lengthAdjust="spacing" textLength="78" x="444.25" y="63.0234">&#171;USD Coin&#187;</text><text fill="#000000" font-family="sans-serif" font-size="14" font-style="italic" lengthAdjust="spacing" textLength="62" x="452.25" y="79.5117">&#171;(USDC)&#187;</text><text fill="#000000" font-family="sans-serif" font-size="14" font-style="italic" lengthAdjust="spacing" textLength="121" x="422.75" y="96">&#171;FiatTokenProxy&#187;</text><text fill="#000000" font-family="sans-serif" font-size="14" lengthAdjust="spacing" textLength="96" x="435.25" y="112.4883">0xa0b8..eb48</text><rect fill="#E2E2F0" height="79.9531" rx="2.5" ry="2.5" style="stroke:#181818;stroke-width:0.5;" width="135" x="415.75" y="567.9629"/><text fill="#000000" font-family="sans-serif" font-size="14" font-style="italic" lengthAdjust="spacing" textLength="78" x="444.25" y="588.498">&#171;USD Coin&#187;</text><text fill="#000000" font-family="sans-serif" font-size="14" font-style="italic" lengthAdjust="spacing" textLength="62" x="452.25" y="604.9863">&#171;(USDC)&#187;</text><text fill="#000000" font-family="sans-serif" font-size="14" font-style="italic" lengthAdjust="spacing" textLength="121" x="422.75" y="621.4746">&#171;FiatTokenProxy&#187;</text><text fill="#000000" font-family="sans-serif" font-size="14" lengthAdjust="spacing" textLength="96" x="435.25" y="637.9629">0xa0b8..eb48</text><rect fill="#FFFFFF" height="192.4844" style="stroke:#181818;stroke-width:1.0;" width="10" x="279.25" y="215.9941"/><rect fill="#FFFFFF" height="29.3105" style="stroke:#181818;stroke-width:1.0;" width="10" x="478.25" y="260.6152"/><rect fill="#FFFFFF" height="29.3105" style="stroke:#181818;stroke-width:1.0;" width="10" x="478.25" y="349.8574"/><polygon fill="#181818" points="267.25,211.9941,277.25,215.9941,267.25,219.9941,271.25,215.9941" style="stroke:#181818;stroke-width:1.0;"/><line style="stroke:#181818;stroke-width:1.0;" x1="96.25" x2="273.25" y1="215.9941" y2="215.9941"/><text fill="#000000" font-family="sans-serif" font-size="13" lengthAdjust="spacing" textLength="164" x="103.25" y="150.0098">ethToTokenTransferInput(</text><text fill="#000000" font-family="sans-serif" font-size="13" lengthAdjust="spacing" textLength="78" x="111.25" y="165.3203">min_tokens,</text><text fill="#000000" font-family="sans-serif" font-size="13" lengthAdjust="spacing" textLength="57" x="111.25" y="180.6309">deadline,</text><text fill="#000000" font-family="sans-serif" font-size="13" lengthAdjust="spacing" textLength="59" x="111.25" y="195.9414">recipient)</text><text fill="#000000" font-family="sans-serif" font-size="13" lengthAdjust="spacing" textLength="57" x="103.25" y="211.252">0.01 ETH</text><polygon fill="#181818" points="466.25,256.6152,476.25,260.6152,466.25,264.6152,470.25,260.6152" style="stroke:#181818;stroke-width:1.0;"/><line style="stroke:#181818;stroke-width:1.0;" x1="289.25" x2="472.25" y1="260.6152" y2="260.6152"/><text fill="#000000" font-family="sans-serif" font-size="13" lengthAdjust="spacing" textLength="67" x="296.25" y="240.5625">balanceOf(</text><text fill="#000000" font-family="sans-serif" font-size="13" lengthAdjust="spacing" textLength="49" x="304.25" y="255.873">_owner)</text><polygon fill="#181818" points="300.25,285.9258,290.25,289.9258,300.25,293.9258,296.25,289.9258" style="stroke:#181818;stroke-width:1.0;"/><line style="stroke:#181818;stroke-width:1.0;stroke-dasharray:2.0,2.0;" x1="294.25" x2="482.25" y1="289.9258" y2="289.9258"/><text fill="#000000" font-family="sans-serif" font-size="13" lengthAdjust="spacing" textLength="21" x="306.25" y="285.1836">out</text><polygon fill="#181818" points="466.25,345.8574,476.25,349.8574,466.25,353.8574,470.25,349.8574" style="stroke:#181818;stroke-width:1.0;"/><line style="stroke:#181818;stroke-width:1.0;" x1="289.25" x2="472.25" y1="349.8574" y2="349.8574"/><text fill="#000000" font-family="sans-serif" font-size="13" lengthAdjust="spacing" textLength="53" x="296.25" y="314.4941">transfer(</text><text fill="#000000" font-family="sans-serif" font-size="13" lengthAdjust="spacing" textLength="24" x="304.25" y="329.8047">_to,</text><text fill="#000000" font-family="sans-serif" font-size="13" lengthAdjust="spacing" textLength="44" x="304.25" y="345.1152">_value)</text><polygon fill="#181818" points="300.25,375.168,290.25,379.168,300.25,383.168,296.25,379.168" style="stroke:#181818;stroke-width:1.0;"/><line style="stroke:#181818;stroke-width:1.0;stroke-dasharray:2.0,2.0;" x1="294.25" x2="482.25" y1="379.168" y2="379.168"/><text fill="#000000" font-family="sans-serif" font-size="13" lengthAdjust="spacing" textLength="21" x="306.25" y="374.4258">out</text><polygon fill="#181818" points="107.25,404.4785,97.25,408.4785,107.25,412.4785,103.25,408.4785" style="stroke:#181818;stroke-width:1.0;"/><line style="stroke:#181818;stroke-width:1.0;stroke-dasharray:2.0,2.0;" x1="101.25" x2="283.25" y1="408.4785" y2="408.4785"/><text fill="#000000" font-family="sans-serif" font-size="13" lengthAdjust="spacing" textLength="21" x="113.25" y="403.7363">out</text><path d="M222.25,421.4785 L222.25,553.4785 L346.25,553.4785 L346.25,431.4785 L336.25,421.4785 L222.25,421.4785 " fill="#00FFFF" style="stroke:#181818;stroke-width:0.5;"/><path d="M336.25,421.4785 L336.25,431.4785 L346.25,431.4785 L336.25,421.4785 " fill="#00FFFF" style="stroke:#181818;stroke-width:0.5;"/><text fill="#000000" font-family="sans-serif" font-size="13" lengthAdjust="spacing" textLength="99" x="228.25" y="439.0469">TokenPurchase:</text><text fill="#000000" font-family="sans-serif" font-size="13" lengthAdjust="spacing" textLength="39" x="236.25" y="454.3574">buyer,</text><text fill="#000000" font-family="sans-serif" font-size="13" lengthAdjust="spacing" textLength="58" x="236.25" y="469.668">eth_sold,</text><text fill="#000000" font-family="sans-serif" font-size="13" lengthAdjust="spacing" textLength="95" x="236.25" y="484.9785">tokens_bought</text><text fill="#000000" font-family="sans-serif" font-size="13" lengthAdjust="spacing" textLength="99" x="228.25" y="500.2891">TokenPurchase:</text><text fill="#000000" font-family="sans-serif" font-size="13" lengthAdjust="spacing" textLength="39" x="236.25" y="515.5996">buyer,</text><text fill="#000000" font-family="sans-serif" font-size="13" lengthAdjust="spacing" textLength="58" x="236.25" y="530.9102">eth_sold,</text><text fill="#000000" font-family="sans-serif" font-size="13" lengthAdjust="spacing" textLength="95" x="236.25" y="546.2207">tokens_bought</text><path d="M444.25,421.4785 L444.25,492.4785 L521.25,492.4785 L521.25,431.4785 L511.25,421.4785 L444.25,421.4785 " fill="#00FFFF" style="stroke:#181818;stroke-width:0.5;"/><path d="M511.25,421.4785 L511.25,431.4785 L521.25,431.4785 L511.25,421.4785 " fill="#00FFFF" style="stroke:#181818;stroke-width:0.5;"/><text fill="#000000" font-family="sans-serif" font-size="13" lengthAdjust="spacing" textLength="56" x="450.25" y="439.0469">Transfer:</text><text fill="#000000" font-family="sans-serif" font-size="13" lengthAdjust="spacing" textLength="34" x="458.25" y="454.3574">from,</text><text fill="#000000" font-family="sans-serif" font-size="13" lengthAdjust="spacing" textLength="17" x="458.25" y="469.668">to,</text><text fill="#000000" font-family="sans-serif" font-size="13" lengthAdjust="spacing" textLength="33" x="458.25" y="484.9785">value</text><!--SRC=[dL7BRjim4BppAnRf9GOSLHGbMp8CNvAqzI5jWJZf9O11YgkOYBnqASfn_hwY_0e250Lw8NR0uSnmrXjV8yIxh52Q2o5KcWgDSIagBl8gYpDUZ8GiSi5B5ACuoz9K9MFCSvKeBLAkHweQgmmPA-N66qkmbeO8_H1KRSiNuAD2f6cU3U4NwY4a1Tn91qcS2E3ZYIWcMG5VxnPCbjuwk8XtMd0LHTcuB2v0DX1W0C0sqdbJceqa7tZ5M6CKvJmPzRm00u3fz85CyoetyCXdi-dqyk7x_EgH3y9ylBdTbIj9pmXpykWgMM9F_cWXOvL74Qeqxoq2321OtD_0jJMqDxY_kUxblnZf5_O5wQUpkxTEZvtINyrE2IU0VhMmFN7X93KLkZbjMd_vH01hGqiVhffXW1gbhWrX3nnssGoI7pnH7CKSRXVVGd5cApsUzDcfYixqc7a2IjQIIlnHzJPB-qhe1kVNHo9pw5j7O5l_5o5_oBpNyRQFjjpAkiL_wBqR6TcEPBVepflx97-takqBR5steGOd342rR-Y6tT3LjcnihSEyhsYfRFkyyl_r1ab32C7OPpY7EUtu4ERmrw1PERlUouIp_-zPv0y0]--></g></svg>
