<?xml version="1.0" encoding="UTF-8" standalone="no"?><svg xmlns:xlink="http://www.w3.org/1999/xlink" xmlns="http://www.w3.org/2000/svg" contentStyleType="text/css" height="946px" preserveAspectRatio="none" style="width:603px;height:946px;background:#FFFFFF;" version="1.1" viewBox="0 0 603 946" width="603px" zoomAndPan="magnify"><defs/><g><text fill="#000000" font-family="sans-serif" font-size="14" font-weight="bold" lengthAdjust="spacing" textLength="575" x="10.75" y="28.5352">0x59bd1333b443de0c3f138f5051963a9831ce3605544b27e88b2bd341d6bf7b5e</text><text fill="#000000" font-family="sans-serif" font-size="14" lengthAdjust="spacing" textLength="411" x="92.75" y="934.1094">mainnet, block 16934485, Wed, 29 Mar 2023 17:39:59 GMT</text><rect fill="#FFFFFF" height="269.0371" style="stroke:#181818;stroke-width:1.0;" width="10" x="294" y="358.4785"/><rect fill="#FFFFFF" height="44.6211" style="stroke:#181818;stroke-width:1.0;" width="10" x="508.5" y="418.4102"/><rect fill="#FFFFFF" height="44.6211" style="stroke:#181818;stroke-width:1.0;" width="10" x="508.5" y="538.2734"/><line style="stroke:#181818;stroke-width:0.5;stroke-dasharray:5.0,5.0;" x1="111" x2="111" y1="123.4414" y2="838.6211"/><line style="stroke:#181818;stroke-width:0.5;stroke-dasharray:5.0,5.0;" x1="298.5" x2="298.5" y1="123.4414" y2="838.6211"/><line style="stroke:#181818;stroke-width:0.5;stroke-dasharray:5.0,5.0;" x1="513" x2="513" y1="123.4414" y2="838.6211"/><text fill="#000000" font-family="sans-serif" font-size="14" lengthAdjust="spacing" textLength="96" x="60" y="120.4883">0xd31b..57c9</text><ellipse cx="111" cy="55.4531" fill="#E2E2F0" rx="8" ry="8" style="stroke:#181818;stroke-width:0.5;"/><path d="M111,63.4531 L111,90.4531 M98,71.4531 L124,71.4531 M111,90.4531 L98,105.4531 M111,90.4531 L124,105.4531 " fill="none" style="stroke:#181818;stroke-width:0.5;"/><text fill="#000000" font-family="sans-serif" font-size="14" lengthAdjust="spacing" textLength="96" x="60" y="851.1563">0xd31b..57c9</text><ellipse cx="111" cy="862.6094" fill="#E2E2F0" rx="8" ry="8" style="stroke:#181818;stroke-width:0.5;"/><path d="M111,870.6094 L111,897.6094 M98,878.6094 L124,878.6094 M111,897.6094 L98,912.6094 M111,897.6094 L124,912.6094 " fill="none" style="stroke:#181818;stroke-width:0.5;"/><rect fill="#E2E2F0" height="79.9531" rx="2.5" ry="2.5" style="stroke:#181818;stroke-width:0.5;" width="243" x="177.5" y="42.4883"/><text fill="#000000" font-family="sans-serif" font-size="14" font-style="italic" lengthAdjust="spacing" textLength="94" x="252" y="63.0234">«Uniswap V1»</text><text fill="#000000" font-family="sans-serif" font-size="14" font-style="italic" lengthAdjust="spacing" textLength="74" x="262" y="79.5117">«(UNI-V1)»</text><text fill="#000000" font-family="sans-serif" font-size="14" font-style="italic" lengthAdjust="spacing" textLength="229" x="184.5" y="96">«Uniswap Exchange Interface V1»</text><text fill="#000000" font-family="sans-serif" font-size="14" lengthAdjust="spacing" textLength="97" x="250.5" y="112.4883">0x97de..8126</text><rect fill="#E2E2F0" height="79.9531" rx="2.5" ry="2.5" style="stroke:#181818;stroke-width:0.5;" width="243" x="177.5" y="837.6211"/><text fill="#000000" font-family="sans-serif" font-size="14" font-style="italic" lengthAdjust="spacing" textLength="94" x="252" y="858.1563">«Uniswap V1»</text><text fill="#000000" font-family="sans-serif" font-size="14" font-style="italic" lengthAdjust="spacing" textLength="74" x="262" y="874.6445">«(UNI-V1)»</text><text fill="#000000" font-family="sans-serif" font-size="14" font-style="italic" lengthAdjust="spacing" textLength="229" x="184.5" y="891.1328">«Uniswap Exchange Interface V1»</text><text fill="#000000" font-family="sans-serif" font-size="14" lengthAdjust="spacing" textLength="97" x="250.5" y="907.6211">0x97de..8126</text><rect fill="#E2E2F0" height="79.9531" rx="2.5" ry="2.5" style="stroke:#181818;stroke-width:0.5;" width="135" x="446" y="42.4883"/><text fill="#000000" font-family="sans-serif" font-size="14" font-style="italic" lengthAdjust="spacing" textLength="78" x="474.5" y="63.0234">«USD Coin»</text><text fill="#000000" font-family="sans-serif" font-size="14" font-style="italic" lengthAdjust="spacing" textLength="62" x="482.5" y="79.5117">«(USDC)»</text><text fill="#000000" font-family="sans-serif" font-size="14" font-style="italic" lengthAdjust="spacing" textLength="121" x="453" y="96">«FiatTokenProxy»</text><text fill="#000000" font-family="sans-serif" font-size="14" lengthAdjust="spacing" textLength="96" x="465.5" y="112.4883">0xa0b8..eb48</text><rect fill="#E2E2F0" height="79.9531" rx="2.5" ry="2.5" style="stroke:#181818;stroke-width:0.5;" width="135" x="446" y="837.6211"/><text fill="#000000" font-family="sans-serif" font-size="14" font-style="italic" lengthAdjust="spacing" textLength="78" x="474.5" y="858.1563">«USD Coin»</text><text fill="#000000" font-family="sans-serif" font-size="14" font-style="italic" lengthAdjust="spacing" textLength="62" x="482.5" y="874.6445">«(USDC)»</text><text fill="#000000" font-family="sans-serif" font-size="14" font-style="italic" lengthAdjust="spacing" textLength="121" x="453" y="891.1328">«FiatTokenProxy»</text><text fill="#000000" font-family="sans-serif" font-size="14" lengthAdjust="spacing" textLength="96" x="465.5" y="907.6211">0xa0b8..eb48</text><rect fill="#FFFFFF" height="269.0371" style="stroke:#181818;stroke-width:1.0;" width="10" x="294" y="358.4785"/><rect fill="#FFFFFF" height="44.6211" style="stroke:#181818;stroke-width:1.0;" width="10" x="508.5" y="418.4102"/><rect fill="#FFFFFF" height="44.6211" style="stroke:#181818;stroke-width:1.0;" width="10" x="508.5" y="538.2734"/><path d="M5,138.4414 L5,255.4414 L217,255.4414 L217,148.4414 L207,138.4414 L5,138.4414 " fill="#FEFFDD" style="stroke:#181818;stroke-width:0.5;"/><path d="M207,138.4414 L207,148.4414 L217,148.4414 L207,138.4414 " fill="#FEFFDD" style="stroke:#181818;stroke-width:0.5;"/><text fill="#000000" font-family="sans-serif" font-size="13" lengthAdjust="spacing" textLength="64" x="11" y="156.0098">Nonce: 60</text><text fill="#000000" font-family="sans-serif" font-size="13" lengthAdjust="spacing" textLength="191" x="11" y="171.3203">Gas Price: 40.605968464 Gwei</text><text fill="#000000" font-family="sans-serif" font-size="13" lengthAdjust="spacing" textLength="185" x="11" y="186.6309">Max Fee: 57.568723318 Gwei</text><text fill="#000000" font-family="sans-serif" font-size="13" lengthAdjust="spacing" textLength="137" x="11" y="201.9414">Max Priority: 0.1 Gwei</text><text fill="#000000" font-family="sans-serif" font-size="13" lengthAdjust="spacing" textLength="111" x="11" y="217.252">Gas Limit: 69,551</text><text fill="#000000" font-family="sans-serif" font-size="13" lengthAdjust="spacing" textLength="110" x="11" y="232.5625">Gas Used: 62,651</text><text fill="#000000" font-family="sans-serif" font-size="13" lengthAdjust="spacing" textLength="114" x="11" y="247.873">Tx Fee: 0.003 ETH</text><polygon fill="#181818" points="282,354.4785,292,358.4785,282,362.4785,286,358.4785" style="stroke:#181818;stroke-width:1.0;"/><line style="stroke:#181818;stroke-width:1.0;" x1="111" x2="288" y1="358.4785" y2="358.4785"/><text fill="#000000" font-family="sans-serif" font-size="13" lengthAdjust="spacing" textLength="164" x="118" y="277.1836">ethToTokenTransferInput(</text><text fill="#000000" font-family="sans-serif" font-size="13" lengthAdjust="spacing" textLength="158" x="118" y="292.4941">min_tokens: 17,882,455,</text><text fill="#000000" font-family="sans-serif" font-size="13" lengthAdjust="spacing" textLength="157" x="118" y="307.8047">deadline: 1,680,112,778,</text><text fill="#000000" font-family="sans-serif" font-size="13" lengthAdjust="spacing" textLength="156" x="118" y="323.1152">recipient: 0xD31b..57c9)</text><text fill="#000000" font-family="sans-serif" font-size="13" lengthAdjust="spacing" textLength="70" x="118" y="338.4258">62,651 gas</text><text fill="#000000" font-family="sans-serif" font-size="13" lengthAdjust="spacing" textLength="57" x="118" y="353.7363">0.01 ETH</text><polygon fill="#181818" points="496.5,414.4102,506.5,418.4102,496.5,422.4102,500.5,418.4102" style="stroke:#181818;stroke-width:1.0;"/><line style="stroke:#181818;stroke-width:1.0;" x1="304" x2="502.5" y1="418.4102" y2="418.4102"/><text fill="#000000" font-family="sans-serif" font-size="13" lengthAdjust="spacing" textLength="67" x="311" y="383.0469">balanceOf(</text><text fill="#000000" font-family="sans-serif" font-size="13" lengthAdjust="spacing" textLength="144" x="311" y="398.3574">_owner: 0x97de..8126)</text><text fill="#000000" font-family="sans-serif" font-size="13" lengthAdjust="spacing" textLength="62" x="311" y="413.668">9,815 gas</text><polygon fill="#181818" points="315,459.0313,305,463.0313,315,467.0313,311,463.0313" style="stroke:#181818;stroke-width:1.0;"/><line style="stroke:#181818;stroke-width:1.0;stroke-dasharray:2.0,2.0;" x1="309" x2="512.5" y1="463.0313" y2="463.0313"/><text fill="#000000" font-family="sans-serif" font-size="13" lengthAdjust="spacing" textLength="4" x="321" y="442.9785"> </text><text fill="#000000" font-family="sans-serif" font-size="13" lengthAdjust="spacing" textLength="137" x="321" y="458.2891">out: 313,801,019,578</text><polygon fill="#181818" points="496.5,534.2734,506.5,538.2734,496.5,542.2734,500.5,538.2734" style="stroke:#181818;stroke-width:1.0;"/><line style="stroke:#181818;stroke-width:1.0;" x1="304" x2="502.5" y1="538.2734" y2="538.2734"/><text fill="#000000" font-family="sans-serif" font-size="13" lengthAdjust="spacing" textLength="53" x="311" y="487.5996">transfer(</text><text fill="#000000" font-family="sans-serif" font-size="13" lengthAdjust="spacing" textLength="121" x="311" y="502.9102">_to: 0xD31b..57c9,</text><text fill="#000000" font-family="sans-serif" font-size="13" lengthAdjust="spacing" textLength="124" x="311" y="518.2207">_value: 17,971,868)</text><text fill="#000000" font-family="sans-serif" font-size="13" lengthAdjust="spacing" textLength="70" x="311" y="533.5313">18,417 gas</text><polygon fill="#181818" points="315,578.8945,305,582.8945,315,586.8945,311,582.8945" style="stroke:#181818;stroke-width:1.0;"/><line style="stroke:#181818;stroke-width:1.0;stroke-dasharray:2.0,2.0;" x1="309" x2="512.5" y1="582.8945" y2="582.8945"/><text fill="#000000" font-family="sans-serif" font-size="13" lengthAdjust="spacing" textLength="4" x="321" y="562.8418"> </text><text fill="#000000" font-family="sans-serif" font-size="13" lengthAdjust="spacing" textLength="54" x="321" y="578.1523">out: true</text><polygon fill="#181818" points="122,623.5156,112,627.5156,122,631.5156,118,627.5156" style="stroke:#181818;stroke-width:1.0;"/><line style="stroke:#181818;stroke-width:1.0;stroke-dasharray:2.0,2.0;" x1="116" x2="298" y1="627.5156" y2="627.5156"/><text fill="#000000" font-family="sans-serif" font-size="13" lengthAdjust="spacing" textLength="4" x="128" y="607.4629"> </text><text fill="#000000" font-family="sans-serif" font-size="13" lengthAdjust="spacing" textLength="101" x="128" y="622.7734">out: 17,971,868</text><path d="M304,640.5156 L304,680.5156 L395,680.5156 L395,650.5156 L385,640.5156 L304,640.5156 " fill="#FEFFDD" style="stroke:#181818;stroke-width:0.5;"/><path d="M385,640.5156 L385,650.5156 L395,650.5156 L385,640.5156 " fill="#FEFFDD" style="stroke:#181818;stroke-width:0.5;"/><text fill="#000000" font-family="sans-serif" font-size="13" lengthAdjust="spacing" textLength="4" x="310" y="658.084"> </text><text fill="#000000" font-family="sans-serif" font-size="13" lengthAdjust="spacing" textLength="70" x="310" y="673.3945">34,419 gas</text><path d="M173,691.1367 L173,823.1367 L424,823.1367 L424,701.1367 L414,691.1367 L173,691.1367 " fill="#00FFFF" style="stroke:#181818;stroke-width:0.5;"/><path d="M414,691.1367 L414,701.1367 L424,701.1367 L414,691.1367 " fill="#00FFFF" style="stroke:#181818;stroke-width:0.5;"/><text fill="#000000" font-family="sans-serif" font-size="13" lengthAdjust="spacing" textLength="99" x="179" y="708.7051">TokenPurchase:</text><text fill="#000000" font-family="sans-serif" font-size="13" lengthAdjust="spacing" textLength="136" x="187" y="724.0156">buyer: 0xD31b..57c9,</text><text fill="#000000" font-family="sans-serif" font-size="13" lengthAdjust="spacing" textLength="222" x="187" y="739.3262">eth_sold: 10,000,000,000,000,000,</text><text fill="#000000" font-family="sans-serif" font-size="13" lengthAdjust="spacing" textLength="175" x="187" y="754.6367">tokens_bought: 17,971,868</text><text fill="#000000" font-family="sans-serif" font-size="13" lengthAdjust="spacing" textLength="99" x="179" y="769.9473">TokenPurchase:</text><text fill="#000000" font-family="sans-serif" font-size="13" lengthAdjust="spacing" textLength="136" x="187" y="785.2578">buyer: 0xD31b..57c9,</text><text fill="#000000" font-family="sans-serif" font-size="13" lengthAdjust="spacing" textLength="222" x="187" y="800.5684">eth_sold: 10,000,000,000,000,000,</text><text fill="#000000" font-family="sans-serif" font-size="13" lengthAdjust="spacing" textLength="175" x="187" y="815.8789">tokens_bought: 17,971,868</text><path d="M434,691.1367 L434,762.1367 L592,762.1367 L592,701.1367 L582,691.1367 L434,691.1367 " fill="#00FFFF" style="stroke:#181818;stroke-width:0.5;"/><path d="M582,691.1367 L582,701.1367 L592,701.1367 L582,691.1367 " fill="#00FFFF" style="stroke:#181818;stroke-width:0.5;"/><text fill="#000000" font-family="sans-serif" font-size="13" lengthAdjust="spacing" textLength="56" x="440" y="708.7051">Transfer:</text><text fill="#000000" font-family="sans-serif" font-size="13" lengthAdjust="spacing" textLength="129" x="448" y="724.0156">from: 0x97de..8126,</text><text fill="#000000" font-family="sans-serif" font-size="13" lengthAdjust="spacing" textLength="114" x="448" y="739.3262">to: 0xD31b..57c9,</text><text fill="#000000" font-family="sans-serif" font-size="13" lengthAdjust="spacing" textLength="113" x="448" y="754.6367">value: 17,971,868</text><!--SRC=[lLFBJjmm5DtdAwxe1YIJsd6SED683QyY5Oh4G3SZZPp40Ol1dZeE37zVEva7KrIfgouYvJvophddtZZb5XBmYXLLGoYbLPhIHkAQjeJobc56YeoAWbDIIvfXnjAqIdB9UPLK3Kr9arLjNZ4PHRLOEcKql0YbjNG8geMfdu5a1KrJpX3yb0s2f81hOI712GMIbxGeMG6NrzD8rCvOEC2hXf8gZbbU5mSWEWXX221Q2kjKhPP2kz1Nv8sCOqwIREWBOGXWChdNgdiJItWW9oUJoU7zpTNn0paAxvlA-Qf-4lfHmfLsqhQYbaFpdnG2LpoEPPNoWIA48GWKTsTmQfGU2UxEJWVu2oNSr3nBVMlDwjtZHTeu2UPLskqSqOtHjImXmz6bnxorAaGfZhsvHSRJB8NBDwcYQx622-bBB8zPnlE4Ki9t9V-TiSgzbu1ZCgO3t7Vrefm7Bn1ZPCZSTxBnYGHbFZ5TO-8OOmhdqs-Hr0q4aL6qDVhuP6jc2T8zJSqmqzGAtRNINkbbxmvd-aNfkGk5hlIRH9mdA6KCpNGZHRDGsjCGb76C24bGddDViT9xgwJs2l7gRBldevaUzS6Zw6RQYoE3DdyIwbLu0pToeksIlSRDDagen49uJt-qNjNSl6bf0_xkFZn-WJXX0Nu7kla-ijBrLi-qwRqkIYZYc21Cl8Kv_mkZMtiH29tPdyRFENyLYruEjXGvGJpZNWBXA2NvlsXmjfVxcHtGU55MFJuvCEs7HSqqJJr1CH1ykBlj05_4hrv4utdsrjz_9yi8eEhVHxy-JE3JVk_ppYpywH2CCFxy-9vn-_FAz5xDdiZ_mxAxtQ-m6tZxbwu7Ngygg6YjUTa_ZP7Wix1F2zoH_GO0]--></g></svg>
