<?xml version="1.0" encoding="us-ascii" standalone="no"?><svg xmlns:xlink="http://www.w3.org/1999/xlink" xmlns="http://www.w3.org/2000/svg" contentStyleType="text/css" height="2050px" preserveAspectRatio="none" style="width:1924px;height:2050px;background:#FFFFFF;" version="1.1" viewBox="0 0 1924 2050" width="1924px" zoomAndPan="magnify"><defs/><g><text fill="#000000" font-family="sans-serif" font-size="14" font-weight="bold" lengthAdjust="spacing" textLength="574" x="673.5" y="28.5352">0x5f99937fc8bcb99c1362d01006e6c48402c885b2e23830a8bb53242d394b2290</text><text fill="#000000" font-family="sans-serif" font-size="14" lengthAdjust="spacing" textLength="408" x="756.5" y="2038.9473">mainnet, block 11925431, Thu, 25 Feb 2021 09:08:12 GMT</text><rect fill="#FFFFFF" height="1389.1855" style="stroke:#181818;stroke-width:1.0;" width="10" x="427.5" y="343.168"/><rect fill="#809ECB" height="1188.0801" style="stroke:#181818;stroke-width:1.0;" width="10" x="782.5" y="464.3418"/><rect fill="#809ECB" height="223.1055" style="stroke:#181818;stroke-width:1.0;" width="10" x="787.5" y="1269.4531"/><rect fill="#FFFFFF" height="29.3105" style="stroke:#181818;stroke-width:1.0;" width="10" x="979" y="524.2734"/><rect fill="#FFFFFF" height="118.5527" style="stroke:#181818;stroke-width:1.0;" width="10" x="1121.5" y="613.5156"/><rect fill="#FFFFFF" height="149.1738" style="stroke:#181818;stroke-width:1.0;" width="10" x="1121.5" y="873.2422"/><rect fill="#809ECB" height="29.3105" style="stroke:#181818;stroke-width:1.0;" width="10" x="1307.5" y="673.4473"/><rect fill="#809ECB" height="29.3105" style="stroke:#181818;stroke-width:1.0;" width="10" x="1307.5" y="963.7949"/><rect fill="#FFFFFF" height="393.5898" style="stroke:#181818;stroke-width:1.0;" width="10" x="1496" y="1178.9004"/><rect fill="#FFFFFF" height="29.3105" style="stroke:#181818;stroke-width:1.0;" width="10" x="1787" y="1329.3848"/><rect fill="#FFFFFF" height="29.3105" style="stroke:#181818;stroke-width:1.0;" width="10" x="1787" y="1433.9375"/><line style="stroke:#181818;stroke-width:0.5;stroke-dasharray:5.0,5.0;" x1="82" x2="82" y1="123.4414" y2="1943.459"/><line style="stroke:#181818;stroke-width:0.5;stroke-dasharray:5.0,5.0;" x1="432" x2="432" y1="123.4414" y2="1943.459"/><line style="stroke:#181818;stroke-width:0.5;stroke-dasharray:5.0,5.0;" x1="787" x2="787" y1="123.4414" y2="1943.459"/><line style="stroke:#181818;stroke-width:0.5;stroke-dasharray:5.0,5.0;" x1="984" x2="984" y1="123.4414" y2="1943.459"/><line style="stroke:#181818;stroke-width:0.5;stroke-dasharray:5.0,5.0;" x1="1126" x2="1126" y1="123.4414" y2="1943.459"/><line style="stroke:#181818;stroke-width:0.5;stroke-dasharray:5.0,5.0;" x1="1312.5" x2="1312.5" y1="123.4414" y2="1943.459"/><line style="stroke:#181818;stroke-width:0.5;stroke-dasharray:5.0,5.0;" x1="1500.5" x2="1500.5" y1="123.4414" y2="1943.459"/><line style="stroke:#181818;stroke-width:0.5;stroke-dasharray:5.0,5.0;" x1="1791.5" x2="1791.5" y1="123.4414" y2="1943.459"/><text fill="#000000" font-family="sans-serif" font-size="14" lengthAdjust="spacing" textLength="93" x="33" y="120.4883">0x1f0a..8202</text><ellipse cx="82.5" cy="55.4531" fill="#E2E2F0" rx="8" ry="8" style="stroke:#181818;stroke-width:0.5;"/><path d="M82.5,63.4531 L82.5,90.4531 M69.5,71.4531 L95.5,71.4531 M82.5,90.4531 L69.5,105.4531 M82.5,90.4531 L95.5,105.4531 " fill="none" style="stroke:#181818;stroke-width:0.5;"/><text fill="#000000" font-family="sans-serif" font-size="14" lengthAdjust="spacing" textLength="93" x="33" y="1955.9941">0x1f0a..8202</text><ellipse cx="82.5" cy="1967.4473" fill="#E2E2F0" rx="8" ry="8" style="stroke:#181818;stroke-width:0.5;"/><path d="M82.5,1975.4473 L82.5,2002.4473 M69.5,1983.4473 L95.5,1983.4473 M82.5,2002.4473 L69.5,2017.4473 M82.5,2002.4473 L95.5,2017.4473 " fill="none" style="stroke:#181818;stroke-width:0.5;"/><rect fill="#E2E2F0" height="79.9531" rx="2.5" ry="2.5" style="stroke:#181818;stroke-width:0.5;" width="243" x="311" y="42.4883"/><text fill="#000000" font-family="sans-serif" font-size="14" font-style="italic" lengthAdjust="spacing" textLength="94" x="385.5" y="63.0234">&#171;Uniswap V1&#187;</text><text fill="#000000" font-family="sans-serif" font-size="14" font-style="italic" lengthAdjust="spacing" textLength="74" x="395.5" y="79.5117">&#171;(UNI-V1)&#187;</text><text fill="#000000" font-family="sans-serif" font-size="14" font-style="italic" lengthAdjust="spacing" textLength="229" x="318" y="96">&#171;Uniswap Exchange Interface V1&#187;</text><text fill="#000000" font-family="sans-serif" font-size="14" lengthAdjust="spacing" textLength="97" x="384" y="112.4883">0x97de..8126</text><rect fill="#E2E2F0" height="79.9531" rx="2.5" ry="2.5" style="stroke:#181818;stroke-width:0.5;" width="243" x="311" y="1942.459"/><text fill="#000000" font-family="sans-serif" font-size="14" font-style="italic" lengthAdjust="spacing" textLength="94" x="385.5" y="1962.9941">&#171;Uniswap V1&#187;</text><text fill="#000000" font-family="sans-serif" font-size="14" font-style="italic" lengthAdjust="spacing" textLength="74" x="395.5" y="1979.4824">&#171;(UNI-V1)&#187;</text><text fill="#000000" font-family="sans-serif" font-size="14" font-style="italic" lengthAdjust="spacing" textLength="229" x="318" y="1995.9707">&#171;Uniswap Exchange Interface V1&#187;</text><text fill="#000000" font-family="sans-serif" font-size="14" lengthAdjust="spacing" textLength="97" x="384" y="2012.459">0x97de..8126</text><rect fill="#E2E2F0" height="79.9531" rx="2.5" ry="2.5" style="stroke:#181818;stroke-width:0.5;" width="243" x="666" y="42.4883"/><text fill="#000000" font-family="sans-serif" font-size="14" font-style="italic" lengthAdjust="spacing" textLength="94" x="740.5" y="63.0234">&#171;Uniswap V1&#187;</text><text fill="#000000" font-family="sans-serif" font-size="14" font-style="italic" lengthAdjust="spacing" textLength="74" x="750.5" y="79.5117">&#171;(UNI-V1)&#187;</text><text fill="#000000" font-family="sans-serif" font-size="14" font-style="italic" lengthAdjust="spacing" textLength="229" x="673" y="96">&#171;Uniswap Exchange Interface V1&#187;</text><text fill="#000000" font-family="sans-serif" font-size="14" lengthAdjust="spacing" textLength="94" x="740.5" y="112.4883">0x2157..f708</text><rect fill="#E2E2F0" height="79.9531" rx="2.5" ry="2.5" style="stroke:#181818;stroke-width:0.5;" width="243" x="666" y="1942.459"/><text fill="#000000" font-family="sans-serif" font-size="14" font-style="italic" lengthAdjust="spacing" textLength="94" x="740.5" y="1962.9941">&#171;Uniswap V1&#187;</text><text fill="#000000" font-family="sans-serif" font-size="14" font-style="italic" lengthAdjust="spacing" textLength="74" x="750.5" y="1979.4824">&#171;(UNI-V1)&#187;</text><text fill="#000000" font-family="sans-serif" font-size="14" font-style="italic" lengthAdjust="spacing" textLength="229" x="673" y="1995.9707">&#171;Uniswap Exchange Interface V1&#187;</text><text fill="#000000" font-family="sans-serif" font-size="14" lengthAdjust="spacing" textLength="94" x="740.5" y="2012.459">0x2157..f708</text><rect fill="#E2E2F0" height="46.9766" rx="2.5" ry="2.5" style="stroke:#181818;stroke-width:0.5;" width="130" x="919" y="75.4648"/><text fill="#000000" font-family="sans-serif" font-size="14" font-style="italic" lengthAdjust="spacing" textLength="116" x="926" y="96">&#171;Vyper_contract&#187;</text><text fill="#000000" font-family="sans-serif" font-size="14" lengthAdjust="spacing" textLength="95" x="936.5" y="112.4883">0xc0a4..4d95</text><rect fill="#E2E2F0" height="46.9766" rx="2.5" ry="2.5" style="stroke:#181818;stroke-width:0.5;" width="130" x="919" y="1942.459"/><text fill="#000000" font-family="sans-serif" font-size="14" font-style="italic" lengthAdjust="spacing" textLength="116" x="926" y="1962.9941">&#171;Vyper_contract&#187;</text><text fill="#000000" font-family="sans-serif" font-size="14" lengthAdjust="spacing" textLength="95" x="936.5" y="1979.4824">0xc0a4..4d95</text><rect fill="#E2E2F0" height="79.9531" rx="2.5" ry="2.5" style="stroke:#181818;stroke-width:0.5;" width="135" x="1059" y="42.4883"/><text fill="#000000" font-family="sans-serif" font-size="14" font-style="italic" lengthAdjust="spacing" textLength="78" x="1087.5" y="63.0234">&#171;USD Coin&#187;</text><text fill="#000000" font-family="sans-serif" font-size="14" font-style="italic" lengthAdjust="spacing" textLength="62" x="1095.5" y="79.5117">&#171;(USDC)&#187;</text><text fill="#000000" font-family="sans-serif" font-size="14" font-style="italic" lengthAdjust="spacing" textLength="121" x="1066" y="96">&#171;FiatTokenProxy&#187;</text><text fill="#000000" font-family="sans-serif" font-size="14" lengthAdjust="spacing" textLength="96" x="1078.5" y="112.4883">0xa0b8..eb48</text><rect fill="#E2E2F0" height="79.9531" rx="2.5" ry="2.5" style="stroke:#181818;stroke-width:0.5;" width="135" x="1059" y="1942.459"/><text fill="#000000" font-family="sans-serif" font-size="14" font-style="italic" lengthAdjust="spacing" textLength="78" x="1087.5" y="1962.9941">&#171;USD Coin&#187;</text><text fill="#000000" font-family="sans-serif" font-size="14" font-style="italic" lengthAdjust="spacing" textLength="62" x="1095.5" y="1979.4824">&#171;(USDC)&#187;</text><text fill="#000000" font-family="sans-serif" font-size="14" font-style="italic" lengthAdjust="spacing" textLength="121" x="1066" y="1995.9707">&#171;FiatTokenProxy&#187;</text><text fill="#000000" font-family="sans-serif" font-size="14" lengthAdjust="spacing" textLength="96" x="1078.5" y="2012.459">0xa0b8..eb48</text><rect fill="#E2E2F0" height="46.9766" rx="2.5" ry="2.5" style="stroke:#181818;stroke-width:0.5;" width="114" x="1255.5" y="75.4648"/><text fill="#000000" font-family="sans-serif" font-size="14" font-style="italic" lengthAdjust="spacing" textLength="100" x="1262.5" y="96">&#171;FiatTokenV2&#187;</text><text fill="#000000" font-family="sans-serif" font-size="14" lengthAdjust="spacing" textLength="97" x="1264" y="112.4883">0xb727..78a2</text><rect fill="#E2E2F0" height="46.9766" rx="2.5" ry="2.5" style="stroke:#181818;stroke-width:0.5;" width="114" x="1255.5" y="1942.459"/><text fill="#000000" font-family="sans-serif" font-size="14" font-style="italic" lengthAdjust="spacing" textLength="100" x="1262.5" y="1962.9941">&#171;FiatTokenV2&#187;</text><text fill="#000000" font-family="sans-serif" font-size="14" lengthAdjust="spacing" textLength="97" x="1264" y="1979.4824">0xb727..78a2</text><rect fill="#E2E2F0" height="79.9531" rx="2.5" ry="2.5" style="stroke:#181818;stroke-width:0.5;" width="243" x="1379.5" y="42.4883"/><text fill="#000000" font-family="sans-serif" font-size="14" font-style="italic" lengthAdjust="spacing" textLength="94" x="1454" y="63.0234">&#171;Uniswap V1&#187;</text><text fill="#000000" font-family="sans-serif" font-size="14" font-style="italic" lengthAdjust="spacing" textLength="74" x="1464" y="79.5117">&#171;(UNI-V1)&#187;</text><text fill="#000000" font-family="sans-serif" font-size="14" font-style="italic" lengthAdjust="spacing" textLength="229" x="1386.5" y="96">&#171;Uniswap Exchange Interface V1&#187;</text><text fill="#000000" font-family="sans-serif" font-size="14" lengthAdjust="spacing" textLength="95" x="1453.5" y="112.4883">0x9a7a..a621</text><rect fill="#E2E2F0" height="79.9531" rx="2.5" ry="2.5" style="stroke:#181818;stroke-width:0.5;" width="243" x="1379.5" y="1942.459"/><text fill="#000000" font-family="sans-serif" font-size="14" font-style="italic" lengthAdjust="spacing" textLength="94" x="1454" y="1962.9941">&#171;Uniswap V1&#187;</text><text fill="#000000" font-family="sans-serif" font-size="14" font-style="italic" lengthAdjust="spacing" textLength="74" x="1464" y="1979.4824">&#171;(UNI-V1)&#187;</text><text fill="#000000" font-family="sans-serif" font-size="14" font-style="italic" lengthAdjust="spacing" textLength="229" x="1386.5" y="1995.9707">&#171;Uniswap Exchange Interface V1&#187;</text><text fill="#000000" font-family="sans-serif" font-size="14" lengthAdjust="spacing" textLength="95" x="1453.5" y="2012.459">0x9a7a..a621</text><rect fill="#E2E2F0" height="79.9531" rx="2.5" ry="2.5" style="stroke:#181818;stroke-width:0.5;" width="111" x="1736.5" y="42.4883"/><text fill="#000000" font-family="sans-serif" font-size="14" font-style="italic" lengthAdjust="spacing" textLength="97" x="1743.5" y="63.0234">&#171;Matic Token&#187;</text><text fill="#000000" font-family="sans-serif" font-size="14" font-style="italic" lengthAdjust="spacing" textLength="69" x="1757.5" y="79.5117">&#171;(MATIC)&#187;</text><text fill="#000000" font-family="sans-serif" font-size="14" font-style="italic" lengthAdjust="spacing" textLength="93" x="1745.5" y="96">&#171;MaticToken&#187;</text><text fill="#000000" font-family="sans-serif" font-size="14" lengthAdjust="spacing" textLength="96" x="1744" y="112.4883">0x7d1a..ebb0</text><rect fill="#E2E2F0" height="79.9531" rx="2.5" ry="2.5" style="stroke:#181818;stroke-width:0.5;" width="111" x="1736.5" y="1942.459"/><text fill="#000000" font-family="sans-serif" font-size="14" font-style="italic" lengthAdjust="spacing" textLength="97" x="1743.5" y="1962.9941">&#171;Matic Token&#187;</text><text fill="#000000" font-family="sans-serif" font-size="14" font-style="italic" lengthAdjust="spacing" textLength="69" x="1757.5" y="1979.4824">&#171;(MATIC)&#187;</text><text fill="#000000" font-family="sans-serif" font-size="14" font-style="italic" lengthAdjust="spacing" textLength="93" x="1745.5" y="1995.9707">&#171;MaticToken&#187;</text><text fill="#000000" font-family="sans-serif" font-size="14" lengthAdjust="spacing" textLength="96" x="1744" y="2012.459">0x7d1a..ebb0</text><rect fill="#FFFFFF" height="1389.1855" style="stroke:#181818;stroke-width:1.0;" width="10" x="427.5" y="343.168"/><rect fill="#809ECB" height="1188.0801" style="stroke:#181818;stroke-width:1.0;" width="10" x="782.5" y="464.3418"/><rect fill="#809ECB" height="223.1055" style="stroke:#181818;stroke-width:1.0;" width="10" x="787.5" y="1269.4531"/><rect fill="#FFFFFF" height="29.3105" style="stroke:#181818;stroke-width:1.0;" width="10" x="979" y="524.2734"/><rect fill="#FFFFFF" height="118.5527" style="stroke:#181818;stroke-width:1.0;" width="10" x="1121.5" y="613.5156"/><rect fill="#FFFFFF" height="149.1738" style="stroke:#181818;stroke-width:1.0;" width="10" x="1121.5" y="873.2422"/><rect fill="#809ECB" height="29.3105" style="stroke:#181818;stroke-width:1.0;" width="10" x="1307.5" y="673.4473"/><rect fill="#809ECB" height="29.3105" style="stroke:#181818;stroke-width:1.0;" width="10" x="1307.5" y="963.7949"/><rect fill="#FFFFFF" height="393.5898" style="stroke:#181818;stroke-width:1.0;" width="10" x="1496" y="1178.9004"/><rect fill="#FFFFFF" height="29.3105" style="stroke:#181818;stroke-width:1.0;" width="10" x="1787" y="1329.3848"/><rect fill="#FFFFFF" height="29.3105" style="stroke:#181818;stroke-width:1.0;" width="10" x="1787" y="1433.9375"/><path d="M5,138.4414 L5,224.4414 L161,224.4414 L161,148.4414 L151,138.4414 L5,138.4414 " fill="#FEFFDD" style="stroke:#181818;stroke-width:0.5;"/><path d="M151,138.4414 L151,148.4414 L161,148.4414 L151,138.4414 " fill="#FEFFDD" style="stroke:#181818;stroke-width:0.5;"/><text fill="#000000" font-family="sans-serif" font-size="13" lengthAdjust="spacing" textLength="84" x="11" y="156.0098">Nonce: 1,588</text><text fill="#000000" font-family="sans-serif" font-size="13" lengthAdjust="spacing" textLength="135" x="11" y="171.3203">Gas Price: 124.0 Gwei</text><text fill="#000000" font-family="sans-serif" font-size="13" lengthAdjust="spacing" textLength="119" x="11" y="186.6309">Gas Limit: 168,833</text><text fill="#000000" font-family="sans-serif" font-size="13" lengthAdjust="spacing" textLength="118" x="11" y="201.9414">Gas Used: 128,228</text><text fill="#000000" font-family="sans-serif" font-size="13" lengthAdjust="spacing" textLength="114" x="11" y="217.252">Tx Fee: 0.016 ETH</text><polygon fill="#181818" points="415.5,339.168,425.5,343.168,415.5,347.168,419.5,343.168" style="stroke:#181818;stroke-width:1.0;"/><line style="stroke:#181818;stroke-width:1.0;" x1="82.5" x2="421.5" y1="343.168" y2="343.168"/><text fill="#000000" font-family="sans-serif" font-size="13" lengthAdjust="spacing" textLength="160" x="89.5" y="246.5625">tokenToTokenSwapInput(</text><text fill="#000000" font-family="sans-serif" font-size="13" lengthAdjust="spacing" textLength="153" x="97.5" y="261.873">tokens_sold: 1,000,000,</text><text fill="#000000" font-family="sans-serif" font-size="13" lengthAdjust="spacing" textLength="318" x="97.5" y="277.1836">min_tokens_bought: 1,,141,743,764,729,465,728,</text><text fill="#000000" font-family="sans-serif" font-size="13" lengthAdjust="spacing" textLength="123" x="97.5" y="292.4941">min_eth_bought: 1,</text><text fill="#000000" font-family="sans-serif" font-size="13" lengthAdjust="spacing" textLength="157" x="97.5" y="307.8047">deadline: 1,614,330,479,</text><text fill="#000000" font-family="sans-serif" font-size="13" lengthAdjust="spacing" textLength="171" x="97.5" y="323.1152">token_addr: 0x7D1A..eBB0)</text><text fill="#000000" font-family="sans-serif" font-size="13" lengthAdjust="spacing" textLength="78" x="89.5" y="338.4258">128,228 gas</text><line style="stroke:#181818;stroke-width:1.0;" x1="780.5" x2="770.5" y1="464.3418" y2="460.3418"/><line style="stroke:#181818;stroke-width:1.0;" x1="780.5" x2="770.5" y1="464.3418" y2="468.3418"/><line style="stroke:#181818;stroke-width:1.0;" x1="437.5" x2="781.5" y1="464.3418" y2="464.3418"/><text fill="#000000" font-family="sans-serif" font-size="13" lengthAdjust="spacing" textLength="160" x="444.5" y="367.7363">tokenToTokenSwapInput(</text><text fill="#000000" font-family="sans-serif" font-size="13" lengthAdjust="spacing" textLength="153" x="452.5" y="383.0469">tokens_sold: 1,000,000,</text><text fill="#000000" font-family="sans-serif" font-size="13" lengthAdjust="spacing" textLength="318" x="452.5" y="398.3574">min_tokens_bought: 1,,141,743,764,729,465,728,</text><text fill="#000000" font-family="sans-serif" font-size="13" lengthAdjust="spacing" textLength="123" x="452.5" y="413.668">min_eth_bought: 1,</text><text fill="#000000" font-family="sans-serif" font-size="13" lengthAdjust="spacing" textLength="157" x="452.5" y="428.9785">deadline: 1,614,330,479,</text><text fill="#000000" font-family="sans-serif" font-size="13" lengthAdjust="spacing" textLength="171" x="452.5" y="444.2891">token_addr: 0x7D1A..eBB0)</text><text fill="#000000" font-family="sans-serif" font-size="13" lengthAdjust="spacing" textLength="78" x="444.5" y="459.5996">104,910 gas</text><polygon fill="#3471CD" points="967,520.2734,977,524.2734,967,528.2734,971,524.2734" style="stroke:#3471CD;stroke-width:1.0;"/><line style="stroke:#3471CD;stroke-width:1.0;" x1="437.5" x2="973" y1="524.2734" y2="524.2734"/><text fill="#000000" font-family="sans-serif" font-size="13" lengthAdjust="spacing" textLength="84" x="444.5" y="488.9102">getExchange(</text><text fill="#000000" font-family="sans-serif" font-size="13" lengthAdjust="spacing" textLength="136" x="452.5" y="504.2207">token: 0x7D1A..eBB0)</text><text fill="#000000" font-family="sans-serif" font-size="13" lengthAdjust="spacing" textLength="62" x="444.5" y="519.5313">1,125 gas</text><polygon fill="#3471CD" points="448.5,549.584,438.5,553.584,448.5,557.584,444.5,553.584" style="stroke:#3471CD;stroke-width:1.0;"/><line style="stroke:#3471CD;stroke-width:1.0;stroke-dasharray:2.0,2.0;" x1="442.5" x2="983" y1="553.584" y2="553.584"/><text fill="#000000" font-family="sans-serif" font-size="13" lengthAdjust="spacing" textLength="116" x="454.5" y="548.8418">out: 0x9a7A..a621</text><polygon fill="#3471CD" points="1109.5,609.5156,1119.5,613.5156,1109.5,617.5156,1113.5,613.5156" style="stroke:#3471CD;stroke-width:1.0;"/><line style="stroke:#3471CD;stroke-width:1.0;stroke-dasharray:2.0,2.0;" x1="437.5" x2="1115.5" y1="613.5156" y2="613.5156"/><text fill="#000000" font-family="sans-serif" font-size="13" lengthAdjust="spacing" textLength="67" x="444.5" y="578.1523">balanceOf(</text><text fill="#000000" font-family="sans-serif" font-size="13" lengthAdjust="spacing" textLength="144" x="452.5" y="593.4629">_owner: 0x97de..8126)</text><text fill="#000000" font-family="sans-serif" font-size="13" lengthAdjust="spacing" textLength="62" x="444.5" y="608.7734">3,993 gas</text><line style="stroke:#181818;stroke-width:1.0;" x1="1305.5" x2="1295.5" y1="673.4473" y2="669.4473"/><line style="stroke:#181818;stroke-width:1.0;" x1="1305.5" x2="1295.5" y1="673.4473" y2="677.4473"/><line style="stroke:#181818;stroke-width:1.0;" x1="1131.5" x2="1306.5" y1="673.4473" y2="673.4473"/><text fill="#000000" font-family="sans-serif" font-size="13" lengthAdjust="spacing" textLength="67" x="1138.5" y="638.084">balanceOf(</text><text fill="#000000" font-family="sans-serif" font-size="13" lengthAdjust="spacing" textLength="149" x="1146.5" y="653.3945">account: 0x97de..8126)</text><text fill="#000000" font-family="sans-serif" font-size="13" lengthAdjust="spacing" textLength="62" x="1138.5" y="668.7051">1,207 gas</text><line style="stroke:#181818;stroke-width:1.0;" x1="1132.5" x2="1142.5" y1="702.7578" y2="698.7578"/><line style="stroke:#181818;stroke-width:1.0;" x1="1132.5" x2="1142.5" y1="702.7578" y2="706.7578"/><line style="stroke:#181818;stroke-width:1.0;stroke-dasharray:2.0,2.0;" x1="1131.5" x2="1311.5" y1="702.7578" y2="702.7578"/><text fill="#000000" font-family="sans-serif" font-size="13" lengthAdjust="spacing" textLength="108" x="1148.5" y="698.0156">417,478,697,430</text><polygon fill="#3471CD" points="448.5,728.0684,438.5,732.0684,448.5,736.0684,444.5,732.0684" style="stroke:#3471CD;stroke-width:1.0;"/><line style="stroke:#3471CD;stroke-width:1.0;stroke-dasharray:2.0,2.0;" x1="442.5" x2="1125.5" y1="732.0684" y2="732.0684"/><text fill="#000000" font-family="sans-serif" font-size="13" lengthAdjust="spacing" textLength="137" x="454.5" y="727.3262">out: 417,478,697,430</text><path d="M1131,745.0684 L1131,785.0684 L1214,785.0684 L1214,755.0684 L1204,745.0684 L1131,745.0684 " fill="#FEFFDD" style="stroke:#181818;stroke-width:0.5;"/><path d="M1204,745.0684 L1204,755.0684 L1214,755.0684 L1204,745.0684 " fill="#FEFFDD" style="stroke:#181818;stroke-width:0.5;"/><text fill="#000000" font-family="sans-serif" font-size="13" lengthAdjust="spacing" textLength="4" x="1137" y="762.6367">&#160;</text><text fill="#000000" font-family="sans-serif" font-size="13" lengthAdjust="spacing" textLength="62" x="1137" y="777.9473">2,786 gas</text><polygon fill="#3471CD" points="1109.5,869.2422,1119.5,873.2422,1109.5,877.2422,1113.5,873.2422" style="stroke:#3471CD;stroke-width:1.0;"/><line style="stroke:#3471CD;stroke-width:1.0;stroke-dasharray:2.0,2.0;" x1="437.5" x2="1115.5" y1="873.2422" y2="873.2422"/><text fill="#000000" font-family="sans-serif" font-size="13" lengthAdjust="spacing" textLength="85" x="444.5" y="807.2578">transferFrom(</text><text fill="#000000" font-family="sans-serif" font-size="13" lengthAdjust="spacing" textLength="133" x="452.5" y="822.5684">_from: 0x1f0a..8202,</text><text fill="#000000" font-family="sans-serif" font-size="13" lengthAdjust="spacing" textLength="119" x="452.5" y="837.8789">_to: 0x97de..8126,</text><text fill="#000000" font-family="sans-serif" font-size="13" lengthAdjust="spacing" textLength="116" x="452.5" y="853.1895">_value: 1,000,000)</text><text fill="#000000" font-family="sans-serif" font-size="13" lengthAdjust="spacing" textLength="70" x="444.5" y="868.5">29,014 gas</text><line style="stroke:#181818;stroke-width:1.0;" x1="1305.5" x2="1295.5" y1="963.7949" y2="959.7949"/><line style="stroke:#181818;stroke-width:1.0;" x1="1305.5" x2="1295.5" y1="963.7949" y2="967.7949"/><line style="stroke:#181818;stroke-width:1.0;" x1="1131.5" x2="1306.5" y1="963.7949" y2="963.7949"/><text fill="#000000" font-family="sans-serif" font-size="13" lengthAdjust="spacing" textLength="85" x="1138.5" y="897.8105">transferFrom(</text><text fill="#000000" font-family="sans-serif" font-size="13" lengthAdjust="spacing" textLength="126" x="1146.5" y="913.1211">from: 0x1f0a..8202,</text><text fill="#000000" font-family="sans-serif" font-size="13" lengthAdjust="spacing" textLength="112" x="1146.5" y="928.4316">to: 0x97de..8126,</text><text fill="#000000" font-family="sans-serif" font-size="13" lengthAdjust="spacing" textLength="109" x="1146.5" y="943.7422">value: 1,000,000)</text><text fill="#000000" font-family="sans-serif" font-size="13" lengthAdjust="spacing" textLength="70" x="1138.5" y="959.0527">26,219 gas</text><line style="stroke:#181818;stroke-width:1.0;" x1="1132.5" x2="1142.5" y1="993.1055" y2="989.1055"/><line style="stroke:#181818;stroke-width:1.0;" x1="1132.5" x2="1142.5" y1="993.1055" y2="997.1055"/><line style="stroke:#181818;stroke-width:1.0;stroke-dasharray:2.0,2.0;" x1="1131.5" x2="1311.5" y1="993.1055" y2="993.1055"/><text fill="#000000" font-family="sans-serif" font-size="13" lengthAdjust="spacing" textLength="25" x="1148.5" y="988.3633">true</text><polygon fill="#3471CD" points="448.5,1018.416,438.5,1022.416,448.5,1026.416,444.5,1022.416" style="stroke:#3471CD;stroke-width:1.0;"/><line style="stroke:#3471CD;stroke-width:1.0;stroke-dasharray:2.0,2.0;" x1="442.5" x2="1125.5" y1="1022.416" y2="1022.416"/><text fill="#000000" font-family="sans-serif" font-size="13" lengthAdjust="spacing" textLength="54" x="454.5" y="1017.6738">out: true</text><path d="M1131,1035.416 L1131,1075.416 L1214,1075.416 L1214,1045.416 L1204,1035.416 L1131,1035.416 " fill="#FEFFDD" style="stroke:#181818;stroke-width:0.5;"/><path d="M1204,1035.416 L1204,1045.416 L1214,1045.416 L1204,1035.416 " fill="#FEFFDD" style="stroke:#181818;stroke-width:0.5;"/><text fill="#000000" font-family="sans-serif" font-size="13" lengthAdjust="spacing" textLength="4" x="1137" y="1052.9844">&#160;</text><text fill="#000000" font-family="sans-serif" font-size="13" lengthAdjust="spacing" textLength="62" x="1137" y="1068.2949">2,795 gas</text><polygon fill="#3471CD" points="1484,1174.9004,1494,1178.9004,1484,1182.9004,1488,1178.9004" style="stroke:#3471CD;stroke-width:1.0;"/><line style="stroke:#3471CD;stroke-width:1.0;" x1="437.5" x2="1490" y1="1178.9004" y2="1178.9004"/><text fill="#000000" font-family="sans-serif" font-size="13" lengthAdjust="spacing" textLength="164" x="444.5" y="1097.6055">ethToTokenTransferInput(</text><text fill="#000000" font-family="sans-serif" font-size="13" lengthAdjust="spacing" textLength="266" x="452.5" y="1112.916">min_tokens: 1,,141,743,764,729,465,728,</text><text fill="#000000" font-family="sans-serif" font-size="13" lengthAdjust="spacing" textLength="157" x="452.5" y="1128.2266">deadline: 1,614,330,479,</text><text fill="#000000" font-family="sans-serif" font-size="13" lengthAdjust="spacing" textLength="151" x="452.5" y="1143.5371">recipient: 0x1f0a..8202)</text><text fill="#000000" font-family="sans-serif" font-size="13" lengthAdjust="spacing" textLength="70" x="444.5" y="1158.8477">45,938 gas</text><text fill="#000000" font-family="sans-serif" font-size="13" lengthAdjust="spacing" textLength="65" x="444.5" y="1174.1582">0.001 ETH</text><line style="stroke:#181818;stroke-width:1.0;" x1="798.5" x2="808.5" y1="1269.4531" y2="1265.4531"/><line style="stroke:#181818;stroke-width:1.0;" x1="798.5" x2="808.5" y1="1269.4531" y2="1273.4531"/><line style="stroke:#181818;stroke-width:1.0;" x1="797.5" x2="1495" y1="1269.4531" y2="1269.4531"/><text fill="#000000" font-family="sans-serif" font-size="13" lengthAdjust="spacing" textLength="164" x="814.5" y="1203.4688">ethToTokenTransferInput(</text><text fill="#000000" font-family="sans-serif" font-size="13" lengthAdjust="spacing" textLength="266" x="822.5" y="1218.7793">min_tokens: 1,,141,743,764,729,465,728,</text><text fill="#000000" font-family="sans-serif" font-size="13" lengthAdjust="spacing" textLength="157" x="822.5" y="1234.0898">deadline: 1,614,330,479,</text><text fill="#000000" font-family="sans-serif" font-size="13" lengthAdjust="spacing" textLength="151" x="822.5" y="1249.4004">recipient: 0x1f0a..8202)</text><text fill="#000000" font-family="sans-serif" font-size="13" lengthAdjust="spacing" textLength="70" x="814.5" y="1264.7109">44,762 gas</text><polygon fill="#3471CD" points="1775,1325.3848,1785,1329.3848,1775,1333.3848,1779,1329.3848" style="stroke:#3471CD;stroke-width:1.0;"/><line style="stroke:#3471CD;stroke-width:1.0;" x1="1506" x2="1781" y1="1329.3848" y2="1329.3848"/><text fill="#000000" font-family="sans-serif" font-size="13" lengthAdjust="spacing" textLength="67" x="1513" y="1294.0215">balanceOf(</text><text fill="#000000" font-family="sans-serif" font-size="13" lengthAdjust="spacing" textLength="137" x="1521" y="1309.332">owner: 0x9a7A..a621)</text><text fill="#000000" font-family="sans-serif" font-size="13" lengthAdjust="spacing" textLength="62" x="1513" y="1324.6426">1,331 gas</text><polygon fill="#3471CD" points="1517,1354.6953,1507,1358.6953,1517,1362.6953,1513,1358.6953" style="stroke:#3471CD;stroke-width:1.0;"/><line style="stroke:#3471CD;stroke-width:1.0;stroke-dasharray:2.0,2.0;" x1="1511" x2="1791" y1="1358.6953" y2="1358.6953"/><text fill="#000000" font-family="sans-serif" font-size="13" lengthAdjust="spacing" textLength="188" x="1523" y="1353.9531">24,,888,132,810,848,863,562</text><polygon fill="#3471CD" points="1775,1429.9375,1785,1433.9375,1775,1437.9375,1779,1433.9375" style="stroke:#3471CD;stroke-width:1.0;"/><line style="stroke:#3471CD;stroke-width:1.0;" x1="1506" x2="1781" y1="1433.9375" y2="1433.9375"/><text fill="#000000" font-family="sans-serif" font-size="13" lengthAdjust="spacing" textLength="53" x="1513" y="1383.2637">transfer(</text><text fill="#000000" font-family="sans-serif" font-size="13" lengthAdjust="spacing" textLength="109" x="1521" y="1398.5742">to: 0x1f0a..8202,</text><text fill="#000000" font-family="sans-serif" font-size="13" lengthAdjust="spacing" textLength="225" x="1521" y="1413.8848">value: 1,,153,276,530,029,763,101)</text><text fill="#000000" font-family="sans-serif" font-size="13" lengthAdjust="spacing" textLength="70" x="1513" y="1429.1953">30,572 gas</text><polygon fill="#3471CD" points="1517,1459.248,1507,1463.248,1517,1467.248,1513,1463.248" style="stroke:#3471CD;stroke-width:1.0;"/><line style="stroke:#3471CD;stroke-width:1.0;stroke-dasharray:2.0,2.0;" x1="1511" x2="1791" y1="1463.248" y2="1463.248"/><text fill="#000000" font-family="sans-serif" font-size="13" lengthAdjust="spacing" textLength="25" x="1523" y="1458.5059">true</text><line style="stroke:#181818;stroke-width:1.0;" x1="1494" x2="1484" y1="1492.5586" y2="1488.5586"/><line style="stroke:#181818;stroke-width:1.0;" x1="1494" x2="1484" y1="1492.5586" y2="1496.5586"/><line style="stroke:#181818;stroke-width:1.0;stroke-dasharray:2.0,2.0;" x1="792.5" x2="1495" y1="1492.5586" y2="1492.5586"/><text fill="#000000" font-family="sans-serif" font-size="13" lengthAdjust="spacing" textLength="209" x="799.5" y="1487.8164">out: 1,,153,276,530,029,763,101</text><path d="M797,1505.5586 L797,1545.5586 L888,1545.5586 L888,1515.5586 L878,1505.5586 L797,1505.5586 " fill="#FEFFDD" style="stroke:#181818;stroke-width:0.5;"/><path d="M878,1505.5586 L878,1515.5586 L888,1515.5586 L878,1505.5586 " fill="#FEFFDD" style="stroke:#181818;stroke-width:0.5;"/><text fill="#000000" font-family="sans-serif" font-size="13" lengthAdjust="spacing" textLength="4" x="803" y="1523.127">&#160;</text><text fill="#000000" font-family="sans-serif" font-size="13" lengthAdjust="spacing" textLength="70" x="803" y="1538.4375">12,859 gas</text><polygon fill="#3471CD" points="448.5,1568.4902,438.5,1572.4902,448.5,1576.4902,444.5,1572.4902" style="stroke:#3471CD;stroke-width:1.0;"/><line style="stroke:#3471CD;stroke-width:1.0;stroke-dasharray:2.0,2.0;" x1="442.5" x2="1500" y1="1572.4902" y2="1572.4902"/><text fill="#000000" font-family="sans-serif" font-size="13" lengthAdjust="spacing" textLength="209" x="454.5" y="1567.748">out: 1,,153,276,530,029,763,101</text><path d="M1506,1585.4902 L1506,1625.4902 L1589,1625.4902 L1589,1595.4902 L1579,1585.4902 L1506,1585.4902 " fill="#FEFFDD" style="stroke:#181818;stroke-width:0.5;"/><path d="M1579,1585.4902 L1579,1595.4902 L1589,1595.4902 L1579,1585.4902 " fill="#FEFFDD" style="stroke:#181818;stroke-width:0.5;"/><text fill="#000000" font-family="sans-serif" font-size="13" lengthAdjust="spacing" textLength="4" x="1512" y="1603.0586">&#160;</text><text fill="#000000" font-family="sans-serif" font-size="13" lengthAdjust="spacing" textLength="62" x="1512" y="1618.3691">1,176 gas</text><line style="stroke:#181818;stroke-width:1.0;" x1="438.5" x2="448.5" y1="1652.4219" y2="1648.4219"/><line style="stroke:#181818;stroke-width:1.0;" x1="438.5" x2="448.5" y1="1652.4219" y2="1656.4219"/><line style="stroke:#181818;stroke-width:1.0;stroke-dasharray:2.0,2.0;" x1="437.5" x2="786.5" y1="1652.4219" y2="1652.4219"/><text fill="#000000" font-family="sans-serif" font-size="13" lengthAdjust="spacing" textLength="209" x="454.5" y="1647.6797">out: 1,,153,276,530,029,763,101</text><path d="M792,1665.4219 L792,1705.4219 L883,1705.4219 L883,1675.4219 L873,1665.4219 L792,1665.4219 " fill="#FEFFDD" style="stroke:#181818;stroke-width:0.5;"/><path d="M873,1665.4219 L873,1675.4219 L883,1675.4219 L873,1665.4219 " fill="#FEFFDD" style="stroke:#181818;stroke-width:0.5;"/><text fill="#000000" font-family="sans-serif" font-size="13" lengthAdjust="spacing" textLength="4" x="798" y="1682.9902">&#160;</text><text fill="#000000" font-family="sans-serif" font-size="13" lengthAdjust="spacing" textLength="70" x="798" y="1698.3008">24,840 gas</text><polygon fill="#181818" points="93.5,1728.3535,83.5,1732.3535,93.5,1736.3535,89.5,1732.3535" style="stroke:#181818;stroke-width:1.0;"/><line style="stroke:#181818;stroke-width:1.0;stroke-dasharray:2.0,2.0;" x1="87.5" x2="431.5" y1="1732.3535" y2="1732.3535"/><text fill="#000000" font-family="sans-serif" font-size="13" lengthAdjust="spacing" textLength="209" x="99.5" y="1727.6113">out: 1,,153,276,530,029,763,101</text><path d="M437,1745.3535 L437,1785.3535 L528,1785.3535 L528,1755.3535 L518,1745.3535 L437,1745.3535 " fill="#FEFFDD" style="stroke:#181818;stroke-width:0.5;"/><path d="M518,1745.3535 L518,1755.3535 L528,1755.3535 L518,1745.3535 " fill="#FEFFDD" style="stroke:#181818;stroke-width:0.5;"/><text fill="#000000" font-family="sans-serif" font-size="13" lengthAdjust="spacing" textLength="4" x="443" y="1762.9219">&#160;</text><text fill="#000000" font-family="sans-serif" font-size="13" lengthAdjust="spacing" textLength="70" x="443" y="1778.2324">23,318 gas</text><path d="M310,1795.9746 L310,1927.9746 L555,1927.9746 L555,1805.9746 L545,1795.9746 L310,1795.9746 " fill="#00FFFF" style="stroke:#181818;stroke-width:0.5;"/><path d="M545,1795.9746 L545,1805.9746 L555,1805.9746 L545,1795.9746 " fill="#00FFFF" style="stroke:#181818;stroke-width:0.5;"/><text fill="#000000" font-family="sans-serif" font-size="13" lengthAdjust="spacing" textLength="80" x="316" y="1813.543">EthPurchase:</text><text fill="#000000" font-family="sans-serif" font-size="13" lengthAdjust="spacing" textLength="131" x="324" y="1828.8535">buyer: 0x1f0a..8202,</text><text fill="#000000" font-family="sans-serif" font-size="13" lengthAdjust="spacing" textLength="153" x="324" y="1844.1641">tokens_sold: 1,000,000,</text><text fill="#000000" font-family="sans-serif" font-size="13" lengthAdjust="spacing" textLength="216" x="324" y="1859.4746">eth_bought: 623,714,973,654,422</text><text fill="#000000" font-family="sans-serif" font-size="13" lengthAdjust="spacing" textLength="80" x="316" y="1874.7852">EthPurchase:</text><text fill="#000000" font-family="sans-serif" font-size="13" lengthAdjust="spacing" textLength="131" x="324" y="1890.0957">buyer: 0x1f0a..8202,</text><text fill="#000000" font-family="sans-serif" font-size="13" lengthAdjust="spacing" textLength="153" x="324" y="1905.4063">tokens_sold: 1,000,000,</text><text fill="#000000" font-family="sans-serif" font-size="13" lengthAdjust="spacing" textLength="216" x="324" y="1920.7168">eth_bought: 623,714,973,654,422</text><path d="M1049,1795.9746 L1049,1866.9746 L1204,1866.9746 L1204,1805.9746 L1194,1795.9746 L1049,1795.9746 " fill="#00FFFF" style="stroke:#181818;stroke-width:0.5;"/><path d="M1194,1795.9746 L1194,1805.9746 L1204,1805.9746 L1194,1795.9746 " fill="#00FFFF" style="stroke:#181818;stroke-width:0.5;"/><text fill="#000000" font-family="sans-serif" font-size="13" lengthAdjust="spacing" textLength="56" x="1055" y="1813.543">Transfer:</text><text fill="#000000" font-family="sans-serif" font-size="13" lengthAdjust="spacing" textLength="126" x="1063" y="1828.8535">from: 0x1f0a..8202,</text><text fill="#000000" font-family="sans-serif" font-size="13" lengthAdjust="spacing" textLength="112" x="1063" y="1844.1641">to: 0x97de..8126,</text><text fill="#000000" font-family="sans-serif" font-size="13" lengthAdjust="spacing" textLength="105" x="1063" y="1859.4746">value: 1,000,000</text><path d="M1345,1795.9746 L1345,1927.9746 L1657,1927.9746 L1657,1805.9746 L1647,1795.9746 L1345,1795.9746 " fill="#00FFFF" style="stroke:#181818;stroke-width:0.5;"/><path d="M1647,1795.9746 L1647,1805.9746 L1657,1805.9746 L1647,1795.9746 " fill="#00FFFF" style="stroke:#181818;stroke-width:0.5;"/><text fill="#000000" font-family="sans-serif" font-size="13" lengthAdjust="spacing" textLength="99" x="1351" y="1813.543">TokenPurchase:</text><text fill="#000000" font-family="sans-serif" font-size="13" lengthAdjust="spacing" textLength="134" x="1359" y="1828.8535">buyer: 0x97de..8126,</text><text fill="#000000" font-family="sans-serif" font-size="13" lengthAdjust="spacing" textLength="202" x="1359" y="1844.1641">eth_sold: 623,714,973,654,422,</text><text fill="#000000" font-family="sans-serif" font-size="13" lengthAdjust="spacing" textLength="283" x="1359" y="1859.4746">tokens_bought: 1,,153,276,530,029,763,101</text><text fill="#000000" font-family="sans-serif" font-size="13" lengthAdjust="spacing" textLength="99" x="1351" y="1874.7852">TokenPurchase:</text><text fill="#000000" font-family="sans-serif" font-size="13" lengthAdjust="spacing" textLength="134" x="1359" y="1890.0957">buyer: 0x97de..8126,</text><text fill="#000000" font-family="sans-serif" font-size="13" lengthAdjust="spacing" textLength="202" x="1359" y="1905.4063">eth_sold: 623,714,973,654,422,</text><text fill="#000000" font-family="sans-serif" font-size="13" lengthAdjust="spacing" textLength="283" x="1359" y="1920.7168">tokens_bought: 1,,153,276,530,029,763,101</text><path d="M1667,1795.9746 L1667,1866.9746 L1917,1866.9746 L1917,1805.9746 L1907,1795.9746 L1667,1795.9746 " fill="#00FFFF" style="stroke:#181818;stroke-width:0.5;"/><path d="M1907,1795.9746 L1907,1805.9746 L1917,1805.9746 L1907,1795.9746 " fill="#00FFFF" style="stroke:#181818;stroke-width:0.5;"/><text fill="#000000" font-family="sans-serif" font-size="13" lengthAdjust="spacing" textLength="56" x="1673" y="1813.543">Transfer:</text><text fill="#000000" font-family="sans-serif" font-size="13" lengthAdjust="spacing" textLength="129" x="1681" y="1828.8535">from: 0x9a7A..a621,</text><text fill="#000000" font-family="sans-serif" font-size="13" lengthAdjust="spacing" textLength="109" x="1681" y="1844.1641">to: 0x1f0a..8202,</text><text fill="#000000" font-family="sans-serif" font-size="13" lengthAdjust="spacing" textLength="221" x="1681" y="1859.4746">value: 1,,153,276,530,029,763,101</text><!--SRC=[rLRRRkCs47tNLn2Rbop0kBn9f8p0GEuDiDa6Y9ENfWWecKw4TIXNbXFdxpkah8jlIRlTOj47GnvUvimvd1copCg9GMGHZkCuvdASgYHDuZYbF68ZGWc9J9GA9GXBbGeJPXXNd6YL925dWeruB1B6OX84gPwMMMxHiywiDIL6oIHFlo5AOnOAJZ4QFiqnOY4wDmbYX554uZvHVShGnTKmq6cP5-WJMT0nqRsUWXMVa9uXPpe31LDTb5cQJRKjtRfOZWoieopowvpf37HuU6kpsQkUeZiw61mUxjz-lJouev_T_thcR94-QVjeqAKjJJ7MgV6Bro4O3MMlDvP4UGXdEkD7GgH4YrvFZEBGGpZJ6G1nzpOrnKEQsx80RJPtQfAeNiyaeWhEcSvmmTsSefCyirLeDwSdFh3pJ9V3_9knrqM-UDlqbqW6PANIbUxET0RgxBnZczjYBU6uTCHeTGnWEkD7QYH7L3kc2V4GpdG6G5nfM8TyR1xZwcXuMR7rCyk98B1vQL3-OeecdOAlkKrD7r4SAXLSWDlh8lC3JFG8kdWrcH_zaZrd9On62YlE_T3jp8pSEeKPKy5m0GaD-qYFq0YT3NyDZ1qX1nW4JUuU39hyxAFIHJNCVN0t8CEbdSxB_NkBgfdPmooVE01C2F4_D_MSsOVbT9BF7vzSJ1XJGR4K7Cj8OCbYBA8GlghPOSgdpd8tEZ9wDCciPnvHWJadMCWOD_0FUZGgWCv2dj8ZKFtuc7o-jqksw57FNALcBne4hIa5JUqT30PDbVnFYHA1OqfMYJQ5lwT8V7Pot27y-nuNafwS_Z5eQhUF7arPftPBTnCAK-Y6Aq2rYw0mvRomA9-NRXiKrL5LOntaBdHT_7sKw8c6nFvjx84VybThFCcsMm8onz3hLv5h3q7JHznPrarWtQzEqtnkomt753CYLnqtVQJMRabDK0ddeN0KmvUJ5SRhSxvyYmnE5-NZ3jbxox1KaGVyI1ZeedOsDiLvaJzNsepXdsFGNZW-EI3xLdbLeozwCZUTP0Msa8U4Yd-cuqOOEwBO6iIs62BCQFpt92-BkLdHsG-yAsuShedRqRPkzNq4rRSiy-6INblgRJr_MCZlbMnXu3x8J9LphLQWW0Xnp7rdkhVGX0drJRXjKiieW-PcMcrIFpTsS1InZvfD4tX7_FeINA_Cjk2Rdk7hadEw2bCxg1E22OoLKfXoXXKbM0cuyIAEmuXz546Tq_jjugvbSvEuc8OSCndX4FGXeA4424fSZ30GIlP-a1iPlDlZMbwt1-ukCwp2gcQ-orUR-Bw9o-ZxNNN3WXE0T_Q_2AjvOO0lZZcjhklEuwSfuptzvrm7P-NJzRo0Usfc-W52oVojIftEuGKxxsgOwLww4I1AoFjOSXo50Wl6_dF_xKFh5zIIR1flHRAkQXV1bbuRR6crmMQdtO7L5COIop-ljr5UzUw8LNotqEfeqdq0xKY1dm2vNOhcLRvRzhObjRAl7iM7VQ85_mi0]--></g></svg>
