<?xml version="1.0" encoding="UTF-8" standalone="no"?><svg xmlns:xlink="http://www.w3.org/1999/xlink" xmlns="http://www.w3.org/2000/svg" contentStyleType="text/css" height="2219px" preserveAspectRatio="none" style="width:1900px;height:2219px;background:#FFFFFF;" version="1.1" viewBox="0 0 1900 2219" width="1900px" zoomAndPan="magnify"><defs/><g><text fill="#000000" font-family="sans-serif" font-size="14" font-weight="bold" lengthAdjust="spacing" textLength="574" x="661.5" y="28.5352">0x5f99937fc8bcb99c1362d01006e6c48402c885b2e23830a8bb53242d394b2290</text><text fill="#000000" font-family="sans-serif" font-size="14" lengthAdjust="spacing" textLength="408" x="744.5" y="2207.3633">mainnet, block 11925431, Thu, 25 Feb 2021 09:08:12 GMT</text><rect fill="#FFFFFF" height="1557.6016" style="stroke:#181818;stroke-width:1.0;" width="10" x="419.5" y="343.168"/><rect fill="#809ECB" height="1341.1855" style="stroke:#181818;stroke-width:1.0;" width="10" x="766.5" y="464.3418"/><rect fill="#809ECB" height="269.0371" style="stroke:#181818;stroke-width:1.0;" width="10" x="771.5" y="1346.0059"/><rect fill="#FFFFFF" height="44.6211" style="stroke:#181818;stroke-width:1.0;" width="10" x="963" y="524.2734"/><rect fill="#FFFFFF" height="149.1738" style="stroke:#181818;stroke-width:1.0;" width="10" x="1105.5" y="628.8262"/><rect fill="#FFFFFF" height="179.7949" style="stroke:#181818;stroke-width:1.0;" width="10" x="1105.5" y="919.1738"/><rect fill="#809ECB" height="44.6211" style="stroke:#181818;stroke-width:1.0;" width="10" x="1283.5" y="688.7578"/><rect fill="#809ECB" height="44.6211" style="stroke:#181818;stroke-width:1.0;" width="10" x="1283.5" y="1009.7266"/><rect fill="#FFFFFF" height="454.832" style="stroke:#181818;stroke-width:1.0;" width="10" x="1472" y="1255.4531"/><rect fill="#FFFFFF" height="44.6211" style="stroke:#181818;stroke-width:1.0;" width="10" x="1763" y="1405.9375"/><rect fill="#FFFFFF" height="44.6211" style="stroke:#181818;stroke-width:1.0;" width="10" x="1763" y="1525.8008"/><line style="stroke:#181818;stroke-width:0.5;stroke-dasharray:5.0,5.0;" x1="82" x2="82" y1="123.4414" y2="2111.875"/><line style="stroke:#181818;stroke-width:0.5;stroke-dasharray:5.0,5.0;" x1="424" x2="424" y1="123.4414" y2="2111.875"/><line style="stroke:#181818;stroke-width:0.5;stroke-dasharray:5.0,5.0;" x1="771" x2="771" y1="123.4414" y2="2111.875"/><line style="stroke:#181818;stroke-width:0.5;stroke-dasharray:5.0,5.0;" x1="968" x2="968" y1="123.4414" y2="2111.875"/><line style="stroke:#181818;stroke-width:0.5;stroke-dasharray:5.0,5.0;" x1="1110" x2="1110" y1="123.4414" y2="2111.875"/><line style="stroke:#181818;stroke-width:0.5;stroke-dasharray:5.0,5.0;" x1="1288.5" x2="1288.5" y1="123.4414" y2="2111.875"/><line style="stroke:#181818;stroke-width:0.5;stroke-dasharray:5.0,5.0;" x1="1476.5" x2="1476.5" y1="123.4414" y2="2111.875"/><line style="stroke:#181818;stroke-width:0.5;stroke-dasharray:5.0,5.0;" x1="1767.5" x2="1767.5" y1="123.4414" y2="2111.875"/><text fill="#000000" font-family="sans-serif" font-size="14" lengthAdjust="spacing" textLength="93" x="33" y="120.4883">0x1f0a..8202</text><ellipse cx="82.5" cy="55.4531" fill="#E2E2F0" rx="8" ry="8" style="stroke:#181818;stroke-width:0.5;"/><path d="M82.5,63.4531 L82.5,90.4531 M69.5,71.4531 L95.5,71.4531 M82.5,90.4531 L69.5,105.4531 M82.5,90.4531 L95.5,105.4531 " fill="none" style="stroke:#181818;stroke-width:0.5;"/><text fill="#000000" font-family="sans-serif" font-size="14" lengthAdjust="spacing" textLength="93" x="33" y="2124.4102">0x1f0a..8202</text><ellipse cx="82.5" cy="2135.8633" fill="#E2E2F0" rx="8" ry="8" style="stroke:#181818;stroke-width:0.5;"/><path d="M82.5,2143.8633 L82.5,2170.8633 M69.5,2151.8633 L95.5,2151.8633 M82.5,2170.8633 L69.5,2185.8633 M82.5,2170.8633 L95.5,2185.8633 " fill="none" style="stroke:#181818;stroke-width:0.5;"/><rect fill="#E2E2F0" height="79.9531" rx="2.5" ry="2.5" style="stroke:#181818;stroke-width:0.5;" width="243" x="303" y="42.4883"/><text fill="#000000" font-family="sans-serif" font-size="14" font-style="italic" lengthAdjust="spacing" textLength="94" x="377.5" y="63.0234">«Uniswap V1»</text><text fill="#000000" font-family="sans-serif" font-size="14" font-style="italic" lengthAdjust="spacing" textLength="74" x="387.5" y="79.5117">«(UNI-V1)»</text><text fill="#000000" font-family="sans-serif" font-size="14" font-style="italic" lengthAdjust="spacing" textLength="229" x="310" y="96">«Uniswap Exchange Interface V1»</text><text fill="#000000" font-family="sans-serif" font-size="14" lengthAdjust="spacing" textLength="97" x="376" y="112.4883">0x97de..8126</text><rect fill="#E2E2F0" height="79.9531" rx="2.5" ry="2.5" style="stroke:#181818;stroke-width:0.5;" width="243" x="303" y="2110.875"/><text fill="#000000" font-family="sans-serif" font-size="14" font-style="italic" lengthAdjust="spacing" textLength="94" x="377.5" y="2131.4102">«Uniswap V1»</text><text fill="#000000" font-family="sans-serif" font-size="14" font-style="italic" lengthAdjust="spacing" textLength="74" x="387.5" y="2147.8984">«(UNI-V1)»</text><text fill="#000000" font-family="sans-serif" font-size="14" font-style="italic" lengthAdjust="spacing" textLength="229" x="310" y="2164.3867">«Uniswap Exchange Interface V1»</text><text fill="#000000" font-family="sans-serif" font-size="14" lengthAdjust="spacing" textLength="97" x="376" y="2180.875">0x97de..8126</text><rect fill="#E2E2F0" height="79.9531" rx="2.5" ry="2.5" style="stroke:#181818;stroke-width:0.5;" width="243" x="650" y="42.4883"/><text fill="#000000" font-family="sans-serif" font-size="14" font-style="italic" lengthAdjust="spacing" textLength="94" x="724.5" y="63.0234">«Uniswap V1»</text><text fill="#000000" font-family="sans-serif" font-size="14" font-style="italic" lengthAdjust="spacing" textLength="74" x="734.5" y="79.5117">«(UNI-V1)»</text><text fill="#000000" font-family="sans-serif" font-size="14" font-style="italic" lengthAdjust="spacing" textLength="229" x="657" y="96">«Uniswap Exchange Interface V1»</text><text fill="#000000" font-family="sans-serif" font-size="14" lengthAdjust="spacing" textLength="94" x="724.5" y="112.4883">0x2157..f708</text><rect fill="#E2E2F0" height="79.9531" rx="2.5" ry="2.5" style="stroke:#181818;stroke-width:0.5;" width="243" x="650" y="2110.875"/><text fill="#000000" font-family="sans-serif" font-size="14" font-style="italic" lengthAdjust="spacing" textLength="94" x="724.5" y="2131.4102">«Uniswap V1»</text><text fill="#000000" font-family="sans-serif" font-size="14" font-style="italic" lengthAdjust="spacing" textLength="74" x="734.5" y="2147.8984">«(UNI-V1)»</text><text fill="#000000" font-family="sans-serif" font-size="14" font-style="italic" lengthAdjust="spacing" textLength="229" x="657" y="2164.3867">«Uniswap Exchange Interface V1»</text><text fill="#000000" font-family="sans-serif" font-size="14" lengthAdjust="spacing" textLength="94" x="724.5" y="2180.875">0x2157..f708</text><rect fill="#E2E2F0" height="46.9766" rx="2.5" ry="2.5" style="stroke:#181818;stroke-width:0.5;" width="130" x="903" y="75.4648"/><text fill="#000000" font-family="sans-serif" font-size="14" font-style="italic" lengthAdjust="spacing" textLength="116" x="910" y="96">«Vyper_contract»</text><text fill="#000000" font-family="sans-serif" font-size="14" lengthAdjust="spacing" textLength="95" x="920.5" y="112.4883">0xc0a4..4d95</text><rect fill="#E2E2F0" height="46.9766" rx="2.5" ry="2.5" style="stroke:#181818;stroke-width:0.5;" width="130" x="903" y="2110.875"/><text fill="#000000" font-family="sans-serif" font-size="14" font-style="italic" lengthAdjust="spacing" textLength="116" x="910" y="2131.4102">«Vyper_contract»</text><text fill="#000000" font-family="sans-serif" font-size="14" lengthAdjust="spacing" textLength="95" x="920.5" y="2147.8984">0xc0a4..4d95</text><rect fill="#E2E2F0" height="79.9531" rx="2.5" ry="2.5" style="stroke:#181818;stroke-width:0.5;" width="135" x="1043" y="42.4883"/><text fill="#000000" font-family="sans-serif" font-size="14" font-style="italic" lengthAdjust="spacing" textLength="78" x="1071.5" y="63.0234">«USD Coin»</text><text fill="#000000" font-family="sans-serif" font-size="14" font-style="italic" lengthAdjust="spacing" textLength="62" x="1079.5" y="79.5117">«(USDC)»</text><text fill="#000000" font-family="sans-serif" font-size="14" font-style="italic" lengthAdjust="spacing" textLength="121" x="1050" y="96">«FiatTokenProxy»</text><text fill="#000000" font-family="sans-serif" font-size="14" lengthAdjust="spacing" textLength="96" x="1062.5" y="112.4883">0xa0b8..eb48</text><rect fill="#E2E2F0" height="79.9531" rx="2.5" ry="2.5" style="stroke:#181818;stroke-width:0.5;" width="135" x="1043" y="2110.875"/><text fill="#000000" font-family="sans-serif" font-size="14" font-style="italic" lengthAdjust="spacing" textLength="78" x="1071.5" y="2131.4102">«USD Coin»</text><text fill="#000000" font-family="sans-serif" font-size="14" font-style="italic" lengthAdjust="spacing" textLength="62" x="1079.5" y="2147.8984">«(USDC)»</text><text fill="#000000" font-family="sans-serif" font-size="14" font-style="italic" lengthAdjust="spacing" textLength="121" x="1050" y="2164.3867">«FiatTokenProxy»</text><text fill="#000000" font-family="sans-serif" font-size="14" lengthAdjust="spacing" textLength="96" x="1062.5" y="2180.875">0xa0b8..eb48</text><rect fill="#E2E2F0" height="46.9766" rx="2.5" ry="2.5" style="stroke:#181818;stroke-width:0.5;" width="114" x="1231.5" y="75.4648"/><text fill="#000000" font-family="sans-serif" font-size="14" font-style="italic" lengthAdjust="spacing" textLength="100" x="1238.5" y="96">«FiatTokenV2»</text><text fill="#000000" font-family="sans-serif" font-size="14" lengthAdjust="spacing" textLength="97" x="1240" y="112.4883">0xb727..78a2</text><rect fill="#E2E2F0" height="46.9766" rx="2.5" ry="2.5" style="stroke:#181818;stroke-width:0.5;" width="114" x="1231.5" y="2110.875"/><text fill="#000000" font-family="sans-serif" font-size="14" font-style="italic" lengthAdjust="spacing" textLength="100" x="1238.5" y="2131.4102">«FiatTokenV2»</text><text fill="#000000" font-family="sans-serif" font-size="14" lengthAdjust="spacing" textLength="97" x="1240" y="2147.8984">0xb727..78a2</text><rect fill="#E2E2F0" height="79.9531" rx="2.5" ry="2.5" style="stroke:#181818;stroke-width:0.5;" width="243" x="1355.5" y="42.4883"/><text fill="#000000" font-family="sans-serif" font-size="14" font-style="italic" lengthAdjust="spacing" textLength="94" x="1430" y="63.0234">«Uniswap V1»</text><text fill="#000000" font-family="sans-serif" font-size="14" font-style="italic" lengthAdjust="spacing" textLength="74" x="1440" y="79.5117">«(UNI-V1)»</text><text fill="#000000" font-family="sans-serif" font-size="14" font-style="italic" lengthAdjust="spacing" textLength="229" x="1362.5" y="96">«Uniswap Exchange Interface V1»</text><text fill="#000000" font-family="sans-serif" font-size="14" lengthAdjust="spacing" textLength="95" x="1429.5" y="112.4883">0x9a7a..a621</text><rect fill="#E2E2F0" height="79.9531" rx="2.5" ry="2.5" style="stroke:#181818;stroke-width:0.5;" width="243" x="1355.5" y="2110.875"/><text fill="#000000" font-family="sans-serif" font-size="14" font-style="italic" lengthAdjust="spacing" textLength="94" x="1430" y="2131.4102">«Uniswap V1»</text><text fill="#000000" font-family="sans-serif" font-size="14" font-style="italic" lengthAdjust="spacing" textLength="74" x="1440" y="2147.8984">«(UNI-V1)»</text><text fill="#000000" font-family="sans-serif" font-size="14" font-style="italic" lengthAdjust="spacing" textLength="229" x="1362.5" y="2164.3867">«Uniswap Exchange Interface V1»</text><text fill="#000000" font-family="sans-serif" font-size="14" lengthAdjust="spacing" textLength="95" x="1429.5" y="2180.875">0x9a7a..a621</text><rect fill="#E2E2F0" height="79.9531" rx="2.5" ry="2.5" style="stroke:#181818;stroke-width:0.5;" width="111" x="1712.5" y="42.4883"/><text fill="#000000" font-family="sans-serif" font-size="14" font-style="italic" lengthAdjust="spacing" textLength="97" x="1719.5" y="63.0234">«Matic Token»</text><text fill="#000000" font-family="sans-serif" font-size="14" font-style="italic" lengthAdjust="spacing" textLength="69" x="1733.5" y="79.5117">«(MATIC)»</text><text fill="#000000" font-family="sans-serif" font-size="14" font-style="italic" lengthAdjust="spacing" textLength="93" x="1721.5" y="96">«MaticToken»</text><text fill="#000000" font-family="sans-serif" font-size="14" lengthAdjust="spacing" textLength="96" x="1720" y="112.4883">0x7d1a..ebb0</text><rect fill="#E2E2F0" height="79.9531" rx="2.5" ry="2.5" style="stroke:#181818;stroke-width:0.5;" width="111" x="1712.5" y="2110.875"/><text fill="#000000" font-family="sans-serif" font-size="14" font-style="italic" lengthAdjust="spacing" textLength="97" x="1719.5" y="2131.4102">«Matic Token»</text><text fill="#000000" font-family="sans-serif" font-size="14" font-style="italic" lengthAdjust="spacing" textLength="69" x="1733.5" y="2147.8984">«(MATIC)»</text><text fill="#000000" font-family="sans-serif" font-size="14" font-style="italic" lengthAdjust="spacing" textLength="93" x="1721.5" y="2164.3867">«MaticToken»</text><text fill="#000000" font-family="sans-serif" font-size="14" lengthAdjust="spacing" textLength="96" x="1720" y="2180.875">0x7d1a..ebb0</text><rect fill="#FFFFFF" height="1557.6016" style="stroke:#181818;stroke-width:1.0;" width="10" x="419.5" y="343.168"/><rect fill="#809ECB" height="1341.1855" style="stroke:#181818;stroke-width:1.0;" width="10" x="766.5" y="464.3418"/><rect fill="#809ECB" height="269.0371" style="stroke:#181818;stroke-width:1.0;" width="10" x="771.5" y="1346.0059"/><rect fill="#FFFFFF" height="44.6211" style="stroke:#181818;stroke-width:1.0;" width="10" x="963" y="524.2734"/><rect fill="#FFFFFF" height="149.1738" style="stroke:#181818;stroke-width:1.0;" width="10" x="1105.5" y="628.8262"/><rect fill="#FFFFFF" height="179.7949" style="stroke:#181818;stroke-width:1.0;" width="10" x="1105.5" y="919.1738"/><rect fill="#809ECB" height="44.6211" style="stroke:#181818;stroke-width:1.0;" width="10" x="1283.5" y="688.7578"/><rect fill="#809ECB" height="44.6211" style="stroke:#181818;stroke-width:1.0;" width="10" x="1283.5" y="1009.7266"/><rect fill="#FFFFFF" height="454.832" style="stroke:#181818;stroke-width:1.0;" width="10" x="1472" y="1255.4531"/><rect fill="#FFFFFF" height="44.6211" style="stroke:#181818;stroke-width:1.0;" width="10" x="1763" y="1405.9375"/><rect fill="#FFFFFF" height="44.6211" style="stroke:#181818;stroke-width:1.0;" width="10" x="1763" y="1525.8008"/><path d="M5,138.4414 L5,224.4414 L161,224.4414 L161,148.4414 L151,138.4414 L5,138.4414 " fill="#FEFFDD" style="stroke:#181818;stroke-width:0.5;"/><path d="M151,138.4414 L151,148.4414 L161,148.4414 L151,138.4414 " fill="#FEFFDD" style="stroke:#181818;stroke-width:0.5;"/><text fill="#000000" font-family="sans-serif" font-size="13" lengthAdjust="spacing" textLength="84" x="11" y="156.0098">Nonce: 1,588</text><text fill="#000000" font-family="sans-serif" font-size="13" lengthAdjust="spacing" textLength="135" x="11" y="171.3203">Gas Price: 124.0 Gwei</text><text fill="#000000" font-family="sans-serif" font-size="13" lengthAdjust="spacing" textLength="119" x="11" y="186.6309">Gas Limit: 168,833</text><text fill="#000000" font-family="sans-serif" font-size="13" lengthAdjust="spacing" textLength="118" x="11" y="201.9414">Gas Used: 128,228</text><text fill="#000000" font-family="sans-serif" font-size="13" lengthAdjust="spacing" textLength="114" x="11" y="217.252">Tx Fee: 0.016 ETH</text><polygon fill="#181818" points="407.5,339.168,417.5,343.168,407.5,347.168,411.5,343.168" style="stroke:#181818;stroke-width:1.0;"/><line style="stroke:#181818;stroke-width:1.0;" x1="82.5" x2="413.5" y1="343.168" y2="343.168"/><text fill="#000000" font-family="sans-serif" font-size="13" lengthAdjust="spacing" textLength="160" x="89.5" y="246.5625">tokenToTokenSwapInput(</text><text fill="#000000" font-family="sans-serif" font-size="13" lengthAdjust="spacing" textLength="153" x="89.5" y="261.873">tokens_sold: 1,000,000,</text><text fill="#000000" font-family="sans-serif" font-size="13" lengthAdjust="spacing" textLength="318" x="89.5" y="277.1836">min_tokens_bought: 1,,141,743,764,729,465,728,</text><text fill="#000000" font-family="sans-serif" font-size="13" lengthAdjust="spacing" textLength="123" x="89.5" y="292.4941">min_eth_bought: 1,</text><text fill="#000000" font-family="sans-serif" font-size="13" lengthAdjust="spacing" textLength="157" x="89.5" y="307.8047">deadline: 1,614,330,479,</text><text fill="#000000" font-family="sans-serif" font-size="13" lengthAdjust="spacing" textLength="171" x="89.5" y="323.1152">token_addr: 0x7D1A..eBB0)</text><text fill="#000000" font-family="sans-serif" font-size="13" lengthAdjust="spacing" textLength="78" x="89.5" y="338.4258">128,228 gas</text><line style="stroke:#181818;stroke-width:1.0;" x1="764.5" x2="754.5" y1="464.3418" y2="460.3418"/><line style="stroke:#181818;stroke-width:1.0;" x1="764.5" x2="754.5" y1="464.3418" y2="468.3418"/><line style="stroke:#181818;stroke-width:1.0;" x1="429.5" x2="765.5" y1="464.3418" y2="464.3418"/><text fill="#000000" font-family="sans-serif" font-size="13" lengthAdjust="spacing" textLength="160" x="436.5" y="367.7363">tokenToTokenSwapInput(</text><text fill="#000000" font-family="sans-serif" font-size="13" lengthAdjust="spacing" textLength="153" x="436.5" y="383.0469">tokens_sold: 1,000,000,</text><text fill="#000000" font-family="sans-serif" font-size="13" lengthAdjust="spacing" textLength="318" x="436.5" y="398.3574">min_tokens_bought: 1,,141,743,764,729,465,728,</text><text fill="#000000" font-family="sans-serif" font-size="13" lengthAdjust="spacing" textLength="123" x="436.5" y="413.668">min_eth_bought: 1,</text><text fill="#000000" font-family="sans-serif" font-size="13" lengthAdjust="spacing" textLength="157" x="436.5" y="428.9785">deadline: 1,614,330,479,</text><text fill="#000000" font-family="sans-serif" font-size="13" lengthAdjust="spacing" textLength="171" x="436.5" y="444.2891">token_addr: 0x7D1A..eBB0)</text><text fill="#000000" font-family="sans-serif" font-size="13" lengthAdjust="spacing" textLength="78" x="436.5" y="459.5996">104,910 gas</text><polygon fill="#3471CD" points="951,520.2734,961,524.2734,951,528.2734,955,524.2734" style="stroke:#3471CD;stroke-width:1.0;"/><line style="stroke:#3471CD;stroke-width:1.0;" x1="429.5" x2="957" y1="524.2734" y2="524.2734"/><text fill="#000000" font-family="sans-serif" font-size="13" lengthAdjust="spacing" textLength="84" x="436.5" y="488.9102">getExchange(</text><text fill="#000000" font-family="sans-serif" font-size="13" lengthAdjust="spacing" textLength="136" x="436.5" y="504.2207">token: 0x7D1A..eBB0)</text><text fill="#000000" font-family="sans-serif" font-size="13" lengthAdjust="spacing" textLength="62" x="436.5" y="519.5313">1,125 gas</text><polygon fill="#3471CD" points="440.5,564.8945,430.5,568.8945,440.5,572.8945,436.5,568.8945" style="stroke:#3471CD;stroke-width:1.0;"/><line style="stroke:#3471CD;stroke-width:1.0;stroke-dasharray:2.0,2.0;" x1="434.5" x2="967" y1="568.8945" y2="568.8945"/><text fill="#000000" font-family="sans-serif" font-size="13" lengthAdjust="spacing" textLength="4" x="446.5" y="548.8418"> </text><text fill="#000000" font-family="sans-serif" font-size="13" lengthAdjust="spacing" textLength="116" x="446.5" y="564.1523">out: 0x9a7A..a621</text><polygon fill="#3471CD" points="1093.5,624.8262,1103.5,628.8262,1093.5,632.8262,1097.5,628.8262" style="stroke:#3471CD;stroke-width:1.0;"/><line style="stroke:#3471CD;stroke-width:1.0;stroke-dasharray:2.0,2.0;" x1="429.5" x2="1099.5" y1="628.8262" y2="628.8262"/><text fill="#000000" font-family="sans-serif" font-size="13" lengthAdjust="spacing" textLength="67" x="436.5" y="593.4629">balanceOf(</text><text fill="#000000" font-family="sans-serif" font-size="13" lengthAdjust="spacing" textLength="144" x="436.5" y="608.7734">_owner: 0x97de..8126)</text><text fill="#000000" font-family="sans-serif" font-size="13" lengthAdjust="spacing" textLength="62" x="436.5" y="624.084">3,993 gas</text><line style="stroke:#181818;stroke-width:1.0;" x1="1281.5" x2="1271.5" y1="688.7578" y2="684.7578"/><line style="stroke:#181818;stroke-width:1.0;" x1="1281.5" x2="1271.5" y1="688.7578" y2="692.7578"/><line style="stroke:#181818;stroke-width:1.0;" x1="1115.5" x2="1282.5" y1="688.7578" y2="688.7578"/><text fill="#000000" font-family="sans-serif" font-size="13" lengthAdjust="spacing" textLength="67" x="1122.5" y="653.3945">balanceOf(</text><text fill="#000000" font-family="sans-serif" font-size="13" lengthAdjust="spacing" textLength="149" x="1122.5" y="668.7051">account: 0x97de..8126)</text><text fill="#000000" font-family="sans-serif" font-size="13" lengthAdjust="spacing" textLength="62" x="1122.5" y="684.0156">1,207 gas</text><line style="stroke:#181818;stroke-width:1.0;" x1="1116.5" x2="1126.5" y1="733.3789" y2="729.3789"/><line style="stroke:#181818;stroke-width:1.0;" x1="1116.5" x2="1126.5" y1="733.3789" y2="737.3789"/><line style="stroke:#181818;stroke-width:1.0;stroke-dasharray:2.0,2.0;" x1="1115.5" x2="1287.5" y1="733.3789" y2="733.3789"/><text fill="#000000" font-family="sans-serif" font-size="13" lengthAdjust="spacing" textLength="4" x="1132.5" y="713.3262"> </text><text fill="#000000" font-family="sans-serif" font-size="13" lengthAdjust="spacing" textLength="108" x="1132.5" y="728.6367">417,478,697,430</text><polygon fill="#3471CD" points="440.5,774,430.5,778,440.5,782,436.5,778" style="stroke:#3471CD;stroke-width:1.0;"/><line style="stroke:#3471CD;stroke-width:1.0;stroke-dasharray:2.0,2.0;" x1="434.5" x2="1109.5" y1="778" y2="778"/><text fill="#000000" font-family="sans-serif" font-size="13" lengthAdjust="spacing" textLength="4" x="446.5" y="757.9473"> </text><text fill="#000000" font-family="sans-serif" font-size="13" lengthAdjust="spacing" textLength="137" x="446.5" y="773.2578">out: 417,478,697,430</text><path d="M1115,791 L1115,831 L1198,831 L1198,801 L1188,791 L1115,791 " fill="#FEFFDD" style="stroke:#181818;stroke-width:0.5;"/><path d="M1188,791 L1188,801 L1198,801 L1188,791 " fill="#FEFFDD" style="stroke:#181818;stroke-width:0.5;"/><text fill="#000000" font-family="sans-serif" font-size="13" lengthAdjust="spacing" textLength="4" x="1121" y="808.5684"> </text><text fill="#000000" font-family="sans-serif" font-size="13" lengthAdjust="spacing" textLength="62" x="1121" y="823.8789">2,786 gas</text><polygon fill="#3471CD" points="1093.5,915.1738,1103.5,919.1738,1093.5,923.1738,1097.5,919.1738" style="stroke:#3471CD;stroke-width:1.0;"/><line style="stroke:#3471CD;stroke-width:1.0;stroke-dasharray:2.0,2.0;" x1="429.5" x2="1099.5" y1="919.1738" y2="919.1738"/><text fill="#000000" font-family="sans-serif" font-size="13" lengthAdjust="spacing" textLength="85" x="436.5" y="853.1895">transferFrom(</text><text fill="#000000" font-family="sans-serif" font-size="13" lengthAdjust="spacing" textLength="133" x="436.5" y="868.5">_from: 0x1f0a..8202,</text><text fill="#000000" font-family="sans-serif" font-size="13" lengthAdjust="spacing" textLength="119" x="436.5" y="883.8105">_to: 0x97de..8126,</text><text fill="#000000" font-family="sans-serif" font-size="13" lengthAdjust="spacing" textLength="116" x="436.5" y="899.1211">_value: 1,000,000)</text><text fill="#000000" font-family="sans-serif" font-size="13" lengthAdjust="spacing" textLength="70" x="436.5" y="914.4316">29,014 gas</text><line style="stroke:#181818;stroke-width:1.0;" x1="1281.5" x2="1271.5" y1="1009.7266" y2="1005.7266"/><line style="stroke:#181818;stroke-width:1.0;" x1="1281.5" x2="1271.5" y1="1009.7266" y2="1013.7266"/><line style="stroke:#181818;stroke-width:1.0;" x1="1115.5" x2="1282.5" y1="1009.7266" y2="1009.7266"/><text fill="#000000" font-family="sans-serif" font-size="13" lengthAdjust="spacing" textLength="85" x="1122.5" y="943.7422">transferFrom(</text><text fill="#000000" font-family="sans-serif" font-size="13" lengthAdjust="spacing" textLength="126" x="1122.5" y="959.0527">from: 0x1f0a..8202,</text><text fill="#000000" font-family="sans-serif" font-size="13" lengthAdjust="spacing" textLength="112" x="1122.5" y="974.3633">to: 0x97de..8126,</text><text fill="#000000" font-family="sans-serif" font-size="13" lengthAdjust="spacing" textLength="109" x="1122.5" y="989.6738">value: 1,000,000)</text><text fill="#000000" font-family="sans-serif" font-size="13" lengthAdjust="spacing" textLength="70" x="1122.5" y="1004.9844">26,219 gas</text><line style="stroke:#181818;stroke-width:1.0;" x1="1116.5" x2="1126.5" y1="1054.3477" y2="1050.3477"/><line style="stroke:#181818;stroke-width:1.0;" x1="1116.5" x2="1126.5" y1="1054.3477" y2="1058.3477"/><line style="stroke:#181818;stroke-width:1.0;stroke-dasharray:2.0,2.0;" x1="1115.5" x2="1287.5" y1="1054.3477" y2="1054.3477"/><text fill="#000000" font-family="sans-serif" font-size="13" lengthAdjust="spacing" textLength="4" x="1132.5" y="1034.2949"> </text><text fill="#000000" font-family="sans-serif" font-size="13" lengthAdjust="spacing" textLength="25" x="1132.5" y="1049.6055">true</text><polygon fill="#3471CD" points="440.5,1094.9688,430.5,1098.9688,440.5,1102.9688,436.5,1098.9688" style="stroke:#3471CD;stroke-width:1.0;"/><line style="stroke:#3471CD;stroke-width:1.0;stroke-dasharray:2.0,2.0;" x1="434.5" x2="1109.5" y1="1098.9688" y2="1098.9688"/><text fill="#000000" font-family="sans-serif" font-size="13" lengthAdjust="spacing" textLength="4" x="446.5" y="1078.916"> </text><text fill="#000000" font-family="sans-serif" font-size="13" lengthAdjust="spacing" textLength="54" x="446.5" y="1094.2266">out: true</text><path d="M1115,1111.9688 L1115,1151.9688 L1198,1151.9688 L1198,1121.9688 L1188,1111.9688 L1115,1111.9688 " fill="#FEFFDD" style="stroke:#181818;stroke-width:0.5;"/><path d="M1188,1111.9688 L1188,1121.9688 L1198,1121.9688 L1188,1111.9688 " fill="#FEFFDD" style="stroke:#181818;stroke-width:0.5;"/><text fill="#000000" font-family="sans-serif" font-size="13" lengthAdjust="spacing" textLength="4" x="1121" y="1129.5371"> </text><text fill="#000000" font-family="sans-serif" font-size="13" lengthAdjust="spacing" textLength="62" x="1121" y="1144.8477">2,795 gas</text><polygon fill="#3471CD" points="1460,1251.4531,1470,1255.4531,1460,1259.4531,1464,1255.4531" style="stroke:#3471CD;stroke-width:1.0;"/><line style="stroke:#3471CD;stroke-width:1.0;" x1="429.5" x2="1466" y1="1255.4531" y2="1255.4531"/><text fill="#000000" font-family="sans-serif" font-size="13" lengthAdjust="spacing" textLength="164" x="436.5" y="1174.1582">ethToTokenTransferInput(</text><text fill="#000000" font-family="sans-serif" font-size="13" lengthAdjust="spacing" textLength="266" x="436.5" y="1189.4688">min_tokens: 1,,141,743,764,729,465,728,</text><text fill="#000000" font-family="sans-serif" font-size="13" lengthAdjust="spacing" textLength="157" x="436.5" y="1204.7793">deadline: 1,614,330,479,</text><text fill="#000000" font-family="sans-serif" font-size="13" lengthAdjust="spacing" textLength="151" x="436.5" y="1220.0898">recipient: 0x1f0a..8202)</text><text fill="#000000" font-family="sans-serif" font-size="13" lengthAdjust="spacing" textLength="70" x="436.5" y="1235.4004">45,938 gas</text><text fill="#000000" font-family="sans-serif" font-size="13" lengthAdjust="spacing" textLength="65" x="436.5" y="1250.7109">0.001 ETH</text><line style="stroke:#181818;stroke-width:1.0;" x1="782.5" x2="792.5" y1="1346.0059" y2="1342.0059"/><line style="stroke:#181818;stroke-width:1.0;" x1="782.5" x2="792.5" y1="1346.0059" y2="1350.0059"/><line style="stroke:#181818;stroke-width:1.0;" x1="781.5" x2="1471" y1="1346.0059" y2="1346.0059"/><text fill="#000000" font-family="sans-serif" font-size="13" lengthAdjust="spacing" textLength="164" x="798.5" y="1280.0215">ethToTokenTransferInput(</text><text fill="#000000" font-family="sans-serif" font-size="13" lengthAdjust="spacing" textLength="266" x="798.5" y="1295.332">min_tokens: 1,,141,743,764,729,465,728,</text><text fill="#000000" font-family="sans-serif" font-size="13" lengthAdjust="spacing" textLength="157" x="798.5" y="1310.6426">deadline: 1,614,330,479,</text><text fill="#000000" font-family="sans-serif" font-size="13" lengthAdjust="spacing" textLength="151" x="798.5" y="1325.9531">recipient: 0x1f0a..8202)</text><text fill="#000000" font-family="sans-serif" font-size="13" lengthAdjust="spacing" textLength="70" x="798.5" y="1341.2637">44,762 gas</text><polygon fill="#3471CD" points="1751,1401.9375,1761,1405.9375,1751,1409.9375,1755,1405.9375" style="stroke:#3471CD;stroke-width:1.0;"/><line style="stroke:#3471CD;stroke-width:1.0;" x1="1482" x2="1757" y1="1405.9375" y2="1405.9375"/><text fill="#000000" font-family="sans-serif" font-size="13" lengthAdjust="spacing" textLength="67" x="1489" y="1370.5742">balanceOf(</text><text fill="#000000" font-family="sans-serif" font-size="13" lengthAdjust="spacing" textLength="137" x="1489" y="1385.8848">owner: 0x9a7A..a621)</text><text fill="#000000" font-family="sans-serif" font-size="13" lengthAdjust="spacing" textLength="62" x="1489" y="1401.1953">1,331 gas</text><polygon fill="#3471CD" points="1493,1446.5586,1483,1450.5586,1493,1454.5586,1489,1450.5586" style="stroke:#3471CD;stroke-width:1.0;"/><line style="stroke:#3471CD;stroke-width:1.0;stroke-dasharray:2.0,2.0;" x1="1487" x2="1767" y1="1450.5586" y2="1450.5586"/><text fill="#000000" font-family="sans-serif" font-size="13" lengthAdjust="spacing" textLength="4" x="1499" y="1430.5059"> </text><text fill="#000000" font-family="sans-serif" font-size="13" lengthAdjust="spacing" textLength="188" x="1499" y="1445.8164">24,,888,132,810,848,863,562</text><polygon fill="#3471CD" points="1751,1521.8008,1761,1525.8008,1751,1529.8008,1755,1525.8008" style="stroke:#3471CD;stroke-width:1.0;"/><line style="stroke:#3471CD;stroke-width:1.0;" x1="1482" x2="1757" y1="1525.8008" y2="1525.8008"/><text fill="#000000" font-family="sans-serif" font-size="13" lengthAdjust="spacing" textLength="53" x="1489" y="1475.127">transfer(</text><text fill="#000000" font-family="sans-serif" font-size="13" lengthAdjust="spacing" textLength="109" x="1489" y="1490.4375">to: 0x1f0a..8202,</text><text fill="#000000" font-family="sans-serif" font-size="13" lengthAdjust="spacing" textLength="225" x="1489" y="1505.748">value: 1,,153,276,530,029,763,101)</text><text fill="#000000" font-family="sans-serif" font-size="13" lengthAdjust="spacing" textLength="70" x="1489" y="1521.0586">30,572 gas</text><polygon fill="#3471CD" points="1493,1566.4219,1483,1570.4219,1493,1574.4219,1489,1570.4219" style="stroke:#3471CD;stroke-width:1.0;"/><line style="stroke:#3471CD;stroke-width:1.0;stroke-dasharray:2.0,2.0;" x1="1487" x2="1767" y1="1570.4219" y2="1570.4219"/><text fill="#000000" font-family="sans-serif" font-size="13" lengthAdjust="spacing" textLength="4" x="1499" y="1550.3691"> </text><text fill="#000000" font-family="sans-serif" font-size="13" lengthAdjust="spacing" textLength="25" x="1499" y="1565.6797">true</text><line style="stroke:#181818;stroke-width:1.0;" x1="1470" x2="1460" y1="1615.043" y2="1611.043"/><line style="stroke:#181818;stroke-width:1.0;" x1="1470" x2="1460" y1="1615.043" y2="1619.043"/><line style="stroke:#181818;stroke-width:1.0;stroke-dasharray:2.0,2.0;" x1="776.5" x2="1471" y1="1615.043" y2="1615.043"/><text fill="#000000" font-family="sans-serif" font-size="13" lengthAdjust="spacing" textLength="4" x="783.5" y="1594.9902"> </text><text fill="#000000" font-family="sans-serif" font-size="13" lengthAdjust="spacing" textLength="209" x="783.5" y="1610.3008">out: 1,,153,276,530,029,763,101</text><path d="M781,1628.043 L781,1668.043 L872,1668.043 L872,1638.043 L862,1628.043 L781,1628.043 " fill="#FEFFDD" style="stroke:#181818;stroke-width:0.5;"/><path d="M862,1628.043 L862,1638.043 L872,1638.043 L862,1628.043 " fill="#FEFFDD" style="stroke:#181818;stroke-width:0.5;"/><text fill="#000000" font-family="sans-serif" font-size="13" lengthAdjust="spacing" textLength="4" x="787" y="1645.6113"> </text><text fill="#000000" font-family="sans-serif" font-size="13" lengthAdjust="spacing" textLength="70" x="787" y="1660.9219">12,859 gas</text><polygon fill="#3471CD" points="440.5,1706.2852,430.5,1710.2852,440.5,1714.2852,436.5,1710.2852" style="stroke:#3471CD;stroke-width:1.0;"/><line style="stroke:#3471CD;stroke-width:1.0;stroke-dasharray:2.0,2.0;" x1="434.5" x2="1476" y1="1710.2852" y2="1710.2852"/><text fill="#000000" font-family="sans-serif" font-size="13" lengthAdjust="spacing" textLength="4" x="446.5" y="1690.2324"> </text><text fill="#000000" font-family="sans-serif" font-size="13" lengthAdjust="spacing" textLength="209" x="446.5" y="1705.543">out: 1,,153,276,530,029,763,101</text><path d="M1482,1723.2852 L1482,1763.2852 L1565,1763.2852 L1565,1733.2852 L1555,1723.2852 L1482,1723.2852 " fill="#FEFFDD" style="stroke:#181818;stroke-width:0.5;"/><path d="M1555,1723.2852 L1555,1733.2852 L1565,1733.2852 L1555,1723.2852 " fill="#FEFFDD" style="stroke:#181818;stroke-width:0.5;"/><text fill="#000000" font-family="sans-serif" font-size="13" lengthAdjust="spacing" textLength="4" x="1488" y="1740.8535"> </text><text fill="#000000" font-family="sans-serif" font-size="13" lengthAdjust="spacing" textLength="62" x="1488" y="1756.1641">1,176 gas</text><line style="stroke:#181818;stroke-width:1.0;" x1="430.5" x2="440.5" y1="1805.5273" y2="1801.5273"/><line style="stroke:#181818;stroke-width:1.0;" x1="430.5" x2="440.5" y1="1805.5273" y2="1809.5273"/><line style="stroke:#181818;stroke-width:1.0;stroke-dasharray:2.0,2.0;" x1="429.5" x2="770.5" y1="1805.5273" y2="1805.5273"/><text fill="#000000" font-family="sans-serif" font-size="13" lengthAdjust="spacing" textLength="4" x="446.5" y="1785.4746"> </text><text fill="#000000" font-family="sans-serif" font-size="13" lengthAdjust="spacing" textLength="209" x="446.5" y="1800.7852">out: 1,,153,276,530,029,763,101</text><path d="M776,1818.5273 L776,1858.5273 L867,1858.5273 L867,1828.5273 L857,1818.5273 L776,1818.5273 " fill="#FEFFDD" style="stroke:#181818;stroke-width:0.5;"/><path d="M857,1818.5273 L857,1828.5273 L867,1828.5273 L857,1818.5273 " fill="#FEFFDD" style="stroke:#181818;stroke-width:0.5;"/><text fill="#000000" font-family="sans-serif" font-size="13" lengthAdjust="spacing" textLength="4" x="782" y="1836.0957"> </text><text fill="#000000" font-family="sans-serif" font-size="13" lengthAdjust="spacing" textLength="70" x="782" y="1851.4063">24,840 gas</text><polygon fill="#181818" points="93.5,1896.7695,83.5,1900.7695,93.5,1904.7695,89.5,1900.7695" style="stroke:#181818;stroke-width:1.0;"/><line style="stroke:#181818;stroke-width:1.0;stroke-dasharray:2.0,2.0;" x1="87.5" x2="423.5" y1="1900.7695" y2="1900.7695"/><text fill="#000000" font-family="sans-serif" font-size="13" lengthAdjust="spacing" textLength="4" x="99.5" y="1880.7168"> </text><text fill="#000000" font-family="sans-serif" font-size="13" lengthAdjust="spacing" textLength="209" x="99.5" y="1896.0273">out: 1,,153,276,530,029,763,101</text><path d="M429,1913.7695 L429,1953.7695 L520,1953.7695 L520,1923.7695 L510,1913.7695 L429,1913.7695 " fill="#FEFFDD" style="stroke:#181818;stroke-width:0.5;"/><path d="M510,1913.7695 L510,1923.7695 L520,1923.7695 L510,1913.7695 " fill="#FEFFDD" style="stroke:#181818;stroke-width:0.5;"/><text fill="#000000" font-family="sans-serif" font-size="13" lengthAdjust="spacing" textLength="4" x="435" y="1931.3379"> </text><text fill="#000000" font-family="sans-serif" font-size="13" lengthAdjust="spacing" textLength="70" x="435" y="1946.6484">23,318 gas</text><path d="M302,1964.3906 L302,2096.3906 L547,2096.3906 L547,1974.3906 L537,1964.3906 L302,1964.3906 " fill="#00FFFF" style="stroke:#181818;stroke-width:0.5;"/><path d="M537,1964.3906 L537,1974.3906 L547,1974.3906 L537,1964.3906 " fill="#00FFFF" style="stroke:#181818;stroke-width:0.5;"/><text fill="#000000" font-family="sans-serif" font-size="13" lengthAdjust="spacing" textLength="80" x="308" y="1981.959">EthPurchase:</text><text fill="#000000" font-family="sans-serif" font-size="13" lengthAdjust="spacing" textLength="131" x="316" y="1997.2695">buyer: 0x1f0a..8202,</text><text fill="#000000" font-family="sans-serif" font-size="13" lengthAdjust="spacing" textLength="153" x="316" y="2012.5801">tokens_sold: 1,000,000,</text><text fill="#000000" font-family="sans-serif" font-size="13" lengthAdjust="spacing" textLength="216" x="316" y="2027.8906">eth_bought: 623,714,973,654,422</text><text fill="#000000" font-family="sans-serif" font-size="13" lengthAdjust="spacing" textLength="80" x="308" y="2043.2012">EthPurchase:</text><text fill="#000000" font-family="sans-serif" font-size="13" lengthAdjust="spacing" textLength="131" x="316" y="2058.5117">buyer: 0x1f0a..8202,</text><text fill="#000000" font-family="sans-serif" font-size="13" lengthAdjust="spacing" textLength="153" x="316" y="2073.8223">tokens_sold: 1,000,000,</text><text fill="#000000" font-family="sans-serif" font-size="13" lengthAdjust="spacing" textLength="216" x="316" y="2089.1328">eth_bought: 623,714,973,654,422</text><path d="M1033,1964.3906 L1033,2035.3906 L1188,2035.3906 L1188,1974.3906 L1178,1964.3906 L1033,1964.3906 " fill="#00FFFF" style="stroke:#181818;stroke-width:0.5;"/><path d="M1178,1964.3906 L1178,1974.3906 L1188,1974.3906 L1178,1964.3906 " fill="#00FFFF" style="stroke:#181818;stroke-width:0.5;"/><text fill="#000000" font-family="sans-serif" font-size="13" lengthAdjust="spacing" textLength="56" x="1039" y="1981.959">Transfer:</text><text fill="#000000" font-family="sans-serif" font-size="13" lengthAdjust="spacing" textLength="126" x="1047" y="1997.2695">from: 0x1f0a..8202,</text><text fill="#000000" font-family="sans-serif" font-size="13" lengthAdjust="spacing" textLength="112" x="1047" y="2012.5801">to: 0x97de..8126,</text><text fill="#000000" font-family="sans-serif" font-size="13" lengthAdjust="spacing" textLength="105" x="1047" y="2027.8906">value: 1,000,000</text><path d="M1321,1964.3906 L1321,2096.3906 L1633,2096.3906 L1633,1974.3906 L1623,1964.3906 L1321,1964.3906 " fill="#00FFFF" style="stroke:#181818;stroke-width:0.5;"/><path d="M1623,1964.3906 L1623,1974.3906 L1633,1974.3906 L1623,1964.3906 " fill="#00FFFF" style="stroke:#181818;stroke-width:0.5;"/><text fill="#000000" font-family="sans-serif" font-size="13" lengthAdjust="spacing" textLength="99" x="1327" y="1981.959">TokenPurchase:</text><text fill="#000000" font-family="sans-serif" font-size="13" lengthAdjust="spacing" textLength="134" x="1335" y="1997.2695">buyer: 0x97de..8126,</text><text fill="#000000" font-family="sans-serif" font-size="13" lengthAdjust="spacing" textLength="202" x="1335" y="2012.5801">eth_sold: 623,714,973,654,422,</text><text fill="#000000" font-family="sans-serif" font-size="13" lengthAdjust="spacing" textLength="283" x="1335" y="2027.8906">tokens_bought: 1,,153,276,530,029,763,101</text><text fill="#000000" font-family="sans-serif" font-size="13" lengthAdjust="spacing" textLength="99" x="1327" y="2043.2012">TokenPurchase:</text><text fill="#000000" font-family="sans-serif" font-size="13" lengthAdjust="spacing" textLength="134" x="1335" y="2058.5117">buyer: 0x97de..8126,</text><text fill="#000000" font-family="sans-serif" font-size="13" lengthAdjust="spacing" textLength="202" x="1335" y="2073.8223">eth_sold: 623,714,973,654,422,</text><text fill="#000000" font-family="sans-serif" font-size="13" lengthAdjust="spacing" textLength="283" x="1335" y="2089.1328">tokens_bought: 1,,153,276,530,029,763,101</text><path d="M1643,1964.3906 L1643,2035.3906 L1893,2035.3906 L1893,1974.3906 L1883,1964.3906 L1643,1964.3906 " fill="#00FFFF" style="stroke:#181818;stroke-width:0.5;"/><path d="M1883,1964.3906 L1883,1974.3906 L1893,1974.3906 L1883,1964.3906 " fill="#00FFFF" style="stroke:#181818;stroke-width:0.5;"/><text fill="#000000" font-family="sans-serif" font-size="13" lengthAdjust="spacing" textLength="56" x="1649" y="1981.959">Transfer:</text><text fill="#000000" font-family="sans-serif" font-size="13" lengthAdjust="spacing" textLength="129" x="1657" y="1997.2695">from: 0x9a7A..a621,</text><text fill="#000000" font-family="sans-serif" font-size="13" lengthAdjust="spacing" textLength="109" x="1657" y="2012.5801">to: 0x1f0a..8202,</text><text fill="#000000" font-family="sans-serif" font-size="13" lengthAdjust="spacing" textLength="221" x="1657" y="2027.8906">value: 1,,153,276,530,029,763,101</text><!--SRC=[rLRRRkCs47tNLn2Rbop0kBn9eep0GEuDq6m3nCbBNHYKJ2V2EfGhoudpznrIrisNkkrkiUY38GylS-OCvmnPfCLC8xBofr4KyN2Qo3Y9eoYXF60JGWa9T908AGXBfFHZfXcNd2WPnpvdWaru96B68k9vYPeNQMRGgqgDqGL6yInBlY9A8-OBJZ4QlYmnOZwwrZ5YX554eZwHVShGpTtGKqcHvUWJMT4fKRsUX1MVa5eWQre3UNEL5scIpfKfxBeed6XOHrdWrbdJ6kZqzD6aYtSrHqzqC3WzFNxySdloH3_R_zNCrIfvKUPPerjJw7og4kqMRq8mweUztZGaqa5OqnhV4o8XIlHwOXBv3iAQrW28fu-vpiT9PeeSShEzKv5Ozdew5cLmrhI63UxX4bragIb3UxYyS85TfweOPb-rkS-prSUslpXaG3QKgioxDQs1MZkVsFQsI8LmN2fWj3m6CAtnFNCKJgYoJ6FY8Anf3O2uKx0EkTWSnjtPyBPawsRM4vvdiaAZx4tdTJbvNpAJw3wYs9VIkm6tztdg1fZe4NJphbCt-alwcXOm6aWiENT3ZmiziUiaPanwmnKKDEmZFK83T3NysTDcWYoWvzMrUpAewxEF2XlLC7F1FK0QRiryMHoFZ1jVZ1VPpBh7X13t6vdNr8pNat6sV7wnyM1C1SMXu3WC10vPX4NWmrUkr-lYfRLuP2PQJMQfSOm3AZ3d18immclOiPfCSY2n2Y_f6UJw_9ny7farH_Ii5bQVwPk2D5P4l5fn9uD1hOt_5JqYS4H9brujyYD9egkBynRDtuwu2Ed5vU-3MgTzzAoBgemhajj0c4BVwy1K3hnS5ylSZ4osBEm-qCzPAQSMS1kvqdaVnMgce8P_dGBkE7itsZ5isY80SmnDlGjSxVVgXc6Fhr9xrwjAacnfYYst53CITjtMxQ9AMyLBq11EGk8WWYydNRwRaqwdUGh7Yh9fY-h8C1pAm44UIWkqIxEOwlmwprvjPgRmjGoQUmMg0WgkoygElQdPKhTg4vX2uH4g_ba6DmBOYRy3VXTwW1cD_cQYYtofkzbr8t-PqiZVI6aherKdxoCGsrhFmpMrIjEDT0zeThy-SmsDFjLbbJKv0lR2nn5tpMTaeBiIwhfhquVMyNdrbTFjGpygQd0Ii4CzfGwvbV3gNkjgi15stHcS0ZcdNP1gUrq3J60ifSIKComfmLB07HPmx0ViK01L2HzNbTefthfICVKvPc60VKWCWTI5u9uI6o0C-24x4E5soUxtkL78pJdRQmfBlvJ9ltFMbBhhrM7m3RxQWS49mClvMmAh7mtWZ6DEoxkuzPwffNka_bWgxwfukL_cS1qjTDz3A5v-bCNJEZyOtdCLmqpxNWq0COIgZqAE0rzWmTX_xhzvE_s46f9reor9Ldgs4UpehYw0ZVOAOvlzTGzMhOmrbdinxwBSzMw9bNntq6hbfFt2sLC2Fm1oTohgX_R-j3TDgKbxzoWEDei6_4y0]--></g></svg>
