<?xml version="1.0" encoding="us-ascii" standalone="no"?><svg xmlns:xlink="http://www.w3.org/1999/xlink" xmlns="http://www.w3.org/2000/svg" contentStyleType="text/css" height="1270px" preserveAspectRatio="none" style="width:768px;height:1270px;background:#FFFFFF;" version="1.1" viewBox="0 0 768 1270" width="768px" zoomAndPan="magnify"><defs/><g><text fill="#000000" font-family="sans-serif" font-size="14" font-weight="bold" lengthAdjust="spacing" textLength="578" x="94.25" y="28.5352">0x6b3339f2576fb1eb158c58545917b7c699187d0979a814e530199b50d4a2b9e4</text><text fill="#000000" font-family="sans-serif" font-size="14" lengthAdjust="spacing" textLength="404" x="181.25" y="1258.5254">mainnet, block 17503453, Sun, 18 Jun 2023 01:39:23 GMT</text><rect fill="#FFFFFF" height="14" style="stroke:#181818;stroke-width:1.0;" width="10" x="51.5" y="900.6211"/><rect fill="#FFFFFF" height="740.627" style="stroke:#181818;stroke-width:1.0;" width="10" x="236.5" y="231.3047"/><rect fill="#FFFFFF" height="72.6211" style="stroke:#181818;stroke-width:1.0;" width="10" x="241.5" y="856"/><rect fill="#FFFFFF" height="59.9316" style="stroke:#181818;stroke-width:1.0;" width="10" x="408.5" y="260.6152"/><rect fill="#FFFFFF" height="251.1055" style="stroke:#181818;stroke-width:1.0;" width="10" x="408.5" y="515.6523"/><rect fill="#FFFFFF" height="29.3105" style="stroke:#181818;stroke-width:1.0;" width="10" x="551" y="395.7891"/><rect fill="#FFFFFF" height="29.3105" style="stroke:#181818;stroke-width:1.0;" width="10" x="551" y="649.5156"/><rect fill="#FFFFFF" height="29.3105" style="stroke:#181818;stroke-width:1.0;" width="10" x="693" y="575.584"/><rect fill="#FFFFFF" height="29.3105" style="stroke:#181818;stroke-width:1.0;" width="10" x="693" y="723.4473"/><rect fill="#FFFFFF" height="131.2422" style="stroke:#181818;stroke-width:1.0;" width="10" x="693" y="811.3789"/><line style="stroke:#181818;stroke-width:0.5;stroke-dasharray:5.0,5.0;" x1="56" x2="56" y1="123.4414" y2="1163.0371"/><line style="stroke:#181818;stroke-width:0.5;stroke-dasharray:5.0,5.0;" x1="241.5" x2="241.5" y1="123.4414" y2="1163.0371"/><line style="stroke:#181818;stroke-width:0.5;stroke-dasharray:5.0,5.0;" x1="413.5" x2="413.5" y1="123.4414" y2="1163.0371"/><line style="stroke:#181818;stroke-width:0.5;stroke-dasharray:5.0,5.0;" x1="555.5" x2="555.5" y1="123.4414" y2="1163.0371"/><line style="stroke:#181818;stroke-width:0.5;stroke-dasharray:5.0,5.0;" x1="697.5" x2="697.5" y1="123.4414" y2="1163.0371"/><text fill="#000000" font-family="sans-serif" font-size="14" lengthAdjust="spacing" textLength="97" x="5" y="120.4883">0x5a5b..b400</text><ellipse cx="56.5" cy="55.4531" fill="#E2E2F0" rx="8" ry="8" style="stroke:#181818;stroke-width:0.5;"/><path d="M56.5,63.4531 L56.5,90.4531 M43.5,71.4531 L69.5,71.4531 M56.5,90.4531 L43.5,105.4531 M56.5,90.4531 L69.5,105.4531 " fill="none" style="stroke:#181818;stroke-width:0.5;"/><text fill="#000000" font-family="sans-serif" font-size="14" lengthAdjust="spacing" textLength="97" x="5" y="1175.5723">0x5a5b..b400</text><ellipse cx="56.5" cy="1187.0254" fill="#E2E2F0" rx="8" ry="8" style="stroke:#181818;stroke-width:0.5;"/><path d="M56.5,1195.0254 L56.5,1222.0254 M43.5,1203.0254 L69.5,1203.0254 M56.5,1222.0254 L43.5,1237.0254 M56.5,1222.0254 L69.5,1237.0254 " fill="none" style="stroke:#181818;stroke-width:0.5;"/><rect fill="#E2E2F0" height="46.9766" rx="2.5" ry="2.5" style="stroke:#181818;stroke-width:0.5;" width="168" x="157.5" y="75.4648"/><text fill="#000000" font-family="sans-serif" font-size="14" font-style="italic" lengthAdjust="spacing" textLength="154" x="164.5" y="96">&#171;UniswapV2Router02&#187;</text><text fill="#000000" font-family="sans-serif" font-size="14" lengthAdjust="spacing" textLength="97" x="193" y="112.4883">0x7a25..488d</text><rect fill="#E2E2F0" height="46.9766" rx="2.5" ry="2.5" style="stroke:#181818;stroke-width:0.5;" width="168" x="157.5" y="1162.0371"/><text fill="#000000" font-family="sans-serif" font-size="14" font-style="italic" lengthAdjust="spacing" textLength="154" x="164.5" y="1182.5723">&#171;UniswapV2Router02&#187;</text><text fill="#000000" font-family="sans-serif" font-size="14" lengthAdjust="spacing" textLength="97" x="193" y="1199.0605">0x7a25..488d</text><rect fill="#E2E2F0" height="79.9531" rx="2.5" ry="2.5" style="stroke:#181818;stroke-width:0.5;" width="130" x="348.5" y="42.4883"/><text fill="#000000" font-family="sans-serif" font-size="14" font-style="italic" lengthAdjust="spacing" textLength="94" x="366.5" y="63.0234">&#171;Uniswap V2&#187;</text><text fill="#000000" font-family="sans-serif" font-size="14" font-style="italic" lengthAdjust="spacing" textLength="74" x="376.5" y="79.5117">&#171;(UNI-V2)&#187;</text><text fill="#000000" font-family="sans-serif" font-size="14" font-style="italic" lengthAdjust="spacing" textLength="116" x="355.5" y="96">&#171;UniswapV2Pair&#187;</text><text fill="#000000" font-family="sans-serif" font-size="14" lengthAdjust="spacing" textLength="93" x="367" y="112.4883">0xb4e1..c9dc</text><rect fill="#E2E2F0" height="79.9531" rx="2.5" ry="2.5" style="stroke:#181818;stroke-width:0.5;" width="130" x="348.5" y="1162.0371"/><text fill="#000000" font-family="sans-serif" font-size="14" font-style="italic" lengthAdjust="spacing" textLength="94" x="366.5" y="1182.5723">&#171;Uniswap V2&#187;</text><text fill="#000000" font-family="sans-serif" font-size="14" font-style="italic" lengthAdjust="spacing" textLength="74" x="376.5" y="1199.0605">&#171;(UNI-V2)&#187;</text><text fill="#000000" font-family="sans-serif" font-size="14" font-style="italic" lengthAdjust="spacing" textLength="116" x="355.5" y="1215.5488">&#171;UniswapV2Pair&#187;</text><text fill="#000000" font-family="sans-serif" font-size="14" lengthAdjust="spacing" textLength="93" x="367" y="1232.0371">0xb4e1..c9dc</text><rect fill="#E2E2F0" height="79.9531" rx="2.5" ry="2.5" style="stroke:#181818;stroke-width:0.5;" width="135" x="488.5" y="42.4883"/><text fill="#000000" font-family="sans-serif" font-size="14" font-style="italic" lengthAdjust="spacing" textLength="78" x="517" y="63.0234">&#171;USD Coin&#187;</text><text fill="#000000" font-family="sans-serif" font-size="14" font-style="italic" lengthAdjust="spacing" textLength="62" x="525" y="79.5117">&#171;(USDC)&#187;</text><text fill="#000000" font-family="sans-serif" font-size="14" font-style="italic" lengthAdjust="spacing" textLength="121" x="495.5" y="96">&#171;FiatTokenProxy&#187;</text><text fill="#000000" font-family="sans-serif" font-size="14" lengthAdjust="spacing" textLength="96" x="508" y="112.4883">0xa0b8..eb48</text><rect fill="#E2E2F0" height="79.9531" rx="2.5" ry="2.5" style="stroke:#181818;stroke-width:0.5;" width="135" x="488.5" y="1162.0371"/><text fill="#000000" font-family="sans-serif" font-size="14" font-style="italic" lengthAdjust="spacing" textLength="78" x="517" y="1182.5723">&#171;USD Coin&#187;</text><text fill="#000000" font-family="sans-serif" font-size="14" font-style="italic" lengthAdjust="spacing" textLength="62" x="525" y="1199.0605">&#171;(USDC)&#187;</text><text fill="#000000" font-family="sans-serif" font-size="14" font-style="italic" lengthAdjust="spacing" textLength="121" x="495.5" y="1215.5488">&#171;FiatTokenProxy&#187;</text><text fill="#000000" font-family="sans-serif" font-size="14" lengthAdjust="spacing" textLength="96" x="508" y="1232.0371">0xa0b8..eb48</text><rect fill="#E2E2F0" height="79.9531" rx="2.5" ry="2.5" style="stroke:#181818;stroke-width:0.5;" width="129" x="633.5" y="42.4883"/><text fill="#000000" font-family="sans-serif" font-size="14" font-style="italic" lengthAdjust="spacing" textLength="115" x="640.5" y="63.0234">&#171;Wrapped Ether&#187;</text><text fill="#000000" font-family="sans-serif" font-size="14" font-style="italic" lengthAdjust="spacing" textLength="63" x="666.5" y="79.5117">&#171;(WETH)&#187;</text><text fill="#000000" font-family="sans-serif" font-size="14" font-style="italic" lengthAdjust="spacing" textLength="62" x="667" y="96">&#171;WETH9&#187;</text><text fill="#000000" font-family="sans-serif" font-size="14" lengthAdjust="spacing" textLength="91" x="652.5" y="112.4883">0xc02a..6cc2</text><rect fill="#E2E2F0" height="79.9531" rx="2.5" ry="2.5" style="stroke:#181818;stroke-width:0.5;" width="129" x="633.5" y="1162.0371"/><text fill="#000000" font-family="sans-serif" font-size="14" font-style="italic" lengthAdjust="spacing" textLength="115" x="640.5" y="1182.5723">&#171;Wrapped Ether&#187;</text><text fill="#000000" font-family="sans-serif" font-size="14" font-style="italic" lengthAdjust="spacing" textLength="63" x="666.5" y="1199.0605">&#171;(WETH)&#187;</text><text fill="#000000" font-family="sans-serif" font-size="14" font-style="italic" lengthAdjust="spacing" textLength="62" x="667" y="1215.5488">&#171;WETH9&#187;</text><text fill="#000000" font-family="sans-serif" font-size="14" lengthAdjust="spacing" textLength="91" x="652.5" y="1232.0371">0xc02a..6cc2</text><rect fill="#FFFFFF" height="14" style="stroke:#181818;stroke-width:1.0;" width="10" x="51.5" y="900.6211"/><rect fill="#FFFFFF" height="740.627" style="stroke:#181818;stroke-width:1.0;" width="10" x="236.5" y="231.3047"/><rect fill="#FFFFFF" height="72.6211" style="stroke:#181818;stroke-width:1.0;" width="10" x="241.5" y="856"/><rect fill="#FFFFFF" height="59.9316" style="stroke:#181818;stroke-width:1.0;" width="10" x="408.5" y="260.6152"/><rect fill="#FFFFFF" height="251.1055" style="stroke:#181818;stroke-width:1.0;" width="10" x="408.5" y="515.6523"/><rect fill="#FFFFFF" height="29.3105" style="stroke:#181818;stroke-width:1.0;" width="10" x="551" y="395.7891"/><rect fill="#FFFFFF" height="29.3105" style="stroke:#181818;stroke-width:1.0;" width="10" x="551" y="649.5156"/><rect fill="#FFFFFF" height="29.3105" style="stroke:#181818;stroke-width:1.0;" width="10" x="693" y="575.584"/><rect fill="#FFFFFF" height="29.3105" style="stroke:#181818;stroke-width:1.0;" width="10" x="693" y="723.4473"/><rect fill="#FFFFFF" height="131.2422" style="stroke:#181818;stroke-width:1.0;" width="10" x="693" y="811.3789"/><polygon fill="#181818" points="224.5,227.3047,234.5,231.3047,224.5,235.3047,228.5,231.3047" style="stroke:#181818;stroke-width:1.0;"/><line style="stroke:#181818;stroke-width:1.0;" x1="56.5" x2="230.5" y1="231.3047" y2="231.3047"/><text fill="#000000" font-family="sans-serif" font-size="13" lengthAdjust="spacing" textLength="161" x="63.5" y="150.0098">swapExactTokensForETH(</text><text fill="#000000" font-family="sans-serif" font-size="13" lengthAdjust="spacing" textLength="64" x="71.5" y="165.3203">amountIn,</text><text fill="#000000" font-family="sans-serif" font-size="13" lengthAdjust="spacing" textLength="98" x="71.5" y="180.6309">amountOutMin,</text><text fill="#000000" font-family="sans-serif" font-size="13" lengthAdjust="spacing" textLength="32" x="71.5" y="195.9414">path,</text><text fill="#000000" font-family="sans-serif" font-size="13" lengthAdjust="spacing" textLength="17" x="71.5" y="211.252">to,</text><text fill="#000000" font-family="sans-serif" font-size="13" lengthAdjust="spacing" textLength="57" x="71.5" y="226.5625">deadline)</text><polygon fill="#181818" points="396.5,256.6152,406.5,260.6152,396.5,264.6152,400.5,260.6152" style="stroke:#181818;stroke-width:1.0;"/><line style="stroke:#181818;stroke-width:1.0;" x1="246.5" x2="402.5" y1="260.6152" y2="260.6152"/><text fill="#000000" font-family="sans-serif" font-size="13" lengthAdjust="spacing" textLength="83" x="253.5" y="255.873">getReserves()</text><polygon fill="#181818" points="257.5,316.5469,247.5,320.5469,257.5,324.5469,253.5,320.5469" style="stroke:#181818;stroke-width:1.0;"/><line style="stroke:#181818;stroke-width:1.0;stroke-dasharray:2.0,2.0;" x1="251.5" x2="412.5" y1="320.5469" y2="320.5469"/><text fill="#000000" font-family="sans-serif" font-size="13" lengthAdjust="spacing" textLength="64" x="263.5" y="285.1836">_reserve0,</text><text fill="#000000" font-family="sans-serif" font-size="13" lengthAdjust="spacing" textLength="64" x="263.5" y="300.4941">_reserve1,</text><text fill="#000000" font-family="sans-serif" font-size="13" lengthAdjust="spacing" textLength="138" x="263.5" y="315.8047">_blockTimestampLast</text><polygon fill="#181818" points="539,391.7891,549,395.7891,539,399.7891,543,395.7891" style="stroke:#181818;stroke-width:1.0;"/><line style="stroke:#181818;stroke-width:1.0;" x1="246.5" x2="545" y1="395.7891" y2="395.7891"/><text fill="#000000" font-family="sans-serif" font-size="13" lengthAdjust="spacing" textLength="85" x="253.5" y="345.1152">transferFrom(</text><text fill="#000000" font-family="sans-serif" font-size="13" lengthAdjust="spacing" textLength="34" x="261.5" y="360.4258">from,</text><text fill="#000000" font-family="sans-serif" font-size="13" lengthAdjust="spacing" textLength="17" x="261.5" y="375.7363">to,</text><text fill="#000000" font-family="sans-serif" font-size="13" lengthAdjust="spacing" textLength="37" x="261.5" y="391.0469">value)</text><polygon fill="#181818" points="257.5,421.0996,247.5,425.0996,257.5,429.0996,253.5,425.0996" style="stroke:#181818;stroke-width:1.0;"/><line style="stroke:#181818;stroke-width:1.0;stroke-dasharray:2.0,2.0;" x1="251.5" x2="555" y1="425.0996" y2="425.0996"/><text fill="#000000" font-family="sans-serif" font-size="13" lengthAdjust="spacing" textLength="5" x="263.5" y="420.3574">?</text><polygon fill="#181818" points="396.5,511.6523,406.5,515.6523,396.5,519.6523,400.5,515.6523" style="stroke:#181818;stroke-width:1.0;"/><line style="stroke:#181818;stroke-width:1.0;" x1="246.5" x2="402.5" y1="515.6523" y2="515.6523"/><text fill="#000000" font-family="sans-serif" font-size="13" lengthAdjust="spacing" textLength="36" x="253.5" y="449.668">swap(</text><text fill="#000000" font-family="sans-serif" font-size="13" lengthAdjust="spacing" textLength="83" x="261.5" y="464.9785">amount0Out,</text><text fill="#000000" font-family="sans-serif" font-size="13" lengthAdjust="spacing" textLength="83" x="261.5" y="480.2891">amount1Out,</text><text fill="#000000" font-family="sans-serif" font-size="13" lengthAdjust="spacing" textLength="17" x="261.5" y="495.5996">to,</text><text fill="#000000" font-family="sans-serif" font-size="13" lengthAdjust="spacing" textLength="31" x="261.5" y="510.9102">data)</text><polygon fill="#181818" points="681,571.584,691,575.584,681,579.584,685,575.584" style="stroke:#181818;stroke-width:1.0;"/><line style="stroke:#181818;stroke-width:1.0;" x1="418.5" x2="687" y1="575.584" y2="575.584"/><text fill="#000000" font-family="sans-serif" font-size="13" lengthAdjust="spacing" textLength="53" x="425.5" y="540.2207">transfer(</text><text fill="#000000" font-family="sans-serif" font-size="13" lengthAdjust="spacing" textLength="24" x="433.5" y="555.5313">dst,</text><text fill="#000000" font-family="sans-serif" font-size="13" lengthAdjust="spacing" textLength="29" x="433.5" y="570.8418">wad)</text><polygon fill="#181818" points="429.5,600.8945,419.5,604.8945,429.5,608.8945,425.5,604.8945" style="stroke:#181818;stroke-width:1.0;"/><line style="stroke:#181818;stroke-width:1.0;stroke-dasharray:2.0,2.0;" x1="423.5" x2="697" y1="604.8945" y2="604.8945"/><text fill="#000000" font-family="sans-serif" font-size="13" lengthAdjust="spacing" textLength="5" x="435.5" y="600.1523">?</text><polygon fill="#181818" points="539,645.5156,549,649.5156,539,653.5156,543,649.5156" style="stroke:#181818;stroke-width:1.0;"/><line style="stroke:#181818;stroke-width:1.0;" x1="418.5" x2="545" y1="649.5156" y2="649.5156"/><text fill="#000000" font-family="sans-serif" font-size="13" lengthAdjust="spacing" textLength="67" x="425.5" y="629.4629">balanceOf(</text><text fill="#000000" font-family="sans-serif" font-size="13" lengthAdjust="spacing" textLength="9" x="433.5" y="644.7734">?)</text><polygon fill="#181818" points="429.5,674.8262,419.5,678.8262,429.5,682.8262,425.5,678.8262" style="stroke:#181818;stroke-width:1.0;"/><line style="stroke:#181818;stroke-width:1.0;stroke-dasharray:2.0,2.0;" x1="423.5" x2="555" y1="678.8262" y2="678.8262"/><text fill="#000000" font-family="sans-serif" font-size="13" lengthAdjust="spacing" textLength="5" x="435.5" y="674.084">?</text><polygon fill="#181818" points="681,719.4473,691,723.4473,681,727.4473,685,723.4473" style="stroke:#181818;stroke-width:1.0;"/><line style="stroke:#181818;stroke-width:1.0;" x1="418.5" x2="687" y1="723.4473" y2="723.4473"/><text fill="#000000" font-family="sans-serif" font-size="13" lengthAdjust="spacing" textLength="67" x="425.5" y="703.3945">balanceOf(</text><text fill="#000000" font-family="sans-serif" font-size="13" lengthAdjust="spacing" textLength="9" x="433.5" y="718.7051">?)</text><polygon fill="#181818" points="429.5,748.7578,419.5,752.7578,429.5,756.7578,425.5,752.7578" style="stroke:#181818;stroke-width:1.0;"/><line style="stroke:#181818;stroke-width:1.0;stroke-dasharray:2.0,2.0;" x1="423.5" x2="697" y1="752.7578" y2="752.7578"/><text fill="#000000" font-family="sans-serif" font-size="13" lengthAdjust="spacing" textLength="5" x="435.5" y="748.0156">?</text><polygon fill="#181818" points="257.5,762.7578,247.5,766.7578,257.5,770.7578,253.5,766.7578" style="stroke:#181818;stroke-width:1.0;"/><line style="stroke:#181818;stroke-width:1.0;stroke-dasharray:2.0,2.0;" x1="251.5" x2="412.5" y1="766.7578" y2="766.7578"/><polygon fill="#181818" points="681,807.3789,691,811.3789,681,815.3789,685,811.3789" style="stroke:#181818;stroke-width:1.0;"/><line style="stroke:#181818;stroke-width:1.0;" x1="246.5" x2="687" y1="811.3789" y2="811.3789"/><text fill="#000000" font-family="sans-serif" font-size="13" lengthAdjust="spacing" textLength="61" x="253.5" y="791.3262">withdraw(</text><text fill="#000000" font-family="sans-serif" font-size="13" lengthAdjust="spacing" textLength="29" x="261.5" y="806.6367">wad)</text><polygon fill="#181818" points="262.5,852,252.5,856,262.5,860,258.5,856" style="stroke:#181818;stroke-width:1.0;"/><line style="stroke:#181818;stroke-width:1.0;" x1="256.5" x2="692" y1="856" y2="856"/><text fill="#000000" font-family="sans-serif" font-size="13" lengthAdjust="spacing" textLength="58" x="268.5" y="835.9473">fallback()</text><text fill="#000000" font-family="sans-serif" font-size="13" lengthAdjust="spacing" textLength="65" x="268.5" y="851.2578">0.527 ETH</text><polygon fill="#181818" points="72.5,896.6211,62.5,900.6211,72.5,904.6211,68.5,900.6211" style="stroke:#181818;stroke-width:1.0;"/><line style="stroke:#181818;stroke-width:1.0;" x1="66.5" x2="240.5" y1="900.6211" y2="900.6211"/><text fill="#000000" font-family="sans-serif" font-size="13" lengthAdjust="spacing" textLength="58" x="78.5" y="880.5684">fallback()</text><text fill="#000000" font-family="sans-serif" font-size="13" lengthAdjust="spacing" textLength="65" x="78.5" y="895.8789">0.527 ETH</text><polygon fill="#181818" points="229.5,910.6211,239.5,914.6211,229.5,918.6211,233.5,914.6211" style="stroke:#181818;stroke-width:1.0;"/><line style="stroke:#181818;stroke-width:1.0;stroke-dasharray:2.0,2.0;" x1="56.5" x2="235.5" y1="914.6211" y2="914.6211"/><polygon fill="#181818" points="681,924.6211,691,928.6211,681,932.6211,685,928.6211" style="stroke:#181818;stroke-width:1.0;"/><line style="stroke:#181818;stroke-width:1.0;stroke-dasharray:2.0,2.0;" x1="246.5" x2="687" y1="928.6211" y2="928.6211"/><polygon fill="#181818" points="257.5,938.6211,247.5,942.6211,257.5,946.6211,253.5,942.6211" style="stroke:#181818;stroke-width:1.0;"/><line style="stroke:#181818;stroke-width:1.0;stroke-dasharray:2.0,2.0;" x1="251.5" x2="697" y1="942.6211" y2="942.6211"/><polygon fill="#181818" points="67.5,967.9316,57.5,971.9316,67.5,975.9316,63.5,971.9316" style="stroke:#181818;stroke-width:1.0;"/><line style="stroke:#181818;stroke-width:1.0;stroke-dasharray:2.0,2.0;" x1="61.5" x2="240.5" y1="971.9316" y2="971.9316"/><text fill="#000000" font-family="sans-serif" font-size="13" lengthAdjust="spacing" textLength="55" x="73.5" y="967.1895">amounts</text><path d="M357,984.9316 L357,1147.9316 L469,1147.9316 L469,994.9316 L459,984.9316 L357,984.9316 " fill="#00FFFF" style="stroke:#181818;stroke-width:0.5;"/><path d="M459,984.9316 L459,994.9316 L469,994.9316 L459,984.9316 " fill="#00FFFF" style="stroke:#181818;stroke-width:0.5;"/><text fill="#000000" font-family="sans-serif" font-size="13" lengthAdjust="spacing" textLength="33" x="363" y="1002.5">Sync:</text><text fill="#000000" font-family="sans-serif" font-size="13" lengthAdjust="spacing" textLength="57" x="371" y="1017.8105">reserve0,</text><text fill="#000000" font-family="sans-serif" font-size="13" lengthAdjust="spacing" textLength="53" x="371" y="1033.1211">reserve1</text><text fill="#000000" font-family="sans-serif" font-size="13" lengthAdjust="spacing" textLength="36" x="363" y="1048.4316">Swap:</text><text fill="#000000" font-family="sans-serif" font-size="13" lengthAdjust="spacing" textLength="46" x="371" y="1063.7422">sender,</text><text fill="#000000" font-family="sans-serif" font-size="13" lengthAdjust="spacing" textLength="72" x="371" y="1079.0527">amount0In,</text><text fill="#000000" font-family="sans-serif" font-size="13" lengthAdjust="spacing" textLength="72" x="371" y="1094.3633">amount1In,</text><text fill="#000000" font-family="sans-serif" font-size="13" lengthAdjust="spacing" textLength="83" x="371" y="1109.6738">amount0Out,</text><text fill="#000000" font-family="sans-serif" font-size="13" lengthAdjust="spacing" textLength="83" x="371" y="1124.9844">amount1Out,</text><text fill="#000000" font-family="sans-serif" font-size="13" lengthAdjust="spacing" textLength="13" x="371" y="1140.2949">to</text><path d="M517,984.9316 L517,1055.9316 L594,1055.9316 L594,994.9316 L584,984.9316 L517,984.9316 " fill="#00FFFF" style="stroke:#181818;stroke-width:0.5;"/><path d="M584,984.9316 L584,994.9316 L594,994.9316 L584,984.9316 " fill="#00FFFF" style="stroke:#181818;stroke-width:0.5;"/><text fill="#000000" font-family="sans-serif" font-size="13" lengthAdjust="spacing" textLength="56" x="523" y="1002.5">Transfer:</text><text fill="#000000" font-family="sans-serif" font-size="13" lengthAdjust="spacing" textLength="34" x="531" y="1017.8105">from,</text><text fill="#000000" font-family="sans-serif" font-size="13" lengthAdjust="spacing" textLength="17" x="531" y="1033.1211">to,</text><text fill="#000000" font-family="sans-serif" font-size="13" lengthAdjust="spacing" textLength="33" x="531" y="1048.4316">value</text><path d="M651,984.9316 L651,1101.9316 L745,1101.9316 L745,994.9316 L735,984.9316 L651,984.9316 " fill="#00FFFF" style="stroke:#181818;stroke-width:0.5;"/><path d="M735,984.9316 L735,994.9316 L745,994.9316 L735,984.9316 " fill="#00FFFF" style="stroke:#181818;stroke-width:0.5;"/><text fill="#000000" font-family="sans-serif" font-size="13" lengthAdjust="spacing" textLength="56" x="657" y="1002.5">Transfer:</text><text fill="#000000" font-family="sans-serif" font-size="13" lengthAdjust="spacing" textLength="23" x="665" y="1017.8105">src,</text><text fill="#000000" font-family="sans-serif" font-size="13" lengthAdjust="spacing" textLength="24" x="665" y="1033.1211">dst,</text><text fill="#000000" font-family="sans-serif" font-size="13" lengthAdjust="spacing" textLength="25" x="665" y="1048.4316">wad</text><text fill="#000000" font-family="sans-serif" font-size="13" lengthAdjust="spacing" textLength="73" x="657" y="1063.7422">Withdrawal:</text><text fill="#000000" font-family="sans-serif" font-size="13" lengthAdjust="spacing" textLength="23" x="665" y="1079.0527">src,</text><text fill="#000000" font-family="sans-serif" font-size="13" lengthAdjust="spacing" textLength="25" x="665" y="1094.3633">wad</text><!--SRC=[XLJRKjim47tNLsZeIvW9hdoBxKm67hYqT4fXI80NPZfhMIaQ7DcLvIJyVIKblgGXy1BlYNRFdbqTMt6LCqpMezJt_MJkXT5edheiTSEOXd4OX8aRfH4T9OaRHnb9eWHYDs2XJzmaIKEI1U2b2GiGeb0gNWYy02u4KqESvWLznMuK4Zy8_I6UrcA8tHZ_g0NsYETZuexzPAo3RpSp15GL4X-HTGXXwZXfGCWHXWeRQ0169KZ5AIz1A9CNWHSwJX37cSqpq00ycJm8NgsWVFJkYrenIRpJq_-Bqu2vZaEJZDfY0mteYl6ZhffC1W-_hayUlMCJjxHtmEK-9P0qTXoM1h6bDD00GpczmES55nl2wSMvfRlYe6R5AnDtibY_xVDHue7ZZ2ZrB9-11cY-9mbboJ9ygLwOjAHFbxFlbjG4YUP2xTfEJjlLZB7HVxdMgxQDgwj2wlp1iy0O5aKjrBKOTk2sLZTyyqS9wiK6gh2FZ46MSy6EpRNn9IZMDa7jHUZEpLx7-0zJzwnYSicgGQ-gIK2IgLeA_5jkaeXkqyIkYQsPPdp1AWMByYTKQgTHi-qnLX94DMVoIXOBEzbS1ttjIyZhll2cj95mTc02ixlUgeXUJszPRWER3O62z-PidQQvcoljH5l-hDemhI3hCJJ9dSm-LJT_2Za8ocxdbklimq7V5tEOOL_3DjXPMSUqukebax0QV31Ew-iTeyuXprEWhuFZPq6Sq8kmDkedPcii_sbrazYgF_3St6o5a2XqLR5ailjGV86_DQ3fcw1ZX77hsYvsqLGRnXnMJ6HCcgEjS_HRrWAt3wodq8wba74KqWpOY43eA-x4j9-OZPZPraIcfpMzhJM_rl87IDhzxvDKaffguqTaxmyzRIyKyjwvEMYv_m40]--></g></svg>
