<?xml version="1.0" encoding="UTF-8" standalone="no"?><svg xmlns:xlink="http://www.w3.org/1999/xlink" xmlns="http://www.w3.org/2000/svg" contentStyleType="text/css" height="1825px" preserveAspectRatio="none" style="width:1289px;height:1825px;background:#FFFFFF;" version="1.1" viewBox="0 0 1289 1825" width="1289px" zoomAndPan="magnify"><defs/><g><text fill="#000000" font-family="sans-serif" font-size="14" font-weight="bold" lengthAdjust="spacing" textLength="578" x="354.25" y="28.5352">0x6b3339f2576fb1eb158c58545917b7c699187d0979a814e530199b50d4a2b9e4</text><text fill="#000000" font-family="sans-serif" font-size="14" lengthAdjust="spacing" textLength="404" x="441.25" y="1813.1523">mainnet, block 17503453, Sun, 18 Jun 2023 01:39:23 GMT</text><rect fill="#FFFFFF" height="14" style="stroke:#181818;stroke-width:1.0;" width="10" x="105.5" y="1308.0742"/><rect fill="#FFFFFF" height="1102.1484" style="stroke:#181818;stroke-width:1.0;" width="10" x="399.5" y="373.7891"/><rect fill="#FFFFFF" height="87.9316" style="stroke:#181818;stroke-width:1.0;" width="10" x="404.5" y="1248.1426"/><rect fill="#FFFFFF" height="75.2422" style="stroke:#181818;stroke-width:1.0;" width="10" x="721.5" y="418.4102"/><rect fill="#FFFFFF" height="342.9688" style="stroke:#181818;stroke-width:1.0;" width="10" x="721.5" y="734.6895"/><rect fill="#FFFFFF" height="44.6211" style="stroke:#181818;stroke-width:1.0;" width="10" x="963" y="584.2051"/><rect fill="#FFFFFF" height="44.6211" style="stroke:#181818;stroke-width:1.0;" width="10" x="963" y="914.4844"/><rect fill="#FFFFFF" height="44.6211" style="stroke:#181818;stroke-width:1.0;" width="10" x="1164.5" y="809.9316"/><rect fill="#FFFFFF" height="44.6211" style="stroke:#181818;stroke-width:1.0;" width="10" x="1164.5" y="1019.0371"/><rect fill="#FFFFFF" height="161.8633" style="stroke:#181818;stroke-width:1.0;" width="10" x="1164.5" y="1188.2109"/><line style="stroke:#181818;stroke-width:0.5;stroke-dasharray:5.0,5.0;" x1="110" x2="110" y1="123.4414" y2="1717.6641"/><line style="stroke:#181818;stroke-width:0.5;stroke-dasharray:5.0,5.0;" x1="404.5" x2="404.5" y1="123.4414" y2="1717.6641"/><line style="stroke:#181818;stroke-width:0.5;stroke-dasharray:5.0,5.0;" x1="726.5" x2="726.5" y1="123.4414" y2="1717.6641"/><line style="stroke:#181818;stroke-width:0.5;stroke-dasharray:5.0,5.0;" x1="967.5" x2="967.5" y1="123.4414" y2="1717.6641"/><line style="stroke:#181818;stroke-width:0.5;stroke-dasharray:5.0,5.0;" x1="1169" x2="1169" y1="123.4414" y2="1717.6641"/><text fill="#000000" font-family="sans-serif" font-size="14" lengthAdjust="spacing" textLength="97" x="59" y="120.4883">0x5a5b..b400</text><ellipse cx="110.5" cy="55.4531" fill="#E2E2F0" rx="8" ry="8" style="stroke:#181818;stroke-width:0.5;"/><path d="M110.5,63.4531 L110.5,90.4531 M97.5,71.4531 L123.5,71.4531 M110.5,90.4531 L97.5,105.4531 M110.5,90.4531 L123.5,105.4531 " fill="none" style="stroke:#181818;stroke-width:0.5;"/><text fill="#000000" font-family="sans-serif" font-size="14" lengthAdjust="spacing" textLength="97" x="59" y="1730.1992">0x5a5b..b400</text><ellipse cx="110.5" cy="1741.6523" fill="#E2E2F0" rx="8" ry="8" style="stroke:#181818;stroke-width:0.5;"/><path d="M110.5,1749.6523 L110.5,1776.6523 M97.5,1757.6523 L123.5,1757.6523 M110.5,1776.6523 L97.5,1791.6523 M110.5,1776.6523 L123.5,1791.6523 " fill="none" style="stroke:#181818;stroke-width:0.5;"/><rect fill="#E2E2F0" height="46.9766" rx="2.5" ry="2.5" style="stroke:#181818;stroke-width:0.5;" width="168" x="320.5" y="75.4648"/><text fill="#000000" font-family="sans-serif" font-size="14" font-style="italic" lengthAdjust="spacing" textLength="154" x="327.5" y="96">«UniswapV2Router02»</text><text fill="#000000" font-family="sans-serif" font-size="14" lengthAdjust="spacing" textLength="97" x="356" y="112.4883">0x7a25..488d</text><rect fill="#E2E2F0" height="46.9766" rx="2.5" ry="2.5" style="stroke:#181818;stroke-width:0.5;" width="168" x="320.5" y="1716.6641"/><text fill="#000000" font-family="sans-serif" font-size="14" font-style="italic" lengthAdjust="spacing" textLength="154" x="327.5" y="1737.1992">«UniswapV2Router02»</text><text fill="#000000" font-family="sans-serif" font-size="14" lengthAdjust="spacing" textLength="97" x="356" y="1753.6875">0x7a25..488d</text><rect fill="#E2E2F0" height="79.9531" rx="2.5" ry="2.5" style="stroke:#181818;stroke-width:0.5;" width="130" x="661.5" y="42.4883"/><text fill="#000000" font-family="sans-serif" font-size="14" font-style="italic" lengthAdjust="spacing" textLength="94" x="679.5" y="63.0234">«Uniswap V2»</text><text fill="#000000" font-family="sans-serif" font-size="14" font-style="italic" lengthAdjust="spacing" textLength="74" x="689.5" y="79.5117">«(UNI-V2)»</text><text fill="#000000" font-family="sans-serif" font-size="14" font-style="italic" lengthAdjust="spacing" textLength="116" x="668.5" y="96">«UniswapV2Pair»</text><text fill="#000000" font-family="sans-serif" font-size="14" lengthAdjust="spacing" textLength="93" x="680" y="112.4883">0xb4e1..c9dc</text><rect fill="#E2E2F0" height="79.9531" rx="2.5" ry="2.5" style="stroke:#181818;stroke-width:0.5;" width="130" x="661.5" y="1716.6641"/><text fill="#000000" font-family="sans-serif" font-size="14" font-style="italic" lengthAdjust="spacing" textLength="94" x="679.5" y="1737.1992">«Uniswap V2»</text><text fill="#000000" font-family="sans-serif" font-size="14" font-style="italic" lengthAdjust="spacing" textLength="74" x="689.5" y="1753.6875">«(UNI-V2)»</text><text fill="#000000" font-family="sans-serif" font-size="14" font-style="italic" lengthAdjust="spacing" textLength="116" x="668.5" y="1770.1758">«UniswapV2Pair»</text><text fill="#000000" font-family="sans-serif" font-size="14" lengthAdjust="spacing" textLength="93" x="680" y="1786.6641">0xb4e1..c9dc</text><rect fill="#E2E2F0" height="79.9531" rx="2.5" ry="2.5" style="stroke:#181818;stroke-width:0.5;" width="135" x="900.5" y="42.4883"/><text fill="#000000" font-family="sans-serif" font-size="14" font-style="italic" lengthAdjust="spacing" textLength="78" x="929" y="63.0234">«USD Coin»</text><text fill="#000000" font-family="sans-serif" font-size="14" font-style="italic" lengthAdjust="spacing" textLength="62" x="937" y="79.5117">«(USDC)»</text><text fill="#000000" font-family="sans-serif" font-size="14" font-style="italic" lengthAdjust="spacing" textLength="121" x="907.5" y="96">«FiatTokenProxy»</text><text fill="#000000" font-family="sans-serif" font-size="14" lengthAdjust="spacing" textLength="96" x="920" y="112.4883">0xa0b8..eb48</text><rect fill="#E2E2F0" height="79.9531" rx="2.5" ry="2.5" style="stroke:#181818;stroke-width:0.5;" width="135" x="900.5" y="1716.6641"/><text fill="#000000" font-family="sans-serif" font-size="14" font-style="italic" lengthAdjust="spacing" textLength="78" x="929" y="1737.1992">«USD Coin»</text><text fill="#000000" font-family="sans-serif" font-size="14" font-style="italic" lengthAdjust="spacing" textLength="62" x="937" y="1753.6875">«(USDC)»</text><text fill="#000000" font-family="sans-serif" font-size="14" font-style="italic" lengthAdjust="spacing" textLength="121" x="907.5" y="1770.1758">«FiatTokenProxy»</text><text fill="#000000" font-family="sans-serif" font-size="14" lengthAdjust="spacing" textLength="96" x="920" y="1786.6641">0xa0b8..eb48</text><rect fill="#E2E2F0" height="79.9531" rx="2.5" ry="2.5" style="stroke:#181818;stroke-width:0.5;" width="129" x="1105" y="42.4883"/><text fill="#000000" font-family="sans-serif" font-size="14" font-style="italic" lengthAdjust="spacing" textLength="115" x="1112" y="63.0234">«Wrapped Ether»</text><text fill="#000000" font-family="sans-serif" font-size="14" font-style="italic" lengthAdjust="spacing" textLength="63" x="1138" y="79.5117">«(WETH)»</text><text fill="#000000" font-family="sans-serif" font-size="14" font-style="italic" lengthAdjust="spacing" textLength="62" x="1138.5" y="96">«WETH9»</text><text fill="#000000" font-family="sans-serif" font-size="14" lengthAdjust="spacing" textLength="91" x="1124" y="112.4883">0xc02a..6cc2</text><rect fill="#E2E2F0" height="79.9531" rx="2.5" ry="2.5" style="stroke:#181818;stroke-width:0.5;" width="129" x="1105" y="1716.6641"/><text fill="#000000" font-family="sans-serif" font-size="14" font-style="italic" lengthAdjust="spacing" textLength="115" x="1112" y="1737.1992">«Wrapped Ether»</text><text fill="#000000" font-family="sans-serif" font-size="14" font-style="italic" lengthAdjust="spacing" textLength="63" x="1138" y="1753.6875">«(WETH)»</text><text fill="#000000" font-family="sans-serif" font-size="14" font-style="italic" lengthAdjust="spacing" textLength="62" x="1138.5" y="1770.1758">«WETH9»</text><text fill="#000000" font-family="sans-serif" font-size="14" lengthAdjust="spacing" textLength="91" x="1124" y="1786.6641">0xc02a..6cc2</text><rect fill="#FFFFFF" height="14" style="stroke:#181818;stroke-width:1.0;" width="10" x="105.5" y="1308.0742"/><rect fill="#FFFFFF" height="1102.1484" style="stroke:#181818;stroke-width:1.0;" width="10" x="399.5" y="373.7891"/><rect fill="#FFFFFF" height="87.9316" style="stroke:#181818;stroke-width:1.0;" width="10" x="404.5" y="1248.1426"/><rect fill="#FFFFFF" height="75.2422" style="stroke:#181818;stroke-width:1.0;" width="10" x="721.5" y="418.4102"/><rect fill="#FFFFFF" height="342.9688" style="stroke:#181818;stroke-width:1.0;" width="10" x="721.5" y="734.6895"/><rect fill="#FFFFFF" height="44.6211" style="stroke:#181818;stroke-width:1.0;" width="10" x="963" y="584.2051"/><rect fill="#FFFFFF" height="44.6211" style="stroke:#181818;stroke-width:1.0;" width="10" x="963" y="914.4844"/><rect fill="#FFFFFF" height="44.6211" style="stroke:#181818;stroke-width:1.0;" width="10" x="1164.5" y="809.9316"/><rect fill="#FFFFFF" height="44.6211" style="stroke:#181818;stroke-width:1.0;" width="10" x="1164.5" y="1019.0371"/><rect fill="#FFFFFF" height="161.8633" style="stroke:#181818;stroke-width:1.0;" width="10" x="1164.5" y="1188.2109"/><path d="M5,138.4414 L5,224.4414 L217,224.4414 L217,148.4414 L207,138.4414 L5,138.4414 " fill="#FEFFDD" style="stroke:#181818;stroke-width:0.5;"/><path d="M207,138.4414 L207,148.4414 L217,148.4414 L207,138.4414 " fill="#FEFFDD" style="stroke:#181818;stroke-width:0.5;"/><text fill="#000000" font-family="sans-serif" font-size="13" lengthAdjust="spacing" textLength="84" x="11" y="156.0098">Nonce: 3,156</text><text fill="#000000" font-family="sans-serif" font-size="13" lengthAdjust="spacing" textLength="191" x="11" y="171.3203">Gas Price: 17.168481257 Gwei</text><text fill="#000000" font-family="sans-serif" font-size="13" lengthAdjust="spacing" textLength="119" x="11" y="186.6309">Gas Limit: 189,192</text><text fill="#000000" font-family="sans-serif" font-size="13" lengthAdjust="spacing" textLength="118" x="11" y="201.9414">Gas Used: 133,078</text><text fill="#000000" font-family="sans-serif" font-size="13" lengthAdjust="spacing" textLength="114" x="11" y="217.252">Tx Fee: 0.002 ETH</text><polygon fill="#181818" points="387.5,369.7891,397.5,373.7891,387.5,377.7891,391.5,373.7891" style="stroke:#181818;stroke-width:1.0;"/><line style="stroke:#181818;stroke-width:1.0;" x1="110.5" x2="393.5" y1="373.7891" y2="373.7891"/><text fill="#000000" font-family="sans-serif" font-size="13" lengthAdjust="spacing" textLength="161" x="117.5" y="246.5625">swapExactTokensForETH(</text><text fill="#000000" font-family="sans-serif" font-size="13" lengthAdjust="spacing" textLength="152" x="117.5" y="261.873">amountIn: 911,892,000,</text><text fill="#000000" font-family="sans-serif" font-size="13" lengthAdjust="spacing" textLength="270" x="117.5" y="277.1836">amountOutMin: 500,546,637,720,000,000,</text><text fill="#000000" font-family="sans-serif" font-size="13" lengthAdjust="spacing" textLength="40" x="117.5" y="292.4941">path: [</text><text fill="#000000" font-family="sans-serif" font-size="13" lengthAdjust="spacing" textLength="107" x="125.5" y="307.8047">0: 0xA0b8..eB48,</text><text fill="#000000" font-family="sans-serif" font-size="13" lengthAdjust="spacing" textLength="112" x="125.5" y="323.1152">1: 0xC02a..6Cc2],</text><text fill="#000000" font-family="sans-serif" font-size="13" lengthAdjust="spacing" textLength="111" x="117.5" y="338.4258">to: 0x5a5B..b400,</text><text fill="#000000" font-family="sans-serif" font-size="13" lengthAdjust="spacing" textLength="157" x="117.5" y="353.7363">deadline: 1,687,053,553)</text><text fill="#000000" font-family="sans-serif" font-size="13" lengthAdjust="spacing" textLength="78" x="117.5" y="369.0469">133,078 gas</text><polygon fill="#181818" points="709.5,414.4102,719.5,418.4102,709.5,422.4102,713.5,418.4102" style="stroke:#181818;stroke-width:1.0;"/><line style="stroke:#181818;stroke-width:1.0;" x1="409.5" x2="715.5" y1="418.4102" y2="418.4102"/><text fill="#000000" font-family="sans-serif" font-size="13" lengthAdjust="spacing" textLength="83" x="416.5" y="398.3574">getReserves()</text><text fill="#000000" font-family="sans-serif" font-size="13" lengthAdjust="spacing" textLength="62" x="416.5" y="413.668">2,504 gas</text><polygon fill="#181818" points="420.5,489.6523,410.5,493.6523,420.5,497.6523,416.5,493.6523" style="stroke:#181818;stroke-width:1.0;"/><line style="stroke:#181818;stroke-width:1.0;stroke-dasharray:2.0,2.0;" x1="414.5" x2="725.5" y1="493.6523" y2="493.6523"/><text fill="#000000" font-family="sans-serif" font-size="13" lengthAdjust="spacing" textLength="4" x="426.5" y="442.9785"> </text><text fill="#000000" font-family="sans-serif" font-size="13" lengthAdjust="spacing" textLength="200" x="426.5" y="458.2891">_reserve0: 28,285,931,932,394,</text><text fill="#000000" font-family="sans-serif" font-size="13" lengthAdjust="spacing" textLength="288" x="426.5" y="473.5996">_reserve1: 16,392,,927,678,218,970,778,728,</text><text fill="#000000" font-family="sans-serif" font-size="13" lengthAdjust="spacing" textLength="238" x="426.5" y="488.9102">_blockTimestampLast: 1,687,052,231</text><polygon fill="#181818" points="951,580.2051,961,584.2051,951,588.2051,955,584.2051" style="stroke:#181818;stroke-width:1.0;"/><line style="stroke:#181818;stroke-width:1.0;" x1="409.5" x2="957" y1="584.2051" y2="584.2051"/><text fill="#000000" font-family="sans-serif" font-size="13" lengthAdjust="spacing" textLength="85" x="416.5" y="518.2207">transferFrom(</text><text fill="#000000" font-family="sans-serif" font-size="13" lengthAdjust="spacing" textLength="128" x="416.5" y="533.5313">from: 0x5a5B..b400,</text><text fill="#000000" font-family="sans-serif" font-size="13" lengthAdjust="spacing" textLength="113" x="416.5" y="548.8418">to: 0xB4e1..C9Dc,</text><text fill="#000000" font-family="sans-serif" font-size="13" lengthAdjust="spacing" textLength="125" x="416.5" y="564.1523">value: 911,892,000)</text><text fill="#000000" font-family="sans-serif" font-size="13" lengthAdjust="spacing" textLength="70" x="416.5" y="579.4629">34,892 gas</text><polygon fill="#181818" points="420.5,624.8262,410.5,628.8262,420.5,632.8262,416.5,628.8262" style="stroke:#181818;stroke-width:1.0;"/><line style="stroke:#181818;stroke-width:1.0;stroke-dasharray:2.0,2.0;" x1="414.5" x2="967" y1="628.8262" y2="628.8262"/><text fill="#000000" font-family="sans-serif" font-size="13" lengthAdjust="spacing" textLength="4" x="426.5" y="608.7734"> </text><text fill="#000000" font-family="sans-serif" font-size="13" lengthAdjust="spacing" textLength="25" x="426.5" y="624.084">true</text><polygon fill="#181818" points="709.5,730.6895,719.5,734.6895,709.5,738.6895,713.5,734.6895" style="stroke:#181818;stroke-width:1.0;"/><line style="stroke:#181818;stroke-width:1.0;" x1="409.5" x2="715.5" y1="734.6895" y2="734.6895"/><text fill="#000000" font-family="sans-serif" font-size="13" lengthAdjust="spacing" textLength="36" x="416.5" y="653.3945">swap(</text><text fill="#000000" font-family="sans-serif" font-size="13" lengthAdjust="spacing" textLength="99" x="416.5" y="668.7051">amount0Out: 0,</text><text fill="#000000" font-family="sans-serif" font-size="13" lengthAdjust="spacing" textLength="255" x="416.5" y="684.0156">amount1Out: 526,878,693,198,147,875,</text><text fill="#000000" font-family="sans-serif" font-size="13" lengthAdjust="spacing" textLength="114" x="416.5" y="699.3262">to: 0x7a25..488D,</text><text fill="#000000" font-family="sans-serif" font-size="13" lengthAdjust="spacing" textLength="55" x="416.5" y="714.6367">data: 0x)</text><text fill="#000000" font-family="sans-serif" font-size="13" lengthAdjust="spacing" textLength="70" x="416.5" y="729.9473">65,634 gas</text><polygon fill="#181818" points="1152.5,805.9316,1162.5,809.9316,1152.5,813.9316,1156.5,809.9316" style="stroke:#181818;stroke-width:1.0;"/><line style="stroke:#181818;stroke-width:1.0;" x1="731.5" x2="1158.5" y1="809.9316" y2="809.9316"/><text fill="#000000" font-family="sans-serif" font-size="13" lengthAdjust="spacing" textLength="53" x="738.5" y="759.2578">transfer(</text><text fill="#000000" font-family="sans-serif" font-size="13" lengthAdjust="spacing" textLength="121" x="738.5" y="774.5684">dst: 0x7a25..488D,</text><text fill="#000000" font-family="sans-serif" font-size="13" lengthAdjust="spacing" textLength="201" x="738.5" y="789.8789">wad: 526,878,693,198,147,875)</text><text fill="#000000" font-family="sans-serif" font-size="13" lengthAdjust="spacing" textLength="70" x="738.5" y="805.1895">29,962 gas</text><polygon fill="#181818" points="742.5,850.5527,732.5,854.5527,742.5,858.5527,738.5,854.5527" style="stroke:#181818;stroke-width:1.0;"/><line style="stroke:#181818;stroke-width:1.0;stroke-dasharray:2.0,2.0;" x1="736.5" x2="1168.5" y1="854.5527" y2="854.5527"/><text fill="#000000" font-family="sans-serif" font-size="13" lengthAdjust="spacing" textLength="4" x="748.5" y="834.5"> </text><text fill="#000000" font-family="sans-serif" font-size="13" lengthAdjust="spacing" textLength="25" x="748.5" y="849.8105">true</text><polygon fill="#181818" points="951,910.4844,961,914.4844,951,918.4844,955,914.4844" style="stroke:#181818;stroke-width:1.0;"/><line style="stroke:#181818;stroke-width:1.0;" x1="731.5" x2="957" y1="914.4844" y2="914.4844"/><text fill="#000000" font-family="sans-serif" font-size="13" lengthAdjust="spacing" textLength="67" x="738.5" y="879.1211">balanceOf(</text><text fill="#000000" font-family="sans-serif" font-size="13" lengthAdjust="spacing" textLength="92" x="738.5" y="894.4316">0xB4e1..C9Dc)</text><text fill="#000000" font-family="sans-serif" font-size="13" lengthAdjust="spacing" textLength="62" x="738.5" y="909.7422">1,315 gas</text><polygon fill="#181818" points="742.5,955.1055,732.5,959.1055,742.5,963.1055,738.5,959.1055" style="stroke:#181818;stroke-width:1.0;"/><line style="stroke:#181818;stroke-width:1.0;stroke-dasharray:2.0,2.0;" x1="736.5" x2="967" y1="959.1055" y2="959.1055"/><text fill="#000000" font-family="sans-serif" font-size="13" lengthAdjust="spacing" textLength="4" x="748.5" y="939.0527"> </text><text fill="#000000" font-family="sans-serif" font-size="13" lengthAdjust="spacing" textLength="128" x="748.5" y="954.3633">28,286,843,824,394</text><polygon fill="#181818" points="1152.5,1015.0371,1162.5,1019.0371,1152.5,1023.0371,1156.5,1019.0371" style="stroke:#181818;stroke-width:1.0;"/><line style="stroke:#181818;stroke-width:1.0;" x1="731.5" x2="1158.5" y1="1019.0371" y2="1019.0371"/><text fill="#000000" font-family="sans-serif" font-size="13" lengthAdjust="spacing" textLength="67" x="738.5" y="983.6738">balanceOf(</text><text fill="#000000" font-family="sans-serif" font-size="13" lengthAdjust="spacing" textLength="92" x="738.5" y="998.9844">0xB4e1..C9Dc)</text><text fill="#000000" font-family="sans-serif" font-size="13" lengthAdjust="spacing" textLength="50" x="738.5" y="1014.2949">534 gas</text><polygon fill="#181818" points="742.5,1059.6582,732.5,1063.6582,742.5,1067.6582,738.5,1063.6582" style="stroke:#181818;stroke-width:1.0;"/><line style="stroke:#181818;stroke-width:1.0;stroke-dasharray:2.0,2.0;" x1="736.5" x2="1168.5" y1="1063.6582" y2="1063.6582"/><text fill="#000000" font-family="sans-serif" font-size="13" lengthAdjust="spacing" textLength="4" x="748.5" y="1043.6055"> </text><text fill="#000000" font-family="sans-serif" font-size="13" lengthAdjust="spacing" textLength="216" x="748.5" y="1058.916">16,392,,400,799,525,772,630,853</text><polygon fill="#181818" points="420.5,1073.6582,410.5,1077.6582,420.5,1081.6582,416.5,1077.6582" style="stroke:#181818;stroke-width:1.0;"/><line style="stroke:#181818;stroke-width:1.0;stroke-dasharray:2.0,2.0;" x1="414.5" x2="725.5" y1="1077.6582" y2="1077.6582"/><path d="M731,1090.6582 L731,1130.6582 L822,1130.6582 L822,1100.6582 L812,1090.6582 L731,1090.6582 " fill="#FEFFDD" style="stroke:#181818;stroke-width:0.5;"/><path d="M812,1090.6582 L812,1100.6582 L822,1100.6582 L812,1090.6582 " fill="#FEFFDD" style="stroke:#181818;stroke-width:0.5;"/><text fill="#000000" font-family="sans-serif" font-size="13" lengthAdjust="spacing" textLength="4" x="737" y="1108.2266"> </text><text fill="#000000" font-family="sans-serif" font-size="13" lengthAdjust="spacing" textLength="70" x="737" y="1123.5371">33,823 gas</text><polygon fill="#181818" points="1152.5,1184.2109,1162.5,1188.2109,1152.5,1192.2109,1156.5,1188.2109" style="stroke:#181818;stroke-width:1.0;"/><line style="stroke:#181818;stroke-width:1.0;" x1="409.5" x2="1158.5" y1="1188.2109" y2="1188.2109"/><text fill="#000000" font-family="sans-serif" font-size="13" lengthAdjust="spacing" textLength="61" x="416.5" y="1152.8477">withdraw(</text><text fill="#000000" font-family="sans-serif" font-size="13" lengthAdjust="spacing" textLength="201" x="416.5" y="1168.1582">wad: 526,878,693,198,147,875)</text><text fill="#000000" font-family="sans-serif" font-size="13" lengthAdjust="spacing" textLength="62" x="416.5" y="1183.4688">9,223 gas</text><polygon fill="#181818" points="425.5,1244.1426,415.5,1248.1426,425.5,1252.1426,421.5,1248.1426" style="stroke:#181818;stroke-width:1.0;"/><line style="stroke:#181818;stroke-width:1.0;" x1="419.5" x2="1163.5" y1="1248.1426" y2="1248.1426"/><text fill="#000000" font-family="sans-serif" font-size="13" lengthAdjust="spacing" textLength="58" x="431.5" y="1212.7793">fallback()</text><text fill="#000000" font-family="sans-serif" font-size="13" lengthAdjust="spacing" textLength="42" x="431.5" y="1228.0898">83 gas</text><text fill="#000000" font-family="sans-serif" font-size="13" lengthAdjust="spacing" textLength="65" x="431.5" y="1243.4004">0.527 ETH</text><polygon fill="#181818" points="126.5,1304.0742,116.5,1308.0742,126.5,1312.0742,122.5,1308.0742" style="stroke:#181818;stroke-width:1.0;"/><line style="stroke:#181818;stroke-width:1.0;" x1="120.5" x2="403.5" y1="1308.0742" y2="1308.0742"/><text fill="#000000" font-family="sans-serif" font-size="13" lengthAdjust="spacing" textLength="58" x="132.5" y="1272.7109">fallback()</text><text fill="#000000" font-family="sans-serif" font-size="13" lengthAdjust="spacing" textLength="34" x="132.5" y="1288.0215">0 gas</text><text fill="#000000" font-family="sans-serif" font-size="13" lengthAdjust="spacing" textLength="65" x="132.5" y="1303.332">0.527 ETH</text><polygon fill="#181818" points="392.5,1318.0742,402.5,1322.0742,392.5,1326.0742,396.5,1322.0742" style="stroke:#181818;stroke-width:1.0;"/><line style="stroke:#181818;stroke-width:1.0;stroke-dasharray:2.0,2.0;" x1="110.5" x2="398.5" y1="1322.0742" y2="1322.0742"/><polygon fill="#181818" points="1152.5,1332.0742,1162.5,1336.0742,1152.5,1340.0742,1156.5,1336.0742" style="stroke:#181818;stroke-width:1.0;"/><line style="stroke:#181818;stroke-width:1.0;stroke-dasharray:2.0,2.0;" x1="409.5" x2="1158.5" y1="1336.0742" y2="1336.0742"/><polygon fill="#181818" points="420.5,1346.0742,410.5,1350.0742,420.5,1354.0742,416.5,1350.0742" style="stroke:#181818;stroke-width:1.0;"/><line style="stroke:#181818;stroke-width:1.0;stroke-dasharray:2.0,2.0;" x1="414.5" x2="1168.5" y1="1350.0742" y2="1350.0742"/><path d="M1174,1363.0742 L1174,1403.0742 L1257,1403.0742 L1257,1373.0742 L1247,1363.0742 L1174,1363.0742 " fill="#FEFFDD" style="stroke:#181818;stroke-width:0.5;"/><path d="M1247,1363.0742 L1247,1373.0742 L1257,1373.0742 L1247,1363.0742 " fill="#FEFFDD" style="stroke:#181818;stroke-width:0.5;"/><text fill="#000000" font-family="sans-serif" font-size="13" lengthAdjust="spacing" textLength="4" x="1180" y="1380.6426"> </text><text fill="#000000" font-family="sans-serif" font-size="13" lengthAdjust="spacing" textLength="62" x="1180" y="1395.9531">9,140 gas</text><polygon fill="#181818" points="121.5,1471.9375,111.5,1475.9375,121.5,1479.9375,117.5,1475.9375" style="stroke:#181818;stroke-width:1.0;"/><line style="stroke:#181818;stroke-width:1.0;stroke-dasharray:2.0,2.0;" x1="115.5" x2="403.5" y1="1475.9375" y2="1475.9375"/><text fill="#000000" font-family="sans-serif" font-size="13" lengthAdjust="spacing" textLength="4" x="127.5" y="1425.2637"> </text><text fill="#000000" font-family="sans-serif" font-size="13" lengthAdjust="spacing" textLength="67" x="127.5" y="1440.5742">amounts: [</text><text fill="#000000" font-family="sans-serif" font-size="13" lengthAdjust="spacing" textLength="100" x="135.5" y="1455.8848">0: 911,892,000,</text><text fill="#000000" font-family="sans-serif" font-size="13" lengthAdjust="spacing" textLength="184" x="135.5" y="1471.1953">1: 526,878,693,198,147,875]</text><path d="M409,1488.9375 L409,1528.9375 L500,1528.9375 L500,1498.9375 L490,1488.9375 L409,1488.9375 " fill="#FEFFDD" style="stroke:#181818;stroke-width:0.5;"/><path d="M490,1488.9375 L490,1498.9375 L500,1498.9375 L490,1488.9375 " fill="#FEFFDD" style="stroke:#181818;stroke-width:0.5;"/><text fill="#000000" font-family="sans-serif" font-size="13" lengthAdjust="spacing" textLength="4" x="415" y="1506.5059"> </text><text fill="#000000" font-family="sans-serif" font-size="13" lengthAdjust="spacing" textLength="70" x="415" y="1521.8164">20,825 gas</text><path d="M573,1539.5586 L573,1702.5586 L879,1702.5586 L879,1549.5586 L869,1539.5586 L573,1539.5586 " fill="#00FFFF" style="stroke:#181818;stroke-width:0.5;"/><path d="M869,1539.5586 L869,1549.5586 L879,1549.5586 L869,1539.5586 " fill="#00FFFF" style="stroke:#181818;stroke-width:0.5;"/><text fill="#000000" font-family="sans-serif" font-size="13" lengthAdjust="spacing" textLength="33" x="579" y="1557.127">Sync:</text><text fill="#000000" font-family="sans-serif" font-size="13" lengthAdjust="spacing" textLength="193" x="587" y="1572.4375">reserve0: 28,286,843,824,394,</text><text fill="#000000" font-family="sans-serif" font-size="13" lengthAdjust="spacing" textLength="277" x="587" y="1587.748">reserve1: 16,392,,400,799,525,772,630,853</text><text fill="#000000" font-family="sans-serif" font-size="13" lengthAdjust="spacing" textLength="36" x="579" y="1603.0586">Swap:</text><text fill="#000000" font-family="sans-serif" font-size="13" lengthAdjust="spacing" textLength="143" x="587" y="1618.3691">sender: 0x7a25..488D,</text><text fill="#000000" font-family="sans-serif" font-size="13" lengthAdjust="spacing" textLength="160" x="587" y="1633.6797">amount0In: 911,892,000,</text><text fill="#000000" font-family="sans-serif" font-size="13" lengthAdjust="spacing" textLength="88" x="587" y="1648.9902">amount1In: 0,</text><text fill="#000000" font-family="sans-serif" font-size="13" lengthAdjust="spacing" textLength="99" x="587" y="1664.3008">amount0Out: 0,</text><text fill="#000000" font-family="sans-serif" font-size="13" lengthAdjust="spacing" textLength="255" x="587" y="1679.6113">amount1Out: 526,878,693,198,147,875,</text><text fill="#000000" font-family="sans-serif" font-size="13" lengthAdjust="spacing" textLength="110" x="587" y="1694.9219">to: 0x7a25..488D</text><path d="M889,1539.5586 L889,1610.5586 L1046,1610.5586 L1046,1549.5586 L1036,1539.5586 L889,1539.5586 " fill="#00FFFF" style="stroke:#181818;stroke-width:0.5;"/><path d="M1036,1539.5586 L1036,1549.5586 L1046,1549.5586 L1036,1539.5586 " fill="#00FFFF" style="stroke:#181818;stroke-width:0.5;"/><text fill="#000000" font-family="sans-serif" font-size="13" lengthAdjust="spacing" textLength="56" x="895" y="1557.127">Transfer:</text><text fill="#000000" font-family="sans-serif" font-size="13" lengthAdjust="spacing" textLength="128" x="903" y="1572.4375">from: 0x5a5B..b400,</text><text fill="#000000" font-family="sans-serif" font-size="13" lengthAdjust="spacing" textLength="113" x="903" y="1587.748">to: 0xB4e1..C9Dc,</text><text fill="#000000" font-family="sans-serif" font-size="13" lengthAdjust="spacing" textLength="121" x="903" y="1603.0586">value: 911,892,000</text><path d="M1056,1539.5586 L1056,1656.5586 L1282,1656.5586 L1282,1549.5586 L1272,1539.5586 L1056,1539.5586 " fill="#00FFFF" style="stroke:#181818;stroke-width:0.5;"/><path d="M1272,1539.5586 L1272,1549.5586 L1282,1549.5586 L1272,1539.5586 " fill="#00FFFF" style="stroke:#181818;stroke-width:0.5;"/><text fill="#000000" font-family="sans-serif" font-size="13" lengthAdjust="spacing" textLength="56" x="1062" y="1557.127">Transfer:</text><text fill="#000000" font-family="sans-serif" font-size="13" lengthAdjust="spacing" textLength="119" x="1070" y="1572.4375">src: 0xB4e1..C9Dc,</text><text fill="#000000" font-family="sans-serif" font-size="13" lengthAdjust="spacing" textLength="121" x="1070" y="1587.748">dst: 0x7a25..488D,</text><text fill="#000000" font-family="sans-serif" font-size="13" lengthAdjust="spacing" textLength="197" x="1070" y="1603.0586">wad: 526,878,693,198,147,875</text><text fill="#000000" font-family="sans-serif" font-size="13" lengthAdjust="spacing" textLength="73" x="1062" y="1618.3691">Withdrawal:</text><text fill="#000000" font-family="sans-serif" font-size="13" lengthAdjust="spacing" textLength="120" x="1070" y="1633.6797">src: 0x7a25..488D,</text><text fill="#000000" font-family="sans-serif" font-size="13" lengthAdjust="spacing" textLength="197" x="1070" y="1648.9902">wad: 526,878,693,198,147,875</text><!--SRC=[bLNRRjiu47tNLn3TbnHWjIGbIgGH1DXSjujUWiP97ZP5GKbq8iIcl1ITk7-_GycIB7kTOXyCQuRauSoPCqDNkhb6P9raKHJ96UDfCikepYWNEHSyvfAcMPedKbAH5aIcKWaQQnuHAcN6IH4hbaaT1q6kbgwi35geqXZjCChcLVwCQCf95FC8evkLmOWAzDVA84POX0YTH7827rUVfu7ANMNHExBcYcTXcCM4l4EgHjxq1WgMoheoBvVAEBylLOo7OIn4qUppfZVGyV6jAUjNjRnZtwgLqvQmavFTmrciQHZciiYRmzxqnd0OtS6fu-EZsoyVFzonz_wxXxrMfTs7L2GJOQYpM3IGtlI6XxmvHsTLQLh0c_Ep1kwoL6vQFMjpRQlrptsyd30LXacUimRFczu0l7khbajTe0ltf6q3Udyn_RC1zHyIi09JEOsg5srx0eClbSdr14MOyYIu0iXhMte7JKEQY5XGA3wwUjLbi_YfN9GE5eN4LBB6TLlh0ZnHX4agWkaQNMeuJa92689x0sqAvEyDWhve7qxwmaoGP-zY3OLkqgulAmkdZXwCMbGhupwQ2PAKOY4P9eJWplzrvJwNiCR1n-C49r6AKqQQFUs-fN9F4_JtWq68G3phFzfAdCO2Un_rlhEMpRESVGUdgxmFeZnjbGQkGgjYNXhF1qv4YWb8blFe_OFP98mULUrLMhueeBRBAkXr1wbsCfgWH-s-wLhR5rqV0GJ3dCHZW6vlOBLRMVDWVjZs0AJ016Q2OnbH-34SoHWFwv0EJS37C9OinKaAcwd0CYKuXU-K-Qn_DCqtBHUwTcgn_AHgDoJ6C8leAF1Eh1Fah3BrJDjBMosWD3FuswEgPU-qQQ4pUPw3wqNDLtfKFyWwYhqnJhkxgK_RsPK-GABNIoyF0Zg0QtjPqCRcBC42iauao5eAJECKRDu7sG-9SrzYvPHtGcW91nqTgaW_3I2Qhkq6PY2YmhEv0_wgYeFXU0L8B9CTBZhiCHVRjmzroTHSGVj-dS7rsznxVUA8yb-mt2WAOeiZB5Zi5NKWopVkuRk4xSNVwTBB99KISyP1amoe9bZmQBEldKssV7nog9fjrHiKuyEBcbks9J64zrgwfyAgrwDV4Yunso3jnzlFqj5ucgdvF5FviszOqHm52aBEqcQulTtvtS0Rev238FrGtb0o_XiJD6Jliw9nWzfptdP3FSo_yGnjnjy1bhxlN3HG0OA1Yh5MLLjlIQ-PtzG_AnNS_3Jv941ePtADT8Q7zQt9TKWXDz3o7h66jqJRdIO3_sOMxBuL_GhrArjsDpM63M-E3TYsEpUsNhNVqS14_xotJ4mtmy77_XypiyVT6fhWsv-Q1sxh1Rj_MstpVU3z0GNEjneckDyqbfflWVwFyttS_m80]--></g></svg>
