<?xml version="1.0" encoding="us-ascii" standalone="no"?><svg xmlns:xlink="http://www.w3.org/1999/xlink" xmlns="http://www.w3.org/2000/svg" contentStyleType="text/css" height="1362px" preserveAspectRatio="none" style="width:768px;height:1362px;background:#FFFFFF;" version="1.1" viewBox="0 0 768 1362" width="768px" zoomAndPan="magnify"><defs/><g><text fill="#000000" font-family="sans-serif" font-size="14" font-weight="bold" lengthAdjust="spacing" textLength="578" x="94.25" y="28.5352">0x6b3339f2576fb1eb158c58545917b7c699187d0979a814e530199b50d4a2b9e4</text><text fill="#000000" font-family="sans-serif" font-size="14" lengthAdjust="spacing" textLength="404" x="181.25" y="1350.3887">mainnet, block 17503453, Sun, 18 Jun 2023 01:39:23 GMT</text><rect fill="#FFFFFF" height="14" style="stroke:#181818;stroke-width:1.0;" width="10" x="51.5" y="977.1738"/><rect fill="#FFFFFF" height="832.4902" style="stroke:#181818;stroke-width:1.0;" width="10" x="236.5" y="231.3047"/><rect fill="#FFFFFF" height="72.6211" style="stroke:#181818;stroke-width:1.0;" width="10" x="241.5" y="932.5527"/><rect fill="#FFFFFF" height="75.2422" style="stroke:#181818;stroke-width:1.0;" width="10" x="408.5" y="260.6152"/><rect fill="#FFFFFF" height="297.0371" style="stroke:#181818;stroke-width:1.0;" width="10" x="408.5" y="546.2734"/><rect fill="#FFFFFF" height="44.6211" style="stroke:#181818;stroke-width:1.0;" width="10" x="551" y="411.0996"/><rect fill="#FFFFFF" height="44.6211" style="stroke:#181818;stroke-width:1.0;" width="10" x="551" y="695.4473"/><rect fill="#FFFFFF" height="44.6211" style="stroke:#181818;stroke-width:1.0;" width="10" x="693" y="606.2051"/><rect fill="#FFFFFF" height="44.6211" style="stroke:#181818;stroke-width:1.0;" width="10" x="693" y="784.6895"/><rect fill="#FFFFFF" height="131.2422" style="stroke:#181818;stroke-width:1.0;" width="10" x="693" y="887.9316"/><line style="stroke:#181818;stroke-width:0.5;stroke-dasharray:5.0,5.0;" x1="56" x2="56" y1="123.4414" y2="1254.9004"/><line style="stroke:#181818;stroke-width:0.5;stroke-dasharray:5.0,5.0;" x1="241.5" x2="241.5" y1="123.4414" y2="1254.9004"/><line style="stroke:#181818;stroke-width:0.5;stroke-dasharray:5.0,5.0;" x1="413.5" x2="413.5" y1="123.4414" y2="1254.9004"/><line style="stroke:#181818;stroke-width:0.5;stroke-dasharray:5.0,5.0;" x1="555.5" x2="555.5" y1="123.4414" y2="1254.9004"/><line style="stroke:#181818;stroke-width:0.5;stroke-dasharray:5.0,5.0;" x1="697.5" x2="697.5" y1="123.4414" y2="1254.9004"/><text fill="#000000" font-family="sans-serif" font-size="14" lengthAdjust="spacing" textLength="97" x="5" y="120.4883">0x5a5b..b400</text><ellipse cx="56.5" cy="55.4531" fill="#E2E2F0" rx="8" ry="8" style="stroke:#181818;stroke-width:0.5;"/><path d="M56.5,63.4531 L56.5,90.4531 M43.5,71.4531 L69.5,71.4531 M56.5,90.4531 L43.5,105.4531 M56.5,90.4531 L69.5,105.4531 " fill="none" style="stroke:#181818;stroke-width:0.5;"/><text fill="#000000" font-family="sans-serif" font-size="14" lengthAdjust="spacing" textLength="97" x="5" y="1267.4355">0x5a5b..b400</text><ellipse cx="56.5" cy="1278.8887" fill="#E2E2F0" rx="8" ry="8" style="stroke:#181818;stroke-width:0.5;"/><path d="M56.5,1286.8887 L56.5,1313.8887 M43.5,1294.8887 L69.5,1294.8887 M56.5,1313.8887 L43.5,1328.8887 M56.5,1313.8887 L69.5,1328.8887 " fill="none" style="stroke:#181818;stroke-width:0.5;"/><rect fill="#E2E2F0" height="46.9766" rx="2.5" ry="2.5" style="stroke:#181818;stroke-width:0.5;" width="168" x="157.5" y="75.4648"/><text fill="#000000" font-family="sans-serif" font-size="14" font-style="italic" lengthAdjust="spacing" textLength="154" x="164.5" y="96">&#171;UniswapV2Router02&#187;</text><text fill="#000000" font-family="sans-serif" font-size="14" lengthAdjust="spacing" textLength="97" x="193" y="112.4883">0x7a25..488d</text><rect fill="#E2E2F0" height="46.9766" rx="2.5" ry="2.5" style="stroke:#181818;stroke-width:0.5;" width="168" x="157.5" y="1253.9004"/><text fill="#000000" font-family="sans-serif" font-size="14" font-style="italic" lengthAdjust="spacing" textLength="154" x="164.5" y="1274.4355">&#171;UniswapV2Router02&#187;</text><text fill="#000000" font-family="sans-serif" font-size="14" lengthAdjust="spacing" textLength="97" x="193" y="1290.9238">0x7a25..488d</text><rect fill="#E2E2F0" height="79.9531" rx="2.5" ry="2.5" style="stroke:#181818;stroke-width:0.5;" width="130" x="348.5" y="42.4883"/><text fill="#000000" font-family="sans-serif" font-size="14" font-style="italic" lengthAdjust="spacing" textLength="94" x="366.5" y="63.0234">&#171;Uniswap V2&#187;</text><text fill="#000000" font-family="sans-serif" font-size="14" font-style="italic" lengthAdjust="spacing" textLength="74" x="376.5" y="79.5117">&#171;(UNI-V2)&#187;</text><text fill="#000000" font-family="sans-serif" font-size="14" font-style="italic" lengthAdjust="spacing" textLength="116" x="355.5" y="96">&#171;UniswapV2Pair&#187;</text><text fill="#000000" font-family="sans-serif" font-size="14" lengthAdjust="spacing" textLength="93" x="367" y="112.4883">0xb4e1..c9dc</text><rect fill="#E2E2F0" height="79.9531" rx="2.5" ry="2.5" style="stroke:#181818;stroke-width:0.5;" width="130" x="348.5" y="1253.9004"/><text fill="#000000" font-family="sans-serif" font-size="14" font-style="italic" lengthAdjust="spacing" textLength="94" x="366.5" y="1274.4355">&#171;Uniswap V2&#187;</text><text fill="#000000" font-family="sans-serif" font-size="14" font-style="italic" lengthAdjust="spacing" textLength="74" x="376.5" y="1290.9238">&#171;(UNI-V2)&#187;</text><text fill="#000000" font-family="sans-serif" font-size="14" font-style="italic" lengthAdjust="spacing" textLength="116" x="355.5" y="1307.4121">&#171;UniswapV2Pair&#187;</text><text fill="#000000" font-family="sans-serif" font-size="14" lengthAdjust="spacing" textLength="93" x="367" y="1323.9004">0xb4e1..c9dc</text><rect fill="#E2E2F0" height="79.9531" rx="2.5" ry="2.5" style="stroke:#181818;stroke-width:0.5;" width="135" x="488.5" y="42.4883"/><text fill="#000000" font-family="sans-serif" font-size="14" font-style="italic" lengthAdjust="spacing" textLength="78" x="517" y="63.0234">&#171;USD Coin&#187;</text><text fill="#000000" font-family="sans-serif" font-size="14" font-style="italic" lengthAdjust="spacing" textLength="62" x="525" y="79.5117">&#171;(USDC)&#187;</text><text fill="#000000" font-family="sans-serif" font-size="14" font-style="italic" lengthAdjust="spacing" textLength="121" x="495.5" y="96">&#171;FiatTokenProxy&#187;</text><text fill="#000000" font-family="sans-serif" font-size="14" lengthAdjust="spacing" textLength="96" x="508" y="112.4883">0xa0b8..eb48</text><rect fill="#E2E2F0" height="79.9531" rx="2.5" ry="2.5" style="stroke:#181818;stroke-width:0.5;" width="135" x="488.5" y="1253.9004"/><text fill="#000000" font-family="sans-serif" font-size="14" font-style="italic" lengthAdjust="spacing" textLength="78" x="517" y="1274.4355">&#171;USD Coin&#187;</text><text fill="#000000" font-family="sans-serif" font-size="14" font-style="italic" lengthAdjust="spacing" textLength="62" x="525" y="1290.9238">&#171;(USDC)&#187;</text><text fill="#000000" font-family="sans-serif" font-size="14" font-style="italic" lengthAdjust="spacing" textLength="121" x="495.5" y="1307.4121">&#171;FiatTokenProxy&#187;</text><text fill="#000000" font-family="sans-serif" font-size="14" lengthAdjust="spacing" textLength="96" x="508" y="1323.9004">0xa0b8..eb48</text><rect fill="#E2E2F0" height="79.9531" rx="2.5" ry="2.5" style="stroke:#181818;stroke-width:0.5;" width="129" x="633.5" y="42.4883"/><text fill="#000000" font-family="sans-serif" font-size="14" font-style="italic" lengthAdjust="spacing" textLength="115" x="640.5" y="63.0234">&#171;Wrapped Ether&#187;</text><text fill="#000000" font-family="sans-serif" font-size="14" font-style="italic" lengthAdjust="spacing" textLength="63" x="666.5" y="79.5117">&#171;(WETH)&#187;</text><text fill="#000000" font-family="sans-serif" font-size="14" font-style="italic" lengthAdjust="spacing" textLength="62" x="667" y="96">&#171;WETH9&#187;</text><text fill="#000000" font-family="sans-serif" font-size="14" lengthAdjust="spacing" textLength="91" x="652.5" y="112.4883">0xc02a..6cc2</text><rect fill="#E2E2F0" height="79.9531" rx="2.5" ry="2.5" style="stroke:#181818;stroke-width:0.5;" width="129" x="633.5" y="1253.9004"/><text fill="#000000" font-family="sans-serif" font-size="14" font-style="italic" lengthAdjust="spacing" textLength="115" x="640.5" y="1274.4355">&#171;Wrapped Ether&#187;</text><text fill="#000000" font-family="sans-serif" font-size="14" font-style="italic" lengthAdjust="spacing" textLength="63" x="666.5" y="1290.9238">&#171;(WETH)&#187;</text><text fill="#000000" font-family="sans-serif" font-size="14" font-style="italic" lengthAdjust="spacing" textLength="62" x="667" y="1307.4121">&#171;WETH9&#187;</text><text fill="#000000" font-family="sans-serif" font-size="14" lengthAdjust="spacing" textLength="91" x="652.5" y="1323.9004">0xc02a..6cc2</text><rect fill="#FFFFFF" height="14" style="stroke:#181818;stroke-width:1.0;" width="10" x="51.5" y="977.1738"/><rect fill="#FFFFFF" height="832.4902" style="stroke:#181818;stroke-width:1.0;" width="10" x="236.5" y="231.3047"/><rect fill="#FFFFFF" height="72.6211" style="stroke:#181818;stroke-width:1.0;" width="10" x="241.5" y="932.5527"/><rect fill="#FFFFFF" height="75.2422" style="stroke:#181818;stroke-width:1.0;" width="10" x="408.5" y="260.6152"/><rect fill="#FFFFFF" height="297.0371" style="stroke:#181818;stroke-width:1.0;" width="10" x="408.5" y="546.2734"/><rect fill="#FFFFFF" height="44.6211" style="stroke:#181818;stroke-width:1.0;" width="10" x="551" y="411.0996"/><rect fill="#FFFFFF" height="44.6211" style="stroke:#181818;stroke-width:1.0;" width="10" x="551" y="695.4473"/><rect fill="#FFFFFF" height="44.6211" style="stroke:#181818;stroke-width:1.0;" width="10" x="693" y="606.2051"/><rect fill="#FFFFFF" height="44.6211" style="stroke:#181818;stroke-width:1.0;" width="10" x="693" y="784.6895"/><rect fill="#FFFFFF" height="131.2422" style="stroke:#181818;stroke-width:1.0;" width="10" x="693" y="887.9316"/><polygon fill="#181818" points="224.5,227.3047,234.5,231.3047,224.5,235.3047,228.5,231.3047" style="stroke:#181818;stroke-width:1.0;"/><line style="stroke:#181818;stroke-width:1.0;" x1="56.5" x2="230.5" y1="231.3047" y2="231.3047"/><text fill="#000000" font-family="sans-serif" font-size="13" lengthAdjust="spacing" textLength="161" x="63.5" y="150.0098">swapExactTokensForETH(</text><text fill="#000000" font-family="sans-serif" font-size="13" lengthAdjust="spacing" textLength="64" x="63.5" y="165.3203">amountIn,</text><text fill="#000000" font-family="sans-serif" font-size="13" lengthAdjust="spacing" textLength="98" x="63.5" y="180.6309">amountOutMin,</text><text fill="#000000" font-family="sans-serif" font-size="13" lengthAdjust="spacing" textLength="32" x="63.5" y="195.9414">path,</text><text fill="#000000" font-family="sans-serif" font-size="13" lengthAdjust="spacing" textLength="17" x="63.5" y="211.252">to,</text><text fill="#000000" font-family="sans-serif" font-size="13" lengthAdjust="spacing" textLength="57" x="63.5" y="226.5625">deadline)</text><polygon fill="#181818" points="396.5,256.6152,406.5,260.6152,396.5,264.6152,400.5,260.6152" style="stroke:#181818;stroke-width:1.0;"/><line style="stroke:#181818;stroke-width:1.0;" x1="246.5" x2="402.5" y1="260.6152" y2="260.6152"/><text fill="#000000" font-family="sans-serif" font-size="13" lengthAdjust="spacing" textLength="83" x="253.5" y="255.873">getReserves()</text><polygon fill="#181818" points="257.5,331.8574,247.5,335.8574,257.5,339.8574,253.5,335.8574" style="stroke:#181818;stroke-width:1.0;"/><line style="stroke:#181818;stroke-width:1.0;stroke-dasharray:2.0,2.0;" x1="251.5" x2="412.5" y1="335.8574" y2="335.8574"/><text fill="#000000" font-family="sans-serif" font-size="13" lengthAdjust="spacing" textLength="4" x="263.5" y="285.1836">&#160;</text><text fill="#000000" font-family="sans-serif" font-size="13" lengthAdjust="spacing" textLength="64" x="263.5" y="300.4941">_reserve0,</text><text fill="#000000" font-family="sans-serif" font-size="13" lengthAdjust="spacing" textLength="64" x="263.5" y="315.8047">_reserve1,</text><text fill="#000000" font-family="sans-serif" font-size="13" lengthAdjust="spacing" textLength="138" x="263.5" y="331.1152">_blockTimestampLast</text><polygon fill="#181818" points="539,407.0996,549,411.0996,539,415.0996,543,411.0996" style="stroke:#181818;stroke-width:1.0;"/><line style="stroke:#181818;stroke-width:1.0;" x1="246.5" x2="545" y1="411.0996" y2="411.0996"/><text fill="#000000" font-family="sans-serif" font-size="13" lengthAdjust="spacing" textLength="85" x="253.5" y="360.4258">transferFrom(</text><text fill="#000000" font-family="sans-serif" font-size="13" lengthAdjust="spacing" textLength="34" x="253.5" y="375.7363">from,</text><text fill="#000000" font-family="sans-serif" font-size="13" lengthAdjust="spacing" textLength="17" x="253.5" y="391.0469">to,</text><text fill="#000000" font-family="sans-serif" font-size="13" lengthAdjust="spacing" textLength="37" x="253.5" y="406.3574">value)</text><polygon fill="#181818" points="257.5,451.7207,247.5,455.7207,257.5,459.7207,253.5,455.7207" style="stroke:#181818;stroke-width:1.0;"/><line style="stroke:#181818;stroke-width:1.0;stroke-dasharray:2.0,2.0;" x1="251.5" x2="555" y1="455.7207" y2="455.7207"/><text fill="#000000" font-family="sans-serif" font-size="13" lengthAdjust="spacing" textLength="4" x="263.5" y="435.668">&#160;</text><text fill="#000000" font-family="sans-serif" font-size="13" lengthAdjust="spacing" textLength="5" x="263.5" y="450.9785">?</text><polygon fill="#181818" points="396.5,542.2734,406.5,546.2734,396.5,550.2734,400.5,546.2734" style="stroke:#181818;stroke-width:1.0;"/><line style="stroke:#181818;stroke-width:1.0;" x1="246.5" x2="402.5" y1="546.2734" y2="546.2734"/><text fill="#000000" font-family="sans-serif" font-size="13" lengthAdjust="spacing" textLength="36" x="253.5" y="480.2891">swap(</text><text fill="#000000" font-family="sans-serif" font-size="13" lengthAdjust="spacing" textLength="83" x="253.5" y="495.5996">amount0Out,</text><text fill="#000000" font-family="sans-serif" font-size="13" lengthAdjust="spacing" textLength="83" x="253.5" y="510.9102">amount1Out,</text><text fill="#000000" font-family="sans-serif" font-size="13" lengthAdjust="spacing" textLength="17" x="253.5" y="526.2207">to,</text><text fill="#000000" font-family="sans-serif" font-size="13" lengthAdjust="spacing" textLength="31" x="253.5" y="541.5313">data)</text><polygon fill="#181818" points="681,602.2051,691,606.2051,681,610.2051,685,606.2051" style="stroke:#181818;stroke-width:1.0;"/><line style="stroke:#181818;stroke-width:1.0;" x1="418.5" x2="687" y1="606.2051" y2="606.2051"/><text fill="#000000" font-family="sans-serif" font-size="13" lengthAdjust="spacing" textLength="53" x="425.5" y="570.8418">transfer(</text><text fill="#000000" font-family="sans-serif" font-size="13" lengthAdjust="spacing" textLength="24" x="425.5" y="586.1523">dst,</text><text fill="#000000" font-family="sans-serif" font-size="13" lengthAdjust="spacing" textLength="29" x="425.5" y="601.4629">wad)</text><polygon fill="#181818" points="429.5,646.8262,419.5,650.8262,429.5,654.8262,425.5,650.8262" style="stroke:#181818;stroke-width:1.0;"/><line style="stroke:#181818;stroke-width:1.0;stroke-dasharray:2.0,2.0;" x1="423.5" x2="697" y1="650.8262" y2="650.8262"/><text fill="#000000" font-family="sans-serif" font-size="13" lengthAdjust="spacing" textLength="4" x="435.5" y="630.7734">&#160;</text><text fill="#000000" font-family="sans-serif" font-size="13" lengthAdjust="spacing" textLength="5" x="435.5" y="646.084">?</text><polygon fill="#181818" points="539,691.4473,549,695.4473,539,699.4473,543,695.4473" style="stroke:#181818;stroke-width:1.0;"/><line style="stroke:#181818;stroke-width:1.0;" x1="418.5" x2="545" y1="695.4473" y2="695.4473"/><text fill="#000000" font-family="sans-serif" font-size="13" lengthAdjust="spacing" textLength="67" x="425.5" y="675.3945">balanceOf(</text><text fill="#000000" font-family="sans-serif" font-size="13" lengthAdjust="spacing" textLength="9" x="425.5" y="690.7051">?)</text><polygon fill="#181818" points="429.5,736.0684,419.5,740.0684,429.5,744.0684,425.5,740.0684" style="stroke:#181818;stroke-width:1.0;"/><line style="stroke:#181818;stroke-width:1.0;stroke-dasharray:2.0,2.0;" x1="423.5" x2="555" y1="740.0684" y2="740.0684"/><text fill="#000000" font-family="sans-serif" font-size="13" lengthAdjust="spacing" textLength="4" x="435.5" y="720.0156">&#160;</text><text fill="#000000" font-family="sans-serif" font-size="13" lengthAdjust="spacing" textLength="5" x="435.5" y="735.3262">?</text><polygon fill="#181818" points="681,780.6895,691,784.6895,681,788.6895,685,784.6895" style="stroke:#181818;stroke-width:1.0;"/><line style="stroke:#181818;stroke-width:1.0;" x1="418.5" x2="687" y1="784.6895" y2="784.6895"/><text fill="#000000" font-family="sans-serif" font-size="13" lengthAdjust="spacing" textLength="67" x="425.5" y="764.6367">balanceOf(</text><text fill="#000000" font-family="sans-serif" font-size="13" lengthAdjust="spacing" textLength="9" x="425.5" y="779.9473">?)</text><polygon fill="#181818" points="429.5,825.3105,419.5,829.3105,429.5,833.3105,425.5,829.3105" style="stroke:#181818;stroke-width:1.0;"/><line style="stroke:#181818;stroke-width:1.0;stroke-dasharray:2.0,2.0;" x1="423.5" x2="697" y1="829.3105" y2="829.3105"/><text fill="#000000" font-family="sans-serif" font-size="13" lengthAdjust="spacing" textLength="4" x="435.5" y="809.2578">&#160;</text><text fill="#000000" font-family="sans-serif" font-size="13" lengthAdjust="spacing" textLength="5" x="435.5" y="824.5684">?</text><polygon fill="#181818" points="257.5,839.3105,247.5,843.3105,257.5,847.3105,253.5,843.3105" style="stroke:#181818;stroke-width:1.0;"/><line style="stroke:#181818;stroke-width:1.0;stroke-dasharray:2.0,2.0;" x1="251.5" x2="412.5" y1="843.3105" y2="843.3105"/><polygon fill="#181818" points="681,883.9316,691,887.9316,681,891.9316,685,887.9316" style="stroke:#181818;stroke-width:1.0;"/><line style="stroke:#181818;stroke-width:1.0;" x1="246.5" x2="687" y1="887.9316" y2="887.9316"/><text fill="#000000" font-family="sans-serif" font-size="13" lengthAdjust="spacing" textLength="61" x="253.5" y="867.8789">withdraw(</text><text fill="#000000" font-family="sans-serif" font-size="13" lengthAdjust="spacing" textLength="29" x="253.5" y="883.1895">wad)</text><polygon fill="#181818" points="262.5,928.5527,252.5,932.5527,262.5,936.5527,258.5,932.5527" style="stroke:#181818;stroke-width:1.0;"/><line style="stroke:#181818;stroke-width:1.0;" x1="256.5" x2="692" y1="932.5527" y2="932.5527"/><text fill="#000000" font-family="sans-serif" font-size="13" lengthAdjust="spacing" textLength="58" x="268.5" y="912.5">fallback()</text><text fill="#000000" font-family="sans-serif" font-size="13" lengthAdjust="spacing" textLength="65" x="268.5" y="927.8105">0.527 ETH</text><polygon fill="#181818" points="72.5,973.1738,62.5,977.1738,72.5,981.1738,68.5,977.1738" style="stroke:#181818;stroke-width:1.0;"/><line style="stroke:#181818;stroke-width:1.0;" x1="66.5" x2="240.5" y1="977.1738" y2="977.1738"/><text fill="#000000" font-family="sans-serif" font-size="13" lengthAdjust="spacing" textLength="58" x="78.5" y="957.1211">fallback()</text><text fill="#000000" font-family="sans-serif" font-size="13" lengthAdjust="spacing" textLength="65" x="78.5" y="972.4316">0.527 ETH</text><polygon fill="#181818" points="229.5,987.1738,239.5,991.1738,229.5,995.1738,233.5,991.1738" style="stroke:#181818;stroke-width:1.0;"/><line style="stroke:#181818;stroke-width:1.0;stroke-dasharray:2.0,2.0;" x1="56.5" x2="235.5" y1="991.1738" y2="991.1738"/><polygon fill="#181818" points="681,1001.1738,691,1005.1738,681,1009.1738,685,1005.1738" style="stroke:#181818;stroke-width:1.0;"/><line style="stroke:#181818;stroke-width:1.0;stroke-dasharray:2.0,2.0;" x1="246.5" x2="687" y1="1005.1738" y2="1005.1738"/><polygon fill="#181818" points="257.5,1015.1738,247.5,1019.1738,257.5,1023.1738,253.5,1019.1738" style="stroke:#181818;stroke-width:1.0;"/><line style="stroke:#181818;stroke-width:1.0;stroke-dasharray:2.0,2.0;" x1="251.5" x2="697" y1="1019.1738" y2="1019.1738"/><polygon fill="#181818" points="67.5,1059.7949,57.5,1063.7949,67.5,1067.7949,63.5,1063.7949" style="stroke:#181818;stroke-width:1.0;"/><line style="stroke:#181818;stroke-width:1.0;stroke-dasharray:2.0,2.0;" x1="61.5" x2="240.5" y1="1063.7949" y2="1063.7949"/><text fill="#000000" font-family="sans-serif" font-size="13" lengthAdjust="spacing" textLength="4" x="73.5" y="1043.7422">&#160;</text><text fill="#000000" font-family="sans-serif" font-size="13" lengthAdjust="spacing" textLength="55" x="73.5" y="1059.0527">amounts</text><path d="M357,1076.7949 L357,1239.7949 L469,1239.7949 L469,1086.7949 L459,1076.7949 L357,1076.7949 " fill="#00FFFF" style="stroke:#181818;stroke-width:0.5;"/><path d="M459,1076.7949 L459,1086.7949 L469,1086.7949 L459,1076.7949 " fill="#00FFFF" style="stroke:#181818;stroke-width:0.5;"/><text fill="#000000" font-family="sans-serif" font-size="13" lengthAdjust="spacing" textLength="33" x="363" y="1094.3633">Sync:</text><text fill="#000000" font-family="sans-serif" font-size="13" lengthAdjust="spacing" textLength="57" x="371" y="1109.6738">reserve0,</text><text fill="#000000" font-family="sans-serif" font-size="13" lengthAdjust="spacing" textLength="53" x="371" y="1124.9844">reserve1</text><text fill="#000000" font-family="sans-serif" font-size="13" lengthAdjust="spacing" textLength="36" x="363" y="1140.2949">Swap:</text><text fill="#000000" font-family="sans-serif" font-size="13" lengthAdjust="spacing" textLength="46" x="371" y="1155.6055">sender,</text><text fill="#000000" font-family="sans-serif" font-size="13" lengthAdjust="spacing" textLength="72" x="371" y="1170.916">amount0In,</text><text fill="#000000" font-family="sans-serif" font-size="13" lengthAdjust="spacing" textLength="72" x="371" y="1186.2266">amount1In,</text><text fill="#000000" font-family="sans-serif" font-size="13" lengthAdjust="spacing" textLength="83" x="371" y="1201.5371">amount0Out,</text><text fill="#000000" font-family="sans-serif" font-size="13" lengthAdjust="spacing" textLength="83" x="371" y="1216.8477">amount1Out,</text><text fill="#000000" font-family="sans-serif" font-size="13" lengthAdjust="spacing" textLength="13" x="371" y="1232.1582">to</text><path d="M517,1076.7949 L517,1147.7949 L594,1147.7949 L594,1086.7949 L584,1076.7949 L517,1076.7949 " fill="#00FFFF" style="stroke:#181818;stroke-width:0.5;"/><path d="M584,1076.7949 L584,1086.7949 L594,1086.7949 L584,1076.7949 " fill="#00FFFF" style="stroke:#181818;stroke-width:0.5;"/><text fill="#000000" font-family="sans-serif" font-size="13" lengthAdjust="spacing" textLength="56" x="523" y="1094.3633">Transfer:</text><text fill="#000000" font-family="sans-serif" font-size="13" lengthAdjust="spacing" textLength="34" x="531" y="1109.6738">from,</text><text fill="#000000" font-family="sans-serif" font-size="13" lengthAdjust="spacing" textLength="17" x="531" y="1124.9844">to,</text><text fill="#000000" font-family="sans-serif" font-size="13" lengthAdjust="spacing" textLength="33" x="531" y="1140.2949">value</text><path d="M651,1076.7949 L651,1193.7949 L745,1193.7949 L745,1086.7949 L735,1076.7949 L651,1076.7949 " fill="#00FFFF" style="stroke:#181818;stroke-width:0.5;"/><path d="M735,1076.7949 L735,1086.7949 L745,1086.7949 L735,1076.7949 " fill="#00FFFF" style="stroke:#181818;stroke-width:0.5;"/><text fill="#000000" font-family="sans-serif" font-size="13" lengthAdjust="spacing" textLength="56" x="657" y="1094.3633">Transfer:</text><text fill="#000000" font-family="sans-serif" font-size="13" lengthAdjust="spacing" textLength="23" x="665" y="1109.6738">src,</text><text fill="#000000" font-family="sans-serif" font-size="13" lengthAdjust="spacing" textLength="24" x="665" y="1124.9844">dst,</text><text fill="#000000" font-family="sans-serif" font-size="13" lengthAdjust="spacing" textLength="25" x="665" y="1140.2949">wad</text><text fill="#000000" font-family="sans-serif" font-size="13" lengthAdjust="spacing" textLength="73" x="657" y="1155.6055">Withdrawal:</text><text fill="#000000" font-family="sans-serif" font-size="13" lengthAdjust="spacing" textLength="23" x="665" y="1170.916">src,</text><text fill="#000000" font-family="sans-serif" font-size="13" lengthAdjust="spacing" textLength="25" x="665" y="1186.2266">wad</text><!--SRC=[XLHTJzim57tthx2sboALpFbgagg21pusfZ4GBV22D5qxxh18dSnnslBlPwUDKqOxNf9xv7kFZuzFeeKkE2Rh4Gt3C9i7SJAQKvzJFqvPdCPHdFa9JTWeo_mqoKcMP93w4Oz3ucSPZKaUGK0p7Y74eDAYb7W1GagkXvWM9Nl1VXAJC8h38PusSeZz57zl90v846BYZyDiR8glrpC4J9SAVoBh66BgUJGYv1E66bje0KOLA2sOg41gsvT047jUbAPvssUX1NWokPUYNa7r4DoLZUQA12Sd_mxJYFkUnxASjSCMMj0FumSpDPaCxdzU7Jy4HxPsjBSWr7jA83JrF4wZjAMqq09BEJt7PwMG6yBf-LbBTob0pyeNBczLkNvzpyT809utOYne-IoqmF0zAgWgdkCB_SnLI_fuCVlMajeYCrp8sNPyugmPOwl_OcsiRZUkBqjb-WTF4XPb8_ML77RbJQElXOKLw6VpqgLvv1poGaX-P2zBB45pHusS_MQ_piqn_itr7Q-vMl9wi3FLDI35TQFaa_obDbrasDU-hTiCpSI2rneMrG-ezPkTEfF7M2kGzPohIrKkp87cvjN9NaBHx6hkXjpkfmVKMxUSESHOukpnDs3Z2cZOTpQNASFPNLwlq_3cjULOGRuptJNkQDlbwSzBeG39-CtS49t-_t3xXHmYsADWKxqngUTP2VsSArWD3Xx59VTD5ETG51JOo-3eIH8l3X9ielX1iBfGVpZTDNRIzxswkwmHagMPAPTSzJ-2p_2d0JHzbMoCC7Rnx6iVJKqyx6BDpPUXxD8sAUOxSi3V1Ms6-gKjqYKo3DYAGEWBxiMuNyX6p6mR7Rjdc-zsrZxRX1yWSUw_9waLizCsX-PbRWyzRYyJYfrrk-2u_m80]--></g></svg>
