<?xml version="1.0" encoding="UTF-8" standalone="no"?><svg xmlns:xlink="http://www.w3.org/1999/xlink" xmlns="http://www.w3.org/2000/svg" contentStyleType="text/css" height="1641px" preserveAspectRatio="none" style="width:1277px;height:1641px;background:#FFFFFF;" version="1.1" viewBox="0 0 1277 1641" width="1277px" zoomAndPan="magnify"><defs/><g><text fill="#000000" font-family="sans-serif" font-size="14" font-weight="bold" lengthAdjust="spacing" textLength="558" x="358.25" y="28.5352">0x7025eeb06aab8614b02fff39f3cc10db439fbb4b525c9d2d87dbd19bf17c7cac</text><text fill="#000000" font-family="sans-serif" font-size="14" lengthAdjust="spacing" textLength="408" x="433.25" y="1629.9785">mainnet, block 17464508, Mon, 12 Jun 2023 14:16:23 GMT</text><rect fill="#FFFFFF" height="888.3535" style="stroke:#181818;stroke-width:1.0;" width="10" x="350.5" y="404.4102"/><rect fill="#FFFFFF" height="75.2422" style="stroke:#181818;stroke-width:1.0;" width="10" x="672.5" y="449.0313"/><rect fill="#FFFFFF" height="342.9688" style="stroke:#181818;stroke-width:1.0;" width="10" x="672.5" y="823.9316"/><rect fill="#FFFFFF" height="14" style="stroke:#181818;stroke-width:1.0;" width="10" x="960.5" y="584.2051"/><rect fill="#FFFFFF" height="44.6211" style="stroke:#181818;stroke-width:1.0;" width="10" x="960.5" y="673.4473"/><rect fill="#FFFFFF" height="44.6211" style="stroke:#181818;stroke-width:1.0;" width="10" x="960.5" y="1108.2793"/><rect fill="#FFFFFF" height="44.6211" style="stroke:#181818;stroke-width:1.0;" width="10" x="1180.5" y="899.1738"/><rect fill="#FFFFFF" height="44.6211" style="stroke:#181818;stroke-width:1.0;" width="10" x="1180.5" y="1003.7266"/><line style="stroke:#181818;stroke-width:0.5;stroke-dasharray:5.0,5.0;" x1="110" x2="110" y1="123.4414" y2="1534.4902"/><line style="stroke:#181818;stroke-width:0.5;stroke-dasharray:5.0,5.0;" x1="355.5" x2="355.5" y1="123.4414" y2="1534.4902"/><line style="stroke:#181818;stroke-width:0.5;stroke-dasharray:5.0,5.0;" x1="677.5" x2="677.5" y1="123.4414" y2="1534.4902"/><line style="stroke:#181818;stroke-width:0.5;stroke-dasharray:5.0,5.0;" x1="965" x2="965" y1="123.4414" y2="1534.4902"/><line style="stroke:#181818;stroke-width:0.5;stroke-dasharray:5.0,5.0;" x1="1185" x2="1185" y1="123.4414" y2="1534.4902"/><text fill="#000000" font-family="sans-serif" font-size="14" lengthAdjust="spacing" textLength="93" x="61" y="120.4883">0xf343..983a</text><ellipse cx="110.5" cy="55.4531" fill="#E2E2F0" rx="8" ry="8" style="stroke:#181818;stroke-width:0.5;"/><path d="M110.5,63.4531 L110.5,90.4531 M97.5,71.4531 L123.5,71.4531 M110.5,90.4531 L97.5,105.4531 M110.5,90.4531 L123.5,105.4531 " fill="none" style="stroke:#181818;stroke-width:0.5;"/><text fill="#000000" font-family="sans-serif" font-size="14" lengthAdjust="spacing" textLength="93" x="61" y="1547.0254">0xf343..983a</text><ellipse cx="110.5" cy="1558.4785" fill="#E2E2F0" rx="8" ry="8" style="stroke:#181818;stroke-width:0.5;"/><path d="M110.5,1566.4785 L110.5,1593.4785 M97.5,1574.4785 L123.5,1574.4785 M110.5,1593.4785 L97.5,1608.4785 M110.5,1593.4785 L123.5,1608.4785 " fill="none" style="stroke:#181818;stroke-width:0.5;"/><rect fill="#E2E2F0" height="46.9766" rx="2.5" ry="2.5" style="stroke:#181818;stroke-width:0.5;" width="168" x="271.5" y="75.4648"/><text fill="#000000" font-family="sans-serif" font-size="14" font-style="italic" lengthAdjust="spacing" textLength="154" x="278.5" y="96">«UniswapV2Router02»</text><text fill="#000000" font-family="sans-serif" font-size="14" lengthAdjust="spacing" textLength="97" x="307" y="112.4883">0x7a25..488d</text><rect fill="#E2E2F0" height="46.9766" rx="2.5" ry="2.5" style="stroke:#181818;stroke-width:0.5;" width="168" x="271.5" y="1533.4902"/><text fill="#000000" font-family="sans-serif" font-size="14" font-style="italic" lengthAdjust="spacing" textLength="154" x="278.5" y="1554.0254">«UniswapV2Router02»</text><text fill="#000000" font-family="sans-serif" font-size="14" lengthAdjust="spacing" textLength="97" x="307" y="1570.5137">0x7a25..488d</text><rect fill="#E2E2F0" height="79.9531" rx="2.5" ry="2.5" style="stroke:#181818;stroke-width:0.5;" width="130" x="612.5" y="42.4883"/><text fill="#000000" font-family="sans-serif" font-size="14" font-style="italic" lengthAdjust="spacing" textLength="94" x="630.5" y="63.0234">«Uniswap V2»</text><text fill="#000000" font-family="sans-serif" font-size="14" font-style="italic" lengthAdjust="spacing" textLength="74" x="640.5" y="79.5117">«(UNI-V2)»</text><text fill="#000000" font-family="sans-serif" font-size="14" font-style="italic" lengthAdjust="spacing" textLength="116" x="619.5" y="96">«UniswapV2Pair»</text><text fill="#000000" font-family="sans-serif" font-size="14" lengthAdjust="spacing" textLength="93" x="631" y="112.4883">0xb4e1..c9dc</text><rect fill="#E2E2F0" height="79.9531" rx="2.5" ry="2.5" style="stroke:#181818;stroke-width:0.5;" width="130" x="612.5" y="1533.4902"/><text fill="#000000" font-family="sans-serif" font-size="14" font-style="italic" lengthAdjust="spacing" textLength="94" x="630.5" y="1554.0254">«Uniswap V2»</text><text fill="#000000" font-family="sans-serif" font-size="14" font-style="italic" lengthAdjust="spacing" textLength="74" x="640.5" y="1570.5137">«(UNI-V2)»</text><text fill="#000000" font-family="sans-serif" font-size="14" font-style="italic" lengthAdjust="spacing" textLength="116" x="619.5" y="1587.002">«UniswapV2Pair»</text><text fill="#000000" font-family="sans-serif" font-size="14" lengthAdjust="spacing" textLength="93" x="631" y="1603.4902">0xb4e1..c9dc</text><rect fill="#E2E2F0" height="79.9531" rx="2.5" ry="2.5" style="stroke:#181818;stroke-width:0.5;" width="129" x="901" y="42.4883"/><text fill="#000000" font-family="sans-serif" font-size="14" font-style="italic" lengthAdjust="spacing" textLength="115" x="908" y="63.0234">«Wrapped Ether»</text><text fill="#000000" font-family="sans-serif" font-size="14" font-style="italic" lengthAdjust="spacing" textLength="63" x="934" y="79.5117">«(WETH)»</text><text fill="#000000" font-family="sans-serif" font-size="14" font-style="italic" lengthAdjust="spacing" textLength="62" x="934.5" y="96">«WETH9»</text><text fill="#000000" font-family="sans-serif" font-size="14" lengthAdjust="spacing" textLength="91" x="920" y="112.4883">0xc02a..6cc2</text><rect fill="#E2E2F0" height="79.9531" rx="2.5" ry="2.5" style="stroke:#181818;stroke-width:0.5;" width="129" x="901" y="1533.4902"/><text fill="#000000" font-family="sans-serif" font-size="14" font-style="italic" lengthAdjust="spacing" textLength="115" x="908" y="1554.0254">«Wrapped Ether»</text><text fill="#000000" font-family="sans-serif" font-size="14" font-style="italic" lengthAdjust="spacing" textLength="63" x="934" y="1570.5137">«(WETH)»</text><text fill="#000000" font-family="sans-serif" font-size="14" font-style="italic" lengthAdjust="spacing" textLength="62" x="934.5" y="1587.002">«WETH9»</text><text fill="#000000" font-family="sans-serif" font-size="14" lengthAdjust="spacing" textLength="91" x="920" y="1603.4902">0xc02a..6cc2</text><rect fill="#E2E2F0" height="79.9531" rx="2.5" ry="2.5" style="stroke:#181818;stroke-width:0.5;" width="135" x="1118" y="42.4883"/><text fill="#000000" font-family="sans-serif" font-size="14" font-style="italic" lengthAdjust="spacing" textLength="78" x="1146.5" y="63.0234">«USD Coin»</text><text fill="#000000" font-family="sans-serif" font-size="14" font-style="italic" lengthAdjust="spacing" textLength="62" x="1154.5" y="79.5117">«(USDC)»</text><text fill="#000000" font-family="sans-serif" font-size="14" font-style="italic" lengthAdjust="spacing" textLength="121" x="1125" y="96">«FiatTokenProxy»</text><text fill="#000000" font-family="sans-serif" font-size="14" lengthAdjust="spacing" textLength="96" x="1137.5" y="112.4883">0xa0b8..eb48</text><rect fill="#E2E2F0" height="79.9531" rx="2.5" ry="2.5" style="stroke:#181818;stroke-width:0.5;" width="135" x="1118" y="1533.4902"/><text fill="#000000" font-family="sans-serif" font-size="14" font-style="italic" lengthAdjust="spacing" textLength="78" x="1146.5" y="1554.0254">«USD Coin»</text><text fill="#000000" font-family="sans-serif" font-size="14" font-style="italic" lengthAdjust="spacing" textLength="62" x="1154.5" y="1570.5137">«(USDC)»</text><text fill="#000000" font-family="sans-serif" font-size="14" font-style="italic" lengthAdjust="spacing" textLength="121" x="1125" y="1587.002">«FiatTokenProxy»</text><text fill="#000000" font-family="sans-serif" font-size="14" lengthAdjust="spacing" textLength="96" x="1137.5" y="1603.4902">0xa0b8..eb48</text><rect fill="#FFFFFF" height="888.3535" style="stroke:#181818;stroke-width:1.0;" width="10" x="350.5" y="404.4102"/><rect fill="#FFFFFF" height="75.2422" style="stroke:#181818;stroke-width:1.0;" width="10" x="672.5" y="449.0313"/><rect fill="#FFFFFF" height="342.9688" style="stroke:#181818;stroke-width:1.0;" width="10" x="672.5" y="823.9316"/><rect fill="#FFFFFF" height="14" style="stroke:#181818;stroke-width:1.0;" width="10" x="960.5" y="584.2051"/><rect fill="#FFFFFF" height="44.6211" style="stroke:#181818;stroke-width:1.0;" width="10" x="960.5" y="673.4473"/><rect fill="#FFFFFF" height="44.6211" style="stroke:#181818;stroke-width:1.0;" width="10" x="960.5" y="1108.2793"/><rect fill="#FFFFFF" height="44.6211" style="stroke:#181818;stroke-width:1.0;" width="10" x="1180.5" y="899.1738"/><rect fill="#FFFFFF" height="44.6211" style="stroke:#181818;stroke-width:1.0;" width="10" x="1180.5" y="1003.7266"/><path d="M5,138.4414 L5,255.4414 L217,255.4414 L217,148.4414 L207,138.4414 L5,138.4414 " fill="#FEFFDD" style="stroke:#181818;stroke-width:0.5;"/><path d="M207,138.4414 L207,148.4414 L217,148.4414 L207,138.4414 " fill="#FEFFDD" style="stroke:#181818;stroke-width:0.5;"/><text fill="#000000" font-family="sans-serif" font-size="13" lengthAdjust="spacing" textLength="64" x="11" y="156.0098">Nonce: 14</text><text fill="#000000" font-family="sans-serif" font-size="13" lengthAdjust="spacing" textLength="191" x="11" y="171.3203">Gas Price: 24.990559933 Gwei</text><text fill="#000000" font-family="sans-serif" font-size="13" lengthAdjust="spacing" textLength="161" x="11" y="186.6309">Max Fee: 43.784602 Gwei</text><text fill="#000000" font-family="sans-serif" font-size="13" lengthAdjust="spacing" textLength="137" x="11" y="201.9414">Max Priority: 0.3 Gwei</text><text fill="#000000" font-family="sans-serif" font-size="13" lengthAdjust="spacing" textLength="119" x="11" y="217.252">Gas Limit: 191,187</text><text fill="#000000" font-family="sans-serif" font-size="13" lengthAdjust="spacing" textLength="118" x="11" y="232.5625">Gas Used: 133,606</text><text fill="#000000" font-family="sans-serif" font-size="13" lengthAdjust="spacing" textLength="114" x="11" y="247.873">Tx Fee: 0.003 ETH</text><polygon fill="#181818" points="338.5,400.4102,348.5,404.4102,338.5,408.4102,342.5,404.4102" style="stroke:#181818;stroke-width:1.0;"/><line style="stroke:#181818;stroke-width:1.0;" x1="110.5" x2="344.5" y1="404.4102" y2="404.4102"/><text fill="#000000" font-family="sans-serif" font-size="13" lengthAdjust="spacing" textLength="161" x="117.5" y="277.1836">swapExactETHForTokens(</text><text fill="#000000" font-family="sans-serif" font-size="13" lengthAdjust="spacing" textLength="206" x="117.5" y="292.4941">amountOutMin: 66,711,253,275,</text><text fill="#000000" font-family="sans-serif" font-size="13" lengthAdjust="spacing" textLength="40" x="117.5" y="307.8047">path: [</text><text fill="#000000" font-family="sans-serif" font-size="13" lengthAdjust="spacing" textLength="108" x="125.5" y="323.1152">0: 0xC02a..6Cc2,</text><text fill="#000000" font-family="sans-serif" font-size="13" lengthAdjust="spacing" textLength="111" x="125.5" y="338.4258">1: 0xA0b8..eB48],</text><text fill="#000000" font-family="sans-serif" font-size="13" lengthAdjust="spacing" textLength="109" x="117.5" y="353.7363">to: 0xf343..983a,</text><text fill="#000000" font-family="sans-serif" font-size="13" lengthAdjust="spacing" textLength="157" x="117.5" y="369.0469">deadline: 1,686,581,123)</text><text fill="#000000" font-family="sans-serif" font-size="13" lengthAdjust="spacing" textLength="78" x="117.5" y="384.3574">133,606 gas</text><text fill="#000000" font-family="sans-serif" font-size="13" lengthAdjust="spacing" textLength="73" x="117.5" y="399.668">57.518 ETH</text><polygon fill="#181818" points="660.5,445.0313,670.5,449.0313,660.5,453.0313,664.5,449.0313" style="stroke:#181818;stroke-width:1.0;"/><line style="stroke:#181818;stroke-width:1.0;" x1="360.5" x2="666.5" y1="449.0313" y2="449.0313"/><text fill="#000000" font-family="sans-serif" font-size="13" lengthAdjust="spacing" textLength="83" x="367.5" y="428.9785">getReserves()</text><text fill="#000000" font-family="sans-serif" font-size="13" lengthAdjust="spacing" textLength="62" x="367.5" y="444.2891">2,504 gas</text><polygon fill="#181818" points="371.5,520.2734,361.5,524.2734,371.5,528.2734,367.5,524.2734" style="stroke:#181818;stroke-width:1.0;"/><line style="stroke:#181818;stroke-width:1.0;stroke-dasharray:2.0,2.0;" x1="365.5" x2="676.5" y1="524.2734" y2="524.2734"/><text fill="#000000" font-family="sans-serif" font-size="13" lengthAdjust="spacing" textLength="4" x="377.5" y="473.5996"> </text><text fill="#000000" font-family="sans-serif" font-size="13" lengthAdjust="spacing" textLength="200" x="377.5" y="488.9102">_reserve0: 26,864,617,824,171,</text><text fill="#000000" font-family="sans-serif" font-size="13" lengthAdjust="spacing" textLength="288" x="377.5" y="504.2207">_reserve1: 15,440,,769,354,400,877,654,394,</text><text fill="#000000" font-family="sans-serif" font-size="13" lengthAdjust="spacing" textLength="238" x="377.5" y="519.5313">_blockTimestampLast: 1,686,579,347</text><polygon fill="#181818" points="948.5,580.2051,958.5,584.2051,948.5,588.2051,952.5,584.2051" style="stroke:#181818;stroke-width:1.0;"/><line style="stroke:#181818;stroke-width:1.0;" x1="360.5" x2="954.5" y1="584.2051" y2="584.2051"/><text fill="#000000" font-family="sans-serif" font-size="13" lengthAdjust="spacing" textLength="55" x="367.5" y="548.8418">deposit()</text><text fill="#000000" font-family="sans-serif" font-size="13" lengthAdjust="spacing" textLength="70" x="367.5" y="564.1523">23,974 gas</text><text fill="#000000" font-family="sans-serif" font-size="13" lengthAdjust="spacing" textLength="73" x="367.5" y="579.4629">57.518 ETH</text><polygon fill="#181818" points="371.5,594.2051,361.5,598.2051,371.5,602.2051,367.5,598.2051" style="stroke:#181818;stroke-width:1.0;"/><line style="stroke:#181818;stroke-width:1.0;stroke-dasharray:2.0,2.0;" x1="365.5" x2="964.5" y1="598.2051" y2="598.2051"/><polygon fill="#181818" points="948.5,669.4473,958.5,673.4473,948.5,677.4473,952.5,673.4473" style="stroke:#181818;stroke-width:1.0;"/><line style="stroke:#181818;stroke-width:1.0;" x1="360.5" x2="954.5" y1="673.4473" y2="673.4473"/><text fill="#000000" font-family="sans-serif" font-size="13" lengthAdjust="spacing" textLength="53" x="367.5" y="622.7734">transfer(</text><text fill="#000000" font-family="sans-serif" font-size="13" lengthAdjust="spacing" textLength="120" x="367.5" y="638.084">dst: 0xB4e1..C9Dc,</text><text fill="#000000" font-family="sans-serif" font-size="13" lengthAdjust="spacing" textLength="225" x="367.5" y="653.3945">wad: 57,,518,100,000,000,000,000)</text><text fill="#000000" font-family="sans-serif" font-size="13" lengthAdjust="spacing" textLength="62" x="367.5" y="668.7051">8,062 gas</text><polygon fill="#181818" points="371.5,714.0684,361.5,718.0684,371.5,722.0684,367.5,718.0684" style="stroke:#181818;stroke-width:1.0;"/><line style="stroke:#181818;stroke-width:1.0;stroke-dasharray:2.0,2.0;" x1="365.5" x2="964.5" y1="718.0684" y2="718.0684"/><text fill="#000000" font-family="sans-serif" font-size="13" lengthAdjust="spacing" textLength="4" x="377.5" y="698.0156"> </text><text fill="#000000" font-family="sans-serif" font-size="13" lengthAdjust="spacing" textLength="25" x="377.5" y="713.3262">true</text><polygon fill="#181818" points="660.5,819.9316,670.5,823.9316,660.5,827.9316,664.5,823.9316" style="stroke:#181818;stroke-width:1.0;"/><line style="stroke:#181818;stroke-width:1.0;" x1="360.5" x2="666.5" y1="823.9316" y2="823.9316"/><text fill="#000000" font-family="sans-serif" font-size="13" lengthAdjust="spacing" textLength="36" x="367.5" y="742.6367">swap(</text><text fill="#000000" font-family="sans-serif" font-size="13" lengthAdjust="spacing" textLength="191" x="367.5" y="757.9473">amount0Out: 99,403,455,134,</text><text fill="#000000" font-family="sans-serif" font-size="13" lengthAdjust="spacing" textLength="99" x="367.5" y="773.2578">amount1Out: 0,</text><text fill="#000000" font-family="sans-serif" font-size="13" lengthAdjust="spacing" textLength="109" x="367.5" y="788.5684">to: 0xf343..983a,</text><text fill="#000000" font-family="sans-serif" font-size="13" lengthAdjust="spacing" textLength="55" x="367.5" y="803.8789">data: 0x)</text><text fill="#000000" font-family="sans-serif" font-size="13" lengthAdjust="spacing" textLength="70" x="367.5" y="819.1895">79,689 gas</text><polygon fill="#181818" points="1168.5,895.1738,1178.5,899.1738,1168.5,903.1738,1172.5,899.1738" style="stroke:#181818;stroke-width:1.0;"/><line style="stroke:#181818;stroke-width:1.0;" x1="682.5" x2="1174.5" y1="899.1738" y2="899.1738"/><text fill="#000000" font-family="sans-serif" font-size="13" lengthAdjust="spacing" textLength="53" x="689.5" y="848.5">transfer(</text><text fill="#000000" font-family="sans-serif" font-size="13" lengthAdjust="spacing" textLength="109" x="689.5" y="863.8105">to: 0xf343..983a,</text><text fill="#000000" font-family="sans-serif" font-size="13" lengthAdjust="spacing" textLength="145" x="689.5" y="879.1211">value: 99,403,455,134)</text><text fill="#000000" font-family="sans-serif" font-size="13" lengthAdjust="spacing" textLength="70" x="689.5" y="894.4316">44,017 gas</text><polygon fill="#181818" points="693.5,939.7949,683.5,943.7949,693.5,947.7949,689.5,943.7949" style="stroke:#181818;stroke-width:1.0;"/><line style="stroke:#181818;stroke-width:1.0;stroke-dasharray:2.0,2.0;" x1="687.5" x2="1184.5" y1="943.7949" y2="943.7949"/><text fill="#000000" font-family="sans-serif" font-size="13" lengthAdjust="spacing" textLength="4" x="699.5" y="923.7422"> </text><text fill="#000000" font-family="sans-serif" font-size="13" lengthAdjust="spacing" textLength="25" x="699.5" y="939.0527">true</text><polygon fill="#181818" points="1168.5,999.7266,1178.5,1003.7266,1168.5,1007.7266,1172.5,1003.7266" style="stroke:#181818;stroke-width:1.0;"/><line style="stroke:#181818;stroke-width:1.0;" x1="682.5" x2="1174.5" y1="1003.7266" y2="1003.7266"/><text fill="#000000" font-family="sans-serif" font-size="13" lengthAdjust="spacing" textLength="67" x="689.5" y="968.3633">balanceOf(</text><text fill="#000000" font-family="sans-serif" font-size="13" lengthAdjust="spacing" textLength="92" x="689.5" y="983.6738">0xB4e1..C9Dc)</text><text fill="#000000" font-family="sans-serif" font-size="13" lengthAdjust="spacing" textLength="62" x="689.5" y="998.9844">1,315 gas</text><polygon fill="#181818" points="693.5,1044.3477,683.5,1048.3477,693.5,1052.3477,689.5,1048.3477" style="stroke:#181818;stroke-width:1.0;"/><line style="stroke:#181818;stroke-width:1.0;stroke-dasharray:2.0,2.0;" x1="687.5" x2="1184.5" y1="1048.3477" y2="1048.3477"/><text fill="#000000" font-family="sans-serif" font-size="13" lengthAdjust="spacing" textLength="4" x="699.5" y="1028.2949"> </text><text fill="#000000" font-family="sans-serif" font-size="13" lengthAdjust="spacing" textLength="128" x="699.5" y="1043.6055">26,765,214,369,037</text><polygon fill="#181818" points="948.5,1104.2793,958.5,1108.2793,948.5,1112.2793,952.5,1108.2793" style="stroke:#181818;stroke-width:1.0;"/><line style="stroke:#181818;stroke-width:1.0;" x1="682.5" x2="954.5" y1="1108.2793" y2="1108.2793"/><text fill="#000000" font-family="sans-serif" font-size="13" lengthAdjust="spacing" textLength="67" x="689.5" y="1072.916">balanceOf(</text><text fill="#000000" font-family="sans-serif" font-size="13" lengthAdjust="spacing" textLength="92" x="689.5" y="1088.2266">0xB4e1..C9Dc)</text><text fill="#000000" font-family="sans-serif" font-size="13" lengthAdjust="spacing" textLength="50" x="689.5" y="1103.5371">534 gas</text><polygon fill="#181818" points="693.5,1148.9004,683.5,1152.9004,693.5,1156.9004,689.5,1152.9004" style="stroke:#181818;stroke-width:1.0;"/><line style="stroke:#181818;stroke-width:1.0;stroke-dasharray:2.0,2.0;" x1="687.5" x2="964.5" y1="1152.9004" y2="1152.9004"/><text fill="#000000" font-family="sans-serif" font-size="13" lengthAdjust="spacing" textLength="4" x="699.5" y="1132.8477"> </text><text fill="#000000" font-family="sans-serif" font-size="13" lengthAdjust="spacing" textLength="216" x="699.5" y="1148.1582">15,498,,287,454,400,877,654,394</text><polygon fill="#181818" points="371.5,1162.9004,361.5,1166.9004,371.5,1170.9004,367.5,1166.9004" style="stroke:#181818;stroke-width:1.0;"/><line style="stroke:#181818;stroke-width:1.0;stroke-dasharray:2.0,2.0;" x1="365.5" x2="676.5" y1="1166.9004" y2="1166.9004"/><path d="M682,1179.9004 L682,1219.9004 L773,1219.9004 L773,1189.9004 L763,1179.9004 L682,1179.9004 " fill="#FEFFDD" style="stroke:#181818;stroke-width:0.5;"/><path d="M763,1179.9004 L763,1189.9004 L773,1189.9004 L763,1179.9004 " fill="#FEFFDD" style="stroke:#181818;stroke-width:0.5;"/><text fill="#000000" font-family="sans-serif" font-size="13" lengthAdjust="spacing" textLength="4" x="688" y="1197.4688"> </text><text fill="#000000" font-family="sans-serif" font-size="13" lengthAdjust="spacing" textLength="70" x="688" y="1212.7793">33,823 gas</text><polygon fill="#181818" points="121.5,1288.7637,111.5,1292.7637,121.5,1296.7637,117.5,1292.7637" style="stroke:#181818;stroke-width:1.0;"/><line style="stroke:#181818;stroke-width:1.0;stroke-dasharray:2.0,2.0;" x1="115.5" x2="354.5" y1="1292.7637" y2="1292.7637"/><text fill="#000000" font-family="sans-serif" font-size="13" lengthAdjust="spacing" textLength="4" x="127.5" y="1242.0898"> </text><text fill="#000000" font-family="sans-serif" font-size="13" lengthAdjust="spacing" textLength="67" x="127.5" y="1257.4004">amounts: [</text><text fill="#000000" font-family="sans-serif" font-size="13" lengthAdjust="spacing" textLength="208" x="135.5" y="1272.7109">0: 57,,518,100,000,000,000,000,</text><text fill="#000000" font-family="sans-serif" font-size="13" lengthAdjust="spacing" textLength="120" x="135.5" y="1288.0215">1: 99,403,455,134]</text><path d="M360,1305.7637 L360,1345.7637 L451,1345.7637 L451,1315.7637 L441,1305.7637 L360,1305.7637 " fill="#FEFFDD" style="stroke:#181818;stroke-width:0.5;"/><path d="M441,1305.7637 L441,1315.7637 L451,1315.7637 L441,1305.7637 " fill="#FEFFDD" style="stroke:#181818;stroke-width:0.5;"/><text fill="#000000" font-family="sans-serif" font-size="13" lengthAdjust="spacing" textLength="4" x="366" y="1323.332"> </text><text fill="#000000" font-family="sans-serif" font-size="13" lengthAdjust="spacing" textLength="70" x="366" y="1338.6426">19,377 gas</text><path d="M524,1356.3848 L524,1519.3848 L830,1519.3848 L830,1366.3848 L820,1356.3848 L524,1356.3848 " fill="#00FFFF" style="stroke:#181818;stroke-width:0.5;"/><path d="M820,1356.3848 L820,1366.3848 L830,1366.3848 L820,1356.3848 " fill="#00FFFF" style="stroke:#181818;stroke-width:0.5;"/><text fill="#000000" font-family="sans-serif" font-size="13" lengthAdjust="spacing" textLength="33" x="530" y="1373.9531">Sync:</text><text fill="#000000" font-family="sans-serif" font-size="13" lengthAdjust="spacing" textLength="193" x="538" y="1389.2637">reserve0: 26,765,214,369,037,</text><text fill="#000000" font-family="sans-serif" font-size="13" lengthAdjust="spacing" textLength="277" x="538" y="1404.5742">reserve1: 15,498,,287,454,400,877,654,394</text><text fill="#000000" font-family="sans-serif" font-size="13" lengthAdjust="spacing" textLength="36" x="530" y="1419.8848">Swap:</text><text fill="#000000" font-family="sans-serif" font-size="13" lengthAdjust="spacing" textLength="143" x="538" y="1435.1953">sender: 0x7a25..488D,</text><text fill="#000000" font-family="sans-serif" font-size="13" lengthAdjust="spacing" textLength="88" x="538" y="1450.5059">amount0In: 0,</text><text fill="#000000" font-family="sans-serif" font-size="13" lengthAdjust="spacing" textLength="268" x="538" y="1465.8164">amount1In: 57,,518,100,000,000,000,000,</text><text fill="#000000" font-family="sans-serif" font-size="13" lengthAdjust="spacing" textLength="191" x="538" y="1481.127">amount0Out: 99,403,455,134,</text><text fill="#000000" font-family="sans-serif" font-size="13" lengthAdjust="spacing" textLength="99" x="538" y="1496.4375">amount1Out: 0,</text><text fill="#000000" font-family="sans-serif" font-size="13" lengthAdjust="spacing" textLength="105" x="538" y="1511.748">to: 0xf343..983a</text><path d="M840,1356.3848 L840,1473.3848 L1090,1473.3848 L1090,1366.3848 L1080,1356.3848 L840,1356.3848 " fill="#00FFFF" style="stroke:#181818;stroke-width:0.5;"/><path d="M1080,1356.3848 L1080,1366.3848 L1090,1366.3848 L1080,1356.3848 " fill="#00FFFF" style="stroke:#181818;stroke-width:0.5;"/><text fill="#000000" font-family="sans-serif" font-size="13" lengthAdjust="spacing" textLength="53" x="846" y="1373.9531">Deposit:</text><text fill="#000000" font-family="sans-serif" font-size="13" lengthAdjust="spacing" textLength="121" x="854" y="1389.2637">dst: 0x7a25..488D,</text><text fill="#000000" font-family="sans-serif" font-size="13" lengthAdjust="spacing" textLength="221" x="854" y="1404.5742">wad: 57,,518,100,000,000,000,000</text><text fill="#000000" font-family="sans-serif" font-size="13" lengthAdjust="spacing" textLength="56" x="846" y="1419.8848">Transfer:</text><text fill="#000000" font-family="sans-serif" font-size="13" lengthAdjust="spacing" textLength="120" x="854" y="1435.1953">src: 0x7a25..488D,</text><text fill="#000000" font-family="sans-serif" font-size="13" lengthAdjust="spacing" textLength="120" x="854" y="1450.5059">dst: 0xB4e1..C9Dc,</text><text fill="#000000" font-family="sans-serif" font-size="13" lengthAdjust="spacing" textLength="221" x="854" y="1465.8164">wad: 57,,518,100,000,000,000,000</text><path d="M1100,1356.3848 L1100,1427.3848 L1270,1427.3848 L1270,1366.3848 L1260,1356.3848 L1100,1356.3848 " fill="#00FFFF" style="stroke:#181818;stroke-width:0.5;"/><path d="M1260,1356.3848 L1260,1366.3848 L1270,1366.3848 L1260,1356.3848 " fill="#00FFFF" style="stroke:#181818;stroke-width:0.5;"/><text fill="#000000" font-family="sans-serif" font-size="13" lengthAdjust="spacing" textLength="56" x="1106" y="1373.9531">Transfer:</text><text fill="#000000" font-family="sans-serif" font-size="13" lengthAdjust="spacing" textLength="130" x="1114" y="1389.2637">from: 0xB4e1..C9Dc,</text><text fill="#000000" font-family="sans-serif" font-size="13" lengthAdjust="spacing" textLength="109" x="1114" y="1404.5742">to: 0xf343..983a,</text><text fill="#000000" font-family="sans-serif" font-size="13" lengthAdjust="spacing" textLength="141" x="1114" y="1419.8848">value: 99,403,455,134</text><!--SRC=[ZLLDRziu4BthLn3TImgmMf8YHKe80coTfDj5qmQDanxMnOAIw4HeJ7afEd7-_GvbMue_akn1W6P4lfbvysRaQtzl45bAmeGn1KcrBbHAUK7OT3fDicbIbfHK1OVNek25OABCAbOfMHKLpOefbQKiTHb5fPxxkh5efcjhZSUek6_ANuXAdd9154ONZSM8ClJNmY96M88epscQmykdYt6aIzyuz8uifmbFuZXJYNw7T8k26GmKpRNpTLdFjVNXdDHCn35NgkhE1JCOwFZusjRjevxViE_DmXj7sCd9xkM26nh7K4dPNGvcC8RBw0Pk7HyVNN_z_E66lG_lFUobhjq-P4cOZkEqB5a76SnW0EGFf-TpKw4pVsTSX_hZRFndXnbUidqiJGeLnwRWgiCAPZ12UbUdQDJKTfNSrUceWpcljHytluozTCto2V0YstY3cWVZUWAZhuqjJGwiHvy0yzBLmM8ypZ8YH9Obq8T7KqSNUedE3No2DaZ5Ky86FrngNEsVSaJYzV60zQMUrHwGCugfafthkZKLU984foIDncj84XEI8AWvChP28SSewXlyuQHlOeu2qsTB40KSFczSLrnxDB5wrYoi_xRm5xNDKPfYIIbc8i5C2ZonS-tlSlJtn2948Dnoj6hAg6Gu-6Zm_R4YzoDNFy7fc-0RH0UkokZglhQ1Avog50i5TR7a_SIkwq6tkfrO8MD1LLSDv5a_Q61yKq3Kon6gsgWhHxV6VpUjSG-cFG8uXWNX0Mm0s9oDdF4BPoVs7xUw0EMm5AkKuvHAh1Z7L58yV8VIgC2S4unbck54SCm9mKfAdC9xal5mk9l9SJqphTUp-HVT-hv82PUut4fye-4SLMRUjBNlaavm9ldB56mkhIju0T0xRTkfST3IAYH1bX-xaHnbfoKa-gX10q9Y3F2OGXra-u4y52OfsoPl9pGqrotC2wq80klrH41GESeoe2p1N0XCaq3NwYFjFf8NjAAz3av820XCLVP2E_iD0qbindcBXGFO3_f-ONRJWa2SOqBbTg0DvdRfXwCM-bx3AlWsXR3FUGy2nmaLRo2336KgCAEWAb0QIUHMdA77hyGH2N-ZTK7CcSAOAGcbxubvewvkpxdwziwZPlgilHCBewhWtnAYR31N_Mo71V6AmZRxOflzdpi1XuK56SC0oLLRdgtVdfhVzByB7LqzsJAF4DgQwXqwyV1zFTMl4N45GWw8BQnKuuA8-Z_ZQK1QA_op3HhkRHhiryeVRXwQZG5dFHpWs5Nmint_Ene8wN-CAq9ELvibLB1U1DlflxK9el5wXZeENBcFiBzV_W_iuUJxF_4g-UUnfwwPxSVP6slm7Pph8U1_]--></g></svg>
