<?xml version="1.0" encoding="us-ascii" standalone="no"?><svg xmlns:xlink="http://www.w3.org/1999/xlink" xmlns="http://www.w3.org/2000/svg" contentStyleType="text/css" height="1137px" preserveAspectRatio="none" style="width:766px;height:1137px;background:#FFFFFF;" version="1.1" viewBox="0 0 766 1137" width="766px" zoomAndPan="magnify"><defs/><g><text fill="#000000" font-family="sans-serif" font-size="14" font-weight="bold" lengthAdjust="spacing" textLength="558" x="103.25" y="28.5352">0x7025eeb06aab8614b02fff39f3cc10db439fbb4b525c9d2d87dbd19bf17c7cac</text><text fill="#000000" font-family="sans-serif" font-size="14" lengthAdjust="spacing" textLength="408" x="178.25" y="1125.9727">mainnet, block 17464508, Mon, 12 Jun 2023 14:16:23 GMT</text><rect fill="#FFFFFF" height="608.0742" style="stroke:#181818;stroke-width:1.0;" width="10" x="234.5" y="231.3047"/><rect fill="#FFFFFF" height="59.9316" style="stroke:#181818;stroke-width:1.0;" width="10" x="406.5" y="260.6152"/><rect fill="#FFFFFF" height="251.1055" style="stroke:#181818;stroke-width:1.0;" width="10" x="406.5" y="558.9629"/><rect fill="#FFFFFF" height="14" style="stroke:#181818;stroke-width:1.0;" width="10" x="546" y="365.168"/><rect fill="#FFFFFF" height="29.3105" style="stroke:#181818;stroke-width:1.0;" width="10" x="546" y="439.0996"/><rect fill="#FFFFFF" height="29.3105" style="stroke:#181818;stroke-width:1.0;" width="10" x="546" y="766.7578"/><rect fill="#FFFFFF" height="29.3105" style="stroke:#181818;stroke-width:1.0;" width="10" x="688" y="618.8945"/><rect fill="#FFFFFF" height="29.3105" style="stroke:#181818;stroke-width:1.0;" width="10" x="688" y="692.8262"/><line style="stroke:#181818;stroke-width:0.5;stroke-dasharray:5.0,5.0;" x1="54" x2="54" y1="123.4414" y2="1030.4844"/><line style="stroke:#181818;stroke-width:0.5;stroke-dasharray:5.0,5.0;" x1="239.5" x2="239.5" y1="123.4414" y2="1030.4844"/><line style="stroke:#181818;stroke-width:0.5;stroke-dasharray:5.0,5.0;" x1="411.5" x2="411.5" y1="123.4414" y2="1030.4844"/><line style="stroke:#181818;stroke-width:0.5;stroke-dasharray:5.0,5.0;" x1="550.5" x2="550.5" y1="123.4414" y2="1030.4844"/><line style="stroke:#181818;stroke-width:0.5;stroke-dasharray:5.0,5.0;" x1="692.5" x2="692.5" y1="123.4414" y2="1030.4844"/><text fill="#000000" font-family="sans-serif" font-size="14" lengthAdjust="spacing" textLength="93" x="5" y="120.4883">0xf343..983a</text><ellipse cx="54.5" cy="55.4531" fill="#E2E2F0" rx="8" ry="8" style="stroke:#181818;stroke-width:0.5;"/><path d="M54.5,63.4531 L54.5,90.4531 M41.5,71.4531 L67.5,71.4531 M54.5,90.4531 L41.5,105.4531 M54.5,90.4531 L67.5,105.4531 " fill="none" style="stroke:#181818;stroke-width:0.5;"/><text fill="#000000" font-family="sans-serif" font-size="14" lengthAdjust="spacing" textLength="93" x="5" y="1043.0195">0xf343..983a</text><ellipse cx="54.5" cy="1054.4727" fill="#E2E2F0" rx="8" ry="8" style="stroke:#181818;stroke-width:0.5;"/><path d="M54.5,1062.4727 L54.5,1089.4727 M41.5,1070.4727 L67.5,1070.4727 M54.5,1089.4727 L41.5,1104.4727 M54.5,1089.4727 L67.5,1104.4727 " fill="none" style="stroke:#181818;stroke-width:0.5;"/><rect fill="#E2E2F0" height="46.9766" rx="2.5" ry="2.5" style="stroke:#181818;stroke-width:0.5;" width="168" x="155.5" y="75.4648"/><text fill="#000000" font-family="sans-serif" font-size="14" font-style="italic" lengthAdjust="spacing" textLength="154" x="162.5" y="96">&#171;UniswapV2Router02&#187;</text><text fill="#000000" font-family="sans-serif" font-size="14" lengthAdjust="spacing" textLength="97" x="191" y="112.4883">0x7a25..488d</text><rect fill="#E2E2F0" height="46.9766" rx="2.5" ry="2.5" style="stroke:#181818;stroke-width:0.5;" width="168" x="155.5" y="1029.4844"/><text fill="#000000" font-family="sans-serif" font-size="14" font-style="italic" lengthAdjust="spacing" textLength="154" x="162.5" y="1050.0195">&#171;UniswapV2Router02&#187;</text><text fill="#000000" font-family="sans-serif" font-size="14" lengthAdjust="spacing" textLength="97" x="191" y="1066.5078">0x7a25..488d</text><rect fill="#E2E2F0" height="79.9531" rx="2.5" ry="2.5" style="stroke:#181818;stroke-width:0.5;" width="130" x="346.5" y="42.4883"/><text fill="#000000" font-family="sans-serif" font-size="14" font-style="italic" lengthAdjust="spacing" textLength="94" x="364.5" y="63.0234">&#171;Uniswap V2&#187;</text><text fill="#000000" font-family="sans-serif" font-size="14" font-style="italic" lengthAdjust="spacing" textLength="74" x="374.5" y="79.5117">&#171;(UNI-V2)&#187;</text><text fill="#000000" font-family="sans-serif" font-size="14" font-style="italic" lengthAdjust="spacing" textLength="116" x="353.5" y="96">&#171;UniswapV2Pair&#187;</text><text fill="#000000" font-family="sans-serif" font-size="14" lengthAdjust="spacing" textLength="93" x="365" y="112.4883">0xb4e1..c9dc</text><rect fill="#E2E2F0" height="79.9531" rx="2.5" ry="2.5" style="stroke:#181818;stroke-width:0.5;" width="130" x="346.5" y="1029.4844"/><text fill="#000000" font-family="sans-serif" font-size="14" font-style="italic" lengthAdjust="spacing" textLength="94" x="364.5" y="1050.0195">&#171;Uniswap V2&#187;</text><text fill="#000000" font-family="sans-serif" font-size="14" font-style="italic" lengthAdjust="spacing" textLength="74" x="374.5" y="1066.5078">&#171;(UNI-V2)&#187;</text><text fill="#000000" font-family="sans-serif" font-size="14" font-style="italic" lengthAdjust="spacing" textLength="116" x="353.5" y="1082.9961">&#171;UniswapV2Pair&#187;</text><text fill="#000000" font-family="sans-serif" font-size="14" lengthAdjust="spacing" textLength="93" x="365" y="1099.4844">0xb4e1..c9dc</text><rect fill="#E2E2F0" height="79.9531" rx="2.5" ry="2.5" style="stroke:#181818;stroke-width:0.5;" width="129" x="486.5" y="42.4883"/><text fill="#000000" font-family="sans-serif" font-size="14" font-style="italic" lengthAdjust="spacing" textLength="115" x="493.5" y="63.0234">&#171;Wrapped Ether&#187;</text><text fill="#000000" font-family="sans-serif" font-size="14" font-style="italic" lengthAdjust="spacing" textLength="63" x="519.5" y="79.5117">&#171;(WETH)&#187;</text><text fill="#000000" font-family="sans-serif" font-size="14" font-style="italic" lengthAdjust="spacing" textLength="62" x="520" y="96">&#171;WETH9&#187;</text><text fill="#000000" font-family="sans-serif" font-size="14" lengthAdjust="spacing" textLength="91" x="505.5" y="112.4883">0xc02a..6cc2</text><rect fill="#E2E2F0" height="79.9531" rx="2.5" ry="2.5" style="stroke:#181818;stroke-width:0.5;" width="129" x="486.5" y="1029.4844"/><text fill="#000000" font-family="sans-serif" font-size="14" font-style="italic" lengthAdjust="spacing" textLength="115" x="493.5" y="1050.0195">&#171;Wrapped Ether&#187;</text><text fill="#000000" font-family="sans-serif" font-size="14" font-style="italic" lengthAdjust="spacing" textLength="63" x="519.5" y="1066.5078">&#171;(WETH)&#187;</text><text fill="#000000" font-family="sans-serif" font-size="14" font-style="italic" lengthAdjust="spacing" textLength="62" x="520" y="1082.9961">&#171;WETH9&#187;</text><text fill="#000000" font-family="sans-serif" font-size="14" lengthAdjust="spacing" textLength="91" x="505.5" y="1099.4844">0xc02a..6cc2</text><rect fill="#E2E2F0" height="79.9531" rx="2.5" ry="2.5" style="stroke:#181818;stroke-width:0.5;" width="135" x="625.5" y="42.4883"/><text fill="#000000" font-family="sans-serif" font-size="14" font-style="italic" lengthAdjust="spacing" textLength="78" x="654" y="63.0234">&#171;USD Coin&#187;</text><text fill="#000000" font-family="sans-serif" font-size="14" font-style="italic" lengthAdjust="spacing" textLength="62" x="662" y="79.5117">&#171;(USDC)&#187;</text><text fill="#000000" font-family="sans-serif" font-size="14" font-style="italic" lengthAdjust="spacing" textLength="121" x="632.5" y="96">&#171;FiatTokenProxy&#187;</text><text fill="#000000" font-family="sans-serif" font-size="14" lengthAdjust="spacing" textLength="96" x="645" y="112.4883">0xa0b8..eb48</text><rect fill="#E2E2F0" height="79.9531" rx="2.5" ry="2.5" style="stroke:#181818;stroke-width:0.5;" width="135" x="625.5" y="1029.4844"/><text fill="#000000" font-family="sans-serif" font-size="14" font-style="italic" lengthAdjust="spacing" textLength="78" x="654" y="1050.0195">&#171;USD Coin&#187;</text><text fill="#000000" font-family="sans-serif" font-size="14" font-style="italic" lengthAdjust="spacing" textLength="62" x="662" y="1066.5078">&#171;(USDC)&#187;</text><text fill="#000000" font-family="sans-serif" font-size="14" font-style="italic" lengthAdjust="spacing" textLength="121" x="632.5" y="1082.9961">&#171;FiatTokenProxy&#187;</text><text fill="#000000" font-family="sans-serif" font-size="14" lengthAdjust="spacing" textLength="96" x="645" y="1099.4844">0xa0b8..eb48</text><rect fill="#FFFFFF" height="608.0742" style="stroke:#181818;stroke-width:1.0;" width="10" x="234.5" y="231.3047"/><rect fill="#FFFFFF" height="59.9316" style="stroke:#181818;stroke-width:1.0;" width="10" x="406.5" y="260.6152"/><rect fill="#FFFFFF" height="251.1055" style="stroke:#181818;stroke-width:1.0;" width="10" x="406.5" y="558.9629"/><rect fill="#FFFFFF" height="14" style="stroke:#181818;stroke-width:1.0;" width="10" x="546" y="365.168"/><rect fill="#FFFFFF" height="29.3105" style="stroke:#181818;stroke-width:1.0;" width="10" x="546" y="439.0996"/><rect fill="#FFFFFF" height="29.3105" style="stroke:#181818;stroke-width:1.0;" width="10" x="546" y="766.7578"/><rect fill="#FFFFFF" height="29.3105" style="stroke:#181818;stroke-width:1.0;" width="10" x="688" y="618.8945"/><rect fill="#FFFFFF" height="29.3105" style="stroke:#181818;stroke-width:1.0;" width="10" x="688" y="692.8262"/><polygon fill="#181818" points="222.5,227.3047,232.5,231.3047,222.5,235.3047,226.5,231.3047" style="stroke:#181818;stroke-width:1.0;"/><line style="stroke:#181818;stroke-width:1.0;" x1="54.5" x2="228.5" y1="231.3047" y2="231.3047"/><text fill="#000000" font-family="sans-serif" font-size="13" lengthAdjust="spacing" textLength="161" x="61.5" y="150.0098">swapExactETHForTokens(</text><text fill="#000000" font-family="sans-serif" font-size="13" lengthAdjust="spacing" textLength="98" x="69.5" y="165.3203">amountOutMin,</text><text fill="#000000" font-family="sans-serif" font-size="13" lengthAdjust="spacing" textLength="32" x="69.5" y="180.6309">path,</text><text fill="#000000" font-family="sans-serif" font-size="13" lengthAdjust="spacing" textLength="17" x="69.5" y="195.9414">to,</text><text fill="#000000" font-family="sans-serif" font-size="13" lengthAdjust="spacing" textLength="57" x="69.5" y="211.252">deadline)</text><text fill="#000000" font-family="sans-serif" font-size="13" lengthAdjust="spacing" textLength="73" x="61.5" y="226.5625">57.518 ETH</text><polygon fill="#181818" points="394.5,256.6152,404.5,260.6152,394.5,264.6152,398.5,260.6152" style="stroke:#181818;stroke-width:1.0;"/><line style="stroke:#181818;stroke-width:1.0;" x1="244.5" x2="400.5" y1="260.6152" y2="260.6152"/><text fill="#000000" font-family="sans-serif" font-size="13" lengthAdjust="spacing" textLength="83" x="251.5" y="255.873">getReserves()</text><polygon fill="#181818" points="255.5,316.5469,245.5,320.5469,255.5,324.5469,251.5,320.5469" style="stroke:#181818;stroke-width:1.0;"/><line style="stroke:#181818;stroke-width:1.0;stroke-dasharray:2.0,2.0;" x1="249.5" x2="410.5" y1="320.5469" y2="320.5469"/><text fill="#000000" font-family="sans-serif" font-size="13" lengthAdjust="spacing" textLength="64" x="261.5" y="285.1836">_reserve0,</text><text fill="#000000" font-family="sans-serif" font-size="13" lengthAdjust="spacing" textLength="64" x="261.5" y="300.4941">_reserve1,</text><text fill="#000000" font-family="sans-serif" font-size="13" lengthAdjust="spacing" textLength="138" x="261.5" y="315.8047">_blockTimestampLast</text><polygon fill="#181818" points="534,361.168,544,365.168,534,369.168,538,365.168" style="stroke:#181818;stroke-width:1.0;"/><line style="stroke:#181818;stroke-width:1.0;" x1="244.5" x2="540" y1="365.168" y2="365.168"/><text fill="#000000" font-family="sans-serif" font-size="13" lengthAdjust="spacing" textLength="55" x="251.5" y="345.1152">deposit()</text><text fill="#000000" font-family="sans-serif" font-size="13" lengthAdjust="spacing" textLength="73" x="251.5" y="360.4258">57.518 ETH</text><polygon fill="#181818" points="255.5,375.168,245.5,379.168,255.5,383.168,251.5,379.168" style="stroke:#181818;stroke-width:1.0;"/><line style="stroke:#181818;stroke-width:1.0;stroke-dasharray:2.0,2.0;" x1="249.5" x2="550" y1="379.168" y2="379.168"/><polygon fill="#181818" points="534,435.0996,544,439.0996,534,443.0996,538,439.0996" style="stroke:#181818;stroke-width:1.0;"/><line style="stroke:#181818;stroke-width:1.0;" x1="244.5" x2="540" y1="439.0996" y2="439.0996"/><text fill="#000000" font-family="sans-serif" font-size="13" lengthAdjust="spacing" textLength="53" x="251.5" y="403.7363">transfer(</text><text fill="#000000" font-family="sans-serif" font-size="13" lengthAdjust="spacing" textLength="24" x="259.5" y="419.0469">dst,</text><text fill="#000000" font-family="sans-serif" font-size="13" lengthAdjust="spacing" textLength="29" x="259.5" y="434.3574">wad)</text><polygon fill="#181818" points="255.5,464.4102,245.5,468.4102,255.5,472.4102,251.5,468.4102" style="stroke:#181818;stroke-width:1.0;"/><line style="stroke:#181818;stroke-width:1.0;stroke-dasharray:2.0,2.0;" x1="249.5" x2="550" y1="468.4102" y2="468.4102"/><text fill="#000000" font-family="sans-serif" font-size="13" lengthAdjust="spacing" textLength="5" x="261.5" y="463.668">?</text><polygon fill="#181818" points="394.5,554.9629,404.5,558.9629,394.5,562.9629,398.5,558.9629" style="stroke:#181818;stroke-width:1.0;"/><line style="stroke:#181818;stroke-width:1.0;" x1="244.5" x2="400.5" y1="558.9629" y2="558.9629"/><text fill="#000000" font-family="sans-serif" font-size="13" lengthAdjust="spacing" textLength="36" x="251.5" y="492.9785">swap(</text><text fill="#000000" font-family="sans-serif" font-size="13" lengthAdjust="spacing" textLength="83" x="259.5" y="508.2891">amount0Out,</text><text fill="#000000" font-family="sans-serif" font-size="13" lengthAdjust="spacing" textLength="83" x="259.5" y="523.5996">amount1Out,</text><text fill="#000000" font-family="sans-serif" font-size="13" lengthAdjust="spacing" textLength="17" x="259.5" y="538.9102">to,</text><text fill="#000000" font-family="sans-serif" font-size="13" lengthAdjust="spacing" textLength="31" x="259.5" y="554.2207">data)</text><polygon fill="#181818" points="676,614.8945,686,618.8945,676,622.8945,680,618.8945" style="stroke:#181818;stroke-width:1.0;"/><line style="stroke:#181818;stroke-width:1.0;" x1="416.5" x2="682" y1="618.8945" y2="618.8945"/><text fill="#000000" font-family="sans-serif" font-size="13" lengthAdjust="spacing" textLength="53" x="423.5" y="583.5313">transfer(</text><text fill="#000000" font-family="sans-serif" font-size="13" lengthAdjust="spacing" textLength="17" x="431.5" y="598.8418">to,</text><text fill="#000000" font-family="sans-serif" font-size="13" lengthAdjust="spacing" textLength="37" x="431.5" y="614.1523">value)</text><polygon fill="#181818" points="427.5,644.2051,417.5,648.2051,427.5,652.2051,423.5,648.2051" style="stroke:#181818;stroke-width:1.0;"/><line style="stroke:#181818;stroke-width:1.0;stroke-dasharray:2.0,2.0;" x1="421.5" x2="692" y1="648.2051" y2="648.2051"/><text fill="#000000" font-family="sans-serif" font-size="13" lengthAdjust="spacing" textLength="5" x="433.5" y="643.4629">?</text><polygon fill="#181818" points="676,688.8262,686,692.8262,676,696.8262,680,692.8262" style="stroke:#181818;stroke-width:1.0;"/><line style="stroke:#181818;stroke-width:1.0;" x1="416.5" x2="682" y1="692.8262" y2="692.8262"/><text fill="#000000" font-family="sans-serif" font-size="13" lengthAdjust="spacing" textLength="67" x="423.5" y="672.7734">balanceOf(</text><text fill="#000000" font-family="sans-serif" font-size="13" lengthAdjust="spacing" textLength="9" x="431.5" y="688.084">?)</text><polygon fill="#181818" points="427.5,718.1367,417.5,722.1367,427.5,726.1367,423.5,722.1367" style="stroke:#181818;stroke-width:1.0;"/><line style="stroke:#181818;stroke-width:1.0;stroke-dasharray:2.0,2.0;" x1="421.5" x2="692" y1="722.1367" y2="722.1367"/><text fill="#000000" font-family="sans-serif" font-size="13" lengthAdjust="spacing" textLength="5" x="433.5" y="717.3945">?</text><polygon fill="#181818" points="534,762.7578,544,766.7578,534,770.7578,538,766.7578" style="stroke:#181818;stroke-width:1.0;"/><line style="stroke:#181818;stroke-width:1.0;" x1="416.5" x2="540" y1="766.7578" y2="766.7578"/><text fill="#000000" font-family="sans-serif" font-size="13" lengthAdjust="spacing" textLength="67" x="423.5" y="746.7051">balanceOf(</text><text fill="#000000" font-family="sans-serif" font-size="13" lengthAdjust="spacing" textLength="9" x="431.5" y="762.0156">?)</text><polygon fill="#181818" points="427.5,792.0684,417.5,796.0684,427.5,800.0684,423.5,796.0684" style="stroke:#181818;stroke-width:1.0;"/><line style="stroke:#181818;stroke-width:1.0;stroke-dasharray:2.0,2.0;" x1="421.5" x2="550" y1="796.0684" y2="796.0684"/><text fill="#000000" font-family="sans-serif" font-size="13" lengthAdjust="spacing" textLength="5" x="433.5" y="791.3262">?</text><polygon fill="#181818" points="255.5,806.0684,245.5,810.0684,255.5,814.0684,251.5,810.0684" style="stroke:#181818;stroke-width:1.0;"/><line style="stroke:#181818;stroke-width:1.0;stroke-dasharray:2.0,2.0;" x1="249.5" x2="410.5" y1="810.0684" y2="810.0684"/><polygon fill="#181818" points="65.5,835.3789,55.5,839.3789,65.5,843.3789,61.5,839.3789" style="stroke:#181818;stroke-width:1.0;"/><line style="stroke:#181818;stroke-width:1.0;stroke-dasharray:2.0,2.0;" x1="59.5" x2="238.5" y1="839.3789" y2="839.3789"/><text fill="#000000" font-family="sans-serif" font-size="13" lengthAdjust="spacing" textLength="55" x="71.5" y="834.6367">amounts</text><path d="M355,852.3789 L355,1015.3789 L467,1015.3789 L467,862.3789 L457,852.3789 L355,852.3789 " fill="#00FFFF" style="stroke:#181818;stroke-width:0.5;"/><path d="M457,852.3789 L457,862.3789 L467,862.3789 L457,852.3789 " fill="#00FFFF" style="stroke:#181818;stroke-width:0.5;"/><text fill="#000000" font-family="sans-serif" font-size="13" lengthAdjust="spacing" textLength="33" x="361" y="869.9473">Sync:</text><text fill="#000000" font-family="sans-serif" font-size="13" lengthAdjust="spacing" textLength="57" x="369" y="885.2578">reserve0,</text><text fill="#000000" font-family="sans-serif" font-size="13" lengthAdjust="spacing" textLength="53" x="369" y="900.5684">reserve1</text><text fill="#000000" font-family="sans-serif" font-size="13" lengthAdjust="spacing" textLength="36" x="361" y="915.8789">Swap:</text><text fill="#000000" font-family="sans-serif" font-size="13" lengthAdjust="spacing" textLength="46" x="369" y="931.1895">sender,</text><text fill="#000000" font-family="sans-serif" font-size="13" lengthAdjust="spacing" textLength="72" x="369" y="946.5">amount0In,</text><text fill="#000000" font-family="sans-serif" font-size="13" lengthAdjust="spacing" textLength="72" x="369" y="961.8105">amount1In,</text><text fill="#000000" font-family="sans-serif" font-size="13" lengthAdjust="spacing" textLength="83" x="369" y="977.1211">amount0Out,</text><text fill="#000000" font-family="sans-serif" font-size="13" lengthAdjust="spacing" textLength="83" x="369" y="992.4316">amount1Out,</text><text fill="#000000" font-family="sans-serif" font-size="13" lengthAdjust="spacing" textLength="13" x="369" y="1007.7422">to</text><path d="M512,852.3789 L512,969.3789 L589,969.3789 L589,862.3789 L579,852.3789 L512,852.3789 " fill="#00FFFF" style="stroke:#181818;stroke-width:0.5;"/><path d="M579,852.3789 L579,862.3789 L589,862.3789 L579,852.3789 " fill="#00FFFF" style="stroke:#181818;stroke-width:0.5;"/><text fill="#000000" font-family="sans-serif" font-size="13" lengthAdjust="spacing" textLength="53" x="518" y="869.9473">Deposit:</text><text fill="#000000" font-family="sans-serif" font-size="13" lengthAdjust="spacing" textLength="24" x="526" y="885.2578">dst,</text><text fill="#000000" font-family="sans-serif" font-size="13" lengthAdjust="spacing" textLength="25" x="526" y="900.5684">wad</text><text fill="#000000" font-family="sans-serif" font-size="13" lengthAdjust="spacing" textLength="56" x="518" y="915.8789">Transfer:</text><text fill="#000000" font-family="sans-serif" font-size="13" lengthAdjust="spacing" textLength="23" x="526" y="931.1895">src,</text><text fill="#000000" font-family="sans-serif" font-size="13" lengthAdjust="spacing" textLength="24" x="526" y="946.5">dst,</text><text fill="#000000" font-family="sans-serif" font-size="13" lengthAdjust="spacing" textLength="25" x="526" y="961.8105">wad</text><path d="M654,852.3789 L654,923.3789 L731,923.3789 L731,862.3789 L721,852.3789 L654,852.3789 " fill="#00FFFF" style="stroke:#181818;stroke-width:0.5;"/><path d="M721,852.3789 L721,862.3789 L731,862.3789 L721,852.3789 " fill="#00FFFF" style="stroke:#181818;stroke-width:0.5;"/><text fill="#000000" font-family="sans-serif" font-size="13" lengthAdjust="spacing" textLength="56" x="660" y="869.9473">Transfer:</text><text fill="#000000" font-family="sans-serif" font-size="13" lengthAdjust="spacing" textLength="34" x="668" y="885.2578">from,</text><text fill="#000000" font-family="sans-serif" font-size="13" lengthAdjust="spacing" textLength="17" x="668" y="900.5684">to,</text><text fill="#000000" font-family="sans-serif" font-size="13" lengthAdjust="spacing" textLength="33" x="668" y="915.8789">value</text><!--SRC=[ZPFVJzim4CVV_LTOxAMLIXQdIPjM5JpmOsCQ0z42BqZJsN66HMjdZbFAVp_RQP92gRINvhxDtUSkNv-DC4kEmyquZ1BEQJW2eEc8n3ICyZmVJl8XOoJCQ6n3IcEQH0cRP56MZZEQaGdDoPYD6J2461H6A8bN8AJaPe3fKh4NJCRnA4x2T82lbHnW4k4VbSHH60qnYQTaDBN1j-i50cQKnaVX9X_6mo2Of4Cumb1Y9vt0g01j11C5IEFonX0bGH2dQURpd7G2psRtKfIlK3n4TweoN8VHoSd7OXfp4WJsIvWlTjA9hXW_sAhPh7V_w-hu8UgxkCNUWj3xI1P640GZnYAFTD89YtpKK1GymnVccMjFVRnOVFTC5qpsMH3ID0WuZLFFSj89Dzxy79yf8UlXvkTd7dCfm2pK2vUtMctUB0-rjXsVjDPCiPl_OcEjjcqlbVObPUz9OWmhLKbpKvbh8GVkZmBCim-Cye-CGxOKalUVP38E4f9Yot2d9jPWUDi3jUTW6pUsJl4VRkvuoVMQbxr-LzKa8CrDfIN-hUkaqBPiOk9YlqiBiUAbWLNn4qhphb5ZzjIEMQXIcDw1CPl4fk41Yj4WovnhRqrM6k_0AsJzmwJJ0r_kBDznEBGM3pf96jcu30O-ywTTKCjkjk73c5l26fOLtq4qsTsSdxCeB44oVfDxsEb_4phJ3XFslMhitpvhCqg4fBBfQirrToM_mDyAqFnDiYd2k5sGBYPeRZrsBqikCwxTgwtPLx8JP5VuOq3lJW4v2v4bO3S4GbznDqnxcUjXpkibSotTSY2_6sYnFGq_YMQ3zsy_1xStkmRl8dAjLlLGxjSVQmVv1m00]--></g></svg>
