<?xml version="1.0" encoding="us-ascii" standalone="no"?><svg xmlns:xlink="http://www.w3.org/1999/xlink" xmlns="http://www.w3.org/2000/svg" contentStyleType="text/css" height="1229px" preserveAspectRatio="none" style="width:766px;height:1229px;background:#FFFFFF;" version="1.1" viewBox="0 0 766 1229" width="766px" zoomAndPan="magnify"><defs/><g><text fill="#000000" font-family="sans-serif" font-size="14" font-weight="bold" lengthAdjust="spacing" textLength="558" x="103.25" y="28.5352">0x7025eeb06aab8614b02fff39f3cc10db439fbb4b525c9d2d87dbd19bf17c7cac</text><text fill="#000000" font-family="sans-serif" font-size="14" lengthAdjust="spacing" textLength="408" x="178.25" y="1217.8359">mainnet, block 17464508, Mon, 12 Jun 2023 14:16:23 GMT</text><rect fill="#FFFFFF" height="699.9375" style="stroke:#181818;stroke-width:1.0;" width="10" x="234.5" y="231.3047"/><rect fill="#FFFFFF" height="75.2422" style="stroke:#181818;stroke-width:1.0;" width="10" x="406.5" y="260.6152"/><rect fill="#FFFFFF" height="297.0371" style="stroke:#181818;stroke-width:1.0;" width="10" x="406.5" y="589.584"/><rect fill="#FFFFFF" height="14" style="stroke:#181818;stroke-width:1.0;" width="10" x="546" y="380.4785"/><rect fill="#FFFFFF" height="44.6211" style="stroke:#181818;stroke-width:1.0;" width="10" x="546" y="454.4102"/><rect fill="#FFFFFF" height="44.6211" style="stroke:#181818;stroke-width:1.0;" width="10" x="546" y="828"/><rect fill="#FFFFFF" height="44.6211" style="stroke:#181818;stroke-width:1.0;" width="10" x="688" y="649.5156"/><rect fill="#FFFFFF" height="44.6211" style="stroke:#181818;stroke-width:1.0;" width="10" x="688" y="738.7578"/><line style="stroke:#181818;stroke-width:0.5;stroke-dasharray:5.0,5.0;" x1="54" x2="54" y1="123.4414" y2="1122.3477"/><line style="stroke:#181818;stroke-width:0.5;stroke-dasharray:5.0,5.0;" x1="239.5" x2="239.5" y1="123.4414" y2="1122.3477"/><line style="stroke:#181818;stroke-width:0.5;stroke-dasharray:5.0,5.0;" x1="411.5" x2="411.5" y1="123.4414" y2="1122.3477"/><line style="stroke:#181818;stroke-width:0.5;stroke-dasharray:5.0,5.0;" x1="550.5" x2="550.5" y1="123.4414" y2="1122.3477"/><line style="stroke:#181818;stroke-width:0.5;stroke-dasharray:5.0,5.0;" x1="692.5" x2="692.5" y1="123.4414" y2="1122.3477"/><text fill="#000000" font-family="sans-serif" font-size="14" lengthAdjust="spacing" textLength="93" x="5" y="120.4883">0xf343..983a</text><ellipse cx="54.5" cy="55.4531" fill="#E2E2F0" rx="8" ry="8" style="stroke:#181818;stroke-width:0.5;"/><path d="M54.5,63.4531 L54.5,90.4531 M41.5,71.4531 L67.5,71.4531 M54.5,90.4531 L41.5,105.4531 M54.5,90.4531 L67.5,105.4531 " fill="none" style="stroke:#181818;stroke-width:0.5;"/><text fill="#000000" font-family="sans-serif" font-size="14" lengthAdjust="spacing" textLength="93" x="5" y="1134.8828">0xf343..983a</text><ellipse cx="54.5" cy="1146.3359" fill="#E2E2F0" rx="8" ry="8" style="stroke:#181818;stroke-width:0.5;"/><path d="M54.5,1154.3359 L54.5,1181.3359 M41.5,1162.3359 L67.5,1162.3359 M54.5,1181.3359 L41.5,1196.3359 M54.5,1181.3359 L67.5,1196.3359 " fill="none" style="stroke:#181818;stroke-width:0.5;"/><rect fill="#E2E2F0" height="46.9766" rx="2.5" ry="2.5" style="stroke:#181818;stroke-width:0.5;" width="168" x="155.5" y="75.4648"/><text fill="#000000" font-family="sans-serif" font-size="14" font-style="italic" lengthAdjust="spacing" textLength="154" x="162.5" y="96">&#171;UniswapV2Router02&#187;</text><text fill="#000000" font-family="sans-serif" font-size="14" lengthAdjust="spacing" textLength="97" x="191" y="112.4883">0x7a25..488d</text><rect fill="#E2E2F0" height="46.9766" rx="2.5" ry="2.5" style="stroke:#181818;stroke-width:0.5;" width="168" x="155.5" y="1121.3477"/><text fill="#000000" font-family="sans-serif" font-size="14" font-style="italic" lengthAdjust="spacing" textLength="154" x="162.5" y="1141.8828">&#171;UniswapV2Router02&#187;</text><text fill="#000000" font-family="sans-serif" font-size="14" lengthAdjust="spacing" textLength="97" x="191" y="1158.3711">0x7a25..488d</text><rect fill="#E2E2F0" height="79.9531" rx="2.5" ry="2.5" style="stroke:#181818;stroke-width:0.5;" width="130" x="346.5" y="42.4883"/><text fill="#000000" font-family="sans-serif" font-size="14" font-style="italic" lengthAdjust="spacing" textLength="94" x="364.5" y="63.0234">&#171;Uniswap V2&#187;</text><text fill="#000000" font-family="sans-serif" font-size="14" font-style="italic" lengthAdjust="spacing" textLength="74" x="374.5" y="79.5117">&#171;(UNI-V2)&#187;</text><text fill="#000000" font-family="sans-serif" font-size="14" font-style="italic" lengthAdjust="spacing" textLength="116" x="353.5" y="96">&#171;UniswapV2Pair&#187;</text><text fill="#000000" font-family="sans-serif" font-size="14" lengthAdjust="spacing" textLength="93" x="365" y="112.4883">0xb4e1..c9dc</text><rect fill="#E2E2F0" height="79.9531" rx="2.5" ry="2.5" style="stroke:#181818;stroke-width:0.5;" width="130" x="346.5" y="1121.3477"/><text fill="#000000" font-family="sans-serif" font-size="14" font-style="italic" lengthAdjust="spacing" textLength="94" x="364.5" y="1141.8828">&#171;Uniswap V2&#187;</text><text fill="#000000" font-family="sans-serif" font-size="14" font-style="italic" lengthAdjust="spacing" textLength="74" x="374.5" y="1158.3711">&#171;(UNI-V2)&#187;</text><text fill="#000000" font-family="sans-serif" font-size="14" font-style="italic" lengthAdjust="spacing" textLength="116" x="353.5" y="1174.8594">&#171;UniswapV2Pair&#187;</text><text fill="#000000" font-family="sans-serif" font-size="14" lengthAdjust="spacing" textLength="93" x="365" y="1191.3477">0xb4e1..c9dc</text><rect fill="#E2E2F0" height="79.9531" rx="2.5" ry="2.5" style="stroke:#181818;stroke-width:0.5;" width="129" x="486.5" y="42.4883"/><text fill="#000000" font-family="sans-serif" font-size="14" font-style="italic" lengthAdjust="spacing" textLength="115" x="493.5" y="63.0234">&#171;Wrapped Ether&#187;</text><text fill="#000000" font-family="sans-serif" font-size="14" font-style="italic" lengthAdjust="spacing" textLength="63" x="519.5" y="79.5117">&#171;(WETH)&#187;</text><text fill="#000000" font-family="sans-serif" font-size="14" font-style="italic" lengthAdjust="spacing" textLength="62" x="520" y="96">&#171;WETH9&#187;</text><text fill="#000000" font-family="sans-serif" font-size="14" lengthAdjust="spacing" textLength="91" x="505.5" y="112.4883">0xc02a..6cc2</text><rect fill="#E2E2F0" height="79.9531" rx="2.5" ry="2.5" style="stroke:#181818;stroke-width:0.5;" width="129" x="486.5" y="1121.3477"/><text fill="#000000" font-family="sans-serif" font-size="14" font-style="italic" lengthAdjust="spacing" textLength="115" x="493.5" y="1141.8828">&#171;Wrapped Ether&#187;</text><text fill="#000000" font-family="sans-serif" font-size="14" font-style="italic" lengthAdjust="spacing" textLength="63" x="519.5" y="1158.3711">&#171;(WETH)&#187;</text><text fill="#000000" font-family="sans-serif" font-size="14" font-style="italic" lengthAdjust="spacing" textLength="62" x="520" y="1174.8594">&#171;WETH9&#187;</text><text fill="#000000" font-family="sans-serif" font-size="14" lengthAdjust="spacing" textLength="91" x="505.5" y="1191.3477">0xc02a..6cc2</text><rect fill="#E2E2F0" height="79.9531" rx="2.5" ry="2.5" style="stroke:#181818;stroke-width:0.5;" width="135" x="625.5" y="42.4883"/><text fill="#000000" font-family="sans-serif" font-size="14" font-style="italic" lengthAdjust="spacing" textLength="78" x="654" y="63.0234">&#171;USD Coin&#187;</text><text fill="#000000" font-family="sans-serif" font-size="14" font-style="italic" lengthAdjust="spacing" textLength="62" x="662" y="79.5117">&#171;(USDC)&#187;</text><text fill="#000000" font-family="sans-serif" font-size="14" font-style="italic" lengthAdjust="spacing" textLength="121" x="632.5" y="96">&#171;FiatTokenProxy&#187;</text><text fill="#000000" font-family="sans-serif" font-size="14" lengthAdjust="spacing" textLength="96" x="645" y="112.4883">0xa0b8..eb48</text><rect fill="#E2E2F0" height="79.9531" rx="2.5" ry="2.5" style="stroke:#181818;stroke-width:0.5;" width="135" x="625.5" y="1121.3477"/><text fill="#000000" font-family="sans-serif" font-size="14" font-style="italic" lengthAdjust="spacing" textLength="78" x="654" y="1141.8828">&#171;USD Coin&#187;</text><text fill="#000000" font-family="sans-serif" font-size="14" font-style="italic" lengthAdjust="spacing" textLength="62" x="662" y="1158.3711">&#171;(USDC)&#187;</text><text fill="#000000" font-family="sans-serif" font-size="14" font-style="italic" lengthAdjust="spacing" textLength="121" x="632.5" y="1174.8594">&#171;FiatTokenProxy&#187;</text><text fill="#000000" font-family="sans-serif" font-size="14" lengthAdjust="spacing" textLength="96" x="645" y="1191.3477">0xa0b8..eb48</text><rect fill="#FFFFFF" height="699.9375" style="stroke:#181818;stroke-width:1.0;" width="10" x="234.5" y="231.3047"/><rect fill="#FFFFFF" height="75.2422" style="stroke:#181818;stroke-width:1.0;" width="10" x="406.5" y="260.6152"/><rect fill="#FFFFFF" height="297.0371" style="stroke:#181818;stroke-width:1.0;" width="10" x="406.5" y="589.584"/><rect fill="#FFFFFF" height="14" style="stroke:#181818;stroke-width:1.0;" width="10" x="546" y="380.4785"/><rect fill="#FFFFFF" height="44.6211" style="stroke:#181818;stroke-width:1.0;" width="10" x="546" y="454.4102"/><rect fill="#FFFFFF" height="44.6211" style="stroke:#181818;stroke-width:1.0;" width="10" x="546" y="828"/><rect fill="#FFFFFF" height="44.6211" style="stroke:#181818;stroke-width:1.0;" width="10" x="688" y="649.5156"/><rect fill="#FFFFFF" height="44.6211" style="stroke:#181818;stroke-width:1.0;" width="10" x="688" y="738.7578"/><polygon fill="#181818" points="222.5,227.3047,232.5,231.3047,222.5,235.3047,226.5,231.3047" style="stroke:#181818;stroke-width:1.0;"/><line style="stroke:#181818;stroke-width:1.0;" x1="54.5" x2="228.5" y1="231.3047" y2="231.3047"/><text fill="#000000" font-family="sans-serif" font-size="13" lengthAdjust="spacing" textLength="161" x="61.5" y="150.0098">swapExactETHForTokens(</text><text fill="#000000" font-family="sans-serif" font-size="13" lengthAdjust="spacing" textLength="98" x="61.5" y="165.3203">amountOutMin,</text><text fill="#000000" font-family="sans-serif" font-size="13" lengthAdjust="spacing" textLength="32" x="61.5" y="180.6309">path,</text><text fill="#000000" font-family="sans-serif" font-size="13" lengthAdjust="spacing" textLength="17" x="61.5" y="195.9414">to,</text><text fill="#000000" font-family="sans-serif" font-size="13" lengthAdjust="spacing" textLength="57" x="61.5" y="211.252">deadline)</text><text fill="#000000" font-family="sans-serif" font-size="13" lengthAdjust="spacing" textLength="73" x="61.5" y="226.5625">57.518 ETH</text><polygon fill="#181818" points="394.5,256.6152,404.5,260.6152,394.5,264.6152,398.5,260.6152" style="stroke:#181818;stroke-width:1.0;"/><line style="stroke:#181818;stroke-width:1.0;" x1="244.5" x2="400.5" y1="260.6152" y2="260.6152"/><text fill="#000000" font-family="sans-serif" font-size="13" lengthAdjust="spacing" textLength="83" x="251.5" y="255.873">getReserves()</text><polygon fill="#181818" points="255.5,331.8574,245.5,335.8574,255.5,339.8574,251.5,335.8574" style="stroke:#181818;stroke-width:1.0;"/><line style="stroke:#181818;stroke-width:1.0;stroke-dasharray:2.0,2.0;" x1="249.5" x2="410.5" y1="335.8574" y2="335.8574"/><text fill="#000000" font-family="sans-serif" font-size="13" lengthAdjust="spacing" textLength="4" x="261.5" y="285.1836">&#160;</text><text fill="#000000" font-family="sans-serif" font-size="13" lengthAdjust="spacing" textLength="64" x="261.5" y="300.4941">_reserve0,</text><text fill="#000000" font-family="sans-serif" font-size="13" lengthAdjust="spacing" textLength="64" x="261.5" y="315.8047">_reserve1,</text><text fill="#000000" font-family="sans-serif" font-size="13" lengthAdjust="spacing" textLength="138" x="261.5" y="331.1152">_blockTimestampLast</text><polygon fill="#181818" points="534,376.4785,544,380.4785,534,384.4785,538,380.4785" style="stroke:#181818;stroke-width:1.0;"/><line style="stroke:#181818;stroke-width:1.0;" x1="244.5" x2="540" y1="380.4785" y2="380.4785"/><text fill="#000000" font-family="sans-serif" font-size="13" lengthAdjust="spacing" textLength="55" x="251.5" y="360.4258">deposit()</text><text fill="#000000" font-family="sans-serif" font-size="13" lengthAdjust="spacing" textLength="73" x="251.5" y="375.7363">57.518 ETH</text><polygon fill="#181818" points="255.5,390.4785,245.5,394.4785,255.5,398.4785,251.5,394.4785" style="stroke:#181818;stroke-width:1.0;"/><line style="stroke:#181818;stroke-width:1.0;stroke-dasharray:2.0,2.0;" x1="249.5" x2="550" y1="394.4785" y2="394.4785"/><polygon fill="#181818" points="534,450.4102,544,454.4102,534,458.4102,538,454.4102" style="stroke:#181818;stroke-width:1.0;"/><line style="stroke:#181818;stroke-width:1.0;" x1="244.5" x2="540" y1="454.4102" y2="454.4102"/><text fill="#000000" font-family="sans-serif" font-size="13" lengthAdjust="spacing" textLength="53" x="251.5" y="419.0469">transfer(</text><text fill="#000000" font-family="sans-serif" font-size="13" lengthAdjust="spacing" textLength="24" x="251.5" y="434.3574">dst,</text><text fill="#000000" font-family="sans-serif" font-size="13" lengthAdjust="spacing" textLength="29" x="251.5" y="449.668">wad)</text><polygon fill="#181818" points="255.5,495.0313,245.5,499.0313,255.5,503.0313,251.5,499.0313" style="stroke:#181818;stroke-width:1.0;"/><line style="stroke:#181818;stroke-width:1.0;stroke-dasharray:2.0,2.0;" x1="249.5" x2="550" y1="499.0313" y2="499.0313"/><text fill="#000000" font-family="sans-serif" font-size="13" lengthAdjust="spacing" textLength="4" x="261.5" y="478.9785">&#160;</text><text fill="#000000" font-family="sans-serif" font-size="13" lengthAdjust="spacing" textLength="5" x="261.5" y="494.2891">?</text><polygon fill="#181818" points="394.5,585.584,404.5,589.584,394.5,593.584,398.5,589.584" style="stroke:#181818;stroke-width:1.0;"/><line style="stroke:#181818;stroke-width:1.0;" x1="244.5" x2="400.5" y1="589.584" y2="589.584"/><text fill="#000000" font-family="sans-serif" font-size="13" lengthAdjust="spacing" textLength="36" x="251.5" y="523.5996">swap(</text><text fill="#000000" font-family="sans-serif" font-size="13" lengthAdjust="spacing" textLength="83" x="251.5" y="538.9102">amount0Out,</text><text fill="#000000" font-family="sans-serif" font-size="13" lengthAdjust="spacing" textLength="83" x="251.5" y="554.2207">amount1Out,</text><text fill="#000000" font-family="sans-serif" font-size="13" lengthAdjust="spacing" textLength="17" x="251.5" y="569.5313">to,</text><text fill="#000000" font-family="sans-serif" font-size="13" lengthAdjust="spacing" textLength="31" x="251.5" y="584.8418">data)</text><polygon fill="#181818" points="676,645.5156,686,649.5156,676,653.5156,680,649.5156" style="stroke:#181818;stroke-width:1.0;"/><line style="stroke:#181818;stroke-width:1.0;" x1="416.5" x2="682" y1="649.5156" y2="649.5156"/><text fill="#000000" font-family="sans-serif" font-size="13" lengthAdjust="spacing" textLength="53" x="423.5" y="614.1523">transfer(</text><text fill="#000000" font-family="sans-serif" font-size="13" lengthAdjust="spacing" textLength="17" x="423.5" y="629.4629">to,</text><text fill="#000000" font-family="sans-serif" font-size="13" lengthAdjust="spacing" textLength="37" x="423.5" y="644.7734">value)</text><polygon fill="#181818" points="427.5,690.1367,417.5,694.1367,427.5,698.1367,423.5,694.1367" style="stroke:#181818;stroke-width:1.0;"/><line style="stroke:#181818;stroke-width:1.0;stroke-dasharray:2.0,2.0;" x1="421.5" x2="692" y1="694.1367" y2="694.1367"/><text fill="#000000" font-family="sans-serif" font-size="13" lengthAdjust="spacing" textLength="4" x="433.5" y="674.084">&#160;</text><text fill="#000000" font-family="sans-serif" font-size="13" lengthAdjust="spacing" textLength="5" x="433.5" y="689.3945">?</text><polygon fill="#181818" points="676,734.7578,686,738.7578,676,742.7578,680,738.7578" style="stroke:#181818;stroke-width:1.0;"/><line style="stroke:#181818;stroke-width:1.0;" x1="416.5" x2="682" y1="738.7578" y2="738.7578"/><text fill="#000000" font-family="sans-serif" font-size="13" lengthAdjust="spacing" textLength="67" x="423.5" y="718.7051">balanceOf(</text><text fill="#000000" font-family="sans-serif" font-size="13" lengthAdjust="spacing" textLength="9" x="423.5" y="734.0156">?)</text><polygon fill="#181818" points="427.5,779.3789,417.5,783.3789,427.5,787.3789,423.5,783.3789" style="stroke:#181818;stroke-width:1.0;"/><line style="stroke:#181818;stroke-width:1.0;stroke-dasharray:2.0,2.0;" x1="421.5" x2="692" y1="783.3789" y2="783.3789"/><text fill="#000000" font-family="sans-serif" font-size="13" lengthAdjust="spacing" textLength="4" x="433.5" y="763.3262">&#160;</text><text fill="#000000" font-family="sans-serif" font-size="13" lengthAdjust="spacing" textLength="5" x="433.5" y="778.6367">?</text><polygon fill="#181818" points="534,824,544,828,534,832,538,828" style="stroke:#181818;stroke-width:1.0;"/><line style="stroke:#181818;stroke-width:1.0;" x1="416.5" x2="540" y1="828" y2="828"/><text fill="#000000" font-family="sans-serif" font-size="13" lengthAdjust="spacing" textLength="67" x="423.5" y="807.9473">balanceOf(</text><text fill="#000000" font-family="sans-serif" font-size="13" lengthAdjust="spacing" textLength="9" x="423.5" y="823.2578">?)</text><polygon fill="#181818" points="427.5,868.6211,417.5,872.6211,427.5,876.6211,423.5,872.6211" style="stroke:#181818;stroke-width:1.0;"/><line style="stroke:#181818;stroke-width:1.0;stroke-dasharray:2.0,2.0;" x1="421.5" x2="550" y1="872.6211" y2="872.6211"/><text fill="#000000" font-family="sans-serif" font-size="13" lengthAdjust="spacing" textLength="4" x="433.5" y="852.5684">&#160;</text><text fill="#000000" font-family="sans-serif" font-size="13" lengthAdjust="spacing" textLength="5" x="433.5" y="867.8789">?</text><polygon fill="#181818" points="255.5,882.6211,245.5,886.6211,255.5,890.6211,251.5,886.6211" style="stroke:#181818;stroke-width:1.0;"/><line style="stroke:#181818;stroke-width:1.0;stroke-dasharray:2.0,2.0;" x1="249.5" x2="410.5" y1="886.6211" y2="886.6211"/><polygon fill="#181818" points="65.5,927.2422,55.5,931.2422,65.5,935.2422,61.5,931.2422" style="stroke:#181818;stroke-width:1.0;"/><line style="stroke:#181818;stroke-width:1.0;stroke-dasharray:2.0,2.0;" x1="59.5" x2="238.5" y1="931.2422" y2="931.2422"/><text fill="#000000" font-family="sans-serif" font-size="13" lengthAdjust="spacing" textLength="4" x="71.5" y="911.1895">&#160;</text><text fill="#000000" font-family="sans-serif" font-size="13" lengthAdjust="spacing" textLength="55" x="71.5" y="926.5">amounts</text><path d="M355,944.2422 L355,1107.2422 L467,1107.2422 L467,954.2422 L457,944.2422 L355,944.2422 " fill="#00FFFF" style="stroke:#181818;stroke-width:0.5;"/><path d="M457,944.2422 L457,954.2422 L467,954.2422 L457,944.2422 " fill="#00FFFF" style="stroke:#181818;stroke-width:0.5;"/><text fill="#000000" font-family="sans-serif" font-size="13" lengthAdjust="spacing" textLength="33" x="361" y="961.8105">Sync:</text><text fill="#000000" font-family="sans-serif" font-size="13" lengthAdjust="spacing" textLength="57" x="369" y="977.1211">reserve0,</text><text fill="#000000" font-family="sans-serif" font-size="13" lengthAdjust="spacing" textLength="53" x="369" y="992.4316">reserve1</text><text fill="#000000" font-family="sans-serif" font-size="13" lengthAdjust="spacing" textLength="36" x="361" y="1007.7422">Swap:</text><text fill="#000000" font-family="sans-serif" font-size="13" lengthAdjust="spacing" textLength="46" x="369" y="1023.0527">sender,</text><text fill="#000000" font-family="sans-serif" font-size="13" lengthAdjust="spacing" textLength="72" x="369" y="1038.3633">amount0In,</text><text fill="#000000" font-family="sans-serif" font-size="13" lengthAdjust="spacing" textLength="72" x="369" y="1053.6738">amount1In,</text><text fill="#000000" font-family="sans-serif" font-size="13" lengthAdjust="spacing" textLength="83" x="369" y="1068.9844">amount0Out,</text><text fill="#000000" font-family="sans-serif" font-size="13" lengthAdjust="spacing" textLength="83" x="369" y="1084.2949">amount1Out,</text><text fill="#000000" font-family="sans-serif" font-size="13" lengthAdjust="spacing" textLength="13" x="369" y="1099.6055">to</text><path d="M512,944.2422 L512,1061.2422 L589,1061.2422 L589,954.2422 L579,944.2422 L512,944.2422 " fill="#00FFFF" style="stroke:#181818;stroke-width:0.5;"/><path d="M579,944.2422 L579,954.2422 L589,954.2422 L579,944.2422 " fill="#00FFFF" style="stroke:#181818;stroke-width:0.5;"/><text fill="#000000" font-family="sans-serif" font-size="13" lengthAdjust="spacing" textLength="53" x="518" y="961.8105">Deposit:</text><text fill="#000000" font-family="sans-serif" font-size="13" lengthAdjust="spacing" textLength="24" x="526" y="977.1211">dst,</text><text fill="#000000" font-family="sans-serif" font-size="13" lengthAdjust="spacing" textLength="25" x="526" y="992.4316">wad</text><text fill="#000000" font-family="sans-serif" font-size="13" lengthAdjust="spacing" textLength="56" x="518" y="1007.7422">Transfer:</text><text fill="#000000" font-family="sans-serif" font-size="13" lengthAdjust="spacing" textLength="23" x="526" y="1023.0527">src,</text><text fill="#000000" font-family="sans-serif" font-size="13" lengthAdjust="spacing" textLength="24" x="526" y="1038.3633">dst,</text><text fill="#000000" font-family="sans-serif" font-size="13" lengthAdjust="spacing" textLength="25" x="526" y="1053.6738">wad</text><path d="M654,944.2422 L654,1015.2422 L731,1015.2422 L731,954.2422 L721,944.2422 L654,944.2422 " fill="#00FFFF" style="stroke:#181818;stroke-width:0.5;"/><path d="M721,944.2422 L721,954.2422 L731,954.2422 L721,944.2422 " fill="#00FFFF" style="stroke:#181818;stroke-width:0.5;"/><text fill="#000000" font-family="sans-serif" font-size="13" lengthAdjust="spacing" textLength="56" x="660" y="961.8105">Transfer:</text><text fill="#000000" font-family="sans-serif" font-size="13" lengthAdjust="spacing" textLength="34" x="668" y="977.1211">from,</text><text fill="#000000" font-family="sans-serif" font-size="13" lengthAdjust="spacing" textLength="17" x="668" y="992.4316">to,</text><text fill="#000000" font-family="sans-serif" font-size="13" lengthAdjust="spacing" textLength="33" x="668" y="1007.7422">value</text><!--SRC=[ZPDTRvim58Rl_IkixIQHACC40ecYzg8VMwTrhPgqlOaq7HkpMariPaoQ_llP421T4satS5vypkF3wsCZp8hZO9i4OSmv3SO0D1sJY0PXdkUZIJvYZ0GPZMn8QKJZC6QJBCpI9ACPcT2S92nXm11YK1YX95w3a98R3zELOY-O9D4uYeFKmpTAUfY4-7ibSHY48qoYAHbFRV3rPe606QNnfs2RZwAHxq_I4Np2K68ddS2e06q44mL8u_8I26FVZz8qg_EST0BFPWzIbAzGF8RtgZ9S1-7fwR_5DEB4z-sViBhOIIVwOlnegsQpmSFFwvF7SEZY3di7Gdz4iY04tnyp5jP89vsmo2SDHS4pV6cUkQwfJvUBRpNJ1PEFB0XewlkSHcdDSj89rzxy0fyh8PlcvXVdDUPAW5ce5oxljDg-MHxgR3ivxQoPOjV_vTPQRRUzKhekAGTB2MjLINDRcHiXlQKim3pRbr7saN78LaBouLB6YH-J5DjQTrfY0uPtRDJvRpTixPpYtzpSyvBh3Iy7mxwgJK2QcqhBfVobcwp0wsFYudg85cBDImFhuWUKvjrEhSjJdF52bS8CZlJP9kvsF08n6cIPSsqjoKfZzt-5R7WKifHdHtxR-TpP6bXVlLQGHZJMWe53fdJJQ9djqR_hhQxUmAhYU-LjvbvpXq4KLY0PlyqjwUp_0RrBnm07xDcvtNveF2WHaihcgmtN_TNx37ygGFCtoQO8usuU-fYWkRNLBPRSZgLsIpk7hsKloBwelU-NTieeP0dODO7G5zmtqrtQffcBPgRSbcuSxClE0rhi3gBkH3Fl_UfXS7U36_0-8jTgtJJbdlMfzf2_]--></g></svg>
