<?xml version="1.0" encoding="UTF-8" standalone="no"?><svg xmlns:xlink="http://www.w3.org/1999/xlink" xmlns="http://www.w3.org/2000/svg" contentStyleType="text/css" height="2463px" preserveAspectRatio="none" style="width:1492px;height:2463px;background:#FFFFFF;" version="1.1" viewBox="0 0 1492 2463" width="1492px" zoomAndPan="magnify"><defs/><g><text fill="#000000" font-family="sans-serif" font-size="14" font-weight="bold" lengthAdjust="spacing" textLength="566" x="461.5" y="28.5352">0xc31f985ae9b9ee0b43c0751eb7d49e665ef495fbe371b9d8708db8a9e8da55ce</text><text fill="#000000" font-family="sans-serif" font-size="14" lengthAdjust="spacing" textLength="404" x="542.5" y="2451.2266">mainnet, block 17503536, Sun, 18 Jun 2023 01:55:59 GMT</text><rect fill="#FFFFFF" height="14" style="stroke:#181818;stroke-width:1.0;" width="10" x="103" y="2053.3223"/><rect fill="#FFFFFF" height="1786.1543" style="stroke:#181818;stroke-width:1.0;" width="10" x="307" y="373.7891"/><rect fill="#FFFFFF" height="505.4531" style="stroke:#181818;stroke-width:1.0;" width="10" x="312" y="888.5527"/><rect fill="#FFFFFF" height="87.9316" style="stroke:#181818;stroke-width:1.0;" width="10" x="312" y="1993.3906"/><rect fill="#FFFFFF" height="1299.9434" style="stroke:#181818;stroke-width:1.0;" width="10" x="610" y="418.4102"/><rect fill="#FFFFFF" height="44.6211" style="stroke:#181818;stroke-width:1.0;" width="10" x="864" y="493.6523"/><rect fill="#FFFFFF" height="44.6211" style="stroke:#181818;stroke-width:1.0;" width="10" x="864" y="1828.9063"/><rect fill="#FFFFFF" height="161.8633" style="stroke:#181818;stroke-width:1.0;" width="10" x="864" y="1933.459"/><rect fill="#FFFFFF" height="149.1738" style="stroke:#181818;stroke-width:1.0;" width="10" x="1084" y="598.2051"/><rect fill="#FFFFFF" height="179.7949" style="stroke:#181818;stroke-width:1.0;" width="10" x="1084" y="1084.9688"/><rect fill="#FFFFFF" height="149.1738" style="stroke:#181818;stroke-width:1.0;" width="10" x="1084" y="1504.5586"/><rect fill="#809ECB" height="44.6211" style="stroke:#181818;stroke-width:1.0;" width="10" x="1262" y="658.1367"/><rect fill="#809ECB" height="44.6211" style="stroke:#181818;stroke-width:1.0;" width="10" x="1262" y="1175.5215"/><rect fill="#809ECB" height="44.6211" style="stroke:#181818;stroke-width:1.0;" width="10" x="1262" y="1564.4902"/><rect fill="#FFFFFF" height="334.9688" style="stroke:#181818;stroke-width:1.0;" width="10" x="1392.5" y="994.416"/><line style="stroke:#181818;stroke-width:0.5;stroke-dasharray:5.0,5.0;" x1="108" x2="108" y1="123.4414" y2="2355.7383"/><line style="stroke:#181818;stroke-width:0.5;stroke-dasharray:5.0,5.0;" x1="311.5" x2="311.5" y1="123.4414" y2="2355.7383"/><line style="stroke:#181818;stroke-width:0.5;stroke-dasharray:5.0,5.0;" x1="614.5" x2="614.5" y1="123.4414" y2="2355.7383"/><line style="stroke:#181818;stroke-width:0.5;stroke-dasharray:5.0,5.0;" x1="868.5" x2="868.5" y1="123.4414" y2="2355.7383"/><line style="stroke:#181818;stroke-width:0.5;stroke-dasharray:5.0,5.0;" x1="1088.5" x2="1088.5" y1="123.4414" y2="2355.7383"/><line style="stroke:#181818;stroke-width:0.5;stroke-dasharray:5.0,5.0;" x1="1267" x2="1267" y1="123.4414" y2="2355.7383"/><line style="stroke:#181818;stroke-width:0.5;stroke-dasharray:5.0,5.0;" x1="1397" x2="1397" y1="123.4414" y2="2355.7383"/><text fill="#000000" font-family="sans-serif" font-size="14" lengthAdjust="spacing" textLength="96" x="57" y="120.4883">0x577b..2bee</text><ellipse cx="108" cy="55.4531" fill="#E2E2F0" rx="8" ry="8" style="stroke:#181818;stroke-width:0.5;"/><path d="M108,63.4531 L108,90.4531 M95,71.4531 L121,71.4531 M108,90.4531 L95,105.4531 M108,90.4531 L121,105.4531 " fill="none" style="stroke:#181818;stroke-width:0.5;"/><text fill="#000000" font-family="sans-serif" font-size="14" lengthAdjust="spacing" textLength="96" x="57" y="2368.2734">0x577b..2bee</text><ellipse cx="108" cy="2379.7266" fill="#E2E2F0" rx="8" ry="8" style="stroke:#181818;stroke-width:0.5;"/><path d="M108,2387.7266 L108,2414.7266 M95,2395.7266 L121,2395.7266 M108,2414.7266 L95,2429.7266 M108,2414.7266 L121,2429.7266 " fill="none" style="stroke:#181818;stroke-width:0.5;"/><rect fill="#E2E2F0" height="46.9766" rx="2.5" ry="2.5" style="stroke:#181818;stroke-width:0.5;" width="137" x="243.5" y="75.4648"/><text fill="#000000" font-family="sans-serif" font-size="14" font-style="italic" lengthAdjust="spacing" textLength="123" x="250.5" y="96">«UniversalRouter»</text><text fill="#000000" font-family="sans-serif" font-size="14" lengthAdjust="spacing" textLength="87" x="268.5" y="112.4883">0x3fc9..7fad</text><rect fill="#E2E2F0" height="46.9766" rx="2.5" ry="2.5" style="stroke:#181818;stroke-width:0.5;" width="137" x="243.5" y="2354.7383"/><text fill="#000000" font-family="sans-serif" font-size="14" font-style="italic" lengthAdjust="spacing" textLength="123" x="250.5" y="2375.2734">«UniversalRouter»</text><text fill="#000000" font-family="sans-serif" font-size="14" lengthAdjust="spacing" textLength="87" x="268.5" y="2391.7617">0x3fc9..7fad</text><rect fill="#E2E2F0" height="30.4883" rx="2.5" ry="2.5" style="stroke:#181818;stroke-width:0.5;" width="111" x="559.5" y="91.9531"/><text fill="#000000" font-family="sans-serif" font-size="14" lengthAdjust="spacing" textLength="97" x="566.5" y="112.4883">0x88e6..5640</text><rect fill="#E2E2F0" height="30.4883" rx="2.5" ry="2.5" style="stroke:#181818;stroke-width:0.5;" width="111" x="559.5" y="2354.7383"/><text fill="#000000" font-family="sans-serif" font-size="14" lengthAdjust="spacing" textLength="97" x="566.5" y="2375.2734">0x88e6..5640</text><rect fill="#E2E2F0" height="79.9531" rx="2.5" ry="2.5" style="stroke:#181818;stroke-width:0.5;" width="129" x="804.5" y="42.4883"/><text fill="#000000" font-family="sans-serif" font-size="14" font-style="italic" lengthAdjust="spacing" textLength="115" x="811.5" y="63.0234">«Wrapped Ether»</text><text fill="#000000" font-family="sans-serif" font-size="14" font-style="italic" lengthAdjust="spacing" textLength="63" x="837.5" y="79.5117">«(WETH)»</text><text fill="#000000" font-family="sans-serif" font-size="14" font-style="italic" lengthAdjust="spacing" textLength="62" x="838" y="96">«WETH9»</text><text fill="#000000" font-family="sans-serif" font-size="14" lengthAdjust="spacing" textLength="91" x="823.5" y="112.4883">0xc02a..6cc2</text><rect fill="#E2E2F0" height="79.9531" rx="2.5" ry="2.5" style="stroke:#181818;stroke-width:0.5;" width="129" x="804.5" y="2354.7383"/><text fill="#000000" font-family="sans-serif" font-size="14" font-style="italic" lengthAdjust="spacing" textLength="115" x="811.5" y="2375.2734">«Wrapped Ether»</text><text fill="#000000" font-family="sans-serif" font-size="14" font-style="italic" lengthAdjust="spacing" textLength="63" x="837.5" y="2391.7617">«(WETH)»</text><text fill="#000000" font-family="sans-serif" font-size="14" font-style="italic" lengthAdjust="spacing" textLength="62" x="838" y="2408.25">«WETH9»</text><text fill="#000000" font-family="sans-serif" font-size="14" lengthAdjust="spacing" textLength="91" x="823.5" y="2424.7383">0xc02a..6cc2</text><rect fill="#E2E2F0" height="79.9531" rx="2.5" ry="2.5" style="stroke:#181818;stroke-width:0.5;" width="135" x="1021.5" y="42.4883"/><text fill="#000000" font-family="sans-serif" font-size="14" font-style="italic" lengthAdjust="spacing" textLength="78" x="1050" y="63.0234">«USD Coin»</text><text fill="#000000" font-family="sans-serif" font-size="14" font-style="italic" lengthAdjust="spacing" textLength="62" x="1058" y="79.5117">«(USDC)»</text><text fill="#000000" font-family="sans-serif" font-size="14" font-style="italic" lengthAdjust="spacing" textLength="121" x="1028.5" y="96">«FiatTokenProxy»</text><text fill="#000000" font-family="sans-serif" font-size="14" lengthAdjust="spacing" textLength="96" x="1041" y="112.4883">0xa0b8..eb48</text><rect fill="#E2E2F0" height="79.9531" rx="2.5" ry="2.5" style="stroke:#181818;stroke-width:0.5;" width="135" x="1021.5" y="2354.7383"/><text fill="#000000" font-family="sans-serif" font-size="14" font-style="italic" lengthAdjust="spacing" textLength="78" x="1050" y="2375.2734">«USD Coin»</text><text fill="#000000" font-family="sans-serif" font-size="14" font-style="italic" lengthAdjust="spacing" textLength="62" x="1058" y="2391.7617">«(USDC)»</text><text fill="#000000" font-family="sans-serif" font-size="14" font-style="italic" lengthAdjust="spacing" textLength="121" x="1028.5" y="2408.25">«FiatTokenProxy»</text><text fill="#000000" font-family="sans-serif" font-size="14" lengthAdjust="spacing" textLength="96" x="1041" y="2424.7383">0xa0b8..eb48</text><rect fill="#E2E2F0" height="46.9766" rx="2.5" ry="2.5" style="stroke:#181818;stroke-width:0.5;" width="130" x="1202" y="75.4648"/><text fill="#000000" font-family="sans-serif" font-size="14" font-style="italic" lengthAdjust="spacing" textLength="116" x="1209" y="96">«FiatTokenV2_1»</text><text fill="#000000" font-family="sans-serif" font-size="14" lengthAdjust="spacing" textLength="91" x="1221.5" y="112.4883">0xa232..bdcf</text><rect fill="#E2E2F0" height="46.9766" rx="2.5" ry="2.5" style="stroke:#181818;stroke-width:0.5;" width="130" x="1202" y="2354.7383"/><text fill="#000000" font-family="sans-serif" font-size="14" font-style="italic" lengthAdjust="spacing" textLength="116" x="1209" y="2375.2734">«FiatTokenV2_1»</text><text fill="#000000" font-family="sans-serif" font-size="14" lengthAdjust="spacing" textLength="91" x="1221.5" y="2391.7617">0xa232..bdcf</text><rect fill="#E2E2F0" height="46.9766" rx="2.5" ry="2.5" style="stroke:#181818;stroke-width:0.5;" width="111" x="1342" y="75.4648"/><text fill="#000000" font-family="sans-serif" font-size="14" font-style="italic" lengthAdjust="spacing" textLength="67" x="1364" y="96">«Permit2»</text><text fill="#000000" font-family="sans-serif" font-size="14" lengthAdjust="spacing" textLength="97" x="1349" y="112.4883">0x0000..8ba3</text><rect fill="#E2E2F0" height="46.9766" rx="2.5" ry="2.5" style="stroke:#181818;stroke-width:0.5;" width="111" x="1342" y="2354.7383"/><text fill="#000000" font-family="sans-serif" font-size="14" font-style="italic" lengthAdjust="spacing" textLength="67" x="1364" y="2375.2734">«Permit2»</text><text fill="#000000" font-family="sans-serif" font-size="14" lengthAdjust="spacing" textLength="97" x="1349" y="2391.7617">0x0000..8ba3</text><rect fill="#FFFFFF" height="14" style="stroke:#181818;stroke-width:1.0;" width="10" x="103" y="2053.3223"/><rect fill="#FFFFFF" height="1786.1543" style="stroke:#181818;stroke-width:1.0;" width="10" x="307" y="373.7891"/><rect fill="#FFFFFF" height="505.4531" style="stroke:#181818;stroke-width:1.0;" width="10" x="312" y="888.5527"/><rect fill="#FFFFFF" height="87.9316" style="stroke:#181818;stroke-width:1.0;" width="10" x="312" y="1993.3906"/><rect fill="#FFFFFF" height="1299.9434" style="stroke:#181818;stroke-width:1.0;" width="10" x="610" y="418.4102"/><rect fill="#FFFFFF" height="44.6211" style="stroke:#181818;stroke-width:1.0;" width="10" x="864" y="493.6523"/><rect fill="#FFFFFF" height="44.6211" style="stroke:#181818;stroke-width:1.0;" width="10" x="864" y="1828.9063"/><rect fill="#FFFFFF" height="161.8633" style="stroke:#181818;stroke-width:1.0;" width="10" x="864" y="1933.459"/><rect fill="#FFFFFF" height="149.1738" style="stroke:#181818;stroke-width:1.0;" width="10" x="1084" y="598.2051"/><rect fill="#FFFFFF" height="179.7949" style="stroke:#181818;stroke-width:1.0;" width="10" x="1084" y="1084.9688"/><rect fill="#FFFFFF" height="149.1738" style="stroke:#181818;stroke-width:1.0;" width="10" x="1084" y="1504.5586"/><rect fill="#809ECB" height="44.6211" style="stroke:#181818;stroke-width:1.0;" width="10" x="1262" y="658.1367"/><rect fill="#809ECB" height="44.6211" style="stroke:#181818;stroke-width:1.0;" width="10" x="1262" y="1175.5215"/><rect fill="#809ECB" height="44.6211" style="stroke:#181818;stroke-width:1.0;" width="10" x="1262" y="1564.4902"/><rect fill="#FFFFFF" height="334.9688" style="stroke:#181818;stroke-width:1.0;" width="10" x="1392.5" y="994.416"/><path d="M5,138.4414 L5,255.4414 L211,255.4414 L211,148.4414 L201,138.4414 L5,138.4414 " fill="#FEFFDD" style="stroke:#181818;stroke-width:0.5;"/><path d="M201,138.4414 L201,148.4414 L211,148.4414 L201,138.4414 " fill="#FEFFDD" style="stroke:#181818;stroke-width:0.5;"/><text fill="#000000" font-family="sans-serif" font-size="13" lengthAdjust="spacing" textLength="72" x="11" y="156.0098">Nonce: 103</text><text fill="#000000" font-family="sans-serif" font-size="13" lengthAdjust="spacing" textLength="183" x="11" y="171.3203">Gas Price: 15.06965958 Gwei</text><text fill="#000000" font-family="sans-serif" font-size="13" lengthAdjust="spacing" textLength="185" x="11" y="186.6309">Max Fee: 17.526401621 Gwei</text><text fill="#000000" font-family="sans-serif" font-size="13" lengthAdjust="spacing" textLength="137" x="11" y="201.9414">Max Priority: 0.1 Gwei</text><text fill="#000000" font-family="sans-serif" font-size="13" lengthAdjust="spacing" textLength="119" x="11" y="217.252">Gas Limit: 214,910</text><text fill="#000000" font-family="sans-serif" font-size="13" lengthAdjust="spacing" textLength="118" x="11" y="232.5625">Gas Used: 149,394</text><text fill="#000000" font-family="sans-serif" font-size="13" lengthAdjust="spacing" textLength="114" x="11" y="247.873">Tx Fee: 0.002 ETH</text><polygon fill="#181818" points="295,369.7891,305,373.7891,295,377.7891,299,373.7891" style="stroke:#181818;stroke-width:1.0;"/><line style="stroke:#181818;stroke-width:1.0;" x1="108" x2="301" y1="373.7891" y2="373.7891"/><text fill="#000000" font-family="sans-serif" font-size="13" lengthAdjust="spacing" textLength="53" x="115" y="277.1836">execute(</text><text fill="#000000" font-family="sans-serif" font-size="13" lengthAdjust="spacing" textLength="128" x="115" y="292.4941">commands: 0x000c,</text><text fill="#000000" font-family="sans-serif" font-size="13" lengthAdjust="spacing" textLength="52" x="115" y="307.8047">inputs: [</text><text fill="#000000" font-family="sans-serif" font-size="13" lengthAdjust="spacing" textLength="172" x="123" y="323.1152">0: 0x00000000..00000000,</text><text fill="#000000" font-family="sans-serif" font-size="13" lengthAdjust="spacing" textLength="172" x="123" y="338.4258">1: 0x00000000..a7e0c8de],</text><text fill="#000000" font-family="sans-serif" font-size="13" lengthAdjust="spacing" textLength="157" x="115" y="353.7363">deadline: 1,687,055,123)</text><text fill="#000000" font-family="sans-serif" font-size="13" lengthAdjust="spacing" textLength="78" x="115" y="369.0469">149,394 gas</text><polygon fill="#181818" points="598,414.4102,608,418.4102,598,422.4102,602,418.4102" style="stroke:#181818;stroke-width:1.0;"/><line style="stroke:#181818;stroke-width:1.0;" x1="317" x2="604" y1="418.4102" y2="418.4102"/><text fill="#000000" font-family="sans-serif" font-size="13" lengthAdjust="spacing" textLength="78" x="324" y="398.3574">0x128acb08</text><text fill="#000000" font-family="sans-serif" font-size="13" lengthAdjust="spacing" textLength="78" x="324" y="413.668">122,296 gas</text><polygon fill="#181818" points="852,489.6523,862,493.6523,852,497.6523,856,493.6523" style="stroke:#181818;stroke-width:1.0;"/><line style="stroke:#181818;stroke-width:1.0;" x1="620" x2="858" y1="493.6523" y2="493.6523"/><text fill="#000000" font-family="sans-serif" font-size="13" lengthAdjust="spacing" textLength="53" x="627" y="442.9785">transfer(</text><text fill="#000000" font-family="sans-serif" font-size="13" lengthAdjust="spacing" textLength="120" x="627" y="458.2891">dst: 0x3fC9..7FAD,</text><text fill="#000000" font-family="sans-serif" font-size="13" lengthAdjust="spacing" textLength="225" x="627" y="473.5996">wad: 18,,367,723,279,128,428,887)</text><text fill="#000000" font-family="sans-serif" font-size="13" lengthAdjust="spacing" textLength="70" x="627" y="488.9102">29,962 gas</text><polygon fill="#181818" points="631,534.2734,621,538.2734,631,542.2734,627,538.2734" style="stroke:#181818;stroke-width:1.0;"/><line style="stroke:#181818;stroke-width:1.0;stroke-dasharray:2.0,2.0;" x1="625" x2="868" y1="538.2734" y2="538.2734"/><text fill="#000000" font-family="sans-serif" font-size="13" lengthAdjust="spacing" textLength="4" x="637" y="518.2207"> </text><text fill="#000000" font-family="sans-serif" font-size="13" lengthAdjust="spacing" textLength="25" x="637" y="533.5313">true</text><polygon fill="#181818" points="1072,594.2051,1082,598.2051,1072,602.2051,1076,598.2051" style="stroke:#181818;stroke-width:1.0;"/><line style="stroke:#181818;stroke-width:1.0;stroke-dasharray:2.0,2.0;" x1="620" x2="1078" y1="598.2051" y2="598.2051"/><text fill="#000000" font-family="sans-serif" font-size="13" lengthAdjust="spacing" textLength="67" x="627" y="562.8418">balanceOf(</text><text fill="#000000" font-family="sans-serif" font-size="13" lengthAdjust="spacing" textLength="91" x="627" y="578.1523">0x88e6..5640)</text><text fill="#000000" font-family="sans-serif" font-size="13" lengthAdjust="spacing" textLength="62" x="627" y="593.4629">9,815 gas</text><line style="stroke:#181818;stroke-width:1.0;" x1="1260" x2="1250" y1="658.1367" y2="654.1367"/><line style="stroke:#181818;stroke-width:1.0;" x1="1260" x2="1250" y1="658.1367" y2="662.1367"/><line style="stroke:#181818;stroke-width:1.0;" x1="1094" x2="1261" y1="658.1367" y2="658.1367"/><text fill="#000000" font-family="sans-serif" font-size="13" lengthAdjust="spacing" textLength="67" x="1101" y="622.7734">balanceOf(</text><text fill="#000000" font-family="sans-serif" font-size="13" lengthAdjust="spacing" textLength="149" x="1101" y="638.084">account: 0x88e6..5640)</text><text fill="#000000" font-family="sans-serif" font-size="13" lengthAdjust="spacing" textLength="62" x="1101" y="653.3945">2,529 gas</text><line style="stroke:#181818;stroke-width:1.0;" x1="1095" x2="1105" y1="702.7578" y2="698.7578"/><line style="stroke:#181818;stroke-width:1.0;" x1="1095" x2="1105" y1="702.7578" y2="706.7578"/><line style="stroke:#181818;stroke-width:1.0;stroke-dasharray:2.0,2.0;" x1="1094" x2="1266" y1="702.7578" y2="702.7578"/><text fill="#000000" font-family="sans-serif" font-size="13" lengthAdjust="spacing" textLength="4" x="1111" y="682.7051"> </text><text fill="#000000" font-family="sans-serif" font-size="13" lengthAdjust="spacing" textLength="128" x="1111" y="698.0156">76,098,149,031,468</text><polygon fill="#181818" points="631,743.3789,621,747.3789,631,751.3789,627,747.3789" style="stroke:#181818;stroke-width:1.0;"/><line style="stroke:#181818;stroke-width:1.0;stroke-dasharray:2.0,2.0;" x1="625" x2="1088" y1="747.3789" y2="747.3789"/><text fill="#000000" font-family="sans-serif" font-size="13" lengthAdjust="spacing" textLength="4" x="637" y="727.3262"> </text><text fill="#000000" font-family="sans-serif" font-size="13" lengthAdjust="spacing" textLength="128" x="637" y="742.6367">76,098,149,031,468</text><path d="M1094,760.3789 L1094,800.3789 L1177,800.3789 L1177,770.3789 L1167,760.3789 L1094,760.3789 " fill="#FEFFDD" style="stroke:#181818;stroke-width:0.5;"/><path d="M1167,760.3789 L1167,770.3789 L1177,770.3789 L1167,760.3789 " fill="#FEFFDD" style="stroke:#181818;stroke-width:0.5;"/><text fill="#000000" font-family="sans-serif" font-size="13" lengthAdjust="spacing" textLength="4" x="1100" y="777.9473"> </text><text fill="#000000" font-family="sans-serif" font-size="13" lengthAdjust="spacing" textLength="62" x="1100" y="793.2578">7,286 gas</text><polygon fill="#181818" points="333,884.5527,323,888.5527,333,892.5527,329,888.5527" style="stroke:#181818;stroke-width:1.0;"/><line style="stroke:#181818;stroke-width:1.0;" x1="327" x2="609" y1="888.5527" y2="888.5527"/><text fill="#000000" font-family="sans-serif" font-size="13" lengthAdjust="spacing" textLength="158" x="339" y="822.5684">uniswapV3SwapCallback(</text><text fill="#000000" font-family="sans-serif" font-size="13" lengthAdjust="spacing" textLength="201" x="339" y="837.8789">amount0Delta: 31,723,299,743,</text><text fill="#000000" font-family="sans-serif" font-size="13" lengthAdjust="spacing" textLength="269" x="339" y="853.1895">amount1Delta: -18367723279128428887,</text><text fill="#000000" font-family="sans-serif" font-size="13" lengthAdjust="spacing" textLength="191" x="339" y="868.5">data: 0x00000000..00000000)</text><text fill="#000000" font-family="sans-serif" font-size="13" lengthAdjust="spacing" textLength="70" x="339" y="883.8105">34,620 gas</text><polygon fill="#181818" points="1380.5,990.416,1390.5,994.416,1380.5,998.416,1384.5,994.416" style="stroke:#181818;stroke-width:1.0;"/><line style="stroke:#181818;stroke-width:1.0;" x1="322" x2="1386.5" y1="994.416" y2="994.416"/><text fill="#000000" font-family="sans-serif" font-size="13" lengthAdjust="spacing" textLength="85" x="329" y="913.1211">transferFrom(</text><text fill="#000000" font-family="sans-serif" font-size="13" lengthAdjust="spacing" textLength="126" x="329" y="928.4316">from: 0x577B..2BeE,</text><text fill="#000000" font-family="sans-serif" font-size="13" lengthAdjust="spacing" textLength="112" x="329" y="943.7422">to: 0x88e6..5640,</text><text fill="#000000" font-family="sans-serif" font-size="13" lengthAdjust="spacing" textLength="160" x="329" y="959.0527">amount: 31,723,299,743,</text><text fill="#000000" font-family="sans-serif" font-size="13" lengthAdjust="spacing" textLength="135" x="329" y="974.3633">token: 0xA0b8..eB48)</text><text fill="#000000" font-family="sans-serif" font-size="13" lengthAdjust="spacing" textLength="70" x="329" y="989.6738">29,599 gas</text><polygon fill="#181818" points="1105,1080.9688,1095,1084.9688,1105,1088.9688,1101,1084.9688" style="stroke:#181818;stroke-width:1.0;"/><line style="stroke:#181818;stroke-width:1.0;stroke-dasharray:2.0,2.0;" x1="1099" x2="1391.5" y1="1084.9688" y2="1084.9688"/><text fill="#000000" font-family="sans-serif" font-size="13" lengthAdjust="spacing" textLength="85" x="1111" y="1018.9844">transferFrom(</text><text fill="#000000" font-family="sans-serif" font-size="13" lengthAdjust="spacing" textLength="115" x="1111" y="1034.2949">src: 0x577B..2BeE,</text><text fill="#000000" font-family="sans-serif" font-size="13" lengthAdjust="spacing" textLength="119" x="1111" y="1049.6055">dst: 0x88e6..5640,</text><text fill="#000000" font-family="sans-serif" font-size="13" lengthAdjust="spacing" textLength="137" x="1111" y="1064.916">wad: 31,723,299,743)</text><text fill="#000000" font-family="sans-serif" font-size="13" lengthAdjust="spacing" textLength="70" x="1111" y="1080.2266">26,392 gas</text><line style="stroke:#181818;stroke-width:1.0;" x1="1260" x2="1250" y1="1175.5215" y2="1171.5215"/><line style="stroke:#181818;stroke-width:1.0;" x1="1260" x2="1250" y1="1175.5215" y2="1179.5215"/><line style="stroke:#181818;stroke-width:1.0;" x1="1094" x2="1261" y1="1175.5215" y2="1175.5215"/><text fill="#000000" font-family="sans-serif" font-size="13" lengthAdjust="spacing" textLength="85" x="1101" y="1109.5371">transferFrom(</text><text fill="#000000" font-family="sans-serif" font-size="13" lengthAdjust="spacing" textLength="126" x="1101" y="1124.8477">from: 0x577B..2BeE,</text><text fill="#000000" font-family="sans-serif" font-size="13" lengthAdjust="spacing" textLength="112" x="1101" y="1140.1582">to: 0x88e6..5640,</text><text fill="#000000" font-family="sans-serif" font-size="13" lengthAdjust="spacing" textLength="145" x="1101" y="1155.4688">value: 31,723,299,743)</text><text fill="#000000" font-family="sans-serif" font-size="13" lengthAdjust="spacing" textLength="70" x="1101" y="1170.7793">25,597 gas</text><line style="stroke:#181818;stroke-width:1.0;" x1="1095" x2="1105" y1="1220.1426" y2="1216.1426"/><line style="stroke:#181818;stroke-width:1.0;" x1="1095" x2="1105" y1="1220.1426" y2="1224.1426"/><line style="stroke:#181818;stroke-width:1.0;stroke-dasharray:2.0,2.0;" x1="1094" x2="1266" y1="1220.1426" y2="1220.1426"/><text fill="#000000" font-family="sans-serif" font-size="13" lengthAdjust="spacing" textLength="4" x="1111" y="1200.0898"> </text><text fill="#000000" font-family="sans-serif" font-size="13" lengthAdjust="spacing" textLength="25" x="1111" y="1215.4004">true</text><polygon fill="#181818" points="1380.5,1260.7637,1390.5,1264.7637,1380.5,1268.7637,1384.5,1264.7637" style="stroke:#181818;stroke-width:1.0;"/><line style="stroke:#181818;stroke-width:1.0;stroke-dasharray:2.0,2.0;" x1="1089" x2="1386.5" y1="1264.7637" y2="1264.7637"/><text fill="#000000" font-family="sans-serif" font-size="13" lengthAdjust="spacing" textLength="4" x="1096" y="1244.7109"> </text><text fill="#000000" font-family="sans-serif" font-size="13" lengthAdjust="spacing" textLength="25" x="1096" y="1260.0215">true</text><path d="M1094,1277.7637 L1094,1317.7637 L1165,1317.7637 L1165,1287.7637 L1155,1277.7637 L1094,1277.7637 " fill="#FEFFDD" style="stroke:#181818;stroke-width:0.5;"/><path d="M1155,1277.7637 L1155,1287.7637 L1165,1287.7637 L1155,1277.7637 " fill="#FEFFDD" style="stroke:#181818;stroke-width:0.5;"/><text fill="#000000" font-family="sans-serif" font-size="13" lengthAdjust="spacing" textLength="4" x="1100" y="1295.332"> </text><text fill="#000000" font-family="sans-serif" font-size="13" lengthAdjust="spacing" textLength="50" x="1100" y="1310.6426">795 gas</text><polygon fill="#181818" points="333,1325.3848,323,1329.3848,333,1333.3848,329,1329.3848" style="stroke:#181818;stroke-width:1.0;"/><line style="stroke:#181818;stroke-width:1.0;stroke-dasharray:2.0,2.0;" x1="327" x2="1396.5" y1="1329.3848" y2="1329.3848"/><path d="M1402,1342.3848 L1402,1382.3848 L1485,1382.3848 L1485,1352.3848 L1475,1342.3848 L1402,1342.3848 " fill="#FEFFDD" style="stroke:#181818;stroke-width:0.5;"/><path d="M1475,1342.3848 L1475,1352.3848 L1485,1352.3848 L1475,1342.3848 " fill="#FEFFDD" style="stroke:#181818;stroke-width:0.5;"/><text fill="#000000" font-family="sans-serif" font-size="13" lengthAdjust="spacing" textLength="4" x="1408" y="1359.9531"> </text><text fill="#000000" font-family="sans-serif" font-size="13" lengthAdjust="spacing" textLength="62" x="1408" y="1375.2637">3,207 gas</text><polygon fill="#181818" points="598,1390.0059,608,1394.0059,598,1398.0059,602,1394.0059" style="stroke:#181818;stroke-width:1.0;"/><line style="stroke:#181818;stroke-width:1.0;stroke-dasharray:2.0,2.0;" x1="317" x2="604" y1="1394.0059" y2="1394.0059"/><path d="M322,1407.0059 L322,1447.0059 L405,1447.0059 L405,1417.0059 L395,1407.0059 L322,1407.0059 " fill="#FEFFDD" style="stroke:#181818;stroke-width:0.5;"/><path d="M395,1407.0059 L395,1417.0059 L405,1417.0059 L395,1407.0059 " fill="#FEFFDD" style="stroke:#181818;stroke-width:0.5;"/><text fill="#000000" font-family="sans-serif" font-size="13" lengthAdjust="spacing" textLength="4" x="328" y="1424.5742"> </text><text fill="#000000" font-family="sans-serif" font-size="13" lengthAdjust="spacing" textLength="62" x="328" y="1439.8848">5,021 gas</text><polygon fill="#181818" points="1072,1500.5586,1082,1504.5586,1072,1508.5586,1076,1504.5586" style="stroke:#181818;stroke-width:1.0;"/><line style="stroke:#181818;stroke-width:1.0;stroke-dasharray:2.0,2.0;" x1="620" x2="1078" y1="1504.5586" y2="1504.5586"/><text fill="#000000" font-family="sans-serif" font-size="13" lengthAdjust="spacing" textLength="67" x="627" y="1469.1953">balanceOf(</text><text fill="#000000" font-family="sans-serif" font-size="13" lengthAdjust="spacing" textLength="91" x="627" y="1484.5059">0x88e6..5640)</text><text fill="#000000" font-family="sans-serif" font-size="13" lengthAdjust="spacing" textLength="62" x="627" y="1499.8164">1,315 gas</text><line style="stroke:#181818;stroke-width:1.0;" x1="1260" x2="1250" y1="1564.4902" y2="1560.4902"/><line style="stroke:#181818;stroke-width:1.0;" x1="1260" x2="1250" y1="1564.4902" y2="1568.4902"/><line style="stroke:#181818;stroke-width:1.0;" x1="1094" x2="1261" y1="1564.4902" y2="1564.4902"/><text fill="#000000" font-family="sans-serif" font-size="13" lengthAdjust="spacing" textLength="67" x="1101" y="1529.127">balanceOf(</text><text fill="#000000" font-family="sans-serif" font-size="13" lengthAdjust="spacing" textLength="149" x="1101" y="1544.4375">account: 0x88e6..5640)</text><text fill="#000000" font-family="sans-serif" font-size="13" lengthAdjust="spacing" textLength="50" x="1101" y="1559.748">529 gas</text><line style="stroke:#181818;stroke-width:1.0;" x1="1095" x2="1105" y1="1609.1113" y2="1605.1113"/><line style="stroke:#181818;stroke-width:1.0;" x1="1095" x2="1105" y1="1609.1113" y2="1613.1113"/><line style="stroke:#181818;stroke-width:1.0;stroke-dasharray:2.0,2.0;" x1="1094" x2="1266" y1="1609.1113" y2="1609.1113"/><text fill="#000000" font-family="sans-serif" font-size="13" lengthAdjust="spacing" textLength="4" x="1111" y="1589.0586"> </text><text fill="#000000" font-family="sans-serif" font-size="13" lengthAdjust="spacing" textLength="128" x="1111" y="1604.3691">76,129,872,331,211</text><polygon fill="#181818" points="631,1649.7324,621,1653.7324,631,1657.7324,627,1653.7324" style="stroke:#181818;stroke-width:1.0;"/><line style="stroke:#181818;stroke-width:1.0;stroke-dasharray:2.0,2.0;" x1="625" x2="1088" y1="1653.7324" y2="1653.7324"/><text fill="#000000" font-family="sans-serif" font-size="13" lengthAdjust="spacing" textLength="4" x="637" y="1633.6797"> </text><text fill="#000000" font-family="sans-serif" font-size="13" lengthAdjust="spacing" textLength="128" x="637" y="1648.9902">76,129,872,331,211</text><path d="M1094,1666.7324 L1094,1706.7324 L1165,1706.7324 L1165,1676.7324 L1155,1666.7324 L1094,1666.7324 " fill="#FEFFDD" style="stroke:#181818;stroke-width:0.5;"/><path d="M1155,1666.7324 L1155,1676.7324 L1165,1676.7324 L1155,1666.7324 " fill="#FEFFDD" style="stroke:#181818;stroke-width:0.5;"/><text fill="#000000" font-family="sans-serif" font-size="13" lengthAdjust="spacing" textLength="4" x="1100" y="1684.3008"> </text><text fill="#000000" font-family="sans-serif" font-size="13" lengthAdjust="spacing" textLength="50" x="1100" y="1699.6113">786 gas</text><polygon fill="#181818" points="328,1714.3535,318,1718.3535,328,1722.3535,324,1718.3535" style="stroke:#181818;stroke-width:1.0;"/><line style="stroke:#181818;stroke-width:1.0;stroke-dasharray:2.0,2.0;" x1="322" x2="614" y1="1718.3535" y2="1718.3535"/><path d="M620,1731.3535 L620,1771.3535 L711,1771.3535 L711,1741.3535 L701,1731.3535 L620,1731.3535 " fill="#FEFFDD" style="stroke:#181818;stroke-width:0.5;"/><path d="M701,1731.3535 L701,1741.3535 L711,1741.3535 L701,1731.3535 " fill="#FEFFDD" style="stroke:#181818;stroke-width:0.5;"/><text fill="#000000" font-family="sans-serif" font-size="13" lengthAdjust="spacing" textLength="4" x="626" y="1748.9219"> </text><text fill="#000000" font-family="sans-serif" font-size="13" lengthAdjust="spacing" textLength="70" x="626" y="1764.2324">46,584 gas</text><polygon fill="#181818" points="852,1824.9063,862,1828.9063,852,1832.9063,856,1828.9063" style="stroke:#181818;stroke-width:1.0;"/><line style="stroke:#181818;stroke-width:1.0;" x1="317" x2="858" y1="1828.9063" y2="1828.9063"/><text fill="#000000" font-family="sans-serif" font-size="13" lengthAdjust="spacing" textLength="67" x="324" y="1793.543">balanceOf(</text><text fill="#000000" font-family="sans-serif" font-size="13" lengthAdjust="spacing" textLength="92" x="324" y="1808.8535">0x3fC9..7FAD)</text><text fill="#000000" font-family="sans-serif" font-size="13" lengthAdjust="spacing" textLength="50" x="324" y="1824.1641">534 gas</text><polygon fill="#181818" points="328,1869.5273,318,1873.5273,328,1877.5273,324,1873.5273" style="stroke:#181818;stroke-width:1.0;"/><line style="stroke:#181818;stroke-width:1.0;stroke-dasharray:2.0,2.0;" x1="322" x2="868" y1="1873.5273" y2="1873.5273"/><text fill="#000000" font-family="sans-serif" font-size="13" lengthAdjust="spacing" textLength="4" x="334" y="1853.4746"> </text><text fill="#000000" font-family="sans-serif" font-size="13" lengthAdjust="spacing" textLength="188" x="334" y="1868.7852">18,,367,723,279,128,428,887</text><polygon fill="#181818" points="852,1929.459,862,1933.459,852,1937.459,856,1933.459" style="stroke:#181818;stroke-width:1.0;"/><line style="stroke:#181818;stroke-width:1.0;" x1="317" x2="858" y1="1933.459" y2="1933.459"/><text fill="#000000" font-family="sans-serif" font-size="13" lengthAdjust="spacing" textLength="61" x="324" y="1898.0957">withdraw(</text><text fill="#000000" font-family="sans-serif" font-size="13" lengthAdjust="spacing" textLength="225" x="324" y="1913.4063">wad: 18,,367,723,279,128,428,887)</text><text fill="#000000" font-family="sans-serif" font-size="13" lengthAdjust="spacing" textLength="62" x="324" y="1928.7168">9,220 gas</text><polygon fill="#181818" points="333,1989.3906,323,1993.3906,333,1997.3906,329,1993.3906" style="stroke:#181818;stroke-width:1.0;"/><line style="stroke:#181818;stroke-width:1.0;" x1="327" x2="863" y1="1993.3906" y2="1993.3906"/><text fill="#000000" font-family="sans-serif" font-size="13" lengthAdjust="spacing" textLength="58" x="339" y="1958.0273">fallback()</text><text fill="#000000" font-family="sans-serif" font-size="13" lengthAdjust="spacing" textLength="42" x="339" y="1973.3379">80 gas</text><text fill="#000000" font-family="sans-serif" font-size="13" lengthAdjust="spacing" textLength="73" x="339" y="1988.6484">18.368 ETH</text><polygon fill="#181818" points="124,2049.3223,114,2053.3223,124,2057.3223,120,2053.3223" style="stroke:#181818;stroke-width:1.0;"/><line style="stroke:#181818;stroke-width:1.0;" x1="118" x2="311" y1="2053.3223" y2="2053.3223"/><text fill="#000000" font-family="sans-serif" font-size="13" lengthAdjust="spacing" textLength="58" x="130" y="2017.959">fallback()</text><text fill="#000000" font-family="sans-serif" font-size="13" lengthAdjust="spacing" textLength="34" x="130" y="2033.2695">0 gas</text><text fill="#000000" font-family="sans-serif" font-size="13" lengthAdjust="spacing" textLength="73" x="130" y="2048.5801">18.368 ETH</text><polygon fill="#181818" points="300,2063.3223,310,2067.3223,300,2071.3223,304,2067.3223" style="stroke:#181818;stroke-width:1.0;"/><line style="stroke:#181818;stroke-width:1.0;stroke-dasharray:2.0,2.0;" x1="108" x2="306" y1="2067.3223" y2="2067.3223"/><polygon fill="#181818" points="852,2077.3223,862,2081.3223,852,2085.3223,856,2081.3223" style="stroke:#181818;stroke-width:1.0;"/><line style="stroke:#181818;stroke-width:1.0;stroke-dasharray:2.0,2.0;" x1="317" x2="858" y1="2081.3223" y2="2081.3223"/><polygon fill="#181818" points="328,2091.3223,318,2095.3223,328,2099.3223,324,2095.3223" style="stroke:#181818;stroke-width:1.0;"/><line style="stroke:#181818;stroke-width:1.0;stroke-dasharray:2.0,2.0;" x1="322" x2="868" y1="2095.3223" y2="2095.3223"/><path d="M874,2108.3223 L874,2148.3223 L957,2148.3223 L957,2118.3223 L947,2108.3223 L874,2108.3223 " fill="#FEFFDD" style="stroke:#181818;stroke-width:0.5;"/><path d="M947,2108.3223 L947,2118.3223 L957,2118.3223 L947,2108.3223 " fill="#FEFFDD" style="stroke:#181818;stroke-width:0.5;"/><text fill="#000000" font-family="sans-serif" font-size="13" lengthAdjust="spacing" textLength="4" x="880" y="2125.8906"> </text><text fill="#000000" font-family="sans-serif" font-size="13" lengthAdjust="spacing" textLength="62" x="880" y="2141.2012">9,140 gas</text><polygon fill="#181818" points="119,2155.9434,109,2159.9434,119,2163.9434,115,2159.9434" style="stroke:#181818;stroke-width:1.0;"/><line style="stroke:#181818;stroke-width:1.0;stroke-dasharray:2.0,2.0;" x1="113" x2="311" y1="2159.9434" y2="2159.9434"/><path d="M317,2172.9434 L317,2212.9434 L408,2212.9434 L408,2182.9434 L398,2172.9434 L317,2172.9434 " fill="#FEFFDD" style="stroke:#181818;stroke-width:0.5;"/><path d="M398,2172.9434 L398,2182.9434 L408,2182.9434 L398,2172.9434 " fill="#FEFFDD" style="stroke:#181818;stroke-width:0.5;"/><text fill="#000000" font-family="sans-serif" font-size="13" lengthAdjust="spacing" textLength="4" x="323" y="2190.5117"> </text><text fill="#000000" font-family="sans-serif" font-size="13" lengthAdjust="spacing" textLength="70" x="323" y="2205.8223">17,344 gas</text><path d="M744,2223.5645 L744,2340.5645 L994,2340.5645 L994,2233.5645 L984,2223.5645 L744,2223.5645 " fill="#00FFFF" style="stroke:#181818;stroke-width:0.5;"/><path d="M984,2223.5645 L984,2233.5645 L994,2233.5645 L984,2223.5645 " fill="#00FFFF" style="stroke:#181818;stroke-width:0.5;"/><text fill="#000000" font-family="sans-serif" font-size="13" lengthAdjust="spacing" textLength="56" x="750" y="2241.1328">Transfer:</text><text fill="#000000" font-family="sans-serif" font-size="13" lengthAdjust="spacing" textLength="118" x="758" y="2256.4434">src: 0x88e6..5640,</text><text fill="#000000" font-family="sans-serif" font-size="13" lengthAdjust="spacing" textLength="120" x="758" y="2271.7539">dst: 0x3fC9..7FAD,</text><text fill="#000000" font-family="sans-serif" font-size="13" lengthAdjust="spacing" textLength="221" x="758" y="2287.0645">wad: 18,,367,723,279,128,428,887</text><text fill="#000000" font-family="sans-serif" font-size="13" lengthAdjust="spacing" textLength="73" x="750" y="2302.375">Withdrawal:</text><text fill="#000000" font-family="sans-serif" font-size="13" lengthAdjust="spacing" textLength="119" x="758" y="2317.6855">src: 0x3fC9..7FAD,</text><text fill="#000000" font-family="sans-serif" font-size="13" lengthAdjust="spacing" textLength="221" x="758" y="2332.9961">wad: 18,,367,723,279,128,428,887</text><path d="M1004,2223.5645 L1004,2294.5645 L1174,2294.5645 L1174,2233.5645 L1164,2223.5645 L1004,2223.5645 " fill="#00FFFF" style="stroke:#181818;stroke-width:0.5;"/><path d="M1164,2223.5645 L1164,2233.5645 L1174,2233.5645 L1164,2223.5645 " fill="#00FFFF" style="stroke:#181818;stroke-width:0.5;"/><text fill="#000000" font-family="sans-serif" font-size="13" lengthAdjust="spacing" textLength="56" x="1010" y="2241.1328">Transfer:</text><text fill="#000000" font-family="sans-serif" font-size="13" lengthAdjust="spacing" textLength="126" x="1018" y="2256.4434">from: 0x577B..2BeE,</text><text fill="#000000" font-family="sans-serif" font-size="13" lengthAdjust="spacing" textLength="112" x="1018" y="2271.7539">to: 0x88e6..5640,</text><text fill="#000000" font-family="sans-serif" font-size="13" lengthAdjust="spacing" textLength="141" x="1018" y="2287.0645">value: 31,723,299,743</text><!--SRC=[jLPjRzis4FwkNq6qNrA0qVWYIgGH16XUXs7TWYLjFip3G4bK8yIcF9bEqd-_ewmNotRTPC02EFRnU7VFtJrtaYlTp23oad5QA2cqKQaoXgGHpqWYg4cJF58cZeKf8YMArF24fYgN2P5vAhKoCjT2P2O8ChrmPMNHN9VM6eTHEgkoHqGJGRZWCKQtAuiHbUYNbKMCC8u8dGWn4GfTVxeBTEQg6hqZBo99qZ1agJ7la5uYBte11GjTkp8h5zewVuyNcGh3fD1vSy-BNa0d9vzj-MJgfPxzKQsSgKzFjqsbD74OYZWYZQaNlR0J8YDCXs6SPQovvqKlG8ZxMYyM9aUNxi47E3avkh-y-_c3_-L_gDsOcgGo34qQoSQN5xtWuTvUeFEgj8qR4CuRDrUbTdVLex4tTVNoROy_nbaOfdbMhFs1w0MqOVc5_Krt3GdyXQ5CDMyClUW5CBmnzRnq34m2Mpc3AgXYN__WjyfcPe8euS4rsDtKPIEAaCGg5af8TFriok2JVa5NnckIK32eAeqP7LHWLjMb-pP196oFlRTVIuWyGOn6M57I77rUcXoyH0fp5GLthLSI4i8Gb3WmDaSUPX3q53a-xMamGUR5PD3-ewdDglbSstm9rZxx34zjQHSh1mT_JYr2f5MGTMcwNzZhw5Yd4qCocPk_G9aRdSzAwrF5iKmm4G9JnZzCRGiQVTLBp-loIKCrEsH1prI0sr7FHw5CwYmb4kmPmqp5O_lkQj3J5UmxIawGgxLT5gQ6VFEby_vuSUu7vEhZ1O1zzYMX4cCU9pXX7BD40Lg98_X8cG1gfh2AsJXevp-eZLlLTcfTlJ8R2012n-G9IlLC0qT-Bm33vf21RuKb5MFNdLtGZyBnwMdFux4tdMNLoZPPZTmoB9ZQSjiDmdj9rENvMOyyYJ5H4llU44vn5Cj3gcO0wlBhWqDLiP4ZNCPChbkpsOY1TojRBf_ruWk_XV_dUZPBTVReSvZx5CY5cJazGH2cwO9IE8auxjIqLHzJ2Os26z0cw18q2NhaEQUzTXzReHeymZ4Zhs1TD_C3QwxgQWuO2_Zoxc6Ypc07dvbBYEcgSTrxi7koS7xl-EiVr-lkB99hPWcrrQSEGz0le36Pjf0jwsm7MClp4RA6vsDO7a0CyyZUnh__M9edFLkPVH04r21v9LURAHi91_YereErlhvrSUWqq0Cpadp_wi3WgHMOmD8US_orequn_pz6_Ks3Je5nCc6OGniOfOTK1mhRZldUQWsBUsgZ60kvtlQRKpRivd6rXhtiq-BH3pRkWQNzdN3FfNl8Q_ryzAgrhp3RNXezXlwDPxJXYcwfWRLiJ3tAaCUoUJ0VtZtTmthive2N_WMaxSFuQzoLeGO-BngHrz6T9fX7wpvilFdqoR_N_wnqSDVkWqc0KBkDDWOV3dSVkt3uemO4zsspz6p3yHjz3Az2Fw41Vpzik_ZtB3CutTbcSBPtdGq1_mK0]--></g></svg>
