<?xml version="1.0" encoding="UTF-8" standalone="no"?><svg xmlns:xlink="http://www.w3.org/1999/xlink" xmlns="http://www.w3.org/2000/svg" contentStyleType="text/css" height="2331px" preserveAspectRatio="none" style="width:1999px;height:2331px;background:#FFFFFF;" version="1.1" viewBox="0 0 1999 2331" width="1999px" zoomAndPan="magnify"><defs/><g><text fill="#000000" font-family="sans-serif" font-size="14" font-weight="bold" lengthAdjust="spacing" textLength="546" x="725" y="28.5352">0xc4eaff5ab7bacc93c76433753517c831fe0ff10182da4fc086cdf49ec7ec15b9</text><text fill="#000000" font-family="sans-serif" font-size="14" lengthAdjust="spacing" textLength="404" x="796" y="2319.916">mainnet, block 17503581, Sun, 18 Jun 2023 02:04:59 GMT</text><rect fill="#FFFFFF" height="14" style="stroke:#181818;stroke-width:1.0;" width="10" x="97.5" y="1906.7012"/><rect fill="#FFFFFF" height="1624.2227" style="stroke:#181818;stroke-width:1.0;" width="10" x="304.5" y="389.0996"/><rect fill="#FFFFFF" height="319.6582" style="stroke:#181818;stroke-width:1.0;" width="10" x="309.5" y="1036.9688"/><rect fill="#FFFFFF" height="87.9316" style="stroke:#181818;stroke-width:1.0;" width="10" x="309.5" y="1846.7695"/><rect fill="#FFFFFF" height="14" style="stroke:#181818;stroke-width:1.0;" width="10" x="869.5" y="586.8262"/><rect fill="#FFFFFF" height="149.1738" style="stroke:#181818;stroke-width:1.0;" width="10" x="869.5" y="1142.832"/><rect fill="#FFFFFF" height="849.7324" style="stroke:#181818;stroke-width:1.0;" width="10" x="1374" y="722"/><rect fill="#FFFFFF" height="44.6211" style="stroke:#181818;stroke-width:1.0;" width="10" x="1713" y="797.2422"/><rect fill="#FFFFFF" height="44.6211" style="stroke:#181818;stroke-width:1.0;" width="10" x="1713" y="1682.2852"/><rect fill="#FFFFFF" height="161.8633" style="stroke:#181818;stroke-width:1.0;" width="10" x="1713" y="1786.8379"/><rect fill="#FFFFFF" height="44.6211" style="stroke:#181818;stroke-width:1.0;" width="10" x="1909.5" y="901.7949"/><rect fill="#FFFFFF" height="44.6211" style="stroke:#181818;stroke-width:1.0;" width="10" x="1909.5" y="1233.3848"/><rect fill="#FFFFFF" height="44.6211" style="stroke:#181818;stroke-width:1.0;" width="10" x="1909.5" y="1467.1797"/><line style="stroke:#181818;stroke-width:0.5;stroke-dasharray:5.0,5.0;" x1="102" x2="102" y1="123.4414" y2="2224.4277"/><line style="stroke:#181818;stroke-width:0.5;stroke-dasharray:5.0,5.0;" x1="309" x2="309" y1="123.4414" y2="2224.4277"/><line style="stroke:#181818;stroke-width:0.5;stroke-dasharray:5.0,5.0;" x1="874" x2="874" y1="123.4414" y2="2224.4277"/><line style="stroke:#181818;stroke-width:0.5;stroke-dasharray:5.0,5.0;" x1="1379" x2="1379" y1="123.4414" y2="2224.4277"/><line style="stroke:#181818;stroke-width:0.5;stroke-dasharray:5.0,5.0;" x1="1717.5" x2="1717.5" y1="123.4414" y2="2224.4277"/><line style="stroke:#181818;stroke-width:0.5;stroke-dasharray:5.0,5.0;" x1="1914" x2="1914" y1="123.4414" y2="2224.4277"/><text fill="#000000" font-family="sans-serif" font-size="14" lengthAdjust="spacing" textLength="85" x="57" y="120.4883">0xf3f5..4edf</text><ellipse cx="102.5" cy="55.4531" fill="#E2E2F0" rx="8" ry="8" style="stroke:#181818;stroke-width:0.5;"/><path d="M102.5,63.4531 L102.5,90.4531 M89.5,71.4531 L115.5,71.4531 M102.5,90.4531 L89.5,105.4531 M102.5,90.4531 L115.5,105.4531 " fill="none" style="stroke:#181818;stroke-width:0.5;"/><text fill="#000000" font-family="sans-serif" font-size="14" lengthAdjust="spacing" textLength="85" x="57" y="2236.9629">0xf3f5..4edf</text><ellipse cx="102.5" cy="2248.416" fill="#E2E2F0" rx="8" ry="8" style="stroke:#181818;stroke-width:0.5;"/><path d="M102.5,2256.416 L102.5,2283.416 M89.5,2264.416 L115.5,2264.416 M102.5,2283.416 L89.5,2298.416 M102.5,2283.416 L115.5,2298.416 " fill="none" style="stroke:#181818;stroke-width:0.5;"/><rect fill="#E2E2F0" height="46.9766" rx="2.5" ry="2.5" style="stroke:#181818;stroke-width:0.5;" width="137" x="241" y="75.4648"/><text fill="#000000" font-family="sans-serif" font-size="14" font-style="italic" lengthAdjust="spacing" textLength="123" x="248" y="96">«UniversalRouter»</text><text fill="#000000" font-family="sans-serif" font-size="14" lengthAdjust="spacing" textLength="87" x="266" y="112.4883">0x3fc9..7fad</text><rect fill="#E2E2F0" height="46.9766" rx="2.5" ry="2.5" style="stroke:#181818;stroke-width:0.5;" width="137" x="241" y="2223.4277"/><text fill="#000000" font-family="sans-serif" font-size="14" font-style="italic" lengthAdjust="spacing" textLength="123" x="248" y="2243.9629">«UniversalRouter»</text><text fill="#000000" font-family="sans-serif" font-size="14" lengthAdjust="spacing" textLength="87" x="266" y="2260.4512">0x3fc9..7fad</text><rect fill="#E2E2F0" height="46.9766" rx="2.5" ry="2.5" style="stroke:#181818;stroke-width:0.5;" width="111" x="819" y="75.4648"/><text fill="#000000" font-family="sans-serif" font-size="14" font-style="italic" lengthAdjust="spacing" textLength="67" x="841" y="96">«Permit2»</text><text fill="#000000" font-family="sans-serif" font-size="14" lengthAdjust="spacing" textLength="97" x="826" y="112.4883">0x0000..8ba3</text><rect fill="#E2E2F0" height="46.9766" rx="2.5" ry="2.5" style="stroke:#181818;stroke-width:0.5;" width="111" x="819" y="2223.4277"/><text fill="#000000" font-family="sans-serif" font-size="14" font-style="italic" lengthAdjust="spacing" textLength="67" x="841" y="2243.9629">«Permit2»</text><text fill="#000000" font-family="sans-serif" font-size="14" lengthAdjust="spacing" textLength="97" x="826" y="2260.4512">0x0000..8ba3</text><rect fill="#E2E2F0" height="46.9766" rx="2.5" ry="2.5" style="stroke:#181818;stroke-width:0.5;" width="134" x="1312" y="75.4648"/><text fill="#000000" font-family="sans-serif" font-size="14" font-style="italic" lengthAdjust="spacing" textLength="120" x="1319" y="96">«UniswapV3Pool»</text><text fill="#000000" font-family="sans-serif" font-size="14" lengthAdjust="spacing" textLength="97" x="1330.5" y="112.4883">0x88e6..5640</text><rect fill="#E2E2F0" height="46.9766" rx="2.5" ry="2.5" style="stroke:#181818;stroke-width:0.5;" width="134" x="1312" y="2223.4277"/><text fill="#000000" font-family="sans-serif" font-size="14" font-style="italic" lengthAdjust="spacing" textLength="120" x="1319" y="2243.9629">«UniswapV3Pool»</text><text fill="#000000" font-family="sans-serif" font-size="14" lengthAdjust="spacing" textLength="97" x="1330.5" y="2260.4512">0x88e6..5640</text><rect fill="#E2E2F0" height="79.9531" rx="2.5" ry="2.5" style="stroke:#181818;stroke-width:0.5;" width="129" x="1653.5" y="42.4883"/><text fill="#000000" font-family="sans-serif" font-size="14" font-style="italic" lengthAdjust="spacing" textLength="115" x="1660.5" y="63.0234">«Wrapped Ether»</text><text fill="#000000" font-family="sans-serif" font-size="14" font-style="italic" lengthAdjust="spacing" textLength="63" x="1686.5" y="79.5117">«(WETH)»</text><text fill="#000000" font-family="sans-serif" font-size="14" font-style="italic" lengthAdjust="spacing" textLength="62" x="1687" y="96">«WETH9»</text><text fill="#000000" font-family="sans-serif" font-size="14" lengthAdjust="spacing" textLength="91" x="1672.5" y="112.4883">0xc02a..6cc2</text><rect fill="#E2E2F0" height="79.9531" rx="2.5" ry="2.5" style="stroke:#181818;stroke-width:0.5;" width="129" x="1653.5" y="2223.4277"/><text fill="#000000" font-family="sans-serif" font-size="14" font-style="italic" lengthAdjust="spacing" textLength="115" x="1660.5" y="2243.9629">«Wrapped Ether»</text><text fill="#000000" font-family="sans-serif" font-size="14" font-style="italic" lengthAdjust="spacing" textLength="63" x="1686.5" y="2260.4512">«(WETH)»</text><text fill="#000000" font-family="sans-serif" font-size="14" font-style="italic" lengthAdjust="spacing" textLength="62" x="1687" y="2276.9395">«WETH9»</text><text fill="#000000" font-family="sans-serif" font-size="14" lengthAdjust="spacing" textLength="91" x="1672.5" y="2293.4277">0xc02a..6cc2</text><rect fill="#E2E2F0" height="79.9531" rx="2.5" ry="2.5" style="stroke:#181818;stroke-width:0.5;" width="135" x="1847" y="42.4883"/><text fill="#000000" font-family="sans-serif" font-size="14" font-style="italic" lengthAdjust="spacing" textLength="78" x="1875.5" y="63.0234">«USD Coin»</text><text fill="#000000" font-family="sans-serif" font-size="14" font-style="italic" lengthAdjust="spacing" textLength="62" x="1883.5" y="79.5117">«(USDC)»</text><text fill="#000000" font-family="sans-serif" font-size="14" font-style="italic" lengthAdjust="spacing" textLength="121" x="1854" y="96">«FiatTokenProxy»</text><text fill="#000000" font-family="sans-serif" font-size="14" lengthAdjust="spacing" textLength="96" x="1866.5" y="112.4883">0xa0b8..eb48</text><rect fill="#E2E2F0" height="79.9531" rx="2.5" ry="2.5" style="stroke:#181818;stroke-width:0.5;" width="135" x="1847" y="2223.4277"/><text fill="#000000" font-family="sans-serif" font-size="14" font-style="italic" lengthAdjust="spacing" textLength="78" x="1875.5" y="2243.9629">«USD Coin»</text><text fill="#000000" font-family="sans-serif" font-size="14" font-style="italic" lengthAdjust="spacing" textLength="62" x="1883.5" y="2260.4512">«(USDC)»</text><text fill="#000000" font-family="sans-serif" font-size="14" font-style="italic" lengthAdjust="spacing" textLength="121" x="1854" y="2276.9395">«FiatTokenProxy»</text><text fill="#000000" font-family="sans-serif" font-size="14" lengthAdjust="spacing" textLength="96" x="1866.5" y="2293.4277">0xa0b8..eb48</text><rect fill="#FFFFFF" height="14" style="stroke:#181818;stroke-width:1.0;" width="10" x="97.5" y="1906.7012"/><rect fill="#FFFFFF" height="1624.2227" style="stroke:#181818;stroke-width:1.0;" width="10" x="304.5" y="389.0996"/><rect fill="#FFFFFF" height="319.6582" style="stroke:#181818;stroke-width:1.0;" width="10" x="309.5" y="1036.9688"/><rect fill="#FFFFFF" height="87.9316" style="stroke:#181818;stroke-width:1.0;" width="10" x="309.5" y="1846.7695"/><rect fill="#FFFFFF" height="14" style="stroke:#181818;stroke-width:1.0;" width="10" x="869.5" y="586.8262"/><rect fill="#FFFFFF" height="149.1738" style="stroke:#181818;stroke-width:1.0;" width="10" x="869.5" y="1142.832"/><rect fill="#FFFFFF" height="849.7324" style="stroke:#181818;stroke-width:1.0;" width="10" x="1374" y="722"/><rect fill="#FFFFFF" height="44.6211" style="stroke:#181818;stroke-width:1.0;" width="10" x="1713" y="797.2422"/><rect fill="#FFFFFF" height="44.6211" style="stroke:#181818;stroke-width:1.0;" width="10" x="1713" y="1682.2852"/><rect fill="#FFFFFF" height="161.8633" style="stroke:#181818;stroke-width:1.0;" width="10" x="1713" y="1786.8379"/><rect fill="#FFFFFF" height="44.6211" style="stroke:#181818;stroke-width:1.0;" width="10" x="1909.5" y="901.7949"/><rect fill="#FFFFFF" height="44.6211" style="stroke:#181818;stroke-width:1.0;" width="10" x="1909.5" y="1233.3848"/><rect fill="#FFFFFF" height="44.6211" style="stroke:#181818;stroke-width:1.0;" width="10" x="1909.5" y="1467.1797"/><path d="M5,138.4414 L5,255.4414 L201,255.4414 L201,148.4414 L191,138.4414 L5,138.4414 " fill="#FEFFDD" style="stroke:#181818;stroke-width:0.5;"/><path d="M191,138.4414 L191,148.4414 L201,148.4414 L191,138.4414 " fill="#FEFFDD" style="stroke:#181818;stroke-width:0.5;"/><text fill="#000000" font-family="sans-serif" font-size="13" lengthAdjust="spacing" textLength="64" x="11" y="156.0098">Nonce: 45</text><text fill="#000000" font-family="sans-serif" font-size="13" lengthAdjust="spacing" textLength="175" x="11" y="171.3203">Gas Price: 14.1987671 Gwei</text><text fill="#000000" font-family="sans-serif" font-size="13" lengthAdjust="spacing" textLength="129" x="11" y="186.6309">Max Fee: 17.22 Gwei</text><text fill="#000000" font-family="sans-serif" font-size="13" lengthAdjust="spacing" textLength="145" x="11" y="201.9414">Max Priority: 0.13 Gwei</text><text fill="#000000" font-family="sans-serif" font-size="13" lengthAdjust="spacing" textLength="119" x="11" y="217.252">Gas Limit: 245,262</text><text fill="#000000" font-family="sans-serif" font-size="13" lengthAdjust="spacing" textLength="118" x="11" y="232.5625">Gas Used: 174,687</text><text fill="#000000" font-family="sans-serif" font-size="13" lengthAdjust="spacing" textLength="114" x="11" y="247.873">Tx Fee: 0.002 ETH</text><polygon fill="#181818" points="292.5,385.0996,302.5,389.0996,292.5,393.0996,296.5,389.0996" style="stroke:#181818;stroke-width:1.0;"/><line style="stroke:#181818;stroke-width:1.0;" x1="102.5" x2="298.5" y1="389.0996" y2="389.0996"/><text fill="#000000" font-family="sans-serif" font-size="13" lengthAdjust="spacing" textLength="53" x="109.5" y="277.1836">execute(</text><text fill="#000000" font-family="sans-serif" font-size="13" lengthAdjust="spacing" textLength="143" x="109.5" y="292.4941">commands: 0x0a000c,</text><text fill="#000000" font-family="sans-serif" font-size="13" lengthAdjust="spacing" textLength="52" x="109.5" y="307.8047">inputs: [</text><text fill="#000000" font-family="sans-serif" font-size="13" lengthAdjust="spacing" textLength="172" x="117.5" y="323.1152">0: 0x00000000..00000000,</text><text fill="#000000" font-family="sans-serif" font-size="13" lengthAdjust="spacing" textLength="172" x="117.5" y="338.4258">1: 0x00000000..00000000,</text><text fill="#000000" font-family="sans-serif" font-size="13" lengthAdjust="spacing" textLength="175" x="117.5" y="353.7363">2: 0x00000000..8d22a344],</text><text fill="#000000" font-family="sans-serif" font-size="13" lengthAdjust="spacing" textLength="157" x="109.5" y="369.0469">deadline: 1,687,055,675)</text><text fill="#000000" font-family="sans-serif" font-size="13" lengthAdjust="spacing" textLength="78" x="109.5" y="384.3574">174,687 gas</text><polygon fill="#181818" points="857.5,582.8262,867.5,586.8262,857.5,590.8262,861.5,586.8262" style="stroke:#181818;stroke-width:1.0;"/><line style="stroke:#181818;stroke-width:1.0;" x1="314.5" x2="863.5" y1="586.8262" y2="586.8262"/><text fill="#000000" font-family="sans-serif" font-size="13" lengthAdjust="spacing" textLength="45" x="321.5" y="413.668">permit(</text><text fill="#000000" font-family="sans-serif" font-size="13" lengthAdjust="spacing" textLength="134" x="321.5" y="428.9785">owner: 0xF3f5..4eDF,</text><text fill="#000000" font-family="sans-serif" font-size="13" lengthAdjust="spacing" textLength="91" x="321.5" y="444.2891">permitSingle: [</text><text fill="#000000" font-family="sans-serif" font-size="13" lengthAdjust="spacing" textLength="54" x="329.5" y="459.5996">details: [</text><text fill="#000000" font-family="sans-serif" font-size="13" lengthAdjust="spacing" textLength="135" x="337.5" y="474.9102">token: 0xA0b8..eB48,</text><text fill="#000000" font-family="sans-serif" font-size="13" lengthAdjust="spacing" textLength="520" x="337.5" y="490.2207">amount: 1,461,501,637,330,902,918,203,684,832,716,,283,019,655,932,542,975,</text><text fill="#000000" font-family="sans-serif" font-size="13" lengthAdjust="spacing" textLength="168" x="337.5" y="505.5313">expiration: 1,689,645,888,</text><text fill="#000000" font-family="sans-serif" font-size="13" lengthAdjust="spacing" textLength="54" x="337.5" y="520.8418">nonce: ],</text><text fill="#000000" font-family="sans-serif" font-size="13" lengthAdjust="spacing" textLength="150" x="329.5" y="536.1523">spender: 0x3fC9..7FAD,</text><text fill="#000000" font-family="sans-serif" font-size="13" lengthAdjust="spacing" textLength="182" x="329.5" y="551.4629">sigDeadline: 1,687,055,688],</text><text fill="#000000" font-family="sans-serif" font-size="13" lengthAdjust="spacing" textLength="211" x="321.5" y="566.7734">signature: 0x15a0df6f..6a4c7f1b)</text><text fill="#000000" font-family="sans-serif" font-size="13" lengthAdjust="spacing" textLength="70" x="321.5" y="582.084">30,786 gas</text><polygon fill="#181818" points="325.5,596.8262,315.5,600.8262,325.5,604.8262,321.5,600.8262" style="stroke:#181818;stroke-width:1.0;"/><line style="stroke:#181818;stroke-width:1.0;stroke-dasharray:2.0,2.0;" x1="319.5" x2="873.5" y1="600.8262" y2="600.8262"/><polygon fill="#181818" points="1362,718,1372,722,1362,726,1366,722" style="stroke:#181818;stroke-width:1.0;"/><line style="stroke:#181818;stroke-width:1.0;" x1="314.5" x2="1368" y1="722" y2="722"/><text fill="#000000" font-family="sans-serif" font-size="13" lengthAdjust="spacing" textLength="36" x="321.5" y="625.3945">swap(</text><text fill="#000000" font-family="sans-serif" font-size="13" lengthAdjust="spacing" textLength="155" x="321.5" y="640.7051">recipient: 0x3fC9..7FAD,</text><text fill="#000000" font-family="sans-serif" font-size="13" lengthAdjust="spacing" textLength="109" x="321.5" y="656.0156">zeroForOne: true,</text><text fill="#000000" font-family="sans-serif" font-size="13" lengthAdjust="spacing" textLength="189" x="321.5" y="671.3262">amountSpecified: 55,311,132,</text><text fill="#000000" font-family="sans-serif" font-size="13" lengthAdjust="spacing" textLength="215" x="321.5" y="686.6367">sqrtPriceLimitX96: 4,295,128,740,</text><text fill="#000000" font-family="sans-serif" font-size="13" lengthAdjust="spacing" textLength="191" x="321.5" y="701.9473">data: 0x00000000..00000000)</text><text fill="#000000" font-family="sans-serif" font-size="13" lengthAdjust="spacing" textLength="78" x="321.5" y="717.2578">109,114 gas</text><polygon fill="#181818" points="1701,793.2422,1711,797.2422,1701,801.2422,1705,797.2422" style="stroke:#181818;stroke-width:1.0;"/><line style="stroke:#181818;stroke-width:1.0;" x1="1384" x2="1707" y1="797.2422" y2="797.2422"/><text fill="#000000" font-family="sans-serif" font-size="13" lengthAdjust="spacing" textLength="53" x="1391" y="746.5684">transfer(</text><text fill="#000000" font-family="sans-serif" font-size="13" lengthAdjust="spacing" textLength="120" x="1391" y="761.8789">dst: 0x3fC9..7FAD,</text><text fill="#000000" font-family="sans-serif" font-size="13" lengthAdjust="spacing" textLength="193" x="1391" y="777.1895">wad: 32,014,634,981,414,073)</text><text fill="#000000" font-family="sans-serif" font-size="13" lengthAdjust="spacing" textLength="70" x="1391" y="792.5">29,962 gas</text><polygon fill="#181818" points="1395,837.8633,1385,841.8633,1395,845.8633,1391,841.8633" style="stroke:#181818;stroke-width:1.0;"/><line style="stroke:#181818;stroke-width:1.0;stroke-dasharray:2.0,2.0;" x1="1389" x2="1717" y1="841.8633" y2="841.8633"/><text fill="#000000" font-family="sans-serif" font-size="13" lengthAdjust="spacing" textLength="4" x="1401" y="821.8105"> </text><text fill="#000000" font-family="sans-serif" font-size="13" lengthAdjust="spacing" textLength="25" x="1401" y="837.1211">true</text><polygon fill="#181818" points="1897.5,897.7949,1907.5,901.7949,1897.5,905.7949,1901.5,901.7949" style="stroke:#181818;stroke-width:1.0;"/><line style="stroke:#181818;stroke-width:1.0;" x1="1384" x2="1903.5" y1="901.7949" y2="901.7949"/><text fill="#000000" font-family="sans-serif" font-size="13" lengthAdjust="spacing" textLength="67" x="1391" y="866.4316">balanceOf(</text><text fill="#000000" font-family="sans-serif" font-size="13" lengthAdjust="spacing" textLength="91" x="1391" y="881.7422">0x88e6..5640)</text><text fill="#000000" font-family="sans-serif" font-size="13" lengthAdjust="spacing" textLength="62" x="1391" y="897.0527">9,815 gas</text><polygon fill="#181818" points="1395,942.416,1385,946.416,1395,950.416,1391,946.416" style="stroke:#181818;stroke-width:1.0;"/><line style="stroke:#181818;stroke-width:1.0;stroke-dasharray:2.0,2.0;" x1="1389" x2="1913.5" y1="946.416" y2="946.416"/><text fill="#000000" font-family="sans-serif" font-size="13" lengthAdjust="spacing" textLength="4" x="1401" y="926.3633"> </text><text fill="#000000" font-family="sans-serif" font-size="13" lengthAdjust="spacing" textLength="128" x="1401" y="941.6738">76,248,249,314,688</text><polygon fill="#181818" points="330.5,1032.9688,320.5,1036.9688,330.5,1040.9688,326.5,1036.9688" style="stroke:#181818;stroke-width:1.0;"/><line style="stroke:#181818;stroke-width:1.0;" x1="324.5" x2="1373" y1="1036.9688" y2="1036.9688"/><text fill="#000000" font-family="sans-serif" font-size="13" lengthAdjust="spacing" textLength="158" x="336.5" y="970.9844">uniswapV3SwapCallback(</text><text fill="#000000" font-family="sans-serif" font-size="13" lengthAdjust="spacing" textLength="173" x="336.5" y="986.2949">amount0Delta: 55,311,132,</text><text fill="#000000" font-family="sans-serif" font-size="13" lengthAdjust="spacing" textLength="245" x="336.5" y="1001.6055">amount1Delta: -32014634981414073,</text><text fill="#000000" font-family="sans-serif" font-size="13" lengthAdjust="spacing" textLength="191" x="336.5" y="1016.916">data: 0x00000000..00000000)</text><text fill="#000000" font-family="sans-serif" font-size="13" lengthAdjust="spacing" textLength="70" x="336.5" y="1032.2266">30,120 gas</text><polygon fill="#181818" points="857.5,1138.832,867.5,1142.832,857.5,1146.832,861.5,1142.832" style="stroke:#181818;stroke-width:1.0;"/><line style="stroke:#181818;stroke-width:1.0;" x1="319.5" x2="863.5" y1="1142.832" y2="1142.832"/><text fill="#000000" font-family="sans-serif" font-size="13" lengthAdjust="spacing" textLength="85" x="326.5" y="1061.5371">transferFrom(</text><text fill="#000000" font-family="sans-serif" font-size="13" lengthAdjust="spacing" textLength="126" x="326.5" y="1076.8477">from: 0xF3f5..4eDF,</text><text fill="#000000" font-family="sans-serif" font-size="13" lengthAdjust="spacing" textLength="112" x="326.5" y="1092.1582">to: 0x88e6..5640,</text><text fill="#000000" font-family="sans-serif" font-size="13" lengthAdjust="spacing" textLength="132" x="326.5" y="1107.4688">amount: 55,311,132,</text><text fill="#000000" font-family="sans-serif" font-size="13" lengthAdjust="spacing" textLength="135" x="326.5" y="1122.7793">token: 0xA0b8..eB48)</text><text fill="#000000" font-family="sans-serif" font-size="13" lengthAdjust="spacing" textLength="70" x="326.5" y="1138.0898">27,599 gas</text><polygon fill="#181818" points="1897.5,1229.3848,1907.5,1233.3848,1897.5,1237.3848,1901.5,1233.3848" style="stroke:#181818;stroke-width:1.0;"/><line style="stroke:#181818;stroke-width:1.0;" x1="879.5" x2="1903.5" y1="1233.3848" y2="1233.3848"/><text fill="#000000" font-family="sans-serif" font-size="13" lengthAdjust="spacing" textLength="85" x="886.5" y="1167.4004">transferFrom(</text><text fill="#000000" font-family="sans-serif" font-size="13" lengthAdjust="spacing" textLength="115" x="886.5" y="1182.7109">src: 0xF3f5..4eDF,</text><text fill="#000000" font-family="sans-serif" font-size="13" lengthAdjust="spacing" textLength="119" x="886.5" y="1198.0215">dst: 0x88e6..5640,</text><text fill="#000000" font-family="sans-serif" font-size="13" lengthAdjust="spacing" textLength="109" x="886.5" y="1213.332">wad: 55,311,132)</text><text fill="#000000" font-family="sans-serif" font-size="13" lengthAdjust="spacing" textLength="70" x="886.5" y="1228.6426">26,392 gas</text><polygon fill="#181818" points="890.5,1274.0059,880.5,1278.0059,890.5,1282.0059,886.5,1278.0059" style="stroke:#181818;stroke-width:1.0;"/><line style="stroke:#181818;stroke-width:1.0;stroke-dasharray:2.0,2.0;" x1="884.5" x2="1913.5" y1="1278.0059" y2="1278.0059"/><text fill="#000000" font-family="sans-serif" font-size="13" lengthAdjust="spacing" textLength="4" x="896.5" y="1257.9531"> </text><text fill="#000000" font-family="sans-serif" font-size="13" lengthAdjust="spacing" textLength="25" x="896.5" y="1273.2637">true</text><polygon fill="#181818" points="330.5,1288.0059,320.5,1292.0059,330.5,1296.0059,326.5,1292.0059" style="stroke:#181818;stroke-width:1.0;"/><line style="stroke:#181818;stroke-width:1.0;stroke-dasharray:2.0,2.0;" x1="324.5" x2="873.5" y1="1292.0059" y2="1292.0059"/><path d="M879,1305.0059 L879,1345.0059 L962,1345.0059 L962,1315.0059 L952,1305.0059 L879,1305.0059 " fill="#FEFFDD" style="stroke:#181818;stroke-width:0.5;"/><path d="M952,1305.0059 L952,1315.0059 L962,1315.0059 L952,1305.0059 " fill="#FEFFDD" style="stroke:#181818;stroke-width:0.5;"/><text fill="#000000" font-family="sans-serif" font-size="13" lengthAdjust="spacing" textLength="4" x="885" y="1322.5742"> </text><text fill="#000000" font-family="sans-serif" font-size="13" lengthAdjust="spacing" textLength="62" x="885" y="1337.8848">1,207 gas</text><polygon fill="#181818" points="1362,1352.627,1372,1356.627,1362,1360.627,1366,1356.627" style="stroke:#181818;stroke-width:1.0;"/><line style="stroke:#181818;stroke-width:1.0;stroke-dasharray:2.0,2.0;" x1="314.5" x2="1368" y1="1356.627" y2="1356.627"/><path d="M319,1369.627 L319,1409.627 L402,1409.627 L402,1379.627 L392,1369.627 L319,1369.627 " fill="#FEFFDD" style="stroke:#181818;stroke-width:0.5;"/><path d="M392,1369.627 L392,1379.627 L402,1379.627 L392,1369.627 " fill="#FEFFDD" style="stroke:#181818;stroke-width:0.5;"/><text fill="#000000" font-family="sans-serif" font-size="13" lengthAdjust="spacing" textLength="4" x="325" y="1387.1953"> </text><text fill="#000000" font-family="sans-serif" font-size="13" lengthAdjust="spacing" textLength="62" x="325" y="1402.5059">2,521 gas</text><polygon fill="#181818" points="1897.5,1463.1797,1907.5,1467.1797,1897.5,1471.1797,1901.5,1467.1797" style="stroke:#181818;stroke-width:1.0;"/><line style="stroke:#181818;stroke-width:1.0;" x1="1384" x2="1903.5" y1="1467.1797" y2="1467.1797"/><text fill="#000000" font-family="sans-serif" font-size="13" lengthAdjust="spacing" textLength="67" x="1391" y="1431.8164">balanceOf(</text><text fill="#000000" font-family="sans-serif" font-size="13" lengthAdjust="spacing" textLength="91" x="1391" y="1447.127">0x88e6..5640)</text><text fill="#000000" font-family="sans-serif" font-size="13" lengthAdjust="spacing" textLength="62" x="1391" y="1462.4375">1,315 gas</text><polygon fill="#181818" points="1395,1507.8008,1385,1511.8008,1395,1515.8008,1391,1511.8008" style="stroke:#181818;stroke-width:1.0;"/><line style="stroke:#181818;stroke-width:1.0;stroke-dasharray:2.0,2.0;" x1="1389" x2="1913.5" y1="1511.8008" y2="1511.8008"/><text fill="#000000" font-family="sans-serif" font-size="13" lengthAdjust="spacing" textLength="4" x="1401" y="1491.748"> </text><text fill="#000000" font-family="sans-serif" font-size="13" lengthAdjust="spacing" textLength="128" x="1401" y="1507.0586">76,248,304,625,820</text><polygon fill="#181818" points="325.5,1567.7324,315.5,1571.7324,325.5,1575.7324,321.5,1571.7324" style="stroke:#181818;stroke-width:1.0;"/><line style="stroke:#181818;stroke-width:1.0;stroke-dasharray:2.0,2.0;" x1="319.5" x2="1378" y1="1571.7324" y2="1571.7324"/><text fill="#000000" font-family="sans-serif" font-size="13" lengthAdjust="spacing" textLength="4" x="331.5" y="1536.3691"> </text><text fill="#000000" font-family="sans-serif" font-size="13" lengthAdjust="spacing" textLength="140" x="331.5" y="1551.6797">amount0: 55,311,132,</text><text fill="#000000" font-family="sans-serif" font-size="13" lengthAdjust="spacing" textLength="208" x="331.5" y="1566.9902">amount1: -32014634981414073</text><path d="M1384,1584.7324 L1384,1624.7324 L1475,1624.7324 L1475,1594.7324 L1465,1584.7324 L1384,1584.7324 " fill="#FEFFDD" style="stroke:#181818;stroke-width:0.5;"/><path d="M1465,1584.7324 L1465,1594.7324 L1475,1594.7324 L1465,1584.7324 " fill="#FEFFDD" style="stroke:#181818;stroke-width:0.5;"/><text fill="#000000" font-family="sans-serif" font-size="13" lengthAdjust="spacing" textLength="4" x="1390" y="1602.3008"> </text><text fill="#000000" font-family="sans-serif" font-size="13" lengthAdjust="spacing" textLength="70" x="1390" y="1617.6113">37,902 gas</text><polygon fill="#181818" points="1701,1678.2852,1711,1682.2852,1701,1686.2852,1705,1682.2852" style="stroke:#181818;stroke-width:1.0;"/><line style="stroke:#181818;stroke-width:1.0;" x1="314.5" x2="1707" y1="1682.2852" y2="1682.2852"/><text fill="#000000" font-family="sans-serif" font-size="13" lengthAdjust="spacing" textLength="67" x="321.5" y="1646.9219">balanceOf(</text><text fill="#000000" font-family="sans-serif" font-size="13" lengthAdjust="spacing" textLength="92" x="321.5" y="1662.2324">0x3fC9..7FAD)</text><text fill="#000000" font-family="sans-serif" font-size="13" lengthAdjust="spacing" textLength="50" x="321.5" y="1677.543">534 gas</text><polygon fill="#181818" points="325.5,1722.9063,315.5,1726.9063,325.5,1730.9063,321.5,1726.9063" style="stroke:#181818;stroke-width:1.0;"/><line style="stroke:#181818;stroke-width:1.0;stroke-dasharray:2.0,2.0;" x1="319.5" x2="1717" y1="1726.9063" y2="1726.9063"/><text fill="#000000" font-family="sans-serif" font-size="13" lengthAdjust="spacing" textLength="4" x="331.5" y="1706.8535"> </text><text fill="#000000" font-family="sans-serif" font-size="13" lengthAdjust="spacing" textLength="156" x="331.5" y="1722.1641">32,014,634,981,414,073</text><polygon fill="#181818" points="1701,1782.8379,1711,1786.8379,1701,1790.8379,1705,1786.8379" style="stroke:#181818;stroke-width:1.0;"/><line style="stroke:#181818;stroke-width:1.0;" x1="314.5" x2="1707" y1="1786.8379" y2="1786.8379"/><text fill="#000000" font-family="sans-serif" font-size="13" lengthAdjust="spacing" textLength="61" x="321.5" y="1751.4746">withdraw(</text><text fill="#000000" font-family="sans-serif" font-size="13" lengthAdjust="spacing" textLength="193" x="321.5" y="1766.7852">wad: 32,014,634,981,414,073)</text><text fill="#000000" font-family="sans-serif" font-size="13" lengthAdjust="spacing" textLength="62" x="321.5" y="1782.0957">9,220 gas</text><polygon fill="#181818" points="330.5,1842.7695,320.5,1846.7695,330.5,1850.7695,326.5,1846.7695" style="stroke:#181818;stroke-width:1.0;"/><line style="stroke:#181818;stroke-width:1.0;" x1="324.5" x2="1712" y1="1846.7695" y2="1846.7695"/><text fill="#000000" font-family="sans-serif" font-size="13" lengthAdjust="spacing" textLength="58" x="336.5" y="1811.4063">fallback()</text><text fill="#000000" font-family="sans-serif" font-size="13" lengthAdjust="spacing" textLength="42" x="336.5" y="1826.7168">80 gas</text><text fill="#000000" font-family="sans-serif" font-size="13" lengthAdjust="spacing" textLength="65" x="336.5" y="1842.0273">0.032 ETH</text><polygon fill="#181818" points="118.5,1902.7012,108.5,1906.7012,118.5,1910.7012,114.5,1906.7012" style="stroke:#181818;stroke-width:1.0;"/><line style="stroke:#181818;stroke-width:1.0;" x1="112.5" x2="308.5" y1="1906.7012" y2="1906.7012"/><text fill="#000000" font-family="sans-serif" font-size="13" lengthAdjust="spacing" textLength="58" x="124.5" y="1871.3379">fallback()</text><text fill="#000000" font-family="sans-serif" font-size="13" lengthAdjust="spacing" textLength="34" x="124.5" y="1886.6484">0 gas</text><text fill="#000000" font-family="sans-serif" font-size="13" lengthAdjust="spacing" textLength="65" x="124.5" y="1901.959">0.032 ETH</text><polygon fill="#181818" points="297.5,1916.7012,307.5,1920.7012,297.5,1924.7012,301.5,1920.7012" style="stroke:#181818;stroke-width:1.0;"/><line style="stroke:#181818;stroke-width:1.0;stroke-dasharray:2.0,2.0;" x1="102.5" x2="303.5" y1="1920.7012" y2="1920.7012"/><polygon fill="#181818" points="1701,1930.7012,1711,1934.7012,1701,1938.7012,1705,1934.7012" style="stroke:#181818;stroke-width:1.0;"/><line style="stroke:#181818;stroke-width:1.0;stroke-dasharray:2.0,2.0;" x1="314.5" x2="1707" y1="1934.7012" y2="1934.7012"/><polygon fill="#181818" points="325.5,1944.7012,315.5,1948.7012,325.5,1952.7012,321.5,1948.7012" style="stroke:#181818;stroke-width:1.0;"/><line style="stroke:#181818;stroke-width:1.0;stroke-dasharray:2.0,2.0;" x1="319.5" x2="1717" y1="1948.7012" y2="1948.7012"/><path d="M1723,1961.7012 L1723,2001.7012 L1806,2001.7012 L1806,1971.7012 L1796,1961.7012 L1723,1961.7012 " fill="#FEFFDD" style="stroke:#181818;stroke-width:0.5;"/><path d="M1796,1961.7012 L1796,1971.7012 L1806,1971.7012 L1796,1961.7012 " fill="#FEFFDD" style="stroke:#181818;stroke-width:0.5;"/><text fill="#000000" font-family="sans-serif" font-size="13" lengthAdjust="spacing" textLength="4" x="1729" y="1979.2695"> </text><text fill="#000000" font-family="sans-serif" font-size="13" lengthAdjust="spacing" textLength="62" x="1729" y="1994.5801">9,140 gas</text><polygon fill="#181818" points="113.5,2009.3223,103.5,2013.3223,113.5,2017.3223,109.5,2013.3223" style="stroke:#181818;stroke-width:1.0;"/><line style="stroke:#181818;stroke-width:1.0;stroke-dasharray:2.0,2.0;" x1="107.5" x2="308.5" y1="2013.3223" y2="2013.3223"/><path d="M314,2026.3223 L314,2066.3223 L405,2066.3223 L405,2036.3223 L395,2026.3223 L314,2026.3223 " fill="#FEFFDD" style="stroke:#181818;stroke-width:0.5;"/><path d="M395,2026.3223 L395,2036.3223 L405,2036.3223 L395,2026.3223 " fill="#FEFFDD" style="stroke:#181818;stroke-width:0.5;"/><text fill="#000000" font-family="sans-serif" font-size="13" lengthAdjust="spacing" textLength="4" x="320" y="2043.8906"> </text><text fill="#000000" font-family="sans-serif" font-size="13" lengthAdjust="spacing" textLength="70" x="320" y="2059.2012">25,033 gas</text><path d="M600,2076.9434 L600,2193.9434 L1149,2193.9434 L1149,2086.9434 L1139,2076.9434 L600,2076.9434 " fill="#00FFFF" style="stroke:#181818;stroke-width:0.5;"/><path d="M1139,2076.9434 L1139,2086.9434 L1149,2086.9434 L1139,2076.9434 " fill="#00FFFF" style="stroke:#181818;stroke-width:0.5;"/><text fill="#000000" font-family="sans-serif" font-size="13" lengthAdjust="spacing" textLength="44" x="606" y="2094.5117">Permit:</text><text fill="#000000" font-family="sans-serif" font-size="13" lengthAdjust="spacing" textLength="134" x="614" y="2109.8223">owner: 0xF3f5..4eDF,</text><text fill="#000000" font-family="sans-serif" font-size="13" lengthAdjust="spacing" textLength="135" x="614" y="2125.1328">token: 0xA0b8..eB48,</text><text fill="#000000" font-family="sans-serif" font-size="13" lengthAdjust="spacing" textLength="150" x="614" y="2140.4434">spender: 0x3fC9..7FAD,</text><text fill="#000000" font-family="sans-serif" font-size="13" lengthAdjust="spacing" textLength="520" x="614" y="2155.7539">amount: 1,461,501,637,330,902,918,203,684,832,716,,283,019,655,932,542,975,</text><text fill="#000000" font-family="sans-serif" font-size="13" lengthAdjust="spacing" textLength="168" x="614" y="2171.0645">expiration: 1,689,645,888,</text><text fill="#000000" font-family="sans-serif" font-size="13" lengthAdjust="spacing" textLength="42" x="614" y="2186.375">nonce:</text><path d="M1159,2076.9434 L1159,2208.9434 L1599,2208.9434 L1599,2086.9434 L1589,2076.9434 L1159,2076.9434 " fill="#00FFFF" style="stroke:#181818;stroke-width:0.5;"/><path d="M1589,2076.9434 L1589,2086.9434 L1599,2086.9434 L1589,2076.9434 " fill="#00FFFF" style="stroke:#181818;stroke-width:0.5;"/><text fill="#000000" font-family="sans-serif" font-size="13" lengthAdjust="spacing" textLength="36" x="1165" y="2094.5117">Swap:</text><text fill="#000000" font-family="sans-serif" font-size="13" lengthAdjust="spacing" textLength="142" x="1173" y="2109.8223">sender: 0x3fC9..7FAD,</text><text fill="#000000" font-family="sans-serif" font-size="13" lengthAdjust="spacing" textLength="155" x="1173" y="2125.1328">recipient: 0x3fC9..7FAD,</text><text fill="#000000" font-family="sans-serif" font-size="13" lengthAdjust="spacing" textLength="140" x="1173" y="2140.4434">amount0: 55,311,132,</text><text fill="#000000" font-family="sans-serif" font-size="13" lengthAdjust="spacing" textLength="212" x="1173" y="2155.7539">amount1: -32014634981414073,</text><text fill="#000000" font-family="sans-serif" font-size="13" lengthAdjust="spacing" textLength="411" x="1173" y="2171.0645">sqrtPriceX96: 1,906,585,015,981,342,,397,457,809,695,639,287,</text><text fill="#000000" font-family="sans-serif" font-size="13" lengthAdjust="spacing" textLength="252" x="1173" y="2186.375">liquidity: 19,,897,743,039,182,077,478,</text><text fill="#000000" font-family="sans-serif" font-size="13" lengthAdjust="spacing" textLength="84" x="1173" y="2201.6855">tick: 201,779</text><path d="M1609,2076.9434 L1609,2193.9434 L1827,2193.9434 L1827,2086.9434 L1817,2076.9434 L1609,2076.9434 " fill="#00FFFF" style="stroke:#181818;stroke-width:0.5;"/><path d="M1817,2076.9434 L1817,2086.9434 L1827,2086.9434 L1817,2076.9434 " fill="#00FFFF" style="stroke:#181818;stroke-width:0.5;"/><text fill="#000000" font-family="sans-serif" font-size="13" lengthAdjust="spacing" textLength="56" x="1615" y="2094.5117">Transfer:</text><text fill="#000000" font-family="sans-serif" font-size="13" lengthAdjust="spacing" textLength="118" x="1623" y="2109.8223">src: 0x88e6..5640,</text><text fill="#000000" font-family="sans-serif" font-size="13" lengthAdjust="spacing" textLength="120" x="1623" y="2125.1328">dst: 0x3fC9..7FAD,</text><text fill="#000000" font-family="sans-serif" font-size="13" lengthAdjust="spacing" textLength="189" x="1623" y="2140.4434">wad: 32,014,634,981,414,073</text><text fill="#000000" font-family="sans-serif" font-size="13" lengthAdjust="spacing" textLength="73" x="1615" y="2155.7539">Withdrawal:</text><text fill="#000000" font-family="sans-serif" font-size="13" lengthAdjust="spacing" textLength="119" x="1623" y="2171.0645">src: 0x3fC9..7FAD,</text><text fill="#000000" font-family="sans-serif" font-size="13" lengthAdjust="spacing" textLength="189" x="1623" y="2186.375">wad: 32,014,634,981,414,073</text><path d="M1837,2076.9434 L1837,2147.9434 L1992,2147.9434 L1992,2086.9434 L1982,2076.9434 L1837,2076.9434 " fill="#00FFFF" style="stroke:#181818;stroke-width:0.5;"/><path d="M1982,2076.9434 L1982,2086.9434 L1992,2086.9434 L1982,2076.9434 " fill="#00FFFF" style="stroke:#181818;stroke-width:0.5;"/><text fill="#000000" font-family="sans-serif" font-size="13" lengthAdjust="spacing" textLength="56" x="1843" y="2094.5117">Transfer:</text><text fill="#000000" font-family="sans-serif" font-size="13" lengthAdjust="spacing" textLength="126" x="1851" y="2109.8223">from: 0xF3f5..4eDF,</text><text fill="#000000" font-family="sans-serif" font-size="13" lengthAdjust="spacing" textLength="112" x="1851" y="2125.1328">to: 0x88e6..5640,</text><text fill="#000000" font-family="sans-serif" font-size="13" lengthAdjust="spacing" textLength="113" x="1851" y="2140.4434">value: 55,311,132</text><!--SRC=[hLTjRzis4FwkNq5qNrA0rVWgKaPGe4lg3iEw1akw3bZwWPQeL8X2kRASkFlrEr8ljc8xQO7vG-8ZUSTxxfwxezkohImYcqnOKnJIBDJ2P5dACvK8pfNaagfCSrfOKXIKKCro8ugCw2JB2v7QJDcCoaKQHPbPjcNjq9qfdRCjHekgpcuHLP9mgIb6bsk74TNejxL3Z32E29iHCPCfUlV-AZ9PMpVe1TaKl91nB6nUl41cXRpe1HGjJTEMMRaqhlNdU96bSQmAauTpNlG2EZtzwCfxswnCzMUzRctp-lLZLGAVEDOBmuEg5xq0gXUskIjRjg-YjKtYM2Q211KlUg6xRVLWbd_nYxgkzXKpmamS9rd6Wg8NlG2AdngpNDeSlMs_U2TFJqy-lRtwzQN_vh-a-xOCMUWujWkXWoqlUi4xSNcEpkhI1JCWd0KpyzAqL_MjTHTDlVa6zY9NjnRL49qnhj4VjSli30aPlGER5qtf9IfYccgLA8hUFTWoUcysQ6xzXeePswx1yRefssypH6BAktLlvlSImZX3J4ZC4XQMFgvixlK5JhIAhdfx92Q48O0RMPSZxruKZIb_zNfCwmpPZSqWdIVNBgllxepBLw2z8GQIb-5hLxhbkeMbVwuTGYHizPyu7hvXlqUVs6FJFPqpPhWGds4pjoQlIkT3u05W8YLEb7nvxNf8wCQiF8lBUmCn7loEHbu2c85eCxGCF0CizOEpZRzrtjF-V0wNTTkNfRkfR0yfjwqfgm4WGgtFgrTyqv7Y5w5njsFkwhLhlPyYeLWIy9Shp3d1AM4ufHepmi5ZWJLdMD44OwOv9ZJ52O1AOL4AEAXaRz1kbcLZV75tuE4Sv5NhuKBNCUXp45TBI6G7YHTdlaBdRywxdVBc_50GjVQQiEjCksuy9pPK6f8NIG65OqIc2hg0E0C0fPDfc8U8Heq5NJU9zb2ZC-Jh4sBTM2YbqlhOF7BkNzlKyxhvu3rhcxM5fIwAbqlGAKhFN72LKuefX0Uy_TgqeLG2qVzE4oWWp5A9ATDO2S-ctBJcCDKyPqYAAHLJC8F3qTXT0CNGCBnZngqAsm2IVBMFuS4N2JX7AD2H2vn2pnNmdIWE5x8KfmcRtZUOxeDtxJpqoUL3XvcXXQaCPFb30RVlTaCmdM9DvTJoe3TQLWbcG50cKWYYBnSzkMTRvUkXcrx2tpDJLJ2ERa-6T91pM_ceJdBHRT5-wnLd40480E07-83-kLm0hoWZFrI-GohcJNq7pXNmRw-6szelRICrUlh8_GE5xFEbi4pJ8sGV1zOaHO-SMZNPdayzRoPE1TviFV9t9vYdx9cC1gxqLHUcIbFUV6bHNUo42NWElQRhZ0UFRlCEjsB9Q3ZwmmoauFntCf0JO1-3xiN8kDLpwp2j3Z7g4Ofjem4oATzbWo-xrDbMyHJ6je81XkJYcG8zNDv7RdeesozvOnvEdkiDAMQF-J_UFBvN9bLQ38K9sZge0fYOy6wIFrr5mtIVMZbkP7oez0oQ_fjcOWlUeu9SVIVr92QSXxCxBwInoduoNzScwfw6imYXGpCxEZoHesC3CVfVvtJqr92EnWczyyRw6Ms1ZlNM0VMTryDS7V7xs1WT8KqhQLm-M4eXGiCm3NEK0lm4ImqveJ8mbGDAw4WA2wcmXicPmA1DED0MdX2WNvLVrsKUNg4G6wpXf18GA3W1lrU0vA2fGXpWCNqBhr88jLBfaMYCZE-YSTLtrH2HhgNkj4zOt9_5iFX4mKMV-heqrOxDxrS_xFNuMs3VwmFJAR1r7ygzgTPsDtdRo_u3]--></g></svg>
