<?xml version="1.0" encoding="us-ascii" standalone="no"?><svg xmlns:xlink="http://www.w3.org/1999/xlink" xmlns="http://www.w3.org/2000/svg" contentStyleType="text/css" height="2690px" preserveAspectRatio="none" style="width:2187px;height:2690px;background:#FFFFFF;" version="1.1" viewBox="0 0 2187 2690" width="2187px" zoomAndPan="magnify"><defs/><g><text fill="#000000" font-family="sans-serif" font-size="14" font-weight="bold" lengthAdjust="spacing" textLength="546" x="819.75" y="28.5352">0xc4eaff5ab7bacc93c76433753517c831fe0ff10182da4fc086cdf49ec7ec15b9</text><text fill="#000000" font-family="sans-serif" font-size="14" lengthAdjust="spacing" textLength="404" x="890.75" y="2678.2637">mainnet, block 17503581, Sun, 18 Jun 2023 02:04:59 GMT</text><rect fill="#FFFFFF" height="14" style="stroke:#181818;stroke-width:1.0;" width="10" x="97.5" y="2265.0488"/><rect fill="#FFFFFF" height="1982.5703" style="stroke:#181818;stroke-width:1.0;" width="10" x="312.5" y="389.0996"/><rect fill="#FFFFFF" height="474.832" style="stroke:#181818;stroke-width:1.0;" width="10" x="317.5" y="1146.2109"/><rect fill="#FFFFFF" height="87.9316" style="stroke:#181818;stroke-width:1.0;" width="10" x="317.5" y="2205.1172"/><rect fill="#FFFFFF" height="14" style="stroke:#181818;stroke-width:1.0;" width="10" x="885.5" y="586.8262"/><rect fill="#FFFFFF" height="304.3477" style="stroke:#181818;stroke-width:1.0;" width="10" x="885.5" y="1252.0742"/><rect fill="#FFFFFF" height="1223.3906" style="stroke:#181818;stroke-width:1.0;" width="10" x="1390" y="722"/><rect fill="#FFFFFF" height="29.3105" style="stroke:#181818;stroke-width:1.0;" width="10" x="1729" y="797.2422"/><rect fill="#FFFFFF" height="29.3105" style="stroke:#181818;stroke-width:1.0;" width="10" x="1729" y="2055.9434"/><rect fill="#FFFFFF" height="161.8633" style="stroke:#181818;stroke-width:1.0;" width="10" x="1729" y="2145.1855"/><rect fill="#FFFFFF" height="118.5527" style="stroke:#181818;stroke-width:1.0;" width="10" x="1925.5" y="886.4844"/><rect fill="#FFFFFF" height="149.1738" style="stroke:#181818;stroke-width:1.0;" width="10" x="1925.5" y="1342.627"/><rect fill="#FFFFFF" height="118.5527" style="stroke:#181818;stroke-width:1.0;" width="10" x="1925.5" y="1731.5957"/><rect fill="#809ECB" height="29.3105" style="stroke:#181818;stroke-width:1.0;" width="10" x="2111.5" y="946.416"/><rect fill="#809ECB" height="29.3105" style="stroke:#181818;stroke-width:1.0;" width="10" x="2111.5" y="1433.1797"/><rect fill="#809ECB" height="29.3105" style="stroke:#181818;stroke-width:1.0;" width="10" x="2111.5" y="1791.5273"/><line style="stroke:#181818;stroke-width:0.5;stroke-dasharray:5.0,5.0;" x1="102" x2="102" y1="123.4414" y2="2582.7754"/><line style="stroke:#181818;stroke-width:0.5;stroke-dasharray:5.0,5.0;" x1="317" x2="317" y1="123.4414" y2="2582.7754"/><line style="stroke:#181818;stroke-width:0.5;stroke-dasharray:5.0,5.0;" x1="890" x2="890" y1="123.4414" y2="2582.7754"/><line style="stroke:#181818;stroke-width:0.5;stroke-dasharray:5.0,5.0;" x1="1395" x2="1395" y1="123.4414" y2="2582.7754"/><line style="stroke:#181818;stroke-width:0.5;stroke-dasharray:5.0,5.0;" x1="1733.5" x2="1733.5" y1="123.4414" y2="2582.7754"/><line style="stroke:#181818;stroke-width:0.5;stroke-dasharray:5.0,5.0;" x1="1930" x2="1930" y1="123.4414" y2="2582.7754"/><line style="stroke:#181818;stroke-width:0.5;stroke-dasharray:5.0,5.0;" x1="2116.5" x2="2116.5" y1="123.4414" y2="2582.7754"/><text fill="#000000" font-family="sans-serif" font-size="14" lengthAdjust="spacing" textLength="85" x="57" y="120.4883">0xf3f5..4edf</text><ellipse cx="102.5" cy="55.4531" fill="#E2E2F0" rx="8" ry="8" style="stroke:#181818;stroke-width:0.5;"/><path d="M102.5,63.4531 L102.5,90.4531 M89.5,71.4531 L115.5,71.4531 M102.5,90.4531 L89.5,105.4531 M102.5,90.4531 L115.5,105.4531 " fill="none" style="stroke:#181818;stroke-width:0.5;"/><text fill="#000000" font-family="sans-serif" font-size="14" lengthAdjust="spacing" textLength="85" x="57" y="2595.3105">0xf3f5..4edf</text><ellipse cx="102.5" cy="2606.7637" fill="#E2E2F0" rx="8" ry="8" style="stroke:#181818;stroke-width:0.5;"/><path d="M102.5,2614.7637 L102.5,2641.7637 M89.5,2622.7637 L115.5,2622.7637 M102.5,2641.7637 L89.5,2656.7637 M102.5,2641.7637 L115.5,2656.7637 " fill="none" style="stroke:#181818;stroke-width:0.5;"/><rect fill="#E2E2F0" height="46.9766" rx="2.5" ry="2.5" style="stroke:#181818;stroke-width:0.5;" width="137" x="249" y="75.4648"/><text fill="#000000" font-family="sans-serif" font-size="14" font-style="italic" lengthAdjust="spacing" textLength="123" x="256" y="96">&#171;UniversalRouter&#187;</text><text fill="#000000" font-family="sans-serif" font-size="14" lengthAdjust="spacing" textLength="87" x="274" y="112.4883">0x3fc9..7fad</text><rect fill="#E2E2F0" height="46.9766" rx="2.5" ry="2.5" style="stroke:#181818;stroke-width:0.5;" width="137" x="249" y="2581.7754"/><text fill="#000000" font-family="sans-serif" font-size="14" font-style="italic" lengthAdjust="spacing" textLength="123" x="256" y="2602.3105">&#171;UniversalRouter&#187;</text><text fill="#000000" font-family="sans-serif" font-size="14" lengthAdjust="spacing" textLength="87" x="274" y="2618.7988">0x3fc9..7fad</text><rect fill="#E2E2F0" height="46.9766" rx="2.5" ry="2.5" style="stroke:#181818;stroke-width:0.5;" width="111" x="835" y="75.4648"/><text fill="#000000" font-family="sans-serif" font-size="14" font-style="italic" lengthAdjust="spacing" textLength="67" x="857" y="96">&#171;Permit2&#187;</text><text fill="#000000" font-family="sans-serif" font-size="14" lengthAdjust="spacing" textLength="97" x="842" y="112.4883">0x0000..8ba3</text><rect fill="#E2E2F0" height="46.9766" rx="2.5" ry="2.5" style="stroke:#181818;stroke-width:0.5;" width="111" x="835" y="2581.7754"/><text fill="#000000" font-family="sans-serif" font-size="14" font-style="italic" lengthAdjust="spacing" textLength="67" x="857" y="2602.3105">&#171;Permit2&#187;</text><text fill="#000000" font-family="sans-serif" font-size="14" lengthAdjust="spacing" textLength="97" x="842" y="2618.7988">0x0000..8ba3</text><rect fill="#E2E2F0" height="46.9766" rx="2.5" ry="2.5" style="stroke:#181818;stroke-width:0.5;" width="134" x="1328" y="75.4648"/><text fill="#000000" font-family="sans-serif" font-size="14" font-style="italic" lengthAdjust="spacing" textLength="120" x="1335" y="96">&#171;UniswapV3Pool&#187;</text><text fill="#000000" font-family="sans-serif" font-size="14" lengthAdjust="spacing" textLength="97" x="1346.5" y="112.4883">0x88e6..5640</text><rect fill="#E2E2F0" height="46.9766" rx="2.5" ry="2.5" style="stroke:#181818;stroke-width:0.5;" width="134" x="1328" y="2581.7754"/><text fill="#000000" font-family="sans-serif" font-size="14" font-style="italic" lengthAdjust="spacing" textLength="120" x="1335" y="2602.3105">&#171;UniswapV3Pool&#187;</text><text fill="#000000" font-family="sans-serif" font-size="14" lengthAdjust="spacing" textLength="97" x="1346.5" y="2618.7988">0x88e6..5640</text><rect fill="#E2E2F0" height="79.9531" rx="2.5" ry="2.5" style="stroke:#181818;stroke-width:0.5;" width="129" x="1669.5" y="42.4883"/><text fill="#000000" font-family="sans-serif" font-size="14" font-style="italic" lengthAdjust="spacing" textLength="115" x="1676.5" y="63.0234">&#171;Wrapped Ether&#187;</text><text fill="#000000" font-family="sans-serif" font-size="14" font-style="italic" lengthAdjust="spacing" textLength="63" x="1702.5" y="79.5117">&#171;(WETH)&#187;</text><text fill="#000000" font-family="sans-serif" font-size="14" font-style="italic" lengthAdjust="spacing" textLength="62" x="1703" y="96">&#171;WETH9&#187;</text><text fill="#000000" font-family="sans-serif" font-size="14" lengthAdjust="spacing" textLength="91" x="1688.5" y="112.4883">0xc02a..6cc2</text><rect fill="#E2E2F0" height="79.9531" rx="2.5" ry="2.5" style="stroke:#181818;stroke-width:0.5;" width="129" x="1669.5" y="2581.7754"/><text fill="#000000" font-family="sans-serif" font-size="14" font-style="italic" lengthAdjust="spacing" textLength="115" x="1676.5" y="2602.3105">&#171;Wrapped Ether&#187;</text><text fill="#000000" font-family="sans-serif" font-size="14" font-style="italic" lengthAdjust="spacing" textLength="63" x="1702.5" y="2618.7988">&#171;(WETH)&#187;</text><text fill="#000000" font-family="sans-serif" font-size="14" font-style="italic" lengthAdjust="spacing" textLength="62" x="1703" y="2635.2871">&#171;WETH9&#187;</text><text fill="#000000" font-family="sans-serif" font-size="14" lengthAdjust="spacing" textLength="91" x="1688.5" y="2651.7754">0xc02a..6cc2</text><rect fill="#E2E2F0" height="79.9531" rx="2.5" ry="2.5" style="stroke:#181818;stroke-width:0.5;" width="135" x="1863" y="42.4883"/><text fill="#000000" font-family="sans-serif" font-size="14" font-style="italic" lengthAdjust="spacing" textLength="78" x="1891.5" y="63.0234">&#171;USD Coin&#187;</text><text fill="#000000" font-family="sans-serif" font-size="14" font-style="italic" lengthAdjust="spacing" textLength="62" x="1899.5" y="79.5117">&#171;(USDC)&#187;</text><text fill="#000000" font-family="sans-serif" font-size="14" font-style="italic" lengthAdjust="spacing" textLength="121" x="1870" y="96">&#171;FiatTokenProxy&#187;</text><text fill="#000000" font-family="sans-serif" font-size="14" lengthAdjust="spacing" textLength="96" x="1882.5" y="112.4883">0xa0b8..eb48</text><rect fill="#E2E2F0" height="79.9531" rx="2.5" ry="2.5" style="stroke:#181818;stroke-width:0.5;" width="135" x="1863" y="2581.7754"/><text fill="#000000" font-family="sans-serif" font-size="14" font-style="italic" lengthAdjust="spacing" textLength="78" x="1891.5" y="2602.3105">&#171;USD Coin&#187;</text><text fill="#000000" font-family="sans-serif" font-size="14" font-style="italic" lengthAdjust="spacing" textLength="62" x="1899.5" y="2618.7988">&#171;(USDC)&#187;</text><text fill="#000000" font-family="sans-serif" font-size="14" font-style="italic" lengthAdjust="spacing" textLength="121" x="1870" y="2635.2871">&#171;FiatTokenProxy&#187;</text><text fill="#000000" font-family="sans-serif" font-size="14" lengthAdjust="spacing" textLength="96" x="1882.5" y="2651.7754">0xa0b8..eb48</text><rect fill="#E2E2F0" height="46.9766" rx="2.5" ry="2.5" style="stroke:#181818;stroke-width:0.5;" width="130" x="2051.5" y="75.4648"/><text fill="#000000" font-family="sans-serif" font-size="14" font-style="italic" lengthAdjust="spacing" textLength="116" x="2058.5" y="96">&#171;FiatTokenV2_1&#187;</text><text fill="#000000" font-family="sans-serif" font-size="14" lengthAdjust="spacing" textLength="91" x="2071" y="112.4883">0xa232..bdcf</text><rect fill="#E2E2F0" height="46.9766" rx="2.5" ry="2.5" style="stroke:#181818;stroke-width:0.5;" width="130" x="2051.5" y="2581.7754"/><text fill="#000000" font-family="sans-serif" font-size="14" font-style="italic" lengthAdjust="spacing" textLength="116" x="2058.5" y="2602.3105">&#171;FiatTokenV2_1&#187;</text><text fill="#000000" font-family="sans-serif" font-size="14" lengthAdjust="spacing" textLength="91" x="2071" y="2618.7988">0xa232..bdcf</text><rect fill="#FFFFFF" height="14" style="stroke:#181818;stroke-width:1.0;" width="10" x="97.5" y="2265.0488"/><rect fill="#FFFFFF" height="1982.5703" style="stroke:#181818;stroke-width:1.0;" width="10" x="312.5" y="389.0996"/><rect fill="#FFFFFF" height="474.832" style="stroke:#181818;stroke-width:1.0;" width="10" x="317.5" y="1146.2109"/><rect fill="#FFFFFF" height="87.9316" style="stroke:#181818;stroke-width:1.0;" width="10" x="317.5" y="2205.1172"/><rect fill="#FFFFFF" height="14" style="stroke:#181818;stroke-width:1.0;" width="10" x="885.5" y="586.8262"/><rect fill="#FFFFFF" height="304.3477" style="stroke:#181818;stroke-width:1.0;" width="10" x="885.5" y="1252.0742"/><rect fill="#FFFFFF" height="1223.3906" style="stroke:#181818;stroke-width:1.0;" width="10" x="1390" y="722"/><rect fill="#FFFFFF" height="29.3105" style="stroke:#181818;stroke-width:1.0;" width="10" x="1729" y="797.2422"/><rect fill="#FFFFFF" height="29.3105" style="stroke:#181818;stroke-width:1.0;" width="10" x="1729" y="2055.9434"/><rect fill="#FFFFFF" height="161.8633" style="stroke:#181818;stroke-width:1.0;" width="10" x="1729" y="2145.1855"/><rect fill="#FFFFFF" height="118.5527" style="stroke:#181818;stroke-width:1.0;" width="10" x="1925.5" y="886.4844"/><rect fill="#FFFFFF" height="149.1738" style="stroke:#181818;stroke-width:1.0;" width="10" x="1925.5" y="1342.627"/><rect fill="#FFFFFF" height="118.5527" style="stroke:#181818;stroke-width:1.0;" width="10" x="1925.5" y="1731.5957"/><rect fill="#809ECB" height="29.3105" style="stroke:#181818;stroke-width:1.0;" width="10" x="2111.5" y="946.416"/><rect fill="#809ECB" height="29.3105" style="stroke:#181818;stroke-width:1.0;" width="10" x="2111.5" y="1433.1797"/><rect fill="#809ECB" height="29.3105" style="stroke:#181818;stroke-width:1.0;" width="10" x="2111.5" y="1791.5273"/><path d="M5,138.4414 L5,255.4414 L201,255.4414 L201,148.4414 L191,138.4414 L5,138.4414 " fill="#FEFFDD" style="stroke:#181818;stroke-width:0.5;"/><path d="M191,138.4414 L191,148.4414 L201,148.4414 L191,138.4414 " fill="#FEFFDD" style="stroke:#181818;stroke-width:0.5;"/><text fill="#000000" font-family="sans-serif" font-size="13" lengthAdjust="spacing" textLength="64" x="11" y="156.0098">Nonce: 45</text><text fill="#000000" font-family="sans-serif" font-size="13" lengthAdjust="spacing" textLength="175" x="11" y="171.3203">Gas Price: 14.1987671 Gwei</text><text fill="#000000" font-family="sans-serif" font-size="13" lengthAdjust="spacing" textLength="129" x="11" y="186.6309">Max Fee: 17.22 Gwei</text><text fill="#000000" font-family="sans-serif" font-size="13" lengthAdjust="spacing" textLength="145" x="11" y="201.9414">Max Priority: 0.13 Gwei</text><text fill="#000000" font-family="sans-serif" font-size="13" lengthAdjust="spacing" textLength="119" x="11" y="217.252">Gas Limit: 245,262</text><text fill="#000000" font-family="sans-serif" font-size="13" lengthAdjust="spacing" textLength="118" x="11" y="232.5625">Gas Used: 174,687</text><text fill="#000000" font-family="sans-serif" font-size="13" lengthAdjust="spacing" textLength="114" x="11" y="247.873">Tx Fee: 0.002 ETH</text><polygon fill="#181818" points="300.5,385.0996,310.5,389.0996,300.5,393.0996,304.5,389.0996" style="stroke:#181818;stroke-width:1.0;"/><line style="stroke:#181818;stroke-width:1.0;" x1="102.5" x2="306.5" y1="389.0996" y2="389.0996"/><text fill="#000000" font-family="sans-serif" font-size="13" lengthAdjust="spacing" textLength="53" x="109.5" y="277.1836">execute(</text><text fill="#000000" font-family="sans-serif" font-size="13" lengthAdjust="spacing" textLength="143" x="117.5" y="292.4941">commands: 0x0a000c,</text><text fill="#000000" font-family="sans-serif" font-size="13" lengthAdjust="spacing" textLength="52" x="117.5" y="307.8047">inputs: [</text><text fill="#000000" font-family="sans-serif" font-size="13" lengthAdjust="spacing" textLength="172" x="125.5" y="323.1152">0: 0x00000000..00000000,</text><text fill="#000000" font-family="sans-serif" font-size="13" lengthAdjust="spacing" textLength="172" x="125.5" y="338.4258">1: 0x00000000..00000000,</text><text fill="#000000" font-family="sans-serif" font-size="13" lengthAdjust="spacing" textLength="175" x="125.5" y="353.7363">2: 0x00000000..8d22a344],</text><text fill="#000000" font-family="sans-serif" font-size="13" lengthAdjust="spacing" textLength="157" x="117.5" y="369.0469">deadline: 1,687,055,675)</text><text fill="#000000" font-family="sans-serif" font-size="13" lengthAdjust="spacing" textLength="78" x="109.5" y="384.3574">174,687 gas</text><polygon fill="#181818" points="873.5,582.8262,883.5,586.8262,873.5,590.8262,877.5,586.8262" style="stroke:#181818;stroke-width:1.0;"/><line style="stroke:#181818;stroke-width:1.0;" x1="322.5" x2="879.5" y1="586.8262" y2="586.8262"/><text fill="#000000" font-family="sans-serif" font-size="13" lengthAdjust="spacing" textLength="45" x="329.5" y="413.668">permit(</text><text fill="#000000" font-family="sans-serif" font-size="13" lengthAdjust="spacing" textLength="134" x="337.5" y="428.9785">owner: 0xF3f5..4eDF,</text><text fill="#000000" font-family="sans-serif" font-size="13" lengthAdjust="spacing" textLength="91" x="337.5" y="444.2891">permitSingle: [</text><text fill="#000000" font-family="sans-serif" font-size="13" lengthAdjust="spacing" textLength="54" x="345.5" y="459.5996">details: [</text><text fill="#000000" font-family="sans-serif" font-size="13" lengthAdjust="spacing" textLength="135" x="353.5" y="474.9102">token: 0xA0b8..eB48,</text><text fill="#000000" font-family="sans-serif" font-size="13" lengthAdjust="spacing" textLength="520" x="353.5" y="490.2207">amount: 1,461,501,637,330,902,918,203,684,832,716,,283,019,655,932,542,975,</text><text fill="#000000" font-family="sans-serif" font-size="13" lengthAdjust="spacing" textLength="168" x="353.5" y="505.5313">expiration: 1,689,645,888,</text><text fill="#000000" font-family="sans-serif" font-size="13" lengthAdjust="spacing" textLength="54" x="353.5" y="520.8418">nonce: ],</text><text fill="#000000" font-family="sans-serif" font-size="13" lengthAdjust="spacing" textLength="150" x="345.5" y="536.1523">spender: 0x3fC9..7FAD,</text><text fill="#000000" font-family="sans-serif" font-size="13" lengthAdjust="spacing" textLength="182" x="345.5" y="551.4629">sigDeadline: 1,687,055,688],</text><text fill="#000000" font-family="sans-serif" font-size="13" lengthAdjust="spacing" textLength="211" x="337.5" y="566.7734">signature: 0x15a0df6f..6a4c7f1b)</text><text fill="#000000" font-family="sans-serif" font-size="13" lengthAdjust="spacing" textLength="70" x="329.5" y="582.084">30,786 gas</text><polygon fill="#181818" points="333.5,596.8262,323.5,600.8262,333.5,604.8262,329.5,600.8262" style="stroke:#181818;stroke-width:1.0;"/><line style="stroke:#181818;stroke-width:1.0;stroke-dasharray:2.0,2.0;" x1="327.5" x2="889.5" y1="600.8262" y2="600.8262"/><polygon fill="#181818" points="1378,718,1388,722,1378,726,1382,722" style="stroke:#181818;stroke-width:1.0;"/><line style="stroke:#181818;stroke-width:1.0;stroke-dasharray:2.0,2.0;" x1="322.5" x2="1384" y1="722" y2="722"/><text fill="#000000" font-family="sans-serif" font-size="13" lengthAdjust="spacing" textLength="36" x="329.5" y="625.3945">swap(</text><text fill="#000000" font-family="sans-serif" font-size="13" lengthAdjust="spacing" textLength="155" x="337.5" y="640.7051">recipient: 0x3fC9..7FAD,</text><text fill="#000000" font-family="sans-serif" font-size="13" lengthAdjust="spacing" textLength="109" x="337.5" y="656.0156">zeroForOne: true,</text><text fill="#000000" font-family="sans-serif" font-size="13" lengthAdjust="spacing" textLength="189" x="337.5" y="671.3262">amountSpecified: 55,311,132,</text><text fill="#000000" font-family="sans-serif" font-size="13" lengthAdjust="spacing" textLength="215" x="337.5" y="686.6367">sqrtPriceLimitX96: 4,295,128,740,</text><text fill="#000000" font-family="sans-serif" font-size="13" lengthAdjust="spacing" textLength="191" x="337.5" y="701.9473">data: 0x00000000..00000000)</text><text fill="#000000" font-family="sans-serif" font-size="13" lengthAdjust="spacing" textLength="78" x="329.5" y="717.2578">109,114 gas</text><polygon fill="#181818" points="1717,793.2422,1727,797.2422,1717,801.2422,1721,797.2422" style="stroke:#181818;stroke-width:1.0;"/><line style="stroke:#181818;stroke-width:1.0;" x1="1400" x2="1723" y1="797.2422" y2="797.2422"/><text fill="#000000" font-family="sans-serif" font-size="13" lengthAdjust="spacing" textLength="53" x="1407" y="746.5684">transfer(</text><text fill="#000000" font-family="sans-serif" font-size="13" lengthAdjust="spacing" textLength="120" x="1415" y="761.8789">dst: 0x3fC9..7FAD,</text><text fill="#000000" font-family="sans-serif" font-size="13" lengthAdjust="spacing" textLength="193" x="1415" y="777.1895">wad: 32,014,634,981,414,073)</text><text fill="#000000" font-family="sans-serif" font-size="13" lengthAdjust="spacing" textLength="70" x="1407" y="792.5">29,962 gas</text><polygon fill="#181818" points="1411,822.5527,1401,826.5527,1411,830.5527,1407,826.5527" style="stroke:#181818;stroke-width:1.0;"/><line style="stroke:#181818;stroke-width:1.0;stroke-dasharray:2.0,2.0;" x1="1405" x2="1733" y1="826.5527" y2="826.5527"/><text fill="#000000" font-family="sans-serif" font-size="13" lengthAdjust="spacing" textLength="25" x="1417" y="821.8105">true</text><polygon fill="#181818" points="1913.5,882.4844,1923.5,886.4844,1913.5,890.4844,1917.5,886.4844" style="stroke:#181818;stroke-width:1.0;"/><line style="stroke:#181818;stroke-width:1.0;stroke-dasharray:2.0,2.0;" x1="1400" x2="1919.5" y1="886.4844" y2="886.4844"/><text fill="#000000" font-family="sans-serif" font-size="13" lengthAdjust="spacing" textLength="67" x="1407" y="851.1211">balanceOf(</text><text fill="#000000" font-family="sans-serif" font-size="13" lengthAdjust="spacing" textLength="91" x="1415" y="866.4316">0x88e6..5640)</text><text fill="#000000" font-family="sans-serif" font-size="13" lengthAdjust="spacing" textLength="62" x="1407" y="881.7422">9,815 gas</text><line style="stroke:#181818;stroke-width:1.0;" x1="2109.5" x2="2099.5" y1="946.416" y2="942.416"/><line style="stroke:#181818;stroke-width:1.0;" x1="2109.5" x2="2099.5" y1="946.416" y2="950.416"/><line style="stroke:#181818;stroke-width:1.0;" x1="1935.5" x2="2110.5" y1="946.416" y2="946.416"/><text fill="#000000" font-family="sans-serif" font-size="13" lengthAdjust="spacing" textLength="67" x="1942.5" y="911.0527">balanceOf(</text><text fill="#000000" font-family="sans-serif" font-size="13" lengthAdjust="spacing" textLength="149" x="1950.5" y="926.3633">account: 0x88e6..5640)</text><text fill="#000000" font-family="sans-serif" font-size="13" lengthAdjust="spacing" textLength="62" x="1942.5" y="941.6738">2,529 gas</text><line style="stroke:#181818;stroke-width:1.0;" x1="1936.5" x2="1946.5" y1="975.7266" y2="971.7266"/><line style="stroke:#181818;stroke-width:1.0;" x1="1936.5" x2="1946.5" y1="975.7266" y2="979.7266"/><line style="stroke:#181818;stroke-width:1.0;stroke-dasharray:2.0,2.0;" x1="1935.5" x2="2115.5" y1="975.7266" y2="975.7266"/><text fill="#000000" font-family="sans-serif" font-size="13" lengthAdjust="spacing" textLength="128" x="1952.5" y="970.9844">76,248,249,314,688</text><polygon fill="#181818" points="1411,1001.0371,1401,1005.0371,1411,1009.0371,1407,1005.0371" style="stroke:#181818;stroke-width:1.0;"/><line style="stroke:#181818;stroke-width:1.0;stroke-dasharray:2.0,2.0;" x1="1405" x2="1929.5" y1="1005.0371" y2="1005.0371"/><text fill="#000000" font-family="sans-serif" font-size="13" lengthAdjust="spacing" textLength="128" x="1417" y="1000.2949">76,248,249,314,688</text><path d="M1935,1018.0371 L1935,1058.0371 L2018,1058.0371 L2018,1028.0371 L2008,1018.0371 L1935,1018.0371 " fill="#FEFFDD" style="stroke:#181818;stroke-width:0.5;"/><path d="M2008,1018.0371 L2008,1028.0371 L2018,1028.0371 L2008,1018.0371 " fill="#FEFFDD" style="stroke:#181818;stroke-width:0.5;"/><text fill="#000000" font-family="sans-serif" font-size="13" lengthAdjust="spacing" textLength="4" x="1941" y="1035.6055">&#160;</text><text fill="#000000" font-family="sans-serif" font-size="13" lengthAdjust="spacing" textLength="62" x="1941" y="1050.916">7,286 gas</text><polygon fill="#181818" points="338.5,1142.2109,328.5,1146.2109,338.5,1150.2109,334.5,1146.2109" style="stroke:#181818;stroke-width:1.0;"/><line style="stroke:#181818;stroke-width:1.0;" x1="332.5" x2="1389" y1="1146.2109" y2="1146.2109"/><text fill="#000000" font-family="sans-serif" font-size="13" lengthAdjust="spacing" textLength="158" x="344.5" y="1080.2266">uniswapV3SwapCallback(</text><text fill="#000000" font-family="sans-serif" font-size="13" lengthAdjust="spacing" textLength="173" x="352.5" y="1095.5371">amount0Delta: 55,311,132,</text><text fill="#000000" font-family="sans-serif" font-size="13" lengthAdjust="spacing" textLength="245" x="352.5" y="1110.8477">amount1Delta: -32014634981414073,</text><text fill="#000000" font-family="sans-serif" font-size="13" lengthAdjust="spacing" textLength="191" x="352.5" y="1126.1582">data: 0x00000000..00000000)</text><text fill="#000000" font-family="sans-serif" font-size="13" lengthAdjust="spacing" textLength="70" x="344.5" y="1141.4688">30,120 gas</text><polygon fill="#181818" points="873.5,1248.0742,883.5,1252.0742,873.5,1256.0742,877.5,1252.0742" style="stroke:#181818;stroke-width:1.0;"/><line style="stroke:#181818;stroke-width:1.0;" x1="327.5" x2="879.5" y1="1252.0742" y2="1252.0742"/><text fill="#000000" font-family="sans-serif" font-size="13" lengthAdjust="spacing" textLength="85" x="334.5" y="1170.7793">transferFrom(</text><text fill="#000000" font-family="sans-serif" font-size="13" lengthAdjust="spacing" textLength="126" x="342.5" y="1186.0898">from: 0xF3f5..4eDF,</text><text fill="#000000" font-family="sans-serif" font-size="13" lengthAdjust="spacing" textLength="112" x="342.5" y="1201.4004">to: 0x88e6..5640,</text><text fill="#000000" font-family="sans-serif" font-size="13" lengthAdjust="spacing" textLength="132" x="342.5" y="1216.7109">amount: 55,311,132,</text><text fill="#000000" font-family="sans-serif" font-size="13" lengthAdjust="spacing" textLength="135" x="342.5" y="1232.0215">token: 0xA0b8..eB48)</text><text fill="#000000" font-family="sans-serif" font-size="13" lengthAdjust="spacing" textLength="70" x="334.5" y="1247.332">27,599 gas</text><polygon fill="#181818" points="1913.5,1338.627,1923.5,1342.627,1913.5,1346.627,1917.5,1342.627" style="stroke:#181818;stroke-width:1.0;"/><line style="stroke:#181818;stroke-width:1.0;stroke-dasharray:2.0,2.0;" x1="895.5" x2="1919.5" y1="1342.627" y2="1342.627"/><text fill="#000000" font-family="sans-serif" font-size="13" lengthAdjust="spacing" textLength="85" x="902.5" y="1276.6426">transferFrom(</text><text fill="#000000" font-family="sans-serif" font-size="13" lengthAdjust="spacing" textLength="115" x="910.5" y="1291.9531">src: 0xF3f5..4eDF,</text><text fill="#000000" font-family="sans-serif" font-size="13" lengthAdjust="spacing" textLength="119" x="910.5" y="1307.2637">dst: 0x88e6..5640,</text><text fill="#000000" font-family="sans-serif" font-size="13" lengthAdjust="spacing" textLength="109" x="910.5" y="1322.5742">wad: 55,311,132)</text><text fill="#000000" font-family="sans-serif" font-size="13" lengthAdjust="spacing" textLength="70" x="902.5" y="1337.8848">26,392 gas</text><line style="stroke:#181818;stroke-width:1.0;" x1="2109.5" x2="2099.5" y1="1433.1797" y2="1429.1797"/><line style="stroke:#181818;stroke-width:1.0;" x1="2109.5" x2="2099.5" y1="1433.1797" y2="1437.1797"/><line style="stroke:#181818;stroke-width:1.0;" x1="1935.5" x2="2110.5" y1="1433.1797" y2="1433.1797"/><text fill="#000000" font-family="sans-serif" font-size="13" lengthAdjust="spacing" textLength="85" x="1942.5" y="1367.1953">transferFrom(</text><text fill="#000000" font-family="sans-serif" font-size="13" lengthAdjust="spacing" textLength="126" x="1950.5" y="1382.5059">from: 0xF3f5..4eDF,</text><text fill="#000000" font-family="sans-serif" font-size="13" lengthAdjust="spacing" textLength="112" x="1950.5" y="1397.8164">to: 0x88e6..5640,</text><text fill="#000000" font-family="sans-serif" font-size="13" lengthAdjust="spacing" textLength="117" x="1950.5" y="1413.127">value: 55,311,132)</text><text fill="#000000" font-family="sans-serif" font-size="13" lengthAdjust="spacing" textLength="70" x="1942.5" y="1428.4375">25,597 gas</text><line style="stroke:#181818;stroke-width:1.0;" x1="1936.5" x2="1946.5" y1="1462.4902" y2="1458.4902"/><line style="stroke:#181818;stroke-width:1.0;" x1="1936.5" x2="1946.5" y1="1462.4902" y2="1466.4902"/><line style="stroke:#181818;stroke-width:1.0;stroke-dasharray:2.0,2.0;" x1="1935.5" x2="2115.5" y1="1462.4902" y2="1462.4902"/><text fill="#000000" font-family="sans-serif" font-size="13" lengthAdjust="spacing" textLength="25" x="1952.5" y="1457.748">true</text><polygon fill="#181818" points="906.5,1487.8008,896.5,1491.8008,906.5,1495.8008,902.5,1491.8008" style="stroke:#181818;stroke-width:1.0;"/><line style="stroke:#181818;stroke-width:1.0;stroke-dasharray:2.0,2.0;" x1="900.5" x2="1929.5" y1="1491.8008" y2="1491.8008"/><text fill="#000000" font-family="sans-serif" font-size="13" lengthAdjust="spacing" textLength="25" x="912.5" y="1487.0586">true</text><path d="M1935,1504.8008 L1935,1544.8008 L2006,1544.8008 L2006,1514.8008 L1996,1504.8008 L1935,1504.8008 " fill="#FEFFDD" style="stroke:#181818;stroke-width:0.5;"/><path d="M1996,1504.8008 L1996,1514.8008 L2006,1514.8008 L1996,1504.8008 " fill="#FEFFDD" style="stroke:#181818;stroke-width:0.5;"/><text fill="#000000" font-family="sans-serif" font-size="13" lengthAdjust="spacing" textLength="4" x="1941" y="1522.3691">&#160;</text><text fill="#000000" font-family="sans-serif" font-size="13" lengthAdjust="spacing" textLength="50" x="1941" y="1537.6797">795 gas</text><polygon fill="#181818" points="338.5,1552.4219,328.5,1556.4219,338.5,1560.4219,334.5,1556.4219" style="stroke:#181818;stroke-width:1.0;"/><line style="stroke:#181818;stroke-width:1.0;stroke-dasharray:2.0,2.0;" x1="332.5" x2="889.5" y1="1556.4219" y2="1556.4219"/><path d="M895,1569.4219 L895,1609.4219 L978,1609.4219 L978,1579.4219 L968,1569.4219 L895,1569.4219 " fill="#FEFFDD" style="stroke:#181818;stroke-width:0.5;"/><path d="M968,1569.4219 L968,1579.4219 L978,1579.4219 L968,1569.4219 " fill="#FEFFDD" style="stroke:#181818;stroke-width:0.5;"/><text fill="#000000" font-family="sans-serif" font-size="13" lengthAdjust="spacing" textLength="4" x="901" y="1586.9902">&#160;</text><text fill="#000000" font-family="sans-serif" font-size="13" lengthAdjust="spacing" textLength="62" x="901" y="1602.3008">1,207 gas</text><polygon fill="#181818" points="1378,1617.043,1388,1621.043,1378,1625.043,1382,1621.043" style="stroke:#181818;stroke-width:1.0;"/><line style="stroke:#181818;stroke-width:1.0;stroke-dasharray:2.0,2.0;" x1="322.5" x2="1384" y1="1621.043" y2="1621.043"/><path d="M327,1634.043 L327,1674.043 L410,1674.043 L410,1644.043 L400,1634.043 L327,1634.043 " fill="#FEFFDD" style="stroke:#181818;stroke-width:0.5;"/><path d="M400,1634.043 L400,1644.043 L410,1644.043 L400,1634.043 " fill="#FEFFDD" style="stroke:#181818;stroke-width:0.5;"/><text fill="#000000" font-family="sans-serif" font-size="13" lengthAdjust="spacing" textLength="4" x="333" y="1651.6113">&#160;</text><text fill="#000000" font-family="sans-serif" font-size="13" lengthAdjust="spacing" textLength="62" x="333" y="1666.9219">2,521 gas</text><polygon fill="#181818" points="1913.5,1727.5957,1923.5,1731.5957,1913.5,1735.5957,1917.5,1731.5957" style="stroke:#181818;stroke-width:1.0;"/><line style="stroke:#181818;stroke-width:1.0;stroke-dasharray:2.0,2.0;" x1="1400" x2="1919.5" y1="1731.5957" y2="1731.5957"/><text fill="#000000" font-family="sans-serif" font-size="13" lengthAdjust="spacing" textLength="67" x="1407" y="1696.2324">balanceOf(</text><text fill="#000000" font-family="sans-serif" font-size="13" lengthAdjust="spacing" textLength="91" x="1415" y="1711.543">0x88e6..5640)</text><text fill="#000000" font-family="sans-serif" font-size="13" lengthAdjust="spacing" textLength="62" x="1407" y="1726.8535">1,315 gas</text><line style="stroke:#181818;stroke-width:1.0;" x1="2109.5" x2="2099.5" y1="1791.5273" y2="1787.5273"/><line style="stroke:#181818;stroke-width:1.0;" x1="2109.5" x2="2099.5" y1="1791.5273" y2="1795.5273"/><line style="stroke:#181818;stroke-width:1.0;" x1="1935.5" x2="2110.5" y1="1791.5273" y2="1791.5273"/><text fill="#000000" font-family="sans-serif" font-size="13" lengthAdjust="spacing" textLength="67" x="1942.5" y="1756.1641">balanceOf(</text><text fill="#000000" font-family="sans-serif" font-size="13" lengthAdjust="spacing" textLength="149" x="1950.5" y="1771.4746">account: 0x88e6..5640)</text><text fill="#000000" font-family="sans-serif" font-size="13" lengthAdjust="spacing" textLength="50" x="1942.5" y="1786.7852">529 gas</text><line style="stroke:#181818;stroke-width:1.0;" x1="1936.5" x2="1946.5" y1="1820.8379" y2="1816.8379"/><line style="stroke:#181818;stroke-width:1.0;" x1="1936.5" x2="1946.5" y1="1820.8379" y2="1824.8379"/><line style="stroke:#181818;stroke-width:1.0;stroke-dasharray:2.0,2.0;" x1="1935.5" x2="2115.5" y1="1820.8379" y2="1820.8379"/><text fill="#000000" font-family="sans-serif" font-size="13" lengthAdjust="spacing" textLength="128" x="1952.5" y="1816.0957">76,248,304,625,820</text><polygon fill="#181818" points="1411,1846.1484,1401,1850.1484,1411,1854.1484,1407,1850.1484" style="stroke:#181818;stroke-width:1.0;"/><line style="stroke:#181818;stroke-width:1.0;stroke-dasharray:2.0,2.0;" x1="1405" x2="1929.5" y1="1850.1484" y2="1850.1484"/><text fill="#000000" font-family="sans-serif" font-size="13" lengthAdjust="spacing" textLength="128" x="1417" y="1845.4063">76,248,304,625,820</text><path d="M1935,1863.1484 L1935,1903.1484 L2006,1903.1484 L2006,1873.1484 L1996,1863.1484 L1935,1863.1484 " fill="#FEFFDD" style="stroke:#181818;stroke-width:0.5;"/><path d="M1996,1863.1484 L1996,1873.1484 L2006,1873.1484 L1996,1863.1484 " fill="#FEFFDD" style="stroke:#181818;stroke-width:0.5;"/><text fill="#000000" font-family="sans-serif" font-size="13" lengthAdjust="spacing" textLength="4" x="1941" y="1880.7168">&#160;</text><text fill="#000000" font-family="sans-serif" font-size="13" lengthAdjust="spacing" textLength="50" x="1941" y="1896.0273">786 gas</text><polygon fill="#181818" points="333.5,1941.3906,323.5,1945.3906,333.5,1949.3906,329.5,1945.3906" style="stroke:#181818;stroke-width:1.0;"/><line style="stroke:#181818;stroke-width:1.0;stroke-dasharray:2.0,2.0;" x1="327.5" x2="1394" y1="1945.3906" y2="1945.3906"/><text fill="#000000" font-family="sans-serif" font-size="13" lengthAdjust="spacing" textLength="140" x="339.5" y="1925.3379">amount0: 55,311,132,</text><text fill="#000000" font-family="sans-serif" font-size="13" lengthAdjust="spacing" textLength="208" x="339.5" y="1940.6484">amount1: -32014634981414073</text><path d="M1400,1958.3906 L1400,1998.3906 L1491,1998.3906 L1491,1968.3906 L1481,1958.3906 L1400,1958.3906 " fill="#FEFFDD" style="stroke:#181818;stroke-width:0.5;"/><path d="M1481,1958.3906 L1481,1968.3906 L1491,1968.3906 L1481,1958.3906 " fill="#FEFFDD" style="stroke:#181818;stroke-width:0.5;"/><text fill="#000000" font-family="sans-serif" font-size="13" lengthAdjust="spacing" textLength="4" x="1406" y="1975.959">&#160;</text><text fill="#000000" font-family="sans-serif" font-size="13" lengthAdjust="spacing" textLength="70" x="1406" y="1991.2695">37,902 gas</text><polygon fill="#181818" points="1717,2051.9434,1727,2055.9434,1717,2059.9434,1721,2055.9434" style="stroke:#181818;stroke-width:1.0;"/><line style="stroke:#181818;stroke-width:1.0;" x1="322.5" x2="1723" y1="2055.9434" y2="2055.9434"/><text fill="#000000" font-family="sans-serif" font-size="13" lengthAdjust="spacing" textLength="67" x="329.5" y="2020.5801">balanceOf(</text><text fill="#000000" font-family="sans-serif" font-size="13" lengthAdjust="spacing" textLength="92" x="337.5" y="2035.8906">0x3fC9..7FAD)</text><text fill="#000000" font-family="sans-serif" font-size="13" lengthAdjust="spacing" textLength="50" x="329.5" y="2051.2012">534 gas</text><polygon fill="#181818" points="333.5,2081.2539,323.5,2085.2539,333.5,2089.2539,329.5,2085.2539" style="stroke:#181818;stroke-width:1.0;"/><line style="stroke:#181818;stroke-width:1.0;stroke-dasharray:2.0,2.0;" x1="327.5" x2="1733" y1="2085.2539" y2="2085.2539"/><text fill="#000000" font-family="sans-serif" font-size="13" lengthAdjust="spacing" textLength="156" x="339.5" y="2080.5117">32,014,634,981,414,073</text><polygon fill="#181818" points="1717,2141.1855,1727,2145.1855,1717,2149.1855,1721,2145.1855" style="stroke:#181818;stroke-width:1.0;"/><line style="stroke:#181818;stroke-width:1.0;" x1="322.5" x2="1723" y1="2145.1855" y2="2145.1855"/><text fill="#000000" font-family="sans-serif" font-size="13" lengthAdjust="spacing" textLength="61" x="329.5" y="2109.8223">withdraw(</text><text fill="#000000" font-family="sans-serif" font-size="13" lengthAdjust="spacing" textLength="193" x="337.5" y="2125.1328">wad: 32,014,634,981,414,073)</text><text fill="#000000" font-family="sans-serif" font-size="13" lengthAdjust="spacing" textLength="62" x="329.5" y="2140.4434">9,220 gas</text><polygon fill="#181818" points="338.5,2201.1172,328.5,2205.1172,338.5,2209.1172,334.5,2205.1172" style="stroke:#181818;stroke-width:1.0;"/><line style="stroke:#181818;stroke-width:1.0;" x1="332.5" x2="1728" y1="2205.1172" y2="2205.1172"/><text fill="#000000" font-family="sans-serif" font-size="13" lengthAdjust="spacing" textLength="58" x="344.5" y="2169.7539">fallback()</text><text fill="#000000" font-family="sans-serif" font-size="13" lengthAdjust="spacing" textLength="42" x="344.5" y="2185.0645">80 gas</text><text fill="#000000" font-family="sans-serif" font-size="13" lengthAdjust="spacing" textLength="65" x="344.5" y="2200.375">0.032 ETH</text><polygon fill="#181818" points="118.5,2261.0488,108.5,2265.0488,118.5,2269.0488,114.5,2265.0488" style="stroke:#181818;stroke-width:1.0;"/><line style="stroke:#181818;stroke-width:1.0;" x1="112.5" x2="316.5" y1="2265.0488" y2="2265.0488"/><text fill="#000000" font-family="sans-serif" font-size="13" lengthAdjust="spacing" textLength="58" x="124.5" y="2229.6855">fallback()</text><text fill="#000000" font-family="sans-serif" font-size="13" lengthAdjust="spacing" textLength="34" x="124.5" y="2244.9961">0 gas</text><text fill="#000000" font-family="sans-serif" font-size="13" lengthAdjust="spacing" textLength="65" x="124.5" y="2260.3066">0.032 ETH</text><polygon fill="#181818" points="305.5,2275.0488,315.5,2279.0488,305.5,2283.0488,309.5,2279.0488" style="stroke:#181818;stroke-width:1.0;"/><line style="stroke:#181818;stroke-width:1.0;stroke-dasharray:2.0,2.0;" x1="102.5" x2="311.5" y1="2279.0488" y2="2279.0488"/><polygon fill="#181818" points="1717,2289.0488,1727,2293.0488,1717,2297.0488,1721,2293.0488" style="stroke:#181818;stroke-width:1.0;"/><line style="stroke:#181818;stroke-width:1.0;stroke-dasharray:2.0,2.0;" x1="322.5" x2="1723" y1="2293.0488" y2="2293.0488"/><polygon fill="#181818" points="333.5,2303.0488,323.5,2307.0488,333.5,2311.0488,329.5,2307.0488" style="stroke:#181818;stroke-width:1.0;"/><line style="stroke:#181818;stroke-width:1.0;stroke-dasharray:2.0,2.0;" x1="327.5" x2="1733" y1="2307.0488" y2="2307.0488"/><path d="M1739,2320.0488 L1739,2360.0488 L1822,2360.0488 L1822,2330.0488 L1812,2320.0488 L1739,2320.0488 " fill="#FEFFDD" style="stroke:#181818;stroke-width:0.5;"/><path d="M1812,2320.0488 L1812,2330.0488 L1822,2330.0488 L1812,2320.0488 " fill="#FEFFDD" style="stroke:#181818;stroke-width:0.5;"/><text fill="#000000" font-family="sans-serif" font-size="13" lengthAdjust="spacing" textLength="4" x="1745" y="2337.6172">&#160;</text><text fill="#000000" font-family="sans-serif" font-size="13" lengthAdjust="spacing" textLength="62" x="1745" y="2352.9277">9,140 gas</text><polygon fill="#181818" points="113.5,2367.6699,103.5,2371.6699,113.5,2375.6699,109.5,2371.6699" style="stroke:#181818;stroke-width:1.0;"/><line style="stroke:#181818;stroke-width:1.0;stroke-dasharray:2.0,2.0;" x1="107.5" x2="316.5" y1="2371.6699" y2="2371.6699"/><path d="M322,2384.6699 L322,2424.6699 L413,2424.6699 L413,2394.6699 L403,2384.6699 L322,2384.6699 " fill="#FEFFDD" style="stroke:#181818;stroke-width:0.5;"/><path d="M403,2384.6699 L403,2394.6699 L413,2394.6699 L403,2384.6699 " fill="#FEFFDD" style="stroke:#181818;stroke-width:0.5;"/><text fill="#000000" font-family="sans-serif" font-size="13" lengthAdjust="spacing" textLength="4" x="328" y="2402.2383">&#160;</text><text fill="#000000" font-family="sans-serif" font-size="13" lengthAdjust="spacing" textLength="70" x="328" y="2417.5488">25,033 gas</text><path d="M616,2435.291 L616,2552.291 L1165,2552.291 L1165,2445.291 L1155,2435.291 L616,2435.291 " fill="#00FFFF" style="stroke:#181818;stroke-width:0.5;"/><path d="M1155,2435.291 L1155,2445.291 L1165,2445.291 L1155,2435.291 " fill="#00FFFF" style="stroke:#181818;stroke-width:0.5;"/><text fill="#000000" font-family="sans-serif" font-size="13" lengthAdjust="spacing" textLength="44" x="622" y="2452.8594">Permit:</text><text fill="#000000" font-family="sans-serif" font-size="13" lengthAdjust="spacing" textLength="134" x="630" y="2468.1699">owner: 0xF3f5..4eDF,</text><text fill="#000000" font-family="sans-serif" font-size="13" lengthAdjust="spacing" textLength="135" x="630" y="2483.4805">token: 0xA0b8..eB48,</text><text fill="#000000" font-family="sans-serif" font-size="13" lengthAdjust="spacing" textLength="150" x="630" y="2498.791">spender: 0x3fC9..7FAD,</text><text fill="#000000" font-family="sans-serif" font-size="13" lengthAdjust="spacing" textLength="520" x="630" y="2514.1016">amount: 1,461,501,637,330,902,918,203,684,832,716,,283,019,655,932,542,975,</text><text fill="#000000" font-family="sans-serif" font-size="13" lengthAdjust="spacing" textLength="168" x="630" y="2529.4121">expiration: 1,689,645,888,</text><text fill="#000000" font-family="sans-serif" font-size="13" lengthAdjust="spacing" textLength="42" x="630" y="2544.7227">nonce:</text><path d="M1175,2435.291 L1175,2567.291 L1615,2567.291 L1615,2445.291 L1605,2435.291 L1175,2435.291 " fill="#00FFFF" style="stroke:#181818;stroke-width:0.5;"/><path d="M1605,2435.291 L1605,2445.291 L1615,2445.291 L1605,2435.291 " fill="#00FFFF" style="stroke:#181818;stroke-width:0.5;"/><text fill="#000000" font-family="sans-serif" font-size="13" lengthAdjust="spacing" textLength="36" x="1181" y="2452.8594">Swap:</text><text fill="#000000" font-family="sans-serif" font-size="13" lengthAdjust="spacing" textLength="142" x="1189" y="2468.1699">sender: 0x3fC9..7FAD,</text><text fill="#000000" font-family="sans-serif" font-size="13" lengthAdjust="spacing" textLength="155" x="1189" y="2483.4805">recipient: 0x3fC9..7FAD,</text><text fill="#000000" font-family="sans-serif" font-size="13" lengthAdjust="spacing" textLength="140" x="1189" y="2498.791">amount0: 55,311,132,</text><text fill="#000000" font-family="sans-serif" font-size="13" lengthAdjust="spacing" textLength="212" x="1189" y="2514.1016">amount1: -32014634981414073,</text><text fill="#000000" font-family="sans-serif" font-size="13" lengthAdjust="spacing" textLength="411" x="1189" y="2529.4121">sqrtPriceX96: 1,906,585,015,981,342,,397,457,809,695,639,287,</text><text fill="#000000" font-family="sans-serif" font-size="13" lengthAdjust="spacing" textLength="252" x="1189" y="2544.7227">liquidity: 19,,897,743,039,182,077,478,</text><text fill="#000000" font-family="sans-serif" font-size="13" lengthAdjust="spacing" textLength="84" x="1189" y="2560.0332">tick: 201,779</text><path d="M1625,2435.291 L1625,2552.291 L1843,2552.291 L1843,2445.291 L1833,2435.291 L1625,2435.291 " fill="#00FFFF" style="stroke:#181818;stroke-width:0.5;"/><path d="M1833,2435.291 L1833,2445.291 L1843,2445.291 L1833,2435.291 " fill="#00FFFF" style="stroke:#181818;stroke-width:0.5;"/><text fill="#000000" font-family="sans-serif" font-size="13" lengthAdjust="spacing" textLength="56" x="1631" y="2452.8594">Transfer:</text><text fill="#000000" font-family="sans-serif" font-size="13" lengthAdjust="spacing" textLength="118" x="1639" y="2468.1699">src: 0x88e6..5640,</text><text fill="#000000" font-family="sans-serif" font-size="13" lengthAdjust="spacing" textLength="120" x="1639" y="2483.4805">dst: 0x3fC9..7FAD,</text><text fill="#000000" font-family="sans-serif" font-size="13" lengthAdjust="spacing" textLength="189" x="1639" y="2498.791">wad: 32,014,634,981,414,073</text><text fill="#000000" font-family="sans-serif" font-size="13" lengthAdjust="spacing" textLength="73" x="1631" y="2514.1016">Withdrawal:</text><text fill="#000000" font-family="sans-serif" font-size="13" lengthAdjust="spacing" textLength="119" x="1639" y="2529.4121">src: 0x3fC9..7FAD,</text><text fill="#000000" font-family="sans-serif" font-size="13" lengthAdjust="spacing" textLength="189" x="1639" y="2544.7227">wad: 32,014,634,981,414,073</text><path d="M1853,2435.291 L1853,2506.291 L2008,2506.291 L2008,2445.291 L1998,2435.291 L1853,2435.291 " fill="#00FFFF" style="stroke:#181818;stroke-width:0.5;"/><path d="M1998,2435.291 L1998,2445.291 L2008,2445.291 L1998,2435.291 " fill="#00FFFF" style="stroke:#181818;stroke-width:0.5;"/><text fill="#000000" font-family="sans-serif" font-size="13" lengthAdjust="spacing" textLength="56" x="1859" y="2452.8594">Transfer:</text><text fill="#000000" font-family="sans-serif" font-size="13" lengthAdjust="spacing" textLength="126" x="1867" y="2468.1699">from: 0xF3f5..4eDF,</text><text fill="#000000" font-family="sans-serif" font-size="13" lengthAdjust="spacing" textLength="112" x="1867" y="2483.4805">to: 0x88e6..5640,</text><text fill="#000000" font-family="sans-serif" font-size="13" lengthAdjust="spacing" textLength="113" x="1867" y="2498.791">value: 55,311,132</text><!--SRC=[jLTjRzis4FxENq6qNrA0rVWcaJA206rITnZMDLZITi1I3BH4fK8KoP7bnjsltv6o9B_8Refj_f3eHDxnNfxdU6hofh2OhX9fJPQ5PgPc9abYaQX82g524JALQC4oIxECKQPvQcIMK1qbQIPZcoYRi70M8vIOUPDN9RutULdQXk1PKILtcAcGYb0pWg-M9S5Cur-M9UQK2qpvXCf96EEtxwwHIPggni_eAXDP60JIfjapR1ROYKx0Q6xg9a_okIaRjqzaIHm4AZEft-T49-3Jqmzb_jNM2rFyNYqRMv-TxQfI-0M1dXdXLPte152zjFLztl1z5Qrj50HX9AbNSQ8JsjCMZsR-KLnMLR6lc51kWY1A4kuLdUW4KFnKc_dSflXDyyKvUNfwykdDzSylt9DxYFTj6JhJGM1dKdjRJdI2S-Bg0fzNUUdDW73kpKnpqrnNTxQyhAlLjn5xNF0WcAL9csedEW5lQ7xaVp5GH6NLM5n1Mlk2eD-gCh4JB4Fq5fGlwzn9J0OirYfI3Bzzj3bwPrPuQjs22ZWVti7sgiwRRnDC0oRQzyxChpdaVuAv30cFk7_rOM5Jfoz9f1MwNjkZ0QKSGvwGBLFit4EenyhBinuF4snNDW4SdDoK62VL_RqfqmNehwY1kYV4lSxB-RA1btyw0MFgbzU_8EYUIBlAZgxoxLMTScw4b9_zScfDMkIbIuSBXj0m994ANzoKw_3mhLauAkHV3UIxYm7ru8R0EhHEyDo3rSTLFPQsTYTFr-ovcFe3sorNUNbRs3wyr3OcBuPmCMvSgPtwgnPXhwKctPgvhvPbupoM4ICX1S-58a9G4bDEOgO9fm9ybqGBJXIB2E5Q4CfY4a5uCRmC9MnKOM_IhkPvRLotQ1C1Ew7UMW-7bYssFgzVBEPGv3P0aPqxsazVNNHh-Ut5M5grRhLXlJJDidQOMR7Gq3IBCc2aaOdAs0no3w4e7MsdliiogYtebdYZ1523ZluJxAZlAr1Ru5LkNQRsdFpRrjMqgjyx3vjwQVtBDgzNSz3BSeTmS5emHXWapFlzK3UUL9uIVyGHK8tmE2ICQw9aYxVKD6OSZWvJD2QCoUt0EjTHty8WdguhEVTCkSXixMDA5sFHF3fIWPEK0MI5934qTmdFL0aubCSaZlZscPtvBfak1nldWmDTAvlWcIaCrFvzvZtORBnWF2QQXTksEqtKTyENPsTzAzkr1tTRY-OTmu1H7kyOxhhXSqtZD-UlE-TLH3ZGWyiOokL8gu-i-BPPvxTV6bnb6r7Ub0fOqc9kin13rrfsryeL_3qtHG7tyjt901nwOGjN-ntKj8jilVXISAWI50bg12M22dqVDS06nkaFDQ8EDDEwklSkPl0mqesQQZln6nxl1JBIaboT50dZ-01L-tjy6r5xtYtgPCIvDTXtlFDW7rnpBaH4nFp7GFYl4lJL54kxwqG8UL1F0wnds-Rp4L36BRkwfhUzSoWuz1Re-kh8tW78BRdO3jIVpda6OVyldFzHnWiAd8R4QqwFh1n9xfhlQzqrZNU0l-Rl67LtJ0zt471MkSlOMzzawD3MTpCyj7IN226Fz-lnPd_WgCUy-PBMvl7a-tT5JFXkf-cFxWVbhQwOTOqGjBLNlIbX4XJj97YyNtNJuRQLmqRwGRT3-Ex_xNeC6N21GSMUoewGK27yveqfk-zbpyt3qg3sksI2nYSzD3x1eKE34_fFfpfqRA13_IotCQV_X8T0-vRG1kfkEnVcue3VXyQiFgHjGlMlHndbCzIDMNx2OX1-H48DDM6XHwk0AA7XAo93HQ0la0X6i4W0T67G1FqYVrZcgV-IWTmG3JkLX4J13lXO1g23fl9vW2-lE_YoWLGh5H_8He_wDXlNwtl3PwIzjJOk1pGseQ6Zf4EVrkmqnORDfwkFUzstuNslHouwD7BFeP5hRZZi7m00]--></g></svg>
