<?xml version="1.0" encoding="us-ascii" standalone="no"?><svg xmlns:xlink="http://www.w3.org/1999/xlink" xmlns="http://www.w3.org/2000/svg" contentStyleType="text/css" height="1642px" preserveAspectRatio="none" style="width:920px;height:1642px;background:#FFFFFF;" version="1.1" viewBox="0 0 920 1642" width="920px" zoomAndPan="magnify"><defs/><g><text fill="#000000" font-family="sans-serif" font-size="14" font-weight="bold" lengthAdjust="spacing" textLength="546" x="186" y="28.5352">0xc4eaff5ab7bacc93c76433753517c831fe0ff10182da4fc086cdf49ec7ec15b9</text><text fill="#000000" font-family="sans-serif" font-size="14" lengthAdjust="spacing" textLength="404" x="257" y="1630.8047">mainnet, block 17503581, Sun, 18 Jun 2023 02:04:59 GMT</text><rect fill="#FFFFFF" height="14" style="stroke:#181818;stroke-width:1.0;" width="10" x="45.5" y="1318.832"/><rect fill="#FFFFFF" height="1174.1484" style="stroke:#181818;stroke-width:1.0;" width="10" x="169.5" y="200.6836"/><rect fill="#FFFFFF" height="238.416" style="stroke:#181818;stroke-width:1.0;" width="10" x="174.5" y="708.1367"/><rect fill="#FFFFFF" height="72.6211" style="stroke:#181818;stroke-width:1.0;" width="10" x="174.5" y="1274.2109"/><rect fill="#FFFFFF" height="57.3105" style="stroke:#181818;stroke-width:1.0;" width="10" x="303.5" y="275.9258"/><rect fill="#FFFFFF" height="133.8633" style="stroke:#181818;stroke-width:1.0;" width="10" x="303.5" y="798.6895"/><rect fill="#FFFFFF" height="14" style="stroke:#181818;stroke-width:1.0;" width="10" x="425" y="305.2363"/><rect fill="#FFFFFF" height="656.627" style="stroke:#181818;stroke-width:1.0;" width="10" x="558" y="439.0996"/><rect fill="#FFFFFF" height="44.6211" style="stroke:#181818;stroke-width:1.0;" width="10" x="699.5" y="499.0313"/><rect fill="#FFFFFF" height="44.6211" style="stroke:#181818;stroke-width:1.0;" width="10" x="699.5" y="1140.3477"/><rect fill="#FFFFFF" height="131.2422" style="stroke:#181818;stroke-width:1.0;" width="10" x="699.5" y="1229.5898"/><rect fill="#FFFFFF" height="44.6211" style="stroke:#181818;stroke-width:1.0;" width="10" x="841.5" y="588.2734"/><rect fill="#FFFFFF" height="44.6211" style="stroke:#181818;stroke-width:1.0;" width="10" x="841.5" y="873.9316"/><rect fill="#FFFFFF" height="44.6211" style="stroke:#181818;stroke-width:1.0;" width="10" x="841.5" y="991.1738"/><line style="stroke:#181818;stroke-width:0.5;stroke-dasharray:5.0,5.0;" x1="50" x2="50" y1="123.4414" y2="1535.3164"/><line style="stroke:#181818;stroke-width:0.5;stroke-dasharray:5.0,5.0;" x1="174" x2="174" y1="123.4414" y2="1535.3164"/><line style="stroke:#181818;stroke-width:0.5;stroke-dasharray:5.0,5.0;" x1="308" x2="308" y1="123.4414" y2="1535.3164"/><line style="stroke:#181818;stroke-width:0.5;stroke-dasharray:5.0,5.0;" x1="430" x2="430" y1="123.4414" y2="1535.3164"/><line style="stroke:#181818;stroke-width:0.5;stroke-dasharray:5.0,5.0;" x1="563" x2="563" y1="123.4414" y2="1535.3164"/><line style="stroke:#181818;stroke-width:0.5;stroke-dasharray:5.0,5.0;" x1="704" x2="704" y1="123.4414" y2="1535.3164"/><line style="stroke:#181818;stroke-width:0.5;stroke-dasharray:5.0,5.0;" x1="846" x2="846" y1="123.4414" y2="1535.3164"/><text fill="#000000" font-family="sans-serif" font-size="14" lengthAdjust="spacing" textLength="85" x="5" y="120.4883">0xf3f5..4edf</text><ellipse cx="50.5" cy="55.4531" fill="#E2E2F0" rx="8" ry="8" style="stroke:#181818;stroke-width:0.5;"/><path d="M50.5,63.4531 L50.5,90.4531 M37.5,71.4531 L63.5,71.4531 M50.5,90.4531 L37.5,105.4531 M50.5,90.4531 L63.5,105.4531 " fill="none" style="stroke:#181818;stroke-width:0.5;"/><text fill="#000000" font-family="sans-serif" font-size="14" lengthAdjust="spacing" textLength="85" x="5" y="1547.8516">0xf3f5..4edf</text><ellipse cx="50.5" cy="1559.3047" fill="#E2E2F0" rx="8" ry="8" style="stroke:#181818;stroke-width:0.5;"/><path d="M50.5,1567.3047 L50.5,1594.3047 M37.5,1575.3047 L63.5,1575.3047 M50.5,1594.3047 L37.5,1609.3047 M50.5,1594.3047 L63.5,1609.3047 " fill="none" style="stroke:#181818;stroke-width:0.5;"/><rect fill="#E2E2F0" height="46.9766" rx="2.5" ry="2.5" style="stroke:#181818;stroke-width:0.5;" width="137" x="106" y="75.4648"/><text fill="#000000" font-family="sans-serif" font-size="14" font-style="italic" lengthAdjust="spacing" textLength="123" x="113" y="96">&#171;UniversalRouter&#187;</text><text fill="#000000" font-family="sans-serif" font-size="14" lengthAdjust="spacing" textLength="87" x="131" y="112.4883">0x3fc9..7fad</text><rect fill="#E2E2F0" height="46.9766" rx="2.5" ry="2.5" style="stroke:#181818;stroke-width:0.5;" width="137" x="106" y="1534.3164"/><text fill="#000000" font-family="sans-serif" font-size="14" font-style="italic" lengthAdjust="spacing" textLength="123" x="113" y="1554.8516">&#171;UniversalRouter&#187;</text><text fill="#000000" font-family="sans-serif" font-size="14" lengthAdjust="spacing" textLength="87" x="131" y="1571.3398">0x3fc9..7fad</text><rect fill="#E2E2F0" height="46.9766" rx="2.5" ry="2.5" style="stroke:#181818;stroke-width:0.5;" width="111" x="253" y="75.4648"/><text fill="#000000" font-family="sans-serif" font-size="14" font-style="italic" lengthAdjust="spacing" textLength="67" x="275" y="96">&#171;Permit2&#187;</text><text fill="#000000" font-family="sans-serif" font-size="14" lengthAdjust="spacing" textLength="97" x="260" y="112.4883">0x0000..8ba3</text><rect fill="#E2E2F0" height="46.9766" rx="2.5" ry="2.5" style="stroke:#181818;stroke-width:0.5;" width="111" x="253" y="1534.3164"/><text fill="#000000" font-family="sans-serif" font-size="14" font-style="italic" lengthAdjust="spacing" textLength="67" x="275" y="1554.8516">&#171;Permit2&#187;</text><text fill="#000000" font-family="sans-serif" font-size="14" lengthAdjust="spacing" textLength="97" x="260" y="1571.3398">0x0000..8ba3</text><rect fill="#E2E2F0" height="30.4883" rx="2.5" ry="2.5" style="stroke:#181818;stroke-width:0.5;" width="112" x="374" y="91.9531"/><text fill="#000000" font-family="sans-serif" font-size="14" lengthAdjust="spacing" textLength="98" x="381" y="112.4883">0x0000..0001</text><rect fill="#E2E2F0" height="30.4883" rx="2.5" ry="2.5" style="stroke:#181818;stroke-width:0.5;" width="112" x="374" y="1534.3164"/><text fill="#000000" font-family="sans-serif" font-size="14" lengthAdjust="spacing" textLength="98" x="381" y="1554.8516">0x0000..0001</text><rect fill="#E2E2F0" height="46.9766" rx="2.5" ry="2.5" style="stroke:#181818;stroke-width:0.5;" width="134" x="496" y="75.4648"/><text fill="#000000" font-family="sans-serif" font-size="14" font-style="italic" lengthAdjust="spacing" textLength="120" x="503" y="96">&#171;UniswapV3Pool&#187;</text><text fill="#000000" font-family="sans-serif" font-size="14" lengthAdjust="spacing" textLength="97" x="514.5" y="112.4883">0x88e6..5640</text><rect fill="#E2E2F0" height="46.9766" rx="2.5" ry="2.5" style="stroke:#181818;stroke-width:0.5;" width="134" x="496" y="1534.3164"/><text fill="#000000" font-family="sans-serif" font-size="14" font-style="italic" lengthAdjust="spacing" textLength="120" x="503" y="1554.8516">&#171;UniswapV3Pool&#187;</text><text fill="#000000" font-family="sans-serif" font-size="14" lengthAdjust="spacing" textLength="97" x="514.5" y="1571.3398">0x88e6..5640</text><rect fill="#E2E2F0" height="79.9531" rx="2.5" ry="2.5" style="stroke:#181818;stroke-width:0.5;" width="129" x="640" y="42.4883"/><text fill="#000000" font-family="sans-serif" font-size="14" font-style="italic" lengthAdjust="spacing" textLength="115" x="647" y="63.0234">&#171;Wrapped Ether&#187;</text><text fill="#000000" font-family="sans-serif" font-size="14" font-style="italic" lengthAdjust="spacing" textLength="63" x="673" y="79.5117">&#171;(WETH)&#187;</text><text fill="#000000" font-family="sans-serif" font-size="14" font-style="italic" lengthAdjust="spacing" textLength="62" x="673.5" y="96">&#171;WETH9&#187;</text><text fill="#000000" font-family="sans-serif" font-size="14" lengthAdjust="spacing" textLength="91" x="659" y="112.4883">0xc02a..6cc2</text><rect fill="#E2E2F0" height="79.9531" rx="2.5" ry="2.5" style="stroke:#181818;stroke-width:0.5;" width="129" x="640" y="1534.3164"/><text fill="#000000" font-family="sans-serif" font-size="14" font-style="italic" lengthAdjust="spacing" textLength="115" x="647" y="1554.8516">&#171;Wrapped Ether&#187;</text><text fill="#000000" font-family="sans-serif" font-size="14" font-style="italic" lengthAdjust="spacing" textLength="63" x="673" y="1571.3398">&#171;(WETH)&#187;</text><text fill="#000000" font-family="sans-serif" font-size="14" font-style="italic" lengthAdjust="spacing" textLength="62" x="673.5" y="1587.8281">&#171;WETH9&#187;</text><text fill="#000000" font-family="sans-serif" font-size="14" lengthAdjust="spacing" textLength="91" x="659" y="1604.3164">0xc02a..6cc2</text><rect fill="#E2E2F0" height="79.9531" rx="2.5" ry="2.5" style="stroke:#181818;stroke-width:0.5;" width="135" x="779" y="42.4883"/><text fill="#000000" font-family="sans-serif" font-size="14" font-style="italic" lengthAdjust="spacing" textLength="78" x="807.5" y="63.0234">&#171;USD Coin&#187;</text><text fill="#000000" font-family="sans-serif" font-size="14" font-style="italic" lengthAdjust="spacing" textLength="62" x="815.5" y="79.5117">&#171;(USDC)&#187;</text><text fill="#000000" font-family="sans-serif" font-size="14" font-style="italic" lengthAdjust="spacing" textLength="121" x="786" y="96">&#171;FiatTokenProxy&#187;</text><text fill="#000000" font-family="sans-serif" font-size="14" lengthAdjust="spacing" textLength="96" x="798.5" y="112.4883">0xa0b8..eb48</text><rect fill="#E2E2F0" height="79.9531" rx="2.5" ry="2.5" style="stroke:#181818;stroke-width:0.5;" width="135" x="779" y="1534.3164"/><text fill="#000000" font-family="sans-serif" font-size="14" font-style="italic" lengthAdjust="spacing" textLength="78" x="807.5" y="1554.8516">&#171;USD Coin&#187;</text><text fill="#000000" font-family="sans-serif" font-size="14" font-style="italic" lengthAdjust="spacing" textLength="62" x="815.5" y="1571.3398">&#171;(USDC)&#187;</text><text fill="#000000" font-family="sans-serif" font-size="14" font-style="italic" lengthAdjust="spacing" textLength="121" x="786" y="1587.8281">&#171;FiatTokenProxy&#187;</text><text fill="#000000" font-family="sans-serif" font-size="14" lengthAdjust="spacing" textLength="96" x="798.5" y="1604.3164">0xa0b8..eb48</text><rect fill="#FFFFFF" height="14" style="stroke:#181818;stroke-width:1.0;" width="10" x="45.5" y="1318.832"/><rect fill="#FFFFFF" height="1174.1484" style="stroke:#181818;stroke-width:1.0;" width="10" x="169.5" y="200.6836"/><rect fill="#FFFFFF" height="238.416" style="stroke:#181818;stroke-width:1.0;" width="10" x="174.5" y="708.1367"/><rect fill="#FFFFFF" height="72.6211" style="stroke:#181818;stroke-width:1.0;" width="10" x="174.5" y="1274.2109"/><rect fill="#FFFFFF" height="57.3105" style="stroke:#181818;stroke-width:1.0;" width="10" x="303.5" y="275.9258"/><rect fill="#FFFFFF" height="133.8633" style="stroke:#181818;stroke-width:1.0;" width="10" x="303.5" y="798.6895"/><rect fill="#FFFFFF" height="14" style="stroke:#181818;stroke-width:1.0;" width="10" x="425" y="305.2363"/><rect fill="#FFFFFF" height="656.627" style="stroke:#181818;stroke-width:1.0;" width="10" x="558" y="439.0996"/><rect fill="#FFFFFF" height="44.6211" style="stroke:#181818;stroke-width:1.0;" width="10" x="699.5" y="499.0313"/><rect fill="#FFFFFF" height="44.6211" style="stroke:#181818;stroke-width:1.0;" width="10" x="699.5" y="1140.3477"/><rect fill="#FFFFFF" height="131.2422" style="stroke:#181818;stroke-width:1.0;" width="10" x="699.5" y="1229.5898"/><rect fill="#FFFFFF" height="44.6211" style="stroke:#181818;stroke-width:1.0;" width="10" x="841.5" y="588.2734"/><rect fill="#FFFFFF" height="44.6211" style="stroke:#181818;stroke-width:1.0;" width="10" x="841.5" y="873.9316"/><rect fill="#FFFFFF" height="44.6211" style="stroke:#181818;stroke-width:1.0;" width="10" x="841.5" y="991.1738"/><polygon fill="#181818" points="157.5,196.6836,167.5,200.6836,157.5,204.6836,161.5,200.6836" style="stroke:#181818;stroke-width:1.0;"/><line style="stroke:#181818;stroke-width:1.0;" x1="50.5" x2="163.5" y1="200.6836" y2="200.6836"/><text fill="#000000" font-family="sans-serif" font-size="13" lengthAdjust="spacing" textLength="53" x="57.5" y="150.0098">execute(</text><text fill="#000000" font-family="sans-serif" font-size="13" lengthAdjust="spacing" textLength="73" x="57.5" y="165.3203">commands,</text><text fill="#000000" font-family="sans-serif" font-size="13" lengthAdjust="spacing" textLength="44" x="57.5" y="180.6309">inputs,</text><text fill="#000000" font-family="sans-serif" font-size="13" lengthAdjust="spacing" textLength="57" x="57.5" y="195.9414">deadline)</text><polygon fill="#181818" points="291.5,271.9258,301.5,275.9258,291.5,279.9258,295.5,275.9258" style="stroke:#181818;stroke-width:1.0;"/><line style="stroke:#181818;stroke-width:1.0;" x1="179.5" x2="297.5" y1="275.9258" y2="275.9258"/><text fill="#000000" font-family="sans-serif" font-size="13" lengthAdjust="spacing" textLength="45" x="186.5" y="225.252">permit(</text><text fill="#000000" font-family="sans-serif" font-size="13" lengthAdjust="spacing" textLength="42" x="186.5" y="240.5625">owner,</text><text fill="#000000" font-family="sans-serif" font-size="13" lengthAdjust="spacing" textLength="83" x="186.5" y="255.873">permitSingle,</text><text fill="#000000" font-family="sans-serif" font-size="13" lengthAdjust="spacing" textLength="63" x="186.5" y="271.1836">signature)</text><polygon fill="#181818" points="413,301.2363,423,305.2363,413,309.2363,417,305.2363" style="stroke:#181818;stroke-width:1.0;"/><line style="stroke:#181818;stroke-width:1.0;" x1="313.5" x2="419" y1="305.2363" y2="305.2363"/><text fill="#000000" font-family="sans-serif" font-size="13" lengthAdjust="spacing" textLength="78" x="320.5" y="300.4941">0xc4439a51</text><polygon fill="#181818" points="324.5,315.2363,314.5,319.2363,324.5,323.2363,320.5,319.2363" style="stroke:#181818;stroke-width:1.0;"/><line style="stroke:#181818;stroke-width:1.0;stroke-dasharray:2.0,2.0;" x1="318.5" x2="429" y1="319.2363" y2="319.2363"/><polygon fill="#181818" points="190.5,329.2363,180.5,333.2363,190.5,337.2363,186.5,333.2363" style="stroke:#181818;stroke-width:1.0;"/><line style="stroke:#181818;stroke-width:1.0;stroke-dasharray:2.0,2.0;" x1="184.5" x2="307.5" y1="333.2363" y2="333.2363"/><polygon fill="#181818" points="546,435.0996,556,439.0996,546,443.0996,550,439.0996" style="stroke:#181818;stroke-width:1.0;"/><line style="stroke:#181818;stroke-width:1.0;" x1="179.5" x2="552" y1="439.0996" y2="439.0996"/><text fill="#000000" font-family="sans-serif" font-size="13" lengthAdjust="spacing" textLength="36" x="186.5" y="357.8047">swap(</text><text fill="#000000" font-family="sans-serif" font-size="13" lengthAdjust="spacing" textLength="59" x="186.5" y="373.1152">recipient,</text><text fill="#000000" font-family="sans-serif" font-size="13" lengthAdjust="spacing" textLength="76" x="186.5" y="388.4258">zeroForOne,</text><text fill="#000000" font-family="sans-serif" font-size="13" lengthAdjust="spacing" textLength="109" x="186.5" y="403.7363">amountSpecified,</text><text fill="#000000" font-family="sans-serif" font-size="13" lengthAdjust="spacing" textLength="115" x="186.5" y="419.0469">sqrtPriceLimitX96,</text><text fill="#000000" font-family="sans-serif" font-size="13" lengthAdjust="spacing" textLength="31" x="186.5" y="434.3574">data)</text><polygon fill="#181818" points="687.5,495.0313,697.5,499.0313,687.5,503.0313,691.5,499.0313" style="stroke:#181818;stroke-width:1.0;"/><line style="stroke:#181818;stroke-width:1.0;" x1="568" x2="693.5" y1="499.0313" y2="499.0313"/><text fill="#000000" font-family="sans-serif" font-size="13" lengthAdjust="spacing" textLength="53" x="575" y="463.668">transfer(</text><text fill="#000000" font-family="sans-serif" font-size="13" lengthAdjust="spacing" textLength="24" x="575" y="478.9785">dst,</text><text fill="#000000" font-family="sans-serif" font-size="13" lengthAdjust="spacing" textLength="29" x="575" y="494.2891">wad)</text><polygon fill="#181818" points="579,539.6523,569,543.6523,579,547.6523,575,543.6523" style="stroke:#181818;stroke-width:1.0;"/><line style="stroke:#181818;stroke-width:1.0;stroke-dasharray:2.0,2.0;" x1="573" x2="703.5" y1="543.6523" y2="543.6523"/><text fill="#000000" font-family="sans-serif" font-size="13" lengthAdjust="spacing" textLength="4" x="585" y="523.5996">&#160;</text><text fill="#000000" font-family="sans-serif" font-size="13" lengthAdjust="spacing" textLength="5" x="585" y="538.9102">?</text><polygon fill="#181818" points="829.5,584.2734,839.5,588.2734,829.5,592.2734,833.5,588.2734" style="stroke:#181818;stroke-width:1.0;"/><line style="stroke:#181818;stroke-width:1.0;" x1="568" x2="835.5" y1="588.2734" y2="588.2734"/><text fill="#000000" font-family="sans-serif" font-size="13" lengthAdjust="spacing" textLength="67" x="575" y="568.2207">balanceOf(</text><text fill="#000000" font-family="sans-serif" font-size="13" lengthAdjust="spacing" textLength="9" x="575" y="583.5313">?)</text><polygon fill="#181818" points="579,628.8945,569,632.8945,579,636.8945,575,632.8945" style="stroke:#181818;stroke-width:1.0;"/><line style="stroke:#181818;stroke-width:1.0;stroke-dasharray:2.0,2.0;" x1="573" x2="845.5" y1="632.8945" y2="632.8945"/><text fill="#000000" font-family="sans-serif" font-size="13" lengthAdjust="spacing" textLength="4" x="585" y="612.8418">&#160;</text><text fill="#000000" font-family="sans-serif" font-size="13" lengthAdjust="spacing" textLength="5" x="585" y="628.1523">?</text><polygon fill="#181818" points="195.5,704.1367,185.5,708.1367,195.5,712.1367,191.5,708.1367" style="stroke:#181818;stroke-width:1.0;"/><line style="stroke:#181818;stroke-width:1.0;" x1="189.5" x2="557" y1="708.1367" y2="708.1367"/><text fill="#000000" font-family="sans-serif" font-size="13" lengthAdjust="spacing" textLength="158" x="201.5" y="657.4629">uniswapV3SwapCallback(</text><text fill="#000000" font-family="sans-serif" font-size="13" lengthAdjust="spacing" textLength="93" x="201.5" y="672.7734">amount0Delta,</text><text fill="#000000" font-family="sans-serif" font-size="13" lengthAdjust="spacing" textLength="93" x="201.5" y="688.084">amount1Delta,</text><text fill="#000000" font-family="sans-serif" font-size="13" lengthAdjust="spacing" textLength="31" x="201.5" y="703.3945">data)</text><polygon fill="#181818" points="291.5,794.6895,301.5,798.6895,291.5,802.6895,295.5,798.6895" style="stroke:#181818;stroke-width:1.0;"/><line style="stroke:#181818;stroke-width:1.0;" x1="184.5" x2="297.5" y1="798.6895" y2="798.6895"/><text fill="#000000" font-family="sans-serif" font-size="13" lengthAdjust="spacing" textLength="85" x="191.5" y="732.7051">transferFrom(</text><text fill="#000000" font-family="sans-serif" font-size="13" lengthAdjust="spacing" textLength="34" x="191.5" y="748.0156">from,</text><text fill="#000000" font-family="sans-serif" font-size="13" lengthAdjust="spacing" textLength="17" x="191.5" y="763.3262">to,</text><text fill="#000000" font-family="sans-serif" font-size="13" lengthAdjust="spacing" textLength="52" x="191.5" y="778.6367">amount,</text><text fill="#000000" font-family="sans-serif" font-size="13" lengthAdjust="spacing" textLength="40" x="191.5" y="793.9473">token)</text><polygon fill="#181818" points="829.5,869.9316,839.5,873.9316,829.5,877.9316,833.5,873.9316" style="stroke:#181818;stroke-width:1.0;"/><line style="stroke:#181818;stroke-width:1.0;" x1="313.5" x2="835.5" y1="873.9316" y2="873.9316"/><text fill="#000000" font-family="sans-serif" font-size="13" lengthAdjust="spacing" textLength="85" x="320.5" y="823.2578">transferFrom(</text><text fill="#000000" font-family="sans-serif" font-size="13" lengthAdjust="spacing" textLength="23" x="320.5" y="838.5684">src,</text><text fill="#000000" font-family="sans-serif" font-size="13" lengthAdjust="spacing" textLength="24" x="320.5" y="853.8789">dst,</text><text fill="#000000" font-family="sans-serif" font-size="13" lengthAdjust="spacing" textLength="29" x="320.5" y="869.1895">wad)</text><polygon fill="#181818" points="324.5,914.5527,314.5,918.5527,324.5,922.5527,320.5,918.5527" style="stroke:#181818;stroke-width:1.0;"/><line style="stroke:#181818;stroke-width:1.0;stroke-dasharray:2.0,2.0;" x1="318.5" x2="845.5" y1="918.5527" y2="918.5527"/><text fill="#000000" font-family="sans-serif" font-size="13" lengthAdjust="spacing" textLength="4" x="330.5" y="898.5">&#160;</text><text fill="#000000" font-family="sans-serif" font-size="13" lengthAdjust="spacing" textLength="5" x="330.5" y="913.8105">?</text><polygon fill="#181818" points="195.5,928.5527,185.5,932.5527,195.5,936.5527,191.5,932.5527" style="stroke:#181818;stroke-width:1.0;"/><line style="stroke:#181818;stroke-width:1.0;stroke-dasharray:2.0,2.0;" x1="189.5" x2="307.5" y1="932.5527" y2="932.5527"/><polygon fill="#181818" points="546,942.5527,556,946.5527,546,950.5527,550,946.5527" style="stroke:#181818;stroke-width:1.0;"/><line style="stroke:#181818;stroke-width:1.0;stroke-dasharray:2.0,2.0;" x1="179.5" x2="552" y1="946.5527" y2="946.5527"/><polygon fill="#181818" points="829.5,987.1738,839.5,991.1738,829.5,995.1738,833.5,991.1738" style="stroke:#181818;stroke-width:1.0;"/><line style="stroke:#181818;stroke-width:1.0;" x1="568" x2="835.5" y1="991.1738" y2="991.1738"/><text fill="#000000" font-family="sans-serif" font-size="13" lengthAdjust="spacing" textLength="67" x="575" y="971.1211">balanceOf(</text><text fill="#000000" font-family="sans-serif" font-size="13" lengthAdjust="spacing" textLength="9" x="575" y="986.4316">?)</text><polygon fill="#181818" points="579,1031.7949,569,1035.7949,579,1039.7949,575,1035.7949" style="stroke:#181818;stroke-width:1.0;"/><line style="stroke:#181818;stroke-width:1.0;stroke-dasharray:2.0,2.0;" x1="573" x2="845.5" y1="1035.7949" y2="1035.7949"/><text fill="#000000" font-family="sans-serif" font-size="13" lengthAdjust="spacing" textLength="4" x="585" y="1015.7422">&#160;</text><text fill="#000000" font-family="sans-serif" font-size="13" lengthAdjust="spacing" textLength="5" x="585" y="1031.0527">?</text><polygon fill="#181818" points="190.5,1091.7266,180.5,1095.7266,190.5,1099.7266,186.5,1095.7266" style="stroke:#181818;stroke-width:1.0;"/><line style="stroke:#181818;stroke-width:1.0;stroke-dasharray:2.0,2.0;" x1="184.5" x2="562" y1="1095.7266" y2="1095.7266"/><text fill="#000000" font-family="sans-serif" font-size="13" lengthAdjust="spacing" textLength="4" x="196.5" y="1060.3633">&#160;</text><text fill="#000000" font-family="sans-serif" font-size="13" lengthAdjust="spacing" textLength="60" x="196.5" y="1075.6738">amount0,</text><text fill="#000000" font-family="sans-serif" font-size="13" lengthAdjust="spacing" textLength="56" x="196.5" y="1090.9844">amount1</text><polygon fill="#181818" points="687.5,1136.3477,697.5,1140.3477,687.5,1144.3477,691.5,1140.3477" style="stroke:#181818;stroke-width:1.0;"/><line style="stroke:#181818;stroke-width:1.0;" x1="179.5" x2="693.5" y1="1140.3477" y2="1140.3477"/><text fill="#000000" font-family="sans-serif" font-size="13" lengthAdjust="spacing" textLength="67" x="186.5" y="1120.2949">balanceOf(</text><text fill="#000000" font-family="sans-serif" font-size="13" lengthAdjust="spacing" textLength="9" x="186.5" y="1135.6055">?)</text><polygon fill="#181818" points="190.5,1180.9688,180.5,1184.9688,190.5,1188.9688,186.5,1184.9688" style="stroke:#181818;stroke-width:1.0;"/><line style="stroke:#181818;stroke-width:1.0;stroke-dasharray:2.0,2.0;" x1="184.5" x2="703.5" y1="1184.9688" y2="1184.9688"/><text fill="#000000" font-family="sans-serif" font-size="13" lengthAdjust="spacing" textLength="4" x="196.5" y="1164.916">&#160;</text><text fill="#000000" font-family="sans-serif" font-size="13" lengthAdjust="spacing" textLength="5" x="196.5" y="1180.2266">?</text><polygon fill="#181818" points="687.5,1225.5898,697.5,1229.5898,687.5,1233.5898,691.5,1229.5898" style="stroke:#181818;stroke-width:1.0;"/><line style="stroke:#181818;stroke-width:1.0;" x1="179.5" x2="693.5" y1="1229.5898" y2="1229.5898"/><text fill="#000000" font-family="sans-serif" font-size="13" lengthAdjust="spacing" textLength="61" x="186.5" y="1209.5371">withdraw(</text><text fill="#000000" font-family="sans-serif" font-size="13" lengthAdjust="spacing" textLength="29" x="186.5" y="1224.8477">wad)</text><polygon fill="#181818" points="195.5,1270.2109,185.5,1274.2109,195.5,1278.2109,191.5,1274.2109" style="stroke:#181818;stroke-width:1.0;"/><line style="stroke:#181818;stroke-width:1.0;" x1="189.5" x2="698.5" y1="1274.2109" y2="1274.2109"/><text fill="#000000" font-family="sans-serif" font-size="13" lengthAdjust="spacing" textLength="58" x="201.5" y="1254.1582">fallback()</text><text fill="#000000" font-family="sans-serif" font-size="13" lengthAdjust="spacing" textLength="65" x="201.5" y="1269.4688">0.032 ETH</text><polygon fill="#181818" points="66.5,1314.832,56.5,1318.832,66.5,1322.832,62.5,1318.832" style="stroke:#181818;stroke-width:1.0;"/><line style="stroke:#181818;stroke-width:1.0;" x1="60.5" x2="173.5" y1="1318.832" y2="1318.832"/><text fill="#000000" font-family="sans-serif" font-size="13" lengthAdjust="spacing" textLength="58" x="72.5" y="1298.7793">fallback()</text><text fill="#000000" font-family="sans-serif" font-size="13" lengthAdjust="spacing" textLength="65" x="72.5" y="1314.0898">0.032 ETH</text><polygon fill="#181818" points="162.5,1328.832,172.5,1332.832,162.5,1336.832,166.5,1332.832" style="stroke:#181818;stroke-width:1.0;"/><line style="stroke:#181818;stroke-width:1.0;stroke-dasharray:2.0,2.0;" x1="50.5" x2="168.5" y1="1332.832" y2="1332.832"/><polygon fill="#181818" points="687.5,1342.832,697.5,1346.832,687.5,1350.832,691.5,1346.832" style="stroke:#181818;stroke-width:1.0;"/><line style="stroke:#181818;stroke-width:1.0;stroke-dasharray:2.0,2.0;" x1="179.5" x2="693.5" y1="1346.832" y2="1346.832"/><polygon fill="#181818" points="190.5,1356.832,180.5,1360.832,190.5,1364.832,186.5,1360.832" style="stroke:#181818;stroke-width:1.0;"/><line style="stroke:#181818;stroke-width:1.0;stroke-dasharray:2.0,2.0;" x1="184.5" x2="703.5" y1="1360.832" y2="1360.832"/><polygon fill="#181818" points="61.5,1370.832,51.5,1374.832,61.5,1378.832,57.5,1374.832" style="stroke:#181818;stroke-width:1.0;"/><line style="stroke:#181818;stroke-width:1.0;stroke-dasharray:2.0,2.0;" x1="55.5" x2="173.5" y1="1374.832" y2="1374.832"/><path d="M260,1387.832 L260,1504.832 L357,1504.832 L357,1397.832 L347,1387.832 L260,1387.832 " fill="#00FFFF" style="stroke:#181818;stroke-width:0.5;"/><path d="M347,1387.832 L347,1397.832 L357,1397.832 L347,1387.832 " fill="#00FFFF" style="stroke:#181818;stroke-width:0.5;"/><text fill="#000000" font-family="sans-serif" font-size="13" lengthAdjust="spacing" textLength="44" x="266" y="1405.4004">Permit:</text><text fill="#000000" font-family="sans-serif" font-size="13" lengthAdjust="spacing" textLength="42" x="274" y="1420.7109">owner,</text><text fill="#000000" font-family="sans-serif" font-size="13" lengthAdjust="spacing" textLength="40" x="274" y="1436.0215">token,</text><text fill="#000000" font-family="sans-serif" font-size="13" lengthAdjust="spacing" textLength="54" x="274" y="1451.332">spender,</text><text fill="#000000" font-family="sans-serif" font-size="13" lengthAdjust="spacing" textLength="52" x="274" y="1466.6426">amount,</text><text fill="#000000" font-family="sans-serif" font-size="13" lengthAdjust="spacing" textLength="68" x="274" y="1481.9531">expiration,</text><text fill="#000000" font-family="sans-serif" font-size="13" lengthAdjust="spacing" textLength="38" x="274" y="1497.2637">nonce</text><path d="M507,1387.832 L507,1519.832 L619,1519.832 L619,1397.832 L609,1387.832 L507,1387.832 " fill="#00FFFF" style="stroke:#181818;stroke-width:0.5;"/><path d="M609,1387.832 L609,1397.832 L619,1397.832 L609,1387.832 " fill="#00FFFF" style="stroke:#181818;stroke-width:0.5;"/><text fill="#000000" font-family="sans-serif" font-size="13" lengthAdjust="spacing" textLength="36" x="513" y="1405.4004">Swap:</text><text fill="#000000" font-family="sans-serif" font-size="13" lengthAdjust="spacing" textLength="46" x="521" y="1420.7109">sender,</text><text fill="#000000" font-family="sans-serif" font-size="13" lengthAdjust="spacing" textLength="59" x="521" y="1436.0215">recipient,</text><text fill="#000000" font-family="sans-serif" font-size="13" lengthAdjust="spacing" textLength="60" x="521" y="1451.332">amount0,</text><text fill="#000000" font-family="sans-serif" font-size="13" lengthAdjust="spacing" textLength="60" x="521" y="1466.6426">amount1,</text><text fill="#000000" font-family="sans-serif" font-size="13" lengthAdjust="spacing" textLength="83" x="521" y="1481.9531">sqrtPriceX96,</text><text fill="#000000" font-family="sans-serif" font-size="13" lengthAdjust="spacing" textLength="56" x="521" y="1497.2637">liquidity,</text><text fill="#000000" font-family="sans-serif" font-size="13" lengthAdjust="spacing" textLength="24" x="521" y="1512.5742">tick</text><path d="M657,1387.832 L657,1504.832 L751,1504.832 L751,1397.832 L741,1387.832 L657,1387.832 " fill="#00FFFF" style="stroke:#181818;stroke-width:0.5;"/><path d="M741,1387.832 L741,1397.832 L751,1397.832 L741,1387.832 " fill="#00FFFF" style="stroke:#181818;stroke-width:0.5;"/><text fill="#000000" font-family="sans-serif" font-size="13" lengthAdjust="spacing" textLength="56" x="663" y="1405.4004">Transfer:</text><text fill="#000000" font-family="sans-serif" font-size="13" lengthAdjust="spacing" textLength="23" x="671" y="1420.7109">src,</text><text fill="#000000" font-family="sans-serif" font-size="13" lengthAdjust="spacing" textLength="24" x="671" y="1436.0215">dst,</text><text fill="#000000" font-family="sans-serif" font-size="13" lengthAdjust="spacing" textLength="25" x="671" y="1451.332">wad</text><text fill="#000000" font-family="sans-serif" font-size="13" lengthAdjust="spacing" textLength="73" x="663" y="1466.6426">Withdrawal:</text><text fill="#000000" font-family="sans-serif" font-size="13" lengthAdjust="spacing" textLength="23" x="671" y="1481.9531">src,</text><text fill="#000000" font-family="sans-serif" font-size="13" lengthAdjust="spacing" textLength="25" x="671" y="1497.2637">wad</text><path d="M808,1387.832 L808,1458.832 L885,1458.832 L885,1397.832 L875,1387.832 L808,1387.832 " fill="#00FFFF" style="stroke:#181818;stroke-width:0.5;"/><path d="M875,1387.832 L875,1397.832 L885,1397.832 L875,1387.832 " fill="#00FFFF" style="stroke:#181818;stroke-width:0.5;"/><text fill="#000000" font-family="sans-serif" font-size="13" lengthAdjust="spacing" textLength="56" x="814" y="1405.4004">Transfer:</text><text fill="#000000" font-family="sans-serif" font-size="13" lengthAdjust="spacing" textLength="34" x="822" y="1420.7109">from,</text><text fill="#000000" font-family="sans-serif" font-size="13" lengthAdjust="spacing" textLength="17" x="822" y="1436.0215">to,</text><text fill="#000000" font-family="sans-serif" font-size="13" lengthAdjust="spacing" textLength="33" x="822" y="1451.332">value</text><!--SRC=[fLN1Rjiu4BthAuZsaW2kbh8aMnQ2z90skrYqQ52dpHvo6LDaIqGc5OgAtNvzPsHJjXCREMmE8f_5UJDyRpJnsjUIyRN892YLmsAw025cgPXEiZITvccUJ4MH9afofHAU5ECACYLuCH6LocPIJAL8yiKiYWGqNbl3bg2DaNx45hKL3ooPvZpDYsJ4vfqPiQHW_tQ6ZVauPNnSygpCP-plpxSH26yTUyFNAbLv76UoKcyOj8mW0HOruBmMkW7ZwLogn2oEfmgg_Xn10kpYuflHJzArK7-rdPVkyl9vACU_E2uMaFQX10bWw8rqI-t7fqBmaGmX15vKLHHo4iVv9EFzEO84DbMrAsY-fpVMrYyJ23w6E9u8CUu32HB0m3i7JIChzj7_fCjSN9pTVRpzvvnsj9czv0A-AE9OBhAYvo98W8gOVs1NLfkU1i5LJtEjmT_Q1sbkd5t_GhveKFtTvQ1ioUHQ2bJqxDu8kro2gThHlT6cwJnjAWbLhOqy9o_r4tWvX4Q3EyWNv2vPqwkDT7Pbf4EApGzpRNxK4c6hVnZmdTkd3D7HuDgMakme-qxEqXdaoM48lOsSH38JblsQWayb8u-m8YTHJYsDnp9-IsUlhVjYg2POsixuUOFlbPOLLVde_8tJGdxIMFn_imbf0HxsYWxqqT0Fc3DON3BlmBHAEinRjPHn1TLUT3YuBVpUl3_W2VQMR04r626_A2HwlqSGJfmWs1dSXHwTu_CAwXg7mSDPk3J_86iFWmP9WCyk-uhfuRBNpYwHMk627DuEl3t2PdpDzDszdr6sJeoEAtb4YCEU-D-wXjrMiPrO1shih3z5VSJpumGhxNzM3bPd9xjc62K7LglWxlczuJ5FnmndoIicXgdmQdGu-4pTmoKo5ezQ7DMx2VmM7Zk8DbEuZ1ZR30RSz1r1cxQHE6dwtxRjWZkvRhG3-lT3o5XKDC9ZZ394qLzibsamU9E9-fpoj0FfxiCVCl3TDkbB21yyVUk8Q_tOwKhxNtsXMZoSo3qOiSbzk-tQFZ-sB2xKixYWaT7TrbUezzxJY-FSmun_oTr_ORs4z7o2kjiJvmy0]--></g></svg>
