<?xml version="1.0" encoding="us-ascii" standalone="no"?><svg xmlns:xlink="http://www.w3.org/1999/xlink" xmlns="http://www.w3.org/2000/svg" contentStyleType="text/css" height="1063px" preserveAspectRatio="none" style="width:1025px;height:1063px;background:#FFFFFF;" version="1.1" viewBox="0 0 1025 1063" width="1025px" zoomAndPan="magnify"><defs/><g><text fill="#000000" font-family="sans-serif" font-size="14" font-weight="bold" lengthAdjust="spacing" textLength="574" x="224.5" y="28.5352">0x5f99937fc8bcb99c1362d01006e6c48402c885b2e23830a8bb53242d394b2290</text><text fill="#000000" font-family="sans-serif" font-size="14" lengthAdjust="spacing" textLength="408" x="307.5" y="1052.041">mainnet, block 11925431, Thu, 25 Feb 2021 09:08:12 GMT</text><rect fill="#FFFFFF" height="564.7637" style="stroke:#181818;stroke-width:1.0;" width="10" x="233.5" y="231.3047"/><rect fill="#FFFFFF" height="29.3105" style="stroke:#181818;stroke-width:1.0;" width="10" x="430" y="275.9258"/><rect fill="#FFFFFF" height="29.3105" style="stroke:#181818;stroke-width:1.0;" width="10" x="572.5" y="349.8574"/><rect fill="#FFFFFF" height="29.3105" style="stroke:#181818;stroke-width:1.0;" width="10" x="572.5" y="454.4102"/><rect fill="#FFFFFF" height="192.4844" style="stroke:#181818;stroke-width:1.0;" width="10" x="771.5" y="574.2734"/><rect fill="#FFFFFF" height="29.3105" style="stroke:#181818;stroke-width:1.0;" width="10" x="958.5" y="618.8945"/><rect fill="#FFFFFF" height="29.3105" style="stroke:#181818;stroke-width:1.0;" width="10" x="958.5" y="708.1367"/><line style="stroke:#181818;stroke-width:0.5;stroke-dasharray:5.0,5.0;" x1="54" x2="54" y1="123.4414" y2="956.5527"/><line style="stroke:#181818;stroke-width:0.5;stroke-dasharray:5.0,5.0;" x1="238" x2="238" y1="123.4414" y2="956.5527"/><line style="stroke:#181818;stroke-width:0.5;stroke-dasharray:5.0,5.0;" x1="435" x2="435" y1="123.4414" y2="956.5527"/><line style="stroke:#181818;stroke-width:0.5;stroke-dasharray:5.0,5.0;" x1="577" x2="577" y1="123.4414" y2="956.5527"/><line style="stroke:#181818;stroke-width:0.5;stroke-dasharray:5.0,5.0;" x1="776" x2="776" y1="123.4414" y2="956.5527"/><line style="stroke:#181818;stroke-width:0.5;stroke-dasharray:5.0,5.0;" x1="963" x2="963" y1="123.4414" y2="956.5527"/><text fill="#000000" font-family="sans-serif" font-size="14" lengthAdjust="spacing" textLength="93" x="5" y="120.4883">0x1f0a..8202</text><ellipse cx="54.5" cy="55.4531" fill="#E2E2F0" rx="8" ry="8" style="stroke:#181818;stroke-width:0.5;"/><path d="M54.5,63.4531 L54.5,90.4531 M41.5,71.4531 L67.5,71.4531 M54.5,90.4531 L41.5,105.4531 M54.5,90.4531 L67.5,105.4531 " fill="none" style="stroke:#181818;stroke-width:0.5;"/><text fill="#000000" font-family="sans-serif" font-size="14" lengthAdjust="spacing" textLength="93" x="5" y="969.0879">0x1f0a..8202</text><ellipse cx="54.5" cy="980.541" fill="#E2E2F0" rx="8" ry="8" style="stroke:#181818;stroke-width:0.5;"/><path d="M54.5,988.541 L54.5,1015.541 M41.5,996.541 L67.5,996.541 M54.5,1015.541 L41.5,1030.541 M54.5,1015.541 L67.5,1030.541 " fill="none" style="stroke:#181818;stroke-width:0.5;"/><rect fill="#E2E2F0" height="79.9531" rx="2.5" ry="2.5" style="stroke:#181818;stroke-width:0.5;" width="243" x="117" y="42.4883"/><text fill="#000000" font-family="sans-serif" font-size="14" font-style="italic" lengthAdjust="spacing" textLength="94" x="191.5" y="63.0234">&#171;Uniswap V1&#187;</text><text fill="#000000" font-family="sans-serif" font-size="14" font-style="italic" lengthAdjust="spacing" textLength="74" x="201.5" y="79.5117">&#171;(UNI-V1)&#187;</text><text fill="#000000" font-family="sans-serif" font-size="14" font-style="italic" lengthAdjust="spacing" textLength="229" x="124" y="96">&#171;Uniswap Exchange Interface V1&#187;</text><text fill="#000000" font-family="sans-serif" font-size="14" lengthAdjust="spacing" textLength="97" x="190" y="112.4883">0x97de..8126</text><rect fill="#E2E2F0" height="79.9531" rx="2.5" ry="2.5" style="stroke:#181818;stroke-width:0.5;" width="243" x="117" y="955.5527"/><text fill="#000000" font-family="sans-serif" font-size="14" font-style="italic" lengthAdjust="spacing" textLength="94" x="191.5" y="976.0879">&#171;Uniswap V1&#187;</text><text fill="#000000" font-family="sans-serif" font-size="14" font-style="italic" lengthAdjust="spacing" textLength="74" x="201.5" y="992.5762">&#171;(UNI-V1)&#187;</text><text fill="#000000" font-family="sans-serif" font-size="14" font-style="italic" lengthAdjust="spacing" textLength="229" x="124" y="1009.0645">&#171;Uniswap Exchange Interface V1&#187;</text><text fill="#000000" font-family="sans-serif" font-size="14" lengthAdjust="spacing" textLength="97" x="190" y="1025.5527">0x97de..8126</text><rect fill="#E2E2F0" height="46.9766" rx="2.5" ry="2.5" style="stroke:#181818;stroke-width:0.5;" width="130" x="370" y="75.4648"/><text fill="#000000" font-family="sans-serif" font-size="14" font-style="italic" lengthAdjust="spacing" textLength="116" x="377" y="96">&#171;Vyper_contract&#187;</text><text fill="#000000" font-family="sans-serif" font-size="14" lengthAdjust="spacing" textLength="95" x="387.5" y="112.4883">0xc0a4..4d95</text><rect fill="#E2E2F0" height="46.9766" rx="2.5" ry="2.5" style="stroke:#181818;stroke-width:0.5;" width="130" x="370" y="955.5527"/><text fill="#000000" font-family="sans-serif" font-size="14" font-style="italic" lengthAdjust="spacing" textLength="116" x="377" y="976.0879">&#171;Vyper_contract&#187;</text><text fill="#000000" font-family="sans-serif" font-size="14" lengthAdjust="spacing" textLength="95" x="387.5" y="992.5762">0xc0a4..4d95</text><rect fill="#E2E2F0" height="79.9531" rx="2.5" ry="2.5" style="stroke:#181818;stroke-width:0.5;" width="135" x="510" y="42.4883"/><text fill="#000000" font-family="sans-serif" font-size="14" font-style="italic" lengthAdjust="spacing" textLength="78" x="538.5" y="63.0234">&#171;USD Coin&#187;</text><text fill="#000000" font-family="sans-serif" font-size="14" font-style="italic" lengthAdjust="spacing" textLength="62" x="546.5" y="79.5117">&#171;(USDC)&#187;</text><text fill="#000000" font-family="sans-serif" font-size="14" font-style="italic" lengthAdjust="spacing" textLength="121" x="517" y="96">&#171;FiatTokenProxy&#187;</text><text fill="#000000" font-family="sans-serif" font-size="14" lengthAdjust="spacing" textLength="96" x="529.5" y="112.4883">0xa0b8..eb48</text><rect fill="#E2E2F0" height="79.9531" rx="2.5" ry="2.5" style="stroke:#181818;stroke-width:0.5;" width="135" x="510" y="955.5527"/><text fill="#000000" font-family="sans-serif" font-size="14" font-style="italic" lengthAdjust="spacing" textLength="78" x="538.5" y="976.0879">&#171;USD Coin&#187;</text><text fill="#000000" font-family="sans-serif" font-size="14" font-style="italic" lengthAdjust="spacing" textLength="62" x="546.5" y="992.5762">&#171;(USDC)&#187;</text><text fill="#000000" font-family="sans-serif" font-size="14" font-style="italic" lengthAdjust="spacing" textLength="121" x="517" y="1009.0645">&#171;FiatTokenProxy&#187;</text><text fill="#000000" font-family="sans-serif" font-size="14" lengthAdjust="spacing" textLength="96" x="529.5" y="1025.5527">0xa0b8..eb48</text><rect fill="#E2E2F0" height="79.9531" rx="2.5" ry="2.5" style="stroke:#181818;stroke-width:0.5;" width="243" x="655" y="42.4883"/><text fill="#000000" font-family="sans-serif" font-size="14" font-style="italic" lengthAdjust="spacing" textLength="94" x="729.5" y="63.0234">&#171;Uniswap V1&#187;</text><text fill="#000000" font-family="sans-serif" font-size="14" font-style="italic" lengthAdjust="spacing" textLength="74" x="739.5" y="79.5117">&#171;(UNI-V1)&#187;</text><text fill="#000000" font-family="sans-serif" font-size="14" font-style="italic" lengthAdjust="spacing" textLength="229" x="662" y="96">&#171;Uniswap Exchange Interface V1&#187;</text><text fill="#000000" font-family="sans-serif" font-size="14" lengthAdjust="spacing" textLength="95" x="729" y="112.4883">0x9a7a..a621</text><rect fill="#E2E2F0" height="79.9531" rx="2.5" ry="2.5" style="stroke:#181818;stroke-width:0.5;" width="243" x="655" y="955.5527"/><text fill="#000000" font-family="sans-serif" font-size="14" font-style="italic" lengthAdjust="spacing" textLength="94" x="729.5" y="976.0879">&#171;Uniswap V1&#187;</text><text fill="#000000" font-family="sans-serif" font-size="14" font-style="italic" lengthAdjust="spacing" textLength="74" x="739.5" y="992.5762">&#171;(UNI-V1)&#187;</text><text fill="#000000" font-family="sans-serif" font-size="14" font-style="italic" lengthAdjust="spacing" textLength="229" x="662" y="1009.0645">&#171;Uniswap Exchange Interface V1&#187;</text><text fill="#000000" font-family="sans-serif" font-size="14" lengthAdjust="spacing" textLength="95" x="729" y="1025.5527">0x9a7a..a621</text><rect fill="#E2E2F0" height="79.9531" rx="2.5" ry="2.5" style="stroke:#181818;stroke-width:0.5;" width="111" x="908" y="42.4883"/><text fill="#000000" font-family="sans-serif" font-size="14" font-style="italic" lengthAdjust="spacing" textLength="97" x="915" y="63.0234">&#171;Matic Token&#187;</text><text fill="#000000" font-family="sans-serif" font-size="14" font-style="italic" lengthAdjust="spacing" textLength="69" x="929" y="79.5117">&#171;(MATIC)&#187;</text><text fill="#000000" font-family="sans-serif" font-size="14" font-style="italic" lengthAdjust="spacing" textLength="93" x="917" y="96">&#171;MaticToken&#187;</text><text fill="#000000" font-family="sans-serif" font-size="14" lengthAdjust="spacing" textLength="96" x="915.5" y="112.4883">0x7d1a..ebb0</text><rect fill="#E2E2F0" height="79.9531" rx="2.5" ry="2.5" style="stroke:#181818;stroke-width:0.5;" width="111" x="908" y="955.5527"/><text fill="#000000" font-family="sans-serif" font-size="14" font-style="italic" lengthAdjust="spacing" textLength="97" x="915" y="976.0879">&#171;Matic Token&#187;</text><text fill="#000000" font-family="sans-serif" font-size="14" font-style="italic" lengthAdjust="spacing" textLength="69" x="929" y="992.5762">&#171;(MATIC)&#187;</text><text fill="#000000" font-family="sans-serif" font-size="14" font-style="italic" lengthAdjust="spacing" textLength="93" x="917" y="1009.0645">&#171;MaticToken&#187;</text><text fill="#000000" font-family="sans-serif" font-size="14" lengthAdjust="spacing" textLength="96" x="915.5" y="1025.5527">0x7d1a..ebb0</text><rect fill="#FFFFFF" height="564.7637" style="stroke:#181818;stroke-width:1.0;" width="10" x="233.5" y="231.3047"/><rect fill="#FFFFFF" height="29.3105" style="stroke:#181818;stroke-width:1.0;" width="10" x="430" y="275.9258"/><rect fill="#FFFFFF" height="29.3105" style="stroke:#181818;stroke-width:1.0;" width="10" x="572.5" y="349.8574"/><rect fill="#FFFFFF" height="29.3105" style="stroke:#181818;stroke-width:1.0;" width="10" x="572.5" y="454.4102"/><rect fill="#FFFFFF" height="192.4844" style="stroke:#181818;stroke-width:1.0;" width="10" x="771.5" y="574.2734"/><rect fill="#FFFFFF" height="29.3105" style="stroke:#181818;stroke-width:1.0;" width="10" x="958.5" y="618.8945"/><rect fill="#FFFFFF" height="29.3105" style="stroke:#181818;stroke-width:1.0;" width="10" x="958.5" y="708.1367"/><polygon fill="#181818" points="221.5,227.3047,231.5,231.3047,221.5,235.3047,225.5,231.3047" style="stroke:#181818;stroke-width:1.0;"/><line style="stroke:#181818;stroke-width:1.0;" x1="54.5" x2="227.5" y1="231.3047" y2="231.3047"/><text fill="#000000" font-family="sans-serif" font-size="13" lengthAdjust="spacing" textLength="160" x="61.5" y="150.0098">tokenToTokenSwapInput(</text><text fill="#000000" font-family="sans-serif" font-size="13" lengthAdjust="spacing" textLength="81" x="69.5" y="165.3203">tokens_sold,</text><text fill="#000000" font-family="sans-serif" font-size="13" lengthAdjust="spacing" textLength="130" x="69.5" y="180.6309">min_tokens_bought,</text><text fill="#000000" font-family="sans-serif" font-size="13" lengthAdjust="spacing" textLength="107" x="69.5" y="195.9414">min_eth_bought,</text><text fill="#000000" font-family="sans-serif" font-size="13" lengthAdjust="spacing" textLength="57" x="69.5" y="211.252">deadline,</text><text fill="#000000" font-family="sans-serif" font-size="13" lengthAdjust="spacing" textLength="75" x="69.5" y="226.5625">token_addr)</text><polygon fill="#181818" points="418,271.9258,428,275.9258,418,279.9258,422,275.9258" style="stroke:#181818;stroke-width:1.0;"/><line style="stroke:#181818;stroke-width:1.0;" x1="243.5" x2="424" y1="275.9258" y2="275.9258"/><text fill="#000000" font-family="sans-serif" font-size="13" lengthAdjust="spacing" textLength="84" x="250.5" y="255.873">getExchange(</text><text fill="#000000" font-family="sans-serif" font-size="13" lengthAdjust="spacing" textLength="40" x="258.5" y="271.1836">token)</text><polygon fill="#181818" points="254.5,301.2363,244.5,305.2363,254.5,309.2363,250.5,305.2363" style="stroke:#181818;stroke-width:1.0;"/><line style="stroke:#181818;stroke-width:1.0;stroke-dasharray:2.0,2.0;" x1="248.5" x2="434" y1="305.2363" y2="305.2363"/><text fill="#000000" font-family="sans-serif" font-size="13" lengthAdjust="spacing" textLength="21" x="260.5" y="300.4941">out</text><polygon fill="#181818" points="560.5,345.8574,570.5,349.8574,560.5,353.8574,564.5,349.8574" style="stroke:#181818;stroke-width:1.0;"/><line style="stroke:#181818;stroke-width:1.0;" x1="243.5" x2="566.5" y1="349.8574" y2="349.8574"/><text fill="#000000" font-family="sans-serif" font-size="13" lengthAdjust="spacing" textLength="67" x="250.5" y="329.8047">balanceOf(</text><text fill="#000000" font-family="sans-serif" font-size="13" lengthAdjust="spacing" textLength="49" x="258.5" y="345.1152">_owner)</text><polygon fill="#181818" points="254.5,375.168,244.5,379.168,254.5,383.168,250.5,379.168" style="stroke:#181818;stroke-width:1.0;"/><line style="stroke:#181818;stroke-width:1.0;stroke-dasharray:2.0,2.0;" x1="248.5" x2="576.5" y1="379.168" y2="379.168"/><text fill="#000000" font-family="sans-serif" font-size="13" lengthAdjust="spacing" textLength="21" x="260.5" y="374.4258">out</text><polygon fill="#181818" points="560.5,450.4102,570.5,454.4102,560.5,458.4102,564.5,454.4102" style="stroke:#181818;stroke-width:1.0;"/><line style="stroke:#181818;stroke-width:1.0;" x1="243.5" x2="566.5" y1="454.4102" y2="454.4102"/><text fill="#000000" font-family="sans-serif" font-size="13" lengthAdjust="spacing" textLength="85" x="250.5" y="403.7363">transferFrom(</text><text fill="#000000" font-family="sans-serif" font-size="13" lengthAdjust="spacing" textLength="41" x="258.5" y="419.0469">_from,</text><text fill="#000000" font-family="sans-serif" font-size="13" lengthAdjust="spacing" textLength="24" x="258.5" y="434.3574">_to,</text><text fill="#000000" font-family="sans-serif" font-size="13" lengthAdjust="spacing" textLength="44" x="258.5" y="449.668">_value)</text><polygon fill="#181818" points="254.5,479.7207,244.5,483.7207,254.5,487.7207,250.5,483.7207" style="stroke:#181818;stroke-width:1.0;"/><line style="stroke:#181818;stroke-width:1.0;stroke-dasharray:2.0,2.0;" x1="248.5" x2="576.5" y1="483.7207" y2="483.7207"/><text fill="#000000" font-family="sans-serif" font-size="13" lengthAdjust="spacing" textLength="21" x="260.5" y="478.9785">out</text><polygon fill="#181818" points="759.5,570.2734,769.5,574.2734,759.5,578.2734,763.5,574.2734" style="stroke:#181818;stroke-width:1.0;"/><line style="stroke:#181818;stroke-width:1.0;" x1="243.5" x2="765.5" y1="574.2734" y2="574.2734"/><text fill="#000000" font-family="sans-serif" font-size="13" lengthAdjust="spacing" textLength="164" x="250.5" y="508.2891">ethToTokenTransferInput(</text><text fill="#000000" font-family="sans-serif" font-size="13" lengthAdjust="spacing" textLength="78" x="258.5" y="523.5996">min_tokens,</text><text fill="#000000" font-family="sans-serif" font-size="13" lengthAdjust="spacing" textLength="57" x="258.5" y="538.9102">deadline,</text><text fill="#000000" font-family="sans-serif" font-size="13" lengthAdjust="spacing" textLength="59" x="258.5" y="554.2207">recipient)</text><text fill="#000000" font-family="sans-serif" font-size="13" lengthAdjust="spacing" textLength="65" x="250.5" y="569.5313">0.001 ETH</text><polygon fill="#181818" points="946.5,614.8945,956.5,618.8945,946.5,622.8945,950.5,618.8945" style="stroke:#181818;stroke-width:1.0;"/><line style="stroke:#181818;stroke-width:1.0;" x1="781.5" x2="952.5" y1="618.8945" y2="618.8945"/><text fill="#000000" font-family="sans-serif" font-size="13" lengthAdjust="spacing" textLength="67" x="788.5" y="598.8418">balanceOf(</text><text fill="#000000" font-family="sans-serif" font-size="13" lengthAdjust="spacing" textLength="42" x="796.5" y="614.1523">owner)</text><polygon fill="#181818" points="792.5,644.2051,782.5,648.2051,792.5,652.2051,788.5,648.2051" style="stroke:#181818;stroke-width:1.0;"/><line style="stroke:#181818;stroke-width:1.0;stroke-dasharray:2.0,2.0;" x1="786.5" x2="962.5" y1="648.2051" y2="648.2051"/><text fill="#000000" font-family="sans-serif" font-size="13" lengthAdjust="spacing" textLength="5" x="798.5" y="643.4629">?</text><polygon fill="#181818" points="946.5,704.1367,956.5,708.1367,946.5,712.1367,950.5,708.1367" style="stroke:#181818;stroke-width:1.0;"/><line style="stroke:#181818;stroke-width:1.0;" x1="781.5" x2="952.5" y1="708.1367" y2="708.1367"/><text fill="#000000" font-family="sans-serif" font-size="13" lengthAdjust="spacing" textLength="53" x="788.5" y="672.7734">transfer(</text><text fill="#000000" font-family="sans-serif" font-size="13" lengthAdjust="spacing" textLength="17" x="796.5" y="688.084">to,</text><text fill="#000000" font-family="sans-serif" font-size="13" lengthAdjust="spacing" textLength="37" x="796.5" y="703.3945">value)</text><polygon fill="#181818" points="792.5,733.4473,782.5,737.4473,792.5,741.4473,788.5,737.4473" style="stroke:#181818;stroke-width:1.0;"/><line style="stroke:#181818;stroke-width:1.0;stroke-dasharray:2.0,2.0;" x1="786.5" x2="962.5" y1="737.4473" y2="737.4473"/><text fill="#000000" font-family="sans-serif" font-size="13" lengthAdjust="spacing" textLength="5" x="798.5" y="732.7051">?</text><polygon fill="#181818" points="254.5,762.7578,244.5,766.7578,254.5,770.7578,250.5,766.7578" style="stroke:#181818;stroke-width:1.0;"/><line style="stroke:#181818;stroke-width:1.0;stroke-dasharray:2.0,2.0;" x1="248.5" x2="775.5" y1="766.7578" y2="766.7578"/><text fill="#000000" font-family="sans-serif" font-size="13" lengthAdjust="spacing" textLength="21" x="260.5" y="762.0156">out</text><polygon fill="#181818" points="65.5,792.0684,55.5,796.0684,65.5,800.0684,61.5,796.0684" style="stroke:#181818;stroke-width:1.0;"/><line style="stroke:#181818;stroke-width:1.0;stroke-dasharray:2.0,2.0;" x1="59.5" x2="237.5" y1="796.0684" y2="796.0684"/><text fill="#000000" font-family="sans-serif" font-size="13" lengthAdjust="spacing" textLength="21" x="71.5" y="791.3262">out</text><path d="M183,809.0684 L183,941.0684 L293,941.0684 L293,819.0684 L283,809.0684 L183,809.0684 " fill="#00FFFF" style="stroke:#181818;stroke-width:0.5;"/><path d="M283,809.0684 L283,819.0684 L293,819.0684 L283,809.0684 " fill="#00FFFF" style="stroke:#181818;stroke-width:0.5;"/><text fill="#000000" font-family="sans-serif" font-size="13" lengthAdjust="spacing" textLength="80" x="189" y="826.6367">EthPurchase:</text><text fill="#000000" font-family="sans-serif" font-size="13" lengthAdjust="spacing" textLength="39" x="197" y="841.9473">buyer,</text><text fill="#000000" font-family="sans-serif" font-size="13" lengthAdjust="spacing" textLength="81" x="197" y="857.2578">tokens_sold,</text><text fill="#000000" font-family="sans-serif" font-size="13" lengthAdjust="spacing" textLength="72" x="197" y="872.5684">eth_bought</text><text fill="#000000" font-family="sans-serif" font-size="13" lengthAdjust="spacing" textLength="80" x="189" y="887.8789">EthPurchase:</text><text fill="#000000" font-family="sans-serif" font-size="13" lengthAdjust="spacing" textLength="39" x="197" y="903.1895">buyer,</text><text fill="#000000" font-family="sans-serif" font-size="13" lengthAdjust="spacing" textLength="81" x="197" y="918.5">tokens_sold,</text><text fill="#000000" font-family="sans-serif" font-size="13" lengthAdjust="spacing" textLength="72" x="197" y="933.8105">eth_bought</text><path d="M539,809.0684 L539,880.0684 L616,880.0684 L616,819.0684 L606,809.0684 L539,809.0684 " fill="#00FFFF" style="stroke:#181818;stroke-width:0.5;"/><path d="M606,809.0684 L606,819.0684 L616,819.0684 L606,809.0684 " fill="#00FFFF" style="stroke:#181818;stroke-width:0.5;"/><text fill="#000000" font-family="sans-serif" font-size="13" lengthAdjust="spacing" textLength="56" x="545" y="826.6367">Transfer:</text><text fill="#000000" font-family="sans-serif" font-size="13" lengthAdjust="spacing" textLength="34" x="553" y="841.9473">from,</text><text fill="#000000" font-family="sans-serif" font-size="13" lengthAdjust="spacing" textLength="17" x="553" y="857.2578">to,</text><text fill="#000000" font-family="sans-serif" font-size="13" lengthAdjust="spacing" textLength="33" x="553" y="872.5684">value</text><path d="M714,809.0684 L714,941.0684 L838,941.0684 L838,819.0684 L828,809.0684 L714,809.0684 " fill="#00FFFF" style="stroke:#181818;stroke-width:0.5;"/><path d="M828,809.0684 L828,819.0684 L838,819.0684 L828,809.0684 " fill="#00FFFF" style="stroke:#181818;stroke-width:0.5;"/><text fill="#000000" font-family="sans-serif" font-size="13" lengthAdjust="spacing" textLength="99" x="720" y="826.6367">TokenPurchase:</text><text fill="#000000" font-family="sans-serif" font-size="13" lengthAdjust="spacing" textLength="39" x="728" y="841.9473">buyer,</text><text fill="#000000" font-family="sans-serif" font-size="13" lengthAdjust="spacing" textLength="58" x="728" y="857.2578">eth_sold,</text><text fill="#000000" font-family="sans-serif" font-size="13" lengthAdjust="spacing" textLength="95" x="728" y="872.5684">tokens_bought</text><text fill="#000000" font-family="sans-serif" font-size="13" lengthAdjust="spacing" textLength="99" x="720" y="887.8789">TokenPurchase:</text><text fill="#000000" font-family="sans-serif" font-size="13" lengthAdjust="spacing" textLength="39" x="728" y="903.1895">buyer,</text><text fill="#000000" font-family="sans-serif" font-size="13" lengthAdjust="spacing" textLength="58" x="728" y="918.5">eth_sold,</text><text fill="#000000" font-family="sans-serif" font-size="13" lengthAdjust="spacing" textLength="95" x="728" y="933.8105">tokens_bought</text><path d="M925,809.0684 L925,880.0684 L1002,880.0684 L1002,819.0684 L992,809.0684 L925,809.0684 " fill="#00FFFF" style="stroke:#181818;stroke-width:0.5;"/><path d="M992,809.0684 L992,819.0684 L1002,819.0684 L992,809.0684 " fill="#00FFFF" style="stroke:#181818;stroke-width:0.5;"/><text fill="#000000" font-family="sans-serif" font-size="13" lengthAdjust="spacing" textLength="56" x="931" y="826.6367">Transfer:</text><text fill="#000000" font-family="sans-serif" font-size="13" lengthAdjust="spacing" textLength="34" x="939" y="841.9473">from,</text><text fill="#000000" font-family="sans-serif" font-size="13" lengthAdjust="spacing" textLength="17" x="939" y="857.2578">to,</text><text fill="#000000" font-family="sans-serif" font-size="13" lengthAdjust="spacing" textLength="33" x="939" y="872.5684">value</text><!--SRC=[hLHTJzim57tthxXYBo2Lp77IDeagfecFhGziI0IUa2hRSMX4iJlNWVBlPpiVBIre0ksbzR7lFVVut1kRoYm4uFMmJDCq6fSyOPobAG-Z4IbmYF58Z7YSn9Zm91ao8aYKH9WcZ0qZ4fCYIcD6I8eHudHfAYNXaLPI2ZC0jb3y0S8m9SCu2WUGp-i1a25S20O4an1mck4a2mdykCmHvKPfEC3hiCGq218RSG1q1Guw06X9jQbujQJIkBXqN0WR5vAHZtFG0PXCRcIrUgPBk0rFJYQJmvjVq-FRyCYjkvFpDPzJUIzWAetG9UN21- -Mu9Z6GH0NwT2NSD01M-BsPIdqZ2jfj1M-dqanIu90i3ZncGuwuCHTdy6fgcGZxVhir0kxgAZ9rOEGLrgjN_RvKZgsfj0H2PlBMkZ0_xpik0YfayomB-6W0xR49RLnuENv6fVVysaZsv-q1mZrhJe-wTkHWN77kV9HrrRFL2vhStWdeJbPpLPgKGmSVgpahDrZghwVctvNcFdsLY5eiQYa6FGiCreK-iWDKVL4ZUZBetuihAQkVndS2zEvib6obTv58YrChIMeshnYwlgP0QCBAhduNNgUcNgMObj75_Xl8Zj8SbKAVQ7LOyDLsfM_eJMb-N-YYrfyWBqRamoiWMqByhREfWqRs_VDrS8EI2MaERgJEC0uXFFyvvRDRG7K3wIjsatEhZcxtdHndVflxx1qphITyhfsdTZdsh9aQucaij7gIUZDW_65_gafEZVpgrhRcLY9306m-aNe0Nezf1Pk9l4J6K8Mu0GWz1KsGlh7eH7IDSXn-X7mbExNN_eTajwwbiI_9M-fSt8wQQy-ja_bl2scVpi-UAE_]--></g></svg>
