<?xml version="1.0" encoding="us-ascii" standalone="no"?><svg xmlns:xlink="http://www.w3.org/1999/xlink" xmlns="http://www.w3.org/2000/svg" contentStyleType="text/css" height="1171px" preserveAspectRatio="none" style="width:1025px;height:1171px;background:#FFFFFF;" version="1.1" viewBox="0 0 1025 1171" width="1025px" zoomAndPan="magnify"><defs/><g><text fill="#000000" font-family="sans-serif" font-size="14" font-weight="bold" lengthAdjust="spacing" textLength="574" x="224.5" y="28.5352">0x5f99937fc8bcb99c1362d01006e6c48402c885b2e23830a8bb53242d394b2290</text><text fill="#000000" font-family="sans-serif" font-size="14" lengthAdjust="spacing" textLength="408" x="307.5" y="1159.2148">mainnet, block 11925431, Thu, 25 Feb 2021 09:08:12 GMT</text><rect fill="#FFFFFF" height="671.9375" style="stroke:#181818;stroke-width:1.0;" width="10" x="233.5" y="231.3047"/><rect fill="#FFFFFF" height="44.6211" style="stroke:#181818;stroke-width:1.0;" width="10" x="430" y="275.9258"/><rect fill="#FFFFFF" height="44.6211" style="stroke:#181818;stroke-width:1.0;" width="10" x="572.5" y="365.168"/><rect fill="#FFFFFF" height="44.6211" style="stroke:#181818;stroke-width:1.0;" width="10" x="572.5" y="485.0313"/><rect fill="#FFFFFF" height="238.416" style="stroke:#181818;stroke-width:1.0;" width="10" x="771.5" y="620.2051"/><rect fill="#FFFFFF" height="44.6211" style="stroke:#181818;stroke-width:1.0;" width="10" x="958.5" y="664.8262"/><rect fill="#FFFFFF" height="44.6211" style="stroke:#181818;stroke-width:1.0;" width="10" x="958.5" y="769.3789"/><line style="stroke:#181818;stroke-width:0.5;stroke-dasharray:5.0,5.0;" x1="54" x2="54" y1="123.4414" y2="1063.7266"/><line style="stroke:#181818;stroke-width:0.5;stroke-dasharray:5.0,5.0;" x1="238" x2="238" y1="123.4414" y2="1063.7266"/><line style="stroke:#181818;stroke-width:0.5;stroke-dasharray:5.0,5.0;" x1="435" x2="435" y1="123.4414" y2="1063.7266"/><line style="stroke:#181818;stroke-width:0.5;stroke-dasharray:5.0,5.0;" x1="577" x2="577" y1="123.4414" y2="1063.7266"/><line style="stroke:#181818;stroke-width:0.5;stroke-dasharray:5.0,5.0;" x1="776" x2="776" y1="123.4414" y2="1063.7266"/><line style="stroke:#181818;stroke-width:0.5;stroke-dasharray:5.0,5.0;" x1="963" x2="963" y1="123.4414" y2="1063.7266"/><text fill="#000000" font-family="sans-serif" font-size="14" lengthAdjust="spacing" textLength="93" x="5" y="120.4883">0x1f0a..8202</text><ellipse cx="54.5" cy="55.4531" fill="#E2E2F0" rx="8" ry="8" style="stroke:#181818;stroke-width:0.5;"/><path d="M54.5,63.4531 L54.5,90.4531 M41.5,71.4531 L67.5,71.4531 M54.5,90.4531 L41.5,105.4531 M54.5,90.4531 L67.5,105.4531 " fill="none" style="stroke:#181818;stroke-width:0.5;"/><text fill="#000000" font-family="sans-serif" font-size="14" lengthAdjust="spacing" textLength="93" x="5" y="1076.2617">0x1f0a..8202</text><ellipse cx="54.5" cy="1087.7148" fill="#E2E2F0" rx="8" ry="8" style="stroke:#181818;stroke-width:0.5;"/><path d="M54.5,1095.7148 L54.5,1122.7148 M41.5,1103.7148 L67.5,1103.7148 M54.5,1122.7148 L41.5,1137.7148 M54.5,1122.7148 L67.5,1137.7148 " fill="none" style="stroke:#181818;stroke-width:0.5;"/><rect fill="#E2E2F0" height="79.9531" rx="2.5" ry="2.5" style="stroke:#181818;stroke-width:0.5;" width="243" x="117" y="42.4883"/><text fill="#000000" font-family="sans-serif" font-size="14" font-style="italic" lengthAdjust="spacing" textLength="94" x="191.5" y="63.0234">&#171;Uniswap V1&#187;</text><text fill="#000000" font-family="sans-serif" font-size="14" font-style="italic" lengthAdjust="spacing" textLength="74" x="201.5" y="79.5117">&#171;(UNI-V1)&#187;</text><text fill="#000000" font-family="sans-serif" font-size="14" font-style="italic" lengthAdjust="spacing" textLength="229" x="124" y="96">&#171;Uniswap Exchange Interface V1&#187;</text><text fill="#000000" font-family="sans-serif" font-size="14" lengthAdjust="spacing" textLength="97" x="190" y="112.4883">0x97de..8126</text><rect fill="#E2E2F0" height="79.9531" rx="2.5" ry="2.5" style="stroke:#181818;stroke-width:0.5;" width="243" x="117" y="1062.7266"/><text fill="#000000" font-family="sans-serif" font-size="14" font-style="italic" lengthAdjust="spacing" textLength="94" x="191.5" y="1083.2617">&#171;Uniswap V1&#187;</text><text fill="#000000" font-family="sans-serif" font-size="14" font-style="italic" lengthAdjust="spacing" textLength="74" x="201.5" y="1099.75">&#171;(UNI-V1)&#187;</text><text fill="#000000" font-family="sans-serif" font-size="14" font-style="italic" lengthAdjust="spacing" textLength="229" x="124" y="1116.2383">&#171;Uniswap Exchange Interface V1&#187;</text><text fill="#000000" font-family="sans-serif" font-size="14" lengthAdjust="spacing" textLength="97" x="190" y="1132.7266">0x97de..8126</text><rect fill="#E2E2F0" height="46.9766" rx="2.5" ry="2.5" style="stroke:#181818;stroke-width:0.5;" width="130" x="370" y="75.4648"/><text fill="#000000" font-family="sans-serif" font-size="14" font-style="italic" lengthAdjust="spacing" textLength="116" x="377" y="96">&#171;Vyper_contract&#187;</text><text fill="#000000" font-family="sans-serif" font-size="14" lengthAdjust="spacing" textLength="95" x="387.5" y="112.4883">0xc0a4..4d95</text><rect fill="#E2E2F0" height="46.9766" rx="2.5" ry="2.5" style="stroke:#181818;stroke-width:0.5;" width="130" x="370" y="1062.7266"/><text fill="#000000" font-family="sans-serif" font-size="14" font-style="italic" lengthAdjust="spacing" textLength="116" x="377" y="1083.2617">&#171;Vyper_contract&#187;</text><text fill="#000000" font-family="sans-serif" font-size="14" lengthAdjust="spacing" textLength="95" x="387.5" y="1099.75">0xc0a4..4d95</text><rect fill="#E2E2F0" height="79.9531" rx="2.5" ry="2.5" style="stroke:#181818;stroke-width:0.5;" width="135" x="510" y="42.4883"/><text fill="#000000" font-family="sans-serif" font-size="14" font-style="italic" lengthAdjust="spacing" textLength="78" x="538.5" y="63.0234">&#171;USD Coin&#187;</text><text fill="#000000" font-family="sans-serif" font-size="14" font-style="italic" lengthAdjust="spacing" textLength="62" x="546.5" y="79.5117">&#171;(USDC)&#187;</text><text fill="#000000" font-family="sans-serif" font-size="14" font-style="italic" lengthAdjust="spacing" textLength="121" x="517" y="96">&#171;FiatTokenProxy&#187;</text><text fill="#000000" font-family="sans-serif" font-size="14" lengthAdjust="spacing" textLength="96" x="529.5" y="112.4883">0xa0b8..eb48</text><rect fill="#E2E2F0" height="79.9531" rx="2.5" ry="2.5" style="stroke:#181818;stroke-width:0.5;" width="135" x="510" y="1062.7266"/><text fill="#000000" font-family="sans-serif" font-size="14" font-style="italic" lengthAdjust="spacing" textLength="78" x="538.5" y="1083.2617">&#171;USD Coin&#187;</text><text fill="#000000" font-family="sans-serif" font-size="14" font-style="italic" lengthAdjust="spacing" textLength="62" x="546.5" y="1099.75">&#171;(USDC)&#187;</text><text fill="#000000" font-family="sans-serif" font-size="14" font-style="italic" lengthAdjust="spacing" textLength="121" x="517" y="1116.2383">&#171;FiatTokenProxy&#187;</text><text fill="#000000" font-family="sans-serif" font-size="14" lengthAdjust="spacing" textLength="96" x="529.5" y="1132.7266">0xa0b8..eb48</text><rect fill="#E2E2F0" height="79.9531" rx="2.5" ry="2.5" style="stroke:#181818;stroke-width:0.5;" width="243" x="655" y="42.4883"/><text fill="#000000" font-family="sans-serif" font-size="14" font-style="italic" lengthAdjust="spacing" textLength="94" x="729.5" y="63.0234">&#171;Uniswap V1&#187;</text><text fill="#000000" font-family="sans-serif" font-size="14" font-style="italic" lengthAdjust="spacing" textLength="74" x="739.5" y="79.5117">&#171;(UNI-V1)&#187;</text><text fill="#000000" font-family="sans-serif" font-size="14" font-style="italic" lengthAdjust="spacing" textLength="229" x="662" y="96">&#171;Uniswap Exchange Interface V1&#187;</text><text fill="#000000" font-family="sans-serif" font-size="14" lengthAdjust="spacing" textLength="95" x="729" y="112.4883">0x9a7a..a621</text><rect fill="#E2E2F0" height="79.9531" rx="2.5" ry="2.5" style="stroke:#181818;stroke-width:0.5;" width="243" x="655" y="1062.7266"/><text fill="#000000" font-family="sans-serif" font-size="14" font-style="italic" lengthAdjust="spacing" textLength="94" x="729.5" y="1083.2617">&#171;Uniswap V1&#187;</text><text fill="#000000" font-family="sans-serif" font-size="14" font-style="italic" lengthAdjust="spacing" textLength="74" x="739.5" y="1099.75">&#171;(UNI-V1)&#187;</text><text fill="#000000" font-family="sans-serif" font-size="14" font-style="italic" lengthAdjust="spacing" textLength="229" x="662" y="1116.2383">&#171;Uniswap Exchange Interface V1&#187;</text><text fill="#000000" font-family="sans-serif" font-size="14" lengthAdjust="spacing" textLength="95" x="729" y="1132.7266">0x9a7a..a621</text><rect fill="#E2E2F0" height="79.9531" rx="2.5" ry="2.5" style="stroke:#181818;stroke-width:0.5;" width="111" x="908" y="42.4883"/><text fill="#000000" font-family="sans-serif" font-size="14" font-style="italic" lengthAdjust="spacing" textLength="97" x="915" y="63.0234">&#171;Matic Token&#187;</text><text fill="#000000" font-family="sans-serif" font-size="14" font-style="italic" lengthAdjust="spacing" textLength="69" x="929" y="79.5117">&#171;(MATIC)&#187;</text><text fill="#000000" font-family="sans-serif" font-size="14" font-style="italic" lengthAdjust="spacing" textLength="93" x="917" y="96">&#171;MaticToken&#187;</text><text fill="#000000" font-family="sans-serif" font-size="14" lengthAdjust="spacing" textLength="96" x="915.5" y="112.4883">0x7d1a..ebb0</text><rect fill="#E2E2F0" height="79.9531" rx="2.5" ry="2.5" style="stroke:#181818;stroke-width:0.5;" width="111" x="908" y="1062.7266"/><text fill="#000000" font-family="sans-serif" font-size="14" font-style="italic" lengthAdjust="spacing" textLength="97" x="915" y="1083.2617">&#171;Matic Token&#187;</text><text fill="#000000" font-family="sans-serif" font-size="14" font-style="italic" lengthAdjust="spacing" textLength="69" x="929" y="1099.75">&#171;(MATIC)&#187;</text><text fill="#000000" font-family="sans-serif" font-size="14" font-style="italic" lengthAdjust="spacing" textLength="93" x="917" y="1116.2383">&#171;MaticToken&#187;</text><text fill="#000000" font-family="sans-serif" font-size="14" lengthAdjust="spacing" textLength="96" x="915.5" y="1132.7266">0x7d1a..ebb0</text><rect fill="#FFFFFF" height="671.9375" style="stroke:#181818;stroke-width:1.0;" width="10" x="233.5" y="231.3047"/><rect fill="#FFFFFF" height="44.6211" style="stroke:#181818;stroke-width:1.0;" width="10" x="430" y="275.9258"/><rect fill="#FFFFFF" height="44.6211" style="stroke:#181818;stroke-width:1.0;" width="10" x="572.5" y="365.168"/><rect fill="#FFFFFF" height="44.6211" style="stroke:#181818;stroke-width:1.0;" width="10" x="572.5" y="485.0313"/><rect fill="#FFFFFF" height="238.416" style="stroke:#181818;stroke-width:1.0;" width="10" x="771.5" y="620.2051"/><rect fill="#FFFFFF" height="44.6211" style="stroke:#181818;stroke-width:1.0;" width="10" x="958.5" y="664.8262"/><rect fill="#FFFFFF" height="44.6211" style="stroke:#181818;stroke-width:1.0;" width="10" x="958.5" y="769.3789"/><polygon fill="#181818" points="221.5,227.3047,231.5,231.3047,221.5,235.3047,225.5,231.3047" style="stroke:#181818;stroke-width:1.0;"/><line style="stroke:#181818;stroke-width:1.0;" x1="54.5" x2="227.5" y1="231.3047" y2="231.3047"/><text fill="#000000" font-family="sans-serif" font-size="13" lengthAdjust="spacing" textLength="160" x="61.5" y="150.0098">tokenToTokenSwapInput(</text><text fill="#000000" font-family="sans-serif" font-size="13" lengthAdjust="spacing" textLength="81" x="61.5" y="165.3203">tokens_sold,</text><text fill="#000000" font-family="sans-serif" font-size="13" lengthAdjust="spacing" textLength="130" x="61.5" y="180.6309">min_tokens_bought,</text><text fill="#000000" font-family="sans-serif" font-size="13" lengthAdjust="spacing" textLength="107" x="61.5" y="195.9414">min_eth_bought,</text><text fill="#000000" font-family="sans-serif" font-size="13" lengthAdjust="spacing" textLength="57" x="61.5" y="211.252">deadline,</text><text fill="#000000" font-family="sans-serif" font-size="13" lengthAdjust="spacing" textLength="75" x="61.5" y="226.5625">token_addr)</text><polygon fill="#181818" points="418,271.9258,428,275.9258,418,279.9258,422,275.9258" style="stroke:#181818;stroke-width:1.0;"/><line style="stroke:#181818;stroke-width:1.0;" x1="243.5" x2="424" y1="275.9258" y2="275.9258"/><text fill="#000000" font-family="sans-serif" font-size="13" lengthAdjust="spacing" textLength="84" x="250.5" y="255.873">getExchange(</text><text fill="#000000" font-family="sans-serif" font-size="13" lengthAdjust="spacing" textLength="40" x="250.5" y="271.1836">token)</text><polygon fill="#181818" points="254.5,316.5469,244.5,320.5469,254.5,324.5469,250.5,320.5469" style="stroke:#181818;stroke-width:1.0;"/><line style="stroke:#181818;stroke-width:1.0;stroke-dasharray:2.0,2.0;" x1="248.5" x2="434" y1="320.5469" y2="320.5469"/><text fill="#000000" font-family="sans-serif" font-size="13" lengthAdjust="spacing" textLength="4" x="260.5" y="300.4941">&#160;</text><text fill="#000000" font-family="sans-serif" font-size="13" lengthAdjust="spacing" textLength="21" x="260.5" y="315.8047">out</text><polygon fill="#181818" points="560.5,361.168,570.5,365.168,560.5,369.168,564.5,365.168" style="stroke:#181818;stroke-width:1.0;"/><line style="stroke:#181818;stroke-width:1.0;" x1="243.5" x2="566.5" y1="365.168" y2="365.168"/><text fill="#000000" font-family="sans-serif" font-size="13" lengthAdjust="spacing" textLength="67" x="250.5" y="345.1152">balanceOf(</text><text fill="#000000" font-family="sans-serif" font-size="13" lengthAdjust="spacing" textLength="49" x="250.5" y="360.4258">_owner)</text><polygon fill="#181818" points="254.5,405.7891,244.5,409.7891,254.5,413.7891,250.5,409.7891" style="stroke:#181818;stroke-width:1.0;"/><line style="stroke:#181818;stroke-width:1.0;stroke-dasharray:2.0,2.0;" x1="248.5" x2="576.5" y1="409.7891" y2="409.7891"/><text fill="#000000" font-family="sans-serif" font-size="13" lengthAdjust="spacing" textLength="4" x="260.5" y="389.7363">&#160;</text><text fill="#000000" font-family="sans-serif" font-size="13" lengthAdjust="spacing" textLength="21" x="260.5" y="405.0469">out</text><polygon fill="#181818" points="560.5,481.0313,570.5,485.0313,560.5,489.0313,564.5,485.0313" style="stroke:#181818;stroke-width:1.0;"/><line style="stroke:#181818;stroke-width:1.0;" x1="243.5" x2="566.5" y1="485.0313" y2="485.0313"/><text fill="#000000" font-family="sans-serif" font-size="13" lengthAdjust="spacing" textLength="85" x="250.5" y="434.3574">transferFrom(</text><text fill="#000000" font-family="sans-serif" font-size="13" lengthAdjust="spacing" textLength="41" x="250.5" y="449.668">_from,</text><text fill="#000000" font-family="sans-serif" font-size="13" lengthAdjust="spacing" textLength="24" x="250.5" y="464.9785">_to,</text><text fill="#000000" font-family="sans-serif" font-size="13" lengthAdjust="spacing" textLength="44" x="250.5" y="480.2891">_value)</text><polygon fill="#181818" points="254.5,525.6523,244.5,529.6523,254.5,533.6523,250.5,529.6523" style="stroke:#181818;stroke-width:1.0;"/><line style="stroke:#181818;stroke-width:1.0;stroke-dasharray:2.0,2.0;" x1="248.5" x2="576.5" y1="529.6523" y2="529.6523"/><text fill="#000000" font-family="sans-serif" font-size="13" lengthAdjust="spacing" textLength="4" x="260.5" y="509.5996">&#160;</text><text fill="#000000" font-family="sans-serif" font-size="13" lengthAdjust="spacing" textLength="21" x="260.5" y="524.9102">out</text><polygon fill="#181818" points="759.5,616.2051,769.5,620.2051,759.5,624.2051,763.5,620.2051" style="stroke:#181818;stroke-width:1.0;"/><line style="stroke:#181818;stroke-width:1.0;" x1="243.5" x2="765.5" y1="620.2051" y2="620.2051"/><text fill="#000000" font-family="sans-serif" font-size="13" lengthAdjust="spacing" textLength="164" x="250.5" y="554.2207">ethToTokenTransferInput(</text><text fill="#000000" font-family="sans-serif" font-size="13" lengthAdjust="spacing" textLength="78" x="250.5" y="569.5313">min_tokens,</text><text fill="#000000" font-family="sans-serif" font-size="13" lengthAdjust="spacing" textLength="57" x="250.5" y="584.8418">deadline,</text><text fill="#000000" font-family="sans-serif" font-size="13" lengthAdjust="spacing" textLength="59" x="250.5" y="600.1523">recipient)</text><text fill="#000000" font-family="sans-serif" font-size="13" lengthAdjust="spacing" textLength="65" x="250.5" y="615.4629">0.001 ETH</text><polygon fill="#181818" points="946.5,660.8262,956.5,664.8262,946.5,668.8262,950.5,664.8262" style="stroke:#181818;stroke-width:1.0;"/><line style="stroke:#181818;stroke-width:1.0;" x1="781.5" x2="952.5" y1="664.8262" y2="664.8262"/><text fill="#000000" font-family="sans-serif" font-size="13" lengthAdjust="spacing" textLength="67" x="788.5" y="644.7734">balanceOf(</text><text fill="#000000" font-family="sans-serif" font-size="13" lengthAdjust="spacing" textLength="42" x="788.5" y="660.084">owner)</text><polygon fill="#181818" points="792.5,705.4473,782.5,709.4473,792.5,713.4473,788.5,709.4473" style="stroke:#181818;stroke-width:1.0;"/><line style="stroke:#181818;stroke-width:1.0;stroke-dasharray:2.0,2.0;" x1="786.5" x2="962.5" y1="709.4473" y2="709.4473"/><text fill="#000000" font-family="sans-serif" font-size="13" lengthAdjust="spacing" textLength="4" x="798.5" y="689.3945">&#160;</text><text fill="#000000" font-family="sans-serif" font-size="13" lengthAdjust="spacing" textLength="5" x="798.5" y="704.7051">?</text><polygon fill="#181818" points="946.5,765.3789,956.5,769.3789,946.5,773.3789,950.5,769.3789" style="stroke:#181818;stroke-width:1.0;"/><line style="stroke:#181818;stroke-width:1.0;" x1="781.5" x2="952.5" y1="769.3789" y2="769.3789"/><text fill="#000000" font-family="sans-serif" font-size="13" lengthAdjust="spacing" textLength="53" x="788.5" y="734.0156">transfer(</text><text fill="#000000" font-family="sans-serif" font-size="13" lengthAdjust="spacing" textLength="17" x="788.5" y="749.3262">to,</text><text fill="#000000" font-family="sans-serif" font-size="13" lengthAdjust="spacing" textLength="37" x="788.5" y="764.6367">value)</text><polygon fill="#181818" points="792.5,810,782.5,814,792.5,818,788.5,814" style="stroke:#181818;stroke-width:1.0;"/><line style="stroke:#181818;stroke-width:1.0;stroke-dasharray:2.0,2.0;" x1="786.5" x2="962.5" y1="814" y2="814"/><text fill="#000000" font-family="sans-serif" font-size="13" lengthAdjust="spacing" textLength="4" x="798.5" y="793.9473">&#160;</text><text fill="#000000" font-family="sans-serif" font-size="13" lengthAdjust="spacing" textLength="5" x="798.5" y="809.2578">?</text><polygon fill="#181818" points="254.5,854.6211,244.5,858.6211,254.5,862.6211,250.5,858.6211" style="stroke:#181818;stroke-width:1.0;"/><line style="stroke:#181818;stroke-width:1.0;stroke-dasharray:2.0,2.0;" x1="248.5" x2="775.5" y1="858.6211" y2="858.6211"/><text fill="#000000" font-family="sans-serif" font-size="13" lengthAdjust="spacing" textLength="4" x="260.5" y="838.5684">&#160;</text><text fill="#000000" font-family="sans-serif" font-size="13" lengthAdjust="spacing" textLength="21" x="260.5" y="853.8789">out</text><polygon fill="#181818" points="65.5,899.2422,55.5,903.2422,65.5,907.2422,61.5,903.2422" style="stroke:#181818;stroke-width:1.0;"/><line style="stroke:#181818;stroke-width:1.0;stroke-dasharray:2.0,2.0;" x1="59.5" x2="237.5" y1="903.2422" y2="903.2422"/><text fill="#000000" font-family="sans-serif" font-size="13" lengthAdjust="spacing" textLength="4" x="71.5" y="883.1895">&#160;</text><text fill="#000000" font-family="sans-serif" font-size="13" lengthAdjust="spacing" textLength="21" x="71.5" y="898.5">out</text><path d="M183,916.2422 L183,1048.2422 L293,1048.2422 L293,926.2422 L283,916.2422 L183,916.2422 " fill="#00FFFF" style="stroke:#181818;stroke-width:0.5;"/><path d="M283,916.2422 L283,926.2422 L293,926.2422 L283,916.2422 " fill="#00FFFF" style="stroke:#181818;stroke-width:0.5;"/><text fill="#000000" font-family="sans-serif" font-size="13" lengthAdjust="spacing" textLength="80" x="189" y="933.8105">EthPurchase:</text><text fill="#000000" font-family="sans-serif" font-size="13" lengthAdjust="spacing" textLength="39" x="197" y="949.1211">buyer,</text><text fill="#000000" font-family="sans-serif" font-size="13" lengthAdjust="spacing" textLength="81" x="197" y="964.4316">tokens_sold,</text><text fill="#000000" font-family="sans-serif" font-size="13" lengthAdjust="spacing" textLength="72" x="197" y="979.7422">eth_bought</text><text fill="#000000" font-family="sans-serif" font-size="13" lengthAdjust="spacing" textLength="80" x="189" y="995.0527">EthPurchase:</text><text fill="#000000" font-family="sans-serif" font-size="13" lengthAdjust="spacing" textLength="39" x="197" y="1010.3633">buyer,</text><text fill="#000000" font-family="sans-serif" font-size="13" lengthAdjust="spacing" textLength="81" x="197" y="1025.6738">tokens_sold,</text><text fill="#000000" font-family="sans-serif" font-size="13" lengthAdjust="spacing" textLength="72" x="197" y="1040.9844">eth_bought</text><path d="M539,916.2422 L539,987.2422 L616,987.2422 L616,926.2422 L606,916.2422 L539,916.2422 " fill="#00FFFF" style="stroke:#181818;stroke-width:0.5;"/><path d="M606,916.2422 L606,926.2422 L616,926.2422 L606,916.2422 " fill="#00FFFF" style="stroke:#181818;stroke-width:0.5;"/><text fill="#000000" font-family="sans-serif" font-size="13" lengthAdjust="spacing" textLength="56" x="545" y="933.8105">Transfer:</text><text fill="#000000" font-family="sans-serif" font-size="13" lengthAdjust="spacing" textLength="34" x="553" y="949.1211">from,</text><text fill="#000000" font-family="sans-serif" font-size="13" lengthAdjust="spacing" textLength="17" x="553" y="964.4316">to,</text><text fill="#000000" font-family="sans-serif" font-size="13" lengthAdjust="spacing" textLength="33" x="553" y="979.7422">value</text><path d="M714,916.2422 L714,1048.2422 L838,1048.2422 L838,926.2422 L828,916.2422 L714,916.2422 " fill="#00FFFF" style="stroke:#181818;stroke-width:0.5;"/><path d="M828,916.2422 L828,926.2422 L838,926.2422 L828,916.2422 " fill="#00FFFF" style="stroke:#181818;stroke-width:0.5;"/><text fill="#000000" font-family="sans-serif" font-size="13" lengthAdjust="spacing" textLength="99" x="720" y="933.8105">TokenPurchase:</text><text fill="#000000" font-family="sans-serif" font-size="13" lengthAdjust="spacing" textLength="39" x="728" y="949.1211">buyer,</text><text fill="#000000" font-family="sans-serif" font-size="13" lengthAdjust="spacing" textLength="58" x="728" y="964.4316">eth_sold,</text><text fill="#000000" font-family="sans-serif" font-size="13" lengthAdjust="spacing" textLength="95" x="728" y="979.7422">tokens_bought</text><text fill="#000000" font-family="sans-serif" font-size="13" lengthAdjust="spacing" textLength="99" x="720" y="995.0527">TokenPurchase:</text><text fill="#000000" font-family="sans-serif" font-size="13" lengthAdjust="spacing" textLength="39" x="728" y="1010.3633">buyer,</text><text fill="#000000" font-family="sans-serif" font-size="13" lengthAdjust="spacing" textLength="58" x="728" y="1025.6738">eth_sold,</text><text fill="#000000" font-family="sans-serif" font-size="13" lengthAdjust="spacing" textLength="95" x="728" y="1040.9844">tokens_bought</text><path d="M925,916.2422 L925,987.2422 L1002,987.2422 L1002,926.2422 L992,916.2422 L925,916.2422 " fill="#00FFFF" style="stroke:#181818;stroke-width:0.5;"/><path d="M992,916.2422 L992,926.2422 L1002,926.2422 L992,916.2422 " fill="#00FFFF" style="stroke:#181818;stroke-width:0.5;"/><text fill="#000000" font-family="sans-serif" font-size="13" lengthAdjust="spacing" textLength="56" x="931" y="933.8105">Transfer:</text><text fill="#000000" font-family="sans-serif" font-size="13" lengthAdjust="spacing" textLength="34" x="939" y="949.1211">from,</text><text fill="#000000" font-family="sans-serif" font-size="13" lengthAdjust="spacing" textLength="17" x="939" y="964.4316">to,</text><text fill="#000000" font-family="sans-serif" font-size="13" lengthAdjust="spacing" textLength="33" x="939" y="979.7422">value</text><!--SRC=[hLHTJzim57tthxXYBo2Lpd7IDeagfecFhGziI0IUAbMsuz28OdUk0-NVptRZjEL36cWlgOzzxxd7vzxQr6OX0Ay7LPPbyQZYAUCiotWK3qc98uo7OiYJDC64f-c04K7YDCOqPMmGauIKSPOmGZAC4ATBKoi93xIMKfWUi8NYzn156HaaSTI3OjxqW0pWGZ0Wc4I0inodUKJWnsM1A3TAmm5UHnMc_Nvg8mw0hi111m0jgJOrhvTK6XUNZKfXuo8oz74EEW3ZyOsiLqzq2RVHoSbuV7ZpQt9y6nsvTJWvN_CvbNS29j88NL4kVF3B4XpJfDzFocpWIpZeW2rn-xmKUiQLDDeAVvr9CKlxVS6Ir6Sww80JTtq6fwgM6sdNPwTUs4LDJQ7kXRpIQltycY-Z8siA7P9eSraB7VYVbnsL4NMI6VOb77J0bhYaDWwyF5_ZydinsSZs9-q1GbshZa-wTkHWt76XVDIrrJEHoyOSJgNVNyrMQb7sflAXbhDsXwdcRcxQFM7csurIq79HIz5hisUqBFMH6vtwaHhH5KNTC5WbeMivt0aJl0ZrTv937DB2D5fEfMhC7b5eOWwCBgZaudTbQMRgIOfT4I7i7tZiyCXL9VI5LW-EghA_zcxM2FTzf8j6V8GuJ4KErhNMyQ8j4LpV-hplfnPs4ceXpT5KuZx64PmNFtUSRQbHDtcsNXYHVKDU-X6YEjdVtY49RlZUM4alx_y6qQuJksiabKrGZq9ltuKlz4z3qRcPNpNQ3i5Av0Y0DSz2z-nYTnejt8xT9pA4BC49GEWhR8LqRy16I6YCu_HzzvJkw-_z3addN4lYduotr3avGThU_-fJEM-BwPw83zxeBm00]--></g></svg>
