<?xml version="1.0" encoding="us-ascii" standalone="no"?><svg xmlns:xlink="http://www.w3.org/1999/xlink" xmlns="http://www.w3.org/2000/svg" contentStyleType="text/css" height="434px" preserveAspectRatio="none" style="width:592px;height:434px;background:#FFFFFF;" version="1.1" viewBox="0 0 592 434" width="592px" zoomAndPan="magnify"><defs/><g><text fill="#000000" font-family="sans-serif" font-size="14" font-weight="bold" lengthAdjust="spacing" textLength="564" x="10" y="28.5352">0xf99d2ec3d21c5925ebc1a9461ff92aa3725bd9a920d0b9531ac40925efba1303</text><text fill="#000000" font-family="sans-serif" font-size="14" lengthAdjust="spacing" textLength="399" x="92.5" y="422.1035">mainnet, block 17547555, Sat, 24 Jun 2023 06:17:59 GMT</text><rect fill="#FFFFFF" height="14" style="stroke:#181818;stroke-width:1.0;" width="10" x="132.5" y="214.6836"/><rect fill="#FFFFFF" height="72.6211" style="stroke:#181818;stroke-width:1.0;" width="10" x="373.5" y="170.0625"/><line style="stroke:#181818;stroke-width:0.5;stroke-dasharray:5.0,5.0;" x1="137" x2="137" y1="123.4414" y2="326.6152"/><line style="stroke:#181818;stroke-width:0.5;stroke-dasharray:5.0,5.0;" x1="378" x2="378" y1="123.4414" y2="326.6152"/><text fill="#000000" font-family="sans-serif" font-size="14" lengthAdjust="spacing" textLength="97" x="86" y="120.4883">0x7e25..41b6</text><ellipse cx="137.5" cy="55.4531" fill="#E2E2F0" rx="8" ry="8" style="stroke:#181818;stroke-width:0.5;"/><path d="M137.5,63.4531 L137.5,90.4531 M124.5,71.4531 L150.5,71.4531 M137.5,90.4531 L124.5,105.4531 M137.5,90.4531 L150.5,105.4531 " fill="none" style="stroke:#181818;stroke-width:0.5;"/><text fill="#000000" font-family="sans-serif" font-size="14" lengthAdjust="spacing" textLength="97" x="86" y="339.1504">0x7e25..41b6</text><ellipse cx="137.5" cy="350.6035" fill="#E2E2F0" rx="8" ry="8" style="stroke:#181818;stroke-width:0.5;"/><path d="M137.5,358.6035 L137.5,385.6035 M124.5,366.6035 L150.5,366.6035 M137.5,385.6035 L124.5,400.6035 M137.5,385.6035 L150.5,400.6035 " fill="none" style="stroke:#181818;stroke-width:0.5;"/><rect fill="#E2E2F0" height="79.9531" rx="2.5" ry="2.5" style="stroke:#181818;stroke-width:0.5;" width="129" x="314" y="42.4883"/><text fill="#000000" font-family="sans-serif" font-size="14" font-style="italic" lengthAdjust="spacing" textLength="115" x="321" y="63.0234">&#171;Wrapped Ether&#187;</text><text fill="#000000" font-family="sans-serif" font-size="14" font-style="italic" lengthAdjust="spacing" textLength="63" x="347" y="79.5117">&#171;(WETH)&#187;</text><text fill="#000000" font-family="sans-serif" font-size="14" font-style="italic" lengthAdjust="spacing" textLength="62" x="347.5" y="96">&#171;WETH9&#187;</text><text fill="#000000" font-family="sans-serif" font-size="14" lengthAdjust="spacing" textLength="91" x="333" y="112.4883">0xc02a..6cc2</text><rect fill="#E2E2F0" height="79.9531" rx="2.5" ry="2.5" style="stroke:#181818;stroke-width:0.5;" width="129" x="314" y="325.6152"/><text fill="#000000" font-family="sans-serif" font-size="14" font-style="italic" lengthAdjust="spacing" textLength="115" x="321" y="346.1504">&#171;Wrapped Ether&#187;</text><text fill="#000000" font-family="sans-serif" font-size="14" font-style="italic" lengthAdjust="spacing" textLength="63" x="347" y="362.6387">&#171;(WETH)&#187;</text><text fill="#000000" font-family="sans-serif" font-size="14" font-style="italic" lengthAdjust="spacing" textLength="62" x="347.5" y="379.127">&#171;WETH9&#187;</text><text fill="#000000" font-family="sans-serif" font-size="14" lengthAdjust="spacing" textLength="91" x="333" y="395.6152">0xc02a..6cc2</text><rect fill="#FFFFFF" height="14" style="stroke:#181818;stroke-width:1.0;" width="10" x="132.5" y="214.6836"/><rect fill="#FFFFFF" height="72.6211" style="stroke:#181818;stroke-width:1.0;" width="10" x="373.5" y="170.0625"/><polygon fill="#181818" points="361.5,166.0625,371.5,170.0625,361.5,174.0625,365.5,170.0625" style="stroke:#181818;stroke-width:1.0;"/><line style="stroke:#181818;stroke-width:1.0;" x1="137.5" x2="367.5" y1="170.0625" y2="170.0625"/><text fill="#000000" font-family="sans-serif" font-size="13" lengthAdjust="spacing" textLength="61" x="144.5" y="150.0098">withdraw(</text><text fill="#000000" font-family="sans-serif" font-size="13" lengthAdjust="spacing" textLength="217" x="144.5" y="165.3203">wad: 3,,200,000,000,000,000,000)</text><polygon fill="#181818" points="153.5,210.6836,143.5,214.6836,153.5,218.6836,149.5,214.6836" style="stroke:#181818;stroke-width:1.0;"/><line style="stroke:#181818;stroke-width:1.0;" x1="147.5" x2="372.5" y1="214.6836" y2="214.6836"/><text fill="#000000" font-family="sans-serif" font-size="13" lengthAdjust="spacing" textLength="58" x="159.5" y="194.6309">fallback()</text><text fill="#000000" font-family="sans-serif" font-size="13" lengthAdjust="spacing" textLength="49" x="159.5" y="209.9414">3.2 ETH</text><polygon fill="#181818" points="361.5,224.6836,371.5,228.6836,361.5,232.6836,365.5,228.6836" style="stroke:#181818;stroke-width:1.0;"/><line style="stroke:#181818;stroke-width:1.0;stroke-dasharray:2.0,2.0;" x1="137.5" x2="367.5" y1="228.6836" y2="228.6836"/><polygon fill="#181818" points="148.5,238.6836,138.5,242.6836,148.5,246.6836,144.5,242.6836" style="stroke:#181818;stroke-width:1.0;"/><line style="stroke:#181818;stroke-width:1.0;stroke-dasharray:2.0,2.0;" x1="142.5" x2="377.5" y1="242.6836" y2="242.6836"/><path d="M257,255.6836 L257,310.6836 L499,310.6836 L499,265.6836 L489,255.6836 L257,255.6836 " fill="#00FFFF" style="stroke:#181818;stroke-width:0.5;"/><path d="M489,255.6836 L489,265.6836 L499,265.6836 L489,255.6836 " fill="#00FFFF" style="stroke:#181818;stroke-width:0.5;"/><text fill="#000000" font-family="sans-serif" font-size="13" lengthAdjust="spacing" textLength="73" x="263" y="273.252">Withdrawal:</text><text fill="#000000" font-family="sans-serif" font-size="13" lengthAdjust="spacing" textLength="118" x="271" y="288.5625">src: 0x7E25..41b6,</text><text fill="#000000" font-family="sans-serif" font-size="13" lengthAdjust="spacing" textLength="213" x="271" y="303.873">wad: 3,,200,000,000,000,000,000</text><!--SRC=[XL7BQiCm4BphAvRqae1hzB1iP8nleQNGKmEvvBAMP6BYogwYF3w_LgcTGmyz2EsiPeRHRkX2Ru7UMwKCjreOphHKNDf6CrHPpjfMSKHHSDaOXOfJGnib1KETqSXh6sI22a8qZg4R77nYvvmD2JJze4_02faLKie4Fd1gyWpUBWuuvG9eNhAYb0fUtdS4THWyhEYzi5ocQSQQV0LuXWWZ03AY3vtkHdGXyZJbcAQvrlo75s44K5LxZ-De3Mp3qVgwhghrVhjxtSGg5ggk2Lbid-j5MiAj2qVZyRO-k1kQ4aIIS4eJ-lTiOk3kYi4kSh94c3nd_n9QxFi6zMczEJYHSfWIFBGpZNWRBjxD5t73z3XShN_ywmc_BaZslmcnBmd0sUjoMbwndKUMJCr_aXFh34H_yWq0]--></g></svg>
