<?xml version="1.0" encoding="us-ascii" standalone="no"?><svg xmlns:xlink="http://www.w3.org/1999/xlink" xmlns="http://www.w3.org/2000/svg" contentStyleType="text/css" height="1681px" preserveAspectRatio="none" style="width:797px;height:1681px;background:#FFFFFF;" version="1.1" viewBox="0 0 797 1681" width="797px" zoomAndPan="magnify"><defs/><g><text fill="#000000" font-family="sans-serif" font-size="14" font-weight="bold" lengthAdjust="spacing" textLength="555" x="120.25" y="28.5352">0x57d4dadabddcf30b35199837af2614f55d09f0ae4ccf0710cbedee69324f2fa7</text><text fill="#000000" font-family="sans-serif" font-size="14" lengthAdjust="spacing" textLength="396" x="199.75" y="1669.2891">mainnet, block 17538866, Fri, 23 Jun 2023 00:57:47 GMT</text><rect fill="#FFFFFF" height="1227.9434" style="stroke:#181818;stroke-width:1.0;" width="10" x="225.5" y="170.0625"/><rect fill="#FFFFFF" height="223.1055" style="stroke:#181818;stroke-width:1.0;" width="10" x="230.5" y="695.4473"/><rect fill="#FFFFFF" height="136.4844" style="stroke:#181818;stroke-width:1.0;" width="10" x="435.5" y="199.373"/><rect fill="#FFFFFF" height="715.248" style="stroke:#181818;stroke-width:1.0;" width="10" x="435.5" y="441.7207"/><rect fill="#FFFFFF" height="105.8633" style="stroke:#181818;stroke-width:1.0;" width="10" x="435.5" y="1201.5898"/><rect fill="#FFFFFF" height="44.6211" style="stroke:#181818;stroke-width:1.0;" width="10" x="580" y="486.3418"/><rect fill="#FFFFFF" height="14" style="stroke:#181818;stroke-width:1.0;" width="10" x="580" y="770.6895"/><rect fill="#FFFFFF" height="44.6211" style="stroke:#181818;stroke-width:1.0;" width="10" x="580" y="963.1738"/><rect fill="#FFFFFF" height="44.6211" style="stroke:#181818;stroke-width:1.0;" width="10" x="722" y="575.584"/><rect fill="#FFFFFF" height="44.6211" style="stroke:#181818;stroke-width:1.0;" width="10" x="722" y="859.9316"/><rect fill="#FFFFFF" height="44.6211" style="stroke:#181818;stroke-width:1.0;" width="10" x="722" y="1052.416"/><line style="stroke:#181818;stroke-width:0.5;stroke-dasharray:5.0,5.0;" x1="55" x2="55" y1="123.4414" y2="1573.8008"/><line style="stroke:#181818;stroke-width:0.5;stroke-dasharray:5.0,5.0;" x1="230" x2="230" y1="123.4414" y2="1573.8008"/><line style="stroke:#181818;stroke-width:0.5;stroke-dasharray:5.0,5.0;" x1="440.5" x2="440.5" y1="123.4414" y2="1573.8008"/><line style="stroke:#181818;stroke-width:0.5;stroke-dasharray:5.0,5.0;" x1="584.5" x2="584.5" y1="123.4414" y2="1573.8008"/><line style="stroke:#181818;stroke-width:0.5;stroke-dasharray:5.0,5.0;" x1="726.5" x2="726.5" y1="123.4414" y2="1573.8008"/><text fill="#000000" font-family="sans-serif" font-size="14" lengthAdjust="spacing" textLength="94" x="5" y="120.4883">0x192b..cc60</text><ellipse cx="55" cy="55.4531" fill="#E2E2F0" rx="8" ry="8" style="stroke:#181818;stroke-width:0.5;"/><path d="M55,63.4531 L55,90.4531 M42,71.4531 L68,71.4531 M55,90.4531 L42,105.4531 M55,90.4531 L68,105.4531 " fill="none" style="stroke:#181818;stroke-width:0.5;"/><text fill="#000000" font-family="sans-serif" font-size="14" lengthAdjust="spacing" textLength="94" x="5" y="1586.3359">0x192b..cc60</text><ellipse cx="55" cy="1597.7891" fill="#E2E2F0" rx="8" ry="8" style="stroke:#181818;stroke-width:0.5;"/><path d="M55,1605.7891 L55,1632.7891 M42,1613.7891 L68,1613.7891 M55,1632.7891 L42,1647.7891 M55,1632.7891 L68,1647.7891 " fill="none" style="stroke:#181818;stroke-width:0.5;"/><rect fill="#E2E2F0" height="79.9531" rx="2.5" ry="2.5" style="stroke:#181818;stroke-width:0.5;" width="231" x="115" y="42.4883"/><text fill="#000000" font-family="sans-serif" font-size="14" font-style="italic" lengthAdjust="spacing" textLength="217" x="122" y="63.0234">&#171;Uniswap V3 Positions NFT-V1&#187;</text><text fill="#000000" font-family="sans-serif" font-size="14" font-style="italic" lengthAdjust="spacing" textLength="109" x="176" y="79.5117">&#171;(UNI-V3-POS)&#187;</text><text fill="#000000" font-family="sans-serif" font-size="14" font-style="italic" lengthAdjust="spacing" textLength="214" x="123.5" y="96">&#171;NonfungiblePositionManager&#187;</text><text fill="#000000" font-family="sans-serif" font-size="14" lengthAdjust="spacing" textLength="91" x="185" y="112.4883">0xc364..fe88</text><rect fill="#E2E2F0" height="79.9531" rx="2.5" ry="2.5" style="stroke:#181818;stroke-width:0.5;" width="231" x="115" y="1572.8008"/><text fill="#000000" font-family="sans-serif" font-size="14" font-style="italic" lengthAdjust="spacing" textLength="217" x="122" y="1593.3359">&#171;Uniswap V3 Positions NFT-V1&#187;</text><text fill="#000000" font-family="sans-serif" font-size="14" font-style="italic" lengthAdjust="spacing" textLength="109" x="176" y="1609.8242">&#171;(UNI-V3-POS)&#187;</text><text fill="#000000" font-family="sans-serif" font-size="14" font-style="italic" lengthAdjust="spacing" textLength="214" x="123.5" y="1626.3125">&#171;NonfungiblePositionManager&#187;</text><text fill="#000000" font-family="sans-serif" font-size="14" lengthAdjust="spacing" textLength="91" x="185" y="1642.8008">0xc364..fe88</text><rect fill="#E2E2F0" height="46.9766" rx="2.5" ry="2.5" style="stroke:#181818;stroke-width:0.5;" width="134" x="373.5" y="75.4648"/><text fill="#000000" font-family="sans-serif" font-size="14" font-style="italic" lengthAdjust="spacing" textLength="120" x="380.5" y="96">&#171;UniswapV3Pool&#187;</text><text fill="#000000" font-family="sans-serif" font-size="14" lengthAdjust="spacing" textLength="97" x="392" y="112.4883">0x88e6..5640</text><rect fill="#E2E2F0" height="46.9766" rx="2.5" ry="2.5" style="stroke:#181818;stroke-width:0.5;" width="134" x="373.5" y="1572.8008"/><text fill="#000000" font-family="sans-serif" font-size="14" font-style="italic" lengthAdjust="spacing" textLength="120" x="380.5" y="1593.3359">&#171;UniswapV3Pool&#187;</text><text fill="#000000" font-family="sans-serif" font-size="14" lengthAdjust="spacing" textLength="97" x="392" y="1609.8242">0x88e6..5640</text><rect fill="#E2E2F0" height="79.9531" rx="2.5" ry="2.5" style="stroke:#181818;stroke-width:0.5;" width="135" x="517.5" y="42.4883"/><text fill="#000000" font-family="sans-serif" font-size="14" font-style="italic" lengthAdjust="spacing" textLength="78" x="546" y="63.0234">&#171;USD Coin&#187;</text><text fill="#000000" font-family="sans-serif" font-size="14" font-style="italic" lengthAdjust="spacing" textLength="62" x="554" y="79.5117">&#171;(USDC)&#187;</text><text fill="#000000" font-family="sans-serif" font-size="14" font-style="italic" lengthAdjust="spacing" textLength="121" x="524.5" y="96">&#171;FiatTokenProxy&#187;</text><text fill="#000000" font-family="sans-serif" font-size="14" lengthAdjust="spacing" textLength="96" x="537" y="112.4883">0xa0b8..eb48</text><rect fill="#E2E2F0" height="79.9531" rx="2.5" ry="2.5" style="stroke:#181818;stroke-width:0.5;" width="135" x="517.5" y="1572.8008"/><text fill="#000000" font-family="sans-serif" font-size="14" font-style="italic" lengthAdjust="spacing" textLength="78" x="546" y="1593.3359">&#171;USD Coin&#187;</text><text fill="#000000" font-family="sans-serif" font-size="14" font-style="italic" lengthAdjust="spacing" textLength="62" x="554" y="1609.8242">&#171;(USDC)&#187;</text><text fill="#000000" font-family="sans-serif" font-size="14" font-style="italic" lengthAdjust="spacing" textLength="121" x="524.5" y="1626.3125">&#171;FiatTokenProxy&#187;</text><text fill="#000000" font-family="sans-serif" font-size="14" lengthAdjust="spacing" textLength="96" x="537" y="1642.8008">0xa0b8..eb48</text><rect fill="#E2E2F0" height="79.9531" rx="2.5" ry="2.5" style="stroke:#181818;stroke-width:0.5;" width="129" x="662.5" y="42.4883"/><text fill="#000000" font-family="sans-serif" font-size="14" font-style="italic" lengthAdjust="spacing" textLength="115" x="669.5" y="63.0234">&#171;Wrapped Ether&#187;</text><text fill="#000000" font-family="sans-serif" font-size="14" font-style="italic" lengthAdjust="spacing" textLength="63" x="695.5" y="79.5117">&#171;(WETH)&#187;</text><text fill="#000000" font-family="sans-serif" font-size="14" font-style="italic" lengthAdjust="spacing" textLength="62" x="696" y="96">&#171;WETH9&#187;</text><text fill="#000000" font-family="sans-serif" font-size="14" lengthAdjust="spacing" textLength="91" x="681.5" y="112.4883">0xc02a..6cc2</text><rect fill="#E2E2F0" height="79.9531" rx="2.5" ry="2.5" style="stroke:#181818;stroke-width:0.5;" width="129" x="662.5" y="1572.8008"/><text fill="#000000" font-family="sans-serif" font-size="14" font-style="italic" lengthAdjust="spacing" textLength="115" x="669.5" y="1593.3359">&#171;Wrapped Ether&#187;</text><text fill="#000000" font-family="sans-serif" font-size="14" font-style="italic" lengthAdjust="spacing" textLength="63" x="695.5" y="1609.8242">&#171;(WETH)&#187;</text><text fill="#000000" font-family="sans-serif" font-size="14" font-style="italic" lengthAdjust="spacing" textLength="62" x="696" y="1626.3125">&#171;WETH9&#187;</text><text fill="#000000" font-family="sans-serif" font-size="14" lengthAdjust="spacing" textLength="91" x="681.5" y="1642.8008">0xc02a..6cc2</text><rect fill="#FFFFFF" height="1227.9434" style="stroke:#181818;stroke-width:1.0;" width="10" x="225.5" y="170.0625"/><rect fill="#FFFFFF" height="223.1055" style="stroke:#181818;stroke-width:1.0;" width="10" x="230.5" y="695.4473"/><rect fill="#FFFFFF" height="136.4844" style="stroke:#181818;stroke-width:1.0;" width="10" x="435.5" y="199.373"/><rect fill="#FFFFFF" height="715.248" style="stroke:#181818;stroke-width:1.0;" width="10" x="435.5" y="441.7207"/><rect fill="#FFFFFF" height="105.8633" style="stroke:#181818;stroke-width:1.0;" width="10" x="435.5" y="1201.5898"/><rect fill="#FFFFFF" height="44.6211" style="stroke:#181818;stroke-width:1.0;" width="10" x="580" y="486.3418"/><rect fill="#FFFFFF" height="14" style="stroke:#181818;stroke-width:1.0;" width="10" x="580" y="770.6895"/><rect fill="#FFFFFF" height="44.6211" style="stroke:#181818;stroke-width:1.0;" width="10" x="580" y="963.1738"/><rect fill="#FFFFFF" height="44.6211" style="stroke:#181818;stroke-width:1.0;" width="10" x="722" y="575.584"/><rect fill="#FFFFFF" height="44.6211" style="stroke:#181818;stroke-width:1.0;" width="10" x="722" y="859.9316"/><rect fill="#FFFFFF" height="44.6211" style="stroke:#181818;stroke-width:1.0;" width="10" x="722" y="1052.416"/><polygon fill="#181818" points="213.5,166.0625,223.5,170.0625,213.5,174.0625,217.5,170.0625" style="stroke:#181818;stroke-width:1.0;"/><line style="stroke:#181818;stroke-width:1.0;" x1="55" x2="219.5" y1="170.0625" y2="170.0625"/><text fill="#000000" font-family="sans-serif" font-size="13" lengthAdjust="spacing" textLength="33" x="62" y="150.0098">mint(</text><text fill="#000000" font-family="sans-serif" font-size="13" lengthAdjust="spacing" textLength="50" x="62" y="165.3203">params)</text><polygon fill="#181818" points="423.5,195.373,433.5,199.373,423.5,203.373,427.5,199.373" style="stroke:#181818;stroke-width:1.0;"/><line style="stroke:#181818;stroke-width:1.0;" x1="235.5" x2="429.5" y1="199.373" y2="199.373"/><text fill="#000000" font-family="sans-serif" font-size="13" lengthAdjust="spacing" textLength="40" x="242.5" y="194.6309">slot0()</text><polygon fill="#181818" points="246.5,331.8574,236.5,335.8574,246.5,339.8574,242.5,335.8574" style="stroke:#181818;stroke-width:1.0;"/><line style="stroke:#181818;stroke-width:1.0;stroke-dasharray:2.0,2.0;" x1="240.5" x2="439.5" y1="335.8574" y2="335.8574"/><text fill="#000000" font-family="sans-serif" font-size="13" lengthAdjust="spacing" textLength="4" x="252.5" y="223.9414">&#160;</text><text fill="#000000" font-family="sans-serif" font-size="13" lengthAdjust="spacing" textLength="83" x="252.5" y="239.252">sqrtPriceX96,</text><text fill="#000000" font-family="sans-serif" font-size="13" lengthAdjust="spacing" textLength="28" x="252.5" y="254.5625">tick,</text><text fill="#000000" font-family="sans-serif" font-size="13" lengthAdjust="spacing" textLength="113" x="252.5" y="269.873">observationIndex,</text><text fill="#000000" font-family="sans-serif" font-size="13" lengthAdjust="spacing" textLength="146" x="252.5" y="285.1836">observationCardinality,</text><text fill="#000000" font-family="sans-serif" font-size="13" lengthAdjust="spacing" textLength="176" x="252.5" y="300.4941">observationCardinalityNext,</text><text fill="#000000" font-family="sans-serif" font-size="13" lengthAdjust="spacing" textLength="75" x="252.5" y="315.8047">feeProtocol,</text><text fill="#000000" font-family="sans-serif" font-size="13" lengthAdjust="spacing" textLength="58" x="252.5" y="331.1152">unlocked</text><polygon fill="#181818" points="423.5,437.7207,433.5,441.7207,423.5,445.7207,427.5,441.7207" style="stroke:#181818;stroke-width:1.0;"/><line style="stroke:#181818;stroke-width:1.0;" x1="235.5" x2="429.5" y1="441.7207" y2="441.7207"/><text fill="#000000" font-family="sans-serif" font-size="13" lengthAdjust="spacing" textLength="33" x="242.5" y="360.4258">mint(</text><text fill="#000000" font-family="sans-serif" font-size="13" lengthAdjust="spacing" textLength="59" x="242.5" y="375.7363">recipient,</text><text fill="#000000" font-family="sans-serif" font-size="13" lengthAdjust="spacing" textLength="65" x="242.5" y="391.0469">tickLower,</text><text fill="#000000" font-family="sans-serif" font-size="13" lengthAdjust="spacing" textLength="65" x="242.5" y="406.3574">tickUpper,</text><text fill="#000000" font-family="sans-serif" font-size="13" lengthAdjust="spacing" textLength="52" x="242.5" y="421.668">amount,</text><text fill="#000000" font-family="sans-serif" font-size="13" lengthAdjust="spacing" textLength="31" x="242.5" y="436.9785">data)</text><polygon fill="#181818" points="568,482.3418,578,486.3418,568,490.3418,572,486.3418" style="stroke:#181818;stroke-width:1.0;"/><line style="stroke:#181818;stroke-width:1.0;" x1="445.5" x2="574" y1="486.3418" y2="486.3418"/><text fill="#000000" font-family="sans-serif" font-size="13" lengthAdjust="spacing" textLength="67" x="452.5" y="466.2891">balanceOf(</text><text fill="#000000" font-family="sans-serif" font-size="13" lengthAdjust="spacing" textLength="42" x="452.5" y="481.5996">owner)</text><polygon fill="#181818" points="456.5,526.9629,446.5,530.9629,456.5,534.9629,452.5,530.9629" style="stroke:#181818;stroke-width:1.0;"/><line style="stroke:#181818;stroke-width:1.0;stroke-dasharray:2.0,2.0;" x1="450.5" x2="584" y1="530.9629" y2="530.9629"/><text fill="#000000" font-family="sans-serif" font-size="13" lengthAdjust="spacing" textLength="4" x="462.5" y="510.9102">&#160;</text><text fill="#000000" font-family="sans-serif" font-size="13" lengthAdjust="spacing" textLength="5" x="462.5" y="526.2207">?</text><polygon fill="#181818" points="710,571.584,720,575.584,710,579.584,714,575.584" style="stroke:#181818;stroke-width:1.0;"/><line style="stroke:#181818;stroke-width:1.0;" x1="445.5" x2="716" y1="575.584" y2="575.584"/><text fill="#000000" font-family="sans-serif" font-size="13" lengthAdjust="spacing" textLength="67" x="452.5" y="555.5313">balanceOf(</text><text fill="#000000" font-family="sans-serif" font-size="13" lengthAdjust="spacing" textLength="9" x="452.5" y="570.8418">?)</text><polygon fill="#181818" points="456.5,616.2051,446.5,620.2051,456.5,624.2051,452.5,620.2051" style="stroke:#181818;stroke-width:1.0;"/><line style="stroke:#181818;stroke-width:1.0;stroke-dasharray:2.0,2.0;" x1="450.5" x2="726" y1="620.2051" y2="620.2051"/><text fill="#000000" font-family="sans-serif" font-size="13" lengthAdjust="spacing" textLength="4" x="462.5" y="600.1523">&#160;</text><text fill="#000000" font-family="sans-serif" font-size="13" lengthAdjust="spacing" textLength="5" x="462.5" y="615.4629">?</text><polygon fill="#181818" points="251.5,691.4473,241.5,695.4473,251.5,699.4473,247.5,695.4473" style="stroke:#181818;stroke-width:1.0;"/><line style="stroke:#181818;stroke-width:1.0;" x1="245.5" x2="434.5" y1="695.4473" y2="695.4473"/><text fill="#000000" font-family="sans-serif" font-size="13" lengthAdjust="spacing" textLength="154" x="257.5" y="644.7734">uniswapV3MintCallback(</text><text fill="#000000" font-family="sans-serif" font-size="13" lengthAdjust="spacing" textLength="95" x="257.5" y="660.084">amount0Owed,</text><text fill="#000000" font-family="sans-serif" font-size="13" lengthAdjust="spacing" textLength="95" x="257.5" y="675.3945">amount1Owed,</text><text fill="#000000" font-family="sans-serif" font-size="13" lengthAdjust="spacing" textLength="31" x="257.5" y="690.7051">data)</text><polygon fill="#181818" points="568,766.6895,578,770.6895,568,774.6895,572,770.6895" style="stroke:#181818;stroke-width:1.0;"/><line style="stroke:#181818;stroke-width:1.0;" x1="240.5" x2="574" y1="770.6895" y2="770.6895"/><text fill="#000000" font-family="sans-serif" font-size="13" lengthAdjust="spacing" textLength="85" x="247.5" y="720.0156">transferFrom(</text><text fill="#000000" font-family="sans-serif" font-size="13" lengthAdjust="spacing" textLength="34" x="247.5" y="735.3262">from,</text><text fill="#000000" font-family="sans-serif" font-size="13" lengthAdjust="spacing" textLength="17" x="247.5" y="750.6367">to,</text><text fill="#000000" font-family="sans-serif" font-size="13" lengthAdjust="spacing" textLength="52" x="247.5" y="765.9473">tokenId)</text><polygon fill="#181818" points="251.5,780.6895,241.5,784.6895,251.5,788.6895,247.5,784.6895" style="stroke:#181818;stroke-width:1.0;"/><line style="stroke:#181818;stroke-width:1.0;stroke-dasharray:2.0,2.0;" x1="245.5" x2="584" y1="784.6895" y2="784.6895"/><polygon fill="#181818" points="710,855.9316,720,859.9316,710,863.9316,714,859.9316" style="stroke:#181818;stroke-width:1.0;"/><line style="stroke:#181818;stroke-width:1.0;" x1="240.5" x2="716" y1="859.9316" y2="859.9316"/><text fill="#000000" font-family="sans-serif" font-size="13" lengthAdjust="spacing" textLength="85" x="247.5" y="809.2578">transferFrom(</text><text fill="#000000" font-family="sans-serif" font-size="13" lengthAdjust="spacing" textLength="23" x="247.5" y="824.5684">src,</text><text fill="#000000" font-family="sans-serif" font-size="13" lengthAdjust="spacing" textLength="24" x="247.5" y="839.8789">dst,</text><text fill="#000000" font-family="sans-serif" font-size="13" lengthAdjust="spacing" textLength="29" x="247.5" y="855.1895">wad)</text><polygon fill="#181818" points="251.5,900.5527,241.5,904.5527,251.5,908.5527,247.5,904.5527" style="stroke:#181818;stroke-width:1.0;"/><line style="stroke:#181818;stroke-width:1.0;stroke-dasharray:2.0,2.0;" x1="245.5" x2="726" y1="904.5527" y2="904.5527"/><text fill="#000000" font-family="sans-serif" font-size="13" lengthAdjust="spacing" textLength="4" x="257.5" y="884.5">&#160;</text><text fill="#000000" font-family="sans-serif" font-size="13" lengthAdjust="spacing" textLength="5" x="257.5" y="899.8105">?</text><polygon fill="#181818" points="423.5,914.5527,433.5,918.5527,423.5,922.5527,427.5,918.5527" style="stroke:#181818;stroke-width:1.0;"/><line style="stroke:#181818;stroke-width:1.0;stroke-dasharray:2.0,2.0;" x1="235.5" x2="429.5" y1="918.5527" y2="918.5527"/><polygon fill="#181818" points="568,959.1738,578,963.1738,568,967.1738,572,963.1738" style="stroke:#181818;stroke-width:1.0;"/><line style="stroke:#181818;stroke-width:1.0;" x1="445.5" x2="574" y1="963.1738" y2="963.1738"/><text fill="#000000" font-family="sans-serif" font-size="13" lengthAdjust="spacing" textLength="67" x="452.5" y="943.1211">balanceOf(</text><text fill="#000000" font-family="sans-serif" font-size="13" lengthAdjust="spacing" textLength="42" x="452.5" y="958.4316">owner)</text><polygon fill="#181818" points="456.5,1003.7949,446.5,1007.7949,456.5,1011.7949,452.5,1007.7949" style="stroke:#181818;stroke-width:1.0;"/><line style="stroke:#181818;stroke-width:1.0;stroke-dasharray:2.0,2.0;" x1="450.5" x2="584" y1="1007.7949" y2="1007.7949"/><text fill="#000000" font-family="sans-serif" font-size="13" lengthAdjust="spacing" textLength="4" x="462.5" y="987.7422">&#160;</text><text fill="#000000" font-family="sans-serif" font-size="13" lengthAdjust="spacing" textLength="5" x="462.5" y="1003.0527">?</text><polygon fill="#181818" points="710,1048.416,720,1052.416,710,1056.416,714,1052.416" style="stroke:#181818;stroke-width:1.0;"/><line style="stroke:#181818;stroke-width:1.0;" x1="445.5" x2="716" y1="1052.416" y2="1052.416"/><text fill="#000000" font-family="sans-serif" font-size="13" lengthAdjust="spacing" textLength="67" x="452.5" y="1032.3633">balanceOf(</text><text fill="#000000" font-family="sans-serif" font-size="13" lengthAdjust="spacing" textLength="9" x="452.5" y="1047.6738">?)</text><polygon fill="#181818" points="456.5,1093.0371,446.5,1097.0371,456.5,1101.0371,452.5,1097.0371" style="stroke:#181818;stroke-width:1.0;"/><line style="stroke:#181818;stroke-width:1.0;stroke-dasharray:2.0,2.0;" x1="450.5" x2="726" y1="1097.0371" y2="1097.0371"/><text fill="#000000" font-family="sans-serif" font-size="13" lengthAdjust="spacing" textLength="4" x="462.5" y="1076.9844">&#160;</text><text fill="#000000" font-family="sans-serif" font-size="13" lengthAdjust="spacing" textLength="5" x="462.5" y="1092.2949">?</text><polygon fill="#181818" points="246.5,1152.9688,236.5,1156.9688,246.5,1160.9688,242.5,1156.9688" style="stroke:#181818;stroke-width:1.0;"/><line style="stroke:#181818;stroke-width:1.0;stroke-dasharray:2.0,2.0;" x1="240.5" x2="439.5" y1="1156.9688" y2="1156.9688"/><text fill="#000000" font-family="sans-serif" font-size="13" lengthAdjust="spacing" textLength="4" x="252.5" y="1121.6055">&#160;</text><text fill="#000000" font-family="sans-serif" font-size="13" lengthAdjust="spacing" textLength="60" x="252.5" y="1136.916">amount0,</text><text fill="#000000" font-family="sans-serif" font-size="13" lengthAdjust="spacing" textLength="56" x="252.5" y="1152.2266">amount1</text><polygon fill="#181818" points="423.5,1197.5898,433.5,1201.5898,423.5,1205.5898,427.5,1201.5898" style="stroke:#181818;stroke-width:1.0;"/><line style="stroke:#181818;stroke-width:1.0;" x1="235.5" x2="429.5" y1="1201.5898" y2="1201.5898"/><text fill="#000000" font-family="sans-serif" font-size="13" lengthAdjust="spacing" textLength="63" x="242.5" y="1181.5371">positions(</text><text fill="#000000" font-family="sans-serif" font-size="13" lengthAdjust="spacing" textLength="9" x="242.5" y="1196.8477">?)</text><polygon fill="#181818" points="246.5,1303.4531,236.5,1307.4531,246.5,1311.4531,242.5,1307.4531" style="stroke:#181818;stroke-width:1.0;"/><line style="stroke:#181818;stroke-width:1.0;stroke-dasharray:2.0,2.0;" x1="240.5" x2="439.5" y1="1307.4531" y2="1307.4531"/><text fill="#000000" font-family="sans-serif" font-size="13" lengthAdjust="spacing" textLength="4" x="252.5" y="1226.1582">&#160;</text><text fill="#000000" font-family="sans-serif" font-size="13" lengthAdjust="spacing" textLength="56" x="252.5" y="1241.4688">liquidity,</text><text fill="#000000" font-family="sans-serif" font-size="13" lengthAdjust="spacing" textLength="172" x="252.5" y="1256.7793">feeGrowthInside0LastX128,</text><text fill="#000000" font-family="sans-serif" font-size="13" lengthAdjust="spacing" textLength="172" x="252.5" y="1272.0898">feeGrowthInside1LastX128,</text><text fill="#000000" font-family="sans-serif" font-size="13" lengthAdjust="spacing" textLength="90" x="252.5" y="1287.4004">tokensOwed0,</text><text fill="#000000" font-family="sans-serif" font-size="13" lengthAdjust="spacing" textLength="86" x="252.5" y="1302.7109">tokensOwed1</text><polygon fill="#181818" points="66,1394.0059,56,1398.0059,66,1402.0059,62,1398.0059" style="stroke:#181818;stroke-width:1.0;"/><line style="stroke:#181818;stroke-width:1.0;stroke-dasharray:2.0,2.0;" x1="60" x2="229.5" y1="1398.0059" y2="1398.0059"/><text fill="#000000" font-family="sans-serif" font-size="13" lengthAdjust="spacing" textLength="4" x="72" y="1332.0215">&#160;</text><text fill="#000000" font-family="sans-serif" font-size="13" lengthAdjust="spacing" textLength="52" x="72" y="1347.332">tokenId,</text><text fill="#000000" font-family="sans-serif" font-size="13" lengthAdjust="spacing" textLength="56" x="72" y="1362.6426">liquidity,</text><text fill="#000000" font-family="sans-serif" font-size="13" lengthAdjust="spacing" textLength="60" x="72" y="1377.9531">amount0,</text><text fill="#000000" font-family="sans-serif" font-size="13" lengthAdjust="spacing" textLength="56" x="72" y="1393.2637">amount1</text><path d="M164,1411.0059 L164,1558.0059 L296,1558.0059 L296,1421.0059 L286,1411.0059 L164,1411.0059 " fill="#00FFFF" style="stroke:#181818;stroke-width:0.5;"/><path d="M286,1411.0059 L286,1421.0059 L296,1421.0059 L286,1411.0059 " fill="#00FFFF" style="stroke:#181818;stroke-width:0.5;"/><text fill="#000000" font-family="sans-serif" font-size="13" lengthAdjust="spacing" textLength="56" x="170" y="1428.5742">Transfer:</text><text fill="#000000" font-family="sans-serif" font-size="13" lengthAdjust="spacing" textLength="34" x="178" y="1443.8848">from,</text><text fill="#000000" font-family="sans-serif" font-size="13" lengthAdjust="spacing" textLength="17" x="178" y="1459.1953">to,</text><text fill="#000000" font-family="sans-serif" font-size="13" lengthAdjust="spacing" textLength="48" x="178" y="1474.5059">tokenId</text><text fill="#000000" font-family="sans-serif" font-size="13" lengthAdjust="spacing" textLength="111" x="170" y="1489.8164">IncreaseLiquidity:</text><text fill="#000000" font-family="sans-serif" font-size="13" lengthAdjust="spacing" textLength="52" x="178" y="1505.127">tokenId,</text><text fill="#000000" font-family="sans-serif" font-size="13" lengthAdjust="spacing" textLength="56" x="178" y="1520.4375">liquidity,</text><text fill="#000000" font-family="sans-serif" font-size="13" lengthAdjust="spacing" textLength="60" x="178" y="1535.748">amount0,</text><text fill="#000000" font-family="sans-serif" font-size="13" lengthAdjust="spacing" textLength="56" x="178" y="1551.0586">amount1</text><path d="M393,1411.0059 L393,1543.0059 L487,1543.0059 L487,1421.0059 L477,1411.0059 L393,1411.0059 " fill="#00FFFF" style="stroke:#181818;stroke-width:0.5;"/><path d="M477,1411.0059 L477,1421.0059 L487,1421.0059 L477,1411.0059 " fill="#00FFFF" style="stroke:#181818;stroke-width:0.5;"/><text fill="#000000" font-family="sans-serif" font-size="13" lengthAdjust="spacing" textLength="32" x="399" y="1428.5742">Mint:</text><text fill="#000000" font-family="sans-serif" font-size="13" lengthAdjust="spacing" textLength="46" x="407" y="1443.8848">sender,</text><text fill="#000000" font-family="sans-serif" font-size="13" lengthAdjust="spacing" textLength="42" x="407" y="1459.1953">owner,</text><text fill="#000000" font-family="sans-serif" font-size="13" lengthAdjust="spacing" textLength="65" x="407" y="1474.5059">tickLower,</text><text fill="#000000" font-family="sans-serif" font-size="13" lengthAdjust="spacing" textLength="65" x="407" y="1489.8164">tickUpper,</text><text fill="#000000" font-family="sans-serif" font-size="13" lengthAdjust="spacing" textLength="52" x="407" y="1505.127">amount,</text><text fill="#000000" font-family="sans-serif" font-size="13" lengthAdjust="spacing" textLength="60" x="407" y="1520.4375">amount0,</text><text fill="#000000" font-family="sans-serif" font-size="13" lengthAdjust="spacing" textLength="56" x="407" y="1535.748">amount1</text><path d="M546,1411.0059 L546,1482.0059 L623,1482.0059 L623,1421.0059 L613,1411.0059 L546,1411.0059 " fill="#00FFFF" style="stroke:#181818;stroke-width:0.5;"/><path d="M613,1411.0059 L613,1421.0059 L623,1421.0059 L613,1411.0059 " fill="#00FFFF" style="stroke:#181818;stroke-width:0.5;"/><text fill="#000000" font-family="sans-serif" font-size="13" lengthAdjust="spacing" textLength="56" x="552" y="1428.5742">Transfer:</text><text fill="#000000" font-family="sans-serif" font-size="13" lengthAdjust="spacing" textLength="34" x="560" y="1443.8848">from,</text><text fill="#000000" font-family="sans-serif" font-size="13" lengthAdjust="spacing" textLength="17" x="560" y="1459.1953">to,</text><text fill="#000000" font-family="sans-serif" font-size="13" lengthAdjust="spacing" textLength="33" x="560" y="1474.5059">value</text><path d="M688,1411.0059 L688,1482.0059 L765,1482.0059 L765,1421.0059 L755,1411.0059 L688,1411.0059 " fill="#00FFFF" style="stroke:#181818;stroke-width:0.5;"/><path d="M755,1411.0059 L755,1421.0059 L765,1421.0059 L755,1411.0059 " fill="#00FFFF" style="stroke:#181818;stroke-width:0.5;"/><text fill="#000000" font-family="sans-serif" font-size="13" lengthAdjust="spacing" textLength="56" x="694" y="1428.5742">Transfer:</text><text fill="#000000" font-family="sans-serif" font-size="13" lengthAdjust="spacing" textLength="23" x="702" y="1443.8848">src,</text><text fill="#000000" font-family="sans-serif" font-size="13" lengthAdjust="spacing" textLength="24" x="702" y="1459.1953">dst,</text><text fill="#000000" font-family="sans-serif" font-size="13" lengthAdjust="spacing" textLength="25" x="702" y="1474.5059">wad</text><!--SRC=[pLJ9Rjim4BthAuZsaWAEIacsB1k1SyZIkiXY8Cvoo6L4ZbeYCkbGLEpyVKbPInp7BNhhHUGJXs_cpK8ZJ8w4hWT3tkV08UMSPH5Deq4m6YNH4B8m3lhPOC3fAAE0VSOoEWmeIv4ZngCex6TX1aFFOx0qGaco024bcXv9SyMUI30SH4aInprohaMFX17vKKeIKhkXT3mOZlj3ykroxW4pIfDFT1sCmjJt6Olf9m85ST01uYr16y744gHnTYoA-xwVOP9KTWuwG8wERgKeLh0aTn6PgKAug0foTJu_l0icawEZWzkhwU5TT3YxlldYy9MIMIb_YZJ7nlmI9Fn4FPcyTvea6Fl-8EvlWdFGWSxfNJHJAj-z23HDV1_J_YPQ1nrm5szEoOaISXFQpUb95TIv03DNJoXdMgrVT_aO3S7tOyR2ZNeB7R1yzngMI-JapFno2Ypf_TdyUqNgDYFBvRL9FPoqYHkJXP3cu55QJx0elhYAY1Sms5fuROxjjKRwc1IvClJWZNrpv6aqfPQFidZMPgO5muTHt7kKLiUJNLHQeBONRBwdakDw-zS9Q2uavCAyxZsumhMnXncYpP9HJEKMbTBr7V8zqTOYDTfS2fIcZkT2hL3N-rkRFxU7XIeh0mu6FjBNbjzwQ2ew9Yda81bUPzQDMadKRwusLcrgZhT8cZ9kano_hKLjiO-WBMRPzEEb5Nm2UPu2UpfeHD7h5V9MOb2ZTpe_h7kdqsYGHORwNAk59SxiuXAege_jt2dVBtoBibFzZhBGp4LLk1giWFyv3JNn_r6JPbTdkylqdgvSDk_KE-gTKSh5SoduPYXitt_JQcL-JMKXED8BACn342QxHy6RewesXQiutK91wwEkNc_RswuKJoeRedf1tRs-d-6v16zUrt7i4LBrXLrjOrJVYjkRIgOH2hneF8oxGsVNURQWSTrk0myb9ywzvtqbNHXjtJPXkDPtl8MrjXDjTrNjgpZQcQ_1PkXR3__ajdtD_wR-1V8Izv2qJ_WkYPi3kxX1i8kTX8xYDm00]--></g></svg>
