<?xml version="1.0" encoding="us-ascii" standalone="no"?><svg xmlns:xlink="http://www.w3.org/1999/xlink" xmlns="http://www.w3.org/2000/svg" contentStyleType="text/css" height="1543px" preserveAspectRatio="none" style="width:797px;height:1543px;background:#FFFFFF;" version="1.1" viewBox="0 0 797 1543" width="797px" zoomAndPan="magnify"><defs/><g><text fill="#000000" font-family="sans-serif" font-size="14" font-weight="bold" lengthAdjust="spacing" textLength="555" x="120.25" y="28.5352">0x57d4dadabddcf30b35199837af2614f55d09f0ae4ccf0710cbedee69324f2fa7</text><text fill="#000000" font-family="sans-serif" font-size="14" lengthAdjust="spacing" textLength="396" x="199.75" y="1531.4941">mainnet, block 17538866, Fri, 23 Jun 2023 00:57:47 GMT</text><rect fill="#FFFFFF" height="1090.1484" style="stroke:#181818;stroke-width:1.0;" width="10" x="225.5" y="170.0625"/><rect fill="#FFFFFF" height="207.7949" style="stroke:#181818;stroke-width:1.0;" width="10" x="230.5" y="649.5156"/><rect fill="#FFFFFF" height="121.1738" style="stroke:#181818;stroke-width:1.0;" width="10" x="435.5" y="199.373"/><rect fill="#FFFFFF" height="623.3848" style="stroke:#181818;stroke-width:1.0;" width="10" x="435.5" y="426.4102"/><rect fill="#FFFFFF" height="90.5527" style="stroke:#181818;stroke-width:1.0;" width="10" x="435.5" y="1094.416"/><rect fill="#FFFFFF" height="29.3105" style="stroke:#181818;stroke-width:1.0;" width="10" x="580" y="471.0313"/><rect fill="#FFFFFF" height="14" style="stroke:#181818;stroke-width:1.0;" width="10" x="580" y="724.7578"/><rect fill="#FFFFFF" height="29.3105" style="stroke:#181818;stroke-width:1.0;" width="10" x="580" y="901.9316"/><rect fill="#FFFFFF" height="29.3105" style="stroke:#181818;stroke-width:1.0;" width="10" x="722" y="544.9629"/><rect fill="#FFFFFF" height="29.3105" style="stroke:#181818;stroke-width:1.0;" width="10" x="722" y="814"/><rect fill="#FFFFFF" height="29.3105" style="stroke:#181818;stroke-width:1.0;" width="10" x="722" y="975.8633"/><line style="stroke:#181818;stroke-width:0.5;stroke-dasharray:5.0,5.0;" x1="55" x2="55" y1="123.4414" y2="1436.0059"/><line style="stroke:#181818;stroke-width:0.5;stroke-dasharray:5.0,5.0;" x1="230" x2="230" y1="123.4414" y2="1436.0059"/><line style="stroke:#181818;stroke-width:0.5;stroke-dasharray:5.0,5.0;" x1="440.5" x2="440.5" y1="123.4414" y2="1436.0059"/><line style="stroke:#181818;stroke-width:0.5;stroke-dasharray:5.0,5.0;" x1="584.5" x2="584.5" y1="123.4414" y2="1436.0059"/><line style="stroke:#181818;stroke-width:0.5;stroke-dasharray:5.0,5.0;" x1="726.5" x2="726.5" y1="123.4414" y2="1436.0059"/><text fill="#000000" font-family="sans-serif" font-size="14" lengthAdjust="spacing" textLength="94" x="5" y="120.4883">0x192b..cc60</text><ellipse cx="55" cy="55.4531" fill="#E2E2F0" rx="8" ry="8" style="stroke:#181818;stroke-width:0.5;"/><path d="M55,63.4531 L55,90.4531 M42,71.4531 L68,71.4531 M55,90.4531 L42,105.4531 M55,90.4531 L68,105.4531 " fill="none" style="stroke:#181818;stroke-width:0.5;"/><text fill="#000000" font-family="sans-serif" font-size="14" lengthAdjust="spacing" textLength="94" x="5" y="1448.541">0x192b..cc60</text><ellipse cx="55" cy="1459.9941" fill="#E2E2F0" rx="8" ry="8" style="stroke:#181818;stroke-width:0.5;"/><path d="M55,1467.9941 L55,1494.9941 M42,1475.9941 L68,1475.9941 M55,1494.9941 L42,1509.9941 M55,1494.9941 L68,1509.9941 " fill="none" style="stroke:#181818;stroke-width:0.5;"/><rect fill="#E2E2F0" height="79.9531" rx="2.5" ry="2.5" style="stroke:#181818;stroke-width:0.5;" width="231" x="115" y="42.4883"/><text fill="#000000" font-family="sans-serif" font-size="14" font-style="italic" lengthAdjust="spacing" textLength="217" x="122" y="63.0234">&#171;Uniswap V3 Positions NFT-V1&#187;</text><text fill="#000000" font-family="sans-serif" font-size="14" font-style="italic" lengthAdjust="spacing" textLength="109" x="176" y="79.5117">&#171;(UNI-V3-POS)&#187;</text><text fill="#000000" font-family="sans-serif" font-size="14" font-style="italic" lengthAdjust="spacing" textLength="214" x="123.5" y="96">&#171;NonfungiblePositionManager&#187;</text><text fill="#000000" font-family="sans-serif" font-size="14" lengthAdjust="spacing" textLength="91" x="185" y="112.4883">0xc364..fe88</text><rect fill="#E2E2F0" height="79.9531" rx="2.5" ry="2.5" style="stroke:#181818;stroke-width:0.5;" width="231" x="115" y="1435.0059"/><text fill="#000000" font-family="sans-serif" font-size="14" font-style="italic" lengthAdjust="spacing" textLength="217" x="122" y="1455.541">&#171;Uniswap V3 Positions NFT-V1&#187;</text><text fill="#000000" font-family="sans-serif" font-size="14" font-style="italic" lengthAdjust="spacing" textLength="109" x="176" y="1472.0293">&#171;(UNI-V3-POS)&#187;</text><text fill="#000000" font-family="sans-serif" font-size="14" font-style="italic" lengthAdjust="spacing" textLength="214" x="123.5" y="1488.5176">&#171;NonfungiblePositionManager&#187;</text><text fill="#000000" font-family="sans-serif" font-size="14" lengthAdjust="spacing" textLength="91" x="185" y="1505.0059">0xc364..fe88</text><rect fill="#E2E2F0" height="46.9766" rx="2.5" ry="2.5" style="stroke:#181818;stroke-width:0.5;" width="134" x="373.5" y="75.4648"/><text fill="#000000" font-family="sans-serif" font-size="14" font-style="italic" lengthAdjust="spacing" textLength="120" x="380.5" y="96">&#171;UniswapV3Pool&#187;</text><text fill="#000000" font-family="sans-serif" font-size="14" lengthAdjust="spacing" textLength="97" x="392" y="112.4883">0x88e6..5640</text><rect fill="#E2E2F0" height="46.9766" rx="2.5" ry="2.5" style="stroke:#181818;stroke-width:0.5;" width="134" x="373.5" y="1435.0059"/><text fill="#000000" font-family="sans-serif" font-size="14" font-style="italic" lengthAdjust="spacing" textLength="120" x="380.5" y="1455.541">&#171;UniswapV3Pool&#187;</text><text fill="#000000" font-family="sans-serif" font-size="14" lengthAdjust="spacing" textLength="97" x="392" y="1472.0293">0x88e6..5640</text><rect fill="#E2E2F0" height="79.9531" rx="2.5" ry="2.5" style="stroke:#181818;stroke-width:0.5;" width="135" x="517.5" y="42.4883"/><text fill="#000000" font-family="sans-serif" font-size="14" font-style="italic" lengthAdjust="spacing" textLength="78" x="546" y="63.0234">&#171;USD Coin&#187;</text><text fill="#000000" font-family="sans-serif" font-size="14" font-style="italic" lengthAdjust="spacing" textLength="62" x="554" y="79.5117">&#171;(USDC)&#187;</text><text fill="#000000" font-family="sans-serif" font-size="14" font-style="italic" lengthAdjust="spacing" textLength="121" x="524.5" y="96">&#171;FiatTokenProxy&#187;</text><text fill="#000000" font-family="sans-serif" font-size="14" lengthAdjust="spacing" textLength="96" x="537" y="112.4883">0xa0b8..eb48</text><rect fill="#E2E2F0" height="79.9531" rx="2.5" ry="2.5" style="stroke:#181818;stroke-width:0.5;" width="135" x="517.5" y="1435.0059"/><text fill="#000000" font-family="sans-serif" font-size="14" font-style="italic" lengthAdjust="spacing" textLength="78" x="546" y="1455.541">&#171;USD Coin&#187;</text><text fill="#000000" font-family="sans-serif" font-size="14" font-style="italic" lengthAdjust="spacing" textLength="62" x="554" y="1472.0293">&#171;(USDC)&#187;</text><text fill="#000000" font-family="sans-serif" font-size="14" font-style="italic" lengthAdjust="spacing" textLength="121" x="524.5" y="1488.5176">&#171;FiatTokenProxy&#187;</text><text fill="#000000" font-family="sans-serif" font-size="14" lengthAdjust="spacing" textLength="96" x="537" y="1505.0059">0xa0b8..eb48</text><rect fill="#E2E2F0" height="79.9531" rx="2.5" ry="2.5" style="stroke:#181818;stroke-width:0.5;" width="129" x="662.5" y="42.4883"/><text fill="#000000" font-family="sans-serif" font-size="14" font-style="italic" lengthAdjust="spacing" textLength="115" x="669.5" y="63.0234">&#171;Wrapped Ether&#187;</text><text fill="#000000" font-family="sans-serif" font-size="14" font-style="italic" lengthAdjust="spacing" textLength="63" x="695.5" y="79.5117">&#171;(WETH)&#187;</text><text fill="#000000" font-family="sans-serif" font-size="14" font-style="italic" lengthAdjust="spacing" textLength="62" x="696" y="96">&#171;WETH9&#187;</text><text fill="#000000" font-family="sans-serif" font-size="14" lengthAdjust="spacing" textLength="91" x="681.5" y="112.4883">0xc02a..6cc2</text><rect fill="#E2E2F0" height="79.9531" rx="2.5" ry="2.5" style="stroke:#181818;stroke-width:0.5;" width="129" x="662.5" y="1435.0059"/><text fill="#000000" font-family="sans-serif" font-size="14" font-style="italic" lengthAdjust="spacing" textLength="115" x="669.5" y="1455.541">&#171;Wrapped Ether&#187;</text><text fill="#000000" font-family="sans-serif" font-size="14" font-style="italic" lengthAdjust="spacing" textLength="63" x="695.5" y="1472.0293">&#171;(WETH)&#187;</text><text fill="#000000" font-family="sans-serif" font-size="14" font-style="italic" lengthAdjust="spacing" textLength="62" x="696" y="1488.5176">&#171;WETH9&#187;</text><text fill="#000000" font-family="sans-serif" font-size="14" lengthAdjust="spacing" textLength="91" x="681.5" y="1505.0059">0xc02a..6cc2</text><rect fill="#FFFFFF" height="1090.1484" style="stroke:#181818;stroke-width:1.0;" width="10" x="225.5" y="170.0625"/><rect fill="#FFFFFF" height="207.7949" style="stroke:#181818;stroke-width:1.0;" width="10" x="230.5" y="649.5156"/><rect fill="#FFFFFF" height="121.1738" style="stroke:#181818;stroke-width:1.0;" width="10" x="435.5" y="199.373"/><rect fill="#FFFFFF" height="623.3848" style="stroke:#181818;stroke-width:1.0;" width="10" x="435.5" y="426.4102"/><rect fill="#FFFFFF" height="90.5527" style="stroke:#181818;stroke-width:1.0;" width="10" x="435.5" y="1094.416"/><rect fill="#FFFFFF" height="29.3105" style="stroke:#181818;stroke-width:1.0;" width="10" x="580" y="471.0313"/><rect fill="#FFFFFF" height="14" style="stroke:#181818;stroke-width:1.0;" width="10" x="580" y="724.7578"/><rect fill="#FFFFFF" height="29.3105" style="stroke:#181818;stroke-width:1.0;" width="10" x="580" y="901.9316"/><rect fill="#FFFFFF" height="29.3105" style="stroke:#181818;stroke-width:1.0;" width="10" x="722" y="544.9629"/><rect fill="#FFFFFF" height="29.3105" style="stroke:#181818;stroke-width:1.0;" width="10" x="722" y="814"/><rect fill="#FFFFFF" height="29.3105" style="stroke:#181818;stroke-width:1.0;" width="10" x="722" y="975.8633"/><polygon fill="#181818" points="213.5,166.0625,223.5,170.0625,213.5,174.0625,217.5,170.0625" style="stroke:#181818;stroke-width:1.0;"/><line style="stroke:#181818;stroke-width:1.0;" x1="55" x2="219.5" y1="170.0625" y2="170.0625"/><text fill="#000000" font-family="sans-serif" font-size="13" lengthAdjust="spacing" textLength="33" x="62" y="150.0098">mint(</text><text fill="#000000" font-family="sans-serif" font-size="13" lengthAdjust="spacing" textLength="50" x="70" y="165.3203">params)</text><polygon fill="#181818" points="423.5,195.373,433.5,199.373,423.5,203.373,427.5,199.373" style="stroke:#181818;stroke-width:1.0;"/><line style="stroke:#181818;stroke-width:1.0;" x1="235.5" x2="429.5" y1="199.373" y2="199.373"/><text fill="#000000" font-family="sans-serif" font-size="13" lengthAdjust="spacing" textLength="40" x="242.5" y="194.6309">slot0()</text><polygon fill="#181818" points="246.5,316.5469,236.5,320.5469,246.5,324.5469,242.5,320.5469" style="stroke:#181818;stroke-width:1.0;"/><line style="stroke:#181818;stroke-width:1.0;stroke-dasharray:2.0,2.0;" x1="240.5" x2="439.5" y1="320.5469" y2="320.5469"/><text fill="#000000" font-family="sans-serif" font-size="13" lengthAdjust="spacing" textLength="83" x="252.5" y="223.9414">sqrtPriceX96,</text><text fill="#000000" font-family="sans-serif" font-size="13" lengthAdjust="spacing" textLength="28" x="252.5" y="239.252">tick,</text><text fill="#000000" font-family="sans-serif" font-size="13" lengthAdjust="spacing" textLength="113" x="252.5" y="254.5625">observationIndex,</text><text fill="#000000" font-family="sans-serif" font-size="13" lengthAdjust="spacing" textLength="146" x="252.5" y="269.873">observationCardinality,</text><text fill="#000000" font-family="sans-serif" font-size="13" lengthAdjust="spacing" textLength="176" x="252.5" y="285.1836">observationCardinalityNext,</text><text fill="#000000" font-family="sans-serif" font-size="13" lengthAdjust="spacing" textLength="75" x="252.5" y="300.4941">feeProtocol,</text><text fill="#000000" font-family="sans-serif" font-size="13" lengthAdjust="spacing" textLength="58" x="252.5" y="315.8047">unlocked</text><polygon fill="#181818" points="423.5,422.4102,433.5,426.4102,423.5,430.4102,427.5,426.4102" style="stroke:#181818;stroke-width:1.0;"/><line style="stroke:#181818;stroke-width:1.0;" x1="235.5" x2="429.5" y1="426.4102" y2="426.4102"/><text fill="#000000" font-family="sans-serif" font-size="13" lengthAdjust="spacing" textLength="33" x="242.5" y="345.1152">mint(</text><text fill="#000000" font-family="sans-serif" font-size="13" lengthAdjust="spacing" textLength="59" x="250.5" y="360.4258">recipient,</text><text fill="#000000" font-family="sans-serif" font-size="13" lengthAdjust="spacing" textLength="65" x="250.5" y="375.7363">tickLower,</text><text fill="#000000" font-family="sans-serif" font-size="13" lengthAdjust="spacing" textLength="65" x="250.5" y="391.0469">tickUpper,</text><text fill="#000000" font-family="sans-serif" font-size="13" lengthAdjust="spacing" textLength="52" x="250.5" y="406.3574">amount,</text><text fill="#000000" font-family="sans-serif" font-size="13" lengthAdjust="spacing" textLength="31" x="250.5" y="421.668">data)</text><polygon fill="#181818" points="568,467.0313,578,471.0313,568,475.0313,572,471.0313" style="stroke:#181818;stroke-width:1.0;"/><line style="stroke:#181818;stroke-width:1.0;" x1="445.5" x2="574" y1="471.0313" y2="471.0313"/><text fill="#000000" font-family="sans-serif" font-size="13" lengthAdjust="spacing" textLength="67" x="452.5" y="450.9785">balanceOf(</text><text fill="#000000" font-family="sans-serif" font-size="13" lengthAdjust="spacing" textLength="42" x="460.5" y="466.2891">owner)</text><polygon fill="#181818" points="456.5,496.3418,446.5,500.3418,456.5,504.3418,452.5,500.3418" style="stroke:#181818;stroke-width:1.0;"/><line style="stroke:#181818;stroke-width:1.0;stroke-dasharray:2.0,2.0;" x1="450.5" x2="584" y1="500.3418" y2="500.3418"/><text fill="#000000" font-family="sans-serif" font-size="13" lengthAdjust="spacing" textLength="5" x="462.5" y="495.5996">?</text><polygon fill="#181818" points="710,540.9629,720,544.9629,710,548.9629,714,544.9629" style="stroke:#181818;stroke-width:1.0;"/><line style="stroke:#181818;stroke-width:1.0;" x1="445.5" x2="716" y1="544.9629" y2="544.9629"/><text fill="#000000" font-family="sans-serif" font-size="13" lengthAdjust="spacing" textLength="67" x="452.5" y="524.9102">balanceOf(</text><text fill="#000000" font-family="sans-serif" font-size="13" lengthAdjust="spacing" textLength="9" x="460.5" y="540.2207">?)</text><polygon fill="#181818" points="456.5,570.2734,446.5,574.2734,456.5,578.2734,452.5,574.2734" style="stroke:#181818;stroke-width:1.0;"/><line style="stroke:#181818;stroke-width:1.0;stroke-dasharray:2.0,2.0;" x1="450.5" x2="726" y1="574.2734" y2="574.2734"/><text fill="#000000" font-family="sans-serif" font-size="13" lengthAdjust="spacing" textLength="5" x="462.5" y="569.5313">?</text><polygon fill="#181818" points="251.5,645.5156,241.5,649.5156,251.5,653.5156,247.5,649.5156" style="stroke:#181818;stroke-width:1.0;"/><line style="stroke:#181818;stroke-width:1.0;" x1="245.5" x2="434.5" y1="649.5156" y2="649.5156"/><text fill="#000000" font-family="sans-serif" font-size="13" lengthAdjust="spacing" textLength="154" x="257.5" y="598.8418">uniswapV3MintCallback(</text><text fill="#000000" font-family="sans-serif" font-size="13" lengthAdjust="spacing" textLength="95" x="265.5" y="614.1523">amount0Owed,</text><text fill="#000000" font-family="sans-serif" font-size="13" lengthAdjust="spacing" textLength="95" x="265.5" y="629.4629">amount1Owed,</text><text fill="#000000" font-family="sans-serif" font-size="13" lengthAdjust="spacing" textLength="31" x="265.5" y="644.7734">data)</text><polygon fill="#181818" points="568,720.7578,578,724.7578,568,728.7578,572,724.7578" style="stroke:#181818;stroke-width:1.0;"/><line style="stroke:#181818;stroke-width:1.0;" x1="240.5" x2="574" y1="724.7578" y2="724.7578"/><text fill="#000000" font-family="sans-serif" font-size="13" lengthAdjust="spacing" textLength="85" x="247.5" y="674.084">transferFrom(</text><text fill="#000000" font-family="sans-serif" font-size="13" lengthAdjust="spacing" textLength="34" x="255.5" y="689.3945">from,</text><text fill="#000000" font-family="sans-serif" font-size="13" lengthAdjust="spacing" textLength="17" x="255.5" y="704.7051">to,</text><text fill="#000000" font-family="sans-serif" font-size="13" lengthAdjust="spacing" textLength="52" x="255.5" y="720.0156">tokenId)</text><polygon fill="#181818" points="251.5,734.7578,241.5,738.7578,251.5,742.7578,247.5,738.7578" style="stroke:#181818;stroke-width:1.0;"/><line style="stroke:#181818;stroke-width:1.0;stroke-dasharray:2.0,2.0;" x1="245.5" x2="584" y1="738.7578" y2="738.7578"/><polygon fill="#181818" points="710,810,720,814,710,818,714,814" style="stroke:#181818;stroke-width:1.0;"/><line style="stroke:#181818;stroke-width:1.0;" x1="240.5" x2="716" y1="814" y2="814"/><text fill="#000000" font-family="sans-serif" font-size="13" lengthAdjust="spacing" textLength="85" x="247.5" y="763.3262">transferFrom(</text><text fill="#000000" font-family="sans-serif" font-size="13" lengthAdjust="spacing" textLength="23" x="255.5" y="778.6367">src,</text><text fill="#000000" font-family="sans-serif" font-size="13" lengthAdjust="spacing" textLength="24" x="255.5" y="793.9473">dst,</text><text fill="#000000" font-family="sans-serif" font-size="13" lengthAdjust="spacing" textLength="29" x="255.5" y="809.2578">wad)</text><polygon fill="#181818" points="251.5,839.3105,241.5,843.3105,251.5,847.3105,247.5,843.3105" style="stroke:#181818;stroke-width:1.0;"/><line style="stroke:#181818;stroke-width:1.0;stroke-dasharray:2.0,2.0;" x1="245.5" x2="726" y1="843.3105" y2="843.3105"/><text fill="#000000" font-family="sans-serif" font-size="13" lengthAdjust="spacing" textLength="5" x="257.5" y="838.5684">?</text><polygon fill="#181818" points="423.5,853.3105,433.5,857.3105,423.5,861.3105,427.5,857.3105" style="stroke:#181818;stroke-width:1.0;"/><line style="stroke:#181818;stroke-width:1.0;stroke-dasharray:2.0,2.0;" x1="235.5" x2="429.5" y1="857.3105" y2="857.3105"/><polygon fill="#181818" points="568,897.9316,578,901.9316,568,905.9316,572,901.9316" style="stroke:#181818;stroke-width:1.0;"/><line style="stroke:#181818;stroke-width:1.0;" x1="445.5" x2="574" y1="901.9316" y2="901.9316"/><text fill="#000000" font-family="sans-serif" font-size="13" lengthAdjust="spacing" textLength="67" x="452.5" y="881.8789">balanceOf(</text><text fill="#000000" font-family="sans-serif" font-size="13" lengthAdjust="spacing" textLength="42" x="460.5" y="897.1895">owner)</text><polygon fill="#181818" points="456.5,927.2422,446.5,931.2422,456.5,935.2422,452.5,931.2422" style="stroke:#181818;stroke-width:1.0;"/><line style="stroke:#181818;stroke-width:1.0;stroke-dasharray:2.0,2.0;" x1="450.5" x2="584" y1="931.2422" y2="931.2422"/><text fill="#000000" font-family="sans-serif" font-size="13" lengthAdjust="spacing" textLength="5" x="462.5" y="926.5">?</text><polygon fill="#181818" points="710,971.8633,720,975.8633,710,979.8633,714,975.8633" style="stroke:#181818;stroke-width:1.0;"/><line style="stroke:#181818;stroke-width:1.0;" x1="445.5" x2="716" y1="975.8633" y2="975.8633"/><text fill="#000000" font-family="sans-serif" font-size="13" lengthAdjust="spacing" textLength="67" x="452.5" y="955.8105">balanceOf(</text><text fill="#000000" font-family="sans-serif" font-size="13" lengthAdjust="spacing" textLength="9" x="460.5" y="971.1211">?)</text><polygon fill="#181818" points="456.5,1001.1738,446.5,1005.1738,456.5,1009.1738,452.5,1005.1738" style="stroke:#181818;stroke-width:1.0;"/><line style="stroke:#181818;stroke-width:1.0;stroke-dasharray:2.0,2.0;" x1="450.5" x2="726" y1="1005.1738" y2="1005.1738"/><text fill="#000000" font-family="sans-serif" font-size="13" lengthAdjust="spacing" textLength="5" x="462.5" y="1000.4316">?</text><polygon fill="#181818" points="246.5,1045.7949,236.5,1049.7949,246.5,1053.7949,242.5,1049.7949" style="stroke:#181818;stroke-width:1.0;"/><line style="stroke:#181818;stroke-width:1.0;stroke-dasharray:2.0,2.0;" x1="240.5" x2="439.5" y1="1049.7949" y2="1049.7949"/><text fill="#000000" font-family="sans-serif" font-size="13" lengthAdjust="spacing" textLength="60" x="252.5" y="1029.7422">amount0,</text><text fill="#000000" font-family="sans-serif" font-size="13" lengthAdjust="spacing" textLength="56" x="252.5" y="1045.0527">amount1</text><polygon fill="#181818" points="423.5,1090.416,433.5,1094.416,423.5,1098.416,427.5,1094.416" style="stroke:#181818;stroke-width:1.0;"/><line style="stroke:#181818;stroke-width:1.0;" x1="235.5" x2="429.5" y1="1094.416" y2="1094.416"/><text fill="#000000" font-family="sans-serif" font-size="13" lengthAdjust="spacing" textLength="63" x="242.5" y="1074.3633">positions(</text><text fill="#000000" font-family="sans-serif" font-size="13" lengthAdjust="spacing" textLength="9" x="250.5" y="1089.6738">?)</text><polygon fill="#181818" points="246.5,1180.9688,236.5,1184.9688,246.5,1188.9688,242.5,1184.9688" style="stroke:#181818;stroke-width:1.0;"/><line style="stroke:#181818;stroke-width:1.0;stroke-dasharray:2.0,2.0;" x1="240.5" x2="439.5" y1="1184.9688" y2="1184.9688"/><text fill="#000000" font-family="sans-serif" font-size="13" lengthAdjust="spacing" textLength="56" x="252.5" y="1118.9844">liquidity,</text><text fill="#000000" font-family="sans-serif" font-size="13" lengthAdjust="spacing" textLength="172" x="252.5" y="1134.2949">feeGrowthInside0LastX128,</text><text fill="#000000" font-family="sans-serif" font-size="13" lengthAdjust="spacing" textLength="172" x="252.5" y="1149.6055">feeGrowthInside1LastX128,</text><text fill="#000000" font-family="sans-serif" font-size="13" lengthAdjust="spacing" textLength="90" x="252.5" y="1164.916">tokensOwed0,</text><text fill="#000000" font-family="sans-serif" font-size="13" lengthAdjust="spacing" textLength="86" x="252.5" y="1180.2266">tokensOwed1</text><polygon fill="#181818" points="66,1256.2109,56,1260.2109,66,1264.2109,62,1260.2109" style="stroke:#181818;stroke-width:1.0;"/><line style="stroke:#181818;stroke-width:1.0;stroke-dasharray:2.0,2.0;" x1="60" x2="229.5" y1="1260.2109" y2="1260.2109"/><text fill="#000000" font-family="sans-serif" font-size="13" lengthAdjust="spacing" textLength="52" x="72" y="1209.5371">tokenId,</text><text fill="#000000" font-family="sans-serif" font-size="13" lengthAdjust="spacing" textLength="56" x="72" y="1224.8477">liquidity,</text><text fill="#000000" font-family="sans-serif" font-size="13" lengthAdjust="spacing" textLength="60" x="72" y="1240.1582">amount0,</text><text fill="#000000" font-family="sans-serif" font-size="13" lengthAdjust="spacing" textLength="56" x="72" y="1255.4688">amount1</text><path d="M164,1273.2109 L164,1420.2109 L296,1420.2109 L296,1283.2109 L286,1273.2109 L164,1273.2109 " fill="#00FFFF" style="stroke:#181818;stroke-width:0.5;"/><path d="M286,1273.2109 L286,1283.2109 L296,1283.2109 L286,1273.2109 " fill="#00FFFF" style="stroke:#181818;stroke-width:0.5;"/><text fill="#000000" font-family="sans-serif" font-size="13" lengthAdjust="spacing" textLength="56" x="170" y="1290.7793">Transfer:</text><text fill="#000000" font-family="sans-serif" font-size="13" lengthAdjust="spacing" textLength="34" x="178" y="1306.0898">from,</text><text fill="#000000" font-family="sans-serif" font-size="13" lengthAdjust="spacing" textLength="17" x="178" y="1321.4004">to,</text><text fill="#000000" font-family="sans-serif" font-size="13" lengthAdjust="spacing" textLength="48" x="178" y="1336.7109">tokenId</text><text fill="#000000" font-family="sans-serif" font-size="13" lengthAdjust="spacing" textLength="111" x="170" y="1352.0215">IncreaseLiquidity:</text><text fill="#000000" font-family="sans-serif" font-size="13" lengthAdjust="spacing" textLength="52" x="178" y="1367.332">tokenId,</text><text fill="#000000" font-family="sans-serif" font-size="13" lengthAdjust="spacing" textLength="56" x="178" y="1382.6426">liquidity,</text><text fill="#000000" font-family="sans-serif" font-size="13" lengthAdjust="spacing" textLength="60" x="178" y="1397.9531">amount0,</text><text fill="#000000" font-family="sans-serif" font-size="13" lengthAdjust="spacing" textLength="56" x="178" y="1413.2637">amount1</text><path d="M393,1273.2109 L393,1405.2109 L487,1405.2109 L487,1283.2109 L477,1273.2109 L393,1273.2109 " fill="#00FFFF" style="stroke:#181818;stroke-width:0.5;"/><path d="M477,1273.2109 L477,1283.2109 L487,1283.2109 L477,1273.2109 " fill="#00FFFF" style="stroke:#181818;stroke-width:0.5;"/><text fill="#000000" font-family="sans-serif" font-size="13" lengthAdjust="spacing" textLength="32" x="399" y="1290.7793">Mint:</text><text fill="#000000" font-family="sans-serif" font-size="13" lengthAdjust="spacing" textLength="46" x="407" y="1306.0898">sender,</text><text fill="#000000" font-family="sans-serif" font-size="13" lengthAdjust="spacing" textLength="42" x="407" y="1321.4004">owner,</text><text fill="#000000" font-family="sans-serif" font-size="13" lengthAdjust="spacing" textLength="65" x="407" y="1336.7109">tickLower,</text><text fill="#000000" font-family="sans-serif" font-size="13" lengthAdjust="spacing" textLength="65" x="407" y="1352.0215">tickUpper,</text><text fill="#000000" font-family="sans-serif" font-size="13" lengthAdjust="spacing" textLength="52" x="407" y="1367.332">amount,</text><text fill="#000000" font-family="sans-serif" font-size="13" lengthAdjust="spacing" textLength="60" x="407" y="1382.6426">amount0,</text><text fill="#000000" font-family="sans-serif" font-size="13" lengthAdjust="spacing" textLength="56" x="407" y="1397.9531">amount1</text><path d="M546,1273.2109 L546,1344.2109 L623,1344.2109 L623,1283.2109 L613,1273.2109 L546,1273.2109 " fill="#00FFFF" style="stroke:#181818;stroke-width:0.5;"/><path d="M613,1273.2109 L613,1283.2109 L623,1283.2109 L613,1273.2109 " fill="#00FFFF" style="stroke:#181818;stroke-width:0.5;"/><text fill="#000000" font-family="sans-serif" font-size="13" lengthAdjust="spacing" textLength="56" x="552" y="1290.7793">Transfer:</text><text fill="#000000" font-family="sans-serif" font-size="13" lengthAdjust="spacing" textLength="34" x="560" y="1306.0898">from,</text><text fill="#000000" font-family="sans-serif" font-size="13" lengthAdjust="spacing" textLength="17" x="560" y="1321.4004">to,</text><text fill="#000000" font-family="sans-serif" font-size="13" lengthAdjust="spacing" textLength="33" x="560" y="1336.7109">value</text><path d="M688,1273.2109 L688,1344.2109 L765,1344.2109 L765,1283.2109 L755,1273.2109 L688,1273.2109 " fill="#00FFFF" style="stroke:#181818;stroke-width:0.5;"/><path d="M755,1273.2109 L755,1283.2109 L765,1283.2109 L755,1273.2109 " fill="#00FFFF" style="stroke:#181818;stroke-width:0.5;"/><text fill="#000000" font-family="sans-serif" font-size="13" lengthAdjust="spacing" textLength="56" x="694" y="1290.7793">Transfer:</text><text fill="#000000" font-family="sans-serif" font-size="13" lengthAdjust="spacing" textLength="23" x="702" y="1306.0898">src,</text><text fill="#000000" font-family="sans-serif" font-size="13" lengthAdjust="spacing" textLength="24" x="702" y="1321.4004">dst,</text><text fill="#000000" font-family="sans-serif" font-size="13" lengthAdjust="spacing" textLength="25" x="702" y="1336.7109">wad</text><!--SRC=[pLJBRjiw4DtpAuZUJGeaAYNPicm4xY9jMXTv68YJTj7DY1orH6JIeQZO_VkIUZfntOkxkolnQ8Pdvio3Lje2ATkD9s8aG40c1CzZbiNZS3fDumdaKHAEyl5Oi6dE04USvsmICfwXG4ocSJJAenmcX73OMAaLNODK2kqfpGhD7sau6STfcYIdzDB8Knh5z4kbQCJSWR7PU38RJUYdwnK1RhMXRzWkd4PP472Ui3SKIkgX1vHim5Z9vGQKzNuyJaP1a6EQrduUUa3Fp- -LBBUmeGynNUfI-gnAUdEvEdi8v_FpyvFxcyNPGtoslBrxw_6DLdcbViYimCxz6XJyG3EVlmwQffW4mJWPDSbvwC4Gz25UQbqSNWIMfK60sQZ9raCF_CMx3_H2IzMaTlVXeaxgKe9TwKTKIwDtlmxvE8iW21BEeqQzWnuulgy6DXiKzAFzwHKuqgyVLvzhKd-OEYxI5_LitXTkHjTIsPFlYb8N2zRbMzyJ-GmMUn_ILzbTxCJFQ5beoqxs_3iJCMWhesZvPEpII8xVfidfT-M4FBgFpaeqpjyLVA44xbx-kW0Zf892sbz73JUuiywO8xeoMSrruL2b_E2XE99ihzAWAwT4vHaezJbTwIsQ7jsxCZO8rhfgtGHO-9FGVX9ShAwvCvf10OhZRLu7r5k5PkzovzTLwVqBbgwbhrdUx_UbzJd2q7UsweRpsec_WAB8W3-U3DBOxHR5djImnw_q_d4G1htMW2fpD9T6hslwt1sQWkhsuqPw8VvIX1VCGmqEc4l3cmJBfZ5R47yjJ4V_VsbKUsZhxoIqbJyojPlk8JkWVhrhXNogf6YsnYt69wEtzkT2bL8WkuBIVWkZzD0Kxfdg9fL-1DWB57OXsYuwutwmGob4QPUWVaOpFC__m5C5PDMsSqRQ6I7rY91-GiX2SODGubKNOJOOlTyGcVHJF1n3WafG7vwGTtH8e-zRauPV1yzREc-twwHjVPr7_nwG_UUWZ_2VmlRF_R-fVuQYmYCa_Hj_IEANWJIxGEfL62X-0m00]--></g></svg>
