<?xml version="1.0" encoding="us-ascii" standalone="no"?><svg xmlns:xlink="http://www.w3.org/1999/xlink" xmlns="http://www.w3.org/2000/svg" contentStyleType="text/css" height="2218px" preserveAspectRatio="none" style="width:1082px;height:2218px;background:#FFFFFF;" version="1.1" viewBox="0 0 1082 2218" width="1082px" zoomAndPan="magnify"><defs/><g><text fill="#000000" font-family="sans-serif" font-size="14" font-weight="bold" lengthAdjust="spacing" textLength="572" x="254" y="28.5352">0x687803e585d370abe1bc06f45bb8d4e9c783a283d05eee655ae4b5332a9069f1</text><text fill="#000000" font-family="sans-serif" font-size="14" lengthAdjust="spacing" textLength="404" x="338" y="2206.9473">mainnet, block 17521271, Tue, 20 Jun 2023 13:40:59 GMT</text><rect fill="#FFFFFF" height="14" style="stroke:#181818;stroke-width:1.0;" width="10" x="52" y="1864.3535"/><rect fill="#FFFFFF" height="1719.6699" style="stroke:#181818;stroke-width:1.0;" width="10" x="182.5" y="200.6836"/><rect fill="#FFFFFF" height="72.6211" style="stroke:#181818;stroke-width:1.0;" width="10" x="187.5" y="1819.7324"/><rect fill="#FFFFFF" height="14" style="stroke:#181818;stroke-width:1.0;" width="10" x="316.5" y="275.9258"/><rect fill="#FFFFFF" height="118.5527" style="stroke:#181818;stroke-width:1.0;" width="10" x="316.5" y="380.4785"/><rect fill="#FFFFFF" height="29.3105" style="stroke:#181818;stroke-width:1.0;" width="10" x="444.5" y="455.7207"/><rect fill="#FFFFFF" height="29.3105" style="stroke:#181818;stroke-width:1.0;" width="10" x="444.5" y="706.8262"/><rect fill="#FFFFFF" height="29.3105" style="stroke:#181818;stroke-width:1.0;" width="10" x="444.5" y="960.5527"/><rect fill="#FFFFFF" height="29.3105" style="stroke:#181818;stroke-width:1.0;" width="10" x="581.5" y="543.6523"/><rect fill="#FFFFFF" height="29.3105" style="stroke:#181818;stroke-width:1.0;" width="10" x="581.5" y="1391.4531"/><rect fill="#FFFFFF" height="29.3105" style="stroke:#181818;stroke-width:1.0;" width="10" x="581.5" y="1539.3164"/><rect fill="#FFFFFF" height="29.3105" style="stroke:#181818;stroke-width:1.0;" width="10" x="581.5" y="1627.248"/><rect fill="#FFFFFF" height="29.3105" style="stroke:#181818;stroke-width:1.0;" width="10" x="581.5" y="1701.1797"/><rect fill="#FFFFFF" height="131.2422" style="stroke:#181818;stroke-width:1.0;" width="10" x="581.5" y="1775.1113"/><rect fill="#FFFFFF" height="59.9316" style="stroke:#181818;stroke-width:1.0;" width="10" x="721" y="602.2734"/><rect fill="#FFFFFF" height="251.1055" style="stroke:#181818;stroke-width:1.0;" width="10" x="721" y="826.6895"/><rect fill="#FFFFFF" height="29.3105" style="stroke:#181818;stroke-width:1.0;" width="10" x="863.5" y="886.6211"/><rect fill="#FFFFFF" height="29.3105" style="stroke:#181818;stroke-width:1.0;" width="10" x="863.5" y="1034.4844"/><rect fill="#FFFFFF" height="29.3105" style="stroke:#181818;stroke-width:1.0;" width="10" x="863.5" y="1211.6582"/><rect fill="#FFFFFF" height="29.3105" style="stroke:#181818;stroke-width:1.0;" width="10" x="863.5" y="1465.3848"/><rect fill="#FFFFFF" height="59.9316" style="stroke:#181818;stroke-width:1.0;" width="10" x="1006" y="1107.1055"/><rect fill="#FFFFFF" height="251.1055" style="stroke:#181818;stroke-width:1.0;" width="10" x="1006" y="1331.5215"/><line style="stroke:#181818;stroke-width:0.5;stroke-dasharray:5.0,5.0;" x1="57" x2="57" y1="123.4414" y2="2111.459"/><line style="stroke:#181818;stroke-width:0.5;stroke-dasharray:5.0,5.0;" x1="187" x2="187" y1="123.4414" y2="2111.459"/><line style="stroke:#181818;stroke-width:0.5;stroke-dasharray:5.0,5.0;" x1="321" x2="321" y1="123.4414" y2="2111.459"/><line style="stroke:#181818;stroke-width:0.5;stroke-dasharray:5.0,5.0;" x1="449" x2="449" y1="123.4414" y2="2111.459"/><line style="stroke:#181818;stroke-width:0.5;stroke-dasharray:5.0,5.0;" x1="586" x2="586" y1="123.4414" y2="2111.459"/><line style="stroke:#181818;stroke-width:0.5;stroke-dasharray:5.0,5.0;" x1="726" x2="726" y1="123.4414" y2="2111.459"/><line style="stroke:#181818;stroke-width:0.5;stroke-dasharray:5.0,5.0;" x1="868" x2="868" y1="123.4414" y2="2111.459"/><line style="stroke:#181818;stroke-width:0.5;stroke-dasharray:5.0,5.0;" x1="1011" x2="1011" y1="123.4414" y2="2111.459"/><text fill="#000000" font-family="sans-serif" font-size="14" lengthAdjust="spacing" textLength="98" x="5" y="120.4883">0xd00b..3391</text><ellipse cx="57" cy="55.4531" fill="#E2E2F0" rx="8" ry="8" style="stroke:#181818;stroke-width:0.5;"/><path d="M57,63.4531 L57,90.4531 M44,71.4531 L70,71.4531 M57,90.4531 L44,105.4531 M57,90.4531 L70,105.4531 " fill="none" style="stroke:#181818;stroke-width:0.5;"/><text fill="#000000" font-family="sans-serif" font-size="14" lengthAdjust="spacing" textLength="98" x="5" y="2123.9941">0xd00b..3391</text><ellipse cx="57" cy="2135.4473" fill="#E2E2F0" rx="8" ry="8" style="stroke:#181818;stroke-width:0.5;"/><path d="M57,2143.4473 L57,2170.4473 M44,2151.4473 L70,2151.4473 M57,2170.4473 L44,2185.4473 M57,2170.4473 L70,2185.4473 " fill="none" style="stroke:#181818;stroke-width:0.5;"/><rect fill="#E2E2F0" height="46.9766" rx="2.5" ry="2.5" style="stroke:#181818;stroke-width:0.5;" width="137" x="119" y="75.4648"/><text fill="#000000" font-family="sans-serif" font-size="14" font-style="italic" lengthAdjust="spacing" textLength="123" x="126" y="96">&#171;UniversalRouter&#187;</text><text fill="#000000" font-family="sans-serif" font-size="14" lengthAdjust="spacing" textLength="87" x="144" y="112.4883">0x3fc9..7fad</text><rect fill="#E2E2F0" height="46.9766" rx="2.5" ry="2.5" style="stroke:#181818;stroke-width:0.5;" width="137" x="119" y="2110.459"/><text fill="#000000" font-family="sans-serif" font-size="14" font-style="italic" lengthAdjust="spacing" textLength="123" x="126" y="2130.9941">&#171;UniversalRouter&#187;</text><text fill="#000000" font-family="sans-serif" font-size="14" lengthAdjust="spacing" textLength="87" x="144" y="2147.4824">0x3fc9..7fad</text><rect fill="#E2E2F0" height="46.9766" rx="2.5" ry="2.5" style="stroke:#181818;stroke-width:0.5;" width="111" x="266" y="75.4648"/><text fill="#000000" font-family="sans-serif" font-size="14" font-style="italic" lengthAdjust="spacing" textLength="67" x="288" y="96">&#171;Permit2&#187;</text><text fill="#000000" font-family="sans-serif" font-size="14" lengthAdjust="spacing" textLength="97" x="273" y="112.4883">0x0000..8ba3</text><rect fill="#E2E2F0" height="46.9766" rx="2.5" ry="2.5" style="stroke:#181818;stroke-width:0.5;" width="111" x="266" y="2110.459"/><text fill="#000000" font-family="sans-serif" font-size="14" font-style="italic" lengthAdjust="spacing" textLength="67" x="288" y="2130.9941">&#171;Permit2&#187;</text><text fill="#000000" font-family="sans-serif" font-size="14" lengthAdjust="spacing" textLength="97" x="273" y="2147.4824">0x0000..8ba3</text><rect fill="#E2E2F0" height="79.9531" rx="2.5" ry="2.5" style="stroke:#181818;stroke-width:0.5;" width="125" x="387" y="42.4883"/><text fill="#000000" font-family="sans-serif" font-size="14" font-style="italic" lengthAdjust="spacing" textLength="111" x="394" y="63.0234">&#171;DeRace Token&#187;</text><text fill="#000000" font-family="sans-serif" font-size="14" font-style="italic" lengthAdjust="spacing" textLength="61" x="419" y="79.5117">&#171;(DERC)&#187;</text><text fill="#000000" font-family="sans-serif" font-size="14" font-style="italic" lengthAdjust="spacing" textLength="59" x="420" y="96">&#171;ERC20&#187;</text><text fill="#000000" font-family="sans-serif" font-size="14" lengthAdjust="spacing" textLength="90" x="404.5" y="112.4883">0x9fa6..a9ae</text><rect fill="#E2E2F0" height="79.9531" rx="2.5" ry="2.5" style="stroke:#181818;stroke-width:0.5;" width="125" x="387" y="2110.459"/><text fill="#000000" font-family="sans-serif" font-size="14" font-style="italic" lengthAdjust="spacing" textLength="111" x="394" y="2130.9941">&#171;DeRace Token&#187;</text><text fill="#000000" font-family="sans-serif" font-size="14" font-style="italic" lengthAdjust="spacing" textLength="61" x="419" y="2147.4824">&#171;(DERC)&#187;</text><text fill="#000000" font-family="sans-serif" font-size="14" font-style="italic" lengthAdjust="spacing" textLength="59" x="420" y="2163.9707">&#171;ERC20&#187;</text><text fill="#000000" font-family="sans-serif" font-size="14" lengthAdjust="spacing" textLength="90" x="404.5" y="2180.459">0x9fa6..a9ae</text><rect fill="#E2E2F0" height="79.9531" rx="2.5" ry="2.5" style="stroke:#181818;stroke-width:0.5;" width="129" x="522" y="42.4883"/><text fill="#000000" font-family="sans-serif" font-size="14" font-style="italic" lengthAdjust="spacing" textLength="115" x="529" y="63.0234">&#171;Wrapped Ether&#187;</text><text fill="#000000" font-family="sans-serif" font-size="14" font-style="italic" lengthAdjust="spacing" textLength="63" x="555" y="79.5117">&#171;(WETH)&#187;</text><text fill="#000000" font-family="sans-serif" font-size="14" font-style="italic" lengthAdjust="spacing" textLength="62" x="555.5" y="96">&#171;WETH9&#187;</text><text fill="#000000" font-family="sans-serif" font-size="14" lengthAdjust="spacing" textLength="91" x="541" y="112.4883">0xc02a..6cc2</text><rect fill="#E2E2F0" height="79.9531" rx="2.5" ry="2.5" style="stroke:#181818;stroke-width:0.5;" width="129" x="522" y="2110.459"/><text fill="#000000" font-family="sans-serif" font-size="14" font-style="italic" lengthAdjust="spacing" textLength="115" x="529" y="2130.9941">&#171;Wrapped Ether&#187;</text><text fill="#000000" font-family="sans-serif" font-size="14" font-style="italic" lengthAdjust="spacing" textLength="63" x="555" y="2147.4824">&#171;(WETH)&#187;</text><text fill="#000000" font-family="sans-serif" font-size="14" font-style="italic" lengthAdjust="spacing" textLength="62" x="555.5" y="2163.9707">&#171;WETH9&#187;</text><text fill="#000000" font-family="sans-serif" font-size="14" lengthAdjust="spacing" textLength="91" x="541" y="2180.459">0xc02a..6cc2</text><rect fill="#E2E2F0" height="79.9531" rx="2.5" ry="2.5" style="stroke:#181818;stroke-width:0.5;" width="130" x="661" y="42.4883"/><text fill="#000000" font-family="sans-serif" font-size="14" font-style="italic" lengthAdjust="spacing" textLength="94" x="679" y="63.0234">&#171;Uniswap V2&#187;</text><text fill="#000000" font-family="sans-serif" font-size="14" font-style="italic" lengthAdjust="spacing" textLength="74" x="689" y="79.5117">&#171;(UNI-V2)&#187;</text><text fill="#000000" font-family="sans-serif" font-size="14" font-style="italic" lengthAdjust="spacing" textLength="116" x="668" y="96">&#171;UniswapV2Pair&#187;</text><text fill="#000000" font-family="sans-serif" font-size="14" lengthAdjust="spacing" textLength="95" x="678.5" y="112.4883">0xc88a..048d</text><rect fill="#E2E2F0" height="79.9531" rx="2.5" ry="2.5" style="stroke:#181818;stroke-width:0.5;" width="130" x="661" y="2110.459"/><text fill="#000000" font-family="sans-serif" font-size="14" font-style="italic" lengthAdjust="spacing" textLength="94" x="679" y="2130.9941">&#171;Uniswap V2&#187;</text><text fill="#000000" font-family="sans-serif" font-size="14" font-style="italic" lengthAdjust="spacing" textLength="74" x="689" y="2147.4824">&#171;(UNI-V2)&#187;</text><text fill="#000000" font-family="sans-serif" font-size="14" font-style="italic" lengthAdjust="spacing" textLength="116" x="668" y="2163.9707">&#171;UniswapV2Pair&#187;</text><text fill="#000000" font-family="sans-serif" font-size="14" lengthAdjust="spacing" textLength="95" x="678.5" y="2180.459">0xc88a..048d</text><rect fill="#E2E2F0" height="79.9531" rx="2.5" ry="2.5" style="stroke:#181818;stroke-width:0.5;" width="135" x="801" y="42.4883"/><text fill="#000000" font-family="sans-serif" font-size="14" font-style="italic" lengthAdjust="spacing" textLength="78" x="829.5" y="63.0234">&#171;USD Coin&#187;</text><text fill="#000000" font-family="sans-serif" font-size="14" font-style="italic" lengthAdjust="spacing" textLength="62" x="837.5" y="79.5117">&#171;(USDC)&#187;</text><text fill="#000000" font-family="sans-serif" font-size="14" font-style="italic" lengthAdjust="spacing" textLength="121" x="808" y="96">&#171;FiatTokenProxy&#187;</text><text fill="#000000" font-family="sans-serif" font-size="14" lengthAdjust="spacing" textLength="96" x="820.5" y="112.4883">0xa0b8..eb48</text><rect fill="#E2E2F0" height="79.9531" rx="2.5" ry="2.5" style="stroke:#181818;stroke-width:0.5;" width="135" x="801" y="2110.459"/><text fill="#000000" font-family="sans-serif" font-size="14" font-style="italic" lengthAdjust="spacing" textLength="78" x="829.5" y="2130.9941">&#171;USD Coin&#187;</text><text fill="#000000" font-family="sans-serif" font-size="14" font-style="italic" lengthAdjust="spacing" textLength="62" x="837.5" y="2147.4824">&#171;(USDC)&#187;</text><text fill="#000000" font-family="sans-serif" font-size="14" font-style="italic" lengthAdjust="spacing" textLength="121" x="808" y="2163.9707">&#171;FiatTokenProxy&#187;</text><text fill="#000000" font-family="sans-serif" font-size="14" lengthAdjust="spacing" textLength="96" x="820.5" y="2180.459">0xa0b8..eb48</text><rect fill="#E2E2F0" height="79.9531" rx="2.5" ry="2.5" style="stroke:#181818;stroke-width:0.5;" width="130" x="946" y="42.4883"/><text fill="#000000" font-family="sans-serif" font-size="14" font-style="italic" lengthAdjust="spacing" textLength="94" x="964" y="63.0234">&#171;Uniswap V2&#187;</text><text fill="#000000" font-family="sans-serif" font-size="14" font-style="italic" lengthAdjust="spacing" textLength="74" x="974" y="79.5117">&#171;(UNI-V2)&#187;</text><text fill="#000000" font-family="sans-serif" font-size="14" font-style="italic" lengthAdjust="spacing" textLength="116" x="953" y="96">&#171;UniswapV2Pair&#187;</text><text fill="#000000" font-family="sans-serif" font-size="14" lengthAdjust="spacing" textLength="93" x="964.5" y="112.4883">0xb4e1..c9dc</text><rect fill="#E2E2F0" height="79.9531" rx="2.5" ry="2.5" style="stroke:#181818;stroke-width:0.5;" width="130" x="946" y="2110.459"/><text fill="#000000" font-family="sans-serif" font-size="14" font-style="italic" lengthAdjust="spacing" textLength="94" x="964" y="2130.9941">&#171;Uniswap V2&#187;</text><text fill="#000000" font-family="sans-serif" font-size="14" font-style="italic" lengthAdjust="spacing" textLength="74" x="974" y="2147.4824">&#171;(UNI-V2)&#187;</text><text fill="#000000" font-family="sans-serif" font-size="14" font-style="italic" lengthAdjust="spacing" textLength="116" x="953" y="2163.9707">&#171;UniswapV2Pair&#187;</text><text fill="#000000" font-family="sans-serif" font-size="14" lengthAdjust="spacing" textLength="93" x="964.5" y="2180.459">0xb4e1..c9dc</text><rect fill="#FFFFFF" height="14" style="stroke:#181818;stroke-width:1.0;" width="10" x="52" y="1864.3535"/><rect fill="#FFFFFF" height="1719.6699" style="stroke:#181818;stroke-width:1.0;" width="10" x="182.5" y="200.6836"/><rect fill="#FFFFFF" height="72.6211" style="stroke:#181818;stroke-width:1.0;" width="10" x="187.5" y="1819.7324"/><rect fill="#FFFFFF" height="14" style="stroke:#181818;stroke-width:1.0;" width="10" x="316.5" y="275.9258"/><rect fill="#FFFFFF" height="118.5527" style="stroke:#181818;stroke-width:1.0;" width="10" x="316.5" y="380.4785"/><rect fill="#FFFFFF" height="29.3105" style="stroke:#181818;stroke-width:1.0;" width="10" x="444.5" y="455.7207"/><rect fill="#FFFFFF" height="29.3105" style="stroke:#181818;stroke-width:1.0;" width="10" x="444.5" y="706.8262"/><rect fill="#FFFFFF" height="29.3105" style="stroke:#181818;stroke-width:1.0;" width="10" x="444.5" y="960.5527"/><rect fill="#FFFFFF" height="29.3105" style="stroke:#181818;stroke-width:1.0;" width="10" x="581.5" y="543.6523"/><rect fill="#FFFFFF" height="29.3105" style="stroke:#181818;stroke-width:1.0;" width="10" x="581.5" y="1391.4531"/><rect fill="#FFFFFF" height="29.3105" style="stroke:#181818;stroke-width:1.0;" width="10" x="581.5" y="1539.3164"/><rect fill="#FFFFFF" height="29.3105" style="stroke:#181818;stroke-width:1.0;" width="10" x="581.5" y="1627.248"/><rect fill="#FFFFFF" height="29.3105" style="stroke:#181818;stroke-width:1.0;" width="10" x="581.5" y="1701.1797"/><rect fill="#FFFFFF" height="131.2422" style="stroke:#181818;stroke-width:1.0;" width="10" x="581.5" y="1775.1113"/><rect fill="#FFFFFF" height="59.9316" style="stroke:#181818;stroke-width:1.0;" width="10" x="721" y="602.2734"/><rect fill="#FFFFFF" height="251.1055" style="stroke:#181818;stroke-width:1.0;" width="10" x="721" y="826.6895"/><rect fill="#FFFFFF" height="29.3105" style="stroke:#181818;stroke-width:1.0;" width="10" x="863.5" y="886.6211"/><rect fill="#FFFFFF" height="29.3105" style="stroke:#181818;stroke-width:1.0;" width="10" x="863.5" y="1034.4844"/><rect fill="#FFFFFF" height="29.3105" style="stroke:#181818;stroke-width:1.0;" width="10" x="863.5" y="1211.6582"/><rect fill="#FFFFFF" height="29.3105" style="stroke:#181818;stroke-width:1.0;" width="10" x="863.5" y="1465.3848"/><rect fill="#FFFFFF" height="59.9316" style="stroke:#181818;stroke-width:1.0;" width="10" x="1006" y="1107.1055"/><rect fill="#FFFFFF" height="251.1055" style="stroke:#181818;stroke-width:1.0;" width="10" x="1006" y="1331.5215"/><polygon fill="#181818" points="170.5,196.6836,180.5,200.6836,170.5,204.6836,174.5,200.6836" style="stroke:#181818;stroke-width:1.0;"/><line style="stroke:#181818;stroke-width:1.0;" x1="57" x2="176.5" y1="200.6836" y2="200.6836"/><text fill="#000000" font-family="sans-serif" font-size="13" lengthAdjust="spacing" textLength="53" x="64" y="150.0098">execute(</text><text fill="#000000" font-family="sans-serif" font-size="13" lengthAdjust="spacing" textLength="73" x="72" y="165.3203">commands,</text><text fill="#000000" font-family="sans-serif" font-size="13" lengthAdjust="spacing" textLength="44" x="72" y="180.6309">inputs,</text><text fill="#000000" font-family="sans-serif" font-size="13" lengthAdjust="spacing" textLength="57" x="72" y="195.9414">deadline)</text><polygon fill="#181818" points="304.5,271.9258,314.5,275.9258,304.5,279.9258,308.5,275.9258" style="stroke:#181818;stroke-width:1.0;"/><line style="stroke:#181818;stroke-width:1.0;" x1="192.5" x2="310.5" y1="275.9258" y2="275.9258"/><text fill="#000000" font-family="sans-serif" font-size="13" lengthAdjust="spacing" textLength="45" x="199.5" y="225.252">permit(</text><text fill="#000000" font-family="sans-serif" font-size="13" lengthAdjust="spacing" textLength="42" x="207.5" y="240.5625">owner,</text><text fill="#000000" font-family="sans-serif" font-size="13" lengthAdjust="spacing" textLength="83" x="207.5" y="255.873">permitSingle,</text><text fill="#000000" font-family="sans-serif" font-size="13" lengthAdjust="spacing" textLength="63" x="207.5" y="271.1836">signature)</text><polygon fill="#181818" points="203.5,285.9258,193.5,289.9258,203.5,293.9258,199.5,289.9258" style="stroke:#181818;stroke-width:1.0;"/><line style="stroke:#181818;stroke-width:1.0;stroke-dasharray:2.0,2.0;" x1="197.5" x2="320.5" y1="289.9258" y2="289.9258"/><polygon fill="#181818" points="304.5,376.4785,314.5,380.4785,304.5,384.4785,308.5,380.4785" style="stroke:#181818;stroke-width:1.0;"/><line style="stroke:#181818;stroke-width:1.0;" x1="192.5" x2="310.5" y1="380.4785" y2="380.4785"/><text fill="#000000" font-family="sans-serif" font-size="13" lengthAdjust="spacing" textLength="85" x="199.5" y="314.4941">transferFrom(</text><text fill="#000000" font-family="sans-serif" font-size="13" lengthAdjust="spacing" textLength="34" x="207.5" y="329.8047">from,</text><text fill="#000000" font-family="sans-serif" font-size="13" lengthAdjust="spacing" textLength="17" x="207.5" y="345.1152">to,</text><text fill="#000000" font-family="sans-serif" font-size="13" lengthAdjust="spacing" textLength="52" x="207.5" y="360.4258">amount,</text><text fill="#000000" font-family="sans-serif" font-size="13" lengthAdjust="spacing" textLength="40" x="207.5" y="375.7363">token)</text><polygon fill="#181818" points="432.5,451.7207,442.5,455.7207,432.5,459.7207,436.5,455.7207" style="stroke:#181818;stroke-width:1.0;"/><line style="stroke:#181818;stroke-width:1.0;" x1="326.5" x2="438.5" y1="455.7207" y2="455.7207"/><text fill="#000000" font-family="sans-serif" font-size="13" lengthAdjust="spacing" textLength="85" x="333.5" y="405.0469">transferFrom(</text><text fill="#000000" font-family="sans-serif" font-size="13" lengthAdjust="spacing" textLength="46" x="341.5" y="420.3574">sender,</text><text fill="#000000" font-family="sans-serif" font-size="13" lengthAdjust="spacing" textLength="59" x="341.5" y="435.668">recipient,</text><text fill="#000000" font-family="sans-serif" font-size="13" lengthAdjust="spacing" textLength="52" x="341.5" y="450.9785">amount)</text><polygon fill="#181818" points="337.5,481.0313,327.5,485.0313,337.5,489.0313,333.5,485.0313" style="stroke:#181818;stroke-width:1.0;"/><line style="stroke:#181818;stroke-width:1.0;stroke-dasharray:2.0,2.0;" x1="331.5" x2="448.5" y1="485.0313" y2="485.0313"/><text fill="#000000" font-family="sans-serif" font-size="13" lengthAdjust="spacing" textLength="5" x="343.5" y="480.2891">?</text><polygon fill="#181818" points="203.5,495.0313,193.5,499.0313,203.5,503.0313,199.5,499.0313" style="stroke:#181818;stroke-width:1.0;"/><line style="stroke:#181818;stroke-width:1.0;stroke-dasharray:2.0,2.0;" x1="197.5" x2="320.5" y1="499.0313" y2="499.0313"/><polygon fill="#181818" points="569.5,539.6523,579.5,543.6523,569.5,547.6523,573.5,543.6523" style="stroke:#181818;stroke-width:1.0;"/><line style="stroke:#181818;stroke-width:1.0;" x1="192.5" x2="575.5" y1="543.6523" y2="543.6523"/><text fill="#000000" font-family="sans-serif" font-size="13" lengthAdjust="spacing" textLength="67" x="199.5" y="523.5996">balanceOf(</text><text fill="#000000" font-family="sans-serif" font-size="13" lengthAdjust="spacing" textLength="9" x="207.5" y="538.9102">?)</text><polygon fill="#181818" points="203.5,568.9629,193.5,572.9629,203.5,576.9629,199.5,572.9629" style="stroke:#181818;stroke-width:1.0;"/><line style="stroke:#181818;stroke-width:1.0;stroke-dasharray:2.0,2.0;" x1="197.5" x2="585.5" y1="572.9629" y2="572.9629"/><text fill="#000000" font-family="sans-serif" font-size="13" lengthAdjust="spacing" textLength="5" x="209.5" y="568.2207">?</text><polygon fill="#181818" points="709,598.2734,719,602.2734,709,606.2734,713,602.2734" style="stroke:#181818;stroke-width:1.0;"/><line style="stroke:#181818;stroke-width:1.0;" x1="192.5" x2="715" y1="602.2734" y2="602.2734"/><text fill="#000000" font-family="sans-serif" font-size="13" lengthAdjust="spacing" textLength="83" x="199.5" y="597.5313">getReserves()</text><polygon fill="#181818" points="203.5,658.2051,193.5,662.2051,203.5,666.2051,199.5,662.2051" style="stroke:#181818;stroke-width:1.0;"/><line style="stroke:#181818;stroke-width:1.0;stroke-dasharray:2.0,2.0;" x1="197.5" x2="725" y1="662.2051" y2="662.2051"/><text fill="#000000" font-family="sans-serif" font-size="13" lengthAdjust="spacing" textLength="64" x="209.5" y="626.8418">_reserve0,</text><text fill="#000000" font-family="sans-serif" font-size="13" lengthAdjust="spacing" textLength="64" x="209.5" y="642.1523">_reserve1,</text><text fill="#000000" font-family="sans-serif" font-size="13" lengthAdjust="spacing" textLength="138" x="209.5" y="657.4629">_blockTimestampLast</text><polygon fill="#181818" points="432.5,702.8262,442.5,706.8262,432.5,710.8262,436.5,706.8262" style="stroke:#181818;stroke-width:1.0;"/><line style="stroke:#181818;stroke-width:1.0;" x1="192.5" x2="438.5" y1="706.8262" y2="706.8262"/><text fill="#000000" font-family="sans-serif" font-size="13" lengthAdjust="spacing" textLength="67" x="199.5" y="686.7734">balanceOf(</text><text fill="#000000" font-family="sans-serif" font-size="13" lengthAdjust="spacing" textLength="54" x="207.5" y="702.084">account)</text><polygon fill="#181818" points="203.5,732.1367,193.5,736.1367,203.5,740.1367,199.5,736.1367" style="stroke:#181818;stroke-width:1.0;"/><line style="stroke:#181818;stroke-width:1.0;stroke-dasharray:2.0,2.0;" x1="197.5" x2="448.5" y1="736.1367" y2="736.1367"/><text fill="#000000" font-family="sans-serif" font-size="13" lengthAdjust="spacing" textLength="5" x="209.5" y="731.3945">?</text><polygon fill="#181818" points="709,822.6895,719,826.6895,709,830.6895,713,826.6895" style="stroke:#181818;stroke-width:1.0;"/><line style="stroke:#181818;stroke-width:1.0;" x1="192.5" x2="715" y1="826.6895" y2="826.6895"/><text fill="#000000" font-family="sans-serif" font-size="13" lengthAdjust="spacing" textLength="36" x="199.5" y="760.7051">swap(</text><text fill="#000000" font-family="sans-serif" font-size="13" lengthAdjust="spacing" textLength="83" x="207.5" y="776.0156">amount0Out,</text><text fill="#000000" font-family="sans-serif" font-size="13" lengthAdjust="spacing" textLength="83" x="207.5" y="791.3262">amount1Out,</text><text fill="#000000" font-family="sans-serif" font-size="13" lengthAdjust="spacing" textLength="17" x="207.5" y="806.6367">to,</text><text fill="#000000" font-family="sans-serif" font-size="13" lengthAdjust="spacing" textLength="31" x="207.5" y="821.9473">data)</text><polygon fill="#181818" points="851.5,882.6211,861.5,886.6211,851.5,890.6211,855.5,886.6211" style="stroke:#181818;stroke-width:1.0;"/><line style="stroke:#181818;stroke-width:1.0;" x1="731" x2="857.5" y1="886.6211" y2="886.6211"/><text fill="#000000" font-family="sans-serif" font-size="13" lengthAdjust="spacing" textLength="53" x="738" y="851.2578">transfer(</text><text fill="#000000" font-family="sans-serif" font-size="13" lengthAdjust="spacing" textLength="59" x="746" y="866.5684">recipient,</text><text fill="#000000" font-family="sans-serif" font-size="13" lengthAdjust="spacing" textLength="52" x="746" y="881.8789">amount)</text><polygon fill="#181818" points="742,911.9316,732,915.9316,742,919.9316,738,915.9316" style="stroke:#181818;stroke-width:1.0;"/><line style="stroke:#181818;stroke-width:1.0;stroke-dasharray:2.0,2.0;" x1="736" x2="867.5" y1="915.9316" y2="915.9316"/><text fill="#000000" font-family="sans-serif" font-size="13" lengthAdjust="spacing" textLength="5" x="748" y="911.1895">?</text><polygon fill="#181818" points="465.5,956.5527,455.5,960.5527,465.5,964.5527,461.5,960.5527" style="stroke:#181818;stroke-width:1.0;"/><line style="stroke:#181818;stroke-width:1.0;" x1="459.5" x2="720" y1="960.5527" y2="960.5527"/><text fill="#000000" font-family="sans-serif" font-size="13" lengthAdjust="spacing" textLength="67" x="471.5" y="940.5">balanceOf(</text><text fill="#000000" font-family="sans-serif" font-size="13" lengthAdjust="spacing" textLength="54" x="479.5" y="955.8105">account)</text><polygon fill="#181818" points="709,985.8633,719,989.8633,709,993.8633,713,989.8633" style="stroke:#181818;stroke-width:1.0;"/><line style="stroke:#181818;stroke-width:1.0;stroke-dasharray:2.0,2.0;" x1="449.5" x2="715" y1="989.8633" y2="989.8633"/><text fill="#000000" font-family="sans-serif" font-size="13" lengthAdjust="spacing" textLength="5" x="456.5" y="985.1211">?</text><polygon fill="#181818" points="851.5,1030.4844,861.5,1034.4844,851.5,1038.4844,855.5,1034.4844" style="stroke:#181818;stroke-width:1.0;"/><line style="stroke:#181818;stroke-width:1.0;" x1="731" x2="857.5" y1="1034.4844" y2="1034.4844"/><text fill="#000000" font-family="sans-serif" font-size="13" lengthAdjust="spacing" textLength="67" x="738" y="1014.4316">balanceOf(</text><text fill="#000000" font-family="sans-serif" font-size="13" lengthAdjust="spacing" textLength="54" x="746" y="1029.7422">account)</text><polygon fill="#181818" points="742,1059.7949,732,1063.7949,742,1067.7949,738,1063.7949" style="stroke:#181818;stroke-width:1.0;"/><line style="stroke:#181818;stroke-width:1.0;stroke-dasharray:2.0,2.0;" x1="736" x2="867.5" y1="1063.7949" y2="1063.7949"/><text fill="#000000" font-family="sans-serif" font-size="13" lengthAdjust="spacing" textLength="5" x="748" y="1059.0527">?</text><polygon fill="#181818" points="203.5,1073.7949,193.5,1077.7949,203.5,1081.7949,199.5,1077.7949" style="stroke:#181818;stroke-width:1.0;"/><line style="stroke:#181818;stroke-width:1.0;stroke-dasharray:2.0,2.0;" x1="197.5" x2="725" y1="1077.7949" y2="1077.7949"/><polygon fill="#181818" points="994,1103.1055,1004,1107.1055,994,1111.1055,998,1107.1055" style="stroke:#181818;stroke-width:1.0;"/><line style="stroke:#181818;stroke-width:1.0;" x1="192.5" x2="1000" y1="1107.1055" y2="1107.1055"/><text fill="#000000" font-family="sans-serif" font-size="13" lengthAdjust="spacing" textLength="83" x="199.5" y="1102.3633">getReserves()</text><polygon fill="#181818" points="203.5,1163.0371,193.5,1167.0371,203.5,1171.0371,199.5,1167.0371" style="stroke:#181818;stroke-width:1.0;"/><line style="stroke:#181818;stroke-width:1.0;stroke-dasharray:2.0,2.0;" x1="197.5" x2="1010" y1="1167.0371" y2="1167.0371"/><text fill="#000000" font-family="sans-serif" font-size="13" lengthAdjust="spacing" textLength="64" x="209.5" y="1131.6738">_reserve0,</text><text fill="#000000" font-family="sans-serif" font-size="13" lengthAdjust="spacing" textLength="64" x="209.5" y="1146.9844">_reserve1,</text><text fill="#000000" font-family="sans-serif" font-size="13" lengthAdjust="spacing" textLength="138" x="209.5" y="1162.2949">_blockTimestampLast</text><polygon fill="#181818" points="851.5,1207.6582,861.5,1211.6582,851.5,1215.6582,855.5,1211.6582" style="stroke:#181818;stroke-width:1.0;"/><line style="stroke:#181818;stroke-width:1.0;" x1="192.5" x2="857.5" y1="1211.6582" y2="1211.6582"/><text fill="#000000" font-family="sans-serif" font-size="13" lengthAdjust="spacing" textLength="67" x="199.5" y="1191.6055">balanceOf(</text><text fill="#000000" font-family="sans-serif" font-size="13" lengthAdjust="spacing" textLength="54" x="207.5" y="1206.916">account)</text><polygon fill="#181818" points="203.5,1236.9688,193.5,1240.9688,203.5,1244.9688,199.5,1240.9688" style="stroke:#181818;stroke-width:1.0;"/><line style="stroke:#181818;stroke-width:1.0;stroke-dasharray:2.0,2.0;" x1="197.5" x2="867.5" y1="1240.9688" y2="1240.9688"/><text fill="#000000" font-family="sans-serif" font-size="13" lengthAdjust="spacing" textLength="5" x="209.5" y="1236.2266">?</text><polygon fill="#181818" points="994,1327.5215,1004,1331.5215,994,1335.5215,998,1331.5215" style="stroke:#181818;stroke-width:1.0;"/><line style="stroke:#181818;stroke-width:1.0;" x1="192.5" x2="1000" y1="1331.5215" y2="1331.5215"/><text fill="#000000" font-family="sans-serif" font-size="13" lengthAdjust="spacing" textLength="36" x="199.5" y="1265.5371">swap(</text><text fill="#000000" font-family="sans-serif" font-size="13" lengthAdjust="spacing" textLength="83" x="207.5" y="1280.8477">amount0Out,</text><text fill="#000000" font-family="sans-serif" font-size="13" lengthAdjust="spacing" textLength="83" x="207.5" y="1296.1582">amount1Out,</text><text fill="#000000" font-family="sans-serif" font-size="13" lengthAdjust="spacing" textLength="17" x="207.5" y="1311.4688">to,</text><text fill="#000000" font-family="sans-serif" font-size="13" lengthAdjust="spacing" textLength="31" x="207.5" y="1326.7793">data)</text><polygon fill="#181818" points="602.5,1387.4531,592.5,1391.4531,602.5,1395.4531,598.5,1391.4531" style="stroke:#181818;stroke-width:1.0;"/><line style="stroke:#181818;stroke-width:1.0;" x1="596.5" x2="1005" y1="1391.4531" y2="1391.4531"/><text fill="#000000" font-family="sans-serif" font-size="13" lengthAdjust="spacing" textLength="53" x="608.5" y="1356.0898">transfer(</text><text fill="#000000" font-family="sans-serif" font-size="13" lengthAdjust="spacing" textLength="24" x="616.5" y="1371.4004">dst,</text><text fill="#000000" font-family="sans-serif" font-size="13" lengthAdjust="spacing" textLength="29" x="616.5" y="1386.7109">wad)</text><polygon fill="#181818" points="994,1416.7637,1004,1420.7637,994,1424.7637,998,1420.7637" style="stroke:#181818;stroke-width:1.0;"/><line style="stroke:#181818;stroke-width:1.0;stroke-dasharray:2.0,2.0;" x1="586.5" x2="1000" y1="1420.7637" y2="1420.7637"/><text fill="#000000" font-family="sans-serif" font-size="13" lengthAdjust="spacing" textLength="5" x="593.5" y="1416.0215">?</text><polygon fill="#181818" points="884.5,1461.3848,874.5,1465.3848,884.5,1469.3848,880.5,1465.3848" style="stroke:#181818;stroke-width:1.0;"/><line style="stroke:#181818;stroke-width:1.0;" x1="878.5" x2="1005" y1="1465.3848" y2="1465.3848"/><text fill="#000000" font-family="sans-serif" font-size="13" lengthAdjust="spacing" textLength="67" x="890.5" y="1445.332">balanceOf(</text><text fill="#000000" font-family="sans-serif" font-size="13" lengthAdjust="spacing" textLength="54" x="898.5" y="1460.6426">account)</text><polygon fill="#181818" points="994,1490.6953,1004,1494.6953,994,1498.6953,998,1494.6953" style="stroke:#181818;stroke-width:1.0;"/><line style="stroke:#181818;stroke-width:1.0;stroke-dasharray:2.0,2.0;" x1="868.5" x2="1000" y1="1494.6953" y2="1494.6953"/><text fill="#000000" font-family="sans-serif" font-size="13" lengthAdjust="spacing" textLength="5" x="875.5" y="1489.9531">?</text><polygon fill="#181818" points="602.5,1535.3164,592.5,1539.3164,602.5,1543.3164,598.5,1539.3164" style="stroke:#181818;stroke-width:1.0;"/><line style="stroke:#181818;stroke-width:1.0;" x1="596.5" x2="1005" y1="1539.3164" y2="1539.3164"/><text fill="#000000" font-family="sans-serif" font-size="13" lengthAdjust="spacing" textLength="67" x="608.5" y="1519.2637">balanceOf(</text><text fill="#000000" font-family="sans-serif" font-size="13" lengthAdjust="spacing" textLength="9" x="616.5" y="1534.5742">?)</text><polygon fill="#181818" points="994,1564.627,1004,1568.627,994,1572.627,998,1568.627" style="stroke:#181818;stroke-width:1.0;"/><line style="stroke:#181818;stroke-width:1.0;stroke-dasharray:2.0,2.0;" x1="586.5" x2="1000" y1="1568.627" y2="1568.627"/><text fill="#000000" font-family="sans-serif" font-size="13" lengthAdjust="spacing" textLength="5" x="593.5" y="1563.8848">?</text><polygon fill="#181818" points="203.5,1578.627,193.5,1582.627,203.5,1586.627,199.5,1582.627" style="stroke:#181818;stroke-width:1.0;"/><line style="stroke:#181818;stroke-width:1.0;stroke-dasharray:2.0,2.0;" x1="197.5" x2="1010" y1="1582.627" y2="1582.627"/><polygon fill="#181818" points="569.5,1623.248,579.5,1627.248,569.5,1631.248,573.5,1627.248" style="stroke:#181818;stroke-width:1.0;"/><line style="stroke:#181818;stroke-width:1.0;" x1="192.5" x2="575.5" y1="1627.248" y2="1627.248"/><text fill="#000000" font-family="sans-serif" font-size="13" lengthAdjust="spacing" textLength="67" x="199.5" y="1607.1953">balanceOf(</text><text fill="#000000" font-family="sans-serif" font-size="13" lengthAdjust="spacing" textLength="9" x="207.5" y="1622.5059">?)</text><polygon fill="#181818" points="203.5,1652.5586,193.5,1656.5586,203.5,1660.5586,199.5,1656.5586" style="stroke:#181818;stroke-width:1.0;"/><line style="stroke:#181818;stroke-width:1.0;stroke-dasharray:2.0,2.0;" x1="197.5" x2="585.5" y1="1656.5586" y2="1656.5586"/><text fill="#000000" font-family="sans-serif" font-size="13" lengthAdjust="spacing" textLength="5" x="209.5" y="1651.8164">?</text><polygon fill="#181818" points="569.5,1697.1797,579.5,1701.1797,569.5,1705.1797,573.5,1701.1797" style="stroke:#181818;stroke-width:1.0;"/><line style="stroke:#181818;stroke-width:1.0;" x1="192.5" x2="575.5" y1="1701.1797" y2="1701.1797"/><text fill="#000000" font-family="sans-serif" font-size="13" lengthAdjust="spacing" textLength="67" x="199.5" y="1681.127">balanceOf(</text><text fill="#000000" font-family="sans-serif" font-size="13" lengthAdjust="spacing" textLength="9" x="207.5" y="1696.4375">?)</text><polygon fill="#181818" points="203.5,1726.4902,193.5,1730.4902,203.5,1734.4902,199.5,1730.4902" style="stroke:#181818;stroke-width:1.0;"/><line style="stroke:#181818;stroke-width:1.0;stroke-dasharray:2.0,2.0;" x1="197.5" x2="585.5" y1="1730.4902" y2="1730.4902"/><text fill="#000000" font-family="sans-serif" font-size="13" lengthAdjust="spacing" textLength="5" x="209.5" y="1725.748">?</text><polygon fill="#181818" points="569.5,1771.1113,579.5,1775.1113,569.5,1779.1113,573.5,1775.1113" style="stroke:#181818;stroke-width:1.0;"/><line style="stroke:#181818;stroke-width:1.0;" x1="192.5" x2="575.5" y1="1775.1113" y2="1775.1113"/><text fill="#000000" font-family="sans-serif" font-size="13" lengthAdjust="spacing" textLength="61" x="199.5" y="1755.0586">withdraw(</text><text fill="#000000" font-family="sans-serif" font-size="13" lengthAdjust="spacing" textLength="29" x="207.5" y="1770.3691">wad)</text><polygon fill="#181818" points="208.5,1815.7324,198.5,1819.7324,208.5,1823.7324,204.5,1819.7324" style="stroke:#181818;stroke-width:1.0;"/><line style="stroke:#181818;stroke-width:1.0;" x1="202.5" x2="580.5" y1="1819.7324" y2="1819.7324"/><text fill="#000000" font-family="sans-serif" font-size="13" lengthAdjust="spacing" textLength="58" x="214.5" y="1799.6797">fallback()</text><text fill="#000000" font-family="sans-serif" font-size="13" lengthAdjust="spacing" textLength="65" x="214.5" y="1814.9902">0.064 ETH</text><polygon fill="#181818" points="73,1860.3535,63,1864.3535,73,1868.3535,69,1864.3535" style="stroke:#181818;stroke-width:1.0;"/><line style="stroke:#181818;stroke-width:1.0;" x1="67" x2="186.5" y1="1864.3535" y2="1864.3535"/><text fill="#000000" font-family="sans-serif" font-size="13" lengthAdjust="spacing" textLength="58" x="79" y="1844.3008">fallback()</text><text fill="#000000" font-family="sans-serif" font-size="13" lengthAdjust="spacing" textLength="65" x="79" y="1859.6113">0.064 ETH</text><polygon fill="#181818" points="175.5,1874.3535,185.5,1878.3535,175.5,1882.3535,179.5,1878.3535" style="stroke:#181818;stroke-width:1.0;"/><line style="stroke:#181818;stroke-width:1.0;stroke-dasharray:2.0,2.0;" x1="57" x2="181.5" y1="1878.3535" y2="1878.3535"/><polygon fill="#181818" points="569.5,1888.3535,579.5,1892.3535,569.5,1896.3535,573.5,1892.3535" style="stroke:#181818;stroke-width:1.0;"/><line style="stroke:#181818;stroke-width:1.0;stroke-dasharray:2.0,2.0;" x1="192.5" x2="575.5" y1="1892.3535" y2="1892.3535"/><polygon fill="#181818" points="203.5,1902.3535,193.5,1906.3535,203.5,1910.3535,199.5,1906.3535" style="stroke:#181818;stroke-width:1.0;"/><line style="stroke:#181818;stroke-width:1.0;stroke-dasharray:2.0,2.0;" x1="197.5" x2="585.5" y1="1906.3535" y2="1906.3535"/><polygon fill="#181818" points="68,1916.3535,58,1920.3535,68,1924.3535,64,1920.3535" style="stroke:#181818;stroke-width:1.0;"/><line style="stroke:#181818;stroke-width:1.0;stroke-dasharray:2.0,2.0;" x1="62" x2="186.5" y1="1920.3535" y2="1920.3535"/><path d="M273,1933.3535 L273,2050.3535 L370,2050.3535 L370,1943.3535 L360,1933.3535 L273,1933.3535 " fill="#00FFFF" style="stroke:#181818;stroke-width:0.5;"/><path d="M360,1933.3535 L360,1943.3535 L370,1943.3535 L360,1933.3535 " fill="#00FFFF" style="stroke:#181818;stroke-width:0.5;"/><text fill="#000000" font-family="sans-serif" font-size="13" lengthAdjust="spacing" textLength="44" x="279" y="1950.9219">Permit:</text><text fill="#000000" font-family="sans-serif" font-size="13" lengthAdjust="spacing" textLength="42" x="287" y="1966.2324">owner,</text><text fill="#000000" font-family="sans-serif" font-size="13" lengthAdjust="spacing" textLength="40" x="287" y="1981.543">token,</text><text fill="#000000" font-family="sans-serif" font-size="13" lengthAdjust="spacing" textLength="54" x="287" y="1996.8535">spender,</text><text fill="#000000" font-family="sans-serif" font-size="13" lengthAdjust="spacing" textLength="52" x="287" y="2012.1641">amount,</text><text fill="#000000" font-family="sans-serif" font-size="13" lengthAdjust="spacing" textLength="68" x="287" y="2027.4746">expiration,</text><text fill="#000000" font-family="sans-serif" font-size="13" lengthAdjust="spacing" textLength="38" x="287" y="2042.7852">nonce</text><path d="M408,1933.3535 L408,2065.3535 L491,2065.3535 L491,1943.3535 L481,1933.3535 L408,1933.3535 " fill="#00FFFF" style="stroke:#181818;stroke-width:0.5;"/><path d="M481,1933.3535 L481,1943.3535 L491,1943.3535 L481,1933.3535 " fill="#00FFFF" style="stroke:#181818;stroke-width:0.5;"/><text fill="#000000" font-family="sans-serif" font-size="13" lengthAdjust="spacing" textLength="56" x="414" y="1950.9219">Transfer:</text><text fill="#000000" font-family="sans-serif" font-size="13" lengthAdjust="spacing" textLength="34" x="422" y="1966.2324">from,</text><text fill="#000000" font-family="sans-serif" font-size="13" lengthAdjust="spacing" textLength="17" x="422" y="1981.543">to,</text><text fill="#000000" font-family="sans-serif" font-size="13" lengthAdjust="spacing" textLength="33" x="422" y="1996.8535">value</text><text fill="#000000" font-family="sans-serif" font-size="13" lengthAdjust="spacing" textLength="60" x="414" y="2012.1641">Approval:</text><text fill="#000000" font-family="sans-serif" font-size="13" lengthAdjust="spacing" textLength="42" x="422" y="2027.4746">owner,</text><text fill="#000000" font-family="sans-serif" font-size="13" lengthAdjust="spacing" textLength="54" x="422" y="2042.7852">spender,</text><text fill="#000000" font-family="sans-serif" font-size="13" lengthAdjust="spacing" textLength="33" x="422" y="2058.0957">value</text><path d="M539,1933.3535 L539,2050.3535 L633,2050.3535 L633,1943.3535 L623,1933.3535 L539,1933.3535 " fill="#00FFFF" style="stroke:#181818;stroke-width:0.5;"/><path d="M623,1933.3535 L623,1943.3535 L633,1943.3535 L623,1933.3535 " fill="#00FFFF" style="stroke:#181818;stroke-width:0.5;"/><text fill="#000000" font-family="sans-serif" font-size="13" lengthAdjust="spacing" textLength="56" x="545" y="1950.9219">Transfer:</text><text fill="#000000" font-family="sans-serif" font-size="13" lengthAdjust="spacing" textLength="23" x="553" y="1966.2324">src,</text><text fill="#000000" font-family="sans-serif" font-size="13" lengthAdjust="spacing" textLength="24" x="553" y="1981.543">dst,</text><text fill="#000000" font-family="sans-serif" font-size="13" lengthAdjust="spacing" textLength="25" x="553" y="1996.8535">wad</text><text fill="#000000" font-family="sans-serif" font-size="13" lengthAdjust="spacing" textLength="73" x="545" y="2012.1641">Withdrawal:</text><text fill="#000000" font-family="sans-serif" font-size="13" lengthAdjust="spacing" textLength="23" x="553" y="2027.4746">src,</text><text fill="#000000" font-family="sans-serif" font-size="13" lengthAdjust="spacing" textLength="25" x="553" y="2042.7852">wad</text><path d="M670,1933.3535 L670,2096.3535 L782,2096.3535 L782,1943.3535 L772,1933.3535 L670,1933.3535 " fill="#00FFFF" style="stroke:#181818;stroke-width:0.5;"/><path d="M772,1933.3535 L772,1943.3535 L782,1943.3535 L772,1933.3535 " fill="#00FFFF" style="stroke:#181818;stroke-width:0.5;"/><text fill="#000000" font-family="sans-serif" font-size="13" lengthAdjust="spacing" textLength="33" x="676" y="1950.9219">Sync:</text><text fill="#000000" font-family="sans-serif" font-size="13" lengthAdjust="spacing" textLength="57" x="684" y="1966.2324">reserve0,</text><text fill="#000000" font-family="sans-serif" font-size="13" lengthAdjust="spacing" textLength="53" x="684" y="1981.543">reserve1</text><text fill="#000000" font-family="sans-serif" font-size="13" lengthAdjust="spacing" textLength="36" x="676" y="1996.8535">Swap:</text><text fill="#000000" font-family="sans-serif" font-size="13" lengthAdjust="spacing" textLength="46" x="684" y="2012.1641">sender,</text><text fill="#000000" font-family="sans-serif" font-size="13" lengthAdjust="spacing" textLength="72" x="684" y="2027.4746">amount0In,</text><text fill="#000000" font-family="sans-serif" font-size="13" lengthAdjust="spacing" textLength="72" x="684" y="2042.7852">amount1In,</text><text fill="#000000" font-family="sans-serif" font-size="13" lengthAdjust="spacing" textLength="83" x="684" y="2058.0957">amount0Out,</text><text fill="#000000" font-family="sans-serif" font-size="13" lengthAdjust="spacing" textLength="83" x="684" y="2073.4063">amount1Out,</text><text fill="#000000" font-family="sans-serif" font-size="13" lengthAdjust="spacing" textLength="13" x="684" y="2088.7168">to</text><path d="M830,1933.3535 L830,2004.3535 L907,2004.3535 L907,1943.3535 L897,1933.3535 L830,1933.3535 " fill="#00FFFF" style="stroke:#181818;stroke-width:0.5;"/><path d="M897,1933.3535 L897,1943.3535 L907,1943.3535 L897,1933.3535 " fill="#00FFFF" style="stroke:#181818;stroke-width:0.5;"/><text fill="#000000" font-family="sans-serif" font-size="13" lengthAdjust="spacing" textLength="56" x="836" y="1950.9219">Transfer:</text><text fill="#000000" font-family="sans-serif" font-size="13" lengthAdjust="spacing" textLength="34" x="844" y="1966.2324">from,</text><text fill="#000000" font-family="sans-serif" font-size="13" lengthAdjust="spacing" textLength="17" x="844" y="1981.543">to,</text><text fill="#000000" font-family="sans-serif" font-size="13" lengthAdjust="spacing" textLength="33" x="844" y="1996.8535">value</text><path d="M955,1933.3535 L955,2096.3535 L1067,2096.3535 L1067,1943.3535 L1057,1933.3535 L955,1933.3535 " fill="#00FFFF" style="stroke:#181818;stroke-width:0.5;"/><path d="M1057,1933.3535 L1057,1943.3535 L1067,1943.3535 L1057,1933.3535 " fill="#00FFFF" style="stroke:#181818;stroke-width:0.5;"/><text fill="#000000" font-family="sans-serif" font-size="13" lengthAdjust="spacing" textLength="33" x="961" y="1950.9219">Sync:</text><text fill="#000000" font-family="sans-serif" font-size="13" lengthAdjust="spacing" textLength="57" x="969" y="1966.2324">reserve0,</text><text fill="#000000" font-family="sans-serif" font-size="13" lengthAdjust="spacing" textLength="53" x="969" y="1981.543">reserve1</text><text fill="#000000" font-family="sans-serif" font-size="13" lengthAdjust="spacing" textLength="36" x="961" y="1996.8535">Swap:</text><text fill="#000000" font-family="sans-serif" font-size="13" lengthAdjust="spacing" textLength="46" x="969" y="2012.1641">sender,</text><text fill="#000000" font-family="sans-serif" font-size="13" lengthAdjust="spacing" textLength="72" x="969" y="2027.4746">amount0In,</text><text fill="#000000" font-family="sans-serif" font-size="13" lengthAdjust="spacing" textLength="72" x="969" y="2042.7852">amount1In,</text><text fill="#000000" font-family="sans-serif" font-size="13" lengthAdjust="spacing" textLength="83" x="969" y="2058.0957">amount0Out,</text><text fill="#000000" font-family="sans-serif" font-size="13" lengthAdjust="spacing" textLength="83" x="969" y="2073.4063">amount1Out,</text><text fill="#000000" font-family="sans-serif" font-size="13" lengthAdjust="spacing" textLength="13" x="969" y="2088.7168">to</text><!--SRC=[nLPRRzis57xdho3Q5mT8LKhoHJ825qEJRYssDKZSvAN0S4GTfqHaIgEesFtt8wcRNSjD2s-O7wppIUTyvygB5Zf3ohRJQ1Qn42VH90rd31Bq4ywcg_4aIQ9qZ36VHI44KPYo2I9E9nF0SJ89mm1YDerNFY4S2YroITSWf4HzJfCivu_Kdqq2FvZvvtHPuJaD6FrGIVC8Gkg7yp6RJsBwwnzB0bpdYhvWsvInnFF2CFPVK2YfXHPGKe3IWei2fBPwuOh7dZTRGUhqBBI0Nbnyak89LGdPJLvfL8l5jwRC_3mlIY1qfXPQO4olKQs53WvDuXLCFGzYG6TYeGN6v19lW2DTveye5ukBYz7brStRCokPPy0EgJWBmFEcd0UEoa8B3DMzWgB0b5xfBpPimtL_jVpDSLaX7k2A8iF5nb5T10ijg8jGRg2WTu4Z-lJd-rTtWQDgljm5ro06YWCiYJmFat7aA2sqm5BUNjAtkQYpDA3Eyfq0xPA_Lldswo5VCaRVytYSSiTdeGK_5IBffk3LeklqdE8MkUdmwBEabEVhDSYqFBT0oABIjPWYf9cGU6OdJ3o1new0T3DZMDiXcDF2pO0ZpJSIbQEfNzuA-P2XUr6A1mcwKhl4BGTHQBv8UiI1LY3B5QftAbyxDoiZE5ATkmUiyqhgvesfx92BRcWDTJkD0zGbohH9GQ5fYi26kFQnmzoIjC6_6SoYdTOvJI03oV7ZolbviyFKwlHCUmpDZCxf0-eRB54zOJdQDMyKMlE_LAt4JDojx5lPRJ1BiSPImxhu7KgzvwYlodwemFcpgGy7R6Tor1UFVQnsQ-ctiEbY2Xg6qkeMgU5kLrVVkT4FjAgrwkFTvJmbx-7OdkCvZ6TeTDgLVxJnhSAfZJybyE60JsfybrQtzUsjext6fsNDj87qkmjgb-gKT8T3-fcb_Hzj4lyYmqReBwc2pUWxXUqEuRtpPGLPbW1_79rzbinZqp4rf_0pvqXxKZrhtIfs5Jps938twhcvqlGtbPVmTmMalgtCINjGaUQyi49Pr3i_wOuJ8-6s40hiDSqYcPl24gD6hGT2NjFUKtV1gJqjco6rljnfvLpP_oV8AYI_58NAZRWNoqu8jTQmgwxsXwvAnQsrNHN4zOxSDysiNJNVxOSZtEr-LdFVVfNSsdKRIo_xvDOiSaVwJU7OUza3VnUuVO3iRGEkBaU2wQvIFrRJOP9knVvF6Vq3]--></g></svg>
