<?xml version="1.0" encoding="us-ascii" standalone="no"?><svg xmlns:xlink="http://www.w3.org/1999/xlink" xmlns="http://www.w3.org/2000/svg" contentStyleType="text/css" height="2433px" preserveAspectRatio="none" style="width:1082px;height:2433px;background:#FFFFFF;" version="1.1" viewBox="0 0 1082 2433" width="1082px" zoomAndPan="magnify"><defs/><g><text fill="#000000" font-family="sans-serif" font-size="14" font-weight="bold" lengthAdjust="spacing" textLength="572" x="254" y="28.5352">0x687803e585d370abe1bc06f45bb8d4e9c783a283d05eee655ae4b5332a9069f1</text><text fill="#000000" font-family="sans-serif" font-size="14" lengthAdjust="spacing" textLength="404" x="338" y="2421.2949">mainnet, block 17521271, Tue, 20 Jun 2023 13:40:59 GMT</text><rect fill="#FFFFFF" height="14" style="stroke:#181818;stroke-width:1.0;" width="10" x="52" y="2078.7012"/><rect fill="#FFFFFF" height="1934.0176" style="stroke:#181818;stroke-width:1.0;" width="10" x="182.5" y="200.6836"/><rect fill="#FFFFFF" height="72.6211" style="stroke:#181818;stroke-width:1.0;" width="10" x="187.5" y="2034.0801"/><rect fill="#FFFFFF" height="14" style="stroke:#181818;stroke-width:1.0;" width="10" x="316.5" y="275.9258"/><rect fill="#FFFFFF" height="133.8633" style="stroke:#181818;stroke-width:1.0;" width="10" x="316.5" y="380.4785"/><rect fill="#FFFFFF" height="44.6211" style="stroke:#181818;stroke-width:1.0;" width="10" x="444.5" y="455.7207"/><rect fill="#FFFFFF" height="44.6211" style="stroke:#181818;stroke-width:1.0;" width="10" x="444.5" y="752.7578"/><rect fill="#FFFFFF" height="44.6211" style="stroke:#181818;stroke-width:1.0;" width="10" x="444.5" y="1037.1055"/><rect fill="#FFFFFF" height="44.6211" style="stroke:#181818;stroke-width:1.0;" width="10" x="581.5" y="558.9629"/><rect fill="#FFFFFF" height="44.6211" style="stroke:#181818;stroke-width:1.0;" width="10" x="581.5" y="1529.248"/><rect fill="#FFFFFF" height="44.6211" style="stroke:#181818;stroke-width:1.0;" width="10" x="581.5" y="1707.7324"/><rect fill="#FFFFFF" height="44.6211" style="stroke:#181818;stroke-width:1.0;" width="10" x="581.5" y="1810.9746"/><rect fill="#FFFFFF" height="44.6211" style="stroke:#181818;stroke-width:1.0;" width="10" x="581.5" y="1900.2168"/><rect fill="#FFFFFF" height="131.2422" style="stroke:#181818;stroke-width:1.0;" width="10" x="581.5" y="1989.459"/><rect fill="#FFFFFF" height="75.2422" style="stroke:#181818;stroke-width:1.0;" width="10" x="721" y="632.8945"/><rect fill="#FFFFFF" height="297.0371" style="stroke:#181818;stroke-width:1.0;" width="10" x="721" y="887.9316"/><rect fill="#FFFFFF" height="44.6211" style="stroke:#181818;stroke-width:1.0;" width="10" x="863.5" y="947.8633"/><rect fill="#FFFFFF" height="44.6211" style="stroke:#181818;stroke-width:1.0;" width="10" x="863.5" y="1126.3477"/><rect fill="#FFFFFF" height="44.6211" style="stroke:#181818;stroke-width:1.0;" width="10" x="863.5" y="1334.1426"/><rect fill="#FFFFFF" height="44.6211" style="stroke:#181818;stroke-width:1.0;" width="10" x="863.5" y="1618.4902"/><rect fill="#FFFFFF" height="75.2422" style="stroke:#181818;stroke-width:1.0;" width="10" x="1006" y="1214.2793"/><rect fill="#FFFFFF" height="297.0371" style="stroke:#181818;stroke-width:1.0;" width="10" x="1006" y="1469.3164"/><line style="stroke:#181818;stroke-width:0.5;stroke-dasharray:5.0,5.0;" x1="57" x2="57" y1="123.4414" y2="2325.8066"/><line style="stroke:#181818;stroke-width:0.5;stroke-dasharray:5.0,5.0;" x1="187" x2="187" y1="123.4414" y2="2325.8066"/><line style="stroke:#181818;stroke-width:0.5;stroke-dasharray:5.0,5.0;" x1="321" x2="321" y1="123.4414" y2="2325.8066"/><line style="stroke:#181818;stroke-width:0.5;stroke-dasharray:5.0,5.0;" x1="449" x2="449" y1="123.4414" y2="2325.8066"/><line style="stroke:#181818;stroke-width:0.5;stroke-dasharray:5.0,5.0;" x1="586" x2="586" y1="123.4414" y2="2325.8066"/><line style="stroke:#181818;stroke-width:0.5;stroke-dasharray:5.0,5.0;" x1="726" x2="726" y1="123.4414" y2="2325.8066"/><line style="stroke:#181818;stroke-width:0.5;stroke-dasharray:5.0,5.0;" x1="868" x2="868" y1="123.4414" y2="2325.8066"/><line style="stroke:#181818;stroke-width:0.5;stroke-dasharray:5.0,5.0;" x1="1011" x2="1011" y1="123.4414" y2="2325.8066"/><text fill="#000000" font-family="sans-serif" font-size="14" lengthAdjust="spacing" textLength="98" x="5" y="120.4883">0xd00b..3391</text><ellipse cx="57" cy="55.4531" fill="#E2E2F0" rx="8" ry="8" style="stroke:#181818;stroke-width:0.5;"/><path d="M57,63.4531 L57,90.4531 M44,71.4531 L70,71.4531 M57,90.4531 L44,105.4531 M57,90.4531 L70,105.4531 " fill="none" style="stroke:#181818;stroke-width:0.5;"/><text fill="#000000" font-family="sans-serif" font-size="14" lengthAdjust="spacing" textLength="98" x="5" y="2338.3418">0xd00b..3391</text><ellipse cx="57" cy="2349.7949" fill="#E2E2F0" rx="8" ry="8" style="stroke:#181818;stroke-width:0.5;"/><path d="M57,2357.7949 L57,2384.7949 M44,2365.7949 L70,2365.7949 M57,2384.7949 L44,2399.7949 M57,2384.7949 L70,2399.7949 " fill="none" style="stroke:#181818;stroke-width:0.5;"/><rect fill="#E2E2F0" height="46.9766" rx="2.5" ry="2.5" style="stroke:#181818;stroke-width:0.5;" width="137" x="119" y="75.4648"/><text fill="#000000" font-family="sans-serif" font-size="14" font-style="italic" lengthAdjust="spacing" textLength="123" x="126" y="96">&#171;UniversalRouter&#187;</text><text fill="#000000" font-family="sans-serif" font-size="14" lengthAdjust="spacing" textLength="87" x="144" y="112.4883">0x3fc9..7fad</text><rect fill="#E2E2F0" height="46.9766" rx="2.5" ry="2.5" style="stroke:#181818;stroke-width:0.5;" width="137" x="119" y="2324.8066"/><text fill="#000000" font-family="sans-serif" font-size="14" font-style="italic" lengthAdjust="spacing" textLength="123" x="126" y="2345.3418">&#171;UniversalRouter&#187;</text><text fill="#000000" font-family="sans-serif" font-size="14" lengthAdjust="spacing" textLength="87" x="144" y="2361.8301">0x3fc9..7fad</text><rect fill="#E2E2F0" height="46.9766" rx="2.5" ry="2.5" style="stroke:#181818;stroke-width:0.5;" width="111" x="266" y="75.4648"/><text fill="#000000" font-family="sans-serif" font-size="14" font-style="italic" lengthAdjust="spacing" textLength="67" x="288" y="96">&#171;Permit2&#187;</text><text fill="#000000" font-family="sans-serif" font-size="14" lengthAdjust="spacing" textLength="97" x="273" y="112.4883">0x0000..8ba3</text><rect fill="#E2E2F0" height="46.9766" rx="2.5" ry="2.5" style="stroke:#181818;stroke-width:0.5;" width="111" x="266" y="2324.8066"/><text fill="#000000" font-family="sans-serif" font-size="14" font-style="italic" lengthAdjust="spacing" textLength="67" x="288" y="2345.3418">&#171;Permit2&#187;</text><text fill="#000000" font-family="sans-serif" font-size="14" lengthAdjust="spacing" textLength="97" x="273" y="2361.8301">0x0000..8ba3</text><rect fill="#E2E2F0" height="79.9531" rx="2.5" ry="2.5" style="stroke:#181818;stroke-width:0.5;" width="125" x="387" y="42.4883"/><text fill="#000000" font-family="sans-serif" font-size="14" font-style="italic" lengthAdjust="spacing" textLength="111" x="394" y="63.0234">&#171;DeRace Token&#187;</text><text fill="#000000" font-family="sans-serif" font-size="14" font-style="italic" lengthAdjust="spacing" textLength="61" x="419" y="79.5117">&#171;(DERC)&#187;</text><text fill="#000000" font-family="sans-serif" font-size="14" font-style="italic" lengthAdjust="spacing" textLength="59" x="420" y="96">&#171;ERC20&#187;</text><text fill="#000000" font-family="sans-serif" font-size="14" lengthAdjust="spacing" textLength="90" x="404.5" y="112.4883">0x9fa6..a9ae</text><rect fill="#E2E2F0" height="79.9531" rx="2.5" ry="2.5" style="stroke:#181818;stroke-width:0.5;" width="125" x="387" y="2324.8066"/><text fill="#000000" font-family="sans-serif" font-size="14" font-style="italic" lengthAdjust="spacing" textLength="111" x="394" y="2345.3418">&#171;DeRace Token&#187;</text><text fill="#000000" font-family="sans-serif" font-size="14" font-style="italic" lengthAdjust="spacing" textLength="61" x="419" y="2361.8301">&#171;(DERC)&#187;</text><text fill="#000000" font-family="sans-serif" font-size="14" font-style="italic" lengthAdjust="spacing" textLength="59" x="420" y="2378.3184">&#171;ERC20&#187;</text><text fill="#000000" font-family="sans-serif" font-size="14" lengthAdjust="spacing" textLength="90" x="404.5" y="2394.8066">0x9fa6..a9ae</text><rect fill="#E2E2F0" height="79.9531" rx="2.5" ry="2.5" style="stroke:#181818;stroke-width:0.5;" width="129" x="522" y="42.4883"/><text fill="#000000" font-family="sans-serif" font-size="14" font-style="italic" lengthAdjust="spacing" textLength="115" x="529" y="63.0234">&#171;Wrapped Ether&#187;</text><text fill="#000000" font-family="sans-serif" font-size="14" font-style="italic" lengthAdjust="spacing" textLength="63" x="555" y="79.5117">&#171;(WETH)&#187;</text><text fill="#000000" font-family="sans-serif" font-size="14" font-style="italic" lengthAdjust="spacing" textLength="62" x="555.5" y="96">&#171;WETH9&#187;</text><text fill="#000000" font-family="sans-serif" font-size="14" lengthAdjust="spacing" textLength="91" x="541" y="112.4883">0xc02a..6cc2</text><rect fill="#E2E2F0" height="79.9531" rx="2.5" ry="2.5" style="stroke:#181818;stroke-width:0.5;" width="129" x="522" y="2324.8066"/><text fill="#000000" font-family="sans-serif" font-size="14" font-style="italic" lengthAdjust="spacing" textLength="115" x="529" y="2345.3418">&#171;Wrapped Ether&#187;</text><text fill="#000000" font-family="sans-serif" font-size="14" font-style="italic" lengthAdjust="spacing" textLength="63" x="555" y="2361.8301">&#171;(WETH)&#187;</text><text fill="#000000" font-family="sans-serif" font-size="14" font-style="italic" lengthAdjust="spacing" textLength="62" x="555.5" y="2378.3184">&#171;WETH9&#187;</text><text fill="#000000" font-family="sans-serif" font-size="14" lengthAdjust="spacing" textLength="91" x="541" y="2394.8066">0xc02a..6cc2</text><rect fill="#E2E2F0" height="79.9531" rx="2.5" ry="2.5" style="stroke:#181818;stroke-width:0.5;" width="130" x="661" y="42.4883"/><text fill="#000000" font-family="sans-serif" font-size="14" font-style="italic" lengthAdjust="spacing" textLength="94" x="679" y="63.0234">&#171;Uniswap V2&#187;</text><text fill="#000000" font-family="sans-serif" font-size="14" font-style="italic" lengthAdjust="spacing" textLength="74" x="689" y="79.5117">&#171;(UNI-V2)&#187;</text><text fill="#000000" font-family="sans-serif" font-size="14" font-style="italic" lengthAdjust="spacing" textLength="116" x="668" y="96">&#171;UniswapV2Pair&#187;</text><text fill="#000000" font-family="sans-serif" font-size="14" lengthAdjust="spacing" textLength="95" x="678.5" y="112.4883">0xc88a..048d</text><rect fill="#E2E2F0" height="79.9531" rx="2.5" ry="2.5" style="stroke:#181818;stroke-width:0.5;" width="130" x="661" y="2324.8066"/><text fill="#000000" font-family="sans-serif" font-size="14" font-style="italic" lengthAdjust="spacing" textLength="94" x="679" y="2345.3418">&#171;Uniswap V2&#187;</text><text fill="#000000" font-family="sans-serif" font-size="14" font-style="italic" lengthAdjust="spacing" textLength="74" x="689" y="2361.8301">&#171;(UNI-V2)&#187;</text><text fill="#000000" font-family="sans-serif" font-size="14" font-style="italic" lengthAdjust="spacing" textLength="116" x="668" y="2378.3184">&#171;UniswapV2Pair&#187;</text><text fill="#000000" font-family="sans-serif" font-size="14" lengthAdjust="spacing" textLength="95" x="678.5" y="2394.8066">0xc88a..048d</text><rect fill="#E2E2F0" height="79.9531" rx="2.5" ry="2.5" style="stroke:#181818;stroke-width:0.5;" width="135" x="801" y="42.4883"/><text fill="#000000" font-family="sans-serif" font-size="14" font-style="italic" lengthAdjust="spacing" textLength="78" x="829.5" y="63.0234">&#171;USD Coin&#187;</text><text fill="#000000" font-family="sans-serif" font-size="14" font-style="italic" lengthAdjust="spacing" textLength="62" x="837.5" y="79.5117">&#171;(USDC)&#187;</text><text fill="#000000" font-family="sans-serif" font-size="14" font-style="italic" lengthAdjust="spacing" textLength="121" x="808" y="96">&#171;FiatTokenProxy&#187;</text><text fill="#000000" font-family="sans-serif" font-size="14" lengthAdjust="spacing" textLength="96" x="820.5" y="112.4883">0xa0b8..eb48</text><rect fill="#E2E2F0" height="79.9531" rx="2.5" ry="2.5" style="stroke:#181818;stroke-width:0.5;" width="135" x="801" y="2324.8066"/><text fill="#000000" font-family="sans-serif" font-size="14" font-style="italic" lengthAdjust="spacing" textLength="78" x="829.5" y="2345.3418">&#171;USD Coin&#187;</text><text fill="#000000" font-family="sans-serif" font-size="14" font-style="italic" lengthAdjust="spacing" textLength="62" x="837.5" y="2361.8301">&#171;(USDC)&#187;</text><text fill="#000000" font-family="sans-serif" font-size="14" font-style="italic" lengthAdjust="spacing" textLength="121" x="808" y="2378.3184">&#171;FiatTokenProxy&#187;</text><text fill="#000000" font-family="sans-serif" font-size="14" lengthAdjust="spacing" textLength="96" x="820.5" y="2394.8066">0xa0b8..eb48</text><rect fill="#E2E2F0" height="79.9531" rx="2.5" ry="2.5" style="stroke:#181818;stroke-width:0.5;" width="130" x="946" y="42.4883"/><text fill="#000000" font-family="sans-serif" font-size="14" font-style="italic" lengthAdjust="spacing" textLength="94" x="964" y="63.0234">&#171;Uniswap V2&#187;</text><text fill="#000000" font-family="sans-serif" font-size="14" font-style="italic" lengthAdjust="spacing" textLength="74" x="974" y="79.5117">&#171;(UNI-V2)&#187;</text><text fill="#000000" font-family="sans-serif" font-size="14" font-style="italic" lengthAdjust="spacing" textLength="116" x="953" y="96">&#171;UniswapV2Pair&#187;</text><text fill="#000000" font-family="sans-serif" font-size="14" lengthAdjust="spacing" textLength="93" x="964.5" y="112.4883">0xb4e1..c9dc</text><rect fill="#E2E2F0" height="79.9531" rx="2.5" ry="2.5" style="stroke:#181818;stroke-width:0.5;" width="130" x="946" y="2324.8066"/><text fill="#000000" font-family="sans-serif" font-size="14" font-style="italic" lengthAdjust="spacing" textLength="94" x="964" y="2345.3418">&#171;Uniswap V2&#187;</text><text fill="#000000" font-family="sans-serif" font-size="14" font-style="italic" lengthAdjust="spacing" textLength="74" x="974" y="2361.8301">&#171;(UNI-V2)&#187;</text><text fill="#000000" font-family="sans-serif" font-size="14" font-style="italic" lengthAdjust="spacing" textLength="116" x="953" y="2378.3184">&#171;UniswapV2Pair&#187;</text><text fill="#000000" font-family="sans-serif" font-size="14" lengthAdjust="spacing" textLength="93" x="964.5" y="2394.8066">0xb4e1..c9dc</text><rect fill="#FFFFFF" height="14" style="stroke:#181818;stroke-width:1.0;" width="10" x="52" y="2078.7012"/><rect fill="#FFFFFF" height="1934.0176" style="stroke:#181818;stroke-width:1.0;" width="10" x="182.5" y="200.6836"/><rect fill="#FFFFFF" height="72.6211" style="stroke:#181818;stroke-width:1.0;" width="10" x="187.5" y="2034.0801"/><rect fill="#FFFFFF" height="14" style="stroke:#181818;stroke-width:1.0;" width="10" x="316.5" y="275.9258"/><rect fill="#FFFFFF" height="133.8633" style="stroke:#181818;stroke-width:1.0;" width="10" x="316.5" y="380.4785"/><rect fill="#FFFFFF" height="44.6211" style="stroke:#181818;stroke-width:1.0;" width="10" x="444.5" y="455.7207"/><rect fill="#FFFFFF" height="44.6211" style="stroke:#181818;stroke-width:1.0;" width="10" x="444.5" y="752.7578"/><rect fill="#FFFFFF" height="44.6211" style="stroke:#181818;stroke-width:1.0;" width="10" x="444.5" y="1037.1055"/><rect fill="#FFFFFF" height="44.6211" style="stroke:#181818;stroke-width:1.0;" width="10" x="581.5" y="558.9629"/><rect fill="#FFFFFF" height="44.6211" style="stroke:#181818;stroke-width:1.0;" width="10" x="581.5" y="1529.248"/><rect fill="#FFFFFF" height="44.6211" style="stroke:#181818;stroke-width:1.0;" width="10" x="581.5" y="1707.7324"/><rect fill="#FFFFFF" height="44.6211" style="stroke:#181818;stroke-width:1.0;" width="10" x="581.5" y="1810.9746"/><rect fill="#FFFFFF" height="44.6211" style="stroke:#181818;stroke-width:1.0;" width="10" x="581.5" y="1900.2168"/><rect fill="#FFFFFF" height="131.2422" style="stroke:#181818;stroke-width:1.0;" width="10" x="581.5" y="1989.459"/><rect fill="#FFFFFF" height="75.2422" style="stroke:#181818;stroke-width:1.0;" width="10" x="721" y="632.8945"/><rect fill="#FFFFFF" height="297.0371" style="stroke:#181818;stroke-width:1.0;" width="10" x="721" y="887.9316"/><rect fill="#FFFFFF" height="44.6211" style="stroke:#181818;stroke-width:1.0;" width="10" x="863.5" y="947.8633"/><rect fill="#FFFFFF" height="44.6211" style="stroke:#181818;stroke-width:1.0;" width="10" x="863.5" y="1126.3477"/><rect fill="#FFFFFF" height="44.6211" style="stroke:#181818;stroke-width:1.0;" width="10" x="863.5" y="1334.1426"/><rect fill="#FFFFFF" height="44.6211" style="stroke:#181818;stroke-width:1.0;" width="10" x="863.5" y="1618.4902"/><rect fill="#FFFFFF" height="75.2422" style="stroke:#181818;stroke-width:1.0;" width="10" x="1006" y="1214.2793"/><rect fill="#FFFFFF" height="297.0371" style="stroke:#181818;stroke-width:1.0;" width="10" x="1006" y="1469.3164"/><polygon fill="#181818" points="170.5,196.6836,180.5,200.6836,170.5,204.6836,174.5,200.6836" style="stroke:#181818;stroke-width:1.0;"/><line style="stroke:#181818;stroke-width:1.0;" x1="57" x2="176.5" y1="200.6836" y2="200.6836"/><text fill="#000000" font-family="sans-serif" font-size="13" lengthAdjust="spacing" textLength="53" x="64" y="150.0098">execute(</text><text fill="#000000" font-family="sans-serif" font-size="13" lengthAdjust="spacing" textLength="73" x="64" y="165.3203">commands,</text><text fill="#000000" font-family="sans-serif" font-size="13" lengthAdjust="spacing" textLength="44" x="64" y="180.6309">inputs,</text><text fill="#000000" font-family="sans-serif" font-size="13" lengthAdjust="spacing" textLength="57" x="64" y="195.9414">deadline)</text><polygon fill="#181818" points="304.5,271.9258,314.5,275.9258,304.5,279.9258,308.5,275.9258" style="stroke:#181818;stroke-width:1.0;"/><line style="stroke:#181818;stroke-width:1.0;" x1="192.5" x2="310.5" y1="275.9258" y2="275.9258"/><text fill="#000000" font-family="sans-serif" font-size="13" lengthAdjust="spacing" textLength="45" x="199.5" y="225.252">permit(</text><text fill="#000000" font-family="sans-serif" font-size="13" lengthAdjust="spacing" textLength="42" x="199.5" y="240.5625">owner,</text><text fill="#000000" font-family="sans-serif" font-size="13" lengthAdjust="spacing" textLength="83" x="199.5" y="255.873">permitSingle,</text><text fill="#000000" font-family="sans-serif" font-size="13" lengthAdjust="spacing" textLength="63" x="199.5" y="271.1836">signature)</text><polygon fill="#181818" points="203.5,285.9258,193.5,289.9258,203.5,293.9258,199.5,289.9258" style="stroke:#181818;stroke-width:1.0;"/><line style="stroke:#181818;stroke-width:1.0;stroke-dasharray:2.0,2.0;" x1="197.5" x2="320.5" y1="289.9258" y2="289.9258"/><polygon fill="#181818" points="304.5,376.4785,314.5,380.4785,304.5,384.4785,308.5,380.4785" style="stroke:#181818;stroke-width:1.0;"/><line style="stroke:#181818;stroke-width:1.0;" x1="192.5" x2="310.5" y1="380.4785" y2="380.4785"/><text fill="#000000" font-family="sans-serif" font-size="13" lengthAdjust="spacing" textLength="85" x="199.5" y="314.4941">transferFrom(</text><text fill="#000000" font-family="sans-serif" font-size="13" lengthAdjust="spacing" textLength="34" x="199.5" y="329.8047">from,</text><text fill="#000000" font-family="sans-serif" font-size="13" lengthAdjust="spacing" textLength="17" x="199.5" y="345.1152">to,</text><text fill="#000000" font-family="sans-serif" font-size="13" lengthAdjust="spacing" textLength="52" x="199.5" y="360.4258">amount,</text><text fill="#000000" font-family="sans-serif" font-size="13" lengthAdjust="spacing" textLength="40" x="199.5" y="375.7363">token)</text><polygon fill="#181818" points="432.5,451.7207,442.5,455.7207,432.5,459.7207,436.5,455.7207" style="stroke:#181818;stroke-width:1.0;"/><line style="stroke:#181818;stroke-width:1.0;" x1="326.5" x2="438.5" y1="455.7207" y2="455.7207"/><text fill="#000000" font-family="sans-serif" font-size="13" lengthAdjust="spacing" textLength="85" x="333.5" y="405.0469">transferFrom(</text><text fill="#000000" font-family="sans-serif" font-size="13" lengthAdjust="spacing" textLength="46" x="333.5" y="420.3574">sender,</text><text fill="#000000" font-family="sans-serif" font-size="13" lengthAdjust="spacing" textLength="59" x="333.5" y="435.668">recipient,</text><text fill="#000000" font-family="sans-serif" font-size="13" lengthAdjust="spacing" textLength="52" x="333.5" y="450.9785">amount)</text><polygon fill="#181818" points="337.5,496.3418,327.5,500.3418,337.5,504.3418,333.5,500.3418" style="stroke:#181818;stroke-width:1.0;"/><line style="stroke:#181818;stroke-width:1.0;stroke-dasharray:2.0,2.0;" x1="331.5" x2="448.5" y1="500.3418" y2="500.3418"/><text fill="#000000" font-family="sans-serif" font-size="13" lengthAdjust="spacing" textLength="4" x="343.5" y="480.2891">&#160;</text><text fill="#000000" font-family="sans-serif" font-size="13" lengthAdjust="spacing" textLength="5" x="343.5" y="495.5996">?</text><polygon fill="#181818" points="203.5,510.3418,193.5,514.3418,203.5,518.3418,199.5,514.3418" style="stroke:#181818;stroke-width:1.0;"/><line style="stroke:#181818;stroke-width:1.0;stroke-dasharray:2.0,2.0;" x1="197.5" x2="320.5" y1="514.3418" y2="514.3418"/><polygon fill="#181818" points="569.5,554.9629,579.5,558.9629,569.5,562.9629,573.5,558.9629" style="stroke:#181818;stroke-width:1.0;"/><line style="stroke:#181818;stroke-width:1.0;" x1="192.5" x2="575.5" y1="558.9629" y2="558.9629"/><text fill="#000000" font-family="sans-serif" font-size="13" lengthAdjust="spacing" textLength="67" x="199.5" y="538.9102">balanceOf(</text><text fill="#000000" font-family="sans-serif" font-size="13" lengthAdjust="spacing" textLength="9" x="199.5" y="554.2207">?)</text><polygon fill="#181818" points="203.5,599.584,193.5,603.584,203.5,607.584,199.5,603.584" style="stroke:#181818;stroke-width:1.0;"/><line style="stroke:#181818;stroke-width:1.0;stroke-dasharray:2.0,2.0;" x1="197.5" x2="585.5" y1="603.584" y2="603.584"/><text fill="#000000" font-family="sans-serif" font-size="13" lengthAdjust="spacing" textLength="4" x="209.5" y="583.5313">&#160;</text><text fill="#000000" font-family="sans-serif" font-size="13" lengthAdjust="spacing" textLength="5" x="209.5" y="598.8418">?</text><polygon fill="#181818" points="709,628.8945,719,632.8945,709,636.8945,713,632.8945" style="stroke:#181818;stroke-width:1.0;"/><line style="stroke:#181818;stroke-width:1.0;" x1="192.5" x2="715" y1="632.8945" y2="632.8945"/><text fill="#000000" font-family="sans-serif" font-size="13" lengthAdjust="spacing" textLength="83" x="199.5" y="628.1523">getReserves()</text><polygon fill="#181818" points="203.5,704.1367,193.5,708.1367,203.5,712.1367,199.5,708.1367" style="stroke:#181818;stroke-width:1.0;"/><line style="stroke:#181818;stroke-width:1.0;stroke-dasharray:2.0,2.0;" x1="197.5" x2="725" y1="708.1367" y2="708.1367"/><text fill="#000000" font-family="sans-serif" font-size="13" lengthAdjust="spacing" textLength="4" x="209.5" y="657.4629">&#160;</text><text fill="#000000" font-family="sans-serif" font-size="13" lengthAdjust="spacing" textLength="64" x="209.5" y="672.7734">_reserve0,</text><text fill="#000000" font-family="sans-serif" font-size="13" lengthAdjust="spacing" textLength="64" x="209.5" y="688.084">_reserve1,</text><text fill="#000000" font-family="sans-serif" font-size="13" lengthAdjust="spacing" textLength="138" x="209.5" y="703.3945">_blockTimestampLast</text><polygon fill="#181818" points="432.5,748.7578,442.5,752.7578,432.5,756.7578,436.5,752.7578" style="stroke:#181818;stroke-width:1.0;"/><line style="stroke:#181818;stroke-width:1.0;" x1="192.5" x2="438.5" y1="752.7578" y2="752.7578"/><text fill="#000000" font-family="sans-serif" font-size="13" lengthAdjust="spacing" textLength="67" x="199.5" y="732.7051">balanceOf(</text><text fill="#000000" font-family="sans-serif" font-size="13" lengthAdjust="spacing" textLength="54" x="199.5" y="748.0156">account)</text><polygon fill="#181818" points="203.5,793.3789,193.5,797.3789,203.5,801.3789,199.5,797.3789" style="stroke:#181818;stroke-width:1.0;"/><line style="stroke:#181818;stroke-width:1.0;stroke-dasharray:2.0,2.0;" x1="197.5" x2="448.5" y1="797.3789" y2="797.3789"/><text fill="#000000" font-family="sans-serif" font-size="13" lengthAdjust="spacing" textLength="4" x="209.5" y="777.3262">&#160;</text><text fill="#000000" font-family="sans-serif" font-size="13" lengthAdjust="spacing" textLength="5" x="209.5" y="792.6367">?</text><polygon fill="#181818" points="709,883.9316,719,887.9316,709,891.9316,713,887.9316" style="stroke:#181818;stroke-width:1.0;"/><line style="stroke:#181818;stroke-width:1.0;" x1="192.5" x2="715" y1="887.9316" y2="887.9316"/><text fill="#000000" font-family="sans-serif" font-size="13" lengthAdjust="spacing" textLength="36" x="199.5" y="821.9473">swap(</text><text fill="#000000" font-family="sans-serif" font-size="13" lengthAdjust="spacing" textLength="83" x="199.5" y="837.2578">amount0Out,</text><text fill="#000000" font-family="sans-serif" font-size="13" lengthAdjust="spacing" textLength="83" x="199.5" y="852.5684">amount1Out,</text><text fill="#000000" font-family="sans-serif" font-size="13" lengthAdjust="spacing" textLength="17" x="199.5" y="867.8789">to,</text><text fill="#000000" font-family="sans-serif" font-size="13" lengthAdjust="spacing" textLength="31" x="199.5" y="883.1895">data)</text><polygon fill="#181818" points="851.5,943.8633,861.5,947.8633,851.5,951.8633,855.5,947.8633" style="stroke:#181818;stroke-width:1.0;"/><line style="stroke:#181818;stroke-width:1.0;" x1="731" x2="857.5" y1="947.8633" y2="947.8633"/><text fill="#000000" font-family="sans-serif" font-size="13" lengthAdjust="spacing" textLength="53" x="738" y="912.5">transfer(</text><text fill="#000000" font-family="sans-serif" font-size="13" lengthAdjust="spacing" textLength="59" x="738" y="927.8105">recipient,</text><text fill="#000000" font-family="sans-serif" font-size="13" lengthAdjust="spacing" textLength="52" x="738" y="943.1211">amount)</text><polygon fill="#181818" points="742,988.4844,732,992.4844,742,996.4844,738,992.4844" style="stroke:#181818;stroke-width:1.0;"/><line style="stroke:#181818;stroke-width:1.0;stroke-dasharray:2.0,2.0;" x1="736" x2="867.5" y1="992.4844" y2="992.4844"/><text fill="#000000" font-family="sans-serif" font-size="13" lengthAdjust="spacing" textLength="4" x="748" y="972.4316">&#160;</text><text fill="#000000" font-family="sans-serif" font-size="13" lengthAdjust="spacing" textLength="5" x="748" y="987.7422">?</text><polygon fill="#181818" points="465.5,1033.1055,455.5,1037.1055,465.5,1041.1055,461.5,1037.1055" style="stroke:#181818;stroke-width:1.0;"/><line style="stroke:#181818;stroke-width:1.0;" x1="459.5" x2="720" y1="1037.1055" y2="1037.1055"/><text fill="#000000" font-family="sans-serif" font-size="13" lengthAdjust="spacing" textLength="67" x="471.5" y="1017.0527">balanceOf(</text><text fill="#000000" font-family="sans-serif" font-size="13" lengthAdjust="spacing" textLength="54" x="471.5" y="1032.3633">account)</text><polygon fill="#181818" points="709,1077.7266,719,1081.7266,709,1085.7266,713,1081.7266" style="stroke:#181818;stroke-width:1.0;"/><line style="stroke:#181818;stroke-width:1.0;stroke-dasharray:2.0,2.0;" x1="449.5" x2="715" y1="1081.7266" y2="1081.7266"/><text fill="#000000" font-family="sans-serif" font-size="13" lengthAdjust="spacing" textLength="4" x="456.5" y="1061.6738">&#160;</text><text fill="#000000" font-family="sans-serif" font-size="13" lengthAdjust="spacing" textLength="5" x="456.5" y="1076.9844">?</text><polygon fill="#181818" points="851.5,1122.3477,861.5,1126.3477,851.5,1130.3477,855.5,1126.3477" style="stroke:#181818;stroke-width:1.0;"/><line style="stroke:#181818;stroke-width:1.0;" x1="731" x2="857.5" y1="1126.3477" y2="1126.3477"/><text fill="#000000" font-family="sans-serif" font-size="13" lengthAdjust="spacing" textLength="67" x="738" y="1106.2949">balanceOf(</text><text fill="#000000" font-family="sans-serif" font-size="13" lengthAdjust="spacing" textLength="54" x="738" y="1121.6055">account)</text><polygon fill="#181818" points="742,1166.9688,732,1170.9688,742,1174.9688,738,1170.9688" style="stroke:#181818;stroke-width:1.0;"/><line style="stroke:#181818;stroke-width:1.0;stroke-dasharray:2.0,2.0;" x1="736" x2="867.5" y1="1170.9688" y2="1170.9688"/><text fill="#000000" font-family="sans-serif" font-size="13" lengthAdjust="spacing" textLength="4" x="748" y="1150.916">&#160;</text><text fill="#000000" font-family="sans-serif" font-size="13" lengthAdjust="spacing" textLength="5" x="748" y="1166.2266">?</text><polygon fill="#181818" points="203.5,1180.9688,193.5,1184.9688,203.5,1188.9688,199.5,1184.9688" style="stroke:#181818;stroke-width:1.0;"/><line style="stroke:#181818;stroke-width:1.0;stroke-dasharray:2.0,2.0;" x1="197.5" x2="725" y1="1184.9688" y2="1184.9688"/><polygon fill="#181818" points="994,1210.2793,1004,1214.2793,994,1218.2793,998,1214.2793" style="stroke:#181818;stroke-width:1.0;"/><line style="stroke:#181818;stroke-width:1.0;" x1="192.5" x2="1000" y1="1214.2793" y2="1214.2793"/><text fill="#000000" font-family="sans-serif" font-size="13" lengthAdjust="spacing" textLength="83" x="199.5" y="1209.5371">getReserves()</text><polygon fill="#181818" points="203.5,1285.5215,193.5,1289.5215,203.5,1293.5215,199.5,1289.5215" style="stroke:#181818;stroke-width:1.0;"/><line style="stroke:#181818;stroke-width:1.0;stroke-dasharray:2.0,2.0;" x1="197.5" x2="1010" y1="1289.5215" y2="1289.5215"/><text fill="#000000" font-family="sans-serif" font-size="13" lengthAdjust="spacing" textLength="4" x="209.5" y="1238.8477">&#160;</text><text fill="#000000" font-family="sans-serif" font-size="13" lengthAdjust="spacing" textLength="64" x="209.5" y="1254.1582">_reserve0,</text><text fill="#000000" font-family="sans-serif" font-size="13" lengthAdjust="spacing" textLength="64" x="209.5" y="1269.4688">_reserve1,</text><text fill="#000000" font-family="sans-serif" font-size="13" lengthAdjust="spacing" textLength="138" x="209.5" y="1284.7793">_blockTimestampLast</text><polygon fill="#181818" points="851.5,1330.1426,861.5,1334.1426,851.5,1338.1426,855.5,1334.1426" style="stroke:#181818;stroke-width:1.0;"/><line style="stroke:#181818;stroke-width:1.0;" x1="192.5" x2="857.5" y1="1334.1426" y2="1334.1426"/><text fill="#000000" font-family="sans-serif" font-size="13" lengthAdjust="spacing" textLength="67" x="199.5" y="1314.0898">balanceOf(</text><text fill="#000000" font-family="sans-serif" font-size="13" lengthAdjust="spacing" textLength="54" x="199.5" y="1329.4004">account)</text><polygon fill="#181818" points="203.5,1374.7637,193.5,1378.7637,203.5,1382.7637,199.5,1378.7637" style="stroke:#181818;stroke-width:1.0;"/><line style="stroke:#181818;stroke-width:1.0;stroke-dasharray:2.0,2.0;" x1="197.5" x2="867.5" y1="1378.7637" y2="1378.7637"/><text fill="#000000" font-family="sans-serif" font-size="13" lengthAdjust="spacing" textLength="4" x="209.5" y="1358.7109">&#160;</text><text fill="#000000" font-family="sans-serif" font-size="13" lengthAdjust="spacing" textLength="5" x="209.5" y="1374.0215">?</text><polygon fill="#181818" points="994,1465.3164,1004,1469.3164,994,1473.3164,998,1469.3164" style="stroke:#181818;stroke-width:1.0;"/><line style="stroke:#181818;stroke-width:1.0;" x1="192.5" x2="1000" y1="1469.3164" y2="1469.3164"/><text fill="#000000" font-family="sans-serif" font-size="13" lengthAdjust="spacing" textLength="36" x="199.5" y="1403.332">swap(</text><text fill="#000000" font-family="sans-serif" font-size="13" lengthAdjust="spacing" textLength="83" x="199.5" y="1418.6426">amount0Out,</text><text fill="#000000" font-family="sans-serif" font-size="13" lengthAdjust="spacing" textLength="83" x="199.5" y="1433.9531">amount1Out,</text><text fill="#000000" font-family="sans-serif" font-size="13" lengthAdjust="spacing" textLength="17" x="199.5" y="1449.2637">to,</text><text fill="#000000" font-family="sans-serif" font-size="13" lengthAdjust="spacing" textLength="31" x="199.5" y="1464.5742">data)</text><polygon fill="#181818" points="602.5,1525.248,592.5,1529.248,602.5,1533.248,598.5,1529.248" style="stroke:#181818;stroke-width:1.0;"/><line style="stroke:#181818;stroke-width:1.0;" x1="596.5" x2="1005" y1="1529.248" y2="1529.248"/><text fill="#000000" font-family="sans-serif" font-size="13" lengthAdjust="spacing" textLength="53" x="608.5" y="1493.8848">transfer(</text><text fill="#000000" font-family="sans-serif" font-size="13" lengthAdjust="spacing" textLength="24" x="608.5" y="1509.1953">dst,</text><text fill="#000000" font-family="sans-serif" font-size="13" lengthAdjust="spacing" textLength="29" x="608.5" y="1524.5059">wad)</text><polygon fill="#181818" points="994,1569.8691,1004,1573.8691,994,1577.8691,998,1573.8691" style="stroke:#181818;stroke-width:1.0;"/><line style="stroke:#181818;stroke-width:1.0;stroke-dasharray:2.0,2.0;" x1="586.5" x2="1000" y1="1573.8691" y2="1573.8691"/><text fill="#000000" font-family="sans-serif" font-size="13" lengthAdjust="spacing" textLength="4" x="593.5" y="1553.8164">&#160;</text><text fill="#000000" font-family="sans-serif" font-size="13" lengthAdjust="spacing" textLength="5" x="593.5" y="1569.127">?</text><polygon fill="#181818" points="884.5,1614.4902,874.5,1618.4902,884.5,1622.4902,880.5,1618.4902" style="stroke:#181818;stroke-width:1.0;"/><line style="stroke:#181818;stroke-width:1.0;" x1="878.5" x2="1005" y1="1618.4902" y2="1618.4902"/><text fill="#000000" font-family="sans-serif" font-size="13" lengthAdjust="spacing" textLength="67" x="890.5" y="1598.4375">balanceOf(</text><text fill="#000000" font-family="sans-serif" font-size="13" lengthAdjust="spacing" textLength="54" x="890.5" y="1613.748">account)</text><polygon fill="#181818" points="994,1659.1113,1004,1663.1113,994,1667.1113,998,1663.1113" style="stroke:#181818;stroke-width:1.0;"/><line style="stroke:#181818;stroke-width:1.0;stroke-dasharray:2.0,2.0;" x1="868.5" x2="1000" y1="1663.1113" y2="1663.1113"/><text fill="#000000" font-family="sans-serif" font-size="13" lengthAdjust="spacing" textLength="4" x="875.5" y="1643.0586">&#160;</text><text fill="#000000" font-family="sans-serif" font-size="13" lengthAdjust="spacing" textLength="5" x="875.5" y="1658.3691">?</text><polygon fill="#181818" points="602.5,1703.7324,592.5,1707.7324,602.5,1711.7324,598.5,1707.7324" style="stroke:#181818;stroke-width:1.0;"/><line style="stroke:#181818;stroke-width:1.0;" x1="596.5" x2="1005" y1="1707.7324" y2="1707.7324"/><text fill="#000000" font-family="sans-serif" font-size="13" lengthAdjust="spacing" textLength="67" x="608.5" y="1687.6797">balanceOf(</text><text fill="#000000" font-family="sans-serif" font-size="13" lengthAdjust="spacing" textLength="9" x="608.5" y="1702.9902">?)</text><polygon fill="#181818" points="994,1748.3535,1004,1752.3535,994,1756.3535,998,1752.3535" style="stroke:#181818;stroke-width:1.0;"/><line style="stroke:#181818;stroke-width:1.0;stroke-dasharray:2.0,2.0;" x1="586.5" x2="1000" y1="1752.3535" y2="1752.3535"/><text fill="#000000" font-family="sans-serif" font-size="13" lengthAdjust="spacing" textLength="4" x="593.5" y="1732.3008">&#160;</text><text fill="#000000" font-family="sans-serif" font-size="13" lengthAdjust="spacing" textLength="5" x="593.5" y="1747.6113">?</text><polygon fill="#181818" points="203.5,1762.3535,193.5,1766.3535,203.5,1770.3535,199.5,1766.3535" style="stroke:#181818;stroke-width:1.0;"/><line style="stroke:#181818;stroke-width:1.0;stroke-dasharray:2.0,2.0;" x1="197.5" x2="1010" y1="1766.3535" y2="1766.3535"/><polygon fill="#181818" points="569.5,1806.9746,579.5,1810.9746,569.5,1814.9746,573.5,1810.9746" style="stroke:#181818;stroke-width:1.0;"/><line style="stroke:#181818;stroke-width:1.0;" x1="192.5" x2="575.5" y1="1810.9746" y2="1810.9746"/><text fill="#000000" font-family="sans-serif" font-size="13" lengthAdjust="spacing" textLength="67" x="199.5" y="1790.9219">balanceOf(</text><text fill="#000000" font-family="sans-serif" font-size="13" lengthAdjust="spacing" textLength="9" x="199.5" y="1806.2324">?)</text><polygon fill="#181818" points="203.5,1851.5957,193.5,1855.5957,203.5,1859.5957,199.5,1855.5957" style="stroke:#181818;stroke-width:1.0;"/><line style="stroke:#181818;stroke-width:1.0;stroke-dasharray:2.0,2.0;" x1="197.5" x2="585.5" y1="1855.5957" y2="1855.5957"/><text fill="#000000" font-family="sans-serif" font-size="13" lengthAdjust="spacing" textLength="4" x="209.5" y="1835.543">&#160;</text><text fill="#000000" font-family="sans-serif" font-size="13" lengthAdjust="spacing" textLength="5" x="209.5" y="1850.8535">?</text><polygon fill="#181818" points="569.5,1896.2168,579.5,1900.2168,569.5,1904.2168,573.5,1900.2168" style="stroke:#181818;stroke-width:1.0;"/><line style="stroke:#181818;stroke-width:1.0;" x1="192.5" x2="575.5" y1="1900.2168" y2="1900.2168"/><text fill="#000000" font-family="sans-serif" font-size="13" lengthAdjust="spacing" textLength="67" x="199.5" y="1880.1641">balanceOf(</text><text fill="#000000" font-family="sans-serif" font-size="13" lengthAdjust="spacing" textLength="9" x="199.5" y="1895.4746">?)</text><polygon fill="#181818" points="203.5,1940.8379,193.5,1944.8379,203.5,1948.8379,199.5,1944.8379" style="stroke:#181818;stroke-width:1.0;"/><line style="stroke:#181818;stroke-width:1.0;stroke-dasharray:2.0,2.0;" x1="197.5" x2="585.5" y1="1944.8379" y2="1944.8379"/><text fill="#000000" font-family="sans-serif" font-size="13" lengthAdjust="spacing" textLength="4" x="209.5" y="1924.7852">&#160;</text><text fill="#000000" font-family="sans-serif" font-size="13" lengthAdjust="spacing" textLength="5" x="209.5" y="1940.0957">?</text><polygon fill="#181818" points="569.5,1985.459,579.5,1989.459,569.5,1993.459,573.5,1989.459" style="stroke:#181818;stroke-width:1.0;"/><line style="stroke:#181818;stroke-width:1.0;" x1="192.5" x2="575.5" y1="1989.459" y2="1989.459"/><text fill="#000000" font-family="sans-serif" font-size="13" lengthAdjust="spacing" textLength="61" x="199.5" y="1969.4063">withdraw(</text><text fill="#000000" font-family="sans-serif" font-size="13" lengthAdjust="spacing" textLength="29" x="199.5" y="1984.7168">wad)</text><polygon fill="#181818" points="208.5,2030.0801,198.5,2034.0801,208.5,2038.0801,204.5,2034.0801" style="stroke:#181818;stroke-width:1.0;"/><line style="stroke:#181818;stroke-width:1.0;" x1="202.5" x2="580.5" y1="2034.0801" y2="2034.0801"/><text fill="#000000" font-family="sans-serif" font-size="13" lengthAdjust="spacing" textLength="58" x="214.5" y="2014.0273">fallback()</text><text fill="#000000" font-family="sans-serif" font-size="13" lengthAdjust="spacing" textLength="65" x="214.5" y="2029.3379">0.064 ETH</text><polygon fill="#181818" points="73,2074.7012,63,2078.7012,73,2082.7012,69,2078.7012" style="stroke:#181818;stroke-width:1.0;"/><line style="stroke:#181818;stroke-width:1.0;" x1="67" x2="186.5" y1="2078.7012" y2="2078.7012"/><text fill="#000000" font-family="sans-serif" font-size="13" lengthAdjust="spacing" textLength="58" x="79" y="2058.6484">fallback()</text><text fill="#000000" font-family="sans-serif" font-size="13" lengthAdjust="spacing" textLength="65" x="79" y="2073.959">0.064 ETH</text><polygon fill="#181818" points="175.5,2088.7012,185.5,2092.7012,175.5,2096.7012,179.5,2092.7012" style="stroke:#181818;stroke-width:1.0;"/><line style="stroke:#181818;stroke-width:1.0;stroke-dasharray:2.0,2.0;" x1="57" x2="181.5" y1="2092.7012" y2="2092.7012"/><polygon fill="#181818" points="569.5,2102.7012,579.5,2106.7012,569.5,2110.7012,573.5,2106.7012" style="stroke:#181818;stroke-width:1.0;"/><line style="stroke:#181818;stroke-width:1.0;stroke-dasharray:2.0,2.0;" x1="192.5" x2="575.5" y1="2106.7012" y2="2106.7012"/><polygon fill="#181818" points="203.5,2116.7012,193.5,2120.7012,203.5,2124.7012,199.5,2120.7012" style="stroke:#181818;stroke-width:1.0;"/><line style="stroke:#181818;stroke-width:1.0;stroke-dasharray:2.0,2.0;" x1="197.5" x2="585.5" y1="2120.7012" y2="2120.7012"/><polygon fill="#181818" points="68,2130.7012,58,2134.7012,68,2138.7012,64,2134.7012" style="stroke:#181818;stroke-width:1.0;"/><line style="stroke:#181818;stroke-width:1.0;stroke-dasharray:2.0,2.0;" x1="62" x2="186.5" y1="2134.7012" y2="2134.7012"/><path d="M273,2147.7012 L273,2264.7012 L370,2264.7012 L370,2157.7012 L360,2147.7012 L273,2147.7012 " fill="#00FFFF" style="stroke:#181818;stroke-width:0.5;"/><path d="M360,2147.7012 L360,2157.7012 L370,2157.7012 L360,2147.7012 " fill="#00FFFF" style="stroke:#181818;stroke-width:0.5;"/><text fill="#000000" font-family="sans-serif" font-size="13" lengthAdjust="spacing" textLength="44" x="279" y="2165.2695">Permit:</text><text fill="#000000" font-family="sans-serif" font-size="13" lengthAdjust="spacing" textLength="42" x="287" y="2180.5801">owner,</text><text fill="#000000" font-family="sans-serif" font-size="13" lengthAdjust="spacing" textLength="40" x="287" y="2195.8906">token,</text><text fill="#000000" font-family="sans-serif" font-size="13" lengthAdjust="spacing" textLength="54" x="287" y="2211.2012">spender,</text><text fill="#000000" font-family="sans-serif" font-size="13" lengthAdjust="spacing" textLength="52" x="287" y="2226.5117">amount,</text><text fill="#000000" font-family="sans-serif" font-size="13" lengthAdjust="spacing" textLength="68" x="287" y="2241.8223">expiration,</text><text fill="#000000" font-family="sans-serif" font-size="13" lengthAdjust="spacing" textLength="38" x="287" y="2257.1328">nonce</text><path d="M408,2147.7012 L408,2279.7012 L491,2279.7012 L491,2157.7012 L481,2147.7012 L408,2147.7012 " fill="#00FFFF" style="stroke:#181818;stroke-width:0.5;"/><path d="M481,2147.7012 L481,2157.7012 L491,2157.7012 L481,2147.7012 " fill="#00FFFF" style="stroke:#181818;stroke-width:0.5;"/><text fill="#000000" font-family="sans-serif" font-size="13" lengthAdjust="spacing" textLength="56" x="414" y="2165.2695">Transfer:</text><text fill="#000000" font-family="sans-serif" font-size="13" lengthAdjust="spacing" textLength="34" x="422" y="2180.5801">from,</text><text fill="#000000" font-family="sans-serif" font-size="13" lengthAdjust="spacing" textLength="17" x="422" y="2195.8906">to,</text><text fill="#000000" font-family="sans-serif" font-size="13" lengthAdjust="spacing" textLength="33" x="422" y="2211.2012">value</text><text fill="#000000" font-family="sans-serif" font-size="13" lengthAdjust="spacing" textLength="60" x="414" y="2226.5117">Approval:</text><text fill="#000000" font-family="sans-serif" font-size="13" lengthAdjust="spacing" textLength="42" x="422" y="2241.8223">owner,</text><text fill="#000000" font-family="sans-serif" font-size="13" lengthAdjust="spacing" textLength="54" x="422" y="2257.1328">spender,</text><text fill="#000000" font-family="sans-serif" font-size="13" lengthAdjust="spacing" textLength="33" x="422" y="2272.4434">value</text><path d="M539,2147.7012 L539,2264.7012 L633,2264.7012 L633,2157.7012 L623,2147.7012 L539,2147.7012 " fill="#00FFFF" style="stroke:#181818;stroke-width:0.5;"/><path d="M623,2147.7012 L623,2157.7012 L633,2157.7012 L623,2147.7012 " fill="#00FFFF" style="stroke:#181818;stroke-width:0.5;"/><text fill="#000000" font-family="sans-serif" font-size="13" lengthAdjust="spacing" textLength="56" x="545" y="2165.2695">Transfer:</text><text fill="#000000" font-family="sans-serif" font-size="13" lengthAdjust="spacing" textLength="23" x="553" y="2180.5801">src,</text><text fill="#000000" font-family="sans-serif" font-size="13" lengthAdjust="spacing" textLength="24" x="553" y="2195.8906">dst,</text><text fill="#000000" font-family="sans-serif" font-size="13" lengthAdjust="spacing" textLength="25" x="553" y="2211.2012">wad</text><text fill="#000000" font-family="sans-serif" font-size="13" lengthAdjust="spacing" textLength="73" x="545" y="2226.5117">Withdrawal:</text><text fill="#000000" font-family="sans-serif" font-size="13" lengthAdjust="spacing" textLength="23" x="553" y="2241.8223">src,</text><text fill="#000000" font-family="sans-serif" font-size="13" lengthAdjust="spacing" textLength="25" x="553" y="2257.1328">wad</text><path d="M670,2147.7012 L670,2310.7012 L782,2310.7012 L782,2157.7012 L772,2147.7012 L670,2147.7012 " fill="#00FFFF" style="stroke:#181818;stroke-width:0.5;"/><path d="M772,2147.7012 L772,2157.7012 L782,2157.7012 L772,2147.7012 " fill="#00FFFF" style="stroke:#181818;stroke-width:0.5;"/><text fill="#000000" font-family="sans-serif" font-size="13" lengthAdjust="spacing" textLength="33" x="676" y="2165.2695">Sync:</text><text fill="#000000" font-family="sans-serif" font-size="13" lengthAdjust="spacing" textLength="57" x="684" y="2180.5801">reserve0,</text><text fill="#000000" font-family="sans-serif" font-size="13" lengthAdjust="spacing" textLength="53" x="684" y="2195.8906">reserve1</text><text fill="#000000" font-family="sans-serif" font-size="13" lengthAdjust="spacing" textLength="36" x="676" y="2211.2012">Swap:</text><text fill="#000000" font-family="sans-serif" font-size="13" lengthAdjust="spacing" textLength="46" x="684" y="2226.5117">sender,</text><text fill="#000000" font-family="sans-serif" font-size="13" lengthAdjust="spacing" textLength="72" x="684" y="2241.8223">amount0In,</text><text fill="#000000" font-family="sans-serif" font-size="13" lengthAdjust="spacing" textLength="72" x="684" y="2257.1328">amount1In,</text><text fill="#000000" font-family="sans-serif" font-size="13" lengthAdjust="spacing" textLength="83" x="684" y="2272.4434">amount0Out,</text><text fill="#000000" font-family="sans-serif" font-size="13" lengthAdjust="spacing" textLength="83" x="684" y="2287.7539">amount1Out,</text><text fill="#000000" font-family="sans-serif" font-size="13" lengthAdjust="spacing" textLength="13" x="684" y="2303.0645">to</text><path d="M830,2147.7012 L830,2218.7012 L907,2218.7012 L907,2157.7012 L897,2147.7012 L830,2147.7012 " fill="#00FFFF" style="stroke:#181818;stroke-width:0.5;"/><path d="M897,2147.7012 L897,2157.7012 L907,2157.7012 L897,2147.7012 " fill="#00FFFF" style="stroke:#181818;stroke-width:0.5;"/><text fill="#000000" font-family="sans-serif" font-size="13" lengthAdjust="spacing" textLength="56" x="836" y="2165.2695">Transfer:</text><text fill="#000000" font-family="sans-serif" font-size="13" lengthAdjust="spacing" textLength="34" x="844" y="2180.5801">from,</text><text fill="#000000" font-family="sans-serif" font-size="13" lengthAdjust="spacing" textLength="17" x="844" y="2195.8906">to,</text><text fill="#000000" font-family="sans-serif" font-size="13" lengthAdjust="spacing" textLength="33" x="844" y="2211.2012">value</text><path d="M955,2147.7012 L955,2310.7012 L1067,2310.7012 L1067,2157.7012 L1057,2147.7012 L955,2147.7012 " fill="#00FFFF" style="stroke:#181818;stroke-width:0.5;"/><path d="M1057,2147.7012 L1057,2157.7012 L1067,2157.7012 L1057,2147.7012 " fill="#00FFFF" style="stroke:#181818;stroke-width:0.5;"/><text fill="#000000" font-family="sans-serif" font-size="13" lengthAdjust="spacing" textLength="33" x="961" y="2165.2695">Sync:</text><text fill="#000000" font-family="sans-serif" font-size="13" lengthAdjust="spacing" textLength="57" x="969" y="2180.5801">reserve0,</text><text fill="#000000" font-family="sans-serif" font-size="13" lengthAdjust="spacing" textLength="53" x="969" y="2195.8906">reserve1</text><text fill="#000000" font-family="sans-serif" font-size="13" lengthAdjust="spacing" textLength="36" x="961" y="2211.2012">Swap:</text><text fill="#000000" font-family="sans-serif" font-size="13" lengthAdjust="spacing" textLength="46" x="969" y="2226.5117">sender,</text><text fill="#000000" font-family="sans-serif" font-size="13" lengthAdjust="spacing" textLength="72" x="969" y="2241.8223">amount0In,</text><text fill="#000000" font-family="sans-serif" font-size="13" lengthAdjust="spacing" textLength="72" x="969" y="2257.1328">amount1In,</text><text fill="#000000" font-family="sans-serif" font-size="13" lengthAdjust="spacing" textLength="83" x="969" y="2272.4434">amount0Out,</text><text fill="#000000" font-family="sans-serif" font-size="13" lengthAdjust="spacing" textLength="83" x="969" y="2287.7539">amount1Out,</text><text fill="#000000" font-family="sans-serif" font-size="13" lengthAdjust="spacing" textLength="13" x="969" y="2303.0645">to</text><!--SRC=[nLRVRzis47xNNq5qBmxWQfHasP8Hk1YQT6knhK7Y9Yy1XXDrJedOb4RHiVlVxqXPibpBpRfiM1xC-wAxxuxtWwIHPecCRyV99E4HnacSHnCE6GQPuEF5ACwo91zXAYP9164IvJn6n74S0uwoE8f2IFauNGIU9w0qib1i1L8fD4EMBGlno89970RX91Yo-Hg7BEJimrhH4aOiYAOZFerJzlDlSm-4AJHxnRSvvvdlHr4Ql69GCGijO5u9saWXIr36waKBaVh-P06vqxFG0dP-_ad99zGLBA-BjK4zctrjokdFzvCC8cTgeGLaUeLw9KruR98kOEpxa08w4mij89CBl0Q1R5uyefhDpiy75vVNRy-iH6l8Zwa43y7tnqA4Zif22uZgJaDPOiukpMSRDd7TNSv_SLnMI7kuaeIu-2Yfas2X1NKIgWsKx3PqH9z-V__wDdHKko-tuHN8dkG0pnBVnsoKE4eBBR2KDnViRI7hNHAeT_bEWd6RlzB5ziinNpR2mFT5cWl7Pw45tnMYrtR1wrbRwId3BGggyE1UYMAr0fLNmtibLRasLiWHygLKU6PxIpw1mTRKQxk5-9hoJrdfgazqnKQX9ehw7pTIFIoHO2KV59Yrxb8srfv6-g9EC1iDgbgWVgUB5V4lQ24-Kz0Fh8grCWvH4lkOs_uaogRnZYWhf0tRc3LIxYKwofgxmzcOxwAzLs_wucvQSieoM88I-7517jvqU1gD3iy1mQuFf-m1pJLMg9-m6dJjTmgj_H-wrkB3lHnOsPqYSxd2oi2g_1KgS-1fduzkg234ynll3zZstQ397F-utgSng84hMWu6-hRJ3Y1nDfEpBzNWcUeq5fqWkuGls6j_ND-cwOccfrUQUJvPwaRXnQL-GTpz0V-ZKhVRQG-oWu7fb3glBCS6yc_FJPVd1Lli3-SxvlS_EGV-FOADD9zp3Pl1oPIs5-d17R60vJ83yJWukrVSv-CHevlqcHkXkMsUjMuKc-JrBfugIBMW9yd-fV43_Ba6htvjJ3t6wWk717S9MA4gwmETnDqDGH9kIwd1FhCiKWLbr2CrPZrutezixwbzeDIUvhksjBxSvUDSsTydMAxH-waiTK7YGIoT46gjVbTjtezTLLfOQpi9j53TlBjT6MjNk-_smmdkvjogkM- -A67jsXDaBmVU3Osp8_qgSVozseEW2zpCxp_ja2bE1DC-XVvUJlj9sZdzdtRq5m00]--></g></svg>
