<?xml version="1.0" encoding="us-ascii" standalone="no"?><svg xmlns:xlink="http://www.w3.org/1999/xlink" xmlns="http://www.w3.org/2000/svg" contentStyleType="text/css" height="2020px" preserveAspectRatio="none" style="width:1231px;height:2020px;background:#FFFFFF;" version="1.1" viewBox="0 0 1231 2020" width="1231px" zoomAndPan="magnify"><defs/><g><text fill="#000000" font-family="sans-serif" font-size="14" font-weight="bold" lengthAdjust="spacing" textLength="563" x="333" y="28.5352">0x90b900dc5d340d47e18258a6cdfbba1c64087d8a1130af09c5098ed2c0ff2c08</text><text fill="#000000" font-family="sans-serif" font-size="14" lengthAdjust="spacing" textLength="404" x="412.5" y="2008.3262">mainnet, block 17521413, Tue, 20 Jun 2023 14:09:59 GMT</text><rect fill="#FFFFFF" height="1551.6699" style="stroke:#181818;stroke-width:1.0;" width="10" x="181.5" y="200.6836"/><rect fill="#FFFFFF" height="238.416" style="stroke:#181818;stroke-width:1.0;" width="10" x="186.5" y="708.1367"/><rect fill="#FFFFFF" height="118.5527" style="stroke:#181818;stroke-width:1.0;" width="10" x="186.5" y="1470.627"/><rect fill="#FFFFFF" height="57.3105" style="stroke:#181818;stroke-width:1.0;" width="10" x="315.5" y="275.9258"/><rect fill="#FFFFFF" height="133.8633" style="stroke:#181818;stroke-width:1.0;" width="10" x="315.5" y="798.6895"/><rect fill="#FFFFFF" height="14" style="stroke:#181818;stroke-width:1.0;" width="10" x="437" y="305.2363"/><rect fill="#FFFFFF" height="656.627" style="stroke:#181818;stroke-width:1.0;" width="10" x="570" y="439.0996"/><rect fill="#FFFFFF" height="44.6211" style="stroke:#181818;stroke-width:1.0;" width="10" x="711.5" y="499.0313"/><rect fill="#FFFFFF" height="44.6211" style="stroke:#181818;stroke-width:1.0;" width="10" x="711.5" y="1350.7637"/><rect fill="#FFFFFF" height="44.6211" style="stroke:#181818;stroke-width:1.0;" width="10" x="711.5" y="1530.5586"/><rect fill="#FFFFFF" height="44.6211" style="stroke:#181818;stroke-width:1.0;" width="10" x="711.5" y="1633.8008"/><rect fill="#FFFFFF" height="44.6211" style="stroke:#181818;stroke-width:1.0;" width="10" x="853.5" y="588.2734"/><rect fill="#FFFFFF" height="44.6211" style="stroke:#181818;stroke-width:1.0;" width="10" x="853.5" y="873.9316"/><rect fill="#FFFFFF" height="44.6211" style="stroke:#181818;stroke-width:1.0;" width="10" x="853.5" y="991.1738"/><rect fill="#FFFFFF" height="536.7637" style="stroke:#181818;stroke-width:1.0;" width="10" x="986" y="1201.5898"/><rect fill="#FFFFFF" height="44.6211" style="stroke:#181818;stroke-width:1.0;" width="10" x="1135.5" y="1261.5215"/><line style="stroke:#181818;stroke-width:0.5;stroke-dasharray:5.0,5.0;" x1="56" x2="56" y1="123.4414" y2="1912.8379"/><line style="stroke:#181818;stroke-width:0.5;stroke-dasharray:5.0,5.0;" x1="186" x2="186" y1="123.4414" y2="1912.8379"/><line style="stroke:#181818;stroke-width:0.5;stroke-dasharray:5.0,5.0;" x1="320" x2="320" y1="123.4414" y2="1912.8379"/><line style="stroke:#181818;stroke-width:0.5;stroke-dasharray:5.0,5.0;" x1="442" x2="442" y1="123.4414" y2="1912.8379"/><line style="stroke:#181818;stroke-width:0.5;stroke-dasharray:5.0,5.0;" x1="575" x2="575" y1="123.4414" y2="1912.8379"/><line style="stroke:#181818;stroke-width:0.5;stroke-dasharray:5.0,5.0;" x1="716" x2="716" y1="123.4414" y2="1912.8379"/><line style="stroke:#181818;stroke-width:0.5;stroke-dasharray:5.0,5.0;" x1="858" x2="858" y1="123.4414" y2="1912.8379"/><line style="stroke:#181818;stroke-width:0.5;stroke-dasharray:5.0,5.0;" x1="991" x2="991" y1="123.4414" y2="1912.8379"/><line style="stroke:#181818;stroke-width:0.5;stroke-dasharray:5.0,5.0;" x1="1140" x2="1140" y1="123.4414" y2="1912.8379"/><text fill="#000000" font-family="sans-serif" font-size="14" lengthAdjust="spacing" textLength="97" x="5" y="120.4883">0xe89b..6d81</text><ellipse cx="56.5" cy="55.4531" fill="#E2E2F0" rx="8" ry="8" style="stroke:#181818;stroke-width:0.5;"/><path d="M56.5,63.4531 L56.5,90.4531 M43.5,71.4531 L69.5,71.4531 M56.5,90.4531 L43.5,105.4531 M56.5,90.4531 L69.5,105.4531 " fill="none" style="stroke:#181818;stroke-width:0.5;"/><text fill="#000000" font-family="sans-serif" font-size="14" lengthAdjust="spacing" textLength="97" x="5" y="1925.373">0xe89b..6d81</text><ellipse cx="56.5" cy="1936.8262" fill="#E2E2F0" rx="8" ry="8" style="stroke:#181818;stroke-width:0.5;"/><path d="M56.5,1944.8262 L56.5,1971.8262 M43.5,1952.8262 L69.5,1952.8262 M56.5,1971.8262 L43.5,1986.8262 M56.5,1971.8262 L69.5,1986.8262 " fill="none" style="stroke:#181818;stroke-width:0.5;"/><rect fill="#E2E2F0" height="46.9766" rx="2.5" ry="2.5" style="stroke:#181818;stroke-width:0.5;" width="137" x="118" y="75.4648"/><text fill="#000000" font-family="sans-serif" font-size="14" font-style="italic" lengthAdjust="spacing" textLength="123" x="125" y="96">&#171;UniversalRouter&#187;</text><text fill="#000000" font-family="sans-serif" font-size="14" lengthAdjust="spacing" textLength="87" x="143" y="112.4883">0x3fc9..7fad</text><rect fill="#E2E2F0" height="46.9766" rx="2.5" ry="2.5" style="stroke:#181818;stroke-width:0.5;" width="137" x="118" y="1911.8379"/><text fill="#000000" font-family="sans-serif" font-size="14" font-style="italic" lengthAdjust="spacing" textLength="123" x="125" y="1932.373">&#171;UniversalRouter&#187;</text><text fill="#000000" font-family="sans-serif" font-size="14" lengthAdjust="spacing" textLength="87" x="143" y="1948.8613">0x3fc9..7fad</text><rect fill="#E2E2F0" height="46.9766" rx="2.5" ry="2.5" style="stroke:#181818;stroke-width:0.5;" width="111" x="265" y="75.4648"/><text fill="#000000" font-family="sans-serif" font-size="14" font-style="italic" lengthAdjust="spacing" textLength="67" x="287" y="96">&#171;Permit2&#187;</text><text fill="#000000" font-family="sans-serif" font-size="14" lengthAdjust="spacing" textLength="97" x="272" y="112.4883">0x0000..8ba3</text><rect fill="#E2E2F0" height="46.9766" rx="2.5" ry="2.5" style="stroke:#181818;stroke-width:0.5;" width="111" x="265" y="1911.8379"/><text fill="#000000" font-family="sans-serif" font-size="14" font-style="italic" lengthAdjust="spacing" textLength="67" x="287" y="1932.373">&#171;Permit2&#187;</text><text fill="#000000" font-family="sans-serif" font-size="14" lengthAdjust="spacing" textLength="97" x="272" y="1948.8613">0x0000..8ba3</text><rect fill="#E2E2F0" height="30.4883" rx="2.5" ry="2.5" style="stroke:#181818;stroke-width:0.5;" width="112" x="386" y="91.9531"/><text fill="#000000" font-family="sans-serif" font-size="14" lengthAdjust="spacing" textLength="98" x="393" y="112.4883">0x0000..0001</text><rect fill="#E2E2F0" height="30.4883" rx="2.5" ry="2.5" style="stroke:#181818;stroke-width:0.5;" width="112" x="386" y="1911.8379"/><text fill="#000000" font-family="sans-serif" font-size="14" lengthAdjust="spacing" textLength="98" x="393" y="1932.373">0x0000..0001</text><rect fill="#E2E2F0" height="46.9766" rx="2.5" ry="2.5" style="stroke:#181818;stroke-width:0.5;" width="134" x="508" y="75.4648"/><text fill="#000000" font-family="sans-serif" font-size="14" font-style="italic" lengthAdjust="spacing" textLength="120" x="515" y="96">&#171;UniswapV3Pool&#187;</text><text fill="#000000" font-family="sans-serif" font-size="14" lengthAdjust="spacing" textLength="97" x="526.5" y="112.4883">0x88e6..5640</text><rect fill="#E2E2F0" height="46.9766" rx="2.5" ry="2.5" style="stroke:#181818;stroke-width:0.5;" width="134" x="508" y="1911.8379"/><text fill="#000000" font-family="sans-serif" font-size="14" font-style="italic" lengthAdjust="spacing" textLength="120" x="515" y="1932.373">&#171;UniswapV3Pool&#187;</text><text fill="#000000" font-family="sans-serif" font-size="14" lengthAdjust="spacing" textLength="97" x="526.5" y="1948.8613">0x88e6..5640</text><rect fill="#E2E2F0" height="79.9531" rx="2.5" ry="2.5" style="stroke:#181818;stroke-width:0.5;" width="129" x="652" y="42.4883"/><text fill="#000000" font-family="sans-serif" font-size="14" font-style="italic" lengthAdjust="spacing" textLength="115" x="659" y="63.0234">&#171;Wrapped Ether&#187;</text><text fill="#000000" font-family="sans-serif" font-size="14" font-style="italic" lengthAdjust="spacing" textLength="63" x="685" y="79.5117">&#171;(WETH)&#187;</text><text fill="#000000" font-family="sans-serif" font-size="14" font-style="italic" lengthAdjust="spacing" textLength="62" x="685.5" y="96">&#171;WETH9&#187;</text><text fill="#000000" font-family="sans-serif" font-size="14" lengthAdjust="spacing" textLength="91" x="671" y="112.4883">0xc02a..6cc2</text><rect fill="#E2E2F0" height="79.9531" rx="2.5" ry="2.5" style="stroke:#181818;stroke-width:0.5;" width="129" x="652" y="1911.8379"/><text fill="#000000" font-family="sans-serif" font-size="14" font-style="italic" lengthAdjust="spacing" textLength="115" x="659" y="1932.373">&#171;Wrapped Ether&#187;</text><text fill="#000000" font-family="sans-serif" font-size="14" font-style="italic" lengthAdjust="spacing" textLength="63" x="685" y="1948.8613">&#171;(WETH)&#187;</text><text fill="#000000" font-family="sans-serif" font-size="14" font-style="italic" lengthAdjust="spacing" textLength="62" x="685.5" y="1965.3496">&#171;WETH9&#187;</text><text fill="#000000" font-family="sans-serif" font-size="14" lengthAdjust="spacing" textLength="91" x="671" y="1981.8379">0xc02a..6cc2</text><rect fill="#E2E2F0" height="79.9531" rx="2.5" ry="2.5" style="stroke:#181818;stroke-width:0.5;" width="135" x="791" y="42.4883"/><text fill="#000000" font-family="sans-serif" font-size="14" font-style="italic" lengthAdjust="spacing" textLength="78" x="819.5" y="63.0234">&#171;USD Coin&#187;</text><text fill="#000000" font-family="sans-serif" font-size="14" font-style="italic" lengthAdjust="spacing" textLength="62" x="827.5" y="79.5117">&#171;(USDC)&#187;</text><text fill="#000000" font-family="sans-serif" font-size="14" font-style="italic" lengthAdjust="spacing" textLength="121" x="798" y="96">&#171;FiatTokenProxy&#187;</text><text fill="#000000" font-family="sans-serif" font-size="14" lengthAdjust="spacing" textLength="96" x="810.5" y="112.4883">0xa0b8..eb48</text><rect fill="#E2E2F0" height="79.9531" rx="2.5" ry="2.5" style="stroke:#181818;stroke-width:0.5;" width="135" x="791" y="1911.8379"/><text fill="#000000" font-family="sans-serif" font-size="14" font-style="italic" lengthAdjust="spacing" textLength="78" x="819.5" y="1932.373">&#171;USD Coin&#187;</text><text fill="#000000" font-family="sans-serif" font-size="14" font-style="italic" lengthAdjust="spacing" textLength="62" x="827.5" y="1948.8613">&#171;(USDC)&#187;</text><text fill="#000000" font-family="sans-serif" font-size="14" font-style="italic" lengthAdjust="spacing" textLength="121" x="798" y="1965.3496">&#171;FiatTokenProxy&#187;</text><text fill="#000000" font-family="sans-serif" font-size="14" lengthAdjust="spacing" textLength="96" x="810.5" y="1981.8379">0xa0b8..eb48</text><rect fill="#E2E2F0" height="30.4883" rx="2.5" ry="2.5" style="stroke:#181818;stroke-width:0.5;" width="110" x="936" y="91.9531"/><text fill="#000000" font-family="sans-serif" font-size="14" lengthAdjust="spacing" textLength="96" x="943" y="112.4883">0xe423..eb45</text><rect fill="#E2E2F0" height="30.4883" rx="2.5" ry="2.5" style="stroke:#181818;stroke-width:0.5;" width="110" x="936" y="1911.8379"/><text fill="#000000" font-family="sans-serif" font-size="14" lengthAdjust="spacing" textLength="96" x="943" y="1932.373">0xe423..eb45</text><rect fill="#E2E2F0" height="79.9531" rx="2.5" ry="2.5" style="stroke:#181818;stroke-width:0.5;" width="169" x="1056" y="42.4883"/><text fill="#000000" font-family="sans-serif" font-size="14" font-style="italic" lengthAdjust="spacing" textLength="155" x="1063" y="63.0234">&#171;Rocket Pool Protocol&#187;</text><text fill="#000000" font-family="sans-serif" font-size="14" font-style="italic" lengthAdjust="spacing" textLength="48" x="1116.5" y="79.5117">&#171;(RPL)&#187;</text><text fill="#000000" font-family="sans-serif" font-size="14" font-style="italic" lengthAdjust="spacing" textLength="127" x="1077" y="96">&#171;RocketTokenRPL&#187;</text><text fill="#000000" font-family="sans-serif" font-size="14" lengthAdjust="spacing" textLength="93" x="1094" y="112.4883">0xd335..a51f</text><rect fill="#E2E2F0" height="79.9531" rx="2.5" ry="2.5" style="stroke:#181818;stroke-width:0.5;" width="169" x="1056" y="1911.8379"/><text fill="#000000" font-family="sans-serif" font-size="14" font-style="italic" lengthAdjust="spacing" textLength="155" x="1063" y="1932.373">&#171;Rocket Pool Protocol&#187;</text><text fill="#000000" font-family="sans-serif" font-size="14" font-style="italic" lengthAdjust="spacing" textLength="48" x="1116.5" y="1948.8613">&#171;(RPL)&#187;</text><text fill="#000000" font-family="sans-serif" font-size="14" font-style="italic" lengthAdjust="spacing" textLength="127" x="1077" y="1965.3496">&#171;RocketTokenRPL&#187;</text><text fill="#000000" font-family="sans-serif" font-size="14" lengthAdjust="spacing" textLength="93" x="1094" y="1981.8379">0xd335..a51f</text><rect fill="#FFFFFF" height="1551.6699" style="stroke:#181818;stroke-width:1.0;" width="10" x="181.5" y="200.6836"/><rect fill="#FFFFFF" height="238.416" style="stroke:#181818;stroke-width:1.0;" width="10" x="186.5" y="708.1367"/><rect fill="#FFFFFF" height="118.5527" style="stroke:#181818;stroke-width:1.0;" width="10" x="186.5" y="1470.627"/><rect fill="#FFFFFF" height="57.3105" style="stroke:#181818;stroke-width:1.0;" width="10" x="315.5" y="275.9258"/><rect fill="#FFFFFF" height="133.8633" style="stroke:#181818;stroke-width:1.0;" width="10" x="315.5" y="798.6895"/><rect fill="#FFFFFF" height="14" style="stroke:#181818;stroke-width:1.0;" width="10" x="437" y="305.2363"/><rect fill="#FFFFFF" height="656.627" style="stroke:#181818;stroke-width:1.0;" width="10" x="570" y="439.0996"/><rect fill="#FFFFFF" height="44.6211" style="stroke:#181818;stroke-width:1.0;" width="10" x="711.5" y="499.0313"/><rect fill="#FFFFFF" height="44.6211" style="stroke:#181818;stroke-width:1.0;" width="10" x="711.5" y="1350.7637"/><rect fill="#FFFFFF" height="44.6211" style="stroke:#181818;stroke-width:1.0;" width="10" x="711.5" y="1530.5586"/><rect fill="#FFFFFF" height="44.6211" style="stroke:#181818;stroke-width:1.0;" width="10" x="711.5" y="1633.8008"/><rect fill="#FFFFFF" height="44.6211" style="stroke:#181818;stroke-width:1.0;" width="10" x="853.5" y="588.2734"/><rect fill="#FFFFFF" height="44.6211" style="stroke:#181818;stroke-width:1.0;" width="10" x="853.5" y="873.9316"/><rect fill="#FFFFFF" height="44.6211" style="stroke:#181818;stroke-width:1.0;" width="10" x="853.5" y="991.1738"/><rect fill="#FFFFFF" height="536.7637" style="stroke:#181818;stroke-width:1.0;" width="10" x="986" y="1201.5898"/><rect fill="#FFFFFF" height="44.6211" style="stroke:#181818;stroke-width:1.0;" width="10" x="1135.5" y="1261.5215"/><polygon fill="#181818" points="169.5,196.6836,179.5,200.6836,169.5,204.6836,173.5,200.6836" style="stroke:#181818;stroke-width:1.0;"/><line style="stroke:#181818;stroke-width:1.0;" x1="56.5" x2="175.5" y1="200.6836" y2="200.6836"/><text fill="#000000" font-family="sans-serif" font-size="13" lengthAdjust="spacing" textLength="53" x="63.5" y="150.0098">execute(</text><text fill="#000000" font-family="sans-serif" font-size="13" lengthAdjust="spacing" textLength="73" x="63.5" y="165.3203">commands,</text><text fill="#000000" font-family="sans-serif" font-size="13" lengthAdjust="spacing" textLength="44" x="63.5" y="180.6309">inputs,</text><text fill="#000000" font-family="sans-serif" font-size="13" lengthAdjust="spacing" textLength="57" x="63.5" y="195.9414">deadline)</text><polygon fill="#181818" points="303.5,271.9258,313.5,275.9258,303.5,279.9258,307.5,275.9258" style="stroke:#181818;stroke-width:1.0;"/><line style="stroke:#181818;stroke-width:1.0;" x1="191.5" x2="309.5" y1="275.9258" y2="275.9258"/><text fill="#000000" font-family="sans-serif" font-size="13" lengthAdjust="spacing" textLength="45" x="198.5" y="225.252">permit(</text><text fill="#000000" font-family="sans-serif" font-size="13" lengthAdjust="spacing" textLength="42" x="198.5" y="240.5625">owner,</text><text fill="#000000" font-family="sans-serif" font-size="13" lengthAdjust="spacing" textLength="83" x="198.5" y="255.873">permitSingle,</text><text fill="#000000" font-family="sans-serif" font-size="13" lengthAdjust="spacing" textLength="63" x="198.5" y="271.1836">signature)</text><polygon fill="#181818" points="425,301.2363,435,305.2363,425,309.2363,429,305.2363" style="stroke:#181818;stroke-width:1.0;"/><line style="stroke:#181818;stroke-width:1.0;" x1="325.5" x2="431" y1="305.2363" y2="305.2363"/><text fill="#000000" font-family="sans-serif" font-size="13" lengthAdjust="spacing" textLength="80" x="332.5" y="300.4941">0x8d445927</text><polygon fill="#181818" points="336.5,315.2363,326.5,319.2363,336.5,323.2363,332.5,319.2363" style="stroke:#181818;stroke-width:1.0;"/><line style="stroke:#181818;stroke-width:1.0;stroke-dasharray:2.0,2.0;" x1="330.5" x2="441" y1="319.2363" y2="319.2363"/><polygon fill="#181818" points="202.5,329.2363,192.5,333.2363,202.5,337.2363,198.5,333.2363" style="stroke:#181818;stroke-width:1.0;"/><line style="stroke:#181818;stroke-width:1.0;stroke-dasharray:2.0,2.0;" x1="196.5" x2="319.5" y1="333.2363" y2="333.2363"/><polygon fill="#181818" points="558,435.0996,568,439.0996,558,443.0996,562,439.0996" style="stroke:#181818;stroke-width:1.0;"/><line style="stroke:#181818;stroke-width:1.0;" x1="191.5" x2="564" y1="439.0996" y2="439.0996"/><text fill="#000000" font-family="sans-serif" font-size="13" lengthAdjust="spacing" textLength="36" x="198.5" y="357.8047">swap(</text><text fill="#000000" font-family="sans-serif" font-size="13" lengthAdjust="spacing" textLength="59" x="198.5" y="373.1152">recipient,</text><text fill="#000000" font-family="sans-serif" font-size="13" lengthAdjust="spacing" textLength="76" x="198.5" y="388.4258">zeroForOne,</text><text fill="#000000" font-family="sans-serif" font-size="13" lengthAdjust="spacing" textLength="109" x="198.5" y="403.7363">amountSpecified,</text><text fill="#000000" font-family="sans-serif" font-size="13" lengthAdjust="spacing" textLength="115" x="198.5" y="419.0469">sqrtPriceLimitX96,</text><text fill="#000000" font-family="sans-serif" font-size="13" lengthAdjust="spacing" textLength="31" x="198.5" y="434.3574">data)</text><polygon fill="#181818" points="699.5,495.0313,709.5,499.0313,699.5,503.0313,703.5,499.0313" style="stroke:#181818;stroke-width:1.0;"/><line style="stroke:#181818;stroke-width:1.0;" x1="580" x2="705.5" y1="499.0313" y2="499.0313"/><text fill="#000000" font-family="sans-serif" font-size="13" lengthAdjust="spacing" textLength="53" x="587" y="463.668">transfer(</text><text fill="#000000" font-family="sans-serif" font-size="13" lengthAdjust="spacing" textLength="24" x="587" y="478.9785">dst,</text><text fill="#000000" font-family="sans-serif" font-size="13" lengthAdjust="spacing" textLength="29" x="587" y="494.2891">wad)</text><polygon fill="#181818" points="591,539.6523,581,543.6523,591,547.6523,587,543.6523" style="stroke:#181818;stroke-width:1.0;"/><line style="stroke:#181818;stroke-width:1.0;stroke-dasharray:2.0,2.0;" x1="585" x2="715.5" y1="543.6523" y2="543.6523"/><text fill="#000000" font-family="sans-serif" font-size="13" lengthAdjust="spacing" textLength="4" x="597" y="523.5996">&#160;</text><text fill="#000000" font-family="sans-serif" font-size="13" lengthAdjust="spacing" textLength="5" x="597" y="538.9102">?</text><polygon fill="#181818" points="841.5,584.2734,851.5,588.2734,841.5,592.2734,845.5,588.2734" style="stroke:#181818;stroke-width:1.0;"/><line style="stroke:#181818;stroke-width:1.0;" x1="580" x2="847.5" y1="588.2734" y2="588.2734"/><text fill="#000000" font-family="sans-serif" font-size="13" lengthAdjust="spacing" textLength="67" x="587" y="568.2207">balanceOf(</text><text fill="#000000" font-family="sans-serif" font-size="13" lengthAdjust="spacing" textLength="9" x="587" y="583.5313">?)</text><polygon fill="#181818" points="591,628.8945,581,632.8945,591,636.8945,587,632.8945" style="stroke:#181818;stroke-width:1.0;"/><line style="stroke:#181818;stroke-width:1.0;stroke-dasharray:2.0,2.0;" x1="585" x2="857.5" y1="632.8945" y2="632.8945"/><text fill="#000000" font-family="sans-serif" font-size="13" lengthAdjust="spacing" textLength="4" x="597" y="612.8418">&#160;</text><text fill="#000000" font-family="sans-serif" font-size="13" lengthAdjust="spacing" textLength="5" x="597" y="628.1523">?</text><polygon fill="#181818" points="207.5,704.1367,197.5,708.1367,207.5,712.1367,203.5,708.1367" style="stroke:#181818;stroke-width:1.0;"/><line style="stroke:#181818;stroke-width:1.0;" x1="201.5" x2="569" y1="708.1367" y2="708.1367"/><text fill="#000000" font-family="sans-serif" font-size="13" lengthAdjust="spacing" textLength="158" x="213.5" y="657.4629">uniswapV3SwapCallback(</text><text fill="#000000" font-family="sans-serif" font-size="13" lengthAdjust="spacing" textLength="93" x="213.5" y="672.7734">amount0Delta,</text><text fill="#000000" font-family="sans-serif" font-size="13" lengthAdjust="spacing" textLength="93" x="213.5" y="688.084">amount1Delta,</text><text fill="#000000" font-family="sans-serif" font-size="13" lengthAdjust="spacing" textLength="31" x="213.5" y="703.3945">data)</text><polygon fill="#181818" points="303.5,794.6895,313.5,798.6895,303.5,802.6895,307.5,798.6895" style="stroke:#181818;stroke-width:1.0;"/><line style="stroke:#181818;stroke-width:1.0;" x1="196.5" x2="309.5" y1="798.6895" y2="798.6895"/><text fill="#000000" font-family="sans-serif" font-size="13" lengthAdjust="spacing" textLength="85" x="203.5" y="732.7051">transferFrom(</text><text fill="#000000" font-family="sans-serif" font-size="13" lengthAdjust="spacing" textLength="34" x="203.5" y="748.0156">from,</text><text fill="#000000" font-family="sans-serif" font-size="13" lengthAdjust="spacing" textLength="17" x="203.5" y="763.3262">to,</text><text fill="#000000" font-family="sans-serif" font-size="13" lengthAdjust="spacing" textLength="52" x="203.5" y="778.6367">amount,</text><text fill="#000000" font-family="sans-serif" font-size="13" lengthAdjust="spacing" textLength="40" x="203.5" y="793.9473">token)</text><polygon fill="#181818" points="841.5,869.9316,851.5,873.9316,841.5,877.9316,845.5,873.9316" style="stroke:#181818;stroke-width:1.0;"/><line style="stroke:#181818;stroke-width:1.0;" x1="325.5" x2="847.5" y1="873.9316" y2="873.9316"/><text fill="#000000" font-family="sans-serif" font-size="13" lengthAdjust="spacing" textLength="85" x="332.5" y="823.2578">transferFrom(</text><text fill="#000000" font-family="sans-serif" font-size="13" lengthAdjust="spacing" textLength="23" x="332.5" y="838.5684">src,</text><text fill="#000000" font-family="sans-serif" font-size="13" lengthAdjust="spacing" textLength="24" x="332.5" y="853.8789">dst,</text><text fill="#000000" font-family="sans-serif" font-size="13" lengthAdjust="spacing" textLength="29" x="332.5" y="869.1895">wad)</text><polygon fill="#181818" points="336.5,914.5527,326.5,918.5527,336.5,922.5527,332.5,918.5527" style="stroke:#181818;stroke-width:1.0;"/><line style="stroke:#181818;stroke-width:1.0;stroke-dasharray:2.0,2.0;" x1="330.5" x2="857.5" y1="918.5527" y2="918.5527"/><text fill="#000000" font-family="sans-serif" font-size="13" lengthAdjust="spacing" textLength="4" x="342.5" y="898.5">&#160;</text><text fill="#000000" font-family="sans-serif" font-size="13" lengthAdjust="spacing" textLength="5" x="342.5" y="913.8105">?</text><polygon fill="#181818" points="207.5,928.5527,197.5,932.5527,207.5,936.5527,203.5,932.5527" style="stroke:#181818;stroke-width:1.0;"/><line style="stroke:#181818;stroke-width:1.0;stroke-dasharray:2.0,2.0;" x1="201.5" x2="319.5" y1="932.5527" y2="932.5527"/><polygon fill="#181818" points="558,942.5527,568,946.5527,558,950.5527,562,946.5527" style="stroke:#181818;stroke-width:1.0;"/><line style="stroke:#181818;stroke-width:1.0;stroke-dasharray:2.0,2.0;" x1="191.5" x2="564" y1="946.5527" y2="946.5527"/><polygon fill="#181818" points="841.5,987.1738,851.5,991.1738,841.5,995.1738,845.5,991.1738" style="stroke:#181818;stroke-width:1.0;"/><line style="stroke:#181818;stroke-width:1.0;" x1="580" x2="847.5" y1="991.1738" y2="991.1738"/><text fill="#000000" font-family="sans-serif" font-size="13" lengthAdjust="spacing" textLength="67" x="587" y="971.1211">balanceOf(</text><text fill="#000000" font-family="sans-serif" font-size="13" lengthAdjust="spacing" textLength="9" x="587" y="986.4316">?)</text><polygon fill="#181818" points="591,1031.7949,581,1035.7949,591,1039.7949,587,1035.7949" style="stroke:#181818;stroke-width:1.0;"/><line style="stroke:#181818;stroke-width:1.0;stroke-dasharray:2.0,2.0;" x1="585" x2="857.5" y1="1035.7949" y2="1035.7949"/><text fill="#000000" font-family="sans-serif" font-size="13" lengthAdjust="spacing" textLength="4" x="597" y="1015.7422">&#160;</text><text fill="#000000" font-family="sans-serif" font-size="13" lengthAdjust="spacing" textLength="5" x="597" y="1031.0527">?</text><polygon fill="#181818" points="202.5,1091.7266,192.5,1095.7266,202.5,1099.7266,198.5,1095.7266" style="stroke:#181818;stroke-width:1.0;"/><line style="stroke:#181818;stroke-width:1.0;stroke-dasharray:2.0,2.0;" x1="196.5" x2="574" y1="1095.7266" y2="1095.7266"/><text fill="#000000" font-family="sans-serif" font-size="13" lengthAdjust="spacing" textLength="4" x="208.5" y="1060.3633">&#160;</text><text fill="#000000" font-family="sans-serif" font-size="13" lengthAdjust="spacing" textLength="60" x="208.5" y="1075.6738">amount0,</text><text fill="#000000" font-family="sans-serif" font-size="13" lengthAdjust="spacing" textLength="56" x="208.5" y="1090.9844">amount1</text><polygon fill="#181818" points="974,1197.5898,984,1201.5898,974,1205.5898,978,1201.5898" style="stroke:#181818;stroke-width:1.0;"/><line style="stroke:#181818;stroke-width:1.0;" x1="191.5" x2="980" y1="1201.5898" y2="1201.5898"/><text fill="#000000" font-family="sans-serif" font-size="13" lengthAdjust="spacing" textLength="36" x="198.5" y="1120.2949">swap(</text><text fill="#000000" font-family="sans-serif" font-size="13" lengthAdjust="spacing" textLength="59" x="198.5" y="1135.6055">recipient,</text><text fill="#000000" font-family="sans-serif" font-size="13" lengthAdjust="spacing" textLength="76" x="198.5" y="1150.916">zeroForOne,</text><text fill="#000000" font-family="sans-serif" font-size="13" lengthAdjust="spacing" textLength="109" x="198.5" y="1166.2266">amountSpecified,</text><text fill="#000000" font-family="sans-serif" font-size="13" lengthAdjust="spacing" textLength="115" x="198.5" y="1181.5371">sqrtPriceLimitX96,</text><text fill="#000000" font-family="sans-serif" font-size="13" lengthAdjust="spacing" textLength="31" x="198.5" y="1196.8477">data)</text><polygon fill="#181818" points="1123.5,1257.5215,1133.5,1261.5215,1123.5,1265.5215,1127.5,1261.5215" style="stroke:#181818;stroke-width:1.0;"/><line style="stroke:#181818;stroke-width:1.0;" x1="996" x2="1129.5" y1="1261.5215" y2="1261.5215"/><text fill="#000000" font-family="sans-serif" font-size="13" lengthAdjust="spacing" textLength="53" x="1003" y="1226.1582">transfer(</text><text fill="#000000" font-family="sans-serif" font-size="13" lengthAdjust="spacing" textLength="59" x="1003" y="1241.4688">recipient,</text><text fill="#000000" font-family="sans-serif" font-size="13" lengthAdjust="spacing" textLength="52" x="1003" y="1256.7793">amount)</text><polygon fill="#181818" points="1007,1302.1426,997,1306.1426,1007,1310.1426,1003,1306.1426" style="stroke:#181818;stroke-width:1.0;"/><line style="stroke:#181818;stroke-width:1.0;stroke-dasharray:2.0,2.0;" x1="1001" x2="1139.5" y1="1306.1426" y2="1306.1426"/><text fill="#000000" font-family="sans-serif" font-size="13" lengthAdjust="spacing" textLength="4" x="1013" y="1286.0898">&#160;</text><text fill="#000000" font-family="sans-serif" font-size="13" lengthAdjust="spacing" textLength="5" x="1013" y="1301.4004">?</text><polygon fill="#181818" points="732.5,1346.7637,722.5,1350.7637,732.5,1354.7637,728.5,1350.7637" style="stroke:#181818;stroke-width:1.0;"/><line style="stroke:#181818;stroke-width:1.0;" x1="726.5" x2="985" y1="1350.7637" y2="1350.7637"/><text fill="#000000" font-family="sans-serif" font-size="13" lengthAdjust="spacing" textLength="67" x="738.5" y="1330.7109">balanceOf(</text><text fill="#000000" font-family="sans-serif" font-size="13" lengthAdjust="spacing" textLength="9" x="738.5" y="1346.0215">?)</text><polygon fill="#181818" points="974,1391.3848,984,1395.3848,974,1399.3848,978,1395.3848" style="stroke:#181818;stroke-width:1.0;"/><line style="stroke:#181818;stroke-width:1.0;stroke-dasharray:2.0,2.0;" x1="716.5" x2="980" y1="1395.3848" y2="1395.3848"/><text fill="#000000" font-family="sans-serif" font-size="13" lengthAdjust="spacing" textLength="4" x="723.5" y="1375.332">&#160;</text><text fill="#000000" font-family="sans-serif" font-size="13" lengthAdjust="spacing" textLength="5" x="723.5" y="1390.6426">?</text><polygon fill="#181818" points="207.5,1466.627,197.5,1470.627,207.5,1474.627,203.5,1470.627" style="stroke:#181818;stroke-width:1.0;"/><line style="stroke:#181818;stroke-width:1.0;" x1="201.5" x2="985" y1="1470.627" y2="1470.627"/><text fill="#000000" font-family="sans-serif" font-size="13" lengthAdjust="spacing" textLength="158" x="213.5" y="1419.9531">uniswapV3SwapCallback(</text><text fill="#000000" font-family="sans-serif" font-size="13" lengthAdjust="spacing" textLength="93" x="213.5" y="1435.2637">amount0Delta,</text><text fill="#000000" font-family="sans-serif" font-size="13" lengthAdjust="spacing" textLength="93" x="213.5" y="1450.5742">amount1Delta,</text><text fill="#000000" font-family="sans-serif" font-size="13" lengthAdjust="spacing" textLength="31" x="213.5" y="1465.8848">data)</text><polygon fill="#181818" points="699.5,1526.5586,709.5,1530.5586,699.5,1534.5586,703.5,1530.5586" style="stroke:#181818;stroke-width:1.0;"/><line style="stroke:#181818;stroke-width:1.0;" x1="196.5" x2="705.5" y1="1530.5586" y2="1530.5586"/><text fill="#000000" font-family="sans-serif" font-size="13" lengthAdjust="spacing" textLength="53" x="203.5" y="1495.1953">transfer(</text><text fill="#000000" font-family="sans-serif" font-size="13" lengthAdjust="spacing" textLength="24" x="203.5" y="1510.5059">dst,</text><text fill="#000000" font-family="sans-serif" font-size="13" lengthAdjust="spacing" textLength="29" x="203.5" y="1525.8164">wad)</text><polygon fill="#181818" points="207.5,1571.1797,197.5,1575.1797,207.5,1579.1797,203.5,1575.1797" style="stroke:#181818;stroke-width:1.0;"/><line style="stroke:#181818;stroke-width:1.0;stroke-dasharray:2.0,2.0;" x1="201.5" x2="715.5" y1="1575.1797" y2="1575.1797"/><text fill="#000000" font-family="sans-serif" font-size="13" lengthAdjust="spacing" textLength="4" x="213.5" y="1555.127">&#160;</text><text fill="#000000" font-family="sans-serif" font-size="13" lengthAdjust="spacing" textLength="5" x="213.5" y="1570.4375">?</text><polygon fill="#181818" points="974,1585.1797,984,1589.1797,974,1593.1797,978,1589.1797" style="stroke:#181818;stroke-width:1.0;"/><line style="stroke:#181818;stroke-width:1.0;stroke-dasharray:2.0,2.0;" x1="191.5" x2="980" y1="1589.1797" y2="1589.1797"/><polygon fill="#181818" points="732.5,1629.8008,722.5,1633.8008,732.5,1637.8008,728.5,1633.8008" style="stroke:#181818;stroke-width:1.0;"/><line style="stroke:#181818;stroke-width:1.0;" x1="726.5" x2="985" y1="1633.8008" y2="1633.8008"/><text fill="#000000" font-family="sans-serif" font-size="13" lengthAdjust="spacing" textLength="67" x="738.5" y="1613.748">balanceOf(</text><text fill="#000000" font-family="sans-serif" font-size="13" lengthAdjust="spacing" textLength="9" x="738.5" y="1629.0586">?)</text><polygon fill="#181818" points="974,1674.4219,984,1678.4219,974,1682.4219,978,1678.4219" style="stroke:#181818;stroke-width:1.0;"/><line style="stroke:#181818;stroke-width:1.0;stroke-dasharray:2.0,2.0;" x1="716.5" x2="980" y1="1678.4219" y2="1678.4219"/><text fill="#000000" font-family="sans-serif" font-size="13" lengthAdjust="spacing" textLength="4" x="723.5" y="1658.3691">&#160;</text><text fill="#000000" font-family="sans-serif" font-size="13" lengthAdjust="spacing" textLength="5" x="723.5" y="1673.6797">?</text><polygon fill="#181818" points="202.5,1734.3535,192.5,1738.3535,202.5,1742.3535,198.5,1738.3535" style="stroke:#181818;stroke-width:1.0;"/><line style="stroke:#181818;stroke-width:1.0;stroke-dasharray:2.0,2.0;" x1="196.5" x2="990" y1="1738.3535" y2="1738.3535"/><text fill="#000000" font-family="sans-serif" font-size="13" lengthAdjust="spacing" textLength="4" x="208.5" y="1702.9902">&#160;</text><text fill="#000000" font-family="sans-serif" font-size="13" lengthAdjust="spacing" textLength="60" x="208.5" y="1718.3008">amount0,</text><text fill="#000000" font-family="sans-serif" font-size="13" lengthAdjust="spacing" textLength="56" x="208.5" y="1733.6113">amount1</text><polygon fill="#181818" points="67.5,1748.3535,57.5,1752.3535,67.5,1756.3535,63.5,1752.3535" style="stroke:#181818;stroke-width:1.0;"/><line style="stroke:#181818;stroke-width:1.0;stroke-dasharray:2.0,2.0;" x1="61.5" x2="185.5" y1="1752.3535" y2="1752.3535"/><path d="M272,1765.3535 L272,1882.3535 L369,1882.3535 L369,1775.3535 L359,1765.3535 L272,1765.3535 " fill="#00FFFF" style="stroke:#181818;stroke-width:0.5;"/><path d="M359,1765.3535 L359,1775.3535 L369,1775.3535 L359,1765.3535 " fill="#00FFFF" style="stroke:#181818;stroke-width:0.5;"/><text fill="#000000" font-family="sans-serif" font-size="13" lengthAdjust="spacing" textLength="44" x="278" y="1782.9219">Permit:</text><text fill="#000000" font-family="sans-serif" font-size="13" lengthAdjust="spacing" textLength="42" x="286" y="1798.2324">owner,</text><text fill="#000000" font-family="sans-serif" font-size="13" lengthAdjust="spacing" textLength="40" x="286" y="1813.543">token,</text><text fill="#000000" font-family="sans-serif" font-size="13" lengthAdjust="spacing" textLength="54" x="286" y="1828.8535">spender,</text><text fill="#000000" font-family="sans-serif" font-size="13" lengthAdjust="spacing" textLength="52" x="286" y="1844.1641">amount,</text><text fill="#000000" font-family="sans-serif" font-size="13" lengthAdjust="spacing" textLength="68" x="286" y="1859.4746">expiration,</text><text fill="#000000" font-family="sans-serif" font-size="13" lengthAdjust="spacing" textLength="38" x="286" y="1874.7852">nonce</text><path d="M519,1765.3535 L519,1897.3535 L631,1897.3535 L631,1775.3535 L621,1765.3535 L519,1765.3535 " fill="#00FFFF" style="stroke:#181818;stroke-width:0.5;"/><path d="M621,1765.3535 L621,1775.3535 L631,1775.3535 L621,1765.3535 " fill="#00FFFF" style="stroke:#181818;stroke-width:0.5;"/><text fill="#000000" font-family="sans-serif" font-size="13" lengthAdjust="spacing" textLength="36" x="525" y="1782.9219">Swap:</text><text fill="#000000" font-family="sans-serif" font-size="13" lengthAdjust="spacing" textLength="46" x="533" y="1798.2324">sender,</text><text fill="#000000" font-family="sans-serif" font-size="13" lengthAdjust="spacing" textLength="59" x="533" y="1813.543">recipient,</text><text fill="#000000" font-family="sans-serif" font-size="13" lengthAdjust="spacing" textLength="60" x="533" y="1828.8535">amount0,</text><text fill="#000000" font-family="sans-serif" font-size="13" lengthAdjust="spacing" textLength="60" x="533" y="1844.1641">amount1,</text><text fill="#000000" font-family="sans-serif" font-size="13" lengthAdjust="spacing" textLength="83" x="533" y="1859.4746">sqrtPriceX96,</text><text fill="#000000" font-family="sans-serif" font-size="13" lengthAdjust="spacing" textLength="56" x="533" y="1874.7852">liquidity,</text><text fill="#000000" font-family="sans-serif" font-size="13" lengthAdjust="spacing" textLength="24" x="533" y="1890.0957">tick</text><path d="M678,1765.3535 L678,1897.3535 L755,1897.3535 L755,1775.3535 L745,1765.3535 L678,1765.3535 " fill="#00FFFF" style="stroke:#181818;stroke-width:0.5;"/><path d="M745,1765.3535 L745,1775.3535 L755,1775.3535 L745,1765.3535 " fill="#00FFFF" style="stroke:#181818;stroke-width:0.5;"/><text fill="#000000" font-family="sans-serif" font-size="13" lengthAdjust="spacing" textLength="56" x="684" y="1782.9219">Transfer:</text><text fill="#000000" font-family="sans-serif" font-size="13" lengthAdjust="spacing" textLength="23" x="692" y="1798.2324">src,</text><text fill="#000000" font-family="sans-serif" font-size="13" lengthAdjust="spacing" textLength="24" x="692" y="1813.543">dst,</text><text fill="#000000" font-family="sans-serif" font-size="13" lengthAdjust="spacing" textLength="25" x="692" y="1828.8535">wad</text><text fill="#000000" font-family="sans-serif" font-size="13" lengthAdjust="spacing" textLength="56" x="684" y="1844.1641">Transfer:</text><text fill="#000000" font-family="sans-serif" font-size="13" lengthAdjust="spacing" textLength="23" x="692" y="1859.4746">src,</text><text fill="#000000" font-family="sans-serif" font-size="13" lengthAdjust="spacing" textLength="24" x="692" y="1874.7852">dst,</text><text fill="#000000" font-family="sans-serif" font-size="13" lengthAdjust="spacing" textLength="25" x="692" y="1890.0957">wad</text><path d="M820,1765.3535 L820,1836.3535 L897,1836.3535 L897,1775.3535 L887,1765.3535 L820,1765.3535 " fill="#00FFFF" style="stroke:#181818;stroke-width:0.5;"/><path d="M887,1765.3535 L887,1775.3535 L897,1775.3535 L887,1765.3535 " fill="#00FFFF" style="stroke:#181818;stroke-width:0.5;"/><text fill="#000000" font-family="sans-serif" font-size="13" lengthAdjust="spacing" textLength="56" x="826" y="1782.9219">Transfer:</text><text fill="#000000" font-family="sans-serif" font-size="13" lengthAdjust="spacing" textLength="34" x="834" y="1798.2324">from,</text><text fill="#000000" font-family="sans-serif" font-size="13" lengthAdjust="spacing" textLength="17" x="834" y="1813.543">to,</text><text fill="#000000" font-family="sans-serif" font-size="13" lengthAdjust="spacing" textLength="33" x="834" y="1828.8535">value</text><path d="M1102,1765.3535 L1102,1836.3535 L1179,1836.3535 L1179,1775.3535 L1169,1765.3535 L1102,1765.3535 " fill="#00FFFF" style="stroke:#181818;stroke-width:0.5;"/><path d="M1169,1765.3535 L1169,1775.3535 L1179,1775.3535 L1169,1765.3535 " fill="#00FFFF" style="stroke:#181818;stroke-width:0.5;"/><text fill="#000000" font-family="sans-serif" font-size="13" lengthAdjust="spacing" textLength="56" x="1108" y="1782.9219">Transfer:</text><text fill="#000000" font-family="sans-serif" font-size="13" lengthAdjust="spacing" textLength="34" x="1116" y="1798.2324">from,</text><text fill="#000000" font-family="sans-serif" font-size="13" lengthAdjust="spacing" textLength="17" x="1116" y="1813.543">to,</text><text fill="#000000" font-family="sans-serif" font-size="13" lengthAdjust="spacing" textLength="33" x="1116" y="1828.8535">value</text><!--SRC=[lLPTRzis57tNho2wbnJmD7rOjcG4wKFQT1Wwr4YyjGzvkQAebeXCAXILkFlrkvSsPJcE4Gn1vmUHH-8zz-kGj9Ms4IpQ555PH575iogTHjLqBk8yoNAOyQekIuZvR1hbyog7E4uZgAE2Pr6HYohXKLtZ8my23gsLMh4rIAM4dR2oqVoEnVCiYQTnEc6hNanO4h4_UeL3ah9ukeYAHLQmZt-k0k1M6_OcseYyACDmLkNn6mOT8qY01IqOAxbiGLbQbzQy2CDv3PLRHv00Ep__Iya7OJfehdLlXRcuU6eQuIyCyn9IPqgG09ekXLbBcvmomKSyc10uYYhFnImCCooNMqUGm3QgxX7QlzEbrisn0nubW6bpdZX3WWJGy8k1jXKL-s2_KpBdvsTVFgn-VqipcXJ7N12LUHYASfexBe84A8YRz-nII-Le45mwcYi9TgNlX5eQlVbnp2UcIUhuicrB418uIhvAqomC8OjhjuuW0VHxZL8Gbb7g39rOpQa66CFryfCBORl01O6lC8HWQFol5qDp5qni1CUcdjqghjThK5KtkLLIjRsbIIMWQgGIRqbEyW6i64o3GI38vpk-OArhEDBfHoKCKcnVt4ZrhH48E_bDWUtDcD9R1uDmTfIaY0LkfhoQJhCYcH-QqDV022HJVXZ7vAMoO2GJZCW8hAmKoc8O_mYZhxJvh2WcMEjUsPiMlzTIL1JblR5B8xdu937uhyMCQW4MHa5x-c2G9FhqAbimQq1rjJ3ej-h8uoDK8sk_S1VuhNftmECLjc0bDA2u-5mZqRiHWLznWc3VuDvlanjyNaBJbC3lpdpIqNlHM1Xg47lu9DaNckwJlJ9wZTGr3iXXzS3h44hnfQRlytv2sHa-URwIpnJYK1ElhgkVxIgsBzP1DVmc_aboy_J1S5YWJtyW7CXjx7VhQaJZBKRfZGdt-ZrLdsU4EoRuFtJtcassqyIhSpwjYPs7G6cqr7Xlxg_3N-2-Xs1x9Iu2nhP794xStg19rmeySzsxtSR1cTYqqW3z5o2aD8OOu3967eBWDxRtD4XzwuagJtwwWNIlZS53j9_6BWIlHP8XuaRUzxAIzeSBLFAx4xw72tRhUxLhZVEFcnS7QX4EsACNlZxlOBXrZnsu0yVLaPuFqFIdAZHSeV-Hv5y0]--></g></svg>
