<?xml version="1.0" encoding="us-ascii" standalone="no"?><svg xmlns:xlink="http://www.w3.org/1999/xlink" xmlns="http://www.w3.org/2000/svg" contentStyleType="text/css" height="1867px" preserveAspectRatio="none" style="width:1231px;height:1867px;background:#FFFFFF;" version="1.1" viewBox="0 0 1231 1867" width="1231px" zoomAndPan="magnify"><defs/><g><text fill="#000000" font-family="sans-serif" font-size="14" font-weight="bold" lengthAdjust="spacing" textLength="563" x="333" y="28.5352">0x90b900dc5d340d47e18258a6cdfbba1c64087d8a1130af09c5098ed2c0ff2c08</text><text fill="#000000" font-family="sans-serif" font-size="14" lengthAdjust="spacing" textLength="404" x="412.5" y="1855.2207">mainnet, block 17521413, Tue, 20 Jun 2023 14:09:59 GMT</text><rect fill="#FFFFFF" height="1398.5645" style="stroke:#181818;stroke-width:1.0;" width="10" x="181.5" y="200.6836"/><rect fill="#FFFFFF" height="223.1055" style="stroke:#181818;stroke-width:1.0;" width="10" x="186.5" y="677.5156"/><rect fill="#FFFFFF" height="103.2422" style="stroke:#181818;stroke-width:1.0;" width="10" x="186.5" y="1363.4531"/><rect fill="#FFFFFF" height="57.3105" style="stroke:#181818;stroke-width:1.0;" width="10" x="315.5" y="275.9258"/><rect fill="#FFFFFF" height="118.5527" style="stroke:#181818;stroke-width:1.0;" width="10" x="315.5" y="768.0684"/><rect fill="#FFFFFF" height="14" style="stroke:#181818;stroke-width:1.0;" width="10" x="437" y="305.2363"/><rect fill="#FFFFFF" height="580.0742" style="stroke:#181818;stroke-width:1.0;" width="10" x="570" y="439.0996"/><rect fill="#FFFFFF" height="29.3105" style="stroke:#181818;stroke-width:1.0;" width="10" x="711.5" y="499.0313"/><rect fill="#FFFFFF" height="29.3105" style="stroke:#181818;stroke-width:1.0;" width="10" x="711.5" y="1258.9004"/><rect fill="#FFFFFF" height="29.3105" style="stroke:#181818;stroke-width:1.0;" width="10" x="711.5" y="1423.3848"/><rect fill="#FFFFFF" height="29.3105" style="stroke:#181818;stroke-width:1.0;" width="10" x="711.5" y="1511.3164"/><rect fill="#FFFFFF" height="29.3105" style="stroke:#181818;stroke-width:1.0;" width="10" x="853.5" y="572.9629"/><rect fill="#FFFFFF" height="29.3105" style="stroke:#181818;stroke-width:1.0;" width="10" x="853.5" y="843.3105"/><rect fill="#FFFFFF" height="29.3105" style="stroke:#181818;stroke-width:1.0;" width="10" x="853.5" y="945.2422"/><rect fill="#FFFFFF" height="460.2109" style="stroke:#181818;stroke-width:1.0;" width="10" x="986" y="1125.0371"/><rect fill="#FFFFFF" height="29.3105" style="stroke:#181818;stroke-width:1.0;" width="10" x="1135.5" y="1184.9688"/><line style="stroke:#181818;stroke-width:0.5;stroke-dasharray:5.0,5.0;" x1="56" x2="56" y1="123.4414" y2="1759.7324"/><line style="stroke:#181818;stroke-width:0.5;stroke-dasharray:5.0,5.0;" x1="186" x2="186" y1="123.4414" y2="1759.7324"/><line style="stroke:#181818;stroke-width:0.5;stroke-dasharray:5.0,5.0;" x1="320" x2="320" y1="123.4414" y2="1759.7324"/><line style="stroke:#181818;stroke-width:0.5;stroke-dasharray:5.0,5.0;" x1="442" x2="442" y1="123.4414" y2="1759.7324"/><line style="stroke:#181818;stroke-width:0.5;stroke-dasharray:5.0,5.0;" x1="575" x2="575" y1="123.4414" y2="1759.7324"/><line style="stroke:#181818;stroke-width:0.5;stroke-dasharray:5.0,5.0;" x1="716" x2="716" y1="123.4414" y2="1759.7324"/><line style="stroke:#181818;stroke-width:0.5;stroke-dasharray:5.0,5.0;" x1="858" x2="858" y1="123.4414" y2="1759.7324"/><line style="stroke:#181818;stroke-width:0.5;stroke-dasharray:5.0,5.0;" x1="991" x2="991" y1="123.4414" y2="1759.7324"/><line style="stroke:#181818;stroke-width:0.5;stroke-dasharray:5.0,5.0;" x1="1140" x2="1140" y1="123.4414" y2="1759.7324"/><text fill="#000000" font-family="sans-serif" font-size="14" lengthAdjust="spacing" textLength="97" x="5" y="120.4883">0xe89b..6d81</text><ellipse cx="56.5" cy="55.4531" fill="#E2E2F0" rx="8" ry="8" style="stroke:#181818;stroke-width:0.5;"/><path d="M56.5,63.4531 L56.5,90.4531 M43.5,71.4531 L69.5,71.4531 M56.5,90.4531 L43.5,105.4531 M56.5,90.4531 L69.5,105.4531 " fill="none" style="stroke:#181818;stroke-width:0.5;"/><text fill="#000000" font-family="sans-serif" font-size="14" lengthAdjust="spacing" textLength="97" x="5" y="1772.2676">0xe89b..6d81</text><ellipse cx="56.5" cy="1783.7207" fill="#E2E2F0" rx="8" ry="8" style="stroke:#181818;stroke-width:0.5;"/><path d="M56.5,1791.7207 L56.5,1818.7207 M43.5,1799.7207 L69.5,1799.7207 M56.5,1818.7207 L43.5,1833.7207 M56.5,1818.7207 L69.5,1833.7207 " fill="none" style="stroke:#181818;stroke-width:0.5;"/><rect fill="#E2E2F0" height="46.9766" rx="2.5" ry="2.5" style="stroke:#181818;stroke-width:0.5;" width="137" x="118" y="75.4648"/><text fill="#000000" font-family="sans-serif" font-size="14" font-style="italic" lengthAdjust="spacing" textLength="123" x="125" y="96">&#171;UniversalRouter&#187;</text><text fill="#000000" font-family="sans-serif" font-size="14" lengthAdjust="spacing" textLength="87" x="143" y="112.4883">0x3fc9..7fad</text><rect fill="#E2E2F0" height="46.9766" rx="2.5" ry="2.5" style="stroke:#181818;stroke-width:0.5;" width="137" x="118" y="1758.7324"/><text fill="#000000" font-family="sans-serif" font-size="14" font-style="italic" lengthAdjust="spacing" textLength="123" x="125" y="1779.2676">&#171;UniversalRouter&#187;</text><text fill="#000000" font-family="sans-serif" font-size="14" lengthAdjust="spacing" textLength="87" x="143" y="1795.7559">0x3fc9..7fad</text><rect fill="#E2E2F0" height="46.9766" rx="2.5" ry="2.5" style="stroke:#181818;stroke-width:0.5;" width="111" x="265" y="75.4648"/><text fill="#000000" font-family="sans-serif" font-size="14" font-style="italic" lengthAdjust="spacing" textLength="67" x="287" y="96">&#171;Permit2&#187;</text><text fill="#000000" font-family="sans-serif" font-size="14" lengthAdjust="spacing" textLength="97" x="272" y="112.4883">0x0000..8ba3</text><rect fill="#E2E2F0" height="46.9766" rx="2.5" ry="2.5" style="stroke:#181818;stroke-width:0.5;" width="111" x="265" y="1758.7324"/><text fill="#000000" font-family="sans-serif" font-size="14" font-style="italic" lengthAdjust="spacing" textLength="67" x="287" y="1779.2676">&#171;Permit2&#187;</text><text fill="#000000" font-family="sans-serif" font-size="14" lengthAdjust="spacing" textLength="97" x="272" y="1795.7559">0x0000..8ba3</text><rect fill="#E2E2F0" height="30.4883" rx="2.5" ry="2.5" style="stroke:#181818;stroke-width:0.5;" width="112" x="386" y="91.9531"/><text fill="#000000" font-family="sans-serif" font-size="14" lengthAdjust="spacing" textLength="98" x="393" y="112.4883">0x0000..0001</text><rect fill="#E2E2F0" height="30.4883" rx="2.5" ry="2.5" style="stroke:#181818;stroke-width:0.5;" width="112" x="386" y="1758.7324"/><text fill="#000000" font-family="sans-serif" font-size="14" lengthAdjust="spacing" textLength="98" x="393" y="1779.2676">0x0000..0001</text><rect fill="#E2E2F0" height="46.9766" rx="2.5" ry="2.5" style="stroke:#181818;stroke-width:0.5;" width="134" x="508" y="75.4648"/><text fill="#000000" font-family="sans-serif" font-size="14" font-style="italic" lengthAdjust="spacing" textLength="120" x="515" y="96">&#171;UniswapV3Pool&#187;</text><text fill="#000000" font-family="sans-serif" font-size="14" lengthAdjust="spacing" textLength="97" x="526.5" y="112.4883">0x88e6..5640</text><rect fill="#E2E2F0" height="46.9766" rx="2.5" ry="2.5" style="stroke:#181818;stroke-width:0.5;" width="134" x="508" y="1758.7324"/><text fill="#000000" font-family="sans-serif" font-size="14" font-style="italic" lengthAdjust="spacing" textLength="120" x="515" y="1779.2676">&#171;UniswapV3Pool&#187;</text><text fill="#000000" font-family="sans-serif" font-size="14" lengthAdjust="spacing" textLength="97" x="526.5" y="1795.7559">0x88e6..5640</text><rect fill="#E2E2F0" height="79.9531" rx="2.5" ry="2.5" style="stroke:#181818;stroke-width:0.5;" width="129" x="652" y="42.4883"/><text fill="#000000" font-family="sans-serif" font-size="14" font-style="italic" lengthAdjust="spacing" textLength="115" x="659" y="63.0234">&#171;Wrapped Ether&#187;</text><text fill="#000000" font-family="sans-serif" font-size="14" font-style="italic" lengthAdjust="spacing" textLength="63" x="685" y="79.5117">&#171;(WETH)&#187;</text><text fill="#000000" font-family="sans-serif" font-size="14" font-style="italic" lengthAdjust="spacing" textLength="62" x="685.5" y="96">&#171;WETH9&#187;</text><text fill="#000000" font-family="sans-serif" font-size="14" lengthAdjust="spacing" textLength="91" x="671" y="112.4883">0xc02a..6cc2</text><rect fill="#E2E2F0" height="79.9531" rx="2.5" ry="2.5" style="stroke:#181818;stroke-width:0.5;" width="129" x="652" y="1758.7324"/><text fill="#000000" font-family="sans-serif" font-size="14" font-style="italic" lengthAdjust="spacing" textLength="115" x="659" y="1779.2676">&#171;Wrapped Ether&#187;</text><text fill="#000000" font-family="sans-serif" font-size="14" font-style="italic" lengthAdjust="spacing" textLength="63" x="685" y="1795.7559">&#171;(WETH)&#187;</text><text fill="#000000" font-family="sans-serif" font-size="14" font-style="italic" lengthAdjust="spacing" textLength="62" x="685.5" y="1812.2441">&#171;WETH9&#187;</text><text fill="#000000" font-family="sans-serif" font-size="14" lengthAdjust="spacing" textLength="91" x="671" y="1828.7324">0xc02a..6cc2</text><rect fill="#E2E2F0" height="79.9531" rx="2.5" ry="2.5" style="stroke:#181818;stroke-width:0.5;" width="135" x="791" y="42.4883"/><text fill="#000000" font-family="sans-serif" font-size="14" font-style="italic" lengthAdjust="spacing" textLength="78" x="819.5" y="63.0234">&#171;USD Coin&#187;</text><text fill="#000000" font-family="sans-serif" font-size="14" font-style="italic" lengthAdjust="spacing" textLength="62" x="827.5" y="79.5117">&#171;(USDC)&#187;</text><text fill="#000000" font-family="sans-serif" font-size="14" font-style="italic" lengthAdjust="spacing" textLength="121" x="798" y="96">&#171;FiatTokenProxy&#187;</text><text fill="#000000" font-family="sans-serif" font-size="14" lengthAdjust="spacing" textLength="96" x="810.5" y="112.4883">0xa0b8..eb48</text><rect fill="#E2E2F0" height="79.9531" rx="2.5" ry="2.5" style="stroke:#181818;stroke-width:0.5;" width="135" x="791" y="1758.7324"/><text fill="#000000" font-family="sans-serif" font-size="14" font-style="italic" lengthAdjust="spacing" textLength="78" x="819.5" y="1779.2676">&#171;USD Coin&#187;</text><text fill="#000000" font-family="sans-serif" font-size="14" font-style="italic" lengthAdjust="spacing" textLength="62" x="827.5" y="1795.7559">&#171;(USDC)&#187;</text><text fill="#000000" font-family="sans-serif" font-size="14" font-style="italic" lengthAdjust="spacing" textLength="121" x="798" y="1812.2441">&#171;FiatTokenProxy&#187;</text><text fill="#000000" font-family="sans-serif" font-size="14" lengthAdjust="spacing" textLength="96" x="810.5" y="1828.7324">0xa0b8..eb48</text><rect fill="#E2E2F0" height="30.4883" rx="2.5" ry="2.5" style="stroke:#181818;stroke-width:0.5;" width="110" x="936" y="91.9531"/><text fill="#000000" font-family="sans-serif" font-size="14" lengthAdjust="spacing" textLength="96" x="943" y="112.4883">0xe423..eb45</text><rect fill="#E2E2F0" height="30.4883" rx="2.5" ry="2.5" style="stroke:#181818;stroke-width:0.5;" width="110" x="936" y="1758.7324"/><text fill="#000000" font-family="sans-serif" font-size="14" lengthAdjust="spacing" textLength="96" x="943" y="1779.2676">0xe423..eb45</text><rect fill="#E2E2F0" height="79.9531" rx="2.5" ry="2.5" style="stroke:#181818;stroke-width:0.5;" width="169" x="1056" y="42.4883"/><text fill="#000000" font-family="sans-serif" font-size="14" font-style="italic" lengthAdjust="spacing" textLength="155" x="1063" y="63.0234">&#171;Rocket Pool Protocol&#187;</text><text fill="#000000" font-family="sans-serif" font-size="14" font-style="italic" lengthAdjust="spacing" textLength="48" x="1116.5" y="79.5117">&#171;(RPL)&#187;</text><text fill="#000000" font-family="sans-serif" font-size="14" font-style="italic" lengthAdjust="spacing" textLength="127" x="1077" y="96">&#171;RocketTokenRPL&#187;</text><text fill="#000000" font-family="sans-serif" font-size="14" lengthAdjust="spacing" textLength="93" x="1094" y="112.4883">0xd335..a51f</text><rect fill="#E2E2F0" height="79.9531" rx="2.5" ry="2.5" style="stroke:#181818;stroke-width:0.5;" width="169" x="1056" y="1758.7324"/><text fill="#000000" font-family="sans-serif" font-size="14" font-style="italic" lengthAdjust="spacing" textLength="155" x="1063" y="1779.2676">&#171;Rocket Pool Protocol&#187;</text><text fill="#000000" font-family="sans-serif" font-size="14" font-style="italic" lengthAdjust="spacing" textLength="48" x="1116.5" y="1795.7559">&#171;(RPL)&#187;</text><text fill="#000000" font-family="sans-serif" font-size="14" font-style="italic" lengthAdjust="spacing" textLength="127" x="1077" y="1812.2441">&#171;RocketTokenRPL&#187;</text><text fill="#000000" font-family="sans-serif" font-size="14" lengthAdjust="spacing" textLength="93" x="1094" y="1828.7324">0xd335..a51f</text><rect fill="#FFFFFF" height="1398.5645" style="stroke:#181818;stroke-width:1.0;" width="10" x="181.5" y="200.6836"/><rect fill="#FFFFFF" height="223.1055" style="stroke:#181818;stroke-width:1.0;" width="10" x="186.5" y="677.5156"/><rect fill="#FFFFFF" height="103.2422" style="stroke:#181818;stroke-width:1.0;" width="10" x="186.5" y="1363.4531"/><rect fill="#FFFFFF" height="57.3105" style="stroke:#181818;stroke-width:1.0;" width="10" x="315.5" y="275.9258"/><rect fill="#FFFFFF" height="118.5527" style="stroke:#181818;stroke-width:1.0;" width="10" x="315.5" y="768.0684"/><rect fill="#FFFFFF" height="14" style="stroke:#181818;stroke-width:1.0;" width="10" x="437" y="305.2363"/><rect fill="#FFFFFF" height="580.0742" style="stroke:#181818;stroke-width:1.0;" width="10" x="570" y="439.0996"/><rect fill="#FFFFFF" height="29.3105" style="stroke:#181818;stroke-width:1.0;" width="10" x="711.5" y="499.0313"/><rect fill="#FFFFFF" height="29.3105" style="stroke:#181818;stroke-width:1.0;" width="10" x="711.5" y="1258.9004"/><rect fill="#FFFFFF" height="29.3105" style="stroke:#181818;stroke-width:1.0;" width="10" x="711.5" y="1423.3848"/><rect fill="#FFFFFF" height="29.3105" style="stroke:#181818;stroke-width:1.0;" width="10" x="711.5" y="1511.3164"/><rect fill="#FFFFFF" height="29.3105" style="stroke:#181818;stroke-width:1.0;" width="10" x="853.5" y="572.9629"/><rect fill="#FFFFFF" height="29.3105" style="stroke:#181818;stroke-width:1.0;" width="10" x="853.5" y="843.3105"/><rect fill="#FFFFFF" height="29.3105" style="stroke:#181818;stroke-width:1.0;" width="10" x="853.5" y="945.2422"/><rect fill="#FFFFFF" height="460.2109" style="stroke:#181818;stroke-width:1.0;" width="10" x="986" y="1125.0371"/><rect fill="#FFFFFF" height="29.3105" style="stroke:#181818;stroke-width:1.0;" width="10" x="1135.5" y="1184.9688"/><polygon fill="#181818" points="169.5,196.6836,179.5,200.6836,169.5,204.6836,173.5,200.6836" style="stroke:#181818;stroke-width:1.0;"/><line style="stroke:#181818;stroke-width:1.0;" x1="56.5" x2="175.5" y1="200.6836" y2="200.6836"/><text fill="#000000" font-family="sans-serif" font-size="13" lengthAdjust="spacing" textLength="53" x="63.5" y="150.0098">execute(</text><text fill="#000000" font-family="sans-serif" font-size="13" lengthAdjust="spacing" textLength="73" x="71.5" y="165.3203">commands,</text><text fill="#000000" font-family="sans-serif" font-size="13" lengthAdjust="spacing" textLength="44" x="71.5" y="180.6309">inputs,</text><text fill="#000000" font-family="sans-serif" font-size="13" lengthAdjust="spacing" textLength="57" x="71.5" y="195.9414">deadline)</text><polygon fill="#181818" points="303.5,271.9258,313.5,275.9258,303.5,279.9258,307.5,275.9258" style="stroke:#181818;stroke-width:1.0;"/><line style="stroke:#181818;stroke-width:1.0;" x1="191.5" x2="309.5" y1="275.9258" y2="275.9258"/><text fill="#000000" font-family="sans-serif" font-size="13" lengthAdjust="spacing" textLength="45" x="198.5" y="225.252">permit(</text><text fill="#000000" font-family="sans-serif" font-size="13" lengthAdjust="spacing" textLength="42" x="206.5" y="240.5625">owner,</text><text fill="#000000" font-family="sans-serif" font-size="13" lengthAdjust="spacing" textLength="83" x="206.5" y="255.873">permitSingle,</text><text fill="#000000" font-family="sans-serif" font-size="13" lengthAdjust="spacing" textLength="63" x="206.5" y="271.1836">signature)</text><polygon fill="#181818" points="425,301.2363,435,305.2363,425,309.2363,429,305.2363" style="stroke:#181818;stroke-width:1.0;"/><line style="stroke:#181818;stroke-width:1.0;" x1="325.5" x2="431" y1="305.2363" y2="305.2363"/><text fill="#000000" font-family="sans-serif" font-size="13" lengthAdjust="spacing" textLength="80" x="332.5" y="300.4941">0x8d445927</text><polygon fill="#181818" points="336.5,315.2363,326.5,319.2363,336.5,323.2363,332.5,319.2363" style="stroke:#181818;stroke-width:1.0;"/><line style="stroke:#181818;stroke-width:1.0;stroke-dasharray:2.0,2.0;" x1="330.5" x2="441" y1="319.2363" y2="319.2363"/><polygon fill="#181818" points="202.5,329.2363,192.5,333.2363,202.5,337.2363,198.5,333.2363" style="stroke:#181818;stroke-width:1.0;"/><line style="stroke:#181818;stroke-width:1.0;stroke-dasharray:2.0,2.0;" x1="196.5" x2="319.5" y1="333.2363" y2="333.2363"/><polygon fill="#181818" points="558,435.0996,568,439.0996,558,443.0996,562,439.0996" style="stroke:#181818;stroke-width:1.0;"/><line style="stroke:#181818;stroke-width:1.0;" x1="191.5" x2="564" y1="439.0996" y2="439.0996"/><text fill="#000000" font-family="sans-serif" font-size="13" lengthAdjust="spacing" textLength="36" x="198.5" y="357.8047">swap(</text><text fill="#000000" font-family="sans-serif" font-size="13" lengthAdjust="spacing" textLength="59" x="206.5" y="373.1152">recipient,</text><text fill="#000000" font-family="sans-serif" font-size="13" lengthAdjust="spacing" textLength="76" x="206.5" y="388.4258">zeroForOne,</text><text fill="#000000" font-family="sans-serif" font-size="13" lengthAdjust="spacing" textLength="109" x="206.5" y="403.7363">amountSpecified,</text><text fill="#000000" font-family="sans-serif" font-size="13" lengthAdjust="spacing" textLength="115" x="206.5" y="419.0469">sqrtPriceLimitX96,</text><text fill="#000000" font-family="sans-serif" font-size="13" lengthAdjust="spacing" textLength="31" x="206.5" y="434.3574">data)</text><polygon fill="#181818" points="699.5,495.0313,709.5,499.0313,699.5,503.0313,703.5,499.0313" style="stroke:#181818;stroke-width:1.0;"/><line style="stroke:#181818;stroke-width:1.0;" x1="580" x2="705.5" y1="499.0313" y2="499.0313"/><text fill="#000000" font-family="sans-serif" font-size="13" lengthAdjust="spacing" textLength="53" x="587" y="463.668">transfer(</text><text fill="#000000" font-family="sans-serif" font-size="13" lengthAdjust="spacing" textLength="24" x="595" y="478.9785">dst,</text><text fill="#000000" font-family="sans-serif" font-size="13" lengthAdjust="spacing" textLength="29" x="595" y="494.2891">wad)</text><polygon fill="#181818" points="591,524.3418,581,528.3418,591,532.3418,587,528.3418" style="stroke:#181818;stroke-width:1.0;"/><line style="stroke:#181818;stroke-width:1.0;stroke-dasharray:2.0,2.0;" x1="585" x2="715.5" y1="528.3418" y2="528.3418"/><text fill="#000000" font-family="sans-serif" font-size="13" lengthAdjust="spacing" textLength="5" x="597" y="523.5996">?</text><polygon fill="#181818" points="841.5,568.9629,851.5,572.9629,841.5,576.9629,845.5,572.9629" style="stroke:#181818;stroke-width:1.0;"/><line style="stroke:#181818;stroke-width:1.0;" x1="580" x2="847.5" y1="572.9629" y2="572.9629"/><text fill="#000000" font-family="sans-serif" font-size="13" lengthAdjust="spacing" textLength="67" x="587" y="552.9102">balanceOf(</text><text fill="#000000" font-family="sans-serif" font-size="13" lengthAdjust="spacing" textLength="9" x="595" y="568.2207">?)</text><polygon fill="#181818" points="591,598.2734,581,602.2734,591,606.2734,587,602.2734" style="stroke:#181818;stroke-width:1.0;"/><line style="stroke:#181818;stroke-width:1.0;stroke-dasharray:2.0,2.0;" x1="585" x2="857.5" y1="602.2734" y2="602.2734"/><text fill="#000000" font-family="sans-serif" font-size="13" lengthAdjust="spacing" textLength="5" x="597" y="597.5313">?</text><polygon fill="#181818" points="207.5,673.5156,197.5,677.5156,207.5,681.5156,203.5,677.5156" style="stroke:#181818;stroke-width:1.0;"/><line style="stroke:#181818;stroke-width:1.0;" x1="201.5" x2="569" y1="677.5156" y2="677.5156"/><text fill="#000000" font-family="sans-serif" font-size="13" lengthAdjust="spacing" textLength="158" x="213.5" y="626.8418">uniswapV3SwapCallback(</text><text fill="#000000" font-family="sans-serif" font-size="13" lengthAdjust="spacing" textLength="93" x="221.5" y="642.1523">amount0Delta,</text><text fill="#000000" font-family="sans-serif" font-size="13" lengthAdjust="spacing" textLength="93" x="221.5" y="657.4629">amount1Delta,</text><text fill="#000000" font-family="sans-serif" font-size="13" lengthAdjust="spacing" textLength="31" x="221.5" y="672.7734">data)</text><polygon fill="#181818" points="303.5,764.0684,313.5,768.0684,303.5,772.0684,307.5,768.0684" style="stroke:#181818;stroke-width:1.0;"/><line style="stroke:#181818;stroke-width:1.0;" x1="196.5" x2="309.5" y1="768.0684" y2="768.0684"/><text fill="#000000" font-family="sans-serif" font-size="13" lengthAdjust="spacing" textLength="85" x="203.5" y="702.084">transferFrom(</text><text fill="#000000" font-family="sans-serif" font-size="13" lengthAdjust="spacing" textLength="34" x="211.5" y="717.3945">from,</text><text fill="#000000" font-family="sans-serif" font-size="13" lengthAdjust="spacing" textLength="17" x="211.5" y="732.7051">to,</text><text fill="#000000" font-family="sans-serif" font-size="13" lengthAdjust="spacing" textLength="52" x="211.5" y="748.0156">amount,</text><text fill="#000000" font-family="sans-serif" font-size="13" lengthAdjust="spacing" textLength="40" x="211.5" y="763.3262">token)</text><polygon fill="#181818" points="841.5,839.3105,851.5,843.3105,841.5,847.3105,845.5,843.3105" style="stroke:#181818;stroke-width:1.0;"/><line style="stroke:#181818;stroke-width:1.0;" x1="325.5" x2="847.5" y1="843.3105" y2="843.3105"/><text fill="#000000" font-family="sans-serif" font-size="13" lengthAdjust="spacing" textLength="85" x="332.5" y="792.6367">transferFrom(</text><text fill="#000000" font-family="sans-serif" font-size="13" lengthAdjust="spacing" textLength="23" x="340.5" y="807.9473">src,</text><text fill="#000000" font-family="sans-serif" font-size="13" lengthAdjust="spacing" textLength="24" x="340.5" y="823.2578">dst,</text><text fill="#000000" font-family="sans-serif" font-size="13" lengthAdjust="spacing" textLength="29" x="340.5" y="838.5684">wad)</text><polygon fill="#181818" points="336.5,868.6211,326.5,872.6211,336.5,876.6211,332.5,872.6211" style="stroke:#181818;stroke-width:1.0;"/><line style="stroke:#181818;stroke-width:1.0;stroke-dasharray:2.0,2.0;" x1="330.5" x2="857.5" y1="872.6211" y2="872.6211"/><text fill="#000000" font-family="sans-serif" font-size="13" lengthAdjust="spacing" textLength="5" x="342.5" y="867.8789">?</text><polygon fill="#181818" points="207.5,882.6211,197.5,886.6211,207.5,890.6211,203.5,886.6211" style="stroke:#181818;stroke-width:1.0;"/><line style="stroke:#181818;stroke-width:1.0;stroke-dasharray:2.0,2.0;" x1="201.5" x2="319.5" y1="886.6211" y2="886.6211"/><polygon fill="#181818" points="558,896.6211,568,900.6211,558,904.6211,562,900.6211" style="stroke:#181818;stroke-width:1.0;"/><line style="stroke:#181818;stroke-width:1.0;stroke-dasharray:2.0,2.0;" x1="191.5" x2="564" y1="900.6211" y2="900.6211"/><polygon fill="#181818" points="841.5,941.2422,851.5,945.2422,841.5,949.2422,845.5,945.2422" style="stroke:#181818;stroke-width:1.0;"/><line style="stroke:#181818;stroke-width:1.0;" x1="580" x2="847.5" y1="945.2422" y2="945.2422"/><text fill="#000000" font-family="sans-serif" font-size="13" lengthAdjust="spacing" textLength="67" x="587" y="925.1895">balanceOf(</text><text fill="#000000" font-family="sans-serif" font-size="13" lengthAdjust="spacing" textLength="9" x="595" y="940.5">?)</text><polygon fill="#181818" points="591,970.5527,581,974.5527,591,978.5527,587,974.5527" style="stroke:#181818;stroke-width:1.0;"/><line style="stroke:#181818;stroke-width:1.0;stroke-dasharray:2.0,2.0;" x1="585" x2="857.5" y1="974.5527" y2="974.5527"/><text fill="#000000" font-family="sans-serif" font-size="13" lengthAdjust="spacing" textLength="5" x="597" y="969.8105">?</text><polygon fill="#181818" points="202.5,1015.1738,192.5,1019.1738,202.5,1023.1738,198.5,1019.1738" style="stroke:#181818;stroke-width:1.0;"/><line style="stroke:#181818;stroke-width:1.0;stroke-dasharray:2.0,2.0;" x1="196.5" x2="574" y1="1019.1738" y2="1019.1738"/><text fill="#000000" font-family="sans-serif" font-size="13" lengthAdjust="spacing" textLength="60" x="208.5" y="999.1211">amount0,</text><text fill="#000000" font-family="sans-serif" font-size="13" lengthAdjust="spacing" textLength="56" x="208.5" y="1014.4316">amount1</text><polygon fill="#181818" points="974,1121.0371,984,1125.0371,974,1129.0371,978,1125.0371" style="stroke:#181818;stroke-width:1.0;"/><line style="stroke:#181818;stroke-width:1.0;" x1="191.5" x2="980" y1="1125.0371" y2="1125.0371"/><text fill="#000000" font-family="sans-serif" font-size="13" lengthAdjust="spacing" textLength="36" x="198.5" y="1043.7422">swap(</text><text fill="#000000" font-family="sans-serif" font-size="13" lengthAdjust="spacing" textLength="59" x="206.5" y="1059.0527">recipient,</text><text fill="#000000" font-family="sans-serif" font-size="13" lengthAdjust="spacing" textLength="76" x="206.5" y="1074.3633">zeroForOne,</text><text fill="#000000" font-family="sans-serif" font-size="13" lengthAdjust="spacing" textLength="109" x="206.5" y="1089.6738">amountSpecified,</text><text fill="#000000" font-family="sans-serif" font-size="13" lengthAdjust="spacing" textLength="115" x="206.5" y="1104.9844">sqrtPriceLimitX96,</text><text fill="#000000" font-family="sans-serif" font-size="13" lengthAdjust="spacing" textLength="31" x="206.5" y="1120.2949">data)</text><polygon fill="#181818" points="1123.5,1180.9688,1133.5,1184.9688,1123.5,1188.9688,1127.5,1184.9688" style="stroke:#181818;stroke-width:1.0;"/><line style="stroke:#181818;stroke-width:1.0;" x1="996" x2="1129.5" y1="1184.9688" y2="1184.9688"/><text fill="#000000" font-family="sans-serif" font-size="13" lengthAdjust="spacing" textLength="53" x="1003" y="1149.6055">transfer(</text><text fill="#000000" font-family="sans-serif" font-size="13" lengthAdjust="spacing" textLength="59" x="1011" y="1164.916">recipient,</text><text fill="#000000" font-family="sans-serif" font-size="13" lengthAdjust="spacing" textLength="52" x="1011" y="1180.2266">amount)</text><polygon fill="#181818" points="1007,1210.2793,997,1214.2793,1007,1218.2793,1003,1214.2793" style="stroke:#181818;stroke-width:1.0;"/><line style="stroke:#181818;stroke-width:1.0;stroke-dasharray:2.0,2.0;" x1="1001" x2="1139.5" y1="1214.2793" y2="1214.2793"/><text fill="#000000" font-family="sans-serif" font-size="13" lengthAdjust="spacing" textLength="5" x="1013" y="1209.5371">?</text><polygon fill="#181818" points="732.5,1254.9004,722.5,1258.9004,732.5,1262.9004,728.5,1258.9004" style="stroke:#181818;stroke-width:1.0;"/><line style="stroke:#181818;stroke-width:1.0;" x1="726.5" x2="985" y1="1258.9004" y2="1258.9004"/><text fill="#000000" font-family="sans-serif" font-size="13" lengthAdjust="spacing" textLength="67" x="738.5" y="1238.8477">balanceOf(</text><text fill="#000000" font-family="sans-serif" font-size="13" lengthAdjust="spacing" textLength="9" x="746.5" y="1254.1582">?)</text><polygon fill="#181818" points="974,1284.2109,984,1288.2109,974,1292.2109,978,1288.2109" style="stroke:#181818;stroke-width:1.0;"/><line style="stroke:#181818;stroke-width:1.0;stroke-dasharray:2.0,2.0;" x1="716.5" x2="980" y1="1288.2109" y2="1288.2109"/><text fill="#000000" font-family="sans-serif" font-size="13" lengthAdjust="spacing" textLength="5" x="723.5" y="1283.4688">?</text><polygon fill="#181818" points="207.5,1359.4531,197.5,1363.4531,207.5,1367.4531,203.5,1363.4531" style="stroke:#181818;stroke-width:1.0;"/><line style="stroke:#181818;stroke-width:1.0;" x1="201.5" x2="985" y1="1363.4531" y2="1363.4531"/><text fill="#000000" font-family="sans-serif" font-size="13" lengthAdjust="spacing" textLength="158" x="213.5" y="1312.7793">uniswapV3SwapCallback(</text><text fill="#000000" font-family="sans-serif" font-size="13" lengthAdjust="spacing" textLength="93" x="221.5" y="1328.0898">amount0Delta,</text><text fill="#000000" font-family="sans-serif" font-size="13" lengthAdjust="spacing" textLength="93" x="221.5" y="1343.4004">amount1Delta,</text><text fill="#000000" font-family="sans-serif" font-size="13" lengthAdjust="spacing" textLength="31" x="221.5" y="1358.7109">data)</text><polygon fill="#181818" points="699.5,1419.3848,709.5,1423.3848,699.5,1427.3848,703.5,1423.3848" style="stroke:#181818;stroke-width:1.0;"/><line style="stroke:#181818;stroke-width:1.0;" x1="196.5" x2="705.5" y1="1423.3848" y2="1423.3848"/><text fill="#000000" font-family="sans-serif" font-size="13" lengthAdjust="spacing" textLength="53" x="203.5" y="1388.0215">transfer(</text><text fill="#000000" font-family="sans-serif" font-size="13" lengthAdjust="spacing" textLength="24" x="211.5" y="1403.332">dst,</text><text fill="#000000" font-family="sans-serif" font-size="13" lengthAdjust="spacing" textLength="29" x="211.5" y="1418.6426">wad)</text><polygon fill="#181818" points="207.5,1448.6953,197.5,1452.6953,207.5,1456.6953,203.5,1452.6953" style="stroke:#181818;stroke-width:1.0;"/><line style="stroke:#181818;stroke-width:1.0;stroke-dasharray:2.0,2.0;" x1="201.5" x2="715.5" y1="1452.6953" y2="1452.6953"/><text fill="#000000" font-family="sans-serif" font-size="13" lengthAdjust="spacing" textLength="5" x="213.5" y="1447.9531">?</text><polygon fill="#181818" points="974,1462.6953,984,1466.6953,974,1470.6953,978,1466.6953" style="stroke:#181818;stroke-width:1.0;"/><line style="stroke:#181818;stroke-width:1.0;stroke-dasharray:2.0,2.0;" x1="191.5" x2="980" y1="1466.6953" y2="1466.6953"/><polygon fill="#181818" points="732.5,1507.3164,722.5,1511.3164,732.5,1515.3164,728.5,1511.3164" style="stroke:#181818;stroke-width:1.0;"/><line style="stroke:#181818;stroke-width:1.0;" x1="726.5" x2="985" y1="1511.3164" y2="1511.3164"/><text fill="#000000" font-family="sans-serif" font-size="13" lengthAdjust="spacing" textLength="67" x="738.5" y="1491.2637">balanceOf(</text><text fill="#000000" font-family="sans-serif" font-size="13" lengthAdjust="spacing" textLength="9" x="746.5" y="1506.5742">?)</text><polygon fill="#181818" points="974,1536.627,984,1540.627,974,1544.627,978,1540.627" style="stroke:#181818;stroke-width:1.0;"/><line style="stroke:#181818;stroke-width:1.0;stroke-dasharray:2.0,2.0;" x1="716.5" x2="980" y1="1540.627" y2="1540.627"/><text fill="#000000" font-family="sans-serif" font-size="13" lengthAdjust="spacing" textLength="5" x="723.5" y="1535.8848">?</text><polygon fill="#181818" points="202.5,1581.248,192.5,1585.248,202.5,1589.248,198.5,1585.248" style="stroke:#181818;stroke-width:1.0;"/><line style="stroke:#181818;stroke-width:1.0;stroke-dasharray:2.0,2.0;" x1="196.5" x2="990" y1="1585.248" y2="1585.248"/><text fill="#000000" font-family="sans-serif" font-size="13" lengthAdjust="spacing" textLength="60" x="208.5" y="1565.1953">amount0,</text><text fill="#000000" font-family="sans-serif" font-size="13" lengthAdjust="spacing" textLength="56" x="208.5" y="1580.5059">amount1</text><polygon fill="#181818" points="67.5,1595.248,57.5,1599.248,67.5,1603.248,63.5,1599.248" style="stroke:#181818;stroke-width:1.0;"/><line style="stroke:#181818;stroke-width:1.0;stroke-dasharray:2.0,2.0;" x1="61.5" x2="185.5" y1="1599.248" y2="1599.248"/><path d="M272,1612.248 L272,1729.248 L369,1729.248 L369,1622.248 L359,1612.248 L272,1612.248 " fill="#00FFFF" style="stroke:#181818;stroke-width:0.5;"/><path d="M359,1612.248 L359,1622.248 L369,1622.248 L359,1612.248 " fill="#00FFFF" style="stroke:#181818;stroke-width:0.5;"/><text fill="#000000" font-family="sans-serif" font-size="13" lengthAdjust="spacing" textLength="44" x="278" y="1629.8164">Permit:</text><text fill="#000000" font-family="sans-serif" font-size="13" lengthAdjust="spacing" textLength="42" x="286" y="1645.127">owner,</text><text fill="#000000" font-family="sans-serif" font-size="13" lengthAdjust="spacing" textLength="40" x="286" y="1660.4375">token,</text><text fill="#000000" font-family="sans-serif" font-size="13" lengthAdjust="spacing" textLength="54" x="286" y="1675.748">spender,</text><text fill="#000000" font-family="sans-serif" font-size="13" lengthAdjust="spacing" textLength="52" x="286" y="1691.0586">amount,</text><text fill="#000000" font-family="sans-serif" font-size="13" lengthAdjust="spacing" textLength="68" x="286" y="1706.3691">expiration,</text><text fill="#000000" font-family="sans-serif" font-size="13" lengthAdjust="spacing" textLength="38" x="286" y="1721.6797">nonce</text><path d="M519,1612.248 L519,1744.248 L631,1744.248 L631,1622.248 L621,1612.248 L519,1612.248 " fill="#00FFFF" style="stroke:#181818;stroke-width:0.5;"/><path d="M621,1612.248 L621,1622.248 L631,1622.248 L621,1612.248 " fill="#00FFFF" style="stroke:#181818;stroke-width:0.5;"/><text fill="#000000" font-family="sans-serif" font-size="13" lengthAdjust="spacing" textLength="36" x="525" y="1629.8164">Swap:</text><text fill="#000000" font-family="sans-serif" font-size="13" lengthAdjust="spacing" textLength="46" x="533" y="1645.127">sender,</text><text fill="#000000" font-family="sans-serif" font-size="13" lengthAdjust="spacing" textLength="59" x="533" y="1660.4375">recipient,</text><text fill="#000000" font-family="sans-serif" font-size="13" lengthAdjust="spacing" textLength="60" x="533" y="1675.748">amount0,</text><text fill="#000000" font-family="sans-serif" font-size="13" lengthAdjust="spacing" textLength="60" x="533" y="1691.0586">amount1,</text><text fill="#000000" font-family="sans-serif" font-size="13" lengthAdjust="spacing" textLength="83" x="533" y="1706.3691">sqrtPriceX96,</text><text fill="#000000" font-family="sans-serif" font-size="13" lengthAdjust="spacing" textLength="56" x="533" y="1721.6797">liquidity,</text><text fill="#000000" font-family="sans-serif" font-size="13" lengthAdjust="spacing" textLength="24" x="533" y="1736.9902">tick</text><path d="M678,1612.248 L678,1744.248 L755,1744.248 L755,1622.248 L745,1612.248 L678,1612.248 " fill="#00FFFF" style="stroke:#181818;stroke-width:0.5;"/><path d="M745,1612.248 L745,1622.248 L755,1622.248 L745,1612.248 " fill="#00FFFF" style="stroke:#181818;stroke-width:0.5;"/><text fill="#000000" font-family="sans-serif" font-size="13" lengthAdjust="spacing" textLength="56" x="684" y="1629.8164">Transfer:</text><text fill="#000000" font-family="sans-serif" font-size="13" lengthAdjust="spacing" textLength="23" x="692" y="1645.127">src,</text><text fill="#000000" font-family="sans-serif" font-size="13" lengthAdjust="spacing" textLength="24" x="692" y="1660.4375">dst,</text><text fill="#000000" font-family="sans-serif" font-size="13" lengthAdjust="spacing" textLength="25" x="692" y="1675.748">wad</text><text fill="#000000" font-family="sans-serif" font-size="13" lengthAdjust="spacing" textLength="56" x="684" y="1691.0586">Transfer:</text><text fill="#000000" font-family="sans-serif" font-size="13" lengthAdjust="spacing" textLength="23" x="692" y="1706.3691">src,</text><text fill="#000000" font-family="sans-serif" font-size="13" lengthAdjust="spacing" textLength="24" x="692" y="1721.6797">dst,</text><text fill="#000000" font-family="sans-serif" font-size="13" lengthAdjust="spacing" textLength="25" x="692" y="1736.9902">wad</text><path d="M820,1612.248 L820,1683.248 L897,1683.248 L897,1622.248 L887,1612.248 L820,1612.248 " fill="#00FFFF" style="stroke:#181818;stroke-width:0.5;"/><path d="M887,1612.248 L887,1622.248 L897,1622.248 L887,1612.248 " fill="#00FFFF" style="stroke:#181818;stroke-width:0.5;"/><text fill="#000000" font-family="sans-serif" font-size="13" lengthAdjust="spacing" textLength="56" x="826" y="1629.8164">Transfer:</text><text fill="#000000" font-family="sans-serif" font-size="13" lengthAdjust="spacing" textLength="34" x="834" y="1645.127">from,</text><text fill="#000000" font-family="sans-serif" font-size="13" lengthAdjust="spacing" textLength="17" x="834" y="1660.4375">to,</text><text fill="#000000" font-family="sans-serif" font-size="13" lengthAdjust="spacing" textLength="33" x="834" y="1675.748">value</text><path d="M1102,1612.248 L1102,1683.248 L1179,1683.248 L1179,1622.248 L1169,1612.248 L1102,1612.248 " fill="#00FFFF" style="stroke:#181818;stroke-width:0.5;"/><path d="M1169,1612.248 L1169,1622.248 L1179,1622.248 L1169,1612.248 " fill="#00FFFF" style="stroke:#181818;stroke-width:0.5;"/><text fill="#000000" font-family="sans-serif" font-size="13" lengthAdjust="spacing" textLength="56" x="1108" y="1629.8164">Transfer:</text><text fill="#000000" font-family="sans-serif" font-size="13" lengthAdjust="spacing" textLength="34" x="1116" y="1645.127">from,</text><text fill="#000000" font-family="sans-serif" font-size="13" lengthAdjust="spacing" textLength="17" x="1116" y="1660.4375">to,</text><text fill="#000000" font-family="sans-serif" font-size="13" lengthAdjust="spacing" textLength="33" x="1116" y="1675.748">value</text><!--SRC=[lLPRRzis67tdho2wbnJmL5rjIGZIXxJfCBIeaNZh7lRoYQHQ8ZAfK5JYxjUFf4n9YMe4Gx3wGUQXoNE-ow5epNN3S7Wemge8GqeocgGXJJSiokCiXpMXTLL1HDPfc6ze3b6KX5271Sd28cSq9c5TcqUE485MSodm7hWGJAzmrKXoYwDD5aTfbApmhcSh78VuzrwOhpZ1KLg6HPaL-CEd7GAYfSAlmWFBYoe8rZIFNc7ei8KMODI2qfpm5eIswvAQ546mgO6wTHPQWC_F_n3ydgaEcclPQwOkBfvk3Sqd2F8A4hVLGWlCrYrJUwxZKrlC8ngtMB28Ai_PEWWoKowtpa8BXgYw1sZ_JBPIDai14iPWqYOaTXijjC1i_AAWRHd5x_Ktcypv-TcNzxlVNjkH7HHBBWYhF0XObUQEoq8BR10tx_2bvCBH673fQAuuw9syPMAhvE7xae-bSUBuig4b1bgmI9ucIHO4a4MrMsUX1KRtsbY1QMnJnqP4Is9hO6Autdvq8GmBN11coeI0niR_UZ4sjyJim8XfwjdV0cCYztiGj5jPm4NRws586T262_RQcehVWsOZ0HfjObXztqlSkhOxKlaWc78qm-GD5ryRvYOw_bM0xjMSs7EWqKH7OkkEqXoidAPfLiIRnrlihqWnGoRm-3sFpHkdnDOqBZB5JAKv4ze5ymzJyaggpsA83VQo5_gcDMjgpkWGxvtIMyK9-yXD8dyLww4we66MW1T2erMDkdTVYRK2qTLCkGXeDsW_09qn-CK-ZxUFgBpvIbn10uAmpxNZUZjZy6j-p30rl_T7wCOyBw5fAY2tPrFwuJlMQ9ZL8vecdgJzZ25ysbTAxfr0RGQEHyiP_t76cFOvIqnbM51tYgnELtTPcwUsUNcrZuDZ4KqGn-ezAeu_zV-x8xqG6jypHjs_Ivuuyd44W-ICok-QKfrpJYu_NQobkUSCFy-QBpoHtYilJ_-aLxm44j9ibEO6dYxMN-2k1pHShYNoBrbqF3jsqBLCq67kUBJCY1rQhi3-gx18I1CZCikmLK3e3PwKnZCmADacM9rk99sCCYg4qp1o8NXpMbyQtF2xdbEklxj0ERazeJrUrOFsxjWVfs-EDXgwX5oJdldrnmBZ_RqKSAybLqVxl8UcFrMXyJB-ZoJ_0W00]--></g></svg>
