<?xml version="1.0" encoding="us-ascii" standalone="no"?><svg xmlns:xlink="http://www.w3.org/1999/xlink" xmlns="http://www.w3.org/2000/svg" contentStyleType="text/css" height="1550px" preserveAspectRatio="none" style="width:920px;height:1550px;background:#FFFFFF;" version="1.1" viewBox="0 0 920 1550" width="920px" zoomAndPan="magnify"><defs/><g><text fill="#000000" font-family="sans-serif" font-size="14" font-weight="bold" lengthAdjust="spacing" textLength="546" x="186" y="28.5352">0xc4eaff5ab7bacc93c76433753517c831fe0ff10182da4fc086cdf49ec7ec15b9</text><text fill="#000000" font-family="sans-serif" font-size="14" lengthAdjust="spacing" textLength="404" x="257" y="1538.9414">mainnet, block 17503581, Sun, 18 Jun 2023 02:04:59 GMT</text><rect fill="#FFFFFF" height="14" style="stroke:#181818;stroke-width:1.0;" width="10" x="45.5" y="1226.9688"/><rect fill="#FFFFFF" height="1082.2852" style="stroke:#181818;stroke-width:1.0;" width="10" x="169.5" y="200.6836"/><rect fill="#FFFFFF" height="223.1055" style="stroke:#181818;stroke-width:1.0;" width="10" x="174.5" y="677.5156"/><rect fill="#FFFFFF" height="72.6211" style="stroke:#181818;stroke-width:1.0;" width="10" x="174.5" y="1182.3477"/><rect fill="#FFFFFF" height="57.3105" style="stroke:#181818;stroke-width:1.0;" width="10" x="303.5" y="275.9258"/><rect fill="#FFFFFF" height="118.5527" style="stroke:#181818;stroke-width:1.0;" width="10" x="303.5" y="768.0684"/><rect fill="#FFFFFF" height="14" style="stroke:#181818;stroke-width:1.0;" width="10" x="425" y="305.2363"/><rect fill="#FFFFFF" height="580.0742" style="stroke:#181818;stroke-width:1.0;" width="10" x="558" y="439.0996"/><rect fill="#FFFFFF" height="29.3105" style="stroke:#181818;stroke-width:1.0;" width="10" x="699.5" y="499.0313"/><rect fill="#FFFFFF" height="29.3105" style="stroke:#181818;stroke-width:1.0;" width="10" x="699.5" y="1063.7949"/><rect fill="#FFFFFF" height="131.2422" style="stroke:#181818;stroke-width:1.0;" width="10" x="699.5" y="1137.7266"/><rect fill="#FFFFFF" height="29.3105" style="stroke:#181818;stroke-width:1.0;" width="10" x="841.5" y="572.9629"/><rect fill="#FFFFFF" height="29.3105" style="stroke:#181818;stroke-width:1.0;" width="10" x="841.5" y="843.3105"/><rect fill="#FFFFFF" height="29.3105" style="stroke:#181818;stroke-width:1.0;" width="10" x="841.5" y="945.2422"/><line style="stroke:#181818;stroke-width:0.5;stroke-dasharray:5.0,5.0;" x1="50" x2="50" y1="123.4414" y2="1443.4531"/><line style="stroke:#181818;stroke-width:0.5;stroke-dasharray:5.0,5.0;" x1="174" x2="174" y1="123.4414" y2="1443.4531"/><line style="stroke:#181818;stroke-width:0.5;stroke-dasharray:5.0,5.0;" x1="308" x2="308" y1="123.4414" y2="1443.4531"/><line style="stroke:#181818;stroke-width:0.5;stroke-dasharray:5.0,5.0;" x1="430" x2="430" y1="123.4414" y2="1443.4531"/><line style="stroke:#181818;stroke-width:0.5;stroke-dasharray:5.0,5.0;" x1="563" x2="563" y1="123.4414" y2="1443.4531"/><line style="stroke:#181818;stroke-width:0.5;stroke-dasharray:5.0,5.0;" x1="704" x2="704" y1="123.4414" y2="1443.4531"/><line style="stroke:#181818;stroke-width:0.5;stroke-dasharray:5.0,5.0;" x1="846" x2="846" y1="123.4414" y2="1443.4531"/><text fill="#000000" font-family="sans-serif" font-size="14" lengthAdjust="spacing" textLength="85" x="5" y="120.4883">0xf3f5..4edf</text><ellipse cx="50.5" cy="55.4531" fill="#E2E2F0" rx="8" ry="8" style="stroke:#181818;stroke-width:0.5;"/><path d="M50.5,63.4531 L50.5,90.4531 M37.5,71.4531 L63.5,71.4531 M50.5,90.4531 L37.5,105.4531 M50.5,90.4531 L63.5,105.4531 " fill="none" style="stroke:#181818;stroke-width:0.5;"/><text fill="#000000" font-family="sans-serif" font-size="14" lengthAdjust="spacing" textLength="85" x="5" y="1455.9883">0xf3f5..4edf</text><ellipse cx="50.5" cy="1467.4414" fill="#E2E2F0" rx="8" ry="8" style="stroke:#181818;stroke-width:0.5;"/><path d="M50.5,1475.4414 L50.5,1502.4414 M37.5,1483.4414 L63.5,1483.4414 M50.5,1502.4414 L37.5,1517.4414 M50.5,1502.4414 L63.5,1517.4414 " fill="none" style="stroke:#181818;stroke-width:0.5;"/><rect fill="#E2E2F0" height="46.9766" rx="2.5" ry="2.5" style="stroke:#181818;stroke-width:0.5;" width="137" x="106" y="75.4648"/><text fill="#000000" font-family="sans-serif" font-size="14" font-style="italic" lengthAdjust="spacing" textLength="123" x="113" y="96">&#171;UniversalRouter&#187;</text><text fill="#000000" font-family="sans-serif" font-size="14" lengthAdjust="spacing" textLength="87" x="131" y="112.4883">0x3fc9..7fad</text><rect fill="#E2E2F0" height="46.9766" rx="2.5" ry="2.5" style="stroke:#181818;stroke-width:0.5;" width="137" x="106" y="1442.4531"/><text fill="#000000" font-family="sans-serif" font-size="14" font-style="italic" lengthAdjust="spacing" textLength="123" x="113" y="1462.9883">&#171;UniversalRouter&#187;</text><text fill="#000000" font-family="sans-serif" font-size="14" lengthAdjust="spacing" textLength="87" x="131" y="1479.4766">0x3fc9..7fad</text><rect fill="#E2E2F0" height="46.9766" rx="2.5" ry="2.5" style="stroke:#181818;stroke-width:0.5;" width="111" x="253" y="75.4648"/><text fill="#000000" font-family="sans-serif" font-size="14" font-style="italic" lengthAdjust="spacing" textLength="67" x="275" y="96">&#171;Permit2&#187;</text><text fill="#000000" font-family="sans-serif" font-size="14" lengthAdjust="spacing" textLength="97" x="260" y="112.4883">0x0000..8ba3</text><rect fill="#E2E2F0" height="46.9766" rx="2.5" ry="2.5" style="stroke:#181818;stroke-width:0.5;" width="111" x="253" y="1442.4531"/><text fill="#000000" font-family="sans-serif" font-size="14" font-style="italic" lengthAdjust="spacing" textLength="67" x="275" y="1462.9883">&#171;Permit2&#187;</text><text fill="#000000" font-family="sans-serif" font-size="14" lengthAdjust="spacing" textLength="97" x="260" y="1479.4766">0x0000..8ba3</text><rect fill="#E2E2F0" height="30.4883" rx="2.5" ry="2.5" style="stroke:#181818;stroke-width:0.5;" width="112" x="374" y="91.9531"/><text fill="#000000" font-family="sans-serif" font-size="14" lengthAdjust="spacing" textLength="98" x="381" y="112.4883">0x0000..0001</text><rect fill="#E2E2F0" height="30.4883" rx="2.5" ry="2.5" style="stroke:#181818;stroke-width:0.5;" width="112" x="374" y="1442.4531"/><text fill="#000000" font-family="sans-serif" font-size="14" lengthAdjust="spacing" textLength="98" x="381" y="1462.9883">0x0000..0001</text><rect fill="#E2E2F0" height="46.9766" rx="2.5" ry="2.5" style="stroke:#181818;stroke-width:0.5;" width="134" x="496" y="75.4648"/><text fill="#000000" font-family="sans-serif" font-size="14" font-style="italic" lengthAdjust="spacing" textLength="120" x="503" y="96">&#171;UniswapV3Pool&#187;</text><text fill="#000000" font-family="sans-serif" font-size="14" lengthAdjust="spacing" textLength="97" x="514.5" y="112.4883">0x88e6..5640</text><rect fill="#E2E2F0" height="46.9766" rx="2.5" ry="2.5" style="stroke:#181818;stroke-width:0.5;" width="134" x="496" y="1442.4531"/><text fill="#000000" font-family="sans-serif" font-size="14" font-style="italic" lengthAdjust="spacing" textLength="120" x="503" y="1462.9883">&#171;UniswapV3Pool&#187;</text><text fill="#000000" font-family="sans-serif" font-size="14" lengthAdjust="spacing" textLength="97" x="514.5" y="1479.4766">0x88e6..5640</text><rect fill="#E2E2F0" height="79.9531" rx="2.5" ry="2.5" style="stroke:#181818;stroke-width:0.5;" width="129" x="640" y="42.4883"/><text fill="#000000" font-family="sans-serif" font-size="14" font-style="italic" lengthAdjust="spacing" textLength="115" x="647" y="63.0234">&#171;Wrapped Ether&#187;</text><text fill="#000000" font-family="sans-serif" font-size="14" font-style="italic" lengthAdjust="spacing" textLength="63" x="673" y="79.5117">&#171;(WETH)&#187;</text><text fill="#000000" font-family="sans-serif" font-size="14" font-style="italic" lengthAdjust="spacing" textLength="62" x="673.5" y="96">&#171;WETH9&#187;</text><text fill="#000000" font-family="sans-serif" font-size="14" lengthAdjust="spacing" textLength="91" x="659" y="112.4883">0xc02a..6cc2</text><rect fill="#E2E2F0" height="79.9531" rx="2.5" ry="2.5" style="stroke:#181818;stroke-width:0.5;" width="129" x="640" y="1442.4531"/><text fill="#000000" font-family="sans-serif" font-size="14" font-style="italic" lengthAdjust="spacing" textLength="115" x="647" y="1462.9883">&#171;Wrapped Ether&#187;</text><text fill="#000000" font-family="sans-serif" font-size="14" font-style="italic" lengthAdjust="spacing" textLength="63" x="673" y="1479.4766">&#171;(WETH)&#187;</text><text fill="#000000" font-family="sans-serif" font-size="14" font-style="italic" lengthAdjust="spacing" textLength="62" x="673.5" y="1495.9648">&#171;WETH9&#187;</text><text fill="#000000" font-family="sans-serif" font-size="14" lengthAdjust="spacing" textLength="91" x="659" y="1512.4531">0xc02a..6cc2</text><rect fill="#E2E2F0" height="79.9531" rx="2.5" ry="2.5" style="stroke:#181818;stroke-width:0.5;" width="135" x="779" y="42.4883"/><text fill="#000000" font-family="sans-serif" font-size="14" font-style="italic" lengthAdjust="spacing" textLength="78" x="807.5" y="63.0234">&#171;USD Coin&#187;</text><text fill="#000000" font-family="sans-serif" font-size="14" font-style="italic" lengthAdjust="spacing" textLength="62" x="815.5" y="79.5117">&#171;(USDC)&#187;</text><text fill="#000000" font-family="sans-serif" font-size="14" font-style="italic" lengthAdjust="spacing" textLength="121" x="786" y="96">&#171;FiatTokenProxy&#187;</text><text fill="#000000" font-family="sans-serif" font-size="14" lengthAdjust="spacing" textLength="96" x="798.5" y="112.4883">0xa0b8..eb48</text><rect fill="#E2E2F0" height="79.9531" rx="2.5" ry="2.5" style="stroke:#181818;stroke-width:0.5;" width="135" x="779" y="1442.4531"/><text fill="#000000" font-family="sans-serif" font-size="14" font-style="italic" lengthAdjust="spacing" textLength="78" x="807.5" y="1462.9883">&#171;USD Coin&#187;</text><text fill="#000000" font-family="sans-serif" font-size="14" font-style="italic" lengthAdjust="spacing" textLength="62" x="815.5" y="1479.4766">&#171;(USDC)&#187;</text><text fill="#000000" font-family="sans-serif" font-size="14" font-style="italic" lengthAdjust="spacing" textLength="121" x="786" y="1495.9648">&#171;FiatTokenProxy&#187;</text><text fill="#000000" font-family="sans-serif" font-size="14" lengthAdjust="spacing" textLength="96" x="798.5" y="1512.4531">0xa0b8..eb48</text><rect fill="#FFFFFF" height="14" style="stroke:#181818;stroke-width:1.0;" width="10" x="45.5" y="1226.9688"/><rect fill="#FFFFFF" height="1082.2852" style="stroke:#181818;stroke-width:1.0;" width="10" x="169.5" y="200.6836"/><rect fill="#FFFFFF" height="223.1055" style="stroke:#181818;stroke-width:1.0;" width="10" x="174.5" y="677.5156"/><rect fill="#FFFFFF" height="72.6211" style="stroke:#181818;stroke-width:1.0;" width="10" x="174.5" y="1182.3477"/><rect fill="#FFFFFF" height="57.3105" style="stroke:#181818;stroke-width:1.0;" width="10" x="303.5" y="275.9258"/><rect fill="#FFFFFF" height="118.5527" style="stroke:#181818;stroke-width:1.0;" width="10" x="303.5" y="768.0684"/><rect fill="#FFFFFF" height="14" style="stroke:#181818;stroke-width:1.0;" width="10" x="425" y="305.2363"/><rect fill="#FFFFFF" height="580.0742" style="stroke:#181818;stroke-width:1.0;" width="10" x="558" y="439.0996"/><rect fill="#FFFFFF" height="29.3105" style="stroke:#181818;stroke-width:1.0;" width="10" x="699.5" y="499.0313"/><rect fill="#FFFFFF" height="29.3105" style="stroke:#181818;stroke-width:1.0;" width="10" x="699.5" y="1063.7949"/><rect fill="#FFFFFF" height="131.2422" style="stroke:#181818;stroke-width:1.0;" width="10" x="699.5" y="1137.7266"/><rect fill="#FFFFFF" height="29.3105" style="stroke:#181818;stroke-width:1.0;" width="10" x="841.5" y="572.9629"/><rect fill="#FFFFFF" height="29.3105" style="stroke:#181818;stroke-width:1.0;" width="10" x="841.5" y="843.3105"/><rect fill="#FFFFFF" height="29.3105" style="stroke:#181818;stroke-width:1.0;" width="10" x="841.5" y="945.2422"/><polygon fill="#181818" points="157.5,196.6836,167.5,200.6836,157.5,204.6836,161.5,200.6836" style="stroke:#181818;stroke-width:1.0;"/><line style="stroke:#181818;stroke-width:1.0;" x1="50.5" x2="163.5" y1="200.6836" y2="200.6836"/><text fill="#000000" font-family="sans-serif" font-size="13" lengthAdjust="spacing" textLength="53" x="57.5" y="150.0098">execute(</text><text fill="#000000" font-family="sans-serif" font-size="13" lengthAdjust="spacing" textLength="73" x="65.5" y="165.3203">commands,</text><text fill="#000000" font-family="sans-serif" font-size="13" lengthAdjust="spacing" textLength="44" x="65.5" y="180.6309">inputs,</text><text fill="#000000" font-family="sans-serif" font-size="13" lengthAdjust="spacing" textLength="57" x="65.5" y="195.9414">deadline)</text><polygon fill="#181818" points="291.5,271.9258,301.5,275.9258,291.5,279.9258,295.5,275.9258" style="stroke:#181818;stroke-width:1.0;"/><line style="stroke:#181818;stroke-width:1.0;" x1="179.5" x2="297.5" y1="275.9258" y2="275.9258"/><text fill="#000000" font-family="sans-serif" font-size="13" lengthAdjust="spacing" textLength="45" x="186.5" y="225.252">permit(</text><text fill="#000000" font-family="sans-serif" font-size="13" lengthAdjust="spacing" textLength="42" x="194.5" y="240.5625">owner,</text><text fill="#000000" font-family="sans-serif" font-size="13" lengthAdjust="spacing" textLength="83" x="194.5" y="255.873">permitSingle,</text><text fill="#000000" font-family="sans-serif" font-size="13" lengthAdjust="spacing" textLength="63" x="194.5" y="271.1836">signature)</text><polygon fill="#181818" points="413,301.2363,423,305.2363,413,309.2363,417,305.2363" style="stroke:#181818;stroke-width:1.0;"/><line style="stroke:#181818;stroke-width:1.0;" x1="313.5" x2="419" y1="305.2363" y2="305.2363"/><text fill="#000000" font-family="sans-serif" font-size="13" lengthAdjust="spacing" textLength="78" x="320.5" y="300.4941">0xc4439a51</text><polygon fill="#181818" points="324.5,315.2363,314.5,319.2363,324.5,323.2363,320.5,319.2363" style="stroke:#181818;stroke-width:1.0;"/><line style="stroke:#181818;stroke-width:1.0;stroke-dasharray:2.0,2.0;" x1="318.5" x2="429" y1="319.2363" y2="319.2363"/><polygon fill="#181818" points="190.5,329.2363,180.5,333.2363,190.5,337.2363,186.5,333.2363" style="stroke:#181818;stroke-width:1.0;"/><line style="stroke:#181818;stroke-width:1.0;stroke-dasharray:2.0,2.0;" x1="184.5" x2="307.5" y1="333.2363" y2="333.2363"/><polygon fill="#181818" points="546,435.0996,556,439.0996,546,443.0996,550,439.0996" style="stroke:#181818;stroke-width:1.0;"/><line style="stroke:#181818;stroke-width:1.0;" x1="179.5" x2="552" y1="439.0996" y2="439.0996"/><text fill="#000000" font-family="sans-serif" font-size="13" lengthAdjust="spacing" textLength="36" x="186.5" y="357.8047">swap(</text><text fill="#000000" font-family="sans-serif" font-size="13" lengthAdjust="spacing" textLength="59" x="194.5" y="373.1152">recipient,</text><text fill="#000000" font-family="sans-serif" font-size="13" lengthAdjust="spacing" textLength="76" x="194.5" y="388.4258">zeroForOne,</text><text fill="#000000" font-family="sans-serif" font-size="13" lengthAdjust="spacing" textLength="109" x="194.5" y="403.7363">amountSpecified,</text><text fill="#000000" font-family="sans-serif" font-size="13" lengthAdjust="spacing" textLength="115" x="194.5" y="419.0469">sqrtPriceLimitX96,</text><text fill="#000000" font-family="sans-serif" font-size="13" lengthAdjust="spacing" textLength="31" x="194.5" y="434.3574">data)</text><polygon fill="#181818" points="687.5,495.0313,697.5,499.0313,687.5,503.0313,691.5,499.0313" style="stroke:#181818;stroke-width:1.0;"/><line style="stroke:#181818;stroke-width:1.0;" x1="568" x2="693.5" y1="499.0313" y2="499.0313"/><text fill="#000000" font-family="sans-serif" font-size="13" lengthAdjust="spacing" textLength="53" x="575" y="463.668">transfer(</text><text fill="#000000" font-family="sans-serif" font-size="13" lengthAdjust="spacing" textLength="24" x="583" y="478.9785">dst,</text><text fill="#000000" font-family="sans-serif" font-size="13" lengthAdjust="spacing" textLength="29" x="583" y="494.2891">wad)</text><polygon fill="#181818" points="579,524.3418,569,528.3418,579,532.3418,575,528.3418" style="stroke:#181818;stroke-width:1.0;"/><line style="stroke:#181818;stroke-width:1.0;stroke-dasharray:2.0,2.0;" x1="573" x2="703.5" y1="528.3418" y2="528.3418"/><text fill="#000000" font-family="sans-serif" font-size="13" lengthAdjust="spacing" textLength="5" x="585" y="523.5996">?</text><polygon fill="#181818" points="829.5,568.9629,839.5,572.9629,829.5,576.9629,833.5,572.9629" style="stroke:#181818;stroke-width:1.0;"/><line style="stroke:#181818;stroke-width:1.0;" x1="568" x2="835.5" y1="572.9629" y2="572.9629"/><text fill="#000000" font-family="sans-serif" font-size="13" lengthAdjust="spacing" textLength="67" x="575" y="552.9102">balanceOf(</text><text fill="#000000" font-family="sans-serif" font-size="13" lengthAdjust="spacing" textLength="9" x="583" y="568.2207">?)</text><polygon fill="#181818" points="579,598.2734,569,602.2734,579,606.2734,575,602.2734" style="stroke:#181818;stroke-width:1.0;"/><line style="stroke:#181818;stroke-width:1.0;stroke-dasharray:2.0,2.0;" x1="573" x2="845.5" y1="602.2734" y2="602.2734"/><text fill="#000000" font-family="sans-serif" font-size="13" lengthAdjust="spacing" textLength="5" x="585" y="597.5313">?</text><polygon fill="#181818" points="195.5,673.5156,185.5,677.5156,195.5,681.5156,191.5,677.5156" style="stroke:#181818;stroke-width:1.0;"/><line style="stroke:#181818;stroke-width:1.0;" x1="189.5" x2="557" y1="677.5156" y2="677.5156"/><text fill="#000000" font-family="sans-serif" font-size="13" lengthAdjust="spacing" textLength="158" x="201.5" y="626.8418">uniswapV3SwapCallback(</text><text fill="#000000" font-family="sans-serif" font-size="13" lengthAdjust="spacing" textLength="93" x="209.5" y="642.1523">amount0Delta,</text><text fill="#000000" font-family="sans-serif" font-size="13" lengthAdjust="spacing" textLength="93" x="209.5" y="657.4629">amount1Delta,</text><text fill="#000000" font-family="sans-serif" font-size="13" lengthAdjust="spacing" textLength="31" x="209.5" y="672.7734">data)</text><polygon fill="#181818" points="291.5,764.0684,301.5,768.0684,291.5,772.0684,295.5,768.0684" style="stroke:#181818;stroke-width:1.0;"/><line style="stroke:#181818;stroke-width:1.0;" x1="184.5" x2="297.5" y1="768.0684" y2="768.0684"/><text fill="#000000" font-family="sans-serif" font-size="13" lengthAdjust="spacing" textLength="85" x="191.5" y="702.084">transferFrom(</text><text fill="#000000" font-family="sans-serif" font-size="13" lengthAdjust="spacing" textLength="34" x="199.5" y="717.3945">from,</text><text fill="#000000" font-family="sans-serif" font-size="13" lengthAdjust="spacing" textLength="17" x="199.5" y="732.7051">to,</text><text fill="#000000" font-family="sans-serif" font-size="13" lengthAdjust="spacing" textLength="52" x="199.5" y="748.0156">amount,</text><text fill="#000000" font-family="sans-serif" font-size="13" lengthAdjust="spacing" textLength="40" x="199.5" y="763.3262">token)</text><polygon fill="#181818" points="829.5,839.3105,839.5,843.3105,829.5,847.3105,833.5,843.3105" style="stroke:#181818;stroke-width:1.0;"/><line style="stroke:#181818;stroke-width:1.0;" x1="313.5" x2="835.5" y1="843.3105" y2="843.3105"/><text fill="#000000" font-family="sans-serif" font-size="13" lengthAdjust="spacing" textLength="85" x="320.5" y="792.6367">transferFrom(</text><text fill="#000000" font-family="sans-serif" font-size="13" lengthAdjust="spacing" textLength="23" x="328.5" y="807.9473">src,</text><text fill="#000000" font-family="sans-serif" font-size="13" lengthAdjust="spacing" textLength="24" x="328.5" y="823.2578">dst,</text><text fill="#000000" font-family="sans-serif" font-size="13" lengthAdjust="spacing" textLength="29" x="328.5" y="838.5684">wad)</text><polygon fill="#181818" points="324.5,868.6211,314.5,872.6211,324.5,876.6211,320.5,872.6211" style="stroke:#181818;stroke-width:1.0;"/><line style="stroke:#181818;stroke-width:1.0;stroke-dasharray:2.0,2.0;" x1="318.5" x2="845.5" y1="872.6211" y2="872.6211"/><text fill="#000000" font-family="sans-serif" font-size="13" lengthAdjust="spacing" textLength="5" x="330.5" y="867.8789">?</text><polygon fill="#181818" points="195.5,882.6211,185.5,886.6211,195.5,890.6211,191.5,886.6211" style="stroke:#181818;stroke-width:1.0;"/><line style="stroke:#181818;stroke-width:1.0;stroke-dasharray:2.0,2.0;" x1="189.5" x2="307.5" y1="886.6211" y2="886.6211"/><polygon fill="#181818" points="546,896.6211,556,900.6211,546,904.6211,550,900.6211" style="stroke:#181818;stroke-width:1.0;"/><line style="stroke:#181818;stroke-width:1.0;stroke-dasharray:2.0,2.0;" x1="179.5" x2="552" y1="900.6211" y2="900.6211"/><polygon fill="#181818" points="829.5,941.2422,839.5,945.2422,829.5,949.2422,833.5,945.2422" style="stroke:#181818;stroke-width:1.0;"/><line style="stroke:#181818;stroke-width:1.0;" x1="568" x2="835.5" y1="945.2422" y2="945.2422"/><text fill="#000000" font-family="sans-serif" font-size="13" lengthAdjust="spacing" textLength="67" x="575" y="925.1895">balanceOf(</text><text fill="#000000" font-family="sans-serif" font-size="13" lengthAdjust="spacing" textLength="9" x="583" y="940.5">?)</text><polygon fill="#181818" points="579,970.5527,569,974.5527,579,978.5527,575,974.5527" style="stroke:#181818;stroke-width:1.0;"/><line style="stroke:#181818;stroke-width:1.0;stroke-dasharray:2.0,2.0;" x1="573" x2="845.5" y1="974.5527" y2="974.5527"/><text fill="#000000" font-family="sans-serif" font-size="13" lengthAdjust="spacing" textLength="5" x="585" y="969.8105">?</text><polygon fill="#181818" points="190.5,1015.1738,180.5,1019.1738,190.5,1023.1738,186.5,1019.1738" style="stroke:#181818;stroke-width:1.0;"/><line style="stroke:#181818;stroke-width:1.0;stroke-dasharray:2.0,2.0;" x1="184.5" x2="562" y1="1019.1738" y2="1019.1738"/><text fill="#000000" font-family="sans-serif" font-size="13" lengthAdjust="spacing" textLength="60" x="196.5" y="999.1211">amount0,</text><text fill="#000000" font-family="sans-serif" font-size="13" lengthAdjust="spacing" textLength="56" x="196.5" y="1014.4316">amount1</text><polygon fill="#181818" points="687.5,1059.7949,697.5,1063.7949,687.5,1067.7949,691.5,1063.7949" style="stroke:#181818;stroke-width:1.0;"/><line style="stroke:#181818;stroke-width:1.0;" x1="179.5" x2="693.5" y1="1063.7949" y2="1063.7949"/><text fill="#000000" font-family="sans-serif" font-size="13" lengthAdjust="spacing" textLength="67" x="186.5" y="1043.7422">balanceOf(</text><text fill="#000000" font-family="sans-serif" font-size="13" lengthAdjust="spacing" textLength="9" x="194.5" y="1059.0527">?)</text><polygon fill="#181818" points="190.5,1089.1055,180.5,1093.1055,190.5,1097.1055,186.5,1093.1055" style="stroke:#181818;stroke-width:1.0;"/><line style="stroke:#181818;stroke-width:1.0;stroke-dasharray:2.0,2.0;" x1="184.5" x2="703.5" y1="1093.1055" y2="1093.1055"/><text fill="#000000" font-family="sans-serif" font-size="13" lengthAdjust="spacing" textLength="5" x="196.5" y="1088.3633">?</text><polygon fill="#181818" points="687.5,1133.7266,697.5,1137.7266,687.5,1141.7266,691.5,1137.7266" style="stroke:#181818;stroke-width:1.0;"/><line style="stroke:#181818;stroke-width:1.0;" x1="179.5" x2="693.5" y1="1137.7266" y2="1137.7266"/><text fill="#000000" font-family="sans-serif" font-size="13" lengthAdjust="spacing" textLength="61" x="186.5" y="1117.6738">withdraw(</text><text fill="#000000" font-family="sans-serif" font-size="13" lengthAdjust="spacing" textLength="29" x="194.5" y="1132.9844">wad)</text><polygon fill="#181818" points="195.5,1178.3477,185.5,1182.3477,195.5,1186.3477,191.5,1182.3477" style="stroke:#181818;stroke-width:1.0;"/><line style="stroke:#181818;stroke-width:1.0;" x1="189.5" x2="698.5" y1="1182.3477" y2="1182.3477"/><text fill="#000000" font-family="sans-serif" font-size="13" lengthAdjust="spacing" textLength="58" x="201.5" y="1162.2949">fallback()</text><text fill="#000000" font-family="sans-serif" font-size="13" lengthAdjust="spacing" textLength="65" x="201.5" y="1177.6055">0.032 ETH</text><polygon fill="#181818" points="66.5,1222.9688,56.5,1226.9688,66.5,1230.9688,62.5,1226.9688" style="stroke:#181818;stroke-width:1.0;"/><line style="stroke:#181818;stroke-width:1.0;" x1="60.5" x2="173.5" y1="1226.9688" y2="1226.9688"/><text fill="#000000" font-family="sans-serif" font-size="13" lengthAdjust="spacing" textLength="58" x="72.5" y="1206.916">fallback()</text><text fill="#000000" font-family="sans-serif" font-size="13" lengthAdjust="spacing" textLength="65" x="72.5" y="1222.2266">0.032 ETH</text><polygon fill="#181818" points="162.5,1236.9688,172.5,1240.9688,162.5,1244.9688,166.5,1240.9688" style="stroke:#181818;stroke-width:1.0;"/><line style="stroke:#181818;stroke-width:1.0;stroke-dasharray:2.0,2.0;" x1="50.5" x2="168.5" y1="1240.9688" y2="1240.9688"/><polygon fill="#181818" points="687.5,1250.9688,697.5,1254.9688,687.5,1258.9688,691.5,1254.9688" style="stroke:#181818;stroke-width:1.0;"/><line style="stroke:#181818;stroke-width:1.0;stroke-dasharray:2.0,2.0;" x1="179.5" x2="693.5" y1="1254.9688" y2="1254.9688"/><polygon fill="#181818" points="190.5,1264.9688,180.5,1268.9688,190.5,1272.9688,186.5,1268.9688" style="stroke:#181818;stroke-width:1.0;"/><line style="stroke:#181818;stroke-width:1.0;stroke-dasharray:2.0,2.0;" x1="184.5" x2="703.5" y1="1268.9688" y2="1268.9688"/><polygon fill="#181818" points="61.5,1278.9688,51.5,1282.9688,61.5,1286.9688,57.5,1282.9688" style="stroke:#181818;stroke-width:1.0;"/><line style="stroke:#181818;stroke-width:1.0;stroke-dasharray:2.0,2.0;" x1="55.5" x2="173.5" y1="1282.9688" y2="1282.9688"/><path d="M260,1295.9688 L260,1412.9688 L357,1412.9688 L357,1305.9688 L347,1295.9688 L260,1295.9688 " fill="#00FFFF" style="stroke:#181818;stroke-width:0.5;"/><path d="M347,1295.9688 L347,1305.9688 L357,1305.9688 L347,1295.9688 " fill="#00FFFF" style="stroke:#181818;stroke-width:0.5;"/><text fill="#000000" font-family="sans-serif" font-size="13" lengthAdjust="spacing" textLength="44" x="266" y="1313.5371">Permit:</text><text fill="#000000" font-family="sans-serif" font-size="13" lengthAdjust="spacing" textLength="42" x="274" y="1328.8477">owner,</text><text fill="#000000" font-family="sans-serif" font-size="13" lengthAdjust="spacing" textLength="40" x="274" y="1344.1582">token,</text><text fill="#000000" font-family="sans-serif" font-size="13" lengthAdjust="spacing" textLength="54" x="274" y="1359.4688">spender,</text><text fill="#000000" font-family="sans-serif" font-size="13" lengthAdjust="spacing" textLength="52" x="274" y="1374.7793">amount,</text><text fill="#000000" font-family="sans-serif" font-size="13" lengthAdjust="spacing" textLength="68" x="274" y="1390.0898">expiration,</text><text fill="#000000" font-family="sans-serif" font-size="13" lengthAdjust="spacing" textLength="38" x="274" y="1405.4004">nonce</text><path d="M507,1295.9688 L507,1427.9688 L619,1427.9688 L619,1305.9688 L609,1295.9688 L507,1295.9688 " fill="#00FFFF" style="stroke:#181818;stroke-width:0.5;"/><path d="M609,1295.9688 L609,1305.9688 L619,1305.9688 L609,1295.9688 " fill="#00FFFF" style="stroke:#181818;stroke-width:0.5;"/><text fill="#000000" font-family="sans-serif" font-size="13" lengthAdjust="spacing" textLength="36" x="513" y="1313.5371">Swap:</text><text fill="#000000" font-family="sans-serif" font-size="13" lengthAdjust="spacing" textLength="46" x="521" y="1328.8477">sender,</text><text fill="#000000" font-family="sans-serif" font-size="13" lengthAdjust="spacing" textLength="59" x="521" y="1344.1582">recipient,</text><text fill="#000000" font-family="sans-serif" font-size="13" lengthAdjust="spacing" textLength="60" x="521" y="1359.4688">amount0,</text><text fill="#000000" font-family="sans-serif" font-size="13" lengthAdjust="spacing" textLength="60" x="521" y="1374.7793">amount1,</text><text fill="#000000" font-family="sans-serif" font-size="13" lengthAdjust="spacing" textLength="83" x="521" y="1390.0898">sqrtPriceX96,</text><text fill="#000000" font-family="sans-serif" font-size="13" lengthAdjust="spacing" textLength="56" x="521" y="1405.4004">liquidity,</text><text fill="#000000" font-family="sans-serif" font-size="13" lengthAdjust="spacing" textLength="24" x="521" y="1420.7109">tick</text><path d="M657,1295.9688 L657,1412.9688 L751,1412.9688 L751,1305.9688 L741,1295.9688 L657,1295.9688 " fill="#00FFFF" style="stroke:#181818;stroke-width:0.5;"/><path d="M741,1295.9688 L741,1305.9688 L751,1305.9688 L741,1295.9688 " fill="#00FFFF" style="stroke:#181818;stroke-width:0.5;"/><text fill="#000000" font-family="sans-serif" font-size="13" lengthAdjust="spacing" textLength="56" x="663" y="1313.5371">Transfer:</text><text fill="#000000" font-family="sans-serif" font-size="13" lengthAdjust="spacing" textLength="23" x="671" y="1328.8477">src,</text><text fill="#000000" font-family="sans-serif" font-size="13" lengthAdjust="spacing" textLength="24" x="671" y="1344.1582">dst,</text><text fill="#000000" font-family="sans-serif" font-size="13" lengthAdjust="spacing" textLength="25" x="671" y="1359.4688">wad</text><text fill="#000000" font-family="sans-serif" font-size="13" lengthAdjust="spacing" textLength="73" x="663" y="1374.7793">Withdrawal:</text><text fill="#000000" font-family="sans-serif" font-size="13" lengthAdjust="spacing" textLength="23" x="671" y="1390.0898">src,</text><text fill="#000000" font-family="sans-serif" font-size="13" lengthAdjust="spacing" textLength="25" x="671" y="1405.4004">wad</text><path d="M808,1295.9688 L808,1366.9688 L885,1366.9688 L885,1305.9688 L875,1295.9688 L808,1295.9688 " fill="#00FFFF" style="stroke:#181818;stroke-width:0.5;"/><path d="M875,1295.9688 L875,1305.9688 L885,1305.9688 L875,1295.9688 " fill="#00FFFF" style="stroke:#181818;stroke-width:0.5;"/><text fill="#000000" font-family="sans-serif" font-size="13" lengthAdjust="spacing" textLength="56" x="814" y="1313.5371">Transfer:</text><text fill="#000000" font-family="sans-serif" font-size="13" lengthAdjust="spacing" textLength="34" x="822" y="1328.8477">from,</text><text fill="#000000" font-family="sans-serif" font-size="13" lengthAdjust="spacing" textLength="17" x="822" y="1344.1582">to,</text><text fill="#000000" font-family="sans-serif" font-size="13" lengthAdjust="spacing" textLength="33" x="822" y="1359.4688">value</text><!--SRC=[fLLDKzim4BthLsZe1MPILuxjnF4mSE2ZdKuxC0qjFN3Po19eS2GZooJqrrUIFo5G3it1sIVllbsztMoCC0N3P4jZ1fmdi9glWD95HEUpE8hcIPI4Svf68MU4yv24wJI7c5EIpcZEumMZSqR3PBL0Y49fX99u3K9APYPuLIXwZyDvGg8a3ITuMSi93bFyjPPuIgOH9jECn5com9-_No6WHccyHxOyuaaGn2pdUnWgxA0369MWZQ2Y16cSNyJf8WZc77Blvw03-F3mfnIFJ5TG_52rOVhew6KeiPyWI5SG-L077R2XbqolXPc-5M8VOH_Ym4vLQSfcGP3COkBz77IWgQhQGFahkbIgs4r0oHI2O4Rfr0Sww80DlDPGbYp7P-RENURmSF_wxEhBWRESiTZb0h9AWu2jujHpEUY0As9vYa-Ka9x6WXDFSox0NAbx9Y-rsZvPFjIh_l6eLpR3RCkeLNJ_Hc9CrNeDCgyc3WXPrgOnSmPv8IGxS1qLZs1OJu3w7bdMJlGCbrvpJwesacbFqnmkXRmjc3-enAq4K-inSSU1-WwsnAurcP_gE5f04ZuFSM-HPfPCulvxN5lNjGoxZldADBFo2YQDB-OFq-fSwGlPr0PhLKkpBAqF5onlwdtGvb8Bohu9Uv7VYrcZ3XWONQ1BXFeviTcxrcVOQ90LPzfNa5TDxWta8uREkRl7yJEghlCPNa41ah8BxhcEHmoTp-iCG_FhRdwNzda2HM4NnVt-S7rooWe38pt2uU35jTyPYExQvrgjVG9k3SzZr8Y_FR5Z-zv833BiK5UQJjvMTrURbsFp_sgtHYkYBQ9LxvaumqoyJRqx2gypR8IvopLizlynJVtwUJO2lElwmOqa0OccsEwVTzhQRP9tepl77ObVVYEfhBkoAtxOt1_WeGRKREyCTOi4jVFXZAfaCc_Esl6n5jkMGeFxst98AYiiicxOPK3e4nuozNrkChdVWCjJzQJ3WkWpaC4CVGdTId3RmE92FDGY5-R95ohe_Hkv-sOqkQ_Q6VRvxVYYPdgHRoQwRhiBnUYzU_4wT__ViCljVtLUGlTyXA8UYVCN]--></g></svg>
