<?xml version="1.0" encoding="UTF-8" standalone="no"?><svg xmlns:xlink="http://www.w3.org/1999/xlink" xmlns="http://www.w3.org/2000/svg" contentStyleType="text/css" height="527px" preserveAspectRatio="none" style="width:956px;height:527px;background:#FFFFFF;" version="1.1" viewBox="0 0 956 527" width="956px" zoomAndPan="magnify"><defs/><g><text fill="#000000" font-family="sans-serif" font-size="14" font-weight="bold" lengthAdjust="spacing" textLength="557" x="198" y="28.5352">0x3f019f050e79b3c7fbb5caf67fb3c842cad53e1c993f084836ae60215e3e3370</text><text fill="#000000" font-family="sans-serif" font-size="14" lengthAdjust="spacing" textLength="408" x="272.5" y="515.1055">mainnet, block 17512892, Mon, 19 Jun 2023 09:26:23 GMT</text><line style="stroke:#181818;stroke-width:0.5;stroke-dasharray:5.0,5.0;" x1="115.5" x2="115.5" y1="118.9766" y2="424.082"/><line style="stroke:#181818;stroke-width:0.5;stroke-dasharray:5.0,5.0;" x1="324.5" x2="324.5" y1="118.9766" y2="424.082"/><line style="stroke:#181818;stroke-width:0.5;stroke-dasharray:5.0,5.0;" x1="606.5" x2="606.5" y1="118.9766" y2="424.082"/><line style="stroke:#181818;stroke-width:0.5;stroke-dasharray:5.0,5.0;" x1="836.5" x2="836.5" y1="118.9766" y2="424.082"/><text fill="#000000" font-family="sans-serif" font-size="14" lengthAdjust="spacing" textLength="99" x="63.5" y="116.0234">0x04bD..8287</text><ellipse cx="116" cy="50.9883" fill="#E2E2F0" rx="8" ry="8" style="stroke:#181818;stroke-width:0.5;"/><path d="M116,58.9883 L116,85.9883 M103,66.9883 L129,66.9883 M116,85.9883 L103,100.9883 M116,85.9883 L129,100.9883 " fill="none" style="stroke:#181818;stroke-width:0.5;"/><text fill="#000000" font-family="sans-serif" font-size="14" lengthAdjust="spacing" textLength="99" x="63.5" y="436.6172">0x04bD..8287</text><ellipse cx="116" cy="448.0703" fill="#E2E2F0" rx="8" ry="8" style="stroke:#181818;stroke-width:0.5;"/><path d="M116,456.0703 L116,483.0703 M103,464.0703 L129,464.0703 M116,483.0703 L103,498.0703 M116,483.0703 L129,498.0703 " fill="none" style="stroke:#181818;stroke-width:0.5;"/><rect fill="#E2E2F0" height="46.9766" rx="2.5" ry="2.5" style="stroke:#181818;stroke-width:0.5;" width="137" x="256.5" y="71"/><text fill="#000000" font-family="sans-serif" font-size="14" font-style="italic" lengthAdjust="spacing" textLength="123" x="263.5" y="91.5352">«UniversalRouter»</text><text fill="#000000" font-family="sans-serif" font-size="14" lengthAdjust="spacing" textLength="96" x="277" y="108.0234">0x3fC9..7FAD</text><rect fill="#E2E2F0" height="46.9766" rx="2.5" ry="2.5" style="stroke:#181818;stroke-width:0.5;" width="137" x="256.5" y="423.082"/><text fill="#000000" font-family="sans-serif" font-size="14" font-style="italic" lengthAdjust="spacing" textLength="123" x="263.5" y="443.6172">«UniversalRouter»</text><text fill="#000000" font-family="sans-serif" font-size="14" lengthAdjust="spacing" textLength="96" x="277" y="460.1055">0x3fC9..7FAD</text><rect fill="#E2E2F0" height="63.4648" rx="2.5" ry="2.5" style="stroke:#181818;stroke-width:0.5;" width="129" x="542.5" y="54.5117"/><text fill="#000000" font-family="sans-serif" font-size="14" font-style="italic" lengthAdjust="spacing" textLength="115" x="549.5" y="75.0469">«Wrapped Ether»</text><text fill="#000000" font-family="sans-serif" font-size="14" font-style="italic" lengthAdjust="spacing" textLength="63" x="575.5" y="91.5352">«(WETH)»</text><text fill="#000000" font-family="sans-serif" font-size="14" lengthAdjust="spacing" textLength="97" x="558.5" y="108.0234">0xC02a..6Cc2</text><rect fill="#E2E2F0" height="63.4648" rx="2.5" ry="2.5" style="stroke:#181818;stroke-width:0.5;" width="129" x="542.5" y="423.082"/><text fill="#000000" font-family="sans-serif" font-size="14" font-style="italic" lengthAdjust="spacing" textLength="115" x="549.5" y="443.6172">«Wrapped Ether»</text><text fill="#000000" font-family="sans-serif" font-size="14" font-style="italic" lengthAdjust="spacing" textLength="63" x="575.5" y="460.1055">«(WETH)»</text><text fill="#000000" font-family="sans-serif" font-size="14" lengthAdjust="spacing" textLength="97" x="558.5" y="476.5938">0xC02a..6Cc2</text><rect fill="#E2E2F0" height="46.9766" rx="2.5" ry="2.5" style="stroke:#181818;stroke-width:0.5;" width="134" x="769.5" y="71"/><text fill="#000000" font-family="sans-serif" font-size="14" font-style="italic" lengthAdjust="spacing" textLength="120" x="776.5" y="91.5352">«UniswapV3Pool»</text><text fill="#000000" font-family="sans-serif" font-size="14" lengthAdjust="spacing" textLength="97" x="788" y="108.0234">0x88e6..5640</text><rect fill="#E2E2F0" height="46.9766" rx="2.5" ry="2.5" style="stroke:#181818;stroke-width:0.5;" width="134" x="769.5" y="423.082"/><text fill="#000000" font-family="sans-serif" font-size="14" font-style="italic" lengthAdjust="spacing" textLength="120" x="776.5" y="443.6172">«UniswapV3Pool»</text><text fill="#000000" font-family="sans-serif" font-size="14" lengthAdjust="spacing" textLength="97" x="788" y="460.1055">0x88e6..5640</text><polygon fill="#181818" points="313,146.2871,323,150.2871,313,154.2871,317,150.2871" style="stroke:#181818;stroke-width:1.0;"/><line style="stroke:#181818;stroke-width:1.0;" x1="116" x2="319" y1="150.2871" y2="150.2871"/><text fill="#000000" font-family="sans-serif" font-size="13" lengthAdjust="spacing" textLength="185" x="123" y="145.5449">47.65627911560103873 ETH</text><polygon fill="#181818" points="595,175.5977,605,179.5977,595,183.5977,599,179.5977" style="stroke:#181818;stroke-width:1.0;"/><line style="stroke:#181818;stroke-width:1.0;" x1="325" x2="601" y1="179.5977" y2="179.5977"/><text fill="#000000" font-family="sans-serif" font-size="13" lengthAdjust="spacing" textLength="185" x="332" y="174.8555">47.65627911560103873 ETH</text><polygon fill="#181818" points="336,204.9082,326,208.9082,336,212.9082,332,208.9082" style="stroke:#181818;stroke-width:1.0;"/><ellipse cx="606.5" cy="208.1582" fill="none" rx="4" ry="4" style="stroke:#181818;stroke-width:1.5;"/><line style="stroke:#181818;stroke-width:1.0;" x1="330" x2="602" y1="208.9082" y2="208.9082"/><text fill="#000000" font-family="sans-serif" font-size="13" lengthAdjust="spacing" textLength="249" x="342" y="204.166">Deposit 47.65627911560103873 WETH</text><polygon fill="#181818" points="127,234.2188,117,238.2188,127,242.2188,123,238.2188" style="stroke:#181818;stroke-width:1.0;"/><line style="stroke:#181818;stroke-width:1.0;" x1="121" x2="835.5" y1="238.2188" y2="238.2188"/><text fill="#000000" font-family="sans-serif" font-size="13" lengthAdjust="spacing" textLength="151" x="133" y="233.4766">Transfer 82,000.0 USDC</text><polygon fill="#181818" points="824.5,263.5293,834.5,267.5293,824.5,271.5293,828.5,267.5293" style="stroke:#181818;stroke-width:1.0;"/><line style="stroke:#181818;stroke-width:1.0;" x1="325" x2="830.5" y1="267.5293" y2="267.5293"/><text fill="#000000" font-family="sans-serif" font-size="13" lengthAdjust="spacing" textLength="260" x="332" y="262.7871">Transfer 47.628336242120781963 WETH</text><polygon fill="#181818" points="336,292.8398,326,296.8398,336,300.8398,332,296.8398" style="stroke:#181818;stroke-width:1.0;"/><line style="stroke:#181818;stroke-width:1.0;" x1="330" x2="606" y1="296.8398" y2="296.8398"/><text fill="#000000" font-family="sans-serif" font-size="13" lengthAdjust="spacing" textLength="185" x="342" y="292.0977">0.027942873480256767 ETH</text><line style="stroke:#181818;stroke-width:2.0;" x1="589" x2="599" y1="321.1504" y2="331.1504"/><line style="stroke:#181818;stroke-width:2.0;" x1="589" x2="599" y1="331.1504" y2="321.1504"/><line style="stroke:#181818;stroke-width:1.0;" x1="325" x2="594" y1="326.1504" y2="326.1504"/><text fill="#000000" font-family="sans-serif" font-size="13" lengthAdjust="spacing" textLength="258" x="332" y="321.4082">Withdraw 0.027942873480256767 WETH</text><polygon fill="#181818" points="127,351.4609,117,355.4609,127,359.4609,123,355.4609" style="stroke:#181818;stroke-width:1.0;"/><line style="stroke:#181818;stroke-width:1.0;" x1="121" x2="324" y1="355.4609" y2="355.4609"/><text fill="#000000" font-family="sans-serif" font-size="13" lengthAdjust="spacing" textLength="185" x="133" y="350.7188">0.027942873480256767 ETH</text><path d="M5,368.4609 L5,408.4609 L227,408.4609 L227,378.4609 L217,368.4609 L5,368.4609 " fill="#00FFFF" style="stroke:#181818;stroke-width:0.5;"/><path d="M217,368.4609 L217,378.4609 L227,378.4609 L217,368.4609 " fill="#00FFFF" style="stroke:#181818;stroke-width:0.5;"/><text fill="#000000" font-family="sans-serif" font-size="13" lengthAdjust="spacing" textLength="201" x="11" y="386.0293">-47.628336242120781963 ETH</text><text fill="#000000" font-family="sans-serif" font-size="13" lengthAdjust="spacing" textLength="95" x="11" y="401.3398">82,000.0 USDC</text><path d="M500,368.4609 L500,393.4609 L714,393.4609 L714,378.4609 L704,368.4609 L500,368.4609 " fill="#00FFFF" style="stroke:#181818;stroke-width:0.5;"/><path d="M704,368.4609 L704,378.4609 L714,378.4609 L704,368.4609 " fill="#00FFFF" style="stroke:#181818;stroke-width:0.5;"/><text fill="#000000" font-family="sans-serif" font-size="13" lengthAdjust="spacing" textLength="193" x="506" y="386.0293">47.628336242120781963 ETH</text><path d="M724,368.4609 L724,408.4609 L949,408.4609 L949,378.4609 L939,368.4609 L724,368.4609 " fill="#00FFFF" style="stroke:#181818;stroke-width:0.5;"/><path d="M939,368.4609 L939,378.4609 L949,378.4609 L939,368.4609 " fill="#00FFFF" style="stroke:#181818;stroke-width:0.5;"/><text fill="#000000" font-family="sans-serif" font-size="13" lengthAdjust="spacing" textLength="103" x="730" y="386.0293">-82,000.0 USDC</text><text fill="#000000" font-family="sans-serif" font-size="13" lengthAdjust="spacing" textLength="204" x="730" y="401.3398">47.628336242120781963 WETH</text><!--SRC=[VL9RQzim57xNhpXqBnkacYwsBY44Hj9j30fbIvjdMPQfMIPvZhBcvqzE6gTEtRxfm7SzHx6E6mTapoj2TKLougGkk9LLKUJML28zk5KPiwRCkQDMwuHKcUB2E44OpHrtd4k2a3LDh8E7FwRstiK959jWVmELEMLAimdS1Zy1gk77pWCZZ0FHKoQcwV7jTeMCZQ65Ax8dMR74M34bhy1i8OrbDm1gJ1jhMpV6nmx7guN6M7xziZpWU6Mrh4m9izczh_-vTcisFyCkkdO-lwGk23COYuLb1wfDex2M9UgwDKtZIhY9ZnrnDlkulbbz__HQGYadCCv5HWuItTWDH_VjasaU-5q8cqH4VOFhUPzo2f19d2XCQafpGIZXId98PgXlal2dQE_X-_XXOB1qJTZMSPpNjK9zwCGxXPp2gZL-MxaM59iGGZ21-r_BnI3LYVW2tBamnRbW6QECI4MrUBRfymtx9-KKAakUF5E4vK8AUT5__wB_kewFPMkUnddhoyMT-xnjX90FqK58d-NypJwOlpk3hiVx7BOsM8lp9NGg27s6irgVvAWs3khtSWIzxJXExw_td7YOwvrxz7B_0G00]--></g></svg>
