<?xml version="1.0" encoding="UTF-8" standalone="no"?><svg xmlns:xlink="http://www.w3.org/1999/xlink" xmlns="http://www.w3.org/2000/svg" contentStyleType="text/css" height="444px" preserveAspectRatio="none" style="width:719px;height:444px;background:#FFFFFF;" version="1.1" viewBox="0 0 719 444" width="719px" zoomAndPan="magnify"><defs/><g><text fill="#000000" font-family="sans-serif" font-size="14" font-weight="bold" lengthAdjust="spacing" textLength="555" x="81.25" y="28.5352">0x57d4dadabddcf30b35199837af2614f55d09f0ae4ccf0710cbedee69324f2fa7</text><text fill="#000000" font-family="sans-serif" font-size="14" lengthAdjust="spacing" textLength="396" x="160.75" y="432.1504">mainnet, block 17538866, Fri, 23 Jun 2023 00:57:47 GMT</text><line style="stroke:#181818;stroke-width:0.5;stroke-dasharray:5.0,5.0;" x1="121" x2="121" y1="135.4648" y2="324.6387"/><line style="stroke:#181818;stroke-width:0.5;stroke-dasharray:5.0,5.0;" x1="405.5" x2="405.5" y1="135.4648" y2="324.6387"/><line style="stroke:#181818;stroke-width:0.5;stroke-dasharray:5.0,5.0;" x1="597.5" x2="597.5" y1="135.4648" y2="324.6387"/><text fill="#000000" font-family="sans-serif" font-size="14" font-style="italic" lengthAdjust="spacing" textLength="117" x="60" y="116.0234">«(watchpug.eth)»</text><text fill="#000000" font-family="sans-serif" font-size="14" lengthAdjust="spacing" textLength="94" x="71.5" y="132.5117">0x192b..cc60</text><ellipse cx="121.5" cy="50.9883" fill="#E2E2F0" rx="8" ry="8" style="stroke:#181818;stroke-width:0.5;"/><path d="M121.5,58.9883 L121.5,85.9883 M108.5,66.9883 L134.5,66.9883 M121.5,85.9883 L108.5,100.9883 M121.5,85.9883 L134.5,100.9883 " fill="none" style="stroke:#181818;stroke-width:0.5;"/><text fill="#000000" font-family="sans-serif" font-size="14" font-style="italic" lengthAdjust="spacing" textLength="117" x="60" y="337.1738">«(watchpug.eth)»</text><text fill="#000000" font-family="sans-serif" font-size="14" lengthAdjust="spacing" textLength="94" x="71.5" y="353.6621">0x192b..cc60</text><ellipse cx="121.5" cy="365.1152" fill="#E2E2F0" rx="8" ry="8" style="stroke:#181818;stroke-width:0.5;"/><path d="M121.5,373.1152 L121.5,400.1152 M108.5,381.1152 L134.5,381.1152 M121.5,400.1152 L108.5,415.1152 M121.5,400.1152 L134.5,415.1152 " fill="none" style="stroke:#181818;stroke-width:0.5;"/><rect fill="#E2E2F0" height="46.9766" rx="2.5" ry="2.5" style="stroke:#181818;stroke-width:0.5;" width="134" x="338.5" y="87.4883"/><text fill="#000000" font-family="sans-serif" font-size="14" font-style="italic" lengthAdjust="spacing" textLength="120" x="345.5" y="108.0234">«UniswapV3Pool»</text><text fill="#000000" font-family="sans-serif" font-size="14" lengthAdjust="spacing" textLength="97" x="357" y="124.5117">0x88e6..5640</text><rect fill="#E2E2F0" height="46.9766" rx="2.5" ry="2.5" style="stroke:#181818;stroke-width:0.5;" width="134" x="338.5" y="323.6387"/><text fill="#000000" font-family="sans-serif" font-size="14" font-style="italic" lengthAdjust="spacing" textLength="120" x="345.5" y="344.1738">«UniswapV3Pool»</text><text fill="#000000" font-family="sans-serif" font-size="14" lengthAdjust="spacing" textLength="97" x="357" y="360.6621">0x88e6..5640</text><rect fill="#E2E2F0" height="63.4648" rx="2.5" ry="2.5" style="stroke:#181818;stroke-width:0.5;" width="231" x="482.5" y="71"/><text fill="#000000" font-family="sans-serif" font-size="14" font-style="italic" lengthAdjust="spacing" textLength="217" x="489.5" y="91.5352">«Uniswap V3 Positions NFT-V1»</text><text fill="#000000" font-family="sans-serif" font-size="14" font-style="italic" lengthAdjust="spacing" textLength="109" x="543.5" y="108.0234">«(UNI-V3-POS)»</text><text fill="#000000" font-family="sans-serif" font-size="14" lengthAdjust="spacing" textLength="97" x="549.5" y="124.5117">0xC364..FE88</text><rect fill="#E2E2F0" height="63.4648" rx="2.5" ry="2.5" style="stroke:#181818;stroke-width:0.5;" width="231" x="482.5" y="323.6387"/><text fill="#000000" font-family="sans-serif" font-size="14" font-style="italic" lengthAdjust="spacing" textLength="217" x="489.5" y="344.1738">«Uniswap V3 Positions NFT-V1»</text><text fill="#000000" font-family="sans-serif" font-size="14" font-style="italic" lengthAdjust="spacing" textLength="109" x="543.5" y="360.6621">«(UNI-V3-POS)»</text><text fill="#000000" font-family="sans-serif" font-size="14" lengthAdjust="spacing" textLength="97" x="549.5" y="377.1504">0xC364..FE88</text><polygon fill="#181818" points="393.5,162.7754,403.5,166.7754,393.5,170.7754,397.5,166.7754" style="stroke:#181818;stroke-width:1.0;"/><line style="stroke:#181818;stroke-width:1.0;" x1="121.5" x2="399.5" y1="166.7754" y2="166.7754"/><text fill="#000000" font-family="sans-serif" font-size="13" lengthAdjust="spacing" textLength="183" x="128.5" y="162.0332">Transfer 1,655.023202 USDC</text><polygon fill="#181818" points="393.5,192.0859,403.5,196.0859,393.5,200.0859,397.5,196.0859" style="stroke:#181818;stroke-width:1.0;"/><line style="stroke:#181818;stroke-width:1.0;" x1="121.5" x2="399.5" y1="196.0859" y2="196.0859"/><text fill="#000000" font-family="sans-serif" font-size="13" lengthAdjust="spacing" textLength="260" x="128.5" y="191.3438">Transfer 17.597832323497058897 WETH</text><polygon fill="#181818" points="132.5,221.3965,122.5,225.3965,132.5,229.3965,128.5,225.3965" style="stroke:#181818;stroke-width:1.0;"/><ellipse cx="597.5" cy="224.6465" fill="none" rx="4" ry="4" style="stroke:#181818;stroke-width:1.5;"/><line style="stroke:#181818;stroke-width:1.0;" x1="126.5" x2="593" y1="225.3965" y2="225.3965"/><text fill="#000000" font-family="sans-serif" font-size="13" lengthAdjust="spacing" textLength="203" x="138.5" y="220.6543">Transfer UNI-V3-POS id 528722</text><path d="M5,238.3965 L5,309.3965 L238,309.3965 L238,248.3965 L228,238.3965 L5,238.3965 " fill="#00FFFF" style="stroke:#181818;stroke-width:0.5;"/><path d="M228,238.3965 L228,248.3965 L238,248.3965 L228,238.3965 " fill="#00FFFF" style="stroke:#181818;stroke-width:0.5;"/><text fill="#000000" font-family="sans-serif" font-size="13" lengthAdjust="spacing" textLength="135" x="11" y="255.9648">-1,655.023202 USDC</text><text fill="#000000" font-family="sans-serif" font-size="13" lengthAdjust="spacing" textLength="212" x="11" y="271.2754">-17.597832323497058897 WETH</text><text fill="#000000" font-family="sans-serif" font-size="13" lengthAdjust="spacing" textLength="79" x="11" y="286.5859">UNI-V3-POS</text><text fill="#000000" font-family="sans-serif" font-size="13" lengthAdjust="spacing" textLength="58" x="19" y="301.8965">+528722</text><path d="M293,238.3965 L293,278.3965 L518,278.3965 L518,248.3965 L508,238.3965 L293,238.3965 " fill="#00FFFF" style="stroke:#181818;stroke-width:0.5;"/><path d="M508,238.3965 L508,248.3965 L518,248.3965 L508,238.3965 " fill="#00FFFF" style="stroke:#181818;stroke-width:0.5;"/><text fill="#000000" font-family="sans-serif" font-size="13" lengthAdjust="spacing" textLength="127" x="299" y="255.9648">1,655.023202 USDC</text><text fill="#000000" font-family="sans-serif" font-size="13" lengthAdjust="spacing" textLength="204" x="299" y="271.2754">17.597832323497058897 WETH</text><!--SRC=[XP5RRzCm68Rl_Ii-ZHiGZN7i-91goirOEKXibTQMQyS7Pb6SaBXiFtynPUca3RZpA_bv3tOAQU-0t7DfAwkjRgqrdf6MyRAk5PFQKr5MddDBQa-qgupnH9R4jCuw9sf6Aq-zbWWPtQVGHVYXGumkBQ3TT-Oxb98pfOHOm6e82w0CFXyYK38T25bokQmaVFYoGTgaRe0pSb_MjCNO647EG8-GPHPmVlxwJYTpsn- -OPTktpGDwlMGWWczZYcJIZc1CHVLaSmoYudSnZ3UwNx7rbstVmvUC55XlBfKwZTe9kcTKYSGTWpMtHZom16kLfjYLpRDr6XxzQdOiM9zVPFxeBbiqSpnIzWCEexU3L0k1ETucZxDX-tD-ul_0XBpMYes4Qog9U5ArHA-Ncu-ehbaDw6FDa_GKpC85ZXLabA4KEoIW-vNzdwCVgL_7ZGgdfSh_X5_iaS0R__OksWX1o3q3av1ypySWrvuXB_7lEmuRpywpfSU0000]--></g></svg>
