<?xml version="1.0" encoding="us-ascii" standalone="no"?><svg xmlns:xlink="http://www.w3.org/1999/xlink" xmlns="http://www.w3.org/2000/svg" contentStyleType="text/css" height="380px" preserveAspectRatio="none" style="width:698px;height:380px;background:#FFFFFF;" version="1.1" viewBox="0 0 698 380" width="698px" zoomAndPan="magnify"><defs/><g><text fill="#000000" font-family="sans-serif" font-size="14" font-weight="bold" lengthAdjust="spacing" textLength="574" x="60.5" y="28.5352">0x5f99937fc8bcb99c1362d01006e6c48402c885b2e23830a8bb53242d394b2290</text><text fill="#000000" font-family="sans-serif" font-size="14" lengthAdjust="spacing" textLength="408" x="143.5" y="368.5527">mainnet, block 11925431, Thu, 25 Feb 2021 09:08:12 GMT</text><line style="stroke:#181818;stroke-width:0.5;stroke-dasharray:5.0,5.0;" x1="115.5" x2="115.5" y1="118.9766" y2="277.5293"/><line style="stroke:#181818;stroke-width:0.5;stroke-dasharray:5.0,5.0;" x1="343.5" x2="343.5" y1="118.9766" y2="277.5293"/><line style="stroke:#181818;stroke-width:0.5;stroke-dasharray:5.0,5.0;" x1="575.5" x2="575.5" y1="118.9766" y2="277.5293"/><text fill="#000000" font-family="sans-serif" font-size="14" lengthAdjust="spacing" textLength="93" x="66.5" y="116.0234">0x1f0a..8202</text><ellipse cx="116" cy="50.9883" fill="#E2E2F0" rx="8" ry="8" style="stroke:#181818;stroke-width:0.5;"/><path d="M116,58.9883 L116,85.9883 M103,66.9883 L129,66.9883 M116,85.9883 L103,100.9883 M116,85.9883 L129,100.9883 " fill="none" style="stroke:#181818;stroke-width:0.5;"/><text fill="#000000" font-family="sans-serif" font-size="14" lengthAdjust="spacing" textLength="93" x="66.5" y="290.0645">0x1f0a..8202</text><ellipse cx="116" cy="301.5176" fill="#E2E2F0" rx="8" ry="8" style="stroke:#181818;stroke-width:0.5;"/><path d="M116,309.5176 L116,336.5176 M103,317.5176 L129,317.5176 M116,336.5176 L103,351.5176 M116,336.5176 L129,351.5176 " fill="none" style="stroke:#181818;stroke-width:0.5;"/><rect fill="#E2E2F0" height="63.4648" rx="2.5" ry="2.5" style="stroke:#181818;stroke-width:0.5;" width="111" x="288.5" y="54.5117"/><text fill="#000000" font-family="sans-serif" font-size="14" font-style="italic" lengthAdjust="spacing" textLength="94" x="297" y="75.0469">&#171;Uniswap V1&#187;</text><text fill="#000000" font-family="sans-serif" font-size="14" font-style="italic" lengthAdjust="spacing" textLength="74" x="307" y="91.5352">&#171;(UNI-V1)&#187;</text><text fill="#000000" font-family="sans-serif" font-size="14" lengthAdjust="spacing" textLength="97" x="295.5" y="108.0234">0x97de..8126</text><rect fill="#E2E2F0" height="63.4648" rx="2.5" ry="2.5" style="stroke:#181818;stroke-width:0.5;" width="111" x="288.5" y="276.5293"/><text fill="#000000" font-family="sans-serif" font-size="14" font-style="italic" lengthAdjust="spacing" textLength="94" x="297" y="297.0645">&#171;Uniswap V1&#187;</text><text fill="#000000" font-family="sans-serif" font-size="14" font-style="italic" lengthAdjust="spacing" textLength="74" x="307" y="313.5527">&#171;(UNI-V1)&#187;</text><text fill="#000000" font-family="sans-serif" font-size="14" lengthAdjust="spacing" textLength="97" x="295.5" y="330.041">0x97de..8126</text><rect fill="#E2E2F0" height="63.4648" rx="2.5" ry="2.5" style="stroke:#181818;stroke-width:0.5;" width="111" x="520.5" y="54.5117"/><text fill="#000000" font-family="sans-serif" font-size="14" font-style="italic" lengthAdjust="spacing" textLength="94" x="529" y="75.0469">&#171;Uniswap V1&#187;</text><text fill="#000000" font-family="sans-serif" font-size="14" font-style="italic" lengthAdjust="spacing" textLength="74" x="539" y="91.5352">&#171;(UNI-V1)&#187;</text><text fill="#000000" font-family="sans-serif" font-size="14" lengthAdjust="spacing" textLength="97" x="527.5" y="108.0234">0x9a7A..a621</text><rect fill="#E2E2F0" height="63.4648" rx="2.5" ry="2.5" style="stroke:#181818;stroke-width:0.5;" width="111" x="520.5" y="276.5293"/><text fill="#000000" font-family="sans-serif" font-size="14" font-style="italic" lengthAdjust="spacing" textLength="94" x="529" y="297.0645">&#171;Uniswap V1&#187;</text><text fill="#000000" font-family="sans-serif" font-size="14" font-style="italic" lengthAdjust="spacing" textLength="74" x="539" y="313.5527">&#171;(UNI-V1)&#187;</text><text fill="#000000" font-family="sans-serif" font-size="14" lengthAdjust="spacing" textLength="97" x="527.5" y="330.041">0x9a7A..a621</text><polygon fill="#181818" points="332,146.2871,342,150.2871,332,154.2871,336,150.2871" style="stroke:#181818;stroke-width:1.0;"/><line style="stroke:#181818;stroke-width:1.0;" x1="116" x2="338" y1="150.2871" y2="150.2871"/><text fill="#000000" font-family="sans-serif" font-size="13" lengthAdjust="spacing" textLength="115" x="123" y="145.5449">Transfer 1.0 USDC</text><polygon fill="#181818" points="564,175.5977,574,179.5977,564,183.5977,568,179.5977" style="stroke:#181818;stroke-width:1.0;"/><line style="stroke:#181818;stroke-width:1.0;" x1="344" x2="570" y1="179.5977" y2="179.5977"/><text fill="#000000" font-family="sans-serif" font-size="13" lengthAdjust="spacing" textLength="185" x="351" y="174.8555">0.000623714973654422 ETH</text><polygon fill="#181818" points="127,204.9082,117,208.9082,127,212.9082,123,208.9082" style="stroke:#181818;stroke-width:1.0;"/><line style="stroke:#181818;stroke-width:1.0;" x1="121" x2="575" y1="208.9082" y2="208.9082"/><text fill="#000000" font-family="sans-serif" font-size="13" lengthAdjust="spacing" textLength="257" x="133" y="204.166">Transfer 1.153276530029763101 MATIC</text><path d="M5,221.9082 L5,261.9082 L227,261.9082 L227,231.9082 L217,221.9082 L5,221.9082 " fill="#00FFFF" style="stroke:#181818;stroke-width:0.5;"/><path d="M217,221.9082 L217,231.9082 L227,231.9082 L217,221.9082 " fill="#00FFFF" style="stroke:#181818;stroke-width:0.5;"/><text fill="#000000" font-family="sans-serif" font-size="13" lengthAdjust="spacing" textLength="67" x="11" y="239.4766">-1.0 USDC</text><text fill="#000000" font-family="sans-serif" font-size="13" lengthAdjust="spacing" textLength="201" x="11" y="254.7871">1.153276530029763101 MATIC</text><path d="M237,221.9082 L237,261.9082 L451,261.9082 L451,231.9082 L441,221.9082 L237,221.9082 " fill="#00FFFF" style="stroke:#181818;stroke-width:0.5;"/><path d="M441,221.9082 L441,231.9082 L451,231.9082 L441,221.9082 " fill="#00FFFF" style="stroke:#181818;stroke-width:0.5;"/><text fill="#000000" font-family="sans-serif" font-size="13" lengthAdjust="spacing" textLength="59" x="243" y="239.4766">1.0 USDC</text><text fill="#000000" font-family="sans-serif" font-size="13" lengthAdjust="spacing" textLength="193" x="243" y="254.7871">-0.000623714973654422 ETH</text><path d="M461,221.9082 L461,261.9082 L691,261.9082 L691,231.9082 L681,221.9082 L461,221.9082 " fill="#00FFFF" style="stroke:#181818;stroke-width:0.5;"/><path d="M681,221.9082 L681,231.9082 L691,231.9082 L681,221.9082 " fill="#00FFFF" style="stroke:#181818;stroke-width:0.5;"/><text fill="#000000" font-family="sans-serif" font-size="13" lengthAdjust="spacing" textLength="185" x="467" y="239.4766">0.000623714973654422 ETH</text><text fill="#000000" font-family="sans-serif" font-size="13" lengthAdjust="spacing" textLength="209" x="467" y="254.7871">-1.153276530029763101 MATIC</text><!--SRC=[ZP1DJy9048Rl-oicUD64rfdPVYqXJGX-SS2BXVjsMM8ZjhKKvUVR5Qan1kBnJPvvvfrfYtPZ0VVXMYabuxL9SfChPKX6l492Z6naWYH0DaaIvcnP9X9rakUXv81NKWKviq8XZAxReYhXLHTbQTiXv9lAl02HuZ2GD8JiUJS43k7Evi381AX6c8o8uNwU2MtQge41xccDslUJZXY0teABBe2eTTCMfgXrsJfEnIlRSSJH5-UY2p0UByfY-w5hM5AQZiUNYyUPjwIhDFrZqF74ztN4T33eMBjmpY3wEbxQhnn1rkXokxODa8-mUBgPYhwEuxx58m3qiNifovW25Sie309ckCqUHB-yuuyxVdcf-tSSXHAHLHn9GeBv99jDXH1brLgetXrsR7UXttPQU7sTC_EsN84p274DFwQ-_y7KYxoJ5vpm7EywU4vEU_zf-0a0]--></g></svg>
