<?xml version="1.0" encoding="UTF-8" standalone="no"?><svg xmlns:xlink="http://www.w3.org/1999/xlink" xmlns="http://www.w3.org/2000/svg" contentStyleType="text/css" height="468px" preserveAspectRatio="none" style="width:1132px;height:468px;background:#FFFFFF;" version="1.1" viewBox="0 0 1132 468" width="1132px" zoomAndPan="magnify"><defs/><g><text fill="#000000" font-family="sans-serif" font-size="14" font-weight="bold" lengthAdjust="spacing" textLength="572" x="278.5" y="28.5352">0x687803e585d370abe1bc06f45bb8d4e9c783a283d05eee655ae4b5332a9069f1</text><text fill="#000000" font-family="sans-serif" font-size="14" lengthAdjust="spacing" textLength="404" x="362.5" y="456.4844">mainnet, block 17521271, Tue, 20 Jun 2023 13:40:59 GMT</text><line style="stroke:#181818;stroke-width:0.5;stroke-dasharray:5.0,5.0;" x1="103.5" x2="103.5" y1="118.9766" y2="365.4609"/><line style="stroke:#181818;stroke-width:0.5;stroke-dasharray:5.0,5.0;" x1="285" x2="285" y1="118.9766" y2="365.4609"/><line style="stroke:#181818;stroke-width:0.5;stroke-dasharray:5.0,5.0;" x1="480" x2="480" y1="118.9766" y2="365.4609"/><line style="stroke:#181818;stroke-width:0.5;stroke-dasharray:5.0,5.0;" x1="747.5" x2="747.5" y1="118.9766" y2="365.4609"/><line style="stroke:#181818;stroke-width:0.5;stroke-dasharray:5.0,5.0;" x1="1021.5" x2="1021.5" y1="118.9766" y2="365.4609"/><text fill="#000000" font-family="sans-serif" font-size="14" lengthAdjust="spacing" textLength="97" x="52.5" y="116.0234">0xd00B..3391</text><ellipse cx="104" cy="50.9883" fill="#E2E2F0" rx="8" ry="8" style="stroke:#181818;stroke-width:0.5;"/><path d="M104,58.9883 L104,85.9883 M91,66.9883 L117,66.9883 M104,85.9883 L91,100.9883 M104,85.9883 L117,100.9883 " fill="none" style="stroke:#181818;stroke-width:0.5;"/><text fill="#000000" font-family="sans-serif" font-size="14" lengthAdjust="spacing" textLength="97" x="52.5" y="377.9961">0xd00B..3391</text><ellipse cx="104" cy="389.4492" fill="#E2E2F0" rx="8" ry="8" style="stroke:#181818;stroke-width:0.5;"/><path d="M104,397.4492 L104,424.4492 M91,405.4492 L117,405.4492 M104,424.4492 L91,439.4492 M104,424.4492 L117,439.4492 " fill="none" style="stroke:#181818;stroke-width:0.5;"/><rect fill="#E2E2F0" height="63.4648" rx="2.5" ry="2.5" style="stroke:#181818;stroke-width:0.5;" width="110" x="230" y="54.5117"/><text fill="#000000" font-family="sans-serif" font-size="14" font-style="italic" lengthAdjust="spacing" textLength="94" x="238" y="75.0469">«Uniswap V2»</text><text fill="#000000" font-family="sans-serif" font-size="14" font-style="italic" lengthAdjust="spacing" textLength="74" x="248" y="91.5352">«(UNI-V2)»</text><text fill="#000000" font-family="sans-serif" font-size="14" lengthAdjust="spacing" textLength="96" x="237" y="108.0234">0xc88a..048D</text><rect fill="#E2E2F0" height="63.4648" rx="2.5" ry="2.5" style="stroke:#181818;stroke-width:0.5;" width="110" x="230" y="364.4609"/><text fill="#000000" font-family="sans-serif" font-size="14" font-style="italic" lengthAdjust="spacing" textLength="94" x="238" y="384.9961">«Uniswap V2»</text><text fill="#000000" font-family="sans-serif" font-size="14" font-style="italic" lengthAdjust="spacing" textLength="74" x="248" y="401.4844">«(UNI-V2)»</text><text fill="#000000" font-family="sans-serif" font-size="14" lengthAdjust="spacing" textLength="96" x="237" y="417.9727">0xc88a..048D</text><rect fill="#E2E2F0" height="63.4648" rx="2.5" ry="2.5" style="stroke:#181818;stroke-width:0.5;" width="110" x="425" y="54.5117"/><text fill="#000000" font-family="sans-serif" font-size="14" font-style="italic" lengthAdjust="spacing" textLength="94" x="433" y="75.0469">«Uniswap V2»</text><text fill="#000000" font-family="sans-serif" font-size="14" font-style="italic" lengthAdjust="spacing" textLength="74" x="443" y="91.5352">«(UNI-V2)»</text><text fill="#000000" font-family="sans-serif" font-size="14" lengthAdjust="spacing" textLength="96" x="432" y="108.0234">0xB4e1..C9Dc</text><rect fill="#E2E2F0" height="63.4648" rx="2.5" ry="2.5" style="stroke:#181818;stroke-width:0.5;" width="110" x="425" y="364.4609"/><text fill="#000000" font-family="sans-serif" font-size="14" font-style="italic" lengthAdjust="spacing" textLength="94" x="433" y="384.9961">«Uniswap V2»</text><text fill="#000000" font-family="sans-serif" font-size="14" font-style="italic" lengthAdjust="spacing" textLength="74" x="443" y="401.4844">«(UNI-V2)»</text><text fill="#000000" font-family="sans-serif" font-size="14" lengthAdjust="spacing" textLength="96" x="432" y="417.9727">0xB4e1..C9Dc</text><rect fill="#E2E2F0" height="46.9766" rx="2.5" ry="2.5" style="stroke:#181818;stroke-width:0.5;" width="137" x="679.5" y="71"/><text fill="#000000" font-family="sans-serif" font-size="14" font-style="italic" lengthAdjust="spacing" textLength="123" x="686.5" y="91.5352">«UniversalRouter»</text><text fill="#000000" font-family="sans-serif" font-size="14" lengthAdjust="spacing" textLength="96" x="700" y="108.0234">0x3fC9..7FAD</text><rect fill="#E2E2F0" height="46.9766" rx="2.5" ry="2.5" style="stroke:#181818;stroke-width:0.5;" width="137" x="679.5" y="364.4609"/><text fill="#000000" font-family="sans-serif" font-size="14" font-style="italic" lengthAdjust="spacing" textLength="123" x="686.5" y="384.9961">«UniversalRouter»</text><text fill="#000000" font-family="sans-serif" font-size="14" lengthAdjust="spacing" textLength="96" x="700" y="401.4844">0x3fC9..7FAD</text><rect fill="#E2E2F0" height="63.4648" rx="2.5" ry="2.5" style="stroke:#181818;stroke-width:0.5;" width="129" x="957.5" y="54.5117"/><text fill="#000000" font-family="sans-serif" font-size="14" font-style="italic" lengthAdjust="spacing" textLength="115" x="964.5" y="75.0469">«Wrapped Ether»</text><text fill="#000000" font-family="sans-serif" font-size="14" font-style="italic" lengthAdjust="spacing" textLength="63" x="990.5" y="91.5352">«(WETH)»</text><text fill="#000000" font-family="sans-serif" font-size="14" lengthAdjust="spacing" textLength="97" x="973.5" y="108.0234">0xC02a..6Cc2</text><rect fill="#E2E2F0" height="63.4648" rx="2.5" ry="2.5" style="stroke:#181818;stroke-width:0.5;" width="129" x="957.5" y="364.4609"/><text fill="#000000" font-family="sans-serif" font-size="14" font-style="italic" lengthAdjust="spacing" textLength="115" x="964.5" y="384.9961">«Wrapped Ether»</text><text fill="#000000" font-family="sans-serif" font-size="14" font-style="italic" lengthAdjust="spacing" textLength="63" x="990.5" y="401.4844">«(WETH)»</text><text fill="#000000" font-family="sans-serif" font-size="14" lengthAdjust="spacing" textLength="97" x="973.5" y="417.9727">0xC02a..6Cc2</text><polygon fill="#181818" points="273,146.2871,283,150.2871,273,154.2871,277,150.2871" style="stroke:#181818;stroke-width:1.0;"/><line style="stroke:#181818;stroke-width:1.0;" x1="104" x2="279" y1="150.2871" y2="150.2871"/><text fill="#000000" font-family="sans-serif" font-size="13" lengthAdjust="spacing" textLength="130" x="111" y="145.5449">Transfer 900.0 DERC</text><polygon fill="#181818" points="468,175.5977,478,179.5977,468,183.5977,472,179.5977" style="stroke:#181818;stroke-width:1.0;"/><line style="stroke:#181818;stroke-width:1.0;" x1="285" x2="474" y1="179.5977" y2="179.5977"/><text fill="#000000" font-family="sans-serif" font-size="13" lengthAdjust="spacing" textLength="171" x="292" y="174.8555">Transfer 110.807671 USDC</text><polygon fill="#181818" points="736,204.9082,746,208.9082,736,212.9082,740,208.9082" style="stroke:#181818;stroke-width:1.0;"/><line style="stroke:#181818;stroke-width:1.0;" x1="480" x2="742" y1="208.9082" y2="208.9082"/><text fill="#000000" font-family="sans-serif" font-size="13" lengthAdjust="spacing" textLength="244" x="487" y="204.166">Transfer 0.06378781272905463 WETH</text><polygon fill="#181818" points="759,234.2188,749,238.2188,759,242.2188,755,238.2188" style="stroke:#181818;stroke-width:1.0;"/><line style="stroke:#181818;stroke-width:1.0;" x1="753" x2="1021" y1="238.2188" y2="238.2188"/><text fill="#000000" font-family="sans-serif" font-size="13" lengthAdjust="spacing" textLength="177" x="765" y="233.4766">0.06378781272905463 ETH</text><line style="stroke:#181818;stroke-width:2.0;" x1="1004" x2="1014" y1="262.5293" y2="272.5293"/><line style="stroke:#181818;stroke-width:2.0;" x1="1004" x2="1014" y1="272.5293" y2="262.5293"/><line style="stroke:#181818;stroke-width:1.0;" x1="748" x2="1009" y1="267.5293" y2="267.5293"/><text fill="#000000" font-family="sans-serif" font-size="13" lengthAdjust="spacing" textLength="250" x="755" y="262.7871">Withdraw 0.06378781272905463 WETH</text><polygon fill="#181818" points="115,292.8398,105,296.8398,115,300.8398,111,296.8398" style="stroke:#181818;stroke-width:1.0;"/><line style="stroke:#181818;stroke-width:1.0;" x1="109" x2="747" y1="296.8398" y2="296.8398"/><text fill="#000000" font-family="sans-serif" font-size="13" lengthAdjust="spacing" textLength="177" x="121" y="292.0977">0.06378781272905463 ETH</text><path d="M5,309.8398 L5,349.8398 L203,349.8398 L203,319.8398 L193,309.8398 L5,309.8398 " fill="#00FFFF" style="stroke:#181818;stroke-width:0.5;"/><path d="M193,309.8398 L193,319.8398 L203,319.8398 L193,309.8398 " fill="#00FFFF" style="stroke:#181818;stroke-width:0.5;"/><text fill="#000000" font-family="sans-serif" font-size="13" lengthAdjust="spacing" textLength="82" x="11" y="327.4082">-900.0 DERC</text><text fill="#000000" font-family="sans-serif" font-size="13" lengthAdjust="spacing" textLength="177" x="11" y="342.7188">0.06378781272905463 ETH</text><path d="M213,309.8398 L213,349.8398 L357,349.8398 L357,319.8398 L347,309.8398 L213,309.8398 " fill="#00FFFF" style="stroke:#181818;stroke-width:0.5;"/><path d="M347,309.8398 L347,319.8398 L357,319.8398 L347,309.8398 " fill="#00FFFF" style="stroke:#181818;stroke-width:0.5;"/><text fill="#000000" font-family="sans-serif" font-size="13" lengthAdjust="spacing" textLength="74" x="219" y="327.4082">900.0 DERC</text><text fill="#000000" font-family="sans-serif" font-size="13" lengthAdjust="spacing" textLength="123" x="219" y="342.7188">-110.807671 USDC</text><path d="M371,309.8398 L371,349.8398 L588,349.8398 L588,319.8398 L578,309.8398 L371,309.8398 " fill="#00FFFF" style="stroke:#181818;stroke-width:0.5;"/><path d="M578,309.8398 L578,319.8398 L588,319.8398 L578,309.8398 " fill="#00FFFF" style="stroke:#181818;stroke-width:0.5;"/><text fill="#000000" font-family="sans-serif" font-size="13" lengthAdjust="spacing" textLength="115" x="377" y="327.4082">110.807671 USDC</text><text fill="#000000" font-family="sans-serif" font-size="13" lengthAdjust="spacing" textLength="196" x="377" y="342.7188">-0.06378781272905463 WETH</text><path d="M919,309.8398 L919,334.8398 L1125,334.8398 L1125,319.8398 L1115,309.8398 L919,309.8398 " fill="#00FFFF" style="stroke:#181818;stroke-width:0.5;"/><path d="M1115,309.8398 L1115,319.8398 L1125,319.8398 L1115,309.8398 " fill="#00FFFF" style="stroke:#181818;stroke-width:0.5;"/><text fill="#000000" font-family="sans-serif" font-size="13" lengthAdjust="spacing" textLength="185" x="925" y="327.4082">-0.06378781272905463 ETH</text><!--SRC=[bL9DZzCm5BpxLpmj5v0QuuyuiQig4fkMBmaEIxizEuwZZIX9I5ssFt-TpTOjfGLnifuqCszcdbtjDXR8Ff6f9DmAAKgU4brOMXYILB4e2bd6LfbKSiqaBucmrYP2Q1iNWdEc5KbKHH4okdDrsy0FNJUDTHCeDgtv3ZGLZBAKJc2vinDW13xl6lym3fHFOp8L2ZvyMI9jNDl33TcNXDnYpBcYDw2tuCTY601rkdUrgJlTk05dfDGOarZEdt73w8SIPhDLKsyVTGVtBCjcizUhhv-YU_OcoyuLRcDBCSxLt3mh57uqgZJ_eS2hN66SldytUk2LKMcbNppyilrMR-xQdRFzdzISC6y_oGqRxVinCOPvwhhNNMTBMBY7WUZthnVBZyDs5Cg8iX1u2ijUDzlAzg08mGJcYxiSXJeyyX3i14afmPAaIKfXzMsUev3TmmyfJk1UDk6f_oB-aamH4ISS1bCesFwDTn4_m4D1qJuadiAwTWzbhn-lhpdoil0X_h86eQPr5bf_WUF_UQL_xZIAJZgwHhTD2OC0Gc_XA1GQ7OLETABpDYyBX8v7WNDIT3NzPRdGoIXtnVJXFY_f_ndv2G00]--></g></svg>
