<?xml version="1.0" encoding="UTF-8" standalone="no"?><svg xmlns:xlink="http://www.w3.org/1999/xlink" xmlns="http://www.w3.org/2000/svg" contentStyleType="text/css" height="439px" preserveAspectRatio="none" style="width:1005px;height:439px;background:#FFFFFF;" version="1.1" viewBox="0 0 1005 439" width="1005px" zoomAndPan="magnify"><defs/><g><text fill="#000000" font-family="sans-serif" font-size="14" font-weight="bold" lengthAdjust="spacing" textLength="578" x="212.25" y="28.5352">0x6b3339f2576fb1eb158c58545917b7c699187d0979a814e530199b50d4a2b9e4</text><text fill="#000000" font-family="sans-serif" font-size="14" lengthAdjust="spacing" textLength="404" x="299.25" y="427.1738">mainnet, block 17503453, Sun, 18 Jun 2023 01:39:23 GMT</text><line style="stroke:#181818;stroke-width:0.5;stroke-dasharray:5.0,5.0;" x1="108" x2="108" y1="118.9766" y2="336.1504"/><line style="stroke:#181818;stroke-width:0.5;stroke-dasharray:5.0,5.0;" x1="333.5" x2="333.5" y1="118.9766" y2="336.1504"/><line style="stroke:#181818;stroke-width:0.5;stroke-dasharray:5.0,5.0;" x1="609.5" x2="609.5" y1="118.9766" y2="336.1504"/><line style="stroke:#181818;stroke-width:0.5;stroke-dasharray:5.0,5.0;" x1="891" x2="891" y1="118.9766" y2="336.1504"/><text fill="#000000" font-family="sans-serif" font-size="14" lengthAdjust="spacing" textLength="96" x="57" y="116.0234">0x5a5B..b400</text><ellipse cx="108" cy="50.9883" fill="#E2E2F0" rx="8" ry="8" style="stroke:#181818;stroke-width:0.5;"/><path d="M108,58.9883 L108,85.9883 M95,66.9883 L121,66.9883 M108,85.9883 L95,100.9883 M108,85.9883 L121,100.9883 " fill="none" style="stroke:#181818;stroke-width:0.5;"/><text fill="#000000" font-family="sans-serif" font-size="14" lengthAdjust="spacing" textLength="96" x="57" y="348.6855">0x5a5B..b400</text><ellipse cx="108" cy="360.1387" fill="#E2E2F0" rx="8" ry="8" style="stroke:#181818;stroke-width:0.5;"/><path d="M108,368.1387 L108,395.1387 M95,376.1387 L121,376.1387 M108,395.1387 L95,410.1387 M108,395.1387 L121,410.1387 " fill="none" style="stroke:#181818;stroke-width:0.5;"/><rect fill="#E2E2F0" height="63.4648" rx="2.5" ry="2.5" style="stroke:#181818;stroke-width:0.5;" width="110" x="278.5" y="54.5117"/><text fill="#000000" font-family="sans-serif" font-size="14" font-style="italic" lengthAdjust="spacing" textLength="94" x="286.5" y="75.0469">«Uniswap V2»</text><text fill="#000000" font-family="sans-serif" font-size="14" font-style="italic" lengthAdjust="spacing" textLength="74" x="296.5" y="91.5352">«(UNI-V2)»</text><text fill="#000000" font-family="sans-serif" font-size="14" lengthAdjust="spacing" textLength="96" x="285.5" y="108.0234">0xB4e1..C9Dc</text><rect fill="#E2E2F0" height="63.4648" rx="2.5" ry="2.5" style="stroke:#181818;stroke-width:0.5;" width="110" x="278.5" y="335.1504"/><text fill="#000000" font-family="sans-serif" font-size="14" font-style="italic" lengthAdjust="spacing" textLength="94" x="286.5" y="355.6855">«Uniswap V2»</text><text fill="#000000" font-family="sans-serif" font-size="14" font-style="italic" lengthAdjust="spacing" textLength="74" x="296.5" y="372.1738">«(UNI-V2)»</text><text fill="#000000" font-family="sans-serif" font-size="14" lengthAdjust="spacing" textLength="96" x="285.5" y="388.6621">0xB4e1..C9Dc</text><rect fill="#E2E2F0" height="46.9766" rx="2.5" ry="2.5" style="stroke:#181818;stroke-width:0.5;" width="168" x="525.5" y="71"/><text fill="#000000" font-family="sans-serif" font-size="14" font-style="italic" lengthAdjust="spacing" textLength="154" x="532.5" y="91.5352">«UniswapV2Router02»</text><text fill="#000000" font-family="sans-serif" font-size="14" lengthAdjust="spacing" textLength="98" x="560.5" y="108.0234">0x7a25..488D</text><rect fill="#E2E2F0" height="46.9766" rx="2.5" ry="2.5" style="stroke:#181818;stroke-width:0.5;" width="168" x="525.5" y="335.1504"/><text fill="#000000" font-family="sans-serif" font-size="14" font-style="italic" lengthAdjust="spacing" textLength="154" x="532.5" y="355.6855">«UniswapV2Router02»</text><text fill="#000000" font-family="sans-serif" font-size="14" lengthAdjust="spacing" textLength="98" x="560.5" y="372.1738">0x7a25..488D</text><rect fill="#E2E2F0" height="63.4648" rx="2.5" ry="2.5" style="stroke:#181818;stroke-width:0.5;" width="129" x="827" y="54.5117"/><text fill="#000000" font-family="sans-serif" font-size="14" font-style="italic" lengthAdjust="spacing" textLength="115" x="834" y="75.0469">«Wrapped Ether»</text><text fill="#000000" font-family="sans-serif" font-size="14" font-style="italic" lengthAdjust="spacing" textLength="63" x="860" y="91.5352">«(WETH)»</text><text fill="#000000" font-family="sans-serif" font-size="14" lengthAdjust="spacing" textLength="97" x="843" y="108.0234">0xC02a..6Cc2</text><rect fill="#E2E2F0" height="63.4648" rx="2.5" ry="2.5" style="stroke:#181818;stroke-width:0.5;" width="129" x="827" y="335.1504"/><text fill="#000000" font-family="sans-serif" font-size="14" font-style="italic" lengthAdjust="spacing" textLength="115" x="834" y="355.6855">«Wrapped Ether»</text><text fill="#000000" font-family="sans-serif" font-size="14" font-style="italic" lengthAdjust="spacing" textLength="63" x="860" y="372.1738">«(WETH)»</text><text fill="#000000" font-family="sans-serif" font-size="14" lengthAdjust="spacing" textLength="97" x="843" y="388.6621">0xC02a..6Cc2</text><polygon fill="#181818" points="321.5,146.2871,331.5,150.2871,321.5,154.2871,325.5,150.2871" style="stroke:#181818;stroke-width:1.0;"/><line style="stroke:#181818;stroke-width:1.0;" x1="108" x2="327.5" y1="150.2871" y2="150.2871"/><text fill="#000000" font-family="sans-serif" font-size="13" lengthAdjust="spacing" textLength="147" x="115" y="145.5449">Transfer 911.892 USDC</text><polygon fill="#181818" points="597.5,175.5977,607.5,179.5977,597.5,183.5977,601.5,179.5977" style="stroke:#181818;stroke-width:1.0;"/><line style="stroke:#181818;stroke-width:1.0;" x1="333.5" x2="603.5" y1="179.5977" y2="179.5977"/><text fill="#000000" font-family="sans-serif" font-size="13" lengthAdjust="spacing" textLength="252" x="340.5" y="174.8555">Transfer 0.526878693198147875 WETH</text><polygon fill="#181818" points="620.5,204.9082,610.5,208.9082,620.5,212.9082,616.5,208.9082" style="stroke:#181818;stroke-width:1.0;"/><line style="stroke:#181818;stroke-width:1.0;" x1="614.5" x2="890.5" y1="208.9082" y2="208.9082"/><text fill="#000000" font-family="sans-serif" font-size="13" lengthAdjust="spacing" textLength="185" x="626.5" y="204.166">0.526878693198147875 ETH</text><line style="stroke:#181818;stroke-width:2.0;" x1="873.5" x2="883.5" y1="233.2188" y2="243.2188"/><line style="stroke:#181818;stroke-width:2.0;" x1="873.5" x2="883.5" y1="243.2188" y2="233.2188"/><line style="stroke:#181818;stroke-width:1.0;" x1="609.5" x2="878.5" y1="238.2188" y2="238.2188"/><text fill="#000000" font-family="sans-serif" font-size="13" lengthAdjust="spacing" textLength="258" x="616.5" y="233.4766">Withdraw 0.526878693198147875 WETH</text><polygon fill="#181818" points="119,263.5293,109,267.5293,119,271.5293,115,267.5293" style="stroke:#181818;stroke-width:1.0;"/><line style="stroke:#181818;stroke-width:1.0;" x1="113" x2="608.5" y1="267.5293" y2="267.5293"/><text fill="#000000" font-family="sans-serif" font-size="13" lengthAdjust="spacing" textLength="185" x="125" y="262.7871">0.526878693198147875 ETH</text><path d="M5,280.5293 L5,320.5293 L211,320.5293 L211,290.5293 L201,280.5293 L5,280.5293 " fill="#00FFFF" style="stroke:#181818;stroke-width:0.5;"/><path d="M201,280.5293 L201,290.5293 L211,290.5293 L201,280.5293 " fill="#00FFFF" style="stroke:#181818;stroke-width:0.5;"/><text fill="#000000" font-family="sans-serif" font-size="13" lengthAdjust="spacing" textLength="99" x="11" y="298.0977">-911.892 USDC</text><text fill="#000000" font-family="sans-serif" font-size="13" lengthAdjust="spacing" textLength="185" x="11" y="313.4082">0.526878693198147875 ETH</text><path d="M221,280.5293 L221,320.5293 L446,320.5293 L446,290.5293 L436,280.5293 L221,280.5293 " fill="#00FFFF" style="stroke:#181818;stroke-width:0.5;"/><path d="M436,280.5293 L436,290.5293 L446,290.5293 L436,280.5293 " fill="#00FFFF" style="stroke:#181818;stroke-width:0.5;"/><text fill="#000000" font-family="sans-serif" font-size="13" lengthAdjust="spacing" textLength="91" x="227" y="298.0977">911.892 USDC</text><text fill="#000000" font-family="sans-serif" font-size="13" lengthAdjust="spacing" textLength="204" x="227" y="313.4082">-0.526878693198147875 WETH</text><path d="M784,280.5293 L784,305.5293 L998,305.5293 L998,290.5293 L988,280.5293 L784,280.5293 " fill="#00FFFF" style="stroke:#181818;stroke-width:0.5;"/><path d="M988,280.5293 L988,290.5293 L998,290.5293 L988,280.5293 " fill="#00FFFF" style="stroke:#181818;stroke-width:0.5;"/><text fill="#000000" font-family="sans-serif" font-size="13" lengthAdjust="spacing" textLength="193" x="790" y="298.0977">-0.526878693198147875 ETH</text><!--SRC=[XL7BRXCn5DtxAwxA1gICyMCyjgDe5aqg7X8isZpMjiTHHnJFC75eFXzF2au3QTdvIETv7Tluu84SAiivrricPBMrr5igb1DAb49JQQMhjAPADaHBRHGjlU24Qcq5QKh3hFObGixqiUq2V3Tj23vEm3vqxXjGAGWl1P_0tJvCW2hul0_02ED0w9JhQNfy-B94niLkW2jo44PSOsnBGgx0x211Em90lHbYwzhUX3ZohajFCPxhXJloR89EDmvcirLeTu-cXpMhwzdixUhhfsBDtjNrtmxIC85ngTJYw33219gJmvhTTlle1yB-5Sy9CnXNSyUEOfTWvHnBuirW-jutS1Fl_N1iiBbPVXppKHvJrBdm59Q32Rkj7q1JYfLciBfRp54UbBX_gZtZ4YnOfQIgDASwVObKKi0OX7ALC-5bmSZFkuj3dZ65JHllcy4ylX9q4jRvcruBGYXqqKFtCzNFbtXZVkmDAiwcl-ZWGmEZ1qBluUILB_NaTMPLl5p_ibaUzMHscPHF_Blz_ml_0W00]--></g></svg>
