<?xml version="1.0" encoding="UTF-8" standalone="no"?><svg xmlns:xlink="http://www.w3.org/1999/xlink" xmlns="http://www.w3.org/2000/svg" contentStyleType="text/css" height="439px" preserveAspectRatio="none" style="width:627px;height:439px;background:#FFFFFF;" version="1.1" viewBox="0 0 627 439" width="627px" zoomAndPan="magnify"><defs/><g><text fill="#000000" font-family="sans-serif" font-size="14" font-weight="bold" lengthAdjust="spacing" textLength="558" x="33.25" y="28.5352">0x7025eeb06aab8614b02fff39f3cc10db439fbb4b525c9d2d87dbd19bf17c7cac</text><text fill="#000000" font-family="sans-serif" font-size="14" lengthAdjust="spacing" textLength="408" x="108.25" y="427.1738">mainnet, block 17464508, Mon, 12 Jun 2023 14:16:23 GMT</text><line style="stroke:#181818;stroke-width:0.5;stroke-dasharray:5.0,5.0;" x1="82.5" x2="82.5" y1="118.9766" y2="336.1504"/><line style="stroke:#181818;stroke-width:0.5;stroke-dasharray:5.0,5.0;" x1="226.5" x2="226.5" y1="118.9766" y2="336.1504"/><line style="stroke:#181818;stroke-width:0.5;stroke-dasharray:5.0,5.0;" x1="395" x2="395" y1="118.9766" y2="336.1504"/><line style="stroke:#181818;stroke-width:0.5;stroke-dasharray:5.0,5.0;" x1="538.5" x2="538.5" y1="118.9766" y2="336.1504"/><text fill="#000000" font-family="sans-serif" font-size="14" lengthAdjust="spacing" textLength="93" x="33.5" y="116.0234">0xf343..983a</text><ellipse cx="83" cy="50.9883" fill="#E2E2F0" rx="8" ry="8" style="stroke:#181818;stroke-width:0.5;"/><path d="M83,58.9883 L83,85.9883 M70,66.9883 L96,66.9883 M83,85.9883 L70,100.9883 M83,85.9883 L96,100.9883 " fill="none" style="stroke:#181818;stroke-width:0.5;"/><text fill="#000000" font-family="sans-serif" font-size="14" lengthAdjust="spacing" textLength="93" x="33.5" y="348.6855">0xf343..983a</text><ellipse cx="83" cy="360.1387" fill="#E2E2F0" rx="8" ry="8" style="stroke:#181818;stroke-width:0.5;"/><path d="M83,368.1387 L83,395.1387 M70,376.1387 L96,376.1387 M83,395.1387 L70,410.1387 M83,395.1387 L96,410.1387 " fill="none" style="stroke:#181818;stroke-width:0.5;"/><rect fill="#E2E2F0" height="46.9766" rx="2.5" ry="2.5" style="stroke:#181818;stroke-width:0.5;" width="168" x="142.5" y="71"/><text fill="#000000" font-family="sans-serif" font-size="14" font-style="italic" lengthAdjust="spacing" textLength="154" x="149.5" y="91.5352">«UniswapV2Router02»</text><text fill="#000000" font-family="sans-serif" font-size="14" lengthAdjust="spacing" textLength="98" x="177.5" y="108.0234">0x7a25..488D</text><rect fill="#E2E2F0" height="46.9766" rx="2.5" ry="2.5" style="stroke:#181818;stroke-width:0.5;" width="168" x="142.5" y="335.1504"/><text fill="#000000" font-family="sans-serif" font-size="14" font-style="italic" lengthAdjust="spacing" textLength="154" x="149.5" y="355.6855">«UniswapV2Router02»</text><text fill="#000000" font-family="sans-serif" font-size="14" lengthAdjust="spacing" textLength="98" x="177.5" y="372.1738">0x7a25..488D</text><rect fill="#E2E2F0" height="63.4648" rx="2.5" ry="2.5" style="stroke:#181818;stroke-width:0.5;" width="129" x="331" y="54.5117"/><text fill="#000000" font-family="sans-serif" font-size="14" font-style="italic" lengthAdjust="spacing" textLength="115" x="338" y="75.0469">«Wrapped Ether»</text><text fill="#000000" font-family="sans-serif" font-size="14" font-style="italic" lengthAdjust="spacing" textLength="63" x="364" y="91.5352">«(WETH)»</text><text fill="#000000" font-family="sans-serif" font-size="14" lengthAdjust="spacing" textLength="97" x="347" y="108.0234">0xC02a..6Cc2</text><rect fill="#E2E2F0" height="63.4648" rx="2.5" ry="2.5" style="stroke:#181818;stroke-width:0.5;" width="129" x="331" y="335.1504"/><text fill="#000000" font-family="sans-serif" font-size="14" font-style="italic" lengthAdjust="spacing" textLength="115" x="338" y="355.6855">«Wrapped Ether»</text><text fill="#000000" font-family="sans-serif" font-size="14" font-style="italic" lengthAdjust="spacing" textLength="63" x="364" y="372.1738">«(WETH)»</text><text fill="#000000" font-family="sans-serif" font-size="14" lengthAdjust="spacing" textLength="97" x="347" y="388.6621">0xC02a..6Cc2</text><rect fill="#E2E2F0" height="63.4648" rx="2.5" ry="2.5" style="stroke:#181818;stroke-width:0.5;" width="110" x="483.5" y="54.5117"/><text fill="#000000" font-family="sans-serif" font-size="14" font-style="italic" lengthAdjust="spacing" textLength="94" x="491.5" y="75.0469">«Uniswap V2»</text><text fill="#000000" font-family="sans-serif" font-size="14" font-style="italic" lengthAdjust="spacing" textLength="74" x="501.5" y="91.5352">«(UNI-V2)»</text><text fill="#000000" font-family="sans-serif" font-size="14" lengthAdjust="spacing" textLength="96" x="490.5" y="108.0234">0xB4e1..C9Dc</text><rect fill="#E2E2F0" height="63.4648" rx="2.5" ry="2.5" style="stroke:#181818;stroke-width:0.5;" width="110" x="483.5" y="335.1504"/><text fill="#000000" font-family="sans-serif" font-size="14" font-style="italic" lengthAdjust="spacing" textLength="94" x="491.5" y="355.6855">«Uniswap V2»</text><text fill="#000000" font-family="sans-serif" font-size="14" font-style="italic" lengthAdjust="spacing" textLength="74" x="501.5" y="372.1738">«(UNI-V2)»</text><text fill="#000000" font-family="sans-serif" font-size="14" lengthAdjust="spacing" textLength="96" x="490.5" y="388.6621">0xB4e1..C9Dc</text><polygon fill="#181818" points="214.5,146.2871,224.5,150.2871,214.5,154.2871,218.5,150.2871" style="stroke:#181818;stroke-width:1.0;"/><line style="stroke:#181818;stroke-width:1.0;" x1="83" x2="220.5" y1="150.2871" y2="150.2871"/><text fill="#000000" font-family="sans-serif" font-size="13" lengthAdjust="spacing" textLength="81" x="90" y="145.5449">57.5181 ETH</text><polygon fill="#181818" points="383.5,175.5977,393.5,179.5977,383.5,183.5977,387.5,179.5977" style="stroke:#181818;stroke-width:1.0;"/><line style="stroke:#181818;stroke-width:1.0;" x1="226.5" x2="389.5" y1="179.5977" y2="179.5977"/><text fill="#000000" font-family="sans-serif" font-size="13" lengthAdjust="spacing" textLength="81" x="233.5" y="174.8555">57.5181 ETH</text><polygon fill="#181818" points="237.5,204.9082,227.5,208.9082,237.5,212.9082,233.5,208.9082" style="stroke:#181818;stroke-width:1.0;"/><ellipse cx="395" cy="208.1582" fill="none" rx="4" ry="4" style="stroke:#181818;stroke-width:1.5;"/><line style="stroke:#181818;stroke-width:1.0;" x1="231.5" x2="390.5" y1="208.9082" y2="208.9082"/><text fill="#000000" font-family="sans-serif" font-size="13" lengthAdjust="spacing" textLength="145" x="243.5" y="204.166">Deposit 57.5181 WETH</text><polygon fill="#181818" points="526.5,234.2188,536.5,238.2188,526.5,242.2188,530.5,238.2188" style="stroke:#181818;stroke-width:1.0;"/><line style="stroke:#181818;stroke-width:1.0;" x1="226.5" x2="532.5" y1="238.2188" y2="238.2188"/><text fill="#000000" font-family="sans-serif" font-size="13" lengthAdjust="spacing" textLength="148" x="233.5" y="233.4766">Transfer 57.5181 WETH</text><polygon fill="#181818" points="94,263.5293,84,267.5293,94,271.5293,90,267.5293" style="stroke:#181818;stroke-width:1.0;"/><line style="stroke:#181818;stroke-width:1.0;" x1="88" x2="537.5" y1="267.5293" y2="267.5293"/><text fill="#000000" font-family="sans-serif" font-size="13" lengthAdjust="spacing" textLength="191" x="100" y="262.7871">Transfer 99,403.455134 USDC</text><path d="M5,280.5293 L5,320.5293 L161,320.5293 L161,290.5293 L151,280.5293 L5,280.5293 " fill="#00FFFF" style="stroke:#181818;stroke-width:0.5;"/><path d="M151,280.5293 L151,290.5293 L161,290.5293 L151,280.5293 " fill="#00FFFF" style="stroke:#181818;stroke-width:0.5;"/><text fill="#000000" font-family="sans-serif" font-size="13" lengthAdjust="spacing" textLength="89" x="11" y="298.0977">-57.5181 ETH</text><text fill="#000000" font-family="sans-serif" font-size="13" lengthAdjust="spacing" textLength="135" x="11" y="313.4082">99,403.455134 USDC</text><path d="M344,280.5293 L344,305.5293 L446,305.5293 L446,290.5293 L436,280.5293 L344,280.5293 " fill="#00FFFF" style="stroke:#181818;stroke-width:0.5;"/><path d="M436,280.5293 L436,290.5293 L446,290.5293 L436,280.5293 " fill="#00FFFF" style="stroke:#181818;stroke-width:0.5;"/><text fill="#000000" font-family="sans-serif" font-size="13" lengthAdjust="spacing" textLength="81" x="350" y="298.0977">57.5181 ETH</text><path d="M456,280.5293 L456,320.5293 L620,320.5293 L620,290.5293 L610,280.5293 L456,280.5293 " fill="#00FFFF" style="stroke:#181818;stroke-width:0.5;"/><path d="M610,280.5293 L610,290.5293 L620,290.5293 L610,280.5293 " fill="#00FFFF" style="stroke:#181818;stroke-width:0.5;"/><text fill="#000000" font-family="sans-serif" font-size="13" lengthAdjust="spacing" textLength="92" x="462" y="298.0977">57.5181 WETH</text><text fill="#000000" font-family="sans-serif" font-size="13" lengthAdjust="spacing" textLength="143" x="462" y="313.4082">-99,403.455134 USDC</text><!--SRC=[VP1BZzCm58Nt_XLNmmQarjYEdKTLPK4xuY7DBA2FzRNZY8Z13gaBy_DnCggdBHKx7-KxvvwJq8Kd2-ovO49PgrcEgCkSIyr4sxPPrMR6SDPe6PzQIws4CbKZch9eTCChtVB250OD8GRxq7a7Fx5ppeOPw2TlVW0lP2uLAsVmuDqCk80lHmU2YGouNF1y4HyV7pO4JV03tB7dDfCPfLMPuHtW0KOv2Y0z3g4pNOykZ5o1Gb4got8zSQECee7bSkkwmn_iT-AhFmOxC57Nr-OL4qXflZ9YCfieSsD4DEy7x7lRm7tuReUwNYxVxkytdzxz6_51MaxfgbgRAK976V-CURqFEp7vju-Vvpin9f0qPbwdmWi0LL35Imxn44ax8dAgTOMajluYPcrxV-X2GlVNSQUA2zWCw0wj7IxPD26ofwPdR5ND9CkeL8fd4hRVrYj2YFF1WlyTFwTjR_3N4SdylF4DgtKDZ6P2tiDhIAhx4d8RIljVeFD3jmrfsALX6Zt_NxU_]--></g></svg>
