<?xml version="1.0" encoding="UTF-8" standalone="no"?><svg xmlns:xlink="http://www.w3.org/1999/xlink" xmlns="http://www.w3.org/2000/svg" contentStyleType="text/css" height="409px" preserveAspectRatio="none" style="width:910px;height:409px;background:#FFFFFF;" version="1.1" viewBox="0 0 910 409" width="910px" zoomAndPan="magnify"><defs/><g><text fill="#000000" font-family="sans-serif" font-size="14" font-weight="bold" lengthAdjust="spacing" textLength="563" x="172.25" y="28.5352">0x90b900dc5d340d47e18258a6cdfbba1c64087d8a1130af09c5098ed2c0ff2c08</text><text fill="#000000" font-family="sans-serif" font-size="14" lengthAdjust="spacing" textLength="404" x="251.75" y="397.8633">mainnet, block 17521413, Tue, 20 Jun 2023 14:09:59 GMT</text><line style="stroke:#181818;stroke-width:0.5;stroke-dasharray:5.0,5.0;" x1="117.5" x2="117.5" y1="118.9766" y2="306.8398"/><line style="stroke:#181818;stroke-width:0.5;stroke-dasharray:5.0,5.0;" x1="393" x2="393" y1="118.9766" y2="306.8398"/><line style="stroke:#181818;stroke-width:0.5;stroke-dasharray:5.0,5.0;" x1="524" x2="524" y1="118.9766" y2="306.8398"/><line style="stroke:#181818;stroke-width:0.5;stroke-dasharray:5.0,5.0;" x1="794" x2="794" y1="118.9766" y2="306.8398"/><rect fill="#E2E2F0" height="46.9766" rx="2.5" ry="2.5" style="stroke:#181818;stroke-width:0.5;" width="134" x="50.5" y="71"/><text fill="#000000" font-family="sans-serif" font-size="14" font-style="italic" lengthAdjust="spacing" textLength="120" x="57.5" y="91.5352">«UniswapV3Pool»</text><text fill="#000000" font-family="sans-serif" font-size="14" lengthAdjust="spacing" textLength="97" x="69" y="108.0234">0x88e6..5640</text><rect fill="#E2E2F0" height="46.9766" rx="2.5" ry="2.5" style="stroke:#181818;stroke-width:0.5;" width="134" x="50.5" y="305.8398"/><text fill="#000000" font-family="sans-serif" font-size="14" font-style="italic" lengthAdjust="spacing" textLength="120" x="57.5" y="326.375">«UniswapV3Pool»</text><text fill="#000000" font-family="sans-serif" font-size="14" lengthAdjust="spacing" textLength="97" x="69" y="342.8633">0x88e6..5640</text><rect fill="#E2E2F0" height="46.9766" rx="2.5" ry="2.5" style="stroke:#181818;stroke-width:0.5;" width="137" x="325" y="71"/><text fill="#000000" font-family="sans-serif" font-size="14" font-style="italic" lengthAdjust="spacing" textLength="123" x="332" y="91.5352">«UniversalRouter»</text><text fill="#000000" font-family="sans-serif" font-size="14" lengthAdjust="spacing" textLength="96" x="345.5" y="108.0234">0x3fC9..7FAD</text><rect fill="#E2E2F0" height="46.9766" rx="2.5" ry="2.5" style="stroke:#181818;stroke-width:0.5;" width="137" x="325" y="305.8398"/><text fill="#000000" font-family="sans-serif" font-size="14" font-style="italic" lengthAdjust="spacing" textLength="123" x="332" y="326.375">«UniversalRouter»</text><text fill="#000000" font-family="sans-serif" font-size="14" lengthAdjust="spacing" textLength="96" x="345.5" y="342.8633">0x3fC9..7FAD</text><text fill="#000000" font-family="sans-serif" font-size="14" lengthAdjust="spacing" textLength="98" x="472" y="116.0234">0xE89b..6D81</text><ellipse cx="524" cy="50.9883" fill="#E2E2F0" rx="8" ry="8" style="stroke:#181818;stroke-width:0.5;"/><path d="M524,58.9883 L524,85.9883 M511,66.9883 L537,66.9883 M524,85.9883 L511,100.9883 M524,85.9883 L537,100.9883 " fill="none" style="stroke:#181818;stroke-width:0.5;"/><text fill="#000000" font-family="sans-serif" font-size="14" lengthAdjust="spacing" textLength="98" x="472" y="319.375">0xE89b..6D81</text><ellipse cx="524" cy="330.8281" fill="#E2E2F0" rx="8" ry="8" style="stroke:#181818;stroke-width:0.5;"/><path d="M524,338.8281 L524,365.8281 M511,346.8281 L537,346.8281 M524,365.8281 L511,380.8281 M524,365.8281 L537,380.8281 " fill="none" style="stroke:#181818;stroke-width:0.5;"/><rect fill="#E2E2F0" height="46.9766" rx="2.5" ry="2.5" style="stroke:#181818;stroke-width:0.5;" width="134" x="727" y="71"/><text fill="#000000" font-family="sans-serif" font-size="14" font-style="italic" lengthAdjust="spacing" textLength="120" x="734" y="91.5352">«UniswapV3Pool»</text><text fill="#000000" font-family="sans-serif" font-size="14" lengthAdjust="spacing" textLength="96" x="746" y="108.0234">0xe423..Eb45</text><rect fill="#E2E2F0" height="46.9766" rx="2.5" ry="2.5" style="stroke:#181818;stroke-width:0.5;" width="134" x="727" y="305.8398"/><text fill="#000000" font-family="sans-serif" font-size="14" font-style="italic" lengthAdjust="spacing" textLength="120" x="734" y="326.375">«UniswapV3Pool»</text><text fill="#000000" font-family="sans-serif" font-size="14" lengthAdjust="spacing" textLength="96" x="746" y="342.8633">0xe423..Eb45</text><polygon fill="#181818" points="381.5,146.2871,391.5,150.2871,381.5,154.2871,385.5,150.2871" style="stroke:#181818;stroke-width:1.0;"/><line style="stroke:#181818;stroke-width:1.0;" x1="117.5" x2="387.5" y1="150.2871" y2="150.2871"/><text fill="#000000" font-family="sans-serif" font-size="13" lengthAdjust="spacing" textLength="252" x="124.5" y="145.5449">Transfer 1.451783117903207917 WETH</text><polygon fill="#181818" points="128.5,175.5977,118.5,179.5977,128.5,183.5977,124.5,179.5977" style="stroke:#181818;stroke-width:1.0;"/><line style="stroke:#181818;stroke-width:1.0;" x1="122.5" x2="523" y1="179.5977" y2="179.5977"/><text fill="#000000" font-family="sans-serif" font-size="13" lengthAdjust="spacing" textLength="143" x="134.5" y="174.8555">Transfer 2,500.0 USDC</text><polygon fill="#181818" points="535,204.9082,525,208.9082,535,212.9082,531,208.9082" style="stroke:#181818;stroke-width:1.0;"/><line style="stroke:#181818;stroke-width:1.0;" x1="529" x2="793" y1="208.9082" y2="208.9082"/><text fill="#000000" font-family="sans-serif" font-size="13" lengthAdjust="spacing" textLength="246" x="541" y="204.166">Transfer 61.905449748450144927 RPL</text><polygon fill="#181818" points="782,234.2188,792,238.2188,782,242.2188,786,238.2188" style="stroke:#181818;stroke-width:1.0;"/><line style="stroke:#181818;stroke-width:1.0;" x1="393.5" x2="788" y1="238.2188" y2="238.2188"/><text fill="#000000" font-family="sans-serif" font-size="13" lengthAdjust="spacing" textLength="252" x="400.5" y="233.4766">Transfer 1.451783117903207917 WETH</text><path d="M5,251.2188 L5,291.2188 L230,291.2188 L230,261.2188 L220,251.2188 L5,251.2188 " fill="#00FFFF" style="stroke:#181818;stroke-width:0.5;"/><path d="M220,251.2188 L220,261.2188 L230,261.2188 L220,251.2188 " fill="#00FFFF" style="stroke:#181818;stroke-width:0.5;"/><text fill="#000000" font-family="sans-serif" font-size="13" lengthAdjust="spacing" textLength="204" x="11" y="268.7871">-1.451783117903207917 WETH</text><text fill="#000000" font-family="sans-serif" font-size="13" lengthAdjust="spacing" textLength="87" x="11" y="284.0977">2,500.0 USDC</text><path d="M418,251.2188 L418,291.2188 L629,291.2188 L629,261.2188 L619,251.2188 L418,251.2188 " fill="#00FFFF" style="stroke:#181818;stroke-width:0.5;"/><path d="M619,251.2188 L619,261.2188 L629,261.2188 L619,251.2188 " fill="#00FFFF" style="stroke:#181818;stroke-width:0.5;"/><text fill="#000000" font-family="sans-serif" font-size="13" lengthAdjust="spacing" textLength="95" x="424" y="268.7871">-2,500.0 USDC</text><text fill="#000000" font-family="sans-serif" font-size="13" lengthAdjust="spacing" textLength="190" x="424" y="284.0977">61.905449748450144927 RPL</text><path d="M684,251.2188 L684,291.2188 L903,291.2188 L903,261.2188 L893,251.2188 L684,251.2188 " fill="#00FFFF" style="stroke:#181818;stroke-width:0.5;"/><path d="M893,251.2188 L893,261.2188 L903,261.2188 L893,251.2188 " fill="#00FFFF" style="stroke:#181818;stroke-width:0.5;"/><text fill="#000000" font-family="sans-serif" font-size="13" lengthAdjust="spacing" textLength="198" x="690" y="268.7871">-61.905449748450144927 RPL</text><text fill="#000000" font-family="sans-serif" font-size="13" lengthAdjust="spacing" textLength="196" x="690" y="284.0977">1.451783117903207917 WETH</text><!--SRC=[ZP5RJnin44RV_Ij6y1hSyMrjHoWI8cch2YH4GtdssbvfHUfDDqxBpyTBakKYWlhYzKXppdmxpcrUHS17YxL535u58J587PdXohZAXwQk7VELHAE3SOm9T0rQhz2Q6BZ7fYc78SIxTMwx1BzTcrBC4wXNdNy0fXLdaea9BBTn0XpXnpQL3nV0v1JjL5duThqaQzVdrhThbpASuACniQ9KbR4du3Omb4C1v-TtgTtyS-jVugRhLhFPUr0qbvPI_VLY_WoAnblTkB03_yP-urQttJR7lg3EvwuVe8MnDQNLtB1dA9Qo2eR1UtcKN52wgANQzPKobkA3L6HCV3ORGqnXsRkqQM8FZ4h5j16CQOk2exPCm_rY-PsCmmjuaBm2-KGXKeIxd_DBCWOelGVkLM_5g4KbfTNII8MitBY6svihCgvb0FUI_qf7IEfoXAviykLHJjsVhIDdnwcteLE0GKB85tYHZObsie-Rnjti9xxn7l_R8xB3ylQou_mdZtKmFm40]--></g></svg>
