<?xml version="1.0" encoding="UTF-8" standalone="no"?><svg xmlns:xlink="http://www.w3.org/1999/xlink" xmlns="http://www.w3.org/2000/svg" contentStyleType="text/css" height="472px" preserveAspectRatio="none" style="width:1005px;height:472px;background:#FFFFFF;" version="1.1" viewBox="0 0 1005 472" width="1005px" zoomAndPan="magnify"><defs/><g><text fill="#000000" font-family="sans-serif" font-size="14" font-weight="bold" lengthAdjust="spacing" textLength="546" x="228.25" y="28.5352">0xc4eaff5ab7bacc93c76433753517c831fe0ff10182da4fc086cdf49ec7ec15b9</text><text fill="#000000" font-family="sans-serif" font-size="14" lengthAdjust="spacing" textLength="404" x="299.25" y="460.1504">mainnet, block 17503581, Sun, 18 Jun 2023 02:04:59 GMT</text><line style="stroke:#181818;stroke-width:0.5;stroke-dasharray:5.0,5.0;" x1="117.5" x2="117.5" y1="135.4648" y2="352.6387"/><line style="stroke:#181818;stroke-width:0.5;stroke-dasharray:5.0,5.0;" x1="393" x2="393" y1="135.4648" y2="352.6387"/><line style="stroke:#181818;stroke-width:0.5;stroke-dasharray:5.0,5.0;" x1="675" x2="675" y1="135.4648" y2="352.6387"/><line style="stroke:#181818;stroke-width:0.5;stroke-dasharray:5.0,5.0;" x1="895.5" x2="895.5" y1="135.4648" y2="352.6387"/><rect fill="#E2E2F0" height="46.9766" rx="2.5" ry="2.5" style="stroke:#181818;stroke-width:0.5;" width="134" x="50.5" y="87.4883"/><text fill="#000000" font-family="sans-serif" font-size="14" font-style="italic" lengthAdjust="spacing" textLength="120" x="57.5" y="108.0234">«UniswapV3Pool»</text><text fill="#000000" font-family="sans-serif" font-size="14" lengthAdjust="spacing" textLength="97" x="69" y="124.5117">0x88e6..5640</text><rect fill="#E2E2F0" height="46.9766" rx="2.5" ry="2.5" style="stroke:#181818;stroke-width:0.5;" width="134" x="50.5" y="351.6387"/><text fill="#000000" font-family="sans-serif" font-size="14" font-style="italic" lengthAdjust="spacing" textLength="120" x="57.5" y="372.1738">«UniswapV3Pool»</text><text fill="#000000" font-family="sans-serif" font-size="14" lengthAdjust="spacing" textLength="97" x="69" y="388.6621">0x88e6..5640</text><rect fill="#E2E2F0" height="46.9766" rx="2.5" ry="2.5" style="stroke:#181818;stroke-width:0.5;" width="137" x="325" y="87.4883"/><text fill="#000000" font-family="sans-serif" font-size="14" font-style="italic" lengthAdjust="spacing" textLength="123" x="332" y="108.0234">«UniversalRouter»</text><text fill="#000000" font-family="sans-serif" font-size="14" lengthAdjust="spacing" textLength="96" x="345.5" y="124.5117">0x3fC9..7FAD</text><rect fill="#E2E2F0" height="46.9766" rx="2.5" ry="2.5" style="stroke:#181818;stroke-width:0.5;" width="137" x="325" y="351.6387"/><text fill="#000000" font-family="sans-serif" font-size="14" font-style="italic" lengthAdjust="spacing" textLength="123" x="332" y="372.1738">«UniversalRouter»</text><text fill="#000000" font-family="sans-serif" font-size="14" lengthAdjust="spacing" textLength="96" x="345.5" y="388.6621">0x3fC9..7FAD</text><rect fill="#E2E2F0" height="63.4648" rx="2.5" ry="2.5" style="stroke:#181818;stroke-width:0.5;" width="129" x="611" y="71"/><text fill="#000000" font-family="sans-serif" font-size="14" font-style="italic" lengthAdjust="spacing" textLength="115" x="618" y="91.5352">«Wrapped Ether»</text><text fill="#000000" font-family="sans-serif" font-size="14" font-style="italic" lengthAdjust="spacing" textLength="63" x="644" y="108.0234">«(WETH)»</text><text fill="#000000" font-family="sans-serif" font-size="14" lengthAdjust="spacing" textLength="97" x="627" y="124.5117">0xC02a..6Cc2</text><rect fill="#E2E2F0" height="63.4648" rx="2.5" ry="2.5" style="stroke:#181818;stroke-width:0.5;" width="129" x="611" y="351.6387"/><text fill="#000000" font-family="sans-serif" font-size="14" font-style="italic" lengthAdjust="spacing" textLength="115" x="618" y="372.1738">«Wrapped Ether»</text><text fill="#000000" font-family="sans-serif" font-size="14" font-style="italic" lengthAdjust="spacing" textLength="63" x="644" y="388.6621">«(WETH)»</text><text fill="#000000" font-family="sans-serif" font-size="14" lengthAdjust="spacing" textLength="97" x="627" y="405.1504">0xC02a..6Cc2</text><text fill="#000000" font-family="sans-serif" font-size="14" font-style="italic" lengthAdjust="spacing" textLength="83" x="851" y="116.0234">«(milai.eth)»</text><text fill="#000000" font-family="sans-serif" font-size="14" lengthAdjust="spacing" textLength="92" x="846.5" y="132.5117">0xF3f5..4eDF</text><ellipse cx="895.5" cy="50.9883" fill="#E2E2F0" rx="8" ry="8" style="stroke:#181818;stroke-width:0.5;"/><path d="M895.5,58.9883 L895.5,85.9883 M882.5,66.9883 L908.5,66.9883 M895.5,85.9883 L882.5,100.9883 M895.5,85.9883 L908.5,100.9883 " fill="none" style="stroke:#181818;stroke-width:0.5;"/><text fill="#000000" font-family="sans-serif" font-size="14" font-style="italic" lengthAdjust="spacing" textLength="83" x="851" y="365.1738">«(milai.eth)»</text><text fill="#000000" font-family="sans-serif" font-size="14" lengthAdjust="spacing" textLength="92" x="846.5" y="381.6621">0xF3f5..4eDF</text><ellipse cx="895.5" cy="393.1152" fill="#E2E2F0" rx="8" ry="8" style="stroke:#181818;stroke-width:0.5;"/><path d="M895.5,401.1152 L895.5,428.1152 M882.5,409.1152 L908.5,409.1152 M895.5,428.1152 L882.5,443.1152 M895.5,428.1152 L908.5,443.1152 " fill="none" style="stroke:#181818;stroke-width:0.5;"/><polygon fill="#181818" points="381.5,162.7754,391.5,166.7754,381.5,170.7754,385.5,166.7754" style="stroke:#181818;stroke-width:1.0;"/><line style="stroke:#181818;stroke-width:1.0;" x1="117.5" x2="387.5" y1="166.7754" y2="166.7754"/><text fill="#000000" font-family="sans-serif" font-size="13" lengthAdjust="spacing" textLength="252" x="124.5" y="162.0332">Transfer 0.032014634981414073 WETH</text><polygon fill="#181818" points="128.5,192.0859,118.5,196.0859,128.5,200.0859,124.5,196.0859" style="stroke:#181818;stroke-width:1.0;"/><line style="stroke:#181818;stroke-width:1.0;" x1="122.5" x2="894.5" y1="196.0859" y2="196.0859"/><text fill="#000000" font-family="sans-serif" font-size="13" lengthAdjust="spacing" textLength="163" x="134.5" y="191.3438">Transfer 55.311132 USDC</text><polygon fill="#181818" points="404.5,221.3965,394.5,225.3965,404.5,229.3965,400.5,225.3965" style="stroke:#181818;stroke-width:1.0;"/><line style="stroke:#181818;stroke-width:1.0;" x1="398.5" x2="674.5" y1="225.3965" y2="225.3965"/><text fill="#000000" font-family="sans-serif" font-size="13" lengthAdjust="spacing" textLength="185" x="410.5" y="220.6543">0.032014634981414073 ETH</text><line style="stroke:#181818;stroke-width:2.0;" x1="657.5" x2="667.5" y1="249.707" y2="259.707"/><line style="stroke:#181818;stroke-width:2.0;" x1="657.5" x2="667.5" y1="259.707" y2="249.707"/><line style="stroke:#181818;stroke-width:1.0;" x1="393.5" x2="662.5" y1="254.707" y2="254.707"/><text fill="#000000" font-family="sans-serif" font-size="13" lengthAdjust="spacing" textLength="258" x="400.5" y="249.9648">Withdraw 0.032014634981414073 WETH</text><polygon fill="#181818" points="883.5,280.0176,893.5,284.0176,883.5,288.0176,887.5,284.0176" style="stroke:#181818;stroke-width:1.0;"/><line style="stroke:#181818;stroke-width:1.0;" x1="393.5" x2="889.5" y1="284.0176" y2="284.0176"/><text fill="#000000" font-family="sans-serif" font-size="13" lengthAdjust="spacing" textLength="185" x="400.5" y="279.2754">0.032014634981414073 ETH</text><path d="M5,297.0176 L5,337.0176 L230,337.0176 L230,307.0176 L220,297.0176 L5,297.0176 " fill="#00FFFF" style="stroke:#181818;stroke-width:0.5;"/><path d="M220,297.0176 L220,307.0176 L230,307.0176 L220,297.0176 " fill="#00FFFF" style="stroke:#181818;stroke-width:0.5;"/><text fill="#000000" font-family="sans-serif" font-size="13" lengthAdjust="spacing" textLength="204" x="11" y="314.5859">-0.032014634981414073 WETH</text><text fill="#000000" font-family="sans-serif" font-size="13" lengthAdjust="spacing" textLength="107" x="11" y="329.8965">55.311132 USDC</text><path d="M792,297.0176 L792,337.0176 L998,337.0176 L998,307.0176 L988,297.0176 L792,297.0176 " fill="#00FFFF" style="stroke:#181818;stroke-width:0.5;"/><path d="M988,297.0176 L988,307.0176 L998,307.0176 L988,297.0176 " fill="#00FFFF" style="stroke:#181818;stroke-width:0.5;"/><text fill="#000000" font-family="sans-serif" font-size="13" lengthAdjust="spacing" textLength="115" x="798" y="314.5859">-55.311132 USDC</text><text fill="#000000" font-family="sans-serif" font-size="13" lengthAdjust="spacing" textLength="185" x="798" y="329.8965">0.032014634981414073 ETH</text><path d="M568,297.0176 L568,322.0176 L782,322.0176 L782,307.0176 L772,297.0176 L568,297.0176 " fill="#00FFFF" style="stroke:#181818;stroke-width:0.5;"/><path d="M772,297.0176 L772,307.0176 L782,307.0176 L772,297.0176 " fill="#00FFFF" style="stroke:#181818;stroke-width:0.5;"/><text fill="#000000" font-family="sans-serif" font-size="13" lengthAdjust="spacing" textLength="193" x="574" y="314.5859">-0.032014634981414073 ETH</text><!--SRC=[VP5TRzem58Rl_IkEkfjE0i-VSO8GqWHbqwHAqqh7zS6nHRJKoO9P-VbBw6PMHhayaf_dVSznh6BjW1siSkYznetPeBM5j2PJKXejDJSsbzmxvZrdF1SbAczPdjdIgy9PuopNcu8GYssicW1FM8NWuWWsTMD_03UQIPtp4JpimmXu3b_s0GGJ4fYOC3NH1NowNv4MkrZPgiKGuOOTyjnbbEfCiHl07GpZCC1q-XYgtJEst-NNfgbditDG-db1gLb-N1n1wMrXF9Olu2_NxR3-rkoZw_v7vqmWfTdSYYDg-p6pLlJekiEsTINSnUq0JgUtwxlLv_Uz0crikW5UIgyfLMwnFCA-7vKhVG_VFbKrLjJ5xG2GjCfubjfDODLXs7dN0QDC2iPL9bMHSyKLCnA6D9AKFVXNyW-eDPMSSodWyM4n9wdzgvZB-i6U3ZK-fCqdiAxYjkpm-Kgj4pXBMryB8YGqqK7J_yNfMz_XppsIyTifPzkvKCAW8UG3d7IfoelkygDqnZ-PP-OtUr-sfJDVs-0L_Xi0]--></g></svg>
