<?xml version="1.0" encoding="UTF-8" standalone="no"?><svg xmlns="http://www.w3.org/2000/svg" xmlns:xlink="http://www.w3.org/1999/xlink" contentStyleType="text/css" height="1633px" preserveAspectRatio="none" style="width:2490px;height:1633px;background:#FFFFFF;" version="1.1" viewBox="0 0 2490 1633" width="2490px" zoomAndPan="magnify"><defs/><g><text fill="#000000" font-family="sans-serif" font-size="14" font-weight="bold" lengthAdjust="spacing" textLength="558" x="965" y="28.5352">0xa87905dacd83c7ffaba0828ae52ecc1723c036432e97ee6e0af6e528e039ba3a</text><text fill="#000000" font-family="sans-serif" font-size="14" lengthAdjust="spacing" textLength="402" x="1043" y="1621.9727">mainnet, block 9545416, Mon, 24 Feb 2020 09:42:29 GMT</text><rect fill="#FFFFFF" height="1053.4531" style="stroke:#181818;stroke-width:1.0;" width="10" x="191" y="251.3047"/><rect fill="#FFFFFF" height="143.9316" style="stroke:#181818;stroke-width:1.0;" width="10" x="196" y="729.0313"/><rect fill="#FFFFFF" height="14" style="stroke:#181818;stroke-width:1.0;" width="10" x="377.5" y="280.6152"/><rect fill="#FFFFFF" height="14" style="stroke:#181818;stroke-width:1.0;" width="10" x="377.5" y="801.6523"/><rect fill="#FFFFFF" height="14" style="stroke:#181818;stroke-width:1.0;" width="10" x="377.5" y="1004.2051"/><rect fill="#FFFFFF" height="14" style="stroke:#181818;stroke-width:1.0;" width="10" x="377.5" y="1163.4473"/><rect fill="#FFFFFF" height="966.832" style="stroke:#181818;stroke-width:1.0;" width="10" x="653.5" y="323.9258"/><rect fill="#809ECB" height="923.5215" style="stroke:#181818;stroke-width:1.0;" width="10" x="865.5" y="353.2363"/><rect fill="#FFFFFF" height="57.3105" style="stroke:#181818;stroke-width:1.0;" width="10" x="1084.5" y="382.5469"/><rect fill="#FFFFFF" height="100.6211" style="stroke:#181818;stroke-width:1.0;" width="10" x="1084.5" y="599.0996"/><rect fill="#FFFFFF" height="317.1738" style="stroke:#181818;stroke-width:1.0;" width="10" x="1084.5" y="945.584"/><rect fill="#809ECB" height="14" style="stroke:#181818;stroke-width:1.0;" width="10" x="1313" y="411.8574"/><rect fill="#809ECB" height="57.3105" style="stroke:#181818;stroke-width:1.0;" width="10" x="1313" y="628.4102"/><rect fill="#809ECB" height="273.8633" style="stroke:#181818;stroke-width:1.0;" width="10" x="1313" y="974.8945"/><rect fill="#FFFFFF" height="14" style="stroke:#181818;stroke-width:1.0;" width="10" x="1458.5" y="469.168"/><rect fill="#FFFFFF" height="14" style="stroke:#181818;stroke-width:1.0;" width="10" x="1458.5" y="657.7207"/><rect fill="#FFFFFF" height="14" style="stroke:#181818;stroke-width:1.0;" width="10" x="1458.5" y="758.3418"/><rect fill="#FFFFFF" height="14" style="stroke:#181818;stroke-width:1.0;" width="10" x="1458.5" y="844.9629"/><rect fill="#FFFFFF" height="14" style="stroke:#181818;stroke-width:1.0;" width="10" x="1458.5" y="902.2734"/><rect fill="#FFFFFF" height="14" style="stroke:#181818;stroke-width:1.0;" width="10" x="1458.5" y="1047.5156"/><rect fill="#FFFFFF" height="14" style="stroke:#181818;stroke-width:1.0;" width="10" x="1458.5" y="1090.8262"/><rect fill="#FFFFFF" height="57.3105" style="stroke:#181818;stroke-width:1.0;" width="10" x="1676.5" y="512.4785"/><rect fill="#809ECB" height="14" style="stroke:#181818;stroke-width:1.0;" width="10" x="1955.5" y="541.7891"/><rect fill="#FFFFFF" height="100.6211" style="stroke:#181818;stroke-width:1.0;" width="10" x="2223" y="1134.1367"/><rect fill="#FFFFFF" height="14" style="stroke:#181818;stroke-width:1.0;" width="10" x="2423" y="1206.7578"/><line style="stroke:#181818;stroke-width:0.5;stroke-dasharray:5.0,5.0;" x1="80" x2="80" y1="123.4414" y2="1526.4844"/><line style="stroke:#181818;stroke-width:0.5;stroke-dasharray:5.0,5.0;" x1="196" x2="196" y1="123.4414" y2="1526.4844"/><line style="stroke:#181818;stroke-width:0.5;stroke-dasharray:5.0,5.0;" x1="382" x2="382" y1="123.4414" y2="1526.4844"/><line style="stroke:#181818;stroke-width:0.5;stroke-dasharray:5.0,5.0;" x1="658" x2="658" y1="123.4414" y2="1526.4844"/><line style="stroke:#181818;stroke-width:0.5;stroke-dasharray:5.0,5.0;" x1="870" x2="870" y1="123.4414" y2="1526.4844"/><line style="stroke:#181818;stroke-width:0.5;stroke-dasharray:5.0,5.0;" x1="1089" x2="1089" y1="123.4414" y2="1526.4844"/><line style="stroke:#181818;stroke-width:0.5;stroke-dasharray:5.0,5.0;" x1="1318" x2="1318" y1="123.4414" y2="1526.4844"/><line style="stroke:#181818;stroke-width:0.5;stroke-dasharray:5.0,5.0;" x1="1463" x2="1463" y1="123.4414" y2="1526.4844"/><line style="stroke:#181818;stroke-width:0.5;stroke-dasharray:5.0,5.0;" x1="1681" x2="1681" y1="123.4414" y2="1526.4844"/><line style="stroke:#181818;stroke-width:0.5;stroke-dasharray:5.0,5.0;" x1="1960" x2="1960" y1="123.4414" y2="1526.4844"/><line style="stroke:#181818;stroke-width:0.5;stroke-dasharray:5.0,5.0;" x1="2228" x2="2228" y1="123.4414" y2="1526.4844"/><line style="stroke:#181818;stroke-width:0.5;stroke-dasharray:5.0,5.0;" x1="2428" x2="2428" y1="123.4414" y2="1526.4844"/><text fill="#000000" font-family="sans-serif" font-size="14" lengthAdjust="spacing" textLength="93" x="31" y="120.4883">0x5ef0..8794</text><ellipse cx="80.5" cy="55.4531" fill="#E2E2F0" rx="8" ry="8" style="stroke:#181818;stroke-width:0.5;"/><path d="M80.5,63.4531 L80.5,90.4531 M67.5,71.4531 L93.5,71.4531 M80.5,90.4531 L67.5,105.4531 M80.5,90.4531 L93.5,105.4531 " fill="none" style="stroke:#181818;stroke-width:0.5;"/><text fill="#000000" font-family="sans-serif" font-size="14" lengthAdjust="spacing" textLength="93" x="31" y="1539.0195">0x5ef0..8794</text><ellipse cx="80.5" cy="1550.4727" fill="#E2E2F0" rx="8" ry="8" style="stroke:#181818;stroke-width:0.5;"/><path d="M80.5,1558.4727 L80.5,1585.4727 M67.5,1566.4727 L93.5,1566.4727 M80.5,1585.4727 L67.5,1600.4727 M80.5,1585.4727 L93.5,1600.4727 " fill="none" style="stroke:#181818;stroke-width:0.5;"/><rect fill="#E2E2F0" height="30.4883" rx="2.5" ry="2.5" style="stroke:#181818;stroke-width:0.5;" width="112" x="140" y="91.9531"/><text fill="#000000" font-family="sans-serif" font-size="14" lengthAdjust="spacing" textLength="98" x="147" y="112.4883">0x7735..4734</text><rect fill="#E2E2F0" height="30.4883" rx="2.5" ry="2.5" style="stroke:#181818;stroke-width:0.5;" width="112" x="140" y="1525.4844"/><text fill="#000000" font-family="sans-serif" font-size="14" lengthAdjust="spacing" textLength="98" x="147" y="1546.0195">0x7735..4734</text><rect fill="#E2E2F0" height="63.4648" rx="2.5" ry="2.5" style="stroke:#181818;stroke-width:0.5;" width="241" x="262" y="58.9766"/><text fill="#000000" font-family="sans-serif" font-size="14" font-style="italic" lengthAdjust="spacing" textLength="227" x="269" y="79.5117">«Aave: Lending Pool Provider V1»</text><text fill="#000000" font-family="sans-serif" font-size="14" font-style="italic" lengthAdjust="spacing" textLength="227" x="269" y="96">«LendingPoolAddressesProvider»</text><text fill="#000000" font-family="sans-serif" font-size="14" lengthAdjust="spacing" textLength="95" x="335" y="112.4883">0x24a4..48c8</text><rect fill="#E2E2F0" height="63.4648" rx="2.5" ry="2.5" style="stroke:#181818;stroke-width:0.5;" width="241" x="262" y="1525.4844"/><text fill="#000000" font-family="sans-serif" font-size="14" font-style="italic" lengthAdjust="spacing" textLength="227" x="269" y="1546.0195">«Aave: Lending Pool Provider V1»</text><text fill="#000000" font-family="sans-serif" font-size="14" font-style="italic" lengthAdjust="spacing" textLength="227" x="269" y="1562.5078">«LendingPoolAddressesProvider»</text><text fill="#000000" font-family="sans-serif" font-size="14" lengthAdjust="spacing" textLength="95" x="335" y="1578.9961">0x24a4..48c8</text><rect fill="#E2E2F0" height="63.4648" rx="2.5" ry="2.5" style="stroke:#181818;stroke-width:0.5;" width="291" x="513" y="58.9766"/><text fill="#000000" font-family="sans-serif" font-size="14" font-style="italic" lengthAdjust="spacing" textLength="166" x="575.5" y="79.5117">«Aave: Lending Pool V1»</text><text fill="#000000" font-family="sans-serif" font-size="14" font-style="italic" lengthAdjust="spacing" textLength="277" x="520" y="96">«InitializableAdminUpgradeabilityProxy»</text><text fill="#000000" font-family="sans-serif" font-size="14" lengthAdjust="spacing" textLength="97" x="610" y="112.4883">0x398e..d119</text><rect fill="#E2E2F0" height="63.4648" rx="2.5" ry="2.5" style="stroke:#181818;stroke-width:0.5;" width="291" x="513" y="1525.4844"/><text fill="#000000" font-family="sans-serif" font-size="14" font-style="italic" lengthAdjust="spacing" textLength="166" x="575.5" y="1546.0195">«Aave: Lending Pool V1»</text><text fill="#000000" font-family="sans-serif" font-size="14" font-style="italic" lengthAdjust="spacing" textLength="277" x="520" y="1562.5078">«InitializableAdminUpgradeabilityProxy»</text><text fill="#000000" font-family="sans-serif" font-size="14" lengthAdjust="spacing" textLength="97" x="610" y="1578.9961">0x398e..d119</text><rect fill="#E2E2F0" height="46.9766" rx="2.5" ry="2.5" style="stroke:#181818;stroke-width:0.5;" width="113" x="814" y="75.4648"/><text fill="#000000" font-family="sans-serif" font-size="14" font-style="italic" lengthAdjust="spacing" textLength="99" x="821" y="96">«LendingPool»</text><text fill="#000000" font-family="sans-serif" font-size="14" lengthAdjust="spacing" textLength="98" x="821.5" y="112.4883">0x6d25..4750</text><rect fill="#E2E2F0" height="46.9766" rx="2.5" ry="2.5" style="stroke:#181818;stroke-width:0.5;" width="113" x="814" y="1525.4844"/><text fill="#000000" font-family="sans-serif" font-size="14" font-style="italic" lengthAdjust="spacing" textLength="99" x="821" y="1546.0195">«LendingPool»</text><text fill="#000000" font-family="sans-serif" font-size="14" lengthAdjust="spacing" textLength="98" x="821.5" y="1562.5078">0x6d25..4750</text><rect fill="#E2E2F0" height="63.4648" rx="2.5" ry="2.5" style="stroke:#181818;stroke-width:0.5;" width="291" x="944" y="58.9766"/><text fill="#000000" font-family="sans-serif" font-size="14" font-style="italic" lengthAdjust="spacing" textLength="203" x="988" y="79.5117">«Aave: Lending Pool Core V1»</text><text fill="#000000" font-family="sans-serif" font-size="14" font-style="italic" lengthAdjust="spacing" textLength="277" x="951" y="96">«InitializableAdminUpgradeabilityProxy»</text><text fill="#000000" font-family="sans-serif" font-size="14" lengthAdjust="spacing" textLength="94" x="1042.5" y="112.4883">0x3dfd..76d3</text><rect fill="#E2E2F0" height="63.4648" rx="2.5" ry="2.5" style="stroke:#181818;stroke-width:0.5;" width="291" x="944" y="1525.4844"/><text fill="#000000" font-family="sans-serif" font-size="14" font-style="italic" lengthAdjust="spacing" textLength="203" x="988" y="1546.0195">«Aave: Lending Pool Core V1»</text><text fill="#000000" font-family="sans-serif" font-size="14" font-style="italic" lengthAdjust="spacing" textLength="277" x="951" y="1562.5078">«InitializableAdminUpgradeabilityProxy»</text><text fill="#000000" font-family="sans-serif" font-size="14" lengthAdjust="spacing" textLength="94" x="1042.5" y="1578.9961">0x3dfd..76d3</text><rect fill="#E2E2F0" height="46.9766" rx="2.5" ry="2.5" style="stroke:#181818;stroke-width:0.5;" width="146" x="1245" y="75.4648"/><text fill="#000000" font-family="sans-serif" font-size="14" font-style="italic" lengthAdjust="spacing" textLength="132" x="1252" y="96">«LendingPoolCore»</text><text fill="#000000" font-family="sans-serif" font-size="14" lengthAdjust="spacing" textLength="95" x="1270.5" y="112.4883">0xc1d2..632a</text><rect fill="#E2E2F0" height="46.9766" rx="2.5" ry="2.5" style="stroke:#181818;stroke-width:0.5;" width="146" x="1245" y="1525.4844"/><text fill="#000000" font-family="sans-serif" font-size="14" font-style="italic" lengthAdjust="spacing" textLength="132" x="1252" y="1546.0195">«LendingPoolCore»</text><text fill="#000000" font-family="sans-serif" font-size="14" lengthAdjust="spacing" textLength="95" x="1270.5" y="1562.5078">0xc1d2..632a</text><rect fill="#E2E2F0" height="79.9531" rx="2.5" ry="2.5" style="stroke:#181818;stroke-width:0.5;" width="125" x="1401" y="42.4883"/><text fill="#000000" font-family="sans-serif" font-size="14" font-style="italic" lengthAdjust="spacing" textLength="111" x="1408" y="63.0234">«Dai Stablecoin»</text><text fill="#000000" font-family="sans-serif" font-size="14" font-style="italic" lengthAdjust="spacing" textLength="48" x="1439.5" y="79.5117">«(DAI)»</text><text fill="#000000" font-family="sans-serif" font-size="14" font-style="italic" lengthAdjust="spacing" textLength="36" x="1445.5" y="96">«Dai»</text><text fill="#000000" font-family="sans-serif" font-size="14" lengthAdjust="spacing" textLength="94" x="1416.5" y="112.4883">0x6b17..1d0f</text><rect fill="#E2E2F0" height="79.9531" rx="2.5" ry="2.5" style="stroke:#181818;stroke-width:0.5;" width="125" x="1401" y="1525.4844"/><text fill="#000000" font-family="sans-serif" font-size="14" font-style="italic" lengthAdjust="spacing" textLength="111" x="1408" y="1546.0195">«Dai Stablecoin»</text><text fill="#000000" font-family="sans-serif" font-size="14" font-style="italic" lengthAdjust="spacing" textLength="48" x="1439.5" y="1562.5078">«(DAI)»</text><text fill="#000000" font-family="sans-serif" font-size="14" font-style="italic" lengthAdjust="spacing" textLength="36" x="1445.5" y="1578.9961">«Dai»</text><text fill="#000000" font-family="sans-serif" font-size="14" lengthAdjust="spacing" textLength="94" x="1416.5" y="1595.4844">0x6b17..1d0f</text><rect fill="#E2E2F0" height="46.9766" rx="2.5" ry="2.5" style="stroke:#181818;stroke-width:0.5;" width="291" x="1536" y="75.4648"/><text fill="#000000" font-family="sans-serif" font-size="14" font-style="italic" lengthAdjust="spacing" textLength="277" x="1543" y="96">«InitializableAdminUpgradeabilityProxy»</text><text fill="#000000" font-family="sans-serif" font-size="14" lengthAdjust="spacing" textLength="88" x="1637.5" y="112.4883">0xeac9..c66f</text><rect fill="#E2E2F0" height="46.9766" rx="2.5" ry="2.5" style="stroke:#181818;stroke-width:0.5;" width="291" x="1536" y="1525.4844"/><text fill="#000000" font-family="sans-serif" font-size="14" font-style="italic" lengthAdjust="spacing" textLength="277" x="1543" y="1546.0195">«InitializableAdminUpgradeabilityProxy»</text><text fill="#000000" font-family="sans-serif" font-size="14" lengthAdjust="spacing" textLength="88" x="1637.5" y="1562.5078">0xeac9..c66f</text><rect fill="#E2E2F0" height="46.9766" rx="2.5" ry="2.5" style="stroke:#181818;stroke-width:0.5;" width="247" x="1837" y="75.4648"/><text fill="#000000" font-family="sans-serif" font-size="14" font-style="italic" lengthAdjust="spacing" textLength="233" x="1844" y="96">«LendingPoolParametersProvider»</text><text fill="#000000" font-family="sans-serif" font-size="14" lengthAdjust="spacing" textLength="93" x="1914" y="112.4883">0xe800..5f07</text><rect fill="#E2E2F0" height="46.9766" rx="2.5" ry="2.5" style="stroke:#181818;stroke-width:0.5;" width="247" x="1837" y="1525.4844"/><text fill="#000000" font-family="sans-serif" font-size="14" font-style="italic" lengthAdjust="spacing" textLength="233" x="1844" y="1546.0195">«LendingPoolParametersProvider»</text><text fill="#000000" font-family="sans-serif" font-size="14" lengthAdjust="spacing" textLength="93" x="1914" y="1562.5078">0xe800..5f07</text><rect fill="#E2E2F0" height="46.9766" rx="2.5" ry="2.5" style="stroke:#181818;stroke-width:0.5;" width="268" x="2094" y="75.4648"/><text fill="#000000" font-family="sans-serif" font-size="14" font-style="italic" lengthAdjust="spacing" textLength="254" x="2101" y="96">«DefaultReserveInterestRateStrategy»</text><text fill="#000000" font-family="sans-serif" font-size="14" lengthAdjust="spacing" textLength="88" x="2184" y="112.4883">0x3bcf..b05f</text><rect fill="#E2E2F0" height="46.9766" rx="2.5" ry="2.5" style="stroke:#181818;stroke-width:0.5;" width="268" x="2094" y="1525.4844"/><text fill="#000000" font-family="sans-serif" font-size="14" font-style="italic" lengthAdjust="spacing" textLength="254" x="2101" y="1546.0195">«DefaultReserveInterestRateStrategy»</text><text fill="#000000" font-family="sans-serif" font-size="14" lengthAdjust="spacing" textLength="88" x="2184" y="1562.5078">0x3bcf..b05f</text><rect fill="#E2E2F0" height="30.4883" rx="2.5" ry="2.5" style="stroke:#181818;stroke-width:0.5;" width="112" x="2372" y="91.9531"/><text fill="#000000" font-family="sans-serif" font-size="14" lengthAdjust="spacing" textLength="98" x="2379" y="112.4883">0x9589..8881</text><rect fill="#E2E2F0" height="30.4883" rx="2.5" ry="2.5" style="stroke:#181818;stroke-width:0.5;" width="112" x="2372" y="1525.4844"/><text fill="#000000" font-family="sans-serif" font-size="14" lengthAdjust="spacing" textLength="98" x="2379" y="1546.0195">0x9589..8881</text><rect fill="#FFFFFF" height="1053.4531" style="stroke:#181818;stroke-width:1.0;" width="10" x="191" y="251.3047"/><rect fill="#FFFFFF" height="143.9316" style="stroke:#181818;stroke-width:1.0;" width="10" x="196" y="729.0313"/><rect fill="#FFFFFF" height="14" style="stroke:#181818;stroke-width:1.0;" width="10" x="377.5" y="280.6152"/><rect fill="#FFFFFF" height="14" style="stroke:#181818;stroke-width:1.0;" width="10" x="377.5" y="801.6523"/><rect fill="#FFFFFF" height="14" style="stroke:#181818;stroke-width:1.0;" width="10" x="377.5" y="1004.2051"/><rect fill="#FFFFFF" height="14" style="stroke:#181818;stroke-width:1.0;" width="10" x="377.5" y="1163.4473"/><rect fill="#FFFFFF" height="966.832" style="stroke:#181818;stroke-width:1.0;" width="10" x="653.5" y="323.9258"/><rect fill="#809ECB" height="923.5215" style="stroke:#181818;stroke-width:1.0;" width="10" x="865.5" y="353.2363"/><rect fill="#FFFFFF" height="57.3105" style="stroke:#181818;stroke-width:1.0;" width="10" x="1084.5" y="382.5469"/><rect fill="#FFFFFF" height="100.6211" style="stroke:#181818;stroke-width:1.0;" width="10" x="1084.5" y="599.0996"/><rect fill="#FFFFFF" height="317.1738" style="stroke:#181818;stroke-width:1.0;" width="10" x="1084.5" y="945.584"/><rect fill="#809ECB" height="14" style="stroke:#181818;stroke-width:1.0;" width="10" x="1313" y="411.8574"/><rect fill="#809ECB" height="57.3105" style="stroke:#181818;stroke-width:1.0;" width="10" x="1313" y="628.4102"/><rect fill="#809ECB" height="273.8633" style="stroke:#181818;stroke-width:1.0;" width="10" x="1313" y="974.8945"/><rect fill="#FFFFFF" height="14" style="stroke:#181818;stroke-width:1.0;" width="10" x="1458.5" y="469.168"/><rect fill="#FFFFFF" height="14" style="stroke:#181818;stroke-width:1.0;" width="10" x="1458.5" y="657.7207"/><rect fill="#FFFFFF" height="14" style="stroke:#181818;stroke-width:1.0;" width="10" x="1458.5" y="758.3418"/><rect fill="#FFFFFF" height="14" style="stroke:#181818;stroke-width:1.0;" width="10" x="1458.5" y="844.9629"/><rect fill="#FFFFFF" height="14" style="stroke:#181818;stroke-width:1.0;" width="10" x="1458.5" y="902.2734"/><rect fill="#FFFFFF" height="14" style="stroke:#181818;stroke-width:1.0;" width="10" x="1458.5" y="1047.5156"/><rect fill="#FFFFFF" height="14" style="stroke:#181818;stroke-width:1.0;" width="10" x="1458.5" y="1090.8262"/><rect fill="#FFFFFF" height="57.3105" style="stroke:#181818;stroke-width:1.0;" width="10" x="1676.5" y="512.4785"/><rect fill="#809ECB" height="14" style="stroke:#181818;stroke-width:1.0;" width="10" x="1955.5" y="541.7891"/><rect fill="#FFFFFF" height="100.6211" style="stroke:#181818;stroke-width:1.0;" width="10" x="2223" y="1134.1367"/><rect fill="#FFFFFF" height="14" style="stroke:#181818;stroke-width:1.0;" width="10" x="2423" y="1206.7578"/><path d="M5,138.4414 L5,224.4414 L157,224.4414 L157,148.4414 L147,138.4414 L5,138.4414 " fill="#FEFFDD" style="stroke:#181818;stroke-width:0.5;"/><path d="M147,138.4414 L147,148.4414 L157,148.4414 L147,138.4414 " fill="#FEFFDD" style="stroke:#181818;stroke-width:0.5;"/><text fill="#000000" font-family="sans-serif" font-size="13" lengthAdjust="spacing" textLength="72" x="11" y="156.0098">Nonce: 196</text><text fill="#000000" font-family="sans-serif" font-size="13" lengthAdjust="spacing" textLength="127" x="11" y="171.3203">Gas Price: 18.0 Gwei</text><text fill="#000000" font-family="sans-serif" font-size="13" lengthAdjust="spacing" textLength="131" x="11" y="186.6309">Gas Limit: 6,967,294</text><text fill="#000000" font-family="sans-serif" font-size="13" lengthAdjust="spacing" textLength="118" x="11" y="201.9414">Gas Used: 203,558</text><text fill="#000000" font-family="sans-serif" font-size="13" lengthAdjust="spacing" textLength="114" x="11" y="217.252">Tx Fee: 0.004 ETH</text><polygon fill="#181818" points="179,247.3047,189,251.3047,179,255.3047,183,251.3047" style="stroke:#181818;stroke-width:1.0;"/><line style="stroke:#181818;stroke-width:1.0;" x1="80.5" x2="185" y1="251.3047" y2="251.3047"/><text fill="#000000" font-family="sans-serif" font-size="13" lengthAdjust="spacing" textLength="77" x="87.5" y="246.5625">0x619ce2da</text><polygon fill="#181818" points="365.5,276.6152,375.5,280.6152,365.5,284.6152,369.5,280.6152" style="stroke:#181818;stroke-width:1.0;"/><line style="stroke:#181818;stroke-width:1.0;" x1="201" x2="371.5" y1="280.6152" y2="280.6152"/><text fill="#000000" font-family="sans-serif" font-size="13" lengthAdjust="spacing" textLength="97" x="208" y="275.873">getLendingPool</text><polygon fill="#181818" points="212,290.6152,202,294.6152,212,298.6152,208,294.6152" style="stroke:#181818;stroke-width:1.0;"/><line style="stroke:#181818;stroke-width:1.0;stroke-dasharray:2.0,2.0;" x1="206" x2="381.5" y1="294.6152" y2="294.6152"/><polygon fill="#181818" points="641.5,319.9258,651.5,323.9258,641.5,327.9258,645.5,323.9258" style="stroke:#181818;stroke-width:1.0;"/><line style="stroke:#181818;stroke-width:1.0;stroke-dasharray:2.0,2.0;" x1="201" x2="647.5" y1="323.9258" y2="323.9258"/><text fill="#000000" font-family="sans-serif" font-size="13" lengthAdjust="spacing" textLength="61" x="208" y="319.1836">flashLoan</text><line style="stroke:#181818;stroke-width:1.0;" x1="863.5" x2="853.5" y1="353.2363" y2="349.2363"/><line style="stroke:#181818;stroke-width:1.0;" x1="863.5" x2="853.5" y1="353.2363" y2="357.2363"/><line style="stroke:#181818;stroke-width:1.0;" x1="663.5" x2="864.5" y1="353.2363" y2="353.2363"/><text fill="#000000" font-family="sans-serif" font-size="13" lengthAdjust="spacing" textLength="61" x="670.5" y="348.4941">flashLoan</text><polygon fill="#3471CD" points="1072.5,378.5469,1082.5,382.5469,1072.5,386.5469,1076.5,382.5469" style="stroke:#3471CD;stroke-width:1.0;"/><line style="stroke:#3471CD;stroke-width:1.0;stroke-dasharray:2.0,2.0;" x1="663.5" x2="1078.5" y1="382.5469" y2="382.5469"/><text fill="#000000" font-family="sans-serif" font-size="13" lengthAdjust="spacing" textLength="118" x="670.5" y="377.8047">getReserveIsActive</text><line style="stroke:#181818;stroke-width:1.0;" x1="1311" x2="1301" y1="411.8574" y2="407.8574"/><line style="stroke:#181818;stroke-width:1.0;" x1="1311" x2="1301" y1="411.8574" y2="415.8574"/><line style="stroke:#181818;stroke-width:1.0;" x1="1094.5" x2="1312" y1="411.8574" y2="411.8574"/><text fill="#000000" font-family="sans-serif" font-size="13" lengthAdjust="spacing" textLength="118" x="1101.5" y="407.1152">getReserveIsActive</text><line style="stroke:#181818;stroke-width:1.0;" x1="1095.5" x2="1105.5" y1="425.8574" y2="421.8574"/><line style="stroke:#181818;stroke-width:1.0;" x1="1095.5" x2="1105.5" y1="425.8574" y2="429.8574"/><line style="stroke:#181818;stroke-width:1.0;stroke-dasharray:2.0,2.0;" x1="1094.5" x2="1317" y1="425.8574" y2="425.8574"/><polygon fill="#3471CD" points="674.5,435.8574,664.5,439.8574,674.5,443.8574,670.5,439.8574" style="stroke:#3471CD;stroke-width:1.0;"/><line style="stroke:#3471CD;stroke-width:1.0;stroke-dasharray:2.0,2.0;" x1="668.5" x2="1088.5" y1="439.8574" y2="439.8574"/><polygon fill="#3471CD" points="1446.5,465.168,1456.5,469.168,1446.5,473.168,1450.5,469.168" style="stroke:#3471CD;stroke-width:1.0;"/><line style="stroke:#3471CD;stroke-width:1.0;" x1="663.5" x2="1452.5" y1="469.168" y2="469.168"/><text fill="#000000" font-family="sans-serif" font-size="13" lengthAdjust="spacing" textLength="63" x="670.5" y="464.4258">balanceOf</text><polygon fill="#3471CD" points="674.5,479.168,664.5,483.168,674.5,487.168,670.5,483.168" style="stroke:#3471CD;stroke-width:1.0;"/><line style="stroke:#3471CD;stroke-width:1.0;stroke-dasharray:2.0,2.0;" x1="668.5" x2="1462.5" y1="483.168" y2="483.168"/><polygon fill="#3471CD" points="1664.5,508.4785,1674.5,512.4785,1664.5,516.4785,1668.5,512.4785" style="stroke:#3471CD;stroke-width:1.0;"/><line style="stroke:#3471CD;stroke-width:1.0;stroke-dasharray:2.0,2.0;" x1="663.5" x2="1670.5" y1="512.4785" y2="512.4785"/><text fill="#000000" font-family="sans-serif" font-size="13" lengthAdjust="spacing" textLength="149" x="670.5" y="507.7363">getFlashLoanFeesInBips</text><line style="stroke:#181818;stroke-width:1.0;" x1="1953.5" x2="1943.5" y1="541.7891" y2="537.7891"/><line style="stroke:#181818;stroke-width:1.0;" x1="1953.5" x2="1943.5" y1="541.7891" y2="545.7891"/><line style="stroke:#181818;stroke-width:1.0;" x1="1686.5" x2="1954.5" y1="541.7891" y2="541.7891"/><text fill="#000000" font-family="sans-serif" font-size="13" lengthAdjust="spacing" textLength="149" x="1693.5" y="537.0469">getFlashLoanFeesInBips</text><line style="stroke:#181818;stroke-width:1.0;" x1="1687.5" x2="1697.5" y1="555.7891" y2="551.7891"/><line style="stroke:#181818;stroke-width:1.0;" x1="1687.5" x2="1697.5" y1="555.7891" y2="559.7891"/><line style="stroke:#181818;stroke-width:1.0;stroke-dasharray:2.0,2.0;" x1="1686.5" x2="1959.5" y1="555.7891" y2="555.7891"/><polygon fill="#3471CD" points="674.5,565.7891,664.5,569.7891,674.5,573.7891,670.5,569.7891" style="stroke:#3471CD;stroke-width:1.0;"/><line style="stroke:#3471CD;stroke-width:1.0;stroke-dasharray:2.0,2.0;" x1="668.5" x2="1680.5" y1="569.7891" y2="569.7891"/><polygon fill="#3471CD" points="1072.5,595.0996,1082.5,599.0996,1072.5,603.0996,1076.5,599.0996" style="stroke:#3471CD;stroke-width:1.0;"/><line style="stroke:#3471CD;stroke-width:1.0;stroke-dasharray:2.0,2.0;" x1="663.5" x2="1078.5" y1="599.0996" y2="599.0996"/><text fill="#000000" font-family="sans-serif" font-size="13" lengthAdjust="spacing" textLength="93" x="670.5" y="594.3574">transferToUser</text><line style="stroke:#181818;stroke-width:1.0;" x1="1311" x2="1301" y1="628.4102" y2="624.4102"/><line style="stroke:#181818;stroke-width:1.0;" x1="1311" x2="1301" y1="628.4102" y2="632.4102"/><line style="stroke:#181818;stroke-width:1.0;" x1="1094.5" x2="1312" y1="628.4102" y2="628.4102"/><text fill="#000000" font-family="sans-serif" font-size="13" lengthAdjust="spacing" textLength="93" x="1101.5" y="623.668">transferToUser</text><polygon fill="#3471CD" points="1446.5,653.7207,1456.5,657.7207,1446.5,661.7207,1450.5,657.7207" style="stroke:#3471CD;stroke-width:1.0;"/><line style="stroke:#3471CD;stroke-width:1.0;" x1="1094.5" x2="1452.5" y1="657.7207" y2="657.7207"/><text fill="#000000" font-family="sans-serif" font-size="13" lengthAdjust="spacing" textLength="49" x="1101.5" y="652.9785">transfer</text><polygon fill="#3471CD" points="1105.5,667.7207,1095.5,671.7207,1105.5,675.7207,1101.5,671.7207" style="stroke:#3471CD;stroke-width:1.0;"/><line style="stroke:#3471CD;stroke-width:1.0;stroke-dasharray:2.0,2.0;" x1="1099.5" x2="1462.5" y1="671.7207" y2="671.7207"/><line style="stroke:#181818;stroke-width:1.0;" x1="1095.5" x2="1105.5" y1="685.7207" y2="681.7207"/><line style="stroke:#181818;stroke-width:1.0;" x1="1095.5" x2="1105.5" y1="685.7207" y2="689.7207"/><line style="stroke:#181818;stroke-width:1.0;stroke-dasharray:2.0,2.0;" x1="1094.5" x2="1317" y1="685.7207" y2="685.7207"/><polygon fill="#3471CD" points="674.5,695.7207,664.5,699.7207,674.5,703.7207,670.5,699.7207" style="stroke:#3471CD;stroke-width:1.0;"/><line style="stroke:#3471CD;stroke-width:1.0;stroke-dasharray:2.0,2.0;" x1="668.5" x2="1088.5" y1="699.7207" y2="699.7207"/><polygon fill="#3471CD" points="217,725.0313,207,729.0313,217,733.0313,213,729.0313" style="stroke:#3471CD;stroke-width:1.0;"/><line style="stroke:#3471CD;stroke-width:1.0;" x1="211" x2="652.5" y1="729.0313" y2="729.0313"/><text fill="#000000" font-family="sans-serif" font-size="13" lengthAdjust="spacing" textLength="78" x="223" y="724.2891">0xee872558</text><polygon fill="#181818" points="1446.5,754.3418,1456.5,758.3418,1446.5,762.3418,1450.5,758.3418" style="stroke:#181818;stroke-width:1.0;"/><line style="stroke:#181818;stroke-width:1.0;" x1="206" x2="1452.5" y1="758.3418" y2="758.3418"/><text fill="#000000" font-family="sans-serif" font-size="13" lengthAdjust="spacing" textLength="63" x="213" y="753.5996">balanceOf</text><polygon fill="#181818" points="217,768.3418,207,772.3418,217,776.3418,213,772.3418" style="stroke:#181818;stroke-width:1.0;"/><line style="stroke:#181818;stroke-width:1.0;stroke-dasharray:2.0,2.0;" x1="211" x2="1462.5" y1="772.3418" y2="772.3418"/><polygon fill="#181818" points="365.5,797.6523,375.5,801.6523,365.5,805.6523,369.5,801.6523" style="stroke:#181818;stroke-width:1.0;"/><line style="stroke:#181818;stroke-width:1.0;" x1="206" x2="371.5" y1="801.6523" y2="801.6523"/><text fill="#000000" font-family="sans-serif" font-size="13" lengthAdjust="spacing" textLength="126" x="213" y="796.9102">getLendingPoolCore</text><polygon fill="#181818" points="217,811.6523,207,815.6523,217,819.6523,213,815.6523" style="stroke:#181818;stroke-width:1.0;"/><line style="stroke:#181818;stroke-width:1.0;stroke-dasharray:2.0,2.0;" x1="211" x2="381.5" y1="815.6523" y2="815.6523"/><polygon fill="#181818" points="1446.5,840.9629,1456.5,844.9629,1446.5,848.9629,1450.5,844.9629" style="stroke:#181818;stroke-width:1.0;"/><line style="stroke:#181818;stroke-width:1.0;" x1="206" x2="1452.5" y1="844.9629" y2="844.9629"/><text fill="#000000" font-family="sans-serif" font-size="13" lengthAdjust="spacing" textLength="49" x="213" y="840.2207">transfer</text><polygon fill="#181818" points="217,854.9629,207,858.9629,217,862.9629,213,858.9629" style="stroke:#181818;stroke-width:1.0;"/><line style="stroke:#181818;stroke-width:1.0;stroke-dasharray:2.0,2.0;" x1="211" x2="1462.5" y1="858.9629" y2="858.9629"/><polygon fill="#3471CD" points="641.5,868.9629,651.5,872.9629,641.5,876.9629,645.5,872.9629" style="stroke:#3471CD;stroke-width:1.0;"/><line style="stroke:#3471CD;stroke-width:1.0;stroke-dasharray:2.0,2.0;" x1="201" x2="647.5" y1="872.9629" y2="872.9629"/><polygon fill="#3471CD" points="1446.5,898.2734,1456.5,902.2734,1446.5,906.2734,1450.5,902.2734" style="stroke:#3471CD;stroke-width:1.0;"/><line style="stroke:#3471CD;stroke-width:1.0;" x1="663.5" x2="1452.5" y1="902.2734" y2="902.2734"/><text fill="#000000" font-family="sans-serif" font-size="13" lengthAdjust="spacing" textLength="63" x="670.5" y="897.5313">balanceOf</text><polygon fill="#3471CD" points="674.5,912.2734,664.5,916.2734,674.5,920.2734,670.5,916.2734" style="stroke:#3471CD;stroke-width:1.0;"/><line style="stroke:#3471CD;stroke-width:1.0;stroke-dasharray:2.0,2.0;" x1="668.5" x2="1462.5" y1="916.2734" y2="916.2734"/><polygon fill="#3471CD" points="1072.5,941.584,1082.5,945.584,1072.5,949.584,1076.5,945.584" style="stroke:#3471CD;stroke-width:1.0;"/><line style="stroke:#3471CD;stroke-width:1.0;stroke-dasharray:2.0,2.0;" x1="663.5" x2="1078.5" y1="945.584" y2="945.584"/><text fill="#000000" font-family="sans-serif" font-size="13" lengthAdjust="spacing" textLength="155" x="670.5" y="940.8418">updateStateOnFlashLoan</text><line style="stroke:#181818;stroke-width:1.0;" x1="1311" x2="1301" y1="974.8945" y2="970.8945"/><line style="stroke:#181818;stroke-width:1.0;" x1="1311" x2="1301" y1="974.8945" y2="978.8945"/><line style="stroke:#181818;stroke-width:1.0;" x1="1094.5" x2="1312" y1="974.8945" y2="974.8945"/><text fill="#000000" font-family="sans-serif" font-size="13" lengthAdjust="spacing" textLength="155" x="1101.5" y="970.1523">updateStateOnFlashLoan</text><polygon fill="#3471CD" points="398.5,1000.2051,388.5,1004.2051,398.5,1008.2051,394.5,1004.2051" style="stroke:#3471CD;stroke-width:1.0;"/><line style="stroke:#3471CD;stroke-width:1.0;" x1="392.5" x2="1083.5" y1="1004.2051" y2="1004.2051"/><text fill="#000000" font-family="sans-serif" font-size="13" lengthAdjust="spacing" textLength="128" x="404.5" y="999.4629">getTokenDistributor</text><polygon fill="#3471CD" points="1072.5,1014.2051,1082.5,1018.2051,1072.5,1022.2051,1076.5,1018.2051" style="stroke:#3471CD;stroke-width:1.0;"/><line style="stroke:#3471CD;stroke-width:1.0;stroke-dasharray:2.0,2.0;" x1="382.5" x2="1078.5" y1="1018.2051" y2="1018.2051"/><polygon fill="#3471CD" points="1446.5,1043.5156,1456.5,1047.5156,1446.5,1051.5156,1450.5,1047.5156" style="stroke:#3471CD;stroke-width:1.0;"/><line style="stroke:#3471CD;stroke-width:1.0;" x1="1094.5" x2="1452.5" y1="1047.5156" y2="1047.5156"/><text fill="#000000" font-family="sans-serif" font-size="13" lengthAdjust="spacing" textLength="49" x="1101.5" y="1042.7734">transfer</text><polygon fill="#3471CD" points="1105.5,1057.5156,1095.5,1061.5156,1105.5,1065.5156,1101.5,1061.5156" style="stroke:#3471CD;stroke-width:1.0;"/><line style="stroke:#3471CD;stroke-width:1.0;stroke-dasharray:2.0,2.0;" x1="1099.5" x2="1462.5" y1="1061.5156" y2="1061.5156"/><polygon fill="#3471CD" points="1446.5,1086.8262,1456.5,1090.8262,1446.5,1094.8262,1450.5,1090.8262" style="stroke:#3471CD;stroke-width:1.0;"/><line style="stroke:#3471CD;stroke-width:1.0;" x1="1094.5" x2="1452.5" y1="1090.8262" y2="1090.8262"/><text fill="#000000" font-family="sans-serif" font-size="13" lengthAdjust="spacing" textLength="63" x="1101.5" y="1086.084">balanceOf</text><polygon fill="#3471CD" points="1105.5,1100.8262,1095.5,1104.8262,1105.5,1108.8262,1101.5,1104.8262" style="stroke:#3471CD;stroke-width:1.0;"/><line style="stroke:#3471CD;stroke-width:1.0;stroke-dasharray:2.0,2.0;" x1="1099.5" x2="1462.5" y1="1104.8262" y2="1104.8262"/><polygon fill="#3471CD" points="2211,1130.1367,2221,1134.1367,2211,1138.1367,2215,1134.1367" style="stroke:#3471CD;stroke-width:1.0;"/><line style="stroke:#3471CD;stroke-width:1.0;" x1="1094.5" x2="2217" y1="1134.1367" y2="1134.1367"/><text fill="#000000" font-family="sans-serif" font-size="13" lengthAdjust="spacing" textLength="138" x="1101.5" y="1129.3945">calculateInterestRates</text><polygon fill="#181818" points="398.5,1159.4473,388.5,1163.4473,398.5,1167.4473,394.5,1163.4473" style="stroke:#181818;stroke-width:1.0;"/><line style="stroke:#181818;stroke-width:1.0;" x1="392.5" x2="2222" y1="1163.4473" y2="1163.4473"/><text fill="#000000" font-family="sans-serif" font-size="13" lengthAdjust="spacing" textLength="137" x="404.5" y="1158.7051">getLendingRateOracle</text><polygon fill="#181818" points="2211,1173.4473,2221,1177.4473,2211,1181.4473,2215,1177.4473" style="stroke:#181818;stroke-width:1.0;"/><line style="stroke:#181818;stroke-width:1.0;stroke-dasharray:2.0,2.0;" x1="382.5" x2="2217" y1="1177.4473" y2="1177.4473"/><polygon fill="#181818" points="2411,1202.7578,2421,1206.7578,2411,1210.7578,2415,1206.7578" style="stroke:#181818;stroke-width:1.0;"/><line style="stroke:#181818;stroke-width:1.0;" x1="2233" x2="2417" y1="1206.7578" y2="1206.7578"/><text fill="#000000" font-family="sans-serif" font-size="13" lengthAdjust="spacing" textLength="79" x="2240" y="1202.0156">0xbb85c0bb</text><polygon fill="#181818" points="2244,1216.7578,2234,1220.7578,2244,1224.7578,2240,1220.7578" style="stroke:#181818;stroke-width:1.0;"/><line style="stroke:#181818;stroke-width:1.0;stroke-dasharray:2.0,2.0;" x1="2238" x2="2427" y1="1220.7578" y2="1220.7578"/><polygon fill="#3471CD" points="1105.5,1230.7578,1095.5,1234.7578,1105.5,1238.7578,1101.5,1234.7578" style="stroke:#3471CD;stroke-width:1.0;"/><line style="stroke:#3471CD;stroke-width:1.0;stroke-dasharray:2.0,2.0;" x1="1099.5" x2="2227" y1="1234.7578" y2="1234.7578"/><line style="stroke:#181818;stroke-width:1.0;" x1="1095.5" x2="1105.5" y1="1248.7578" y2="1244.7578"/><line style="stroke:#181818;stroke-width:1.0;" x1="1095.5" x2="1105.5" y1="1248.7578" y2="1252.7578"/><line style="stroke:#181818;stroke-width:1.0;stroke-dasharray:2.0,2.0;" x1="1094.5" x2="1317" y1="1248.7578" y2="1248.7578"/><polygon fill="#3471CD" points="674.5,1258.7578,664.5,1262.7578,674.5,1266.7578,670.5,1262.7578" style="stroke:#3471CD;stroke-width:1.0;"/><line style="stroke:#3471CD;stroke-width:1.0;stroke-dasharray:2.0,2.0;" x1="668.5" x2="1088.5" y1="1262.7578" y2="1262.7578"/><line style="stroke:#181818;stroke-width:1.0;" x1="664.5" x2="674.5" y1="1276.7578" y2="1272.7578"/><line style="stroke:#181818;stroke-width:1.0;" x1="664.5" x2="674.5" y1="1276.7578" y2="1280.7578"/><line style="stroke:#181818;stroke-width:1.0;stroke-dasharray:2.0,2.0;" x1="663.5" x2="869.5" y1="1276.7578" y2="1276.7578"/><polygon fill="#181818" points="212,1286.7578,202,1290.7578,212,1294.7578,208,1290.7578" style="stroke:#181818;stroke-width:1.0;"/><line style="stroke:#181818;stroke-width:1.0;stroke-dasharray:2.0,2.0;" x1="206" x2="657.5" y1="1290.7578" y2="1290.7578"/><polygon fill="#181818" points="91.5,1300.7578,81.5,1304.7578,91.5,1308.7578,87.5,1304.7578" style="stroke:#181818;stroke-width:1.0;"/><line style="stroke:#181818;stroke-width:1.0;stroke-dasharray:2.0,2.0;" x1="85.5" x2="195" y1="1304.7578" y2="1304.7578"/><path d="M506,1317.7578 L506,1434.7578 L810,1434.7578 L810,1327.7578 L800,1317.7578 L506,1317.7578 " fill="#00FFFF" style="stroke:#181818;stroke-width:0.5;"/><path d="M800,1317.7578 L800,1327.7578 L810,1327.7578 L800,1317.7578 " fill="#00FFFF" style="stroke:#181818;stroke-width:0.5;"/><text fill="#000000" font-family="sans-serif" font-size="13" lengthAdjust="spacing" textLength="67" x="512" y="1335.3262">FlashLoan:</text><text fill="#000000" font-family="sans-serif" font-size="13" lengthAdjust="spacing" textLength="144" x="520" y="1350.6367">_target: 0x7735..4734,</text><text fill="#000000" font-family="sans-serif" font-size="13" lengthAdjust="spacing" textLength="150" x="520" y="1365.9473">_reserve: 0x6B17..1d0F,</text><text fill="#000000" font-family="sans-serif" font-size="13" lengthAdjust="spacing" textLength="275" x="520" y="1381.2578">_amount: 5,555,,000,000,000,000,000,000,</text><text fill="#000000" font-family="sans-serif" font-size="13" lengthAdjust="spacing" textLength="249" x="520" y="1396.5684">_totalFee: 4,,999,500,000,000,000,000,</text><text fill="#000000" font-family="sans-serif" font-size="13" lengthAdjust="spacing" textLength="273" x="520" y="1411.8789">_protocolFee: 1,,499,850,000,000,000,000,</text><text fill="#000000" font-family="sans-serif" font-size="13" lengthAdjust="spacing" textLength="174" x="520" y="1427.1895">_timestamp: 1,582,537,349</text><path d="M875,1317.7578 L875,1434.7578 L1303,1434.7578 L1303,1327.7578 L1293,1317.7578 L875,1317.7578 " fill="#00FFFF" style="stroke:#181818;stroke-width:0.5;"/><path d="M1293,1317.7578 L1293,1327.7578 L1303,1327.7578 L1293,1317.7578 " fill="#00FFFF" style="stroke:#181818;stroke-width:0.5;"/><text fill="#000000" font-family="sans-serif" font-size="13" lengthAdjust="spacing" textLength="104" x="881" y="1335.3262">ReserveUpdated:</text><text fill="#000000" font-family="sans-serif" font-size="13" lengthAdjust="spacing" textLength="143" x="889" y="1350.6367">reserve: 0x6B17..1d0F,</text><text fill="#000000" font-family="sans-serif" font-size="13" lengthAdjust="spacing" textLength="343" x="889" y="1365.9473">liquidityRate: 106,026,819,,172,638,321,716,213,924,</text><text fill="#000000" font-family="sans-serif" font-size="13" lengthAdjust="spacing" textLength="372" x="889" y="1381.2578">stableBorrowRate: 276,917,844,,087,005,922,616,292,122,</text><text fill="#000000" font-family="sans-serif" font-size="13" lengthAdjust="spacing" textLength="383" x="889" y="1396.5684">variableBorrowRate: 124,931,536,,739,171,602,180,243,435,</text><text fill="#000000" font-family="sans-serif" font-size="13" lengthAdjust="spacing" textLength="363" x="889" y="1411.8789">liquidityIndex: 1,009,289,094,,109,734,334,346,141,503,</text><text fill="#000000" font-family="sans-serif" font-size="13" lengthAdjust="spacing" textLength="399" x="889" y="1427.1895">variableBorrowIndex: 1,011,039,278,,885,875,771,635,048,020</text><path d="M1328,1317.7578 L1328,1510.7578 L1598,1510.7578 L1598,1327.7578 L1588,1317.7578 L1328,1317.7578 " fill="#00FFFF" style="stroke:#181818;stroke-width:0.5;"/><path d="M1588,1317.7578 L1588,1327.7578 L1598,1327.7578 L1588,1317.7578 " fill="#00FFFF" style="stroke:#181818;stroke-width:0.5;"/><text fill="#000000" font-family="sans-serif" font-size="13" lengthAdjust="spacing" textLength="56" x="1334" y="1335.3262">Transfer:</text><text fill="#000000" font-family="sans-serif" font-size="13" lengthAdjust="spacing" textLength="116" x="1342" y="1350.6367">src: 0x3dfd..76d3,</text><text fill="#000000" font-family="sans-serif" font-size="13" lengthAdjust="spacing" textLength="120" x="1342" y="1365.9473">dst: 0x7735..4734,</text><text fill="#000000" font-family="sans-serif" font-size="13" lengthAdjust="spacing" textLength="241" x="1342" y="1381.2578">wad: 5,555,,000,000,000,000,000,000</text><text fill="#000000" font-family="sans-serif" font-size="13" lengthAdjust="spacing" textLength="56" x="1334" y="1396.5684">Transfer:</text><text fill="#000000" font-family="sans-serif" font-size="13" lengthAdjust="spacing" textLength="119" x="1342" y="1411.8789">src: 0x7735..4734,</text><text fill="#000000" font-family="sans-serif" font-size="13" lengthAdjust="spacing" textLength="117" x="1342" y="1427.1895">dst: 0x3dfd..76d3,</text><text fill="#000000" font-family="sans-serif" font-size="13" lengthAdjust="spacing" textLength="241" x="1342" y="1442.5">wad: 5,559,,999,500,000,000,000,000</text><text fill="#000000" font-family="sans-serif" font-size="13" lengthAdjust="spacing" textLength="56" x="1334" y="1457.8105">Transfer:</text><text fill="#000000" font-family="sans-serif" font-size="13" lengthAdjust="spacing" textLength="116" x="1342" y="1473.1211">src: 0x3dfd..76d3,</text><text fill="#000000" font-family="sans-serif" font-size="13" lengthAdjust="spacing" textLength="116" x="1342" y="1488.4316">dst: 0xE3d9..a1ae,</text><text fill="#000000" font-family="sans-serif" font-size="13" lengthAdjust="spacing" textLength="213" x="1342" y="1503.7422">wad: 1,,499,850,000,000,000,000</text><!--SRC=[jLTRRzis57xNho2QbmrWD8hKXJG20xbs0T8bQ9Ez3CD0INH6L9PSIdRI_VgT8rkotCY9rs8Fldpc-SwDvnFfnZQ58UnPoqInADTPBaMMp6OwrKnogKt4JPO52HSP4t4ek569CR5XUXR3cZHCg5GBxMLwqTYg97Djoz8qbAH5bNqcAWgZC8Wf-L2LbF2GN9cKSCOPOMeIyWbNvFs7UqzdJUN8E_OScHdpVKWcV4TqJH0Y8Dv2kyPcTg7B1ksIH4I-7oPYROSGmGix7keGx6GcMpk42CZ9oQbUcGcvCMLkoqToLrK5kNFLokR6aT-3wVJaPBE6IwTvxanTcxepcKw_ZIIKDBwV1u5g8o54C1vf7U2wj8tLXVr7fuKvpUUsV5WyEfqRdTh2DbyXsFFNbv7YdBUrHwoDX101sSbu9C5yblj-4kTYdI101EC9dbVE_5YMMP1ptuy5rsquX0XsiyGm8mMcGUBxGSvcwm818W3gXRRaKuE9P9KjCRkVBawlVyOliFJIaz6PylqiZjUU428WtrsLaGpcCvgnPEqG88BTgkwqqtFJ6FVQkAJPpFTJOAzt0o02hD7CzB9eFfhQk9MvBi6FgPkFkZ6V6WVlZoDfgKX2dLBAeFM6407nlB9g3AbMCDITbhpVgZA3_GvKxBq7upjdMoXzHju_6Tl-U6FdjfcGcAeueHn8-ED3RV89g5VGA9BU_JE86OZCPomab_U_Uj01Wl4yhzVjyRJN9bW-nu7A3Cyr2jwke9X-rUib39HEfXFoQ9f1OxUqpi9pfbcwSi06UgUz2PaLklxxfjBbbjajUhr2ZwVJNaIZb5vXHvAfo_Ep0VNuZoCH9i7vnP_JNb5jrjtsrQVenGpYRwoyNe0OlvF7wznUH5qYc-et7zkq1bbrwfcGL1SQTlvsDgXii_ZImz159viskQkkFx3vzNLvPXVrrbzdwVLAm-8wbHp0x_JqLe7ZVGTzbFNCkFiAHjKTtlDzl1Vztl97EzpvsT_W0pPig1TZPC9HRA_hvJ_jyI52m-Vo8MBxhkB_hp7Tpi5oaRUFItYxBQz6dW5lpCDR_CFcOgUvzzLdKrxOkd4sNS9bPtztVtZ6td1mI7_7F7H7r8HakiYM1H27XzD0nPsbrvzgUqODURTEPyKhmpRqqPrhA8qqbL76qdJBx5R7jVRQn-2Kx4VhI7zPQg_V_8b7o5-DTf0yHj_UFoakkFKJkptYpZQNbwjsHS-hPGcK2CxCY5B6sEYhzLurkcYFr91IfHIDzXWkNDLKMRMs3IWDmLP6UvpQEMoGdY_GCfASHYAX8bI3m_eNCYY_s_br-PkJwA7LGuuzs5jfORyiRGut9znK2CPYodXCPQ0eXVyFD1QI2XxG1FuDy41GnTlMrUrjxgnohdfQCta2juuWeJA4Di0j0ag9m1ey85Dn6i1tOAwqizzo0t2g11GgOaeJeI1oG6C67Cae3mKDHRIJx7MPcsTi3MEASgaeKn0r081RA_0LnZG8mILSUrv4tT83U44ydaXAfOoeJ2AQO708o489lM1xMjvVRzSjlz_e6vjTkmmRlRsvOmPvFJA1Jpf_QyR6FEywsNZU3TTxLdk7yk2SBqKErrGTQDDxtZ- -stRz2m00]--></g></svg>