<?xml version="1.0" encoding="UTF-8" standalone="no"?><svg xmlns="http://www.w3.org/2000/svg" xmlns:xlink="http://www.w3.org/1999/xlink" contentStyleType="text/css" height="867px" preserveAspectRatio="none" style="width:801px;height:867px;background:#FFFFFF;" version="1.1" viewBox="0 0 801 867" width="801px" zoomAndPan="magnify"><defs/><g><text fill="#000000" font-family="sans-serif" font-size="14" font-weight="bold" lengthAdjust="spacing" textLength="571" x="114.25" y="28.5352">0x44e34b97bccd7406f199ec18e61489baa6619e4093269e1df559735dd31b25bf</text><text fill="#000000" font-family="sans-serif" font-size="14" lengthAdjust="spacing" textLength="399" x="200.25" y="855.3848">mainnet, block 9520464, Thu, 20 Feb 2020 13:50:11 GMT</text><rect fill="#FFFFFF" height="321.7266" style="stroke:#181818;stroke-width:1.0;" width="10" x="220.5" y="277.4609"/><rect fill="#FFFFFF" height="197.1738" style="stroke:#181818;stroke-width:1.0;" width="10" x="460" y="337.3926"/><rect fill="#FFFFFF" height="72.6211" style="stroke:#181818;stroke-width:1.0;" width="10" x="610" y="397.3242"/><rect fill="#809ECB" height="14" style="stroke:#181818;stroke-width:1.0;" width="10" x="733" y="441.9453"/><line style="stroke:#181818;stroke-width:0.5;stroke-dasharray:5.0,5.0;" x1="74" x2="74" y1="118.9766" y2="764.3613"/><line style="stroke:#181818;stroke-width:0.5;stroke-dasharray:5.0,5.0;" x1="225" x2="225" y1="118.9766" y2="764.3613"/><line style="stroke:#181818;stroke-width:0.5;stroke-dasharray:5.0,5.0;" x1="464.5" x2="464.5" y1="118.9766" y2="764.3613"/><line style="stroke:#181818;stroke-width:0.5;stroke-dasharray:5.0,5.0;" x1="614.5" x2="614.5" y1="118.9766" y2="764.3613"/><line style="stroke:#181818;stroke-width:0.5;stroke-dasharray:5.0,5.0;" x1="737.5" x2="737.5" y1="118.9766" y2="764.3613"/><text fill="#000000" font-family="sans-serif" font-size="14" lengthAdjust="spacing" textLength="93" x="25" y="116.0234">0xf0a5..5650</text><ellipse cx="74.5" cy="50.9883" fill="#E2E2F0" rx="8" ry="8" style="stroke:#181818;stroke-width:0.5;"/><path d="M74.5,58.9883 L74.5,85.9883 M61.5,66.9883 L87.5,66.9883 M74.5,85.9883 L61.5,100.9883 M74.5,85.9883 L87.5,100.9883 " fill="none" style="stroke:#181818;stroke-width:0.5;"/><text fill="#000000" font-family="sans-serif" font-size="14" lengthAdjust="spacing" textLength="93" x="25" y="776.8965">0xf0a5..5650</text><ellipse cx="74.5" cy="788.3496" fill="#E2E2F0" rx="8" ry="8" style="stroke:#181818;stroke-width:0.5;"/><path d="M74.5,796.3496 L74.5,823.3496 M61.5,804.3496 L87.5,804.3496 M74.5,823.3496 L61.5,838.3496 M74.5,823.3496 L87.5,838.3496 " fill="none" style="stroke:#181818;stroke-width:0.5;"/><rect fill="#E2E2F0" height="63.4648" rx="2.5" ry="2.5" style="stroke:#181818;stroke-width:0.5;" width="141" x="155" y="54.5117"/><text fill="#000000" font-family="sans-serif" font-size="14" font-style="italic" lengthAdjust="spacing" textLength="127" x="162" y="75.0469">«Aragon: Multisig»</text><text fill="#000000" font-family="sans-serif" font-size="14" font-style="italic" lengthAdjust="spacing" textLength="110" x="170.5" y="91.5352">«MultiSigWallet»</text><text fill="#000000" font-family="sans-serif" font-size="14" lengthAdjust="spacing" textLength="84" x="183.5" y="108.0234">0xcafe..5f2c</text><rect fill="#E2E2F0" height="63.4648" rx="2.5" ry="2.5" style="stroke:#181818;stroke-width:0.5;" width="141" x="155" y="763.3613"/><text fill="#000000" font-family="sans-serif" font-size="14" font-style="italic" lengthAdjust="spacing" textLength="127" x="162" y="783.8965">«Aragon: Multisig»</text><text fill="#000000" font-family="sans-serif" font-size="14" font-style="italic" lengthAdjust="spacing" textLength="110" x="170.5" y="800.3848">«MultiSigWallet»</text><text fill="#000000" font-family="sans-serif" font-size="14" lengthAdjust="spacing" textLength="84" x="183.5" y="816.873">0xcafe..5f2c</text><rect fill="#E2E2F0" height="46.9766" rx="2.5" ry="2.5" style="stroke:#181818;stroke-width:0.5;" width="111" x="409.5" y="71"/><text fill="#000000" font-family="sans-serif" font-size="14" font-style="italic" lengthAdjust="spacing" textLength="85" x="422.5" y="91.5352">«Forwarder»</text><text fill="#000000" font-family="sans-serif" font-size="14" lengthAdjust="spacing" textLength="97" x="416.5" y="108.0234">0xb4ab..b602</text><rect fill="#E2E2F0" height="46.9766" rx="2.5" ry="2.5" style="stroke:#181818;stroke-width:0.5;" width="111" x="409.5" y="763.3613"/><text fill="#000000" font-family="sans-serif" font-size="14" font-style="italic" lengthAdjust="spacing" textLength="85" x="422.5" y="783.8965">«Forwarder»</text><text fill="#000000" font-family="sans-serif" font-size="14" lengthAdjust="spacing" textLength="97" x="416.5" y="800.3848">0xb4ab..b602</text><rect fill="#E2E2F0" height="46.9766" rx="2.5" ry="2.5" style="stroke:#181818;stroke-width:0.5;" width="111" x="559.5" y="71"/><text fill="#000000" font-family="sans-serif" font-size="14" font-style="italic" lengthAdjust="spacing" textLength="86" x="572" y="91.5352">«Bitstamp 2»</text><text fill="#000000" font-family="sans-serif" font-size="14" lengthAdjust="spacing" textLength="97" x="566.5" y="108.0234">0x1522..e428</text><rect fill="#E2E2F0" height="46.9766" rx="2.5" ry="2.5" style="stroke:#181818;stroke-width:0.5;" width="111" x="559.5" y="763.3613"/><text fill="#000000" font-family="sans-serif" font-size="14" font-style="italic" lengthAdjust="spacing" textLength="86" x="572" y="783.8965">«Bitstamp 2»</text><text fill="#000000" font-family="sans-serif" font-size="14" lengthAdjust="spacing" textLength="97" x="566.5" y="800.3848">0x1522..e428</text><rect fill="#E2E2F0" height="46.9766" rx="2.5" ry="2.5" style="stroke:#181818;stroke-width:0.5;" width="115" x="680.5" y="71"/><text fill="#000000" font-family="sans-serif" font-size="14" font-style="italic" lengthAdjust="spacing" textLength="101" x="687.5" y="91.5352">«WalletSimple»</text><text fill="#000000" font-family="sans-serif" font-size="14" lengthAdjust="spacing" textLength="97" x="689.5" y="108.0234">0x5b9e..4691</text><rect fill="#E2E2F0" height="46.9766" rx="2.5" ry="2.5" style="stroke:#181818;stroke-width:0.5;" width="115" x="680.5" y="763.3613"/><text fill="#000000" font-family="sans-serif" font-size="14" font-style="italic" lengthAdjust="spacing" textLength="101" x="687.5" y="783.8965">«WalletSimple»</text><text fill="#000000" font-family="sans-serif" font-size="14" lengthAdjust="spacing" textLength="97" x="689.5" y="800.3848">0x5b9e..4691</text><rect fill="#FFFFFF" height="321.7266" style="stroke:#181818;stroke-width:1.0;" width="10" x="220.5" y="277.4609"/><rect fill="#FFFFFF" height="197.1738" style="stroke:#181818;stroke-width:1.0;" width="10" x="460" y="337.3926"/><rect fill="#FFFFFF" height="72.6211" style="stroke:#181818;stroke-width:1.0;" width="10" x="610" y="397.3242"/><rect fill="#809ECB" height="14" style="stroke:#181818;stroke-width:1.0;" width="10" x="733" y="441.9453"/><path d="M5,133.9766 L5,219.9766 L145,219.9766 L145,143.9766 L135,133.9766 L5,133.9766 " fill="#FEFFDD" style="stroke:#181818;stroke-width:0.5;"/><path d="M135,133.9766 L135,143.9766 L145,143.9766 L135,133.9766 " fill="#FEFFDD" style="stroke:#181818;stroke-width:0.5;"/><text fill="#000000" font-family="sans-serif" font-size="13" lengthAdjust="spacing" textLength="72" x="11" y="151.5449">Nonce: 107</text><text fill="#000000" font-family="sans-serif" font-size="13" lengthAdjust="spacing" textLength="119" x="11" y="166.8555">Gas Price: 3.6 Gwei</text><text fill="#000000" font-family="sans-serif" font-size="13" lengthAdjust="spacing" textLength="119" x="11" y="182.166">Gas Limit: 300,000</text><text fill="#000000" font-family="sans-serif" font-size="13" lengthAdjust="spacing" textLength="118" x="11" y="197.4766">Gas Used: 102,636</text><text fill="#000000" font-family="sans-serif" font-size="13" lengthAdjust="spacing" textLength="86" x="11" y="212.7871">Tx Fee: 0 ETH</text><polygon fill="#181818" points="208.5,273.4609,218.5,277.4609,208.5,281.4609,212.5,277.4609" style="stroke:#181818;stroke-width:1.0;"/><line style="stroke:#181818;stroke-width:1.0;" x1="74.5" x2="214.5" y1="277.4609" y2="277.4609"/><text fill="#000000" font-family="sans-serif" font-size="13" lengthAdjust="spacing" textLength="127" x="81.5" y="242.0977">confirmTransaction(</text><text fill="#000000" font-family="sans-serif" font-size="13" lengthAdjust="spacing" textLength="119" x="81.5" y="257.4082">transactionId: 299)</text><text fill="#000000" font-family="sans-serif" font-size="13" lengthAdjust="spacing" textLength="78" x="81.5" y="272.7188">102,636 gas</text><polygon fill="#181818" points="448,333.3926,458,337.3926,448,341.3926,452,337.3926" style="stroke:#181818;stroke-width:1.0;"/><line style="stroke:#181818;stroke-width:1.0;" x1="230.5" x2="454" y1="337.3926" y2="337.3926"/><text fill="#000000" font-family="sans-serif" font-size="13" lengthAdjust="spacing" textLength="58" x="237.5" y="302.0293">fallback()</text><text fill="#000000" font-family="sans-serif" font-size="13" lengthAdjust="spacing" textLength="70" x="237.5" y="317.3398">13,305 gas</text><text fill="#000000" font-family="sans-serif" font-size="13" lengthAdjust="spacing" textLength="73" x="237.5" y="332.6504">10,000 ETH</text><polygon fill="#181818" points="598,393.3242,608,397.3242,598,401.3242,602,397.3242" style="stroke:#181818;stroke-width:1.0;"/><line style="stroke:#181818;stroke-width:1.0;" x1="470" x2="604" y1="397.3242" y2="397.3242"/><text fill="#000000" font-family="sans-serif" font-size="13" lengthAdjust="spacing" textLength="58" x="477" y="361.9609">fallback()</text><text fill="#000000" font-family="sans-serif" font-size="13" lengthAdjust="spacing" textLength="62" x="477" y="377.2715">2,844 gas</text><text fill="#000000" font-family="sans-serif" font-size="13" lengthAdjust="spacing" textLength="73" x="477" y="392.582">10,000 ETH</text><line style="stroke:#181818;stroke-width:1.0;" x1="731" x2="721" y1="441.9453" y2="437.9453"/><line style="stroke:#181818;stroke-width:1.0;" x1="731" x2="721" y1="441.9453" y2="445.9453"/><line style="stroke:#181818;stroke-width:1.0;" x1="620" x2="732" y1="441.9453" y2="441.9453"/><text fill="#000000" font-family="sans-serif" font-size="13" lengthAdjust="spacing" textLength="58" x="627" y="421.8926">fallback()</text><text fill="#000000" font-family="sans-serif" font-size="13" lengthAdjust="spacing" textLength="62" x="627" y="437.2031">2,082 gas</text><line style="stroke:#181818;stroke-width:1.0;" x1="621" x2="631" y1="455.9453" y2="451.9453"/><line style="stroke:#181818;stroke-width:1.0;" x1="621" x2="631" y1="455.9453" y2="459.9453"/><line style="stroke:#181818;stroke-width:1.0;stroke-dasharray:2.0,2.0;" x1="620" x2="737" y1="455.9453" y2="455.9453"/><polygon fill="#181818" points="481,465.9453,471,469.9453,481,473.9453,477,469.9453" style="stroke:#181818;stroke-width:1.0;"/><line style="stroke:#181818;stroke-width:1.0;stroke-dasharray:2.0,2.0;" x1="475" x2="614" y1="469.9453" y2="469.9453"/><path d="M620,482.9453 L620,522.9453 L691,522.9453 L691,492.9453 L681,482.9453 L620,482.9453 " fill="#FEFFDD" style="stroke:#181818;stroke-width:0.5;"/><path d="M681,482.9453 L681,492.9453 L691,492.9453 L681,482.9453 " fill="#FEFFDD" style="stroke:#181818;stroke-width:0.5;"/><text fill="#000000" font-family="sans-serif" font-size="13" lengthAdjust="spacing" textLength="4" x="626" y="500.5137"> </text><text fill="#000000" font-family="sans-serif" font-size="13" lengthAdjust="spacing" textLength="50" x="626" y="515.8242">762 gas</text><polygon fill="#181818" points="241.5,530.5664,231.5,534.5664,241.5,538.5664,237.5,534.5664" style="stroke:#181818;stroke-width:1.0;"/><line style="stroke:#181818;stroke-width:1.0;stroke-dasharray:2.0,2.0;" x1="235.5" x2="464" y1="534.5664" y2="534.5664"/><path d="M470,547.5664 L470,587.5664 L561,587.5664 L561,557.5664 L551,547.5664 L470,547.5664 " fill="#FEFFDD" style="stroke:#181818;stroke-width:0.5;"/><path d="M551,547.5664 L551,557.5664 L561,557.5664 L551,547.5664 " fill="#FEFFDD" style="stroke:#181818;stroke-width:0.5;"/><text fill="#000000" font-family="sans-serif" font-size="13" lengthAdjust="spacing" textLength="4" x="476" y="565.1348"> </text><text fill="#000000" font-family="sans-serif" font-size="13" lengthAdjust="spacing" textLength="70" x="476" y="580.4453">10,461 gas</text><polygon fill="#181818" points="85.5,595.1875,75.5,599.1875,85.5,603.1875,81.5,599.1875" style="stroke:#181818;stroke-width:1.0;"/><line style="stroke:#181818;stroke-width:1.0;stroke-dasharray:2.0,2.0;" x1="79.5" x2="224.5" y1="599.1875" y2="599.1875"/><path d="M230,612.1875 L230,652.1875 L321,652.1875 L321,622.1875 L311,612.1875 L230,612.1875 " fill="#FEFFDD" style="stroke:#181818;stroke-width:0.5;"/><path d="M311,612.1875 L311,622.1875 L321,622.1875 L311,612.1875 " fill="#FEFFDD" style="stroke:#181818;stroke-width:0.5;"/><text fill="#000000" font-family="sans-serif" font-size="13" lengthAdjust="spacing" textLength="4" x="236" y="629.7559"> </text><text fill="#000000" font-family="sans-serif" font-size="13" lengthAdjust="spacing" textLength="70" x="236" y="645.0664">89,331 gas</text><path d="M141,662.8086 L141,748.8086 L310,748.8086 L310,672.8086 L300,662.8086 L141,662.8086 " fill="#00FFFF" style="stroke:#181818;stroke-width:0.5;"/><path d="M300,662.8086 L300,672.8086 L310,672.8086 L300,662.8086 " fill="#00FFFF" style="stroke:#181818;stroke-width:0.5;"/><text fill="#000000" font-family="sans-serif" font-size="13" lengthAdjust="spacing" textLength="87" x="147" y="680.377">Confirmation:</text><text fill="#000000" font-family="sans-serif" font-size="13" lengthAdjust="spacing" textLength="140" x="155" y="695.6875">sender: 0xF0a5..5650,</text><text fill="#000000" font-family="sans-serif" font-size="13" lengthAdjust="spacing" textLength="115" x="155" y="710.998">transactionId: 299</text><text fill="#000000" font-family="sans-serif" font-size="13" lengthAdjust="spacing" textLength="66" x="147" y="726.3086">Execution:</text><text fill="#000000" font-family="sans-serif" font-size="13" lengthAdjust="spacing" textLength="115" x="155" y="741.6191">transactionId: 299</text><path d="M320,662.8086 L320,733.8086 L610,733.8086 L610,672.8086 L600,662.8086 L320,662.8086 " fill="#00FFFF" style="stroke:#181818;stroke-width:0.5;"/><path d="M600,662.8086 L600,672.8086 L610,672.8086 L600,662.8086 " fill="#00FFFF" style="stroke:#181818;stroke-width:0.5;"/><text fill="#000000" font-family="sans-serif" font-size="13" lengthAdjust="spacing" textLength="130" x="326" y="680.377">ForwarderDeposited:</text><text fill="#000000" font-family="sans-serif" font-size="13" lengthAdjust="spacing" textLength="122" x="334" y="695.6875">from: 0xcafE..5f2C,</text><text fill="#000000" font-family="sans-serif" font-size="13" lengthAdjust="spacing" textLength="261" x="334" y="710.998">value: 10,000,,000,000,000,000,000,000,</text><text fill="#000000" font-family="sans-serif" font-size="13" lengthAdjust="spacing" textLength="51" x="334" y="726.3086">data: 0x</text><!--SRC=[TLDTRvim57tthxXgNpg9CcECWr64j7PfDscT9ZNJNl9YmAHMYScCq-RdptO6wKVwmCSnznmVxhcsodOIy9vIcTAApwgwRcOKipRXNDP9Bbb2Sru9mLZ29SKy9OpBf6cpZC_Ih6dIf29PrQ9QRAtgDMo4qbhQ2Agkhn-1PmHJHYDOFkmY81XkPEKUxYL9YmmNIGAtTqiaQjiRECFx5eiiZZEMuJCG0tZe0Q2jC5RLQYkqzNMrQAMhQqaTwZpq0ERpBqQiUrt0tQwpQb3hifpFm_kzMlyHNITjMRvLgwYeuhXYc0Gr3prmQZUzUHQcaUOzASa8YMD9IHv87dhWI5VA3bPija3UixAAE-EKyIImFFJ0iGxcxjLcsqd7Gxgt4ledQQOke9-zhcK12PwXMqV-PPI7QSpWzbcgiFP3RPHrQnX76EEmz7kGZIUHYAKCBVSk0yV2i5X-Gr8tu3T2Q6hrPJcriu2wrwqocwKHUd0XkOGlLjeUqNUdJ3Z_jDB_zM4j1X-dUXBE_YY4fe2S-jZU0bhtovMe7oyyFurId7cwr_BcWy59QcIXAHqdDJRzjHI9Sae_LXf9Q8hiiYod9DvAuPoy_gSfilCSyyNr5JBIxemU7o4sezOF5lhsXS6Ldh63qid2OrE2QSgIZskFyQnqpgCqFTI-c9YftUVYxqwWwqEAmYTM8831nIwDcu7zpNJU8hV-FbYqsCjwD_9EV3yEq6SuxZzbTDX_EaLVvROVb7NpwDHQqs-y1sTs4SxojVVm9BfTc74VN1HkfovNsGWhFF_euHy0]--></g></svg>