<?xml version="1.0" encoding="UTF-8" standalone="no"?><svg xmlns="http://www.w3.org/2000/svg" xmlns:xlink="http://www.w3.org/1999/xlink" contentStyleType="text/css" height="1514px" preserveAspectRatio="none" style="width:1312px;height:1514px;background:#FFFFFF;" version="1.1" viewBox="0 0 1312 1514" width="1312px" zoomAndPan="magnify"><defs/><g><text fill="#000000" font-family="sans-serif" font-size="14" font-weight="bold" lengthAdjust="spacing" textLength="568" x="371" y="28.5352">0x9e93a3ef8dbfd18f14253da66ef2451abe94330ecd98e1399245eb01751e5626</text><text fill="#000000" font-family="sans-serif" font-size="14" lengthAdjust="spacing" textLength="400" x="455" y="1502.252">mainnet, block 12923766, Thu, 29 Jul 2021 23:57:53 GMT</text><rect fill="#FFFFFF" height="944.3535" style="stroke:#181818;stroke-width:1.0;" width="10" x="269" y="281.9258"/><rect fill="#FFFFFF" height="44.6211" style="stroke:#181818;stroke-width:1.0;" width="10" x="472.5" y="341.8574"/><rect fill="#FFFFFF" height="14" style="stroke:#181818;stroke-width:1.0;" width="10" x="472.5" y="684.8262"/><rect fill="#FFFFFF" height="490.832" style="stroke:#181818;stroke-width:1.0;" width="10" x="704.5" y="446.4102"/><rect fill="#FFFFFF" height="44.6211" style="stroke:#181818;stroke-width:1.0;" width="10" x="704.5" y="1047.7949"/><rect fill="#FFFFFF" height="44.6211" style="stroke:#181818;stroke-width:1.0;" width="10" x="1052" y="491.0313"/><rect fill="#FFFFFF" height="44.6211" style="stroke:#181818;stroke-width:1.0;" width="10" x="1052" y="580.2734"/><rect fill="#FFFFFF" height="44.6211" style="stroke:#181818;stroke-width:1.0;" width="10" x="1052" y="1167.6582"/><rect fill="#FFFFFF" height="44.6211" style="stroke:#181818;stroke-width:1.0;" width="10" x="1219" y="758.7578"/><rect fill="#FFFFFF" height="44.6211" style="stroke:#181818;stroke-width:1.0;" width="10" x="1219" y="848"/><line style="stroke:#181818;stroke-width:0.5;stroke-dasharray:5.0,5.0;" x1="79" x2="79" y1="123.4414" y2="1406.7637"/><line style="stroke:#181818;stroke-width:0.5;stroke-dasharray:5.0,5.0;" x1="274" x2="274" y1="123.4414" y2="1406.7637"/><line style="stroke:#181818;stroke-width:0.5;stroke-dasharray:5.0,5.0;" x1="477" x2="477" y1="123.4414" y2="1406.7637"/><line style="stroke:#181818;stroke-width:0.5;stroke-dasharray:5.0,5.0;" x1="709" x2="709" y1="123.4414" y2="1406.7637"/><line style="stroke:#181818;stroke-width:0.5;stroke-dasharray:5.0,5.0;" x1="1057" x2="1057" y1="123.4414" y2="1406.7637"/><line style="stroke:#181818;stroke-width:0.5;stroke-dasharray:5.0,5.0;" x1="1224" x2="1224" y1="123.4414" y2="1406.7637"/><text fill="#000000" font-family="sans-serif" font-size="14" lengthAdjust="spacing" textLength="98" x="27" y="120.4883">0x0559..8778</text><ellipse cx="79" cy="55.4531" fill="#E2E2F0" rx="8" ry="8" style="stroke:#181818;stroke-width:0.5;"/><path d="M79,63.4531 L79,90.4531 M66,71.4531 L92,71.4531 M79,90.4531 L66,105.4531 M79,90.4531 L92,105.4531 " fill="none" style="stroke:#181818;stroke-width:0.5;"/><text fill="#000000" font-family="sans-serif" font-size="14" lengthAdjust="spacing" textLength="98" x="27" y="1419.2988">0x0559..8778</text><ellipse cx="79" cy="1430.752" fill="#E2E2F0" rx="8" ry="8" style="stroke:#181818;stroke-width:0.5;"/><path d="M79,1438.752 L79,1465.752 M66,1446.752 L92,1446.752 M79,1465.752 L66,1480.752 M79,1465.752 L92,1480.752 " fill="none" style="stroke:#181818;stroke-width:0.5;"/><rect fill="#E2E2F0" height="63.4648" rx="2.5" ry="2.5" style="stroke:#181818;stroke-width:0.5;" width="180" x="184" y="58.9766"/><text fill="#000000" font-family="sans-serif" font-size="14" font-style="italic" lengthAdjust="spacing" textLength="166" x="191" y="79.5117">«Curve.fi: Token Minter»</text><text fill="#000000" font-family="sans-serif" font-size="14" font-style="italic" lengthAdjust="spacing" textLength="105" x="221.5" y="96">«Token Minter»</text><text fill="#000000" font-family="sans-serif" font-size="14" lengthAdjust="spacing" textLength="91" x="228.5" y="112.4883">0xd061..fce0</text><rect fill="#E2E2F0" height="63.4648" rx="2.5" ry="2.5" style="stroke:#181818;stroke-width:0.5;" width="180" x="184" y="1405.7637"/><text fill="#000000" font-family="sans-serif" font-size="14" font-style="italic" lengthAdjust="spacing" textLength="166" x="191" y="1426.2988">«Curve.fi: Token Minter»</text><text fill="#000000" font-family="sans-serif" font-size="14" font-style="italic" lengthAdjust="spacing" textLength="105" x="221.5" y="1442.7871">«Token Minter»</text><text fill="#000000" font-family="sans-serif" font-size="14" lengthAdjust="spacing" textLength="91" x="228.5" y="1459.2754">0xd061..fce0</text><rect fill="#E2E2F0" height="63.4648" rx="2.5" ry="2.5" style="stroke:#181818;stroke-width:0.5;" width="207" x="374" y="58.9766"/><text fill="#000000" font-family="sans-serif" font-size="14" font-style="italic" lengthAdjust="spacing" textLength="193" x="381" y="79.5117">«Curve.fi: Gauge Controller»</text><text fill="#000000" font-family="sans-serif" font-size="14" font-style="italic" lengthAdjust="spacing" textLength="132" x="411.5" y="96">«Gauge Controller»</text><text fill="#000000" font-family="sans-serif" font-size="14" lengthAdjust="spacing" textLength="94" x="430.5" y="112.4883">0x2f50..46bb</text><rect fill="#E2E2F0" height="63.4648" rx="2.5" ry="2.5" style="stroke:#181818;stroke-width:0.5;" width="207" x="374" y="1405.7637"/><text fill="#000000" font-family="sans-serif" font-size="14" font-style="italic" lengthAdjust="spacing" textLength="193" x="381" y="1426.2988">«Curve.fi: Gauge Controller»</text><text fill="#000000" font-family="sans-serif" font-size="14" font-style="italic" lengthAdjust="spacing" textLength="132" x="411.5" y="1442.7871">«Gauge Controller»</text><text fill="#000000" font-family="sans-serif" font-size="14" lengthAdjust="spacing" textLength="94" x="430.5" y="1459.2754">0x2f50..46bb</text><rect fill="#E2E2F0" height="63.4648" rx="2.5" ry="2.5" style="stroke:#181818;stroke-width:0.5;" width="237" x="591" y="58.9766"/><text fill="#000000" font-family="sans-serif" font-size="14" font-style="italic" lengthAdjust="spacing" textLength="223" x="598" y="79.5117">«Curve.fi: USDN Liquidity Gauge»</text><text fill="#000000" font-family="sans-serif" font-size="14" font-style="italic" lengthAdjust="spacing" textLength="120" x="649.5" y="96">«Liquidity Gauge»</text><text fill="#000000" font-family="sans-serif" font-size="14" lengthAdjust="spacing" textLength="86" x="666.5" y="112.4883">0xf984..cfc4</text><rect fill="#E2E2F0" height="63.4648" rx="2.5" ry="2.5" style="stroke:#181818;stroke-width:0.5;" width="237" x="591" y="1405.7637"/><text fill="#000000" font-family="sans-serif" font-size="14" font-style="italic" lengthAdjust="spacing" textLength="223" x="598" y="1426.2988">«Curve.fi: USDN Liquidity Gauge»</text><text fill="#000000" font-family="sans-serif" font-size="14" font-style="italic" lengthAdjust="spacing" textLength="120" x="649.5" y="1442.7871">«Liquidity Gauge»</text><text fill="#000000" font-family="sans-serif" font-size="14" lengthAdjust="spacing" textLength="86" x="666.5" y="1459.2754">0xf984..cfc4</text><rect fill="#E2E2F0" height="79.9531" rx="2.5" ry="2.5" style="stroke:#181818;stroke-width:0.5;" width="150" x="982" y="42.4883"/><text fill="#000000" font-family="sans-serif" font-size="14" font-style="italic" lengthAdjust="spacing" textLength="136" x="989" y="63.0234">«Curve DAO Token»</text><text fill="#000000" font-family="sans-serif" font-size="14" font-style="italic" lengthAdjust="spacing" textLength="52" x="1031" y="79.5117">«(CRV)»</text><text fill="#000000" font-family="sans-serif" font-size="14" font-style="italic" lengthAdjust="spacing" textLength="136" x="989" y="96">«Curve DAO Token»</text><text fill="#000000" font-family="sans-serif" font-size="14" lengthAdjust="spacing" textLength="96" x="1009" y="112.4883">0xd533..cd52</text><rect fill="#E2E2F0" height="79.9531" rx="2.5" ry="2.5" style="stroke:#181818;stroke-width:0.5;" width="150" x="982" y="1405.7637"/><text fill="#000000" font-family="sans-serif" font-size="14" font-style="italic" lengthAdjust="spacing" textLength="136" x="989" y="1426.2988">«Curve DAO Token»</text><text fill="#000000" font-family="sans-serif" font-size="14" font-style="italic" lengthAdjust="spacing" textLength="52" x="1031" y="1442.7871">«(CRV)»</text><text fill="#000000" font-family="sans-serif" font-size="14" font-style="italic" lengthAdjust="spacing" textLength="136" x="989" y="1459.2754">«Curve DAO Token»</text><text fill="#000000" font-family="sans-serif" font-size="14" lengthAdjust="spacing" textLength="96" x="1009" y="1475.7637">0xd533..cd52</text><rect fill="#E2E2F0" height="79.9531" rx="2.5" ry="2.5" style="stroke:#181818;stroke-width:0.5;" width="164" x="1142" y="42.4883"/><text fill="#000000" font-family="sans-serif" font-size="14" font-style="italic" lengthAdjust="spacing" textLength="150" x="1149" y="63.0234">«Vote-escrowed CRV»</text><text fill="#000000" font-family="sans-serif" font-size="14" font-style="italic" lengthAdjust="spacing" textLength="67" x="1190.5" y="79.5117">«(veCRV)»</text><text fill="#000000" font-family="sans-serif" font-size="14" font-style="italic" lengthAdjust="spacing" textLength="111" x="1168.5" y="96">«Voting Escrow»</text><text fill="#000000" font-family="sans-serif" font-size="14" lengthAdjust="spacing" textLength="92" x="1178" y="112.4883">0x5f3b..e2a2</text><rect fill="#E2E2F0" height="79.9531" rx="2.5" ry="2.5" style="stroke:#181818;stroke-width:0.5;" width="164" x="1142" y="1405.7637"/><text fill="#000000" font-family="sans-serif" font-size="14" font-style="italic" lengthAdjust="spacing" textLength="150" x="1149" y="1426.2988">«Vote-escrowed CRV»</text><text fill="#000000" font-family="sans-serif" font-size="14" font-style="italic" lengthAdjust="spacing" textLength="67" x="1190.5" y="1442.7871">«(veCRV)»</text><text fill="#000000" font-family="sans-serif" font-size="14" font-style="italic" lengthAdjust="spacing" textLength="111" x="1168.5" y="1459.2754">«Voting Escrow»</text><text fill="#000000" font-family="sans-serif" font-size="14" lengthAdjust="spacing" textLength="92" x="1178" y="1475.7637">0x5f3b..e2a2</text><rect fill="#FFFFFF" height="944.3535" style="stroke:#181818;stroke-width:1.0;" width="10" x="269" y="281.9258"/><rect fill="#FFFFFF" height="44.6211" style="stroke:#181818;stroke-width:1.0;" width="10" x="472.5" y="341.8574"/><rect fill="#FFFFFF" height="14" style="stroke:#181818;stroke-width:1.0;" width="10" x="472.5" y="684.8262"/><rect fill="#FFFFFF" height="490.832" style="stroke:#181818;stroke-width:1.0;" width="10" x="704.5" y="446.4102"/><rect fill="#FFFFFF" height="44.6211" style="stroke:#181818;stroke-width:1.0;" width="10" x="704.5" y="1047.7949"/><rect fill="#FFFFFF" height="44.6211" style="stroke:#181818;stroke-width:1.0;" width="10" x="1052" y="491.0313"/><rect fill="#FFFFFF" height="44.6211" style="stroke:#181818;stroke-width:1.0;" width="10" x="1052" y="580.2734"/><rect fill="#FFFFFF" height="44.6211" style="stroke:#181818;stroke-width:1.0;" width="10" x="1052" y="1167.6582"/><rect fill="#FFFFFF" height="44.6211" style="stroke:#181818;stroke-width:1.0;" width="10" x="1219" y="758.7578"/><rect fill="#FFFFFF" height="44.6211" style="stroke:#181818;stroke-width:1.0;" width="10" x="1219" y="848"/><path d="M5,138.4414 L5,224.4414 L153,224.4414 L153,148.4414 L143,138.4414 L5,138.4414 " fill="#FEFFDD" style="stroke:#181818;stroke-width:0.5;"/><path d="M143,138.4414 L143,148.4414 L153,148.4414 L143,138.4414 " fill="#FEFFDD" style="stroke:#181818;stroke-width:0.5;"/><text fill="#000000" font-family="sans-serif" font-size="13" lengthAdjust="spacing" textLength="56" x="11" y="156.0098">Nonce: 5</text><text fill="#000000" font-family="sans-serif" font-size="13" lengthAdjust="spacing" textLength="127" x="11" y="171.3203">Gas Price: 40.0 Gwei</text><text fill="#000000" font-family="sans-serif" font-size="13" lengthAdjust="spacing" textLength="119" x="11" y="186.6309">Gas Limit: 474,352</text><text fill="#000000" font-family="sans-serif" font-size="13" lengthAdjust="spacing" textLength="118" x="11" y="201.9414">Gas Used: 305,965</text><text fill="#000000" font-family="sans-serif" font-size="13" lengthAdjust="spacing" textLength="114" x="11" y="217.252">Tx Fee: 0.012 ETH</text><polygon fill="#181818" points="257,277.9258,267,281.9258,257,285.9258,261,281.9258" style="stroke:#181818;stroke-width:1.0;"/><line style="stroke:#181818;stroke-width:1.0;" x1="79" x2="263" y1="281.9258" y2="281.9258"/><text fill="#000000" font-family="sans-serif" font-size="13" lengthAdjust="spacing" textLength="33" x="86" y="246.5625">mint(</text><text fill="#000000" font-family="sans-serif" font-size="13" lengthAdjust="spacing" textLength="171" x="86" y="261.873">gauge_addr: 0xF984..CfC4)</text><text fill="#000000" font-family="sans-serif" font-size="13" lengthAdjust="spacing" textLength="78" x="86" y="277.1836">305,965 gas</text><polygon fill="#181818" points="460.5,337.8574,470.5,341.8574,460.5,345.8574,464.5,341.8574" style="stroke:#181818;stroke-width:1.0;"/><line style="stroke:#181818;stroke-width:1.0;" x1="279" x2="466.5" y1="341.8574" y2="341.8574"/><text fill="#000000" font-family="sans-serif" font-size="13" lengthAdjust="spacing" textLength="83" x="286" y="306.4941">gauge_types(</text><text fill="#000000" font-family="sans-serif" font-size="13" lengthAdjust="spacing" textLength="133" x="286" y="321.8047">_addr: 0xF984..CfC4)</text><text fill="#000000" font-family="sans-serif" font-size="13" lengthAdjust="spacing" textLength="62" x="286" y="337.1152">2,562 gas</text><polygon fill="#181818" points="290,382.4785,280,386.4785,290,390.4785,286,386.4785" style="stroke:#181818;stroke-width:1.0;"/><line style="stroke:#181818;stroke-width:1.0;stroke-dasharray:2.0,2.0;" x1="284" x2="476.5" y1="386.4785" y2="386.4785"/><text fill="#000000" font-family="sans-serif" font-size="13" lengthAdjust="spacing" textLength="4" x="296" y="366.4258"> </text><text fill="#000000" font-family="sans-serif" font-size="13" lengthAdjust="spacing" textLength="8" x="296" y="381.7363">0</text><polygon fill="#181818" points="692.5,442.4102,702.5,446.4102,692.5,450.4102,696.5,446.4102" style="stroke:#181818;stroke-width:1.0;"/><line style="stroke:#181818;stroke-width:1.0;" x1="279" x2="698.5" y1="446.4102" y2="446.4102"/><text fill="#000000" font-family="sans-serif" font-size="13" lengthAdjust="spacing" textLength="108" x="286" y="411.0469">user_checkpoint(</text><text fill="#000000" font-family="sans-serif" font-size="13" lengthAdjust="spacing" textLength="128" x="286" y="426.3574">addr: 0x0559..8778)</text><text fill="#000000" font-family="sans-serif" font-size="13" lengthAdjust="spacing" textLength="78" x="286" y="441.668">209,330 gas</text><polygon fill="#181818" points="1040,487.0313,1050,491.0313,1040,495.0313,1044,491.0313" style="stroke:#181818;stroke-width:1.0;"/><line style="stroke:#181818;stroke-width:1.0;" x1="714.5" x2="1046" y1="491.0313" y2="491.0313"/><text fill="#000000" font-family="sans-serif" font-size="13" lengthAdjust="spacing" textLength="164" x="721.5" y="470.9785">future_epoch_time_write()</text><text fill="#000000" font-family="sans-serif" font-size="13" lengthAdjust="spacing" textLength="62" x="721.5" y="486.2891">2,506 gas</text><polygon fill="#181818" points="725.5,531.6523,715.5,535.6523,725.5,539.6523,721.5,535.6523" style="stroke:#181818;stroke-width:1.0;"/><line style="stroke:#181818;stroke-width:1.0;stroke-dasharray:2.0,2.0;" x1="719.5" x2="1056" y1="535.6523" y2="535.6523"/><text fill="#000000" font-family="sans-serif" font-size="13" lengthAdjust="spacing" textLength="4" x="731.5" y="515.5996"> </text><text fill="#000000" font-family="sans-serif" font-size="13" lengthAdjust="spacing" textLength="92" x="731.5" y="530.9102">1,628,893,048</text><polygon fill="#181818" points="1040,576.2734,1050,580.2734,1040,584.2734,1044,580.2734" style="stroke:#181818;stroke-width:1.0;"/><line style="stroke:#181818;stroke-width:1.0;" x1="714.5" x2="1046" y1="580.2734" y2="580.2734"/><text fill="#000000" font-family="sans-serif" font-size="13" lengthAdjust="spacing" textLength="32" x="721.5" y="560.2207">rate()</text><text fill="#000000" font-family="sans-serif" font-size="13" lengthAdjust="spacing" textLength="62" x="721.5" y="575.5313">2,969 gas</text><polygon fill="#181818" points="725.5,620.8945,715.5,624.8945,725.5,628.8945,721.5,624.8945" style="stroke:#181818;stroke-width:1.0;"/><line style="stroke:#181818;stroke-width:1.0;stroke-dasharray:2.0,2.0;" x1="719.5" x2="1056" y1="624.8945" y2="624.8945"/><text fill="#000000" font-family="sans-serif" font-size="13" lengthAdjust="spacing" textLength="4" x="731.5" y="604.8418"> </text><text fill="#000000" font-family="sans-serif" font-size="13" lengthAdjust="spacing" textLength="180" x="731.5" y="620.1523">8,,714,335,457,889,396,245</text><polygon fill="#181818" points="493.5,680.8262,483.5,684.8262,493.5,688.8262,489.5,684.8262" style="stroke:#181818;stroke-width:1.0;"/><line style="stroke:#181818;stroke-width:1.0;" x1="487.5" x2="703.5" y1="684.8262" y2="684.8262"/><text fill="#000000" font-family="sans-serif" font-size="13" lengthAdjust="spacing" textLength="119" x="499.5" y="649.4629">checkpoint_gauge(</text><text fill="#000000" font-family="sans-serif" font-size="13" lengthAdjust="spacing" textLength="126" x="499.5" y="664.7734">addr: 0xF984..CfC4)</text><text fill="#000000" font-family="sans-serif" font-size="13" lengthAdjust="spacing" textLength="70" x="499.5" y="680.084">91,571 gas</text><polygon fill="#181818" points="692.5,694.8262,702.5,698.8262,692.5,702.8262,696.5,698.8262" style="stroke:#181818;stroke-width:1.0;"/><line style="stroke:#181818;stroke-width:1.0;stroke-dasharray:2.0,2.0;" x1="477.5" x2="698.5" y1="698.8262" y2="698.8262"/><polygon fill="#181818" points="1207,754.7578,1217,758.7578,1207,762.7578,1211,758.7578" style="stroke:#181818;stroke-width:1.0;"/><line style="stroke:#181818;stroke-width:1.0;" x1="714.5" x2="1213" y1="758.7578" y2="758.7578"/><text fill="#000000" font-family="sans-serif" font-size="13" lengthAdjust="spacing" textLength="67" x="721.5" y="723.3945">balanceOf(</text><text fill="#000000" font-family="sans-serif" font-size="13" lengthAdjust="spacing" textLength="128" x="721.5" y="738.7051">addr: 0x0559..8778)</text><text fill="#000000" font-family="sans-serif" font-size="13" lengthAdjust="spacing" textLength="62" x="721.5" y="754.0156">2,891 gas</text><polygon fill="#181818" points="725.5,799.3789,715.5,803.3789,725.5,807.3789,721.5,803.3789" style="stroke:#181818;stroke-width:1.0;"/><line style="stroke:#181818;stroke-width:1.0;stroke-dasharray:2.0,2.0;" x1="719.5" x2="1223" y1="803.3789" y2="803.3789"/><text fill="#000000" font-family="sans-serif" font-size="13" lengthAdjust="spacing" textLength="4" x="731.5" y="783.3262"> </text><text fill="#000000" font-family="sans-serif" font-size="13" lengthAdjust="spacing" textLength="8" x="731.5" y="798.6367">0</text><polygon fill="#181818" points="1207,844,1217,848,1207,852,1211,848" style="stroke:#181818;stroke-width:1.0;"/><line style="stroke:#181818;stroke-width:1.0;" x1="714.5" x2="1213" y1="848" y2="848"/><text fill="#000000" font-family="sans-serif" font-size="13" lengthAdjust="spacing" textLength="79" x="721.5" y="827.9473">totalSupply()</text><text fill="#000000" font-family="sans-serif" font-size="13" lengthAdjust="spacing" textLength="70" x="721.5" y="843.2578">12,754 gas</text><polygon fill="#181818" points="725.5,888.6211,715.5,892.6211,725.5,896.6211,721.5,892.6211" style="stroke:#181818;stroke-width:1.0;"/><line style="stroke:#181818;stroke-width:1.0;stroke-dasharray:2.0,2.0;" x1="719.5" x2="1223" y1="892.6211" y2="892.6211"/><text fill="#000000" font-family="sans-serif" font-size="13" lengthAdjust="spacing" textLength="4" x="731.5" y="872.5684"> </text><text fill="#000000" font-family="sans-serif" font-size="13" lengthAdjust="spacing" textLength="252" x="731.5" y="887.8789">246,187,220,,869,696,589,149,277,800</text><polygon fill="#181818" points="290,933.2422,280,937.2422,290,941.2422,286,937.2422" style="stroke:#181818;stroke-width:1.0;"/><line style="stroke:#181818;stroke-width:1.0;stroke-dasharray:2.0,2.0;" x1="284" x2="708.5" y1="937.2422" y2="937.2422"/><text fill="#000000" font-family="sans-serif" font-size="13" lengthAdjust="spacing" textLength="4" x="296" y="917.1895"> </text><text fill="#000000" font-family="sans-serif" font-size="13" lengthAdjust="spacing" textLength="25" x="296" y="932.5">true</text><path d="M714,950.2422 L714,990.2422 L805,990.2422 L805,960.2422 L795,950.2422 L714,950.2422 " fill="#FEFFDD" style="stroke:#181818;stroke-width:0.5;"/><path d="M795,950.2422 L795,960.2422 L805,960.2422 L795,950.2422 " fill="#FEFFDD" style="stroke:#181818;stroke-width:0.5;"/><text fill="#000000" font-family="sans-serif" font-size="13" lengthAdjust="spacing" textLength="4" x="720" y="967.8105"> </text><text fill="#000000" font-family="sans-serif" font-size="13" lengthAdjust="spacing" textLength="70" x="720" y="983.1211">96,639 gas</text><polygon fill="#181818" points="692.5,1043.7949,702.5,1047.7949,692.5,1051.7949,696.5,1047.7949" style="stroke:#181818;stroke-width:1.0;"/><line style="stroke:#181818;stroke-width:1.0;" x1="279" x2="698.5" y1="1047.7949" y2="1047.7949"/><text fill="#000000" font-family="sans-serif" font-size="13" lengthAdjust="spacing" textLength="116" x="286" y="1012.4316">integrate_fraction(</text><text fill="#000000" font-family="sans-serif" font-size="13" lengthAdjust="spacing" textLength="128" x="286" y="1027.7422">arg0: 0x0559..8778)</text><text fill="#000000" font-family="sans-serif" font-size="13" lengthAdjust="spacing" textLength="62" x="286" y="1043.0527">1,179 gas</text><polygon fill="#181818" points="290,1088.416,280,1092.416,290,1096.416,286,1092.416" style="stroke:#181818;stroke-width:1.0;"/><line style="stroke:#181818;stroke-width:1.0;stroke-dasharray:2.0,2.0;" x1="284" x2="708.5" y1="1092.416" y2="1092.416"/><text fill="#000000" font-family="sans-serif" font-size="13" lengthAdjust="spacing" textLength="4" x="296" y="1072.3633"> </text><text fill="#000000" font-family="sans-serif" font-size="13" lengthAdjust="spacing" textLength="208" x="296" y="1087.6738">2,396,,599,786,505,980,998,004</text><polygon fill="#181818" points="1040,1163.6582,1050,1167.6582,1040,1171.6582,1044,1167.6582" style="stroke:#181818;stroke-width:1.0;"/><line style="stroke:#181818;stroke-width:1.0;" x1="279" x2="1046" y1="1167.6582" y2="1167.6582"/><text fill="#000000" font-family="sans-serif" font-size="13" lengthAdjust="spacing" textLength="33" x="286" y="1116.9844">mint(</text><text fill="#000000" font-family="sans-serif" font-size="13" lengthAdjust="spacing" textLength="120" x="286" y="1132.2949">_to: 0x0559..8778,</text><text fill="#000000" font-family="sans-serif" font-size="13" lengthAdjust="spacing" textLength="260" x="286" y="1147.6055">_value: 2,396,,599,786,505,980,998,004)</text><text fill="#000000" font-family="sans-serif" font-size="13" lengthAdjust="spacing" textLength="70" x="286" y="1162.916">34,612 gas</text><polygon fill="#181818" points="290,1208.2793,280,1212.2793,290,1216.2793,286,1212.2793" style="stroke:#181818;stroke-width:1.0;"/><line style="stroke:#181818;stroke-width:1.0;stroke-dasharray:2.0,2.0;" x1="284" x2="1056" y1="1212.2793" y2="1212.2793"/><text fill="#000000" font-family="sans-serif" font-size="13" lengthAdjust="spacing" textLength="4" x="296" y="1192.2266"> </text><text fill="#000000" font-family="sans-serif" font-size="13" lengthAdjust="spacing" textLength="25" x="296" y="1207.5371">true</text><polygon fill="#181818" points="90,1222.2793,80,1226.2793,90,1230.2793,86,1226.2793" style="stroke:#181818;stroke-width:1.0;"/><line style="stroke:#181818;stroke-width:1.0;stroke-dasharray:2.0,2.0;" x1="84" x2="273" y1="1226.2793" y2="1226.2793"/><path d="M279,1239.2793 L279,1279.2793 L370,1279.2793 L370,1249.2793 L360,1239.2793 L279,1239.2793 " fill="#FEFFDD" style="stroke:#181818;stroke-width:0.5;"/><path d="M360,1239.2793 L360,1249.2793 L370,1249.2793 L360,1239.2793 " fill="#FEFFDD" style="stroke:#181818;stroke-width:0.5;"/><text fill="#000000" font-family="sans-serif" font-size="13" lengthAdjust="spacing" textLength="4" x="285" y="1256.8477"> </text><text fill="#000000" font-family="sans-serif" font-size="13" lengthAdjust="spacing" textLength="70" x="285" y="1272.1582">58,282 gas</text><path d="M129,1289.9004 L129,1360.9004 L418,1360.9004 L418,1299.9004 L408,1289.9004 L129,1289.9004 " fill="#00FFFF" style="stroke:#181818;stroke-width:0.5;"/><path d="M408,1289.9004 L408,1299.9004 L418,1299.9004 L408,1289.9004 " fill="#00FFFF" style="stroke:#181818;stroke-width:0.5;"/><text fill="#000000" font-family="sans-serif" font-size="13" lengthAdjust="spacing" textLength="47" x="135" y="1307.4688">Minted:</text><text fill="#000000" font-family="sans-serif" font-size="13" lengthAdjust="spacing" textLength="155" x="143" y="1322.7793">recipient: 0x0559..8778,</text><text fill="#000000" font-family="sans-serif" font-size="13" lengthAdjust="spacing" textLength="136" x="143" y="1338.0898">gauge: 0xF984..CfC4,</text><text fill="#000000" font-family="sans-serif" font-size="13" lengthAdjust="spacing" textLength="260" x="143" y="1353.4004">minted: 2,396,,599,786,505,980,998,004</text><path d="M514,1289.9004 L514,1390.9004 L904,1390.9004 L904,1299.9004 L894,1289.9004 L514,1289.9004 " fill="#00FFFF" style="stroke:#181818;stroke-width:0.5;"/><path d="M894,1289.9004 L894,1299.9004 L904,1299.9004 L894,1289.9004 " fill="#00FFFF" style="stroke:#181818;stroke-width:0.5;"/><text fill="#000000" font-family="sans-serif" font-size="13" lengthAdjust="spacing" textLength="135" x="520" y="1307.4688">UpdateLiquidityLimit:</text><text fill="#000000" font-family="sans-serif" font-size="13" lengthAdjust="spacing" textLength="127" x="528" y="1322.7793">user: 0x0559..8778,</text><text fill="#000000" font-family="sans-serif" font-size="13" lengthAdjust="spacing" textLength="123" x="528" y="1338.0898">original_balance: 0,</text><text fill="#000000" font-family="sans-serif" font-size="13" lengthAdjust="spacing" textLength="361" x="528" y="1353.4004">original_supply: 568,662,977,,410,984,729,068,525,015,</text><text fill="#000000" font-family="sans-serif" font-size="13" lengthAdjust="spacing" textLength="126" x="528" y="1368.7109">working_balance: 0,</text><text fill="#000000" font-family="sans-serif" font-size="13" lengthAdjust="spacing" textLength="360" x="528" y="1384.0215">working_supply: 378,159,011,,152,014,782,569,660,105</text><path d="M914,1289.9004 L914,1360.9004 L1199,1360.9004 L1199,1299.9004 L1189,1289.9004 L914,1289.9004 " fill="#00FFFF" style="stroke:#181818;stroke-width:0.5;"/><path d="M1189,1289.9004 L1189,1299.9004 L1199,1299.9004 L1189,1289.9004 " fill="#00FFFF" style="stroke:#181818;stroke-width:0.5;"/><text fill="#000000" font-family="sans-serif" font-size="13" lengthAdjust="spacing" textLength="56" x="920" y="1307.4688">Transfer:</text><text fill="#000000" font-family="sans-serif" font-size="13" lengthAdjust="spacing" textLength="137" x="928" y="1322.7793">_from: 0x0000..0000,</text><text fill="#000000" font-family="sans-serif" font-size="13" lengthAdjust="spacing" textLength="120" x="928" y="1338.0898">_to: 0x0559..8778,</text><text fill="#000000" font-family="sans-serif" font-size="13" lengthAdjust="spacing" textLength="256" x="928" y="1353.4004">_value: 2,396,,599,786,505,980,998,004</text><!--SRC=[ZPNTRjiu48NlzHH4UvC2h9QaH8eKWW2BjCrYqP_5rkbL08EMA8U8BRaqvIHltw5aoP6TDCr5u1c9tmmF3qVU-fL1v44PbUZ4LB9SL2ML5KqPJqejXAbOogbU69Kc2J55gQIXYLAGDGj2CquD5qn4XTvuszHehMrT6u_HOjKKTuWonP9C28ncjor6JA5_snLYX574afndEK_GrPTPf0lVEFI6F13ELHpBB9DlaDwY48O0HHljl2tiHjS-l5SIGUEuAWpftWjX2D3v-MNhTYQkR8vcpPsfqHTRU-CkBixFf_4naLMSn74g5ekE6C8GJ8XNkbqQTDdKtZMhLKyzpHsJAoNJE2wg8kt88Gp1X7pz_SDNzDd-R6rf_MDVAD1FKYT2y2G1UCbPBmI48HZWwCFVtteX0ktiylyVxyAFasV7M5ubYpWsJFVO48O0i3yQRzwRRU6QUrCY07RWdHdGyDpMI_InUmF0KGqBKBCpRZpDw6jJ5oP7FBe2zd_EXY0bCK5NzyPsoSzsRJqainGdd7MfwwqfSvGGZfNWqUm1VJAm35PHXZxE_ebCNQ9GAuf6rxo_69sHepKS_DbDlGmwpdLPEbZyyAaxcylgCdrtK-_PQActmP5sfw7p0H2D7WFgu8uSzJZ_k35RW3_FPHZko9Gw029dVElgcthA7poIetPhtBouDSNTfkatC9GuN9LGWYWC5tHQPA14e-M287k7vAXgeRIPcqrJtCwzNPlvlRFUdFKT4t6amtxTs375WaaiLO99AbyeuVJ0KqAzmfCOPnIEE-4uvHcM4dQa18P9Cu4Vf3-eCkzEuOas4_aLnJoZlzL_Kc4mUuuMUgN1gT-g5sM7_H-HXzLFJlPvk6-yNdrlDvlLOv28Cfpnz1KMImMcCiEC4OobK5Y0GXoKegd2B0FL21bVzgur_UrpTddhKLCzyHN88h18-aDvtdfXK2x32Suh5rfgwY23Mv8J6IYccNh1UsFhtMbYhXJE93GTxfeaM2c92KadBHpyix-pSzzCQsB8xVIgXG7mUswurIaMbBrYlawhlHUcaXq6o4tD9MQoHpqPQsFhR_NFLaVT1wRC8uISWO5gJUsFceT7dM6dJWtfTR_sbKqz6NL_eKCVeytwFgut9Mnr_83q4nLgX8bosb036xQrNittdeSt9kbjPrIOsK9Y8U0-WzbmIg4dcUACAKpW0MSS4yh3mll6tS5tu0WtP0TQ0iKfXyMKOlZ1u0VGP1YOu6r1C2NyXTsENxf-jpEdwsq5EuCguDTctMqH_k8u_0_5JrqKadzaeqCFlm00]--></g></svg>