<?xml version="1.0" encoding="UTF-8" standalone="no"?><svg xmlns="http://www.w3.org/2000/svg" xmlns:xlink="http://www.w3.org/1999/xlink" contentStyleType="text/css" height="533px" preserveAspectRatio="none" style="width:597px;height:533px;background:#FFFFFF;" version="1.1" viewBox="0 0 597 533" width="597px" zoomAndPan="magnify"><defs/><g><text fill="#000000" font-family="sans-serif" font-size="14" font-weight="bold" lengthAdjust="spacing" textLength="569" x="10" y="28.5352">0x22bd02c8d934627a4b79e7fd66dba69492ddf1bbb7a86dd74fdaf7bb32f8ea24</text><text fill="#000000" font-family="sans-serif" font-size="14" lengthAdjust="spacing" textLength="407" x="91" y="521.2773">mainnet, block 11500006, Tue, 22 Dec 2020 00:28:20 GMT</text><rect fill="#FFFFFF" height="14" style="stroke:#181818;stroke-width:1.0;" width="10" x="321" y="312.5469"/><line style="stroke:#181818;stroke-width:0.5;stroke-dasharray:5.0,5.0;" x1="188.5" x2="188.5" y1="123.4414" y2="425.7891"/><line style="stroke:#181818;stroke-width:0.5;stroke-dasharray:5.0,5.0;" x1="326" x2="326" y1="123.4414" y2="425.7891"/><text fill="#000000" font-family="sans-serif" font-size="14" lengthAdjust="spacing" textLength="91" x="140.5" y="120.4883">0x2bcf..be13</text><ellipse cx="189" cy="55.4531" fill="#E2E2F0" rx="8" ry="8" style="stroke:#181818;stroke-width:0.5;"/><path d="M189,63.4531 L189,90.4531 M176,71.4531 L202,71.4531 M189,90.4531 L176,105.4531 M189,90.4531 L202,105.4531 " fill="none" style="stroke:#181818;stroke-width:0.5;"/><text fill="#000000" font-family="sans-serif" font-size="14" lengthAdjust="spacing" textLength="91" x="140.5" y="438.3242">0x2bcf..be13</text><ellipse cx="189" cy="449.7773" fill="#E2E2F0" rx="8" ry="8" style="stroke:#181818;stroke-width:0.5;"/><path d="M189,457.7773 L189,484.7773 M176,465.7773 L202,465.7773 M189,484.7773 L176,499.7773 M189,484.7773 L202,499.7773 " fill="none" style="stroke:#181818;stroke-width:0.5;"/><rect fill="#E2E2F0" height="79.9531" rx="2.5" ry="2.5" style="stroke:#181818;stroke-width:0.5;" width="104" x="274" y="42.4883"/><text fill="#000000" font-family="sans-serif" font-size="14" font-style="italic" lengthAdjust="spacing" textLength="57" x="297.5" y="63.0234">«Stratis»</text><text fill="#000000" font-family="sans-serif" font-size="14" font-style="italic" lengthAdjust="spacing" textLength="69" x="291.5" y="79.5117">«(STRAX)»</text><text fill="#000000" font-family="sans-serif" font-size="14" font-style="italic" lengthAdjust="spacing" textLength="57" x="297.5" y="96">«Stratis»</text><text fill="#000000" font-family="sans-serif" font-size="14" lengthAdjust="spacing" textLength="90" x="281" y="112.4883">0x8f19..641f</text><rect fill="#E2E2F0" height="79.9531" rx="2.5" ry="2.5" style="stroke:#181818;stroke-width:0.5;" width="104" x="274" y="424.7891"/><text fill="#000000" font-family="sans-serif" font-size="14" font-style="italic" lengthAdjust="spacing" textLength="57" x="297.5" y="445.3242">«Stratis»</text><text fill="#000000" font-family="sans-serif" font-size="14" font-style="italic" lengthAdjust="spacing" textLength="69" x="291.5" y="461.8125">«(STRAX)»</text><text fill="#000000" font-family="sans-serif" font-size="14" font-style="italic" lengthAdjust="spacing" textLength="57" x="297.5" y="478.3008">«Stratis»</text><text fill="#000000" font-family="sans-serif" font-size="14" lengthAdjust="spacing" textLength="90" x="281" y="494.7891">0x8f19..641f</text><rect fill="#FFFFFF" height="14" style="stroke:#181818;stroke-width:1.0;" width="10" x="321" y="312.5469"/><path d="M113.5,138.4414 L113.5,224.4414 L265.5,224.4414 L265.5,148.4414 L255.5,138.4414 L113.5,138.4414 " fill="#FEFFDD" style="stroke:#181818;stroke-width:0.5;"/><path d="M255.5,138.4414 L255.5,148.4414 L265.5,148.4414 L255.5,138.4414 " fill="#FEFFDD" style="stroke:#181818;stroke-width:0.5;"/><text fill="#000000" font-family="sans-serif" font-size="13" lengthAdjust="spacing" textLength="56" x="119.5" y="156.0098">Nonce: 0</text><text fill="#000000" font-family="sans-serif" font-size="13" lengthAdjust="spacing" textLength="127" x="119.5" y="171.3203">Gas Price: 40.0 Gwei</text><text fill="#000000" font-family="sans-serif" font-size="13" lengthAdjust="spacing" textLength="131" x="119.5" y="186.6309">Gas Limit: 1,009,014</text><text fill="#000000" font-family="sans-serif" font-size="13" lengthAdjust="spacing" textLength="130" x="119.5" y="201.9414">Gas Used: 1,009,014</text><text fill="#000000" font-family="sans-serif" font-size="13" lengthAdjust="spacing" textLength="106" x="119.5" y="217.252">Tx Fee: 0.04 ETH</text><ellipse cx="320.5" cy="311.7969" fill="none" rx="4" ry="4" style="stroke:#181818;stroke-width:1.5;"/><polygon fill="#181818" points="303.5,308.5469,313.5,312.5469,303.5,316.5469,307.5,312.5469" style="stroke:#181818;stroke-width:1.0;"/><line style="stroke:#181818;stroke-width:1.0;" x1="189" x2="309.5" y1="312.5469" y2="312.5469"/><text fill="#000000" font-family="sans-serif" font-size="13" lengthAdjust="spacing" textLength="77" x="196" y="246.5625">constructor(</text><text fill="#000000" font-family="sans-serif" font-size="13" lengthAdjust="spacing" textLength="93" x="196" y="261.873">_name: Stratis,</text><text fill="#000000" font-family="sans-serif" font-size="13" lengthAdjust="spacing" textLength="105" x="196" y="277.1836">_symbol: STRAX,</text><text fill="#000000" font-family="sans-serif" font-size="13" lengthAdjust="spacing" textLength="113" x="196" y="292.4941">_supply: 100,000)</text><text fill="#000000" font-family="sans-serif" font-size="13" lengthAdjust="spacing" textLength="90" x="196" y="307.8047">1,009,014 gas</text><ellipse cx="188.5" cy="325.7969" fill="none" rx="4" ry="4" style="stroke:#181818;stroke-width:1.5;"/><polygon fill="#181818" points="205.5,322.5469,195.5,326.5469,205.5,330.5469,201.5,326.5469" style="stroke:#181818;stroke-width:1.0;"/><line style="stroke:#181818;stroke-width:1.0;stroke-dasharray:2.0,2.0;" x1="203.5" x2="325" y1="326.5469" y2="326.5469"/><path d="M175.5,339.5469 L175.5,410.5469 L476.5,410.5469 L476.5,349.5469 L466.5,339.5469 L175.5,339.5469 " fill="#00FFFF" style="stroke:#181818;stroke-width:0.5;"/><path d="M466.5,339.5469 L466.5,349.5469 L476.5,349.5469 L466.5,339.5469 " fill="#00FFFF" style="stroke:#181818;stroke-width:0.5;"/><text fill="#000000" font-family="sans-serif" font-size="13" lengthAdjust="spacing" textLength="56" x="181.5" y="357.1152">Transfer:</text><text fill="#000000" font-family="sans-serif" font-size="13" lengthAdjust="spacing" textLength="137" x="189.5" y="372.4258">_from: 0x0000..0000,</text><text fill="#000000" font-family="sans-serif" font-size="13" lengthAdjust="spacing" textLength="115" x="189.5" y="387.7363">_to: 0x2BcF..Be13,</text><text fill="#000000" font-family="sans-serif" font-size="13" lengthAdjust="spacing" textLength="272" x="189.5" y="403.0469">_value: 100,000,,000,000,000,000,000,000</text><!--SRC=[RP5RQzmm48NVzIk6z2K1HyXQrpUMXOOswKDRIkD27m9XT2kYNicLvUtctqSohPk722nqFkIPSqRHnb43EtCk5EEoLTskgdc3bMWwtHXLrqfWtLKTLygKGeW6srgffZ8AJIF4ZfjM8w-8n2bQx-28rZaT2n2Zbx-WBD-ojEe2XaKNm3cyrn8uummOwtdRfyFTvu6WZ3x0HJ8YfA5Kw79t0JX3bba0cJ14A-s4BkPxhIaxIkkgDEkzBBE0_Vu-1ensFXps-ylxuTkx7rVvk552d8yQ_4c7hJhvuftKFJ1obsfz3JQBYj7axO-sA_naZpRsK1QCTGKhgnL-dxLwoOOptEfSXx8AFWmVYNOASZj2jY3N1x-vxK5wDyUmvFIN3-xHuJ7z_jThaS3yT1H-J2W7MS4oJUDJQifOQikk7jpM7dxYd0TfJvW2_kj1WevBS2zZRyDwWxyN94D0DniTUWBmQ88_fW3d_6gKvht8EFeC-OsyfVGcnLZX2ST5RrQATNlb-p-5Pm00]--></g></svg>