<?xml version="1.0" encoding="UTF-8" standalone="no"?><svg xmlns="http://www.w3.org/2000/svg" xmlns:xlink="http://www.w3.org/1999/xlink" contentStyleType="text/css" height="1177px" preserveAspectRatio="none" style="width:933px;height:1177px;background:#FFFFFF;" version="1.1" viewBox="0 0 933 1177" width="933px" zoomAndPan="magnify"><defs/><g><text fill="#000000" font-family="sans-serif" font-size="14" font-weight="bold" lengthAdjust="spacing" textLength="562" x="184.5" y="28.5352">0x7aca0414c3c04e58c11ad6b7d13bbfe1c6d4500fbe402900da9abf6bb6f53a8d</text><text fill="#000000" font-family="sans-serif" font-size="14" lengthAdjust="spacing" textLength="402" x="264.5" y="1165.2832">mainnet, block 9545987, Mon, 24 Feb 2020 11:51:27 GMT</text><rect fill="#FFFFFF" height="653.3164" style="stroke:#181818;stroke-width:1.0;" width="10" x="189.5" y="266.6152"/><rect fill="#FFFFFF" height="149.1738" style="stroke:#181818;stroke-width:1.0;" width="10" x="450.5" y="326.5469"/><rect fill="#FFFFFF" height="179.7949" style="stroke:#181818;stroke-width:1.0;" width="10" x="450.5" y="616.8945"/><rect fill="#809ECB" height="44.6211" style="stroke:#181818;stroke-width:1.0;" width="10" x="711.5" y="386.4785"/><rect fill="#809ECB" height="44.6211" style="stroke:#181818;stroke-width:1.0;" width="10" x="711.5" y="707.4473"/><rect fill="#FFFFFF" height="14" style="stroke:#181818;stroke-width:1.0;" width="10" x="867" y="891.9316"/><line style="stroke:#181818;stroke-width:0.5;stroke-dasharray:5.0,5.0;" x1="78" x2="78" y1="123.4414" y2="1069.7949"/><line style="stroke:#181818;stroke-width:0.5;stroke-dasharray:5.0,5.0;" x1="194" x2="194" y1="123.4414" y2="1069.7949"/><line style="stroke:#181818;stroke-width:0.5;stroke-dasharray:5.0,5.0;" x1="455.5" x2="455.5" y1="123.4414" y2="1069.7949"/><line style="stroke:#181818;stroke-width:0.5;stroke-dasharray:5.0,5.0;" x1="716" x2="716" y1="123.4414" y2="1069.7949"/><line style="stroke:#181818;stroke-width:0.5;stroke-dasharray:5.0,5.0;" x1="872" x2="872" y1="123.4414" y2="1069.7949"/><text fill="#000000" font-family="sans-serif" font-size="14" lengthAdjust="spacing" textLength="95" x="28" y="120.4883">0x7dbc..a504</text><ellipse cx="78.5" cy="55.4531" fill="#E2E2F0" rx="8" ry="8" style="stroke:#181818;stroke-width:0.5;"/><path d="M78.5,63.4531 L78.5,90.4531 M65.5,71.4531 L91.5,71.4531 M78.5,90.4531 L65.5,105.4531 M78.5,90.4531 L91.5,105.4531 " fill="none" style="stroke:#181818;stroke-width:0.5;"/><text fill="#000000" font-family="sans-serif" font-size="14" lengthAdjust="spacing" textLength="95" x="28" y="1082.3301">0x7dbc..a504</text><ellipse cx="78.5" cy="1093.7832" fill="#E2E2F0" rx="8" ry="8" style="stroke:#181818;stroke-width:0.5;"/><path d="M78.5,1101.7832 L78.5,1128.7832 M65.5,1109.7832 L91.5,1109.7832 M78.5,1128.7832 L65.5,1143.7832 M78.5,1128.7832 L91.5,1143.7832 " fill="none" style="stroke:#181818;stroke-width:0.5;"/><rect fill="#E2E2F0" height="30.4883" rx="2.5" ry="2.5" style="stroke:#181818;stroke-width:0.5;" width="111" x="139" y="91.9531"/><text fill="#000000" font-family="sans-serif" font-size="14" lengthAdjust="spacing" textLength="97" x="146" y="112.4883">0x8a91..8508</text><rect fill="#E2E2F0" height="30.4883" rx="2.5" ry="2.5" style="stroke:#181818;stroke-width:0.5;" width="111" x="139" y="1068.7949"/><text fill="#000000" font-family="sans-serif" font-size="14" lengthAdjust="spacing" textLength="97" x="146" y="1089.3301">0x8a91..8508</text><rect fill="#E2E2F0" height="79.9531" rx="2.5" ry="2.5" style="stroke:#181818;stroke-width:0.5;" width="212" x="349.5" y="42.4883"/><text fill="#000000" font-family="sans-serif" font-size="14" font-style="italic" lengthAdjust="spacing" textLength="84" x="413.5" y="63.0234">«Pax Dollar»</text><text fill="#000000" font-family="sans-serif" font-size="14" font-style="italic" lengthAdjust="spacing" textLength="60" x="425.5" y="79.5117">«(USDP)»</text><text fill="#000000" font-family="sans-serif" font-size="14" font-style="italic" lengthAdjust="spacing" textLength="198" x="356.5" y="96">«AdminUpgradeabilityProxy»</text><text fill="#000000" font-family="sans-serif" font-size="14" lengthAdjust="spacing" textLength="96" x="407.5" y="112.4883">0x8e87..89e1</text><rect fill="#E2E2F0" height="79.9531" rx="2.5" ry="2.5" style="stroke:#181818;stroke-width:0.5;" width="212" x="349.5" y="1068.7949"/><text fill="#000000" font-family="sans-serif" font-size="14" font-style="italic" lengthAdjust="spacing" textLength="84" x="413.5" y="1089.3301">«Pax Dollar»</text><text fill="#000000" font-family="sans-serif" font-size="14" font-style="italic" lengthAdjust="spacing" textLength="60" x="425.5" y="1105.8184">«(USDP)»</text><text fill="#000000" font-family="sans-serif" font-size="14" font-style="italic" lengthAdjust="spacing" textLength="198" x="356.5" y="1122.3066">«AdminUpgradeabilityProxy»</text><text fill="#000000" font-family="sans-serif" font-size="14" lengthAdjust="spacing" textLength="96" x="407.5" y="1138.7949">0x8e87..89e1</text><rect fill="#E2E2F0" height="79.9531" rx="2.5" ry="2.5" style="stroke:#181818;stroke-width:0.5;" width="181" x="626" y="42.4883"/><text fill="#000000" font-family="sans-serif" font-size="14" font-style="italic" lengthAdjust="spacing" textLength="121" x="656" y="63.0234">«Paxos Standard»</text><text fill="#000000" font-family="sans-serif" font-size="14" font-style="italic" lengthAdjust="spacing" textLength="51" x="691" y="79.5117">«(PAX)»</text><text fill="#000000" font-family="sans-serif" font-size="14" font-style="italic" lengthAdjust="spacing" textLength="167" x="633" y="96">«PAXImplementationV2»</text><text fill="#000000" font-family="sans-serif" font-size="14" lengthAdjust="spacing" textLength="95" x="669" y="112.4883">0x86ee..310a</text><rect fill="#E2E2F0" height="79.9531" rx="2.5" ry="2.5" style="stroke:#181818;stroke-width:0.5;" width="181" x="626" y="1068.7949"/><text fill="#000000" font-family="sans-serif" font-size="14" font-style="italic" lengthAdjust="spacing" textLength="121" x="656" y="1089.3301">«Paxos Standard»</text><text fill="#000000" font-family="sans-serif" font-size="14" font-style="italic" lengthAdjust="spacing" textLength="51" x="691" y="1105.8184">«(PAX)»</text><text fill="#000000" font-family="sans-serif" font-size="14" font-style="italic" lengthAdjust="spacing" textLength="167" x="633" y="1122.3066">«PAXImplementationV2»</text><text fill="#000000" font-family="sans-serif" font-size="14" lengthAdjust="spacing" textLength="95" x="669" y="1138.7949">0x86ee..310a</text><rect fill="#E2E2F0" height="30.4883" rx="2.5" ry="2.5" style="stroke:#181818;stroke-width:0.5;" width="110" x="817" y="91.9531"/><text fill="#000000" font-family="sans-serif" font-size="14" lengthAdjust="spacing" textLength="96" x="824" y="112.4883">0x1149..c748</text><rect fill="#E2E2F0" height="30.4883" rx="2.5" ry="2.5" style="stroke:#181818;stroke-width:0.5;" width="110" x="817" y="1068.7949"/><text fill="#000000" font-family="sans-serif" font-size="14" lengthAdjust="spacing" textLength="96" x="824" y="1089.3301">0x1149..c748</text><rect fill="#FFFFFF" height="653.3164" style="stroke:#181818;stroke-width:1.0;" width="10" x="189.5" y="266.6152"/><rect fill="#FFFFFF" height="149.1738" style="stroke:#181818;stroke-width:1.0;" width="10" x="450.5" y="326.5469"/><rect fill="#FFFFFF" height="179.7949" style="stroke:#181818;stroke-width:1.0;" width="10" x="450.5" y="616.8945"/><rect fill="#809ECB" height="44.6211" style="stroke:#181818;stroke-width:1.0;" width="10" x="711.5" y="386.4785"/><rect fill="#809ECB" height="44.6211" style="stroke:#181818;stroke-width:1.0;" width="10" x="711.5" y="707.4473"/><rect fill="#FFFFFF" height="14" style="stroke:#181818;stroke-width:1.0;" width="10" x="867" y="891.9316"/><path d="M5,138.4414 L5,224.4414 L153,224.4414 L153,148.4414 L143,138.4414 L5,138.4414 " fill="#FEFFDD" style="stroke:#181818;stroke-width:0.5;"/><path d="M143,138.4414 L143,148.4414 L153,148.4414 L143,138.4414 " fill="#FEFFDD" style="stroke:#181818;stroke-width:0.5;"/><text fill="#000000" font-family="sans-serif" font-size="13" lengthAdjust="spacing" textLength="100" x="11" y="156.0098">Nonce: 190,301</text><text fill="#000000" font-family="sans-serif" font-size="13" lengthAdjust="spacing" textLength="127" x="11" y="171.3203">Gas Price: 4.95 Gwei</text><text fill="#000000" font-family="sans-serif" font-size="13" lengthAdjust="spacing" textLength="119" x="11" y="186.6309">Gas Limit: 374,668</text><text fill="#000000" font-family="sans-serif" font-size="13" lengthAdjust="spacing" textLength="118" x="11" y="201.9414">Gas Used: 284,735</text><text fill="#000000" font-family="sans-serif" font-size="13" lengthAdjust="spacing" textLength="114" x="11" y="217.252">Tx Fee: 0.001 ETH</text><polygon fill="#181818" points="177.5,262.6152,187.5,266.6152,177.5,270.6152,181.5,266.6152" style="stroke:#181818;stroke-width:1.0;"/><line style="stroke:#181818;stroke-width:1.0;" x1="78.5" x2="183.5" y1="266.6152" y2="266.6152"/><text fill="#000000" font-family="sans-serif" font-size="13" lengthAdjust="spacing" textLength="77" x="85.5" y="246.5625">0xae8123ba</text><text fill="#000000" font-family="sans-serif" font-size="13" lengthAdjust="spacing" textLength="78" x="85.5" y="261.873">284,735 gas</text><polygon fill="#181818" points="438.5,322.5469,448.5,326.5469,438.5,330.5469,442.5,326.5469" style="stroke:#181818;stroke-width:1.0;"/><line style="stroke:#181818;stroke-width:1.0;stroke-dasharray:2.0,2.0;" x1="199.5" x2="444.5" y1="326.5469" y2="326.5469"/><text fill="#000000" font-family="sans-serif" font-size="13" lengthAdjust="spacing" textLength="67" x="206.5" y="291.1836">balanceOf(</text><text fill="#000000" font-family="sans-serif" font-size="13" lengthAdjust="spacing" textLength="134" x="206.5" y="306.4941">_addr: 0xDc3c..336c)</text><text fill="#000000" font-family="sans-serif" font-size="13" lengthAdjust="spacing" textLength="62" x="206.5" y="321.8047">4,337 gas</text><line style="stroke:#181818;stroke-width:1.0;" x1="709.5" x2="699.5" y1="386.4785" y2="382.4785"/><line style="stroke:#181818;stroke-width:1.0;" x1="709.5" x2="699.5" y1="386.4785" y2="390.4785"/><line style="stroke:#181818;stroke-width:1.0;" x1="460.5" x2="710.5" y1="386.4785" y2="386.4785"/><text fill="#000000" font-family="sans-serif" font-size="13" lengthAdjust="spacing" textLength="67" x="467.5" y="351.1152">balanceOf(</text><text fill="#000000" font-family="sans-serif" font-size="13" lengthAdjust="spacing" textLength="134" x="467.5" y="366.4258">_addr: 0xDc3c..336c)</text><text fill="#000000" font-family="sans-serif" font-size="13" lengthAdjust="spacing" textLength="62" x="467.5" y="381.7363">1,558 gas</text><line style="stroke:#181818;stroke-width:1.0;" x1="461.5" x2="471.5" y1="431.0996" y2="427.0996"/><line style="stroke:#181818;stroke-width:1.0;" x1="461.5" x2="471.5" y1="431.0996" y2="435.0996"/><line style="stroke:#181818;stroke-width:1.0;stroke-dasharray:2.0,2.0;" x1="460.5" x2="715.5" y1="431.0996" y2="431.0996"/><text fill="#000000" font-family="sans-serif" font-size="13" lengthAdjust="spacing" textLength="4" x="477.5" y="411.0469"> </text><text fill="#000000" font-family="sans-serif" font-size="13" lengthAdjust="spacing" textLength="180" x="477.5" y="426.3574">5,,000,000,000,000,000,000</text><polygon fill="#181818" points="210.5,471.7207,200.5,475.7207,210.5,479.7207,206.5,475.7207" style="stroke:#181818;stroke-width:1.0;"/><line style="stroke:#181818;stroke-width:1.0;stroke-dasharray:2.0,2.0;" x1="204.5" x2="454.5" y1="475.7207" y2="475.7207"/><text fill="#000000" font-family="sans-serif" font-size="13" lengthAdjust="spacing" textLength="4" x="216.5" y="455.668"> </text><text fill="#000000" font-family="sans-serif" font-size="13" lengthAdjust="spacing" textLength="180" x="216.5" y="470.9785">5,,000,000,000,000,000,000</text><path d="M460,488.7207 L460,528.7207 L543,528.7207 L543,498.7207 L533,488.7207 L460,488.7207 " fill="#FEFFDD" style="stroke:#181818;stroke-width:0.5;"/><path d="M533,488.7207 L533,498.7207 L543,498.7207 L533,488.7207 " fill="#FEFFDD" style="stroke:#181818;stroke-width:0.5;"/><text fill="#000000" font-family="sans-serif" font-size="13" lengthAdjust="spacing" textLength="4" x="466" y="506.2891"> </text><text fill="#000000" font-family="sans-serif" font-size="13" lengthAdjust="spacing" textLength="62" x="466" y="521.5996">2,779 gas</text><polygon fill="#181818" points="438.5,612.8945,448.5,616.8945,438.5,620.8945,442.5,616.8945" style="stroke:#181818;stroke-width:1.0;"/><line style="stroke:#181818;stroke-width:1.0;stroke-dasharray:2.0,2.0;" x1="199.5" x2="444.5" y1="616.8945" y2="616.8945"/><text fill="#000000" font-family="sans-serif" font-size="13" lengthAdjust="spacing" textLength="85" x="206.5" y="550.9102">transferFrom(</text><text fill="#000000" font-family="sans-serif" font-size="13" lengthAdjust="spacing" textLength="136" x="206.5" y="566.2207">_from: 0xDc3c..336c,</text><text fill="#000000" font-family="sans-serif" font-size="13" lengthAdjust="spacing" textLength="121" x="206.5" y="581.5313">_to: 0x8A91..8508,</text><text fill="#000000" font-family="sans-serif" font-size="13" lengthAdjust="spacing" textLength="232" x="206.5" y="596.8418">_value: 5,,000,000,000,000,000,000)</text><text fill="#000000" font-family="sans-serif" font-size="13" lengthAdjust="spacing" textLength="70" x="206.5" y="612.1523">29,542 gas</text><line style="stroke:#181818;stroke-width:1.0;" x1="709.5" x2="699.5" y1="707.4473" y2="703.4473"/><line style="stroke:#181818;stroke-width:1.0;" x1="709.5" x2="699.5" y1="707.4473" y2="711.4473"/><line style="stroke:#181818;stroke-width:1.0;" x1="460.5" x2="710.5" y1="707.4473" y2="707.4473"/><text fill="#000000" font-family="sans-serif" font-size="13" lengthAdjust="spacing" textLength="85" x="467.5" y="641.4629">transferFrom(</text><text fill="#000000" font-family="sans-serif" font-size="13" lengthAdjust="spacing" textLength="136" x="467.5" y="656.7734">_from: 0xDc3c..336c,</text><text fill="#000000" font-family="sans-serif" font-size="13" lengthAdjust="spacing" textLength="121" x="467.5" y="672.084">_to: 0x8A91..8508,</text><text fill="#000000" font-family="sans-serif" font-size="13" lengthAdjust="spacing" textLength="232" x="467.5" y="687.3945">_value: 5,,000,000,000,000,000,000)</text><text fill="#000000" font-family="sans-serif" font-size="13" lengthAdjust="spacing" textLength="70" x="467.5" y="702.7051">26,754 gas</text><line style="stroke:#181818;stroke-width:1.0;" x1="461.5" x2="471.5" y1="752.0684" y2="748.0684"/><line style="stroke:#181818;stroke-width:1.0;" x1="461.5" x2="471.5" y1="752.0684" y2="756.0684"/><line style="stroke:#181818;stroke-width:1.0;stroke-dasharray:2.0,2.0;" x1="460.5" x2="715.5" y1="752.0684" y2="752.0684"/><text fill="#000000" font-family="sans-serif" font-size="13" lengthAdjust="spacing" textLength="4" x="477.5" y="732.0156"> </text><text fill="#000000" font-family="sans-serif" font-size="13" lengthAdjust="spacing" textLength="25" x="477.5" y="747.3262">true</text><polygon fill="#181818" points="210.5,792.6895,200.5,796.6895,210.5,800.6895,206.5,796.6895" style="stroke:#181818;stroke-width:1.0;"/><line style="stroke:#181818;stroke-width:1.0;stroke-dasharray:2.0,2.0;" x1="204.5" x2="454.5" y1="796.6895" y2="796.6895"/><text fill="#000000" font-family="sans-serif" font-size="13" lengthAdjust="spacing" textLength="4" x="216.5" y="776.6367"> </text><text fill="#000000" font-family="sans-serif" font-size="13" lengthAdjust="spacing" textLength="25" x="216.5" y="791.9473">true</text><path d="M460,809.6895 L460,849.6895 L543,849.6895 L543,819.6895 L533,809.6895 L460,809.6895 " fill="#FEFFDD" style="stroke:#181818;stroke-width:0.5;"/><path d="M533,809.6895 L533,819.6895 L543,819.6895 L533,809.6895 " fill="#FEFFDD" style="stroke:#181818;stroke-width:0.5;"/><text fill="#000000" font-family="sans-serif" font-size="13" lengthAdjust="spacing" textLength="4" x="466" y="827.2578"> </text><text fill="#000000" font-family="sans-serif" font-size="13" lengthAdjust="spacing" textLength="62" x="466" y="842.5684">2,788 gas</text><polygon fill="#181818" points="855,887.9316,865,891.9316,855,895.9316,859,891.9316" style="stroke:#181818;stroke-width:1.0;"/><line style="stroke:#181818;stroke-width:1.0;" x1="199.5" x2="861" y1="891.9316" y2="891.9316"/><text fill="#000000" font-family="sans-serif" font-size="13" lengthAdjust="spacing" textLength="73" x="206.5" y="871.8789">0xf1cdf662</text><text fill="#000000" font-family="sans-serif" font-size="13" lengthAdjust="spacing" textLength="70" x="206.5" y="887.1895">73,845 gas</text><polygon fill="#181818" points="210.5,901.9316,200.5,905.9316,210.5,909.9316,206.5,905.9316" style="stroke:#181818;stroke-width:1.0;"/><line style="stroke:#181818;stroke-width:1.0;stroke-dasharray:2.0,2.0;" x1="204.5" x2="871" y1="905.9316" y2="905.9316"/><polygon fill="#181818" points="89.5,915.9316,79.5,919.9316,89.5,923.9316,85.5,919.9316" style="stroke:#181818;stroke-width:1.0;"/><line style="stroke:#181818;stroke-width:1.0;stroke-dasharray:2.0,2.0;" x1="83.5" x2="193.5" y1="919.9316" y2="919.9316"/><path d="M199,932.9316 L199,972.9316 L298,972.9316 L298,942.9316 L288,932.9316 L199,932.9316 " fill="#FEFFDD" style="stroke:#181818;stroke-width:0.5;"/><path d="M288,932.9316 L288,942.9316 L298,942.9316 L288,932.9316 " fill="#FEFFDD" style="stroke:#181818;stroke-width:0.5;"/><text fill="#000000" font-family="sans-serif" font-size="13" lengthAdjust="spacing" textLength="4" x="205" y="950.5"> </text><text fill="#000000" font-family="sans-serif" font-size="13" lengthAdjust="spacing" textLength="78" x="205" y="965.8105">177,011 gas</text><path d="M330,983.5527 L330,1054.5527 L580,1054.5527 L580,993.5527 L570,983.5527 L330,983.5527 " fill="#00FFFF" style="stroke:#181818;stroke-width:0.5;"/><path d="M570,983.5527 L570,993.5527 L580,993.5527 L570,983.5527 " fill="#00FFFF" style="stroke:#181818;stroke-width:0.5;"/><text fill="#000000" font-family="sans-serif" font-size="13" lengthAdjust="spacing" textLength="56" x="336" y="1001.1211">Transfer:</text><text fill="#000000" font-family="sans-serif" font-size="13" lengthAdjust="spacing" textLength="129" x="344" y="1016.4316">from: 0xDc3c..336c,</text><text fill="#000000" font-family="sans-serif" font-size="13" lengthAdjust="spacing" textLength="114" x="344" y="1031.7422">to: 0x8A91..8508,</text><text fill="#000000" font-family="sans-serif" font-size="13" lengthAdjust="spacing" textLength="221" x="344" y="1047.0527">value: 5,,000,000,000,000,000,000</text><!--SRC=[jLDTRziW57tdLw3sfPMe1JROEAeiTUl79grRfARJ7Y9DrmPtrXoS4TAb_txW95wRj5lti0SBdwl3uN8ErpMkrPYkCgY0SiQhfA9S2ran1YejCyMIigmrgrB51QLrgJcDSqeLv53MQLccjKX0AbJ1t3MTmJDeZD6EuBBjgkyu5rpaCYFukZC4nnnVwXB7DAQOiP5WepZ3LzSJ19NhB3xmVQYoYY8Gb1zWME000y1e3jOrLJC7um9FGiwYI0egUrw00UppjCmyBzTipVCm07nwEeOLFk_Q5cnHd9uUtTwSZu_3tvcQDUPsVcT1QIYRjd4FOzkj7efYJplLEeeIHc6jxM40Q-rkWMyS60LMzVhZio-zl5_Vp-QjdcdZ83ZsETvNPepdKLHbV7sx00F029dEQTpTQpjOWpvsfj8Zp79A4ihGbTymjaqeyIWN-EgdRlhYXsRMk15ECaxILFQbsuLM8nnBJh94eCdAf-EtqOXIXYycxv0s2eSJ4Hg2E2a6iprp1LgoE2bXQZOg-0uM8Sxc7dodMoeQ0Ze90fiKHhY45dptd-gZgVaAIjcWUUuVeVSrIQlZgU4aIR8TqSrsDAHvKXI3_QyHPKG8kIEwJUzGqlpYxHjajLjQCpM244hfSzzhA7rUjhdxvd1NFxguzujaMTxty88tpe9PrDfUscuMRbBxzUbDYA-wBjJasNOSGkqUsgNFyUMsl0LnJWIF_ytO_znHIZB1NvcAiqlz5FpHQIbtd2w6eGhDrgnITPh6KvCbHFATHxnbRixRBZi73aFXdrUM4SfOh_9eOWTN3-774j1au-O8OVoCaxwwvwIl_TN9tqFx2m00]--></g></svg>