<?xml version="1.0" encoding="UTF-8" standalone="no"?><svg xmlns="http://www.w3.org/2000/svg" xmlns:xlink="http://www.w3.org/1999/xlink" contentStyleType="text/css" height="764px" preserveAspectRatio="none" style="width:935px;height:764px;background:#FFFFFF;" version="1.1" viewBox="0 0 935 764" width="935px" zoomAndPan="magnify"><defs/><g><text fill="#000000" font-family="sans-serif" font-size="14" font-weight="bold" lengthAdjust="spacing" textLength="555" x="188.75" y="28.5352">0x1744b7b718fe5cd553fa0b83b10df26f5fe249c7f8dccd3c23aa97030e1df70e</text><text fill="#000000" font-family="sans-serif" font-size="14" lengthAdjust="spacing" textLength="391" x="270.75" y="752.4512">mainnet, block 9664643, Fri, 13 Mar 2020 18:09:19 GMT</text><rect fill="#FFFFFF" height="240.4844" style="stroke:#181818;stroke-width:1.0;" width="10" x="248.5" y="266.6152"/><rect fill="#FFFFFF" height="131.2422" style="stroke:#181818;stroke-width:1.0;" width="10" x="515" y="311.2363"/><rect fill="#FFFFFF" height="14" style="stroke:#181818;stroke-width:1.0;" width="10" x="794.5" y="355.8574"/><rect fill="#FFFFFF" height="14" style="stroke:#181818;stroke-width:1.0;" width="10" x="794.5" y="414.4785"/><line style="stroke:#181818;stroke-width:0.5;stroke-dasharray:5.0,5.0;" x1="79" x2="79" y1="123.4414" y2="656.9629"/><line style="stroke:#181818;stroke-width:0.5;stroke-dasharray:5.0,5.0;" x1="253" x2="253" y1="123.4414" y2="656.9629"/><line style="stroke:#181818;stroke-width:0.5;stroke-dasharray:5.0,5.0;" x1="520" x2="520" y1="123.4414" y2="656.9629"/><line style="stroke:#181818;stroke-width:0.5;stroke-dasharray:5.0,5.0;" x1="799" x2="799" y1="123.4414" y2="656.9629"/><text fill="#000000" font-family="sans-serif" font-size="14" lengthAdjust="spacing" textLength="92" x="30" y="120.4883">0xd03f..0a6a</text><ellipse cx="79" cy="55.4531" fill="#E2E2F0" rx="8" ry="8" style="stroke:#181818;stroke-width:0.5;"/><path d="M79,63.4531 L79,90.4531 M66,71.4531 L92,71.4531 M79,90.4531 L66,105.4531 M79,90.4531 L92,105.4531 " fill="none" style="stroke:#181818;stroke-width:0.5;"/><text fill="#000000" font-family="sans-serif" font-size="14" lengthAdjust="spacing" textLength="92" x="30" y="669.498">0xd03f..0a6a</text><ellipse cx="79" cy="680.9512" fill="#E2E2F0" rx="8" ry="8" style="stroke:#181818;stroke-width:0.5;"/><path d="M79,688.9512 L79,715.9512 M66,696.9512 L92,696.9512 M79,715.9512 L66,730.9512 M79,715.9512 L92,730.9512 " fill="none" style="stroke:#181818;stroke-width:0.5;"/><rect fill="#E2E2F0" height="63.4648" rx="2.5" ry="2.5" style="stroke:#181818;stroke-width:0.5;" width="231" x="138" y="58.9766"/><text fill="#000000" font-family="sans-serif" font-size="14" font-style="italic" lengthAdjust="spacing" textLength="217" x="145" y="79.5117">«MolochDAO: Moloch Treasury»</text><text fill="#000000" font-family="sans-serif" font-size="14" font-style="italic" lengthAdjust="spacing" textLength="64" x="221.5" y="96">«Moloch»</text><text fill="#000000" font-family="sans-serif" font-size="14" lengthAdjust="spacing" textLength="89" x="209" y="112.4883">0x1fd1..e9f1</text><rect fill="#E2E2F0" height="63.4648" rx="2.5" ry="2.5" style="stroke:#181818;stroke-width:0.5;" width="231" x="138" y="655.9629"/><text fill="#000000" font-family="sans-serif" font-size="14" font-style="italic" lengthAdjust="spacing" textLength="217" x="145" y="676.498">«MolochDAO: Moloch Treasury»</text><text fill="#000000" font-family="sans-serif" font-size="14" font-style="italic" lengthAdjust="spacing" textLength="64" x="221.5" y="692.9863">«Moloch»</text><text fill="#000000" font-family="sans-serif" font-size="14" lengthAdjust="spacing" textLength="89" x="209" y="709.4746">0x1fd1..e9f1</text><rect fill="#E2E2F0" height="46.9766" rx="2.5" ry="2.5" style="stroke:#181818;stroke-width:0.5;" width="108" x="466" y="75.4648"/><text fill="#000000" font-family="sans-serif" font-size="14" font-style="italic" lengthAdjust="spacing" textLength="83" x="478.5" y="96">«GuildBank»</text><text fill="#000000" font-family="sans-serif" font-size="14" lengthAdjust="spacing" textLength="94" x="473" y="112.4883">0x211a..9c7e</text><rect fill="#E2E2F0" height="46.9766" rx="2.5" ry="2.5" style="stroke:#181818;stroke-width:0.5;" width="108" x="466" y="655.9629"/><text fill="#000000" font-family="sans-serif" font-size="14" font-style="italic" lengthAdjust="spacing" textLength="83" x="478.5" y="676.498">«GuildBank»</text><text fill="#000000" font-family="sans-serif" font-size="14" lengthAdjust="spacing" textLength="94" x="473" y="692.9863">0x211a..9c7e</text><rect fill="#E2E2F0" height="79.9531" rx="2.5" ry="2.5" style="stroke:#181818;stroke-width:0.5;" width="129" x="735" y="42.4883"/><text fill="#000000" font-family="sans-serif" font-size="14" font-style="italic" lengthAdjust="spacing" textLength="115" x="742" y="63.0234">«Wrapped Ether»</text><text fill="#000000" font-family="sans-serif" font-size="14" font-style="italic" lengthAdjust="spacing" textLength="63" x="768" y="79.5117">«(WETH)»</text><text fill="#000000" font-family="sans-serif" font-size="14" font-style="italic" lengthAdjust="spacing" textLength="62" x="768.5" y="96">«WETH9»</text><text fill="#000000" font-family="sans-serif" font-size="14" lengthAdjust="spacing" textLength="91" x="754" y="112.4883">0xc02a..6cc2</text><rect fill="#E2E2F0" height="79.9531" rx="2.5" ry="2.5" style="stroke:#181818;stroke-width:0.5;" width="129" x="735" y="655.9629"/><text fill="#000000" font-family="sans-serif" font-size="14" font-style="italic" lengthAdjust="spacing" textLength="115" x="742" y="676.498">«Wrapped Ether»</text><text fill="#000000" font-family="sans-serif" font-size="14" font-style="italic" lengthAdjust="spacing" textLength="63" x="768" y="692.9863">«(WETH)»</text><text fill="#000000" font-family="sans-serif" font-size="14" font-style="italic" lengthAdjust="spacing" textLength="62" x="768.5" y="709.4746">«WETH9»</text><text fill="#000000" font-family="sans-serif" font-size="14" lengthAdjust="spacing" textLength="91" x="754" y="725.9629">0xc02a..6cc2</text><rect fill="#FFFFFF" height="240.4844" style="stroke:#181818;stroke-width:1.0;" width="10" x="248.5" y="266.6152"/><rect fill="#FFFFFF" height="131.2422" style="stroke:#181818;stroke-width:1.0;" width="10" x="515" y="311.2363"/><rect fill="#FFFFFF" height="14" style="stroke:#181818;stroke-width:1.0;" width="10" x="794.5" y="355.8574"/><rect fill="#FFFFFF" height="14" style="stroke:#181818;stroke-width:1.0;" width="10" x="794.5" y="414.4785"/><path d="M5,138.4414 L5,224.4414 L153,224.4414 L153,148.4414 L143,138.4414 L5,138.4414 " fill="#FEFFDD" style="stroke:#181818;stroke-width:0.5;"/><path d="M143,138.4414 L143,148.4414 L153,148.4414 L143,138.4414 " fill="#FEFFDD" style="stroke:#181818;stroke-width:0.5;"/><text fill="#000000" font-family="sans-serif" font-size="13" lengthAdjust="spacing" textLength="72" x="11" y="156.0098">Nonce: 230</text><text fill="#000000" font-family="sans-serif" font-size="13" lengthAdjust="spacing" textLength="127" x="11" y="171.3203">Gas Price: 15.9 Gwei</text><text fill="#000000" font-family="sans-serif" font-size="13" lengthAdjust="spacing" textLength="111" x="11" y="186.6309">Gas Limit: 67,988</text><text fill="#000000" font-family="sans-serif" font-size="13" lengthAdjust="spacing" textLength="110" x="11" y="201.9414">Gas Used: 52,988</text><text fill="#000000" font-family="sans-serif" font-size="13" lengthAdjust="spacing" textLength="114" x="11" y="217.252">Tx Fee: 0.001 ETH</text><polygon fill="#181818" points="236.5,262.6152,246.5,266.6152,236.5,270.6152,240.5,266.6152" style="stroke:#181818;stroke-width:1.0;"/><line style="stroke:#181818;stroke-width:1.0;" x1="79" x2="242.5" y1="266.6152" y2="266.6152"/><text fill="#000000" font-family="sans-serif" font-size="13" lengthAdjust="spacing" textLength="52" x="86" y="246.5625">ragequit</text><text fill="#000000" font-family="sans-serif" font-size="13" lengthAdjust="spacing" textLength="70" x="86" y="261.873">52,988 gas</text><polygon fill="#181818" points="503,307.2363,513,311.2363,503,315.2363,507,311.2363" style="stroke:#181818;stroke-width:1.0;"/><line style="stroke:#181818;stroke-width:1.0;" x1="258.5" x2="509" y1="311.2363" y2="311.2363"/><text fill="#000000" font-family="sans-serif" font-size="13" lengthAdjust="spacing" textLength="57" x="265.5" y="291.1836">withdraw</text><text fill="#000000" font-family="sans-serif" font-size="13" lengthAdjust="spacing" textLength="70" x="265.5" y="306.4941">24,493 gas</text><polygon fill="#181818" points="782.5,351.8574,792.5,355.8574,782.5,359.8574,786.5,355.8574" style="stroke:#181818;stroke-width:1.0;"/><line style="stroke:#181818;stroke-width:1.0;" x1="525" x2="788.5" y1="355.8574" y2="355.8574"/><text fill="#000000" font-family="sans-serif" font-size="13" lengthAdjust="spacing" textLength="63" x="532" y="335.8047">balanceOf</text><text fill="#000000" font-family="sans-serif" font-size="13" lengthAdjust="spacing" textLength="62" x="532" y="351.1152">1,234 gas</text><polygon fill="#181818" points="536,365.8574,526,369.8574,536,373.8574,532,369.8574" style="stroke:#181818;stroke-width:1.0;"/><line style="stroke:#181818;stroke-width:1.0;stroke-dasharray:2.0,2.0;" x1="530" x2="798.5" y1="369.8574" y2="369.8574"/><polygon fill="#181818" points="782.5,410.4785,792.5,414.4785,782.5,418.4785,786.5,414.4785" style="stroke:#181818;stroke-width:1.0;"/><line style="stroke:#181818;stroke-width:1.0;" x1="525" x2="788.5" y1="414.4785" y2="414.4785"/><text fill="#000000" font-family="sans-serif" font-size="13" lengthAdjust="spacing" textLength="49" x="532" y="394.4258">transfer</text><text fill="#000000" font-family="sans-serif" font-size="13" lengthAdjust="spacing" textLength="70" x="532" y="409.7363">15,162 gas</text><polygon fill="#181818" points="536,424.4785,526,428.4785,536,432.4785,532,428.4785" style="stroke:#181818;stroke-width:1.0;"/><line style="stroke:#181818;stroke-width:1.0;stroke-dasharray:2.0,2.0;" x1="530" x2="798.5" y1="428.4785" y2="428.4785"/><polygon fill="#181818" points="269.5,438.4785,259.5,442.4785,269.5,446.4785,265.5,442.4785" style="stroke:#181818;stroke-width:1.0;"/><line style="stroke:#181818;stroke-width:1.0;stroke-dasharray:2.0,2.0;" x1="263.5" x2="519" y1="442.4785" y2="442.4785"/><path d="M525,455.4785 L525,495.4785 L608,495.4785 L608,465.4785 L598,455.4785 L525,455.4785 " fill="#FEFFDD" style="stroke:#181818;stroke-width:0.5;"/><path d="M598,455.4785 L598,465.4785 L608,465.4785 L598,455.4785 " fill="#FEFFDD" style="stroke:#181818;stroke-width:0.5;"/><text fill="#000000" font-family="sans-serif" font-size="13" lengthAdjust="spacing" textLength="4" x="531" y="473.0469"> </text><text fill="#000000" font-family="sans-serif" font-size="13" lengthAdjust="spacing" textLength="62" x="531" y="488.3574">8,097 gas</text><polygon fill="#181818" points="90,503.0996,80,507.0996,90,511.0996,86,507.0996" style="stroke:#181818;stroke-width:1.0;"/><line style="stroke:#181818;stroke-width:1.0;stroke-dasharray:2.0,2.0;" x1="84" x2="252.5" y1="507.0996" y2="507.0996"/><path d="M258,520.0996 L258,560.0996 L349,560.0996 L349,530.0996 L339,520.0996 L258,520.0996 " fill="#FEFFDD" style="stroke:#181818;stroke-width:0.5;"/><path d="M339,520.0996 L339,530.0996 L349,530.0996 L339,520.0996 " fill="#FEFFDD" style="stroke:#181818;stroke-width:0.5;"/><text fill="#000000" font-family="sans-serif" font-size="13" lengthAdjust="spacing" textLength="4" x="264" y="537.668"> </text><text fill="#000000" font-family="sans-serif" font-size="13" lengthAdjust="spacing" textLength="70" x="264" y="552.9785">28,495 gas</text><path d="M137,570.7207 L137,625.7207 L369,625.7207 L369,580.7207 L359,570.7207 L137,570.7207 " fill="#00FFFF" style="stroke:#181818;stroke-width:0.5;"/><path d="M359,570.7207 L359,580.7207 L369,580.7207 L359,570.7207 " fill="#00FFFF" style="stroke:#181818;stroke-width:0.5;"/><text fill="#000000" font-family="sans-serif" font-size="13" lengthAdjust="spacing" textLength="59" x="143" y="588.2891">Ragequit:</text><text fill="#000000" font-family="sans-serif" font-size="13" lengthAdjust="spacing" textLength="203" x="151" y="603.5996">memberAddress: 0xd03F..0A6A,</text><text fill="#000000" font-family="sans-serif" font-size="13" lengthAdjust="spacing" textLength="117" x="151" y="618.9102">sharesToBurn: 279</text><path d="M379,570.7207 L379,625.7207 L660,625.7207 L660,580.7207 L650,570.7207 L379,570.7207 " fill="#00FFFF" style="stroke:#181818;stroke-width:0.5;"/><path d="M650,570.7207 L650,580.7207 L660,580.7207 L650,570.7207 " fill="#00FFFF" style="stroke:#181818;stroke-width:0.5;"/><text fill="#000000" font-family="sans-serif" font-size="13" lengthAdjust="spacing" textLength="73" x="385" y="588.2891">Withdrawal:</text><text fill="#000000" font-family="sans-serif" font-size="13" lengthAdjust="spacing" textLength="150" x="393" y="603.5996">receiver: 0xd03F..0A6A,</text><text fill="#000000" font-family="sans-serif" font-size="13" lengthAdjust="spacing" textLength="252" x="393" y="618.9102">amount: 198,,172,929,430,382,178,125</text><path d="M670,570.7207 L670,641.7207 L928,641.7207 L928,580.7207 L918,570.7207 L670,570.7207 " fill="#00FFFF" style="stroke:#181818;stroke-width:0.5;"/><path d="M918,570.7207 L918,580.7207 L928,580.7207 L918,570.7207 " fill="#00FFFF" style="stroke:#181818;stroke-width:0.5;"/><text fill="#000000" font-family="sans-serif" font-size="13" lengthAdjust="spacing" textLength="56" x="676" y="588.2891">Transfer:</text><text fill="#000000" font-family="sans-serif" font-size="13" lengthAdjust="spacing" textLength="116" x="684" y="603.5996">src: 0x211a..9c7E,</text><text fill="#000000" font-family="sans-serif" font-size="13" lengthAdjust="spacing" textLength="121" x="684" y="618.9102">dst: 0xd03F..0A6A,</text><text fill="#000000" font-family="sans-serif" font-size="13" lengthAdjust="spacing" textLength="229" x="684" y="634.2207">wad: 198,,172,929,430,382,178,125</text><!--SRC=[ZLDDJnin4BtxLupefPNShUtzNg58GGLwAAMgKd79PM9xYKNY3Lw7q7zVUvCiK4hLK_piUU_jl9buurSQs2ClisnHBafUjJgNAi_J5jcYIXUSgLOKRTvgaTMoR2ibfKgbI17hagLCSzMMJ1E96syw2siqrcfFOR7gv1tKHP4LMKhXmXaAF8KhT22OOC2hXjKDh-7oQaPG-ix12NjKB6sJX6619u0zH1W1a0qwRwJPeFMnZhUA9uckMpxKHHW1d9vUTS5u-NbwtS3-23EdiT-wNvF9yNKo-LDFS8v94XhKWrw44GIzowrPgJEqTwz9aeb0AgGK0od220Bfnk5cenMS-wLsqVVzpVdiouTuYeSwQ17RUGtTWtPZb-HRPwLkGAICN0R1xyv4oFCafBJJPhZyQjR6Dr2KjAwguUPdhrK3kHWkPezmeGE99Onn25v4MmNHYv0npO-JCR467Dxg-wtnSxkNW5liuq3C0uOFFDQHCU90FiRJmCxufNAucrkHqQnENvAFTMJCCv2FCJMmm1M6Xg_RkULKfDbByh6EEEstphwXuHtQljKkIEIK5-BV6eUV8NfdRfSUklPPDtDRKLQNWyPVIvzI2mrNeU5yg7qsop6cTtY_HVBZ46v30DPwlT1kgfJJVHyc59Vz8Ypxj9ZIyDmlCJpCkhDW6tQWh9zDxXCyEOmvx1rk3XF0LVHmMceJgbxBuxhRsh0ulAuevMKOjQXfbZAQLYBWYdAHl-4uBlRUSNQ8FFhrJaQhyUzp7grKxr_xxr3zh_bl]--></g></svg>