<?xml version="1.0" encoding="UTF-8" standalone="no"?><svg xmlns="http://www.w3.org/2000/svg" xmlns:xlink="http://www.w3.org/1999/xlink" contentStyleType="text/css" height="2172px" preserveAspectRatio="none" style="width:1905px;height:2172px;background:#FFFFFF;" version="1.1" viewBox="0 0 1905 2172" width="1905px" zoomAndPan="magnify"><defs/><g><text fill="#000000" font-family="sans-serif" font-size="14" font-weight="bold" lengthAdjust="spacing" textLength="565" x="668.75" y="28.5352">0x1fa132b63521e60f4debcfe2180aa90c771b803b7470c0db4c7913bcf207449b</text><text fill="#000000" font-family="sans-serif" font-size="14" lengthAdjust="spacing" textLength="403" x="749.75" y="2160.0527">mainnet, block 11578972, Sun, 03 Jan 2021 03:04:16 GMT</text><rect fill="#FFFFFF" height="1433.7383" style="stroke:#181818;stroke-width:1.0;" width="10" x="399.5" y="389.0996"/><rect fill="#FFFFFF" height="75.2422" style="stroke:#181818;stroke-width:1.0;" width="10" x="729.5" y="433.7207"/><rect fill="#FFFFFF" height="342.9688" style="stroke:#181818;stroke-width:1.0;" width="10" x="729.5" y="839.2422"/><rect fill="#FFFFFF" height="75.2422" style="stroke:#181818;stroke-width:1.0;" width="10" x="1057.5" y="553.584"/><rect fill="#FFFFFF" height="342.9688" style="stroke:#181818;stroke-width:1.0;" width="10" x="1057.5" y="1338.6953"/><rect fill="#FFFFFF" height="14" style="stroke:#181818;stroke-width:1.0;" width="10" x="1304" y="719.3789"/><rect fill="#FFFFFF" height="44.6211" style="stroke:#181818;stroke-width:1.0;" width="10" x="1304" y="1123.5898"/><rect fill="#FFFFFF" height="44.6211" style="stroke:#181818;stroke-width:1.0;" width="10" x="1504.5" y="914.4844"/><rect fill="#FFFFFF" height="44.6211" style="stroke:#181818;stroke-width:1.0;" width="10" x="1504.5" y="1019.0371"/><rect fill="#FFFFFF" height="44.6211" style="stroke:#181818;stroke-width:1.0;" width="10" x="1504.5" y="1623.043"/><rect fill="#FFFFFF" height="44.6211" style="stroke:#181818;stroke-width:1.0;" width="10" x="1760.5" y="1413.9375"/><rect fill="#FFFFFF" height="44.6211" style="stroke:#181818;stroke-width:1.0;" width="10" x="1760.5" y="1518.4902"/><line style="stroke:#181818;stroke-width:0.5;stroke-dasharray:5.0,5.0;" x1="78" x2="78" y1="123.4414" y2="2064.5645"/><line style="stroke:#181818;stroke-width:0.5;stroke-dasharray:5.0,5.0;" x1="404.5" x2="404.5" y1="123.4414" y2="2064.5645"/><line style="stroke:#181818;stroke-width:0.5;stroke-dasharray:5.0,5.0;" x1="734.5" x2="734.5" y1="123.4414" y2="2064.5645"/><line style="stroke:#181818;stroke-width:0.5;stroke-dasharray:5.0,5.0;" x1="1062.5" x2="1062.5" y1="123.4414" y2="2064.5645"/><line style="stroke:#181818;stroke-width:0.5;stroke-dasharray:5.0,5.0;" x1="1309" x2="1309" y1="123.4414" y2="2064.5645"/><line style="stroke:#181818;stroke-width:0.5;stroke-dasharray:5.0,5.0;" x1="1509" x2="1509" y1="123.4414" y2="2064.5645"/><line style="stroke:#181818;stroke-width:0.5;stroke-dasharray:5.0,5.0;" x1="1765.5" x2="1765.5" y1="123.4414" y2="2064.5645"/><text fill="#000000" font-family="sans-serif" font-size="14" lengthAdjust="spacing" textLength="87" x="32" y="120.4883">0x18a8..2cff</text><ellipse cx="78.5" cy="55.4531" fill="#E2E2F0" rx="8" ry="8" style="stroke:#181818;stroke-width:0.5;"/><path d="M78.5,63.4531 L78.5,90.4531 M65.5,71.4531 L91.5,71.4531 M78.5,90.4531 L65.5,105.4531 M78.5,90.4531 L91.5,105.4531 " fill="none" style="stroke:#181818;stroke-width:0.5;"/><text fill="#000000" font-family="sans-serif" font-size="14" lengthAdjust="spacing" textLength="87" x="32" y="2077.0996">0x18a8..2cff</text><ellipse cx="78.5" cy="2088.5527" fill="#E2E2F0" rx="8" ry="8" style="stroke:#181818;stroke-width:0.5;"/><path d="M78.5,2096.5527 L78.5,2123.5527 M65.5,2104.5527 L91.5,2104.5527 M78.5,2123.5527 L65.5,2138.5527 M78.5,2123.5527 L91.5,2138.5527 " fill="none" style="stroke:#181818;stroke-width:0.5;"/><rect fill="#E2E2F0" height="46.9766" rx="2.5" ry="2.5" style="stroke:#181818;stroke-width:0.5;" width="168" x="320.5" y="75.4648"/><text fill="#000000" font-family="sans-serif" font-size="14" font-style="italic" lengthAdjust="spacing" textLength="154" x="327.5" y="96">«UniswapV2Router02»</text><text fill="#000000" font-family="sans-serif" font-size="14" lengthAdjust="spacing" textLength="97" x="356" y="112.4883">0x7a25..488d</text><rect fill="#E2E2F0" height="46.9766" rx="2.5" ry="2.5" style="stroke:#181818;stroke-width:0.5;" width="168" x="320.5" y="2063.5645"/><text fill="#000000" font-family="sans-serif" font-size="14" font-style="italic" lengthAdjust="spacing" textLength="154" x="327.5" y="2084.0996">«UniswapV2Router02»</text><text fill="#000000" font-family="sans-serif" font-size="14" lengthAdjust="spacing" textLength="97" x="356" y="2100.5879">0x7a25..488d</text><rect fill="#E2E2F0" height="79.9531" rx="2.5" ry="2.5" style="stroke:#181818;stroke-width:0.5;" width="130" x="669.5" y="42.4883"/><text fill="#000000" font-family="sans-serif" font-size="14" font-style="italic" lengthAdjust="spacing" textLength="94" x="687.5" y="63.0234">«Uniswap V2»</text><text fill="#000000" font-family="sans-serif" font-size="14" font-style="italic" lengthAdjust="spacing" textLength="74" x="697.5" y="79.5117">«(UNI-V2)»</text><text fill="#000000" font-family="sans-serif" font-size="14" font-style="italic" lengthAdjust="spacing" textLength="116" x="676.5" y="96">«UniswapV2Pair»</text><text fill="#000000" font-family="sans-serif" font-size="14" lengthAdjust="spacing" textLength="97" x="686" y="112.4883">0x0d4a..1852</text><rect fill="#E2E2F0" height="79.9531" rx="2.5" ry="2.5" style="stroke:#181818;stroke-width:0.5;" width="130" x="669.5" y="2063.5645"/><text fill="#000000" font-family="sans-serif" font-size="14" font-style="italic" lengthAdjust="spacing" textLength="94" x="687.5" y="2084.0996">«Uniswap V2»</text><text fill="#000000" font-family="sans-serif" font-size="14" font-style="italic" lengthAdjust="spacing" textLength="74" x="697.5" y="2100.5879">«(UNI-V2)»</text><text fill="#000000" font-family="sans-serif" font-size="14" font-style="italic" lengthAdjust="spacing" textLength="116" x="676.5" y="2117.0762">«UniswapV2Pair»</text><text fill="#000000" font-family="sans-serif" font-size="14" lengthAdjust="spacing" textLength="97" x="686" y="2133.5645">0x0d4a..1852</text><rect fill="#E2E2F0" height="79.9531" rx="2.5" ry="2.5" style="stroke:#181818;stroke-width:0.5;" width="130" x="997.5" y="42.4883"/><text fill="#000000" font-family="sans-serif" font-size="14" font-style="italic" lengthAdjust="spacing" textLength="94" x="1015.5" y="63.0234">«Uniswap V2»</text><text fill="#000000" font-family="sans-serif" font-size="14" font-style="italic" lengthAdjust="spacing" textLength="74" x="1025.5" y="79.5117">«(UNI-V2)»</text><text fill="#000000" font-family="sans-serif" font-size="14" font-style="italic" lengthAdjust="spacing" textLength="116" x="1004.5" y="96">«UniswapV2Pair»</text><text fill="#000000" font-family="sans-serif" font-size="14" lengthAdjust="spacing" textLength="93" x="1016" y="112.4883">0xe3ee..a85e</text><rect fill="#E2E2F0" height="79.9531" rx="2.5" ry="2.5" style="stroke:#181818;stroke-width:0.5;" width="130" x="997.5" y="2063.5645"/><text fill="#000000" font-family="sans-serif" font-size="14" font-style="italic" lengthAdjust="spacing" textLength="94" x="1015.5" y="2084.0996">«Uniswap V2»</text><text fill="#000000" font-family="sans-serif" font-size="14" font-style="italic" lengthAdjust="spacing" textLength="74" x="1025.5" y="2100.5879">«(UNI-V2)»</text><text fill="#000000" font-family="sans-serif" font-size="14" font-style="italic" lengthAdjust="spacing" textLength="116" x="1004.5" y="2117.0762">«UniswapV2Pair»</text><text fill="#000000" font-family="sans-serif" font-size="14" lengthAdjust="spacing" textLength="93" x="1016" y="2133.5645">0xe3ee..a85e</text><rect fill="#E2E2F0" height="79.9531" rx="2.5" ry="2.5" style="stroke:#181818;stroke-width:0.5;" width="116" x="1251" y="42.4883"/><text fill="#000000" font-family="sans-serif" font-size="14" font-style="italic" lengthAdjust="spacing" textLength="91" x="1263.5" y="63.0234">«Tether USD»</text><text fill="#000000" font-family="sans-serif" font-size="14" font-style="italic" lengthAdjust="spacing" textLength="61" x="1278.5" y="79.5117">«(USDT)»</text><text fill="#000000" font-family="sans-serif" font-size="14" font-style="italic" lengthAdjust="spacing" textLength="102" x="1258" y="96">«TetherToken»</text><text fill="#000000" font-family="sans-serif" font-size="14" lengthAdjust="spacing" textLength="92" x="1263" y="112.4883">0xdac1..1ec7</text><rect fill="#E2E2F0" height="79.9531" rx="2.5" ry="2.5" style="stroke:#181818;stroke-width:0.5;" width="116" x="1251" y="2063.5645"/><text fill="#000000" font-family="sans-serif" font-size="14" font-style="italic" lengthAdjust="spacing" textLength="91" x="1263.5" y="2084.0996">«Tether USD»</text><text fill="#000000" font-family="sans-serif" font-size="14" font-style="italic" lengthAdjust="spacing" textLength="61" x="1278.5" y="2100.5879">«(USDT)»</text><text fill="#000000" font-family="sans-serif" font-size="14" font-style="italic" lengthAdjust="spacing" textLength="102" x="1258" y="2117.0762">«TetherToken»</text><text fill="#000000" font-family="sans-serif" font-size="14" lengthAdjust="spacing" textLength="92" x="1263" y="2133.5645">0xdac1..1ec7</text><rect fill="#E2E2F0" height="79.9531" rx="2.5" ry="2.5" style="stroke:#181818;stroke-width:0.5;" width="129" x="1445" y="42.4883"/><text fill="#000000" font-family="sans-serif" font-size="14" font-style="italic" lengthAdjust="spacing" textLength="115" x="1452" y="63.0234">«Wrapped Ether»</text><text fill="#000000" font-family="sans-serif" font-size="14" font-style="italic" lengthAdjust="spacing" textLength="63" x="1478" y="79.5117">«(WETH)»</text><text fill="#000000" font-family="sans-serif" font-size="14" font-style="italic" lengthAdjust="spacing" textLength="62" x="1478.5" y="96">«WETH9»</text><text fill="#000000" font-family="sans-serif" font-size="14" lengthAdjust="spacing" textLength="91" x="1464" y="112.4883">0xc02a..6cc2</text><rect fill="#E2E2F0" height="79.9531" rx="2.5" ry="2.5" style="stroke:#181818;stroke-width:0.5;" width="129" x="1445" y="2063.5645"/><text fill="#000000" font-family="sans-serif" font-size="14" font-style="italic" lengthAdjust="spacing" textLength="115" x="1452" y="2084.0996">«Wrapped Ether»</text><text fill="#000000" font-family="sans-serif" font-size="14" font-style="italic" lengthAdjust="spacing" textLength="63" x="1478" y="2100.5879">«(WETH)»</text><text fill="#000000" font-family="sans-serif" font-size="14" font-style="italic" lengthAdjust="spacing" textLength="62" x="1478.5" y="2117.0762">«WETH9»</text><text fill="#000000" font-family="sans-serif" font-size="14" lengthAdjust="spacing" textLength="91" x="1464" y="2133.5645">0xc02a..6cc2</text><rect fill="#E2E2F0" height="79.9531" rx="2.5" ry="2.5" style="stroke:#181818;stroke-width:0.5;" width="112" x="1709.5" y="42.4883"/><text fill="#000000" font-family="sans-serif" font-size="14" font-style="italic" lengthAdjust="spacing" textLength="97" x="1717" y="63.0234">«Shopping.io»</text><text fill="#000000" font-family="sans-serif" font-size="14" font-style="italic" lengthAdjust="spacing" textLength="44" x="1743.5" y="79.5117">«(SPI)»</text><text fill="#000000" font-family="sans-serif" font-size="14" font-style="italic" lengthAdjust="spacing" textLength="95" x="1718" y="96">«ShoppingIO»</text><text fill="#000000" font-family="sans-serif" font-size="14" lengthAdjust="spacing" textLength="98" x="1716.5" y="112.4883">0x9b02..63b7</text><rect fill="#E2E2F0" height="79.9531" rx="2.5" ry="2.5" style="stroke:#181818;stroke-width:0.5;" width="112" x="1709.5" y="2063.5645"/><text fill="#000000" font-family="sans-serif" font-size="14" font-style="italic" lengthAdjust="spacing" textLength="97" x="1717" y="2084.0996">«Shopping.io»</text><text fill="#000000" font-family="sans-serif" font-size="14" font-style="italic" lengthAdjust="spacing" textLength="44" x="1743.5" y="2100.5879">«(SPI)»</text><text fill="#000000" font-family="sans-serif" font-size="14" font-style="italic" lengthAdjust="spacing" textLength="95" x="1718" y="2117.0762">«ShoppingIO»</text><text fill="#000000" font-family="sans-serif" font-size="14" lengthAdjust="spacing" textLength="98" x="1716.5" y="2133.5645">0x9b02..63b7</text><rect fill="#FFFFFF" height="1433.7383" style="stroke:#181818;stroke-width:1.0;" width="10" x="399.5" y="389.0996"/><rect fill="#FFFFFF" height="75.2422" style="stroke:#181818;stroke-width:1.0;" width="10" x="729.5" y="433.7207"/><rect fill="#FFFFFF" height="342.9688" style="stroke:#181818;stroke-width:1.0;" width="10" x="729.5" y="839.2422"/><rect fill="#FFFFFF" height="75.2422" style="stroke:#181818;stroke-width:1.0;" width="10" x="1057.5" y="553.584"/><rect fill="#FFFFFF" height="342.9688" style="stroke:#181818;stroke-width:1.0;" width="10" x="1057.5" y="1338.6953"/><rect fill="#FFFFFF" height="14" style="stroke:#181818;stroke-width:1.0;" width="10" x="1304" y="719.3789"/><rect fill="#FFFFFF" height="44.6211" style="stroke:#181818;stroke-width:1.0;" width="10" x="1304" y="1123.5898"/><rect fill="#FFFFFF" height="44.6211" style="stroke:#181818;stroke-width:1.0;" width="10" x="1504.5" y="914.4844"/><rect fill="#FFFFFF" height="44.6211" style="stroke:#181818;stroke-width:1.0;" width="10" x="1504.5" y="1019.0371"/><rect fill="#FFFFFF" height="44.6211" style="stroke:#181818;stroke-width:1.0;" width="10" x="1504.5" y="1623.043"/><rect fill="#FFFFFF" height="44.6211" style="stroke:#181818;stroke-width:1.0;" width="10" x="1760.5" y="1413.9375"/><rect fill="#FFFFFF" height="44.6211" style="stroke:#181818;stroke-width:1.0;" width="10" x="1760.5" y="1518.4902"/><path d="M5,138.4414 L5,224.4414 L153,224.4414 L153,148.4414 L143,138.4414 L5,138.4414 " fill="#FEFFDD" style="stroke:#181818;stroke-width:0.5;"/><path d="M143,138.4414 L143,148.4414 L153,148.4414 L143,138.4414 " fill="#FEFFDD" style="stroke:#181818;stroke-width:0.5;"/><text fill="#000000" font-family="sans-serif" font-size="13" lengthAdjust="spacing" textLength="64" x="11" y="156.0098">Nonce: 54</text><text fill="#000000" font-family="sans-serif" font-size="13" lengthAdjust="spacing" textLength="127" x="11" y="171.3203">Gas Price: 50.0 Gwei</text><text fill="#000000" font-family="sans-serif" font-size="13" lengthAdjust="spacing" textLength="119" x="11" y="186.6309">Gas Limit: 201,592</text><text fill="#000000" font-family="sans-serif" font-size="13" lengthAdjust="spacing" textLength="118" x="11" y="201.9414">Gas Used: 172,953</text><text fill="#000000" font-family="sans-serif" font-size="13" lengthAdjust="spacing" textLength="114" x="11" y="217.252">Tx Fee: 0.009 ETH</text><polygon fill="#181818" points="387.5,385.0996,397.5,389.0996,387.5,393.0996,391.5,389.0996" style="stroke:#181818;stroke-width:1.0;"/><line style="stroke:#181818;stroke-width:1.0;" x1="78.5" x2="393.5" y1="389.0996" y2="389.0996"/><text fill="#000000" font-family="sans-serif" font-size="13" lengthAdjust="spacing" textLength="182" x="85.5" y="246.5625">swapExactTokensForTokens(</text><text fill="#000000" font-family="sans-serif" font-size="13" lengthAdjust="spacing" textLength="152" x="85.5" y="261.873">amountIn: 500,000,000,</text><text fill="#000000" font-family="sans-serif" font-size="13" lengthAdjust="spacing" textLength="302" x="85.5" y="277.1836">amountOutMin: 285,,763,133,088,498,836,356,</text><text fill="#000000" font-family="sans-serif" font-size="13" lengthAdjust="spacing" textLength="40" x="85.5" y="292.4941">path: [</text><text fill="#000000" font-family="sans-serif" font-size="13" lengthAdjust="spacing" textLength="108" x="93.5" y="307.8047">0: 0xdAC1..1ec7,</text><text fill="#000000" font-family="sans-serif" font-size="13" lengthAdjust="spacing" textLength="108" x="93.5" y="323.1152">1: 0xC02a..6Cc2,</text><text fill="#000000" font-family="sans-serif" font-size="13" lengthAdjust="spacing" textLength="110" x="93.5" y="338.4258">2: 0x9B02..63B7],</text><text fill="#000000" font-family="sans-serif" font-size="13" lengthAdjust="spacing" textLength="109" x="85.5" y="353.7363">to: 0x18a8..2CfF,</text><text fill="#000000" font-family="sans-serif" font-size="13" lengthAdjust="spacing" textLength="157" x="85.5" y="369.0469">deadline: 1,609,644,182)</text><text fill="#000000" font-family="sans-serif" font-size="13" lengthAdjust="spacing" textLength="78" x="85.5" y="384.3574">157,961 gas</text><polygon fill="#181818" points="717.5,429.7207,727.5,433.7207,717.5,437.7207,721.5,433.7207" style="stroke:#181818;stroke-width:1.0;"/><line style="stroke:#181818;stroke-width:1.0;" x1="409.5" x2="723.5" y1="433.7207" y2="433.7207"/><text fill="#000000" font-family="sans-serif" font-size="13" lengthAdjust="spacing" textLength="83" x="416.5" y="413.668">getReserves()</text><text fill="#000000" font-family="sans-serif" font-size="13" lengthAdjust="spacing" textLength="62" x="416.5" y="428.9785">1,204 gas</text><polygon fill="#181818" points="420.5,504.9629,410.5,508.9629,420.5,512.9629,416.5,508.9629" style="stroke:#181818;stroke-width:1.0;"/><line style="stroke:#181818;stroke-width:1.0;stroke-dasharray:2.0,2.0;" x1="414.5" x2="733.5" y1="508.9629" y2="508.9629"/><text fill="#000000" font-family="sans-serif" font-size="13" lengthAdjust="spacing" textLength="4" x="426.5" y="458.2891"> </text><text fill="#000000" font-family="sans-serif" font-size="13" lengthAdjust="spacing" textLength="296" x="426.5" y="473.5996">_reserve0: 102,789,,787,510,397,738,371,622,</text><text fill="#000000" font-family="sans-serif" font-size="13" lengthAdjust="spacing" textLength="200" x="426.5" y="488.9102">_reserve1: 80,033,981,909,606,</text><text fill="#000000" font-family="sans-serif" font-size="13" lengthAdjust="spacing" textLength="238" x="426.5" y="504.2207">_blockTimestampLast: 1,609,643,046</text><polygon fill="#181818" points="1045.5,549.584,1055.5,553.584,1045.5,557.584,1049.5,553.584" style="stroke:#181818;stroke-width:1.0;"/><line style="stroke:#181818;stroke-width:1.0;" x1="409.5" x2="1051.5" y1="553.584" y2="553.584"/><text fill="#000000" font-family="sans-serif" font-size="13" lengthAdjust="spacing" textLength="83" x="416.5" y="533.5313">getReserves()</text><text fill="#000000" font-family="sans-serif" font-size="13" lengthAdjust="spacing" textLength="62" x="416.5" y="548.8418">1,204 gas</text><polygon fill="#181818" points="420.5,624.8262,410.5,628.8262,420.5,632.8262,416.5,628.8262" style="stroke:#181818;stroke-width:1.0;"/><line style="stroke:#181818;stroke-width:1.0;stroke-dasharray:2.0,2.0;" x1="414.5" x2="1061.5" y1="628.8262" y2="628.8262"/><text fill="#000000" font-family="sans-serif" font-size="13" lengthAdjust="spacing" textLength="4" x="426.5" y="578.1523"> </text><text fill="#000000" font-family="sans-serif" font-size="13" lengthAdjust="spacing" textLength="296" x="426.5" y="593.4629">_reserve0: 149,754,,149,285,776,902,309,725,</text><text fill="#000000" font-family="sans-serif" font-size="13" lengthAdjust="spacing" textLength="268" x="426.5" y="608.7734">_reserve1: 327,,065,741,560,356,482,542,</text><text fill="#000000" font-family="sans-serif" font-size="13" lengthAdjust="spacing" textLength="238" x="426.5" y="624.084">_blockTimestampLast: 1,609,643,056</text><polygon fill="#181818" points="1292,715.3789,1302,719.3789,1292,723.3789,1296,719.3789" style="stroke:#181818;stroke-width:1.0;"/><line style="stroke:#181818;stroke-width:1.0;" x1="409.5" x2="1298" y1="719.3789" y2="719.3789"/><text fill="#000000" font-family="sans-serif" font-size="13" lengthAdjust="spacing" textLength="85" x="416.5" y="653.3945">transferFrom(</text><text fill="#000000" font-family="sans-serif" font-size="13" lengthAdjust="spacing" textLength="133" x="416.5" y="668.7051">_from: 0x18a8..2CfF,</text><text fill="#000000" font-family="sans-serif" font-size="13" lengthAdjust="spacing" textLength="119" x="416.5" y="684.0156">_to: 0x0d4a..1852,</text><text fill="#000000" font-family="sans-serif" font-size="13" lengthAdjust="spacing" textLength="132" x="416.5" y="699.3262">_value: 500,000,000)</text><text fill="#000000" font-family="sans-serif" font-size="13" lengthAdjust="spacing" textLength="70" x="416.5" y="714.6367">20,330 gas</text><polygon fill="#181818" points="420.5,729.3789,410.5,733.3789,420.5,737.3789,416.5,733.3789" style="stroke:#181818;stroke-width:1.0;"/><line style="stroke:#181818;stroke-width:1.0;stroke-dasharray:2.0,2.0;" x1="414.5" x2="1308" y1="733.3789" y2="733.3789"/><polygon fill="#181818" points="717.5,835.2422,727.5,839.2422,717.5,843.2422,721.5,839.2422" style="stroke:#181818;stroke-width:1.0;"/><line style="stroke:#181818;stroke-width:1.0;" x1="409.5" x2="723.5" y1="839.2422" y2="839.2422"/><text fill="#000000" font-family="sans-serif" font-size="13" lengthAdjust="spacing" textLength="36" x="416.5" y="757.9473">swap(</text><text fill="#000000" font-family="sans-serif" font-size="13" lengthAdjust="spacing" textLength="255" x="416.5" y="773.2578">amount0Out: 640,232,919,757,709,767,</text><text fill="#000000" font-family="sans-serif" font-size="13" lengthAdjust="spacing" textLength="99" x="416.5" y="788.5684">amount1Out: 0,</text><text fill="#000000" font-family="sans-serif" font-size="13" lengthAdjust="spacing" textLength="108" x="416.5" y="803.8789">to: 0xE3Ee..a85E,</text><text fill="#000000" font-family="sans-serif" font-size="13" lengthAdjust="spacing" textLength="55" x="416.5" y="819.1895">data: 0x)</text><text fill="#000000" font-family="sans-serif" font-size="13" lengthAdjust="spacing" textLength="70" x="416.5" y="834.5">57,850 gas</text><polygon fill="#181818" points="1492.5,910.4844,1502.5,914.4844,1492.5,918.4844,1496.5,914.4844" style="stroke:#181818;stroke-width:1.0;"/><line style="stroke:#181818;stroke-width:1.0;" x1="739.5" x2="1498.5" y1="914.4844" y2="914.4844"/><text fill="#000000" font-family="sans-serif" font-size="13" lengthAdjust="spacing" textLength="53" x="746.5" y="863.8105">transfer(</text><text fill="#000000" font-family="sans-serif" font-size="13" lengthAdjust="spacing" textLength="115" x="746.5" y="879.1211">dst: 0xE3Ee..a85E,</text><text fill="#000000" font-family="sans-serif" font-size="13" lengthAdjust="spacing" textLength="201" x="746.5" y="894.4316">wad: 640,232,919,757,709,767)</text><text fill="#000000" font-family="sans-serif" font-size="13" lengthAdjust="spacing" textLength="70" x="746.5" y="909.7422">15,162 gas</text><polygon fill="#181818" points="750.5,955.1055,740.5,959.1055,750.5,963.1055,746.5,959.1055" style="stroke:#181818;stroke-width:1.0;"/><line style="stroke:#181818;stroke-width:1.0;stroke-dasharray:2.0,2.0;" x1="744.5" x2="1508.5" y1="959.1055" y2="959.1055"/><text fill="#000000" font-family="sans-serif" font-size="13" lengthAdjust="spacing" textLength="4" x="756.5" y="939.0527"> </text><text fill="#000000" font-family="sans-serif" font-size="13" lengthAdjust="spacing" textLength="25" x="756.5" y="954.3633">true</text><polygon fill="#181818" points="1492.5,1015.0371,1502.5,1019.0371,1492.5,1023.0371,1496.5,1019.0371" style="stroke:#181818;stroke-width:1.0;"/><line style="stroke:#181818;stroke-width:1.0;" x1="739.5" x2="1498.5" y1="1019.0371" y2="1019.0371"/><text fill="#000000" font-family="sans-serif" font-size="13" lengthAdjust="spacing" textLength="67" x="746.5" y="983.6738">balanceOf(</text><text fill="#000000" font-family="sans-serif" font-size="13" lengthAdjust="spacing" textLength="91" x="746.5" y="998.9844">0x0d4a..1852)</text><text fill="#000000" font-family="sans-serif" font-size="13" lengthAdjust="spacing" textLength="62" x="746.5" y="1014.2949">1,234 gas</text><polygon fill="#181818" points="750.5,1059.6582,740.5,1063.6582,750.5,1067.6582,746.5,1063.6582" style="stroke:#181818;stroke-width:1.0;"/><line style="stroke:#181818;stroke-width:1.0;stroke-dasharray:2.0,2.0;" x1="744.5" x2="1508.5" y1="1063.6582" y2="1063.6582"/><text fill="#000000" font-family="sans-serif" font-size="13" lengthAdjust="spacing" textLength="4" x="756.5" y="1043.6055"> </text><text fill="#000000" font-family="sans-serif" font-size="13" lengthAdjust="spacing" textLength="224" x="756.5" y="1058.916">102,789,,147,277,477,980,661,855</text><polygon fill="#181818" points="1292,1119.5898,1302,1123.5898,1292,1127.5898,1296,1123.5898" style="stroke:#181818;stroke-width:1.0;"/><line style="stroke:#181818;stroke-width:1.0;" x1="739.5" x2="1298" y1="1123.5898" y2="1123.5898"/><text fill="#000000" font-family="sans-serif" font-size="13" lengthAdjust="spacing" textLength="67" x="746.5" y="1088.2266">balanceOf(</text><text fill="#000000" font-family="sans-serif" font-size="13" lengthAdjust="spacing" textLength="125" x="746.5" y="1103.5371">who: 0x0d4a..1852)</text><text fill="#000000" font-family="sans-serif" font-size="13" lengthAdjust="spacing" textLength="62" x="746.5" y="1118.8477">2,431 gas</text><polygon fill="#181818" points="750.5,1164.2109,740.5,1168.2109,750.5,1172.2109,746.5,1168.2109" style="stroke:#181818;stroke-width:1.0;"/><line style="stroke:#181818;stroke-width:1.0;stroke-dasharray:2.0,2.0;" x1="744.5" x2="1308" y1="1168.2109" y2="1168.2109"/><text fill="#000000" font-family="sans-serif" font-size="13" lengthAdjust="spacing" textLength="4" x="756.5" y="1148.1582"> </text><text fill="#000000" font-family="sans-serif" font-size="13" lengthAdjust="spacing" textLength="128" x="756.5" y="1163.4688">80,034,481,909,606</text><polygon fill="#181818" points="420.5,1178.2109,410.5,1182.2109,420.5,1186.2109,416.5,1182.2109" style="stroke:#181818;stroke-width:1.0;"/><line style="stroke:#181818;stroke-width:1.0;stroke-dasharray:2.0,2.0;" x1="414.5" x2="733.5" y1="1182.2109" y2="1182.2109"/><path d="M739,1195.2109 L739,1235.2109 L830,1235.2109 L830,1205.2109 L820,1195.2109 L739,1195.2109 " fill="#FEFFDD" style="stroke:#181818;stroke-width:0.5;"/><path d="M820,1195.2109 L820,1205.2109 L830,1205.2109 L820,1195.2109 " fill="#FEFFDD" style="stroke:#181818;stroke-width:0.5;"/><text fill="#000000" font-family="sans-serif" font-size="13" lengthAdjust="spacing" textLength="4" x="745" y="1212.7793"> </text><text fill="#000000" font-family="sans-serif" font-size="13" lengthAdjust="spacing" textLength="70" x="745" y="1228.0898">39,023 gas</text><polygon fill="#181818" points="1045.5,1334.6953,1055.5,1338.6953,1045.5,1342.6953,1049.5,1338.6953" style="stroke:#181818;stroke-width:1.0;"/><line style="stroke:#181818;stroke-width:1.0;" x1="409.5" x2="1051.5" y1="1338.6953" y2="1338.6953"/><text fill="#000000" font-family="sans-serif" font-size="13" lengthAdjust="spacing" textLength="36" x="416.5" y="1257.4004">swap(</text><text fill="#000000" font-family="sans-serif" font-size="13" lengthAdjust="spacing" textLength="287" x="416.5" y="1272.7109">amount0Out: 291,,695,822,896,696,770,814,</text><text fill="#000000" font-family="sans-serif" font-size="13" lengthAdjust="spacing" textLength="99" x="416.5" y="1288.0215">amount1Out: 0,</text><text fill="#000000" font-family="sans-serif" font-size="13" lengthAdjust="spacing" textLength="109" x="416.5" y="1303.332">to: 0x18a8..2CfF,</text><text fill="#000000" font-family="sans-serif" font-size="13" lengthAdjust="spacing" textLength="55" x="416.5" y="1318.6426">data: 0x)</text><text fill="#000000" font-family="sans-serif" font-size="13" lengthAdjust="spacing" textLength="70" x="416.5" y="1333.9531">59,283 gas</text><polygon fill="#181818" points="1748.5,1409.9375,1758.5,1413.9375,1748.5,1417.9375,1752.5,1413.9375" style="stroke:#181818;stroke-width:1.0;"/><line style="stroke:#181818;stroke-width:1.0;" x1="1067.5" x2="1754.5" y1="1413.9375" y2="1413.9375"/><text fill="#000000" font-family="sans-serif" font-size="13" lengthAdjust="spacing" textLength="53" x="1074.5" y="1363.2637">transfer(</text><text fill="#000000" font-family="sans-serif" font-size="13" lengthAdjust="spacing" textLength="151" x="1074.5" y="1378.5742">recipient: 0x18a8..2CfF,</text><text fill="#000000" font-family="sans-serif" font-size="13" lengthAdjust="spacing" textLength="256" x="1074.5" y="1393.8848">amount: 291,,695,822,896,696,770,814)</text><text fill="#000000" font-family="sans-serif" font-size="13" lengthAdjust="spacing" textLength="70" x="1074.5" y="1409.1953">29,823 gas</text><polygon fill="#181818" points="1078.5,1454.5586,1068.5,1458.5586,1078.5,1462.5586,1074.5,1458.5586" style="stroke:#181818;stroke-width:1.0;"/><line style="stroke:#181818;stroke-width:1.0;stroke-dasharray:2.0,2.0;" x1="1072.5" x2="1764.5" y1="1458.5586" y2="1458.5586"/><text fill="#000000" font-family="sans-serif" font-size="13" lengthAdjust="spacing" textLength="4" x="1084.5" y="1438.5059"> </text><text fill="#000000" font-family="sans-serif" font-size="13" lengthAdjust="spacing" textLength="25" x="1084.5" y="1453.8164">true</text><polygon fill="#181818" points="1748.5,1514.4902,1758.5,1518.4902,1748.5,1522.4902,1752.5,1518.4902" style="stroke:#181818;stroke-width:1.0;"/><line style="stroke:#181818;stroke-width:1.0;" x1="1067.5" x2="1754.5" y1="1518.4902" y2="1518.4902"/><text fill="#000000" font-family="sans-serif" font-size="13" lengthAdjust="spacing" textLength="67" x="1074.5" y="1483.127">balanceOf(</text><text fill="#000000" font-family="sans-serif" font-size="13" lengthAdjust="spacing" textLength="145" x="1074.5" y="1498.4375">account: 0xE3Ee..a85E)</text><text fill="#000000" font-family="sans-serif" font-size="13" lengthAdjust="spacing" textLength="62" x="1074.5" y="1513.748">1,219 gas</text><polygon fill="#181818" points="1078.5,1559.1113,1068.5,1563.1113,1078.5,1567.1113,1074.5,1563.1113" style="stroke:#181818;stroke-width:1.0;"/><line style="stroke:#181818;stroke-width:1.0;stroke-dasharray:2.0,2.0;" x1="1072.5" x2="1764.5" y1="1563.1113" y2="1563.1113"/><text fill="#000000" font-family="sans-serif" font-size="13" lengthAdjust="spacing" textLength="4" x="1084.5" y="1543.0586"> </text><text fill="#000000" font-family="sans-serif" font-size="13" lengthAdjust="spacing" textLength="224" x="1084.5" y="1558.3691">149,462,,453,462,880,205,538,911</text><polygon fill="#181818" points="1492.5,1619.043,1502.5,1623.043,1492.5,1627.043,1496.5,1623.043" style="stroke:#181818;stroke-width:1.0;"/><line style="stroke:#181818;stroke-width:1.0;" x1="1067.5" x2="1498.5" y1="1623.043" y2="1623.043"/><text fill="#000000" font-family="sans-serif" font-size="13" lengthAdjust="spacing" textLength="67" x="1074.5" y="1587.6797">balanceOf(</text><text fill="#000000" font-family="sans-serif" font-size="13" lengthAdjust="spacing" textLength="87" x="1074.5" y="1602.9902">0xE3Ee..a85E)</text><text fill="#000000" font-family="sans-serif" font-size="13" lengthAdjust="spacing" textLength="62" x="1074.5" y="1618.3008">1,234 gas</text><polygon fill="#181818" points="1078.5,1663.6641,1068.5,1667.6641,1078.5,1671.6641,1074.5,1667.6641" style="stroke:#181818;stroke-width:1.0;"/><line style="stroke:#181818;stroke-width:1.0;stroke-dasharray:2.0,2.0;" x1="1072.5" x2="1508.5" y1="1667.6641" y2="1667.6641"/><text fill="#000000" font-family="sans-serif" font-size="13" lengthAdjust="spacing" textLength="4" x="1084.5" y="1647.6113"> </text><text fill="#000000" font-family="sans-serif" font-size="13" lengthAdjust="spacing" textLength="196" x="1084.5" y="1662.9219">327,,705,974,480,114,192,309</text><polygon fill="#181818" points="420.5,1677.6641,410.5,1681.6641,420.5,1685.6641,416.5,1681.6641" style="stroke:#181818;stroke-width:1.0;"/><line style="stroke:#181818;stroke-width:1.0;stroke-dasharray:2.0,2.0;" x1="414.5" x2="1061.5" y1="1681.6641" y2="1681.6641"/><path d="M1067,1694.6641 L1067,1734.6641 L1158,1734.6641 L1158,1704.6641 L1148,1694.6641 L1067,1694.6641 " fill="#FEFFDD" style="stroke:#181818;stroke-width:0.5;"/><path d="M1148,1694.6641 L1148,1704.6641 L1158,1704.6641 L1148,1694.6641 " fill="#FEFFDD" style="stroke:#181818;stroke-width:0.5;"/><text fill="#000000" font-family="sans-serif" font-size="13" lengthAdjust="spacing" textLength="4" x="1073" y="1712.2324"> </text><text fill="#000000" font-family="sans-serif" font-size="13" lengthAdjust="spacing" textLength="70" x="1073" y="1727.543">27,007 gas</text><polygon fill="#181818" points="89.5,1818.8379,79.5,1822.8379,89.5,1826.8379,85.5,1822.8379" style="stroke:#181818;stroke-width:1.0;"/><line style="stroke:#181818;stroke-width:1.0;stroke-dasharray:2.0,2.0;" x1="83.5" x2="403.5" y1="1822.8379" y2="1822.8379"/><text fill="#000000" font-family="sans-serif" font-size="13" lengthAdjust="spacing" textLength="4" x="95.5" y="1756.8535"> </text><text fill="#000000" font-family="sans-serif" font-size="13" lengthAdjust="spacing" textLength="67" x="95.5" y="1772.1641">amounts: [</text><text fill="#000000" font-family="sans-serif" font-size="13" lengthAdjust="spacing" textLength="100" x="103.5" y="1787.4746">0: 500,000,000,</text><text fill="#000000" font-family="sans-serif" font-size="13" lengthAdjust="spacing" textLength="184" x="103.5" y="1802.7852">1: 640,232,919,757,709,767,</text><text fill="#000000" font-family="sans-serif" font-size="13" lengthAdjust="spacing" textLength="216" x="103.5" y="1818.0957">2: 291,,695,822,896,696,770,814]</text><path d="M409,1835.8379 L409,1875.8379 L500,1875.8379 L500,1845.8379 L490,1835.8379 L409,1835.8379 " fill="#FEFFDD" style="stroke:#181818;stroke-width:0.5;"/><path d="M490,1835.8379 L490,1845.8379 L500,1845.8379 L490,1835.8379 " fill="#FEFFDD" style="stroke:#181818;stroke-width:0.5;"/><text fill="#000000" font-family="sans-serif" font-size="13" lengthAdjust="spacing" textLength="4" x="415" y="1853.4063"> </text><text fill="#000000" font-family="sans-serif" font-size="13" lengthAdjust="spacing" textLength="70" x="415" y="1868.7168">18,090 gas</text><path d="M575,1886.459 L575,2049.459 L893,2049.459 L893,1896.459 L883,1886.459 L575,1886.459 " fill="#00FFFF" style="stroke:#181818;stroke-width:0.5;"/><path d="M883,1886.459 L883,1896.459 L893,1896.459 L883,1886.459 " fill="#00FFFF" style="stroke:#181818;stroke-width:0.5;"/><text fill="#000000" font-family="sans-serif" font-size="13" lengthAdjust="spacing" textLength="33" x="581" y="1904.0273">Sync:</text><text fill="#000000" font-family="sans-serif" font-size="13" lengthAdjust="spacing" textLength="289" x="589" y="1919.3379">reserve0: 102,789,,147,277,477,980,661,855,</text><text fill="#000000" font-family="sans-serif" font-size="13" lengthAdjust="spacing" textLength="189" x="589" y="1934.6484">reserve1: 80,034,481,909,606</text><text fill="#000000" font-family="sans-serif" font-size="13" lengthAdjust="spacing" textLength="36" x="581" y="1949.959">Swap:</text><text fill="#000000" font-family="sans-serif" font-size="13" lengthAdjust="spacing" textLength="143" x="589" y="1965.2695">sender: 0x7a25..488D,</text><text fill="#000000" font-family="sans-serif" font-size="13" lengthAdjust="spacing" textLength="88" x="589" y="1980.5801">amount0In: 0,</text><text fill="#000000" font-family="sans-serif" font-size="13" lengthAdjust="spacing" textLength="160" x="589" y="1995.8906">amount1In: 500,000,000,</text><text fill="#000000" font-family="sans-serif" font-size="13" lengthAdjust="spacing" textLength="255" x="589" y="2011.2012">amount0Out: 640,232,919,757,709,767,</text><text fill="#000000" font-family="sans-serif" font-size="13" lengthAdjust="spacing" textLength="99" x="589" y="2026.5117">amount1Out: 0,</text><text fill="#000000" font-family="sans-serif" font-size="13" lengthAdjust="spacing" textLength="104" x="589" y="2041.8223">to: 0xE3Ee..a85E</text><path d="M903,1886.459 L903,2049.459 L1221,2049.459 L1221,1896.459 L1211,1886.459 L903,1886.459 " fill="#00FFFF" style="stroke:#181818;stroke-width:0.5;"/><path d="M1211,1886.459 L1211,1896.459 L1221,1896.459 L1211,1886.459 " fill="#00FFFF" style="stroke:#181818;stroke-width:0.5;"/><text fill="#000000" font-family="sans-serif" font-size="13" lengthAdjust="spacing" textLength="33" x="909" y="1904.0273">Sync:</text><text fill="#000000" font-family="sans-serif" font-size="13" lengthAdjust="spacing" textLength="289" x="917" y="1919.3379">reserve0: 149,462,,453,462,880,205,538,911,</text><text fill="#000000" font-family="sans-serif" font-size="13" lengthAdjust="spacing" textLength="257" x="917" y="1934.6484">reserve1: 327,,705,974,480,114,192,309</text><text fill="#000000" font-family="sans-serif" font-size="13" lengthAdjust="spacing" textLength="36" x="909" y="1949.959">Swap:</text><text fill="#000000" font-family="sans-serif" font-size="13" lengthAdjust="spacing" textLength="143" x="917" y="1965.2695">sender: 0x7a25..488D,</text><text fill="#000000" font-family="sans-serif" font-size="13" lengthAdjust="spacing" textLength="88" x="917" y="1980.5801">amount0In: 0,</text><text fill="#000000" font-family="sans-serif" font-size="13" lengthAdjust="spacing" textLength="244" x="917" y="1995.8906">amount1In: 640,232,919,757,709,767,</text><text fill="#000000" font-family="sans-serif" font-size="13" lengthAdjust="spacing" textLength="287" x="917" y="2011.2012">amount0Out: 291,,695,822,896,696,770,814,</text><text fill="#000000" font-family="sans-serif" font-size="13" lengthAdjust="spacing" textLength="99" x="917" y="2026.5117">amount1Out: 0,</text><text fill="#000000" font-family="sans-serif" font-size="13" lengthAdjust="spacing" textLength="105" x="917" y="2041.8223">to: 0x18a8..2CfF</text><path d="M1231,1886.459 L1231,1957.459 L1386,1957.459 L1386,1896.459 L1376,1886.459 L1231,1886.459 " fill="#00FFFF" style="stroke:#181818;stroke-width:0.5;"/><path d="M1376,1886.459 L1376,1896.459 L1386,1896.459 L1376,1886.459 " fill="#00FFFF" style="stroke:#181818;stroke-width:0.5;"/><text fill="#000000" font-family="sans-serif" font-size="13" lengthAdjust="spacing" textLength="56" x="1237" y="1904.0273">Transfer:</text><text fill="#000000" font-family="sans-serif" font-size="13" lengthAdjust="spacing" textLength="126" x="1245" y="1919.3379">from: 0x18a8..2CfF,</text><text fill="#000000" font-family="sans-serif" font-size="13" lengthAdjust="spacing" textLength="112" x="1245" y="1934.6484">to: 0x0d4a..1852,</text><text fill="#000000" font-family="sans-serif" font-size="13" lengthAdjust="spacing" textLength="121" x="1245" y="1949.959">value: 500,000,000</text><path d="M1396,1886.459 L1396,1957.459 L1622,1957.459 L1622,1896.459 L1612,1886.459 L1396,1886.459 " fill="#00FFFF" style="stroke:#181818;stroke-width:0.5;"/><path d="M1612,1886.459 L1612,1896.459 L1622,1896.459 L1612,1886.459 " fill="#00FFFF" style="stroke:#181818;stroke-width:0.5;"/><text fill="#000000" font-family="sans-serif" font-size="13" lengthAdjust="spacing" textLength="56" x="1402" y="1904.0273">Transfer:</text><text fill="#000000" font-family="sans-serif" font-size="13" lengthAdjust="spacing" textLength="118" x="1410" y="1919.3379">src: 0x0d4a..1852,</text><text fill="#000000" font-family="sans-serif" font-size="13" lengthAdjust="spacing" textLength="115" x="1410" y="1934.6484">dst: 0xE3Ee..a85E,</text><text fill="#000000" font-family="sans-serif" font-size="13" lengthAdjust="spacing" textLength="197" x="1410" y="1949.959">wad: 640,232,919,757,709,767</text><path d="M1632,1886.459 L1632,1957.459 L1898,1957.459 L1898,1896.459 L1888,1886.459 L1632,1886.459 " fill="#00FFFF" style="stroke:#181818;stroke-width:0.5;"/><path d="M1888,1886.459 L1888,1896.459 L1898,1896.459 L1888,1886.459 " fill="#00FFFF" style="stroke:#181818;stroke-width:0.5;"/><text fill="#000000" font-family="sans-serif" font-size="13" lengthAdjust="spacing" textLength="56" x="1638" y="1904.0273">Transfer:</text><text fill="#000000" font-family="sans-serif" font-size="13" lengthAdjust="spacing" textLength="125" x="1646" y="1919.3379">from: 0xE3Ee..a85E,</text><text fill="#000000" font-family="sans-serif" font-size="13" lengthAdjust="spacing" textLength="109" x="1646" y="1934.6484">to: 0x18a8..2CfF,</text><text fill="#000000" font-family="sans-serif" font-size="13" lengthAdjust="spacing" textLength="237" x="1646" y="1949.959">value: 291,,695,822,896,696,770,814</text><!--SRC=[fLRRRjiu47tNLn2xBot0UdcJI1f1WMsQTBFe3RNJFcoAW9ReH6X2UIKvoVxz3YbBicpBAT078ve9UUPsPePrNjzPH9xeqb3E5WcF6RK9MOhCBjAbPLGHOpH9fQGBHVX22abIaYr4AZNbS8GHAOHUHAbPrNdXqBt9dRCrHekx8ls1A8sbqf9XD5ixZ0X7Vnk7664KlgT4J6c2tdsOHoQjYnBz1eueeoOJbYwNlo5J8Izw0KKhKzPvcg-Cg_qvQLWycGYbid3EYrv09oUNBgyUpUeh-rAiQriIzlhrxcMI2JEPK1MpSDcBNkWlewzmw-JanUN7YrTVsKl_tS5-Ddcv3scvjPE9KR4Da5xqmgz0PYQbuALDPO3qeXS0ScxhMrkYozdR1dBsTXu06_sy-67TFbnA60ITf6aJj1Uz073VIhDQsGoT-Ti1yTlP_A-0w3_qFfPU40POm8U0vKKl0DRijbYjSdSpoOk0DFjy4O1Q_SKdG8jSKLjKF40CRO6ZZuLBxHJ58de7Y9_BF4XaGj2xHvi7vVlyFg-dm1wAOys2whAosHHH89YEUJH_GkSMhi4jeX6u7bcN8MyiYZeclNhTiMMAVFxFde1z8MdLUT5ahtfnvSnziNRrXVDU44mslrR_QLr_oE5_JCKOouHZoZacIc6X5LOymJnEuF3ArBTJzC-LGuY0Nq_PdwURccAlervtsXJcD6L1nxnElsaI_4P-1sLTUDscDKwNvw3AhCdkSWV1KfmGZHCXC5NivPM3ZiCweUZ6LBwjyWS3kMuZZhf6WJIql9-Y6rj_iPKj7sprmaDWHiGGe3qRbRPUb-xANPVD1GYB4eQXoo4FIkAO4iorn98hp2KuntnOxMa8M44Y8LTQKQozuyJdwJgCYtb-RwlQtA_Ucwhk8uF4YcJWUTjUF-DvU_QWvq9Z6GkC_OSlfPG9UCKm1yEInKFFEPCOamHE2M1WGaADXM8u5kmdOeY7CRJzF4LrQLorjELvMTm3yQwNy7UluDSD2VhHvNKFvcvj1mI5731mZ9DX4bfZcoICqC1tGyTy0XIVeaGGp3Yq5_MPWhBwn2IowmCQJf6Ef6Vyh9c3PvwafZPU2Kx1LHMJ4Kvr0nYyQUTIdnRmAFEft05_DDceUw4DC4tOq62BtL6XBjTsnFh2t1cOI9-MO7uxxGt9k7W6kUi9AYHcKc81FmtSJn8AcOW7LdigR5jzlDsfkAyj5fmUBUsL2mqcW9XTWxLL3sEtp6zkQrGij-f-vRZ6XF40VBZF3b23QOfnecEieCMLJk0xWGOYM54noe_X4DlYX-y_FjAvtJO5bzfTC-17QM4tvTRLUoOQBuuxw_EguHyxvbjBGxOSzcMxRYPD6vlRX6reG_Kp9lmS4Wd3MCGyV2Ye9YCnZc6SQae7viV8kclrMRA6mIR1YfQUDmHJg23LOGmUvavF3CYTXC4ZWuaMiCbwrM- -uGeDYszyieGTUAnWttUywVSvnAimqSsWsNfcTDtsk_btRQBPVowTHWWTs64Z_Ohxq-qE6xRO31h4GrRmvB2bBtxtH7thBsywnxydI2_JtVT5V_Be-Eq1Dlq5Yjq1lFNu-GFrgUWOD9gAPpWuJCLHxln2KfwD_2U6q7YM-XanagNkjTraQRwPDJwO0-kvmzrQpw3RNyyZrhh7-BwrgaptWVVt8IYFBSGHkzt3VJpAeOsz8Tv7UQmIlVd_0G00]--></g></svg>