<?xml version="1.0" encoding="UTF-8" standalone="no"?><svg xmlns="http://www.w3.org/2000/svg" xmlns:xlink="http://www.w3.org/1999/xlink" contentStyleType="text/css" height="795px" preserveAspectRatio="none" style="width:852px;height:795px;background:#FFFFFF;" version="1.1" viewBox="0 0 852 795" width="852px" zoomAndPan="magnify"><defs/><g><text fill="#000000" font-family="sans-serif" font-size="14" font-weight="bold" lengthAdjust="spacing" textLength="564" x="143" y="28.5352">0xef0ef332690119a0174f26c3ce40edfd4e57d138bb5c95a081e3d66ee571e706</text><text fill="#000000" font-family="sans-serif" font-size="14" lengthAdjust="spacing" textLength="401" x="224.5" y="783.0723">mainnet, block 9555775, Wed, 26 Feb 2020 00:10:05 GMT</text><rect fill="#FFFFFF" height="271.1055" style="stroke:#181818;stroke-width:1.0;" width="10" x="231.5" y="281.9258"/><rect fill="#FFFFFF" height="14" style="stroke:#181818;stroke-width:1.0;" width="10" x="466.5" y="326.5469"/><rect fill="#FFFFFF" height="72.6211" style="stroke:#181818;stroke-width:1.0;" width="10" x="466.5" y="385.168"/><rect fill="#809ECB" height="14" style="stroke:#181818;stroke-width:1.0;" width="10" x="719.5" y="429.7891"/><line style="stroke:#181818;stroke-width:0.5;stroke-dasharray:5.0,5.0;" x1="74" x2="74" y1="123.4414" y2="687.584"/><line style="stroke:#181818;stroke-width:0.5;stroke-dasharray:5.0,5.0;" x1="236" x2="236" y1="123.4414" y2="687.584"/><line style="stroke:#181818;stroke-width:0.5;stroke-dasharray:5.0,5.0;" x1="471" x2="471" y1="123.4414" y2="687.584"/><line style="stroke:#181818;stroke-width:0.5;stroke-dasharray:5.0,5.0;" x1="724" x2="724" y1="123.4414" y2="687.584"/><text fill="#000000" font-family="sans-serif" font-size="14" lengthAdjust="spacing" textLength="91" x="26" y="120.4883">0xdf55..ac95</text><ellipse cx="74.5" cy="55.4531" fill="#E2E2F0" rx="8" ry="8" style="stroke:#181818;stroke-width:0.5;"/><path d="M74.5,63.4531 L74.5,90.4531 M61.5,71.4531 L87.5,71.4531 M74.5,90.4531 L61.5,105.4531 M74.5,90.4531 L87.5,105.4531 " fill="none" style="stroke:#181818;stroke-width:0.5;"/><text fill="#000000" font-family="sans-serif" font-size="14" lengthAdjust="spacing" textLength="91" x="26" y="700.1191">0xdf55..ac95</text><ellipse cx="74.5" cy="711.5723" fill="#E2E2F0" rx="8" ry="8" style="stroke:#181818;stroke-width:0.5;"/><path d="M74.5,719.5723 L74.5,746.5723 M61.5,727.5723 L87.5,727.5723 M74.5,746.5723 L61.5,761.5723 M74.5,746.5723 L87.5,761.5723 " fill="none" style="stroke:#181818;stroke-width:0.5;"/><rect fill="#E2E2F0" height="63.4648" rx="2.5" ry="2.5" style="stroke:#181818;stroke-width:0.5;" width="207" x="133" y="58.9766"/><text fill="#000000" font-family="sans-serif" font-size="14" font-style="italic" lengthAdjust="spacing" textLength="193" x="140" y="79.5117">«Uniswap: Factory Contract»</text><text fill="#000000" font-family="sans-serif" font-size="14" font-style="italic" lengthAdjust="spacing" textLength="116" x="178.5" y="96">«Vyper_contract»</text><text fill="#000000" font-family="sans-serif" font-size="14" lengthAdjust="spacing" textLength="95" x="189" y="112.4883">0xc0a4..4d95</text><rect fill="#E2E2F0" height="63.4648" rx="2.5" ry="2.5" style="stroke:#181818;stroke-width:0.5;" width="207" x="133" y="686.584"/><text fill="#000000" font-family="sans-serif" font-size="14" font-style="italic" lengthAdjust="spacing" textLength="193" x="140" y="707.1191">«Uniswap: Factory Contract»</text><text fill="#000000" font-family="sans-serif" font-size="14" font-style="italic" lengthAdjust="spacing" textLength="116" x="178.5" y="723.6074">«Vyper_contract»</text><text fill="#000000" font-family="sans-serif" font-size="14" lengthAdjust="spacing" textLength="95" x="189" y="740.0957">0xc0a4..4d95</text><rect fill="#E2E2F0" height="79.9531" rx="2.5" ry="2.5" style="stroke:#181818;stroke-width:0.5;" width="243" x="350" y="42.4883"/><text fill="#000000" font-family="sans-serif" font-size="14" font-style="italic" lengthAdjust="spacing" textLength="94" x="424.5" y="63.0234">«Uniswap V1»</text><text fill="#000000" font-family="sans-serif" font-size="14" font-style="italic" lengthAdjust="spacing" textLength="74" x="434.5" y="79.5117">«(UNI-V1)»</text><text fill="#000000" font-family="sans-serif" font-size="14" font-style="italic" lengthAdjust="spacing" textLength="229" x="357" y="96">«Uniswap Exchange Interface V1»</text><text fill="#000000" font-family="sans-serif" font-size="14" lengthAdjust="spacing" textLength="94" x="424.5" y="112.4883">0xc64c..0882</text><rect fill="#E2E2F0" height="79.9531" rx="2.5" ry="2.5" style="stroke:#181818;stroke-width:0.5;" width="243" x="350" y="686.584"/><text fill="#000000" font-family="sans-serif" font-size="14" font-style="italic" lengthAdjust="spacing" textLength="94" x="424.5" y="707.1191">«Uniswap V1»</text><text fill="#000000" font-family="sans-serif" font-size="14" font-style="italic" lengthAdjust="spacing" textLength="74" x="434.5" y="723.6074">«(UNI-V1)»</text><text fill="#000000" font-family="sans-serif" font-size="14" font-style="italic" lengthAdjust="spacing" textLength="229" x="357" y="740.0957">«Uniswap Exchange Interface V1»</text><text fill="#000000" font-family="sans-serif" font-size="14" lengthAdjust="spacing" textLength="94" x="424.5" y="756.584">0xc64c..0882</text><rect fill="#E2E2F0" height="79.9531" rx="2.5" ry="2.5" style="stroke:#181818;stroke-width:0.5;" width="243" x="603" y="42.4883"/><text fill="#000000" font-family="sans-serif" font-size="14" font-style="italic" lengthAdjust="spacing" textLength="94" x="677.5" y="63.0234">«Uniswap V1»</text><text fill="#000000" font-family="sans-serif" font-size="14" font-style="italic" lengthAdjust="spacing" textLength="74" x="687.5" y="79.5117">«(UNI-V1)»</text><text fill="#000000" font-family="sans-serif" font-size="14" font-style="italic" lengthAdjust="spacing" textLength="229" x="610" y="96">«Uniswap Exchange Interface V1»</text><text fill="#000000" font-family="sans-serif" font-size="14" lengthAdjust="spacing" textLength="94" x="677.5" y="112.4883">0x2157..f708</text><rect fill="#E2E2F0" height="79.9531" rx="2.5" ry="2.5" style="stroke:#181818;stroke-width:0.5;" width="243" x="603" y="686.584"/><text fill="#000000" font-family="sans-serif" font-size="14" font-style="italic" lengthAdjust="spacing" textLength="94" x="677.5" y="707.1191">«Uniswap V1»</text><text fill="#000000" font-family="sans-serif" font-size="14" font-style="italic" lengthAdjust="spacing" textLength="74" x="687.5" y="723.6074">«(UNI-V1)»</text><text fill="#000000" font-family="sans-serif" font-size="14" font-style="italic" lengthAdjust="spacing" textLength="229" x="610" y="740.0957">«Uniswap Exchange Interface V1»</text><text fill="#000000" font-family="sans-serif" font-size="14" lengthAdjust="spacing" textLength="94" x="677.5" y="756.584">0x2157..f708</text><rect fill="#FFFFFF" height="271.1055" style="stroke:#181818;stroke-width:1.0;" width="10" x="231.5" y="281.9258"/><rect fill="#FFFFFF" height="14" style="stroke:#181818;stroke-width:1.0;" width="10" x="466.5" y="326.5469"/><rect fill="#FFFFFF" height="72.6211" style="stroke:#181818;stroke-width:1.0;" width="10" x="466.5" y="385.168"/><rect fill="#809ECB" height="14" style="stroke:#181818;stroke-width:1.0;" width="10" x="719.5" y="429.7891"/><path d="M5,138.4414 L5,224.4414 L145,224.4414 L145,148.4414 L135,138.4414 L5,138.4414 " fill="#FEFFDD" style="stroke:#181818;stroke-width:0.5;"/><path d="M135,138.4414 L135,148.4414 L145,148.4414 L135,138.4414 " fill="#FEFFDD" style="stroke:#181818;stroke-width:0.5;"/><text fill="#000000" font-family="sans-serif" font-size="13" lengthAdjust="spacing" textLength="56" x="11" y="156.0098">Nonce: 1</text><text fill="#000000" font-family="sans-serif" font-size="13" lengthAdjust="spacing" textLength="119" x="11" y="171.3203">Gas Price: 1.0 Gwei</text><text fill="#000000" font-family="sans-serif" font-size="13" lengthAdjust="spacing" textLength="119" x="11" y="186.6309">Gas Limit: 239,279</text><text fill="#000000" font-family="sans-serif" font-size="13" lengthAdjust="spacing" textLength="118" x="11" y="201.9414">Gas Used: 239,279</text><text fill="#000000" font-family="sans-serif" font-size="13" lengthAdjust="spacing" textLength="86" x="11" y="217.252">Tx Fee: 0 ETH</text><polygon fill="#181818" points="219.5,277.9258,229.5,281.9258,219.5,285.9258,223.5,281.9258" style="stroke:#181818;stroke-width:1.0;"/><line style="stroke:#181818;stroke-width:1.0;" x1="74.5" x2="225.5" y1="281.9258" y2="281.9258"/><text fill="#000000" font-family="sans-serif" font-size="13" lengthAdjust="spacing" textLength="102" x="81.5" y="246.5625">createExchange(</text><text fill="#000000" font-family="sans-serif" font-size="13" lengthAdjust="spacing" textLength="133" x="81.5" y="261.873">token: 0x8636..f4FC)</text><text fill="#000000" font-family="sans-serif" font-size="13" lengthAdjust="spacing" textLength="78" x="81.5" y="277.1836">239,279 gas</text><ellipse cx="466" cy="325.7969" fill="none" rx="4" ry="4" style="stroke:#181818;stroke-width:1.5;"/><polygon fill="#181818" points="449,322.5469,459,326.5469,449,330.5469,453,326.5469" style="stroke:#181818;stroke-width:1.0;"/><line style="stroke:#181818;stroke-width:1.0;" x1="241.5" x2="455" y1="326.5469" y2="326.5469"/><text fill="#000000" font-family="sans-serif" font-size="13" lengthAdjust="spacing" textLength="81" x="248.5" y="306.4941">constructor()</text><text fill="#000000" font-family="sans-serif" font-size="13" lengthAdjust="spacing" textLength="62" x="248.5" y="321.8047">9,230 gas</text><ellipse cx="241" cy="339.7969" fill="none" rx="4" ry="4" style="stroke:#181818;stroke-width:1.5;"/><polygon fill="#181818" points="258,336.5469,248,340.5469,258,344.5469,254,340.5469" style="stroke:#181818;stroke-width:1.0;"/><line style="stroke:#181818;stroke-width:1.0;stroke-dasharray:2.0,2.0;" x1="256" x2="470.5" y1="340.5469" y2="340.5469"/><polygon fill="#181818" points="454.5,381.168,464.5,385.168,454.5,389.168,458.5,385.168" style="stroke:#181818;stroke-width:1.0;"/><line style="stroke:#181818;stroke-width:1.0;" x1="241.5" x2="460.5" y1="385.168" y2="385.168"/><text fill="#000000" font-family="sans-serif" font-size="13" lengthAdjust="spacing" textLength="80" x="248.5" y="365.1152">0x66d38203</text><text fill="#000000" font-family="sans-serif" font-size="13" lengthAdjust="spacing" textLength="78" x="248.5" y="380.4258">103,035 gas</text><line style="stroke:#181818;stroke-width:1.0;" x1="717.5" x2="707.5" y1="429.7891" y2="425.7891"/><line style="stroke:#181818;stroke-width:1.0;" x1="717.5" x2="707.5" y1="429.7891" y2="433.7891"/><line style="stroke:#181818;stroke-width:1.0;" x1="476.5" x2="718.5" y1="429.7891" y2="429.7891"/><text fill="#000000" font-family="sans-serif" font-size="13" lengthAdjust="spacing" textLength="80" x="483.5" y="409.7363">0x66d38203</text><text fill="#000000" font-family="sans-serif" font-size="13" lengthAdjust="spacing" textLength="78" x="483.5" y="425.0469">101,865 gas</text><line style="stroke:#181818;stroke-width:1.0;" x1="477.5" x2="487.5" y1="443.7891" y2="439.7891"/><line style="stroke:#181818;stroke-width:1.0;" x1="477.5" x2="487.5" y1="443.7891" y2="447.7891"/><line style="stroke:#181818;stroke-width:1.0;stroke-dasharray:2.0,2.0;" x1="476.5" x2="723.5" y1="443.7891" y2="443.7891"/><polygon fill="#181818" points="252.5,453.7891,242.5,457.7891,252.5,461.7891,248.5,457.7891" style="stroke:#181818;stroke-width:1.0;"/><line style="stroke:#181818;stroke-width:1.0;stroke-dasharray:2.0,2.0;" x1="246.5" x2="470.5" y1="457.7891" y2="457.7891"/><path d="M476,470.7891 L476,510.7891 L559,510.7891 L559,480.7891 L549,470.7891 L476,470.7891 " fill="#FEFFDD" style="stroke:#181818;stroke-width:0.5;"/><path d="M549,470.7891 L549,480.7891 L559,480.7891 L549,470.7891 " fill="#FEFFDD" style="stroke:#181818;stroke-width:0.5;"/><text fill="#000000" font-family="sans-serif" font-size="13" lengthAdjust="spacing" textLength="4" x="482" y="488.3574"> </text><text fill="#000000" font-family="sans-serif" font-size="13" lengthAdjust="spacing" textLength="62" x="482" y="503.668">1,170 gas</text><polygon fill="#181818" points="85.5,549.0313,75.5,553.0313,85.5,557.0313,81.5,553.0313" style="stroke:#181818;stroke-width:1.0;"/><line style="stroke:#181818;stroke-width:1.0;stroke-dasharray:2.0,2.0;" x1="79.5" x2="235.5" y1="553.0313" y2="553.0313"/><text fill="#000000" font-family="sans-serif" font-size="13" lengthAdjust="spacing" textLength="4" x="91.5" y="532.9785"> </text><text fill="#000000" font-family="sans-serif" font-size="13" lengthAdjust="spacing" textLength="117" x="91.5" y="548.2891">out: 0xC64c..0882</text><path d="M241,566.0313 L241,606.0313 L340,606.0313 L340,576.0313 L330,566.0313 L241,566.0313 " fill="#FEFFDD" style="stroke:#181818;stroke-width:0.5;"/><path d="M330,566.0313 L330,576.0313 L340,576.0313 L330,566.0313 " fill="#FEFFDD" style="stroke:#181818;stroke-width:0.5;"/><text fill="#000000" font-family="sans-serif" font-size="13" lengthAdjust="spacing" textLength="4" x="247" y="583.5996"> </text><text fill="#000000" font-family="sans-serif" font-size="13" lengthAdjust="spacing" textLength="78" x="247" y="598.9102">127,014 gas</text><path d="M144,616.6523 L144,671.6523 L329,671.6523 L329,626.6523 L319,616.6523 L144,616.6523 " fill="#00FFFF" style="stroke:#181818;stroke-width:0.5;"/><path d="M319,616.6523 L319,626.6523 L329,626.6523 L319,616.6523 " fill="#00FFFF" style="stroke:#181818;stroke-width:0.5;"/><text fill="#000000" font-family="sans-serif" font-size="13" lengthAdjust="spacing" textLength="91" x="150" y="634.2207">NewExchange:</text><text fill="#000000" font-family="sans-serif" font-size="13" lengthAdjust="spacing" textLength="133" x="158" y="649.5313">token: 0x8636..f4FC,</text><text fill="#000000" font-family="sans-serif" font-size="13" lengthAdjust="spacing" textLength="156" x="158" y="664.8418">exchange: 0xC64c..0882</text><!--SRC=[fP9FRzf04CNl-ob6oOL8nfhrVrk8Gn7GI2tg0UW5gLhMOs8bMLEp1FBjksjWGsbxwib-uvdVsvrdNUiN0ZnIXLI5OP3ao7akaATH5IGob1GXbLKPKPoMFCpMwrZciS2CKrWc2PaofnGJ9iLMrus2Lr4hHTg3zKiZdo6FupXDOm- -K-b1aC24rX1WW81OS2mmXkdNEHDIDotSuR6iujZtXV6u0x43Awq0jXMjhcMz5KhRFeaYylseFFTPQGKC1WjLxmvYMy2aWxx3g56wDU_3uM2mVDzI-qEwoX_O99A-ZraMdB16Ml61XIMtdDvYzjXVyWVxVlaoFiedeJO4ZqfJMmb9NVEjHS3ZrFUh5BFEmaeh_ik2gKOJD6_KkesnMQCa5S3PrBXyQ-jE-0ZJ0zLTxKlzMki2WZ3tWZJlIeiTbH-L-T6aPQOGnlFFZ5G9reOn5qf_w1PVW6n9QBgSiBTIkdacPQQFMH8cviRHPFImKcSuRCJEfbw_cI57OIx7_h1nspViHkrqkxTvzWp344Ay8PnxMKjwtwfhq1K7ZqbIXbc0uKfn33qCutzWNFBzuT1bT0lWNfRS05oSzndcuz6dotdEZowdjjuyQMYgguCPciVJqvrEhIlLxBKr7BbVydRQhTvC1wc7FEhchtu6juLxyNCls8mEbtmA1l2NW3nJfalBx-Ok_ry0]--></g></svg>