<?xml version="1.0" encoding="UTF-8" standalone="no"?><svg xmlns="http://www.w3.org/2000/svg" xmlns:xlink="http://www.w3.org/1999/xlink" contentStyleType="text/css" height="2640px" preserveAspectRatio="none" style="width:1442px;height:2640px;background:#FFFFFF;" version="1.1" viewBox="0 0 1442 2640" width="1442px" zoomAndPan="magnify"><defs/><g><rect fill="#FFFFFF" height="14" style="stroke:#181818;stroke-width:1.0;" width="10" x="246.5" y="299.3691"/><rect fill="#FFFFFF" height="44.6211" style="stroke:#181818;stroke-width:1.0;" width="10" x="246.5" y="1388.0703"/><rect fill="#FFFFFF" height="44.6211" style="stroke:#181818;stroke-width:1.0;" width="10" x="246.5" y="1752.3496"/><rect fill="#FFFFFF" height="161.8633" style="stroke:#181818;stroke-width:1.0;" width="10" x="246.5" y="2010.7656"/><rect fill="#FFFFFF" height="14" style="stroke:#181818;stroke-width:1.0;" width="10" x="376" y="2130.6289"/><rect fill="#FFFFFF" height="1501.7383" style="stroke:#181818;stroke-width:1.0;" width="10" x="657" y="766.1328"/><rect fill="#FFFFFF" height="87.9316" style="stroke:#181818;stroke-width:1.0;" width="10" x="662" y="2070.6973"/><rect fill="#FFFFFF" height="179.7949" style="stroke:#181818;stroke-width:1.0;" width="10" x="849.5" y="856.6855"/><rect fill="#FFFFFF" height="149.1738" style="stroke:#181818;stroke-width:1.0;" width="10" x="849.5" y="1492.623"/><rect fill="#809ECB" height="44.6211" style="stroke:#181818;stroke-width:1.0;" width="10" x="1026.5" y="947.2383"/><rect fill="#809ECB" height="44.6211" style="stroke:#181818;stroke-width:1.0;" width="10" x="1026.5" y="1552.5547"/><rect fill="#FFFFFF" height="75.2422" style="stroke:#181818;stroke-width:1.0;" width="10" x="1174.5" y="1131.7227"/><rect fill="#FFFFFF" height="587.3848" style="stroke:#181818;stroke-width:1.0;" width="10" x="1174.5" y="1312.8281"/><rect fill="#FFFFFF" height="44.6211" style="stroke:#181818;stroke-width:1.0;" width="10" x="1338.5" y="1841.5918"/><rect fill="none" height="391.5215" style="stroke:#000000;stroke-width:1.5;" width="1323" x="9" y="102.9531"/><rect fill="none" height="1991.123" style="stroke:#000000;stroke-width:1.5;" width="1304.5" x="132" y="508.4746"/><line style="stroke:#181818;stroke-width:0.5;stroke-dasharray:5.0,5.0;" x1="125" x2="125" y1="85.9531" y2="2516.5977"/><line style="stroke:#181818;stroke-width:0.5;stroke-dasharray:5.0,5.0;" x1="251" x2="251" y1="85.9531" y2="2516.5977"/><line style="stroke:#181818;stroke-width:0.5;stroke-dasharray:5.0,5.0;" x1="381" x2="381" y1="85.9531" y2="2516.5977"/><line style="stroke:#181818;stroke-width:0.5;stroke-dasharray:5.0,5.0;" x1="662" x2="662" y1="85.9531" y2="2516.5977"/><line style="stroke:#181818;stroke-width:0.5;stroke-dasharray:5.0,5.0;" x1="854" x2="854" y1="85.9531" y2="2516.5977"/><line style="stroke:#181818;stroke-width:0.5;stroke-dasharray:5.0,5.0;" x1="1031.5" x2="1031.5" y1="85.9531" y2="2516.5977"/><line style="stroke:#181818;stroke-width:0.5;stroke-dasharray:5.0,5.0;" x1="1179.5" x2="1179.5" y1="85.9531" y2="2516.5977"/><line style="stroke:#181818;stroke-width:0.5;stroke-dasharray:5.0,5.0;" x1="1343.5" x2="1343.5" y1="85.9531" y2="2516.5977"/><text fill="#000000" font-family="sans-serif" font-size="14" lengthAdjust="spacing" textLength="97" x="74" y="83">0x9add..3745</text><ellipse cx="125.5" cy="17.9648" fill="#E2E2F0" rx="8" ry="8" style="stroke:#181818;stroke-width:0.5;"/><path d="M125.5,25.9648 L125.5,52.9648 M112.5,33.9648 L138.5,33.9648 M125.5,52.9648 L112.5,67.9648 M125.5,52.9648 L138.5,67.9648 " fill="none" style="stroke:#181818;stroke-width:0.5;"/><text fill="#000000" font-family="sans-serif" font-size="14" lengthAdjust="spacing" textLength="97" x="74" y="2529.1328">0x9add..3745</text><ellipse cx="125.5" cy="2540.5859" fill="#E2E2F0" rx="8" ry="8" style="stroke:#181818;stroke-width:0.5;"/><path d="M125.5,2548.5859 L125.5,2575.5859 M112.5,2556.5859 L138.5,2556.5859 M125.5,2575.5859 L112.5,2590.5859 M125.5,2575.5859 L138.5,2590.5859 " fill="none" style="stroke:#181818;stroke-width:0.5;"/><rect fill="#E2E2F0" height="79.9531" rx="2.5" ry="2.5" style="stroke:#181818;stroke-width:0.5;" width="129" x="187" y="5"/><text fill="#000000" font-family="sans-serif" font-size="14" font-style="italic" lengthAdjust="spacing" textLength="115" x="194" y="25.5352">«Wrapped Ether»</text><text fill="#000000" font-family="sans-serif" font-size="14" font-style="italic" lengthAdjust="spacing" textLength="63" x="220" y="42.0234">«(WETH)»</text><text fill="#000000" font-family="sans-serif" font-size="14" font-style="italic" lengthAdjust="spacing" textLength="62" x="220.5" y="58.5117">«WETH9»</text><text fill="#000000" font-family="sans-serif" font-size="14" lengthAdjust="spacing" textLength="91" x="206" y="75">0xc02a..6cc2</text><rect fill="#E2E2F0" height="79.9531" rx="2.5" ry="2.5" style="stroke:#181818;stroke-width:0.5;" width="129" x="187" y="2515.5977"/><text fill="#000000" font-family="sans-serif" font-size="14" font-style="italic" lengthAdjust="spacing" textLength="115" x="194" y="2536.1328">«Wrapped Ether»</text><text fill="#000000" font-family="sans-serif" font-size="14" font-style="italic" lengthAdjust="spacing" textLength="63" x="220" y="2552.6211">«(WETH)»</text><text fill="#000000" font-family="sans-serif" font-size="14" font-style="italic" lengthAdjust="spacing" textLength="62" x="220.5" y="2569.1094">«WETH9»</text><text fill="#000000" font-family="sans-serif" font-size="14" lengthAdjust="spacing" textLength="91" x="206" y="2585.5977">0xc02a..6cc2</text><rect fill="#E2E2F0" height="30.4883" rx="2.5" ry="2.5" style="stroke:#181818;stroke-width:0.5;" width="110" x="326" y="54.4648"/><text fill="#000000" font-family="sans-serif" font-size="14" lengthAdjust="spacing" textLength="96" x="333" y="75">0x6470..3bee</text><rect fill="#E2E2F0" height="30.4883" rx="2.5" ry="2.5" style="stroke:#181818;stroke-width:0.5;" width="110" x="326" y="2515.5977"/><text fill="#000000" font-family="sans-serif" font-size="14" lengthAdjust="spacing" textLength="96" x="333" y="2536.1328">0x6470..3bee</text><rect fill="#E2E2F0" height="63.4648" rx="2.5" ry="2.5" style="stroke:#181818;stroke-width:0.5;" width="230" x="547" y="21.4883"/><text fill="#000000" font-family="sans-serif" font-size="14" font-style="italic" lengthAdjust="spacing" textLength="216" x="554" y="42.0234">«1inch v4: Aggregation Router»</text><text fill="#000000" font-family="sans-serif" font-size="14" font-style="italic" lengthAdjust="spacing" textLength="164" x="580" y="58.5117">«AggregationRouterV4»</text><text fill="#000000" font-family="sans-serif" font-size="14" lengthAdjust="spacing" textLength="98" x="613" y="75">0x1111..097d</text><rect fill="#E2E2F0" height="63.4648" rx="2.5" ry="2.5" style="stroke:#181818;stroke-width:0.5;" width="230" x="547" y="2515.5977"/><text fill="#000000" font-family="sans-serif" font-size="14" font-style="italic" lengthAdjust="spacing" textLength="216" x="554" y="2536.1328">«1inch v4: Aggregation Router»</text><text fill="#000000" font-family="sans-serif" font-size="14" font-style="italic" lengthAdjust="spacing" textLength="164" x="580" y="2552.6211">«AggregationRouterV4»</text><text fill="#000000" font-family="sans-serif" font-size="14" lengthAdjust="spacing" textLength="98" x="613" y="2569.1094">0x1111..097d</text><rect fill="#E2E2F0" height="79.9531" rx="2.5" ry="2.5" style="stroke:#181818;stroke-width:0.5;" width="135" x="787" y="5"/><text fill="#000000" font-family="sans-serif" font-size="14" font-style="italic" lengthAdjust="spacing" textLength="78" x="815.5" y="25.5352">«USD Coin»</text><text fill="#000000" font-family="sans-serif" font-size="14" font-style="italic" lengthAdjust="spacing" textLength="62" x="823.5" y="42.0234">«(USDC)»</text><text fill="#000000" font-family="sans-serif" font-size="14" font-style="italic" lengthAdjust="spacing" textLength="121" x="794" y="58.5117">«FiatTokenProxy»</text><text fill="#000000" font-family="sans-serif" font-size="14" lengthAdjust="spacing" textLength="96" x="806.5" y="75">0xa0b8..eb48</text><rect fill="#E2E2F0" height="79.9531" rx="2.5" ry="2.5" style="stroke:#181818;stroke-width:0.5;" width="135" x="787" y="2515.5977"/><text fill="#000000" font-family="sans-serif" font-size="14" font-style="italic" lengthAdjust="spacing" textLength="78" x="815.5" y="2536.1328">«USD Coin»</text><text fill="#000000" font-family="sans-serif" font-size="14" font-style="italic" lengthAdjust="spacing" textLength="62" x="823.5" y="2552.6211">«(USDC)»</text><text fill="#000000" font-family="sans-serif" font-size="14" font-style="italic" lengthAdjust="spacing" textLength="121" x="794" y="2569.1094">«FiatTokenProxy»</text><text fill="#000000" font-family="sans-serif" font-size="14" lengthAdjust="spacing" textLength="96" x="806.5" y="2585.5977">0xa0b8..eb48</text><rect fill="#E2E2F0" height="46.9766" rx="2.5" ry="2.5" style="stroke:#181818;stroke-width:0.5;" width="130" x="966.5" y="37.9766"/><text fill="#000000" font-family="sans-serif" font-size="14" font-style="italic" lengthAdjust="spacing" textLength="116" x="973.5" y="58.5117">«FiatTokenV2_1»</text><text fill="#000000" font-family="sans-serif" font-size="14" lengthAdjust="spacing" textLength="91" x="986" y="75">0xa232..bdcf</text><rect fill="#E2E2F0" height="46.9766" rx="2.5" ry="2.5" style="stroke:#181818;stroke-width:0.5;" width="130" x="966.5" y="2515.5977"/><text fill="#000000" font-family="sans-serif" font-size="14" font-style="italic" lengthAdjust="spacing" textLength="116" x="973.5" y="2536.1328">«FiatTokenV2_1»</text><text fill="#000000" font-family="sans-serif" font-size="14" lengthAdjust="spacing" textLength="91" x="986" y="2552.6211">0xa232..bdcf</text><rect fill="#E2E2F0" height="79.9531" rx="2.5" ry="2.5" style="stroke:#181818;stroke-width:0.5;" width="142" x="1108.5" y="5"/><text fill="#000000" font-family="sans-serif" font-size="14" font-style="italic" lengthAdjust="spacing" textLength="115" x="1122" y="25.5352">«CRO Defi Swap»</text><text fill="#000000" font-family="sans-serif" font-size="14" font-style="italic" lengthAdjust="spacing" textLength="100" x="1129.5" y="42.0234">«(CRO-SWAP)»</text><text fill="#000000" font-family="sans-serif" font-size="14" font-style="italic" lengthAdjust="spacing" textLength="128" x="1115.5" y="58.5117">«CroDefiSwapPair»</text><text fill="#000000" font-family="sans-serif" font-size="14" lengthAdjust="spacing" textLength="91" x="1134" y="75">0x3aa3..7e0f</text><rect fill="#E2E2F0" height="79.9531" rx="2.5" ry="2.5" style="stroke:#181818;stroke-width:0.5;" width="142" x="1108.5" y="2515.5977"/><text fill="#000000" font-family="sans-serif" font-size="14" font-style="italic" lengthAdjust="spacing" textLength="115" x="1122" y="2536.1328">«CRO Defi Swap»</text><text fill="#000000" font-family="sans-serif" font-size="14" font-style="italic" lengthAdjust="spacing" textLength="100" x="1129.5" y="2552.6211">«(CRO-SWAP)»</text><text fill="#000000" font-family="sans-serif" font-size="14" font-style="italic" lengthAdjust="spacing" textLength="128" x="1115.5" y="2569.1094">«CroDefiSwapPair»</text><text fill="#000000" font-family="sans-serif" font-size="14" lengthAdjust="spacing" textLength="91" x="1134" y="2585.5977">0x3aa3..7e0f</text><rect fill="#E2E2F0" height="46.9766" rx="2.5" ry="2.5" style="stroke:#181818;stroke-width:0.5;" width="166" x="1260.5" y="37.9766"/><text fill="#000000" font-family="sans-serif" font-size="14" font-style="italic" lengthAdjust="spacing" textLength="152" x="1267.5" y="58.5117">«CroDefiSwapFactory»</text><text fill="#000000" font-family="sans-serif" font-size="14" lengthAdjust="spacing" textLength="96" x="1295.5" y="75">0x9deb..9a9d</text><rect fill="#E2E2F0" height="46.9766" rx="2.5" ry="2.5" style="stroke:#181818;stroke-width:0.5;" width="166" x="1260.5" y="2515.5977"/><text fill="#000000" font-family="sans-serif" font-size="14" font-style="italic" lengthAdjust="spacing" textLength="152" x="1267.5" y="2536.1328">«CroDefiSwapFactory»</text><text fill="#000000" font-family="sans-serif" font-size="14" lengthAdjust="spacing" textLength="96" x="1295.5" y="2552.6211">0x9deb..9a9d</text><rect fill="#FFFFFF" height="14" style="stroke:#181818;stroke-width:1.0;" width="10" x="246.5" y="299.3691"/><rect fill="#FFFFFF" height="44.6211" style="stroke:#181818;stroke-width:1.0;" width="10" x="246.5" y="1388.0703"/><rect fill="#FFFFFF" height="44.6211" style="stroke:#181818;stroke-width:1.0;" width="10" x="246.5" y="1752.3496"/><rect fill="#FFFFFF" height="161.8633" style="stroke:#181818;stroke-width:1.0;" width="10" x="246.5" y="2010.7656"/><rect fill="#FFFFFF" height="14" style="stroke:#181818;stroke-width:1.0;" width="10" x="376" y="2130.6289"/><rect fill="#FFFFFF" height="1501.7383" style="stroke:#181818;stroke-width:1.0;" width="10" x="657" y="766.1328"/><rect fill="#FFFFFF" height="87.9316" style="stroke:#181818;stroke-width:1.0;" width="10" x="662" y="2070.6973"/><rect fill="#FFFFFF" height="179.7949" style="stroke:#181818;stroke-width:1.0;" width="10" x="849.5" y="856.6855"/><rect fill="#FFFFFF" height="149.1738" style="stroke:#181818;stroke-width:1.0;" width="10" x="849.5" y="1492.623"/><rect fill="#809ECB" height="44.6211" style="stroke:#181818;stroke-width:1.0;" width="10" x="1026.5" y="947.2383"/><rect fill="#809ECB" height="44.6211" style="stroke:#181818;stroke-width:1.0;" width="10" x="1026.5" y="1552.5547"/><rect fill="#FFFFFF" height="75.2422" style="stroke:#181818;stroke-width:1.0;" width="10" x="1174.5" y="1131.7227"/><rect fill="#FFFFFF" height="587.3848" style="stroke:#181818;stroke-width:1.0;" width="10" x="1174.5" y="1312.8281"/><rect fill="#FFFFFF" height="44.6211" style="stroke:#181818;stroke-width:1.0;" width="10" x="1338.5" y="1841.5918"/><path d="M9,102.9531 L622,102.9531 L622,110.2637 L612,120.2637 L9,120.2637 L9,102.9531 " fill="#EEEEEE" style="stroke:#000000;stroke-width:1.5;"/><rect fill="none" height="391.5215" style="stroke:#000000;stroke-width:1.5;" width="1323" x="9" y="102.9531"/><text fill="#000000" font-family="sans-serif" font-size="13" font-weight="bold" lengthAdjust="spacing" textLength="568" x="24" y="116.5215">0x883e76ca9590e6cf37138548f04b5c3317e0e8d62c44665d2083cbee70152bd1</text><path d="M19,125.2637 L19,242.2637 L231,242.2637 L231,135.2637 L221,125.2637 L19,125.2637 " fill="#FEFFDD" style="stroke:#181818;stroke-width:0.5;"/><path d="M221,125.2637 L221,135.2637 L231,135.2637 L221,125.2637 " fill="#FEFFDD" style="stroke:#181818;stroke-width:0.5;"/><text fill="#000000" font-family="sans-serif" font-size="13" lengthAdjust="spacing" textLength="72" x="25" y="142.832">Nonce: 933</text><text fill="#000000" font-family="sans-serif" font-size="13" lengthAdjust="spacing" textLength="191" x="25" y="158.1426">Gas Price: 17.522143157 Gwei</text><text fill="#000000" font-family="sans-serif" font-size="13" lengthAdjust="spacing" textLength="185" x="25" y="173.4531">Max Fee: 23.857253392 Gwei</text><text fill="#000000" font-family="sans-serif" font-size="13" lengthAdjust="spacing" textLength="137" x="25" y="188.7637">Max Priority: 0.5 Gwei</text><text fill="#000000" font-family="sans-serif" font-size="13" lengthAdjust="spacing" textLength="111" x="25" y="204.0742">Gas Limit: 27,938</text><text fill="#000000" font-family="sans-serif" font-size="13" lengthAdjust="spacing" textLength="110" x="25" y="219.3848">Gas Used: 27,938</text><text fill="#000000" font-family="sans-serif" font-size="13" lengthAdjust="spacing" textLength="86" x="25" y="234.6953">Tx Fee: 0 ETH</text><polygon fill="#181818" points="234.5,295.3691,244.5,299.3691,234.5,303.3691,238.5,299.3691" style="stroke:#181818;stroke-width:1.0;"/><line style="stroke:#181818;stroke-width:1.0;" x1="125.5" x2="240.5" y1="299.3691" y2="299.3691"/><text fill="#000000" font-family="sans-serif" font-size="13" lengthAdjust="spacing" textLength="55" x="132.5" y="264.0059">deposit()</text><text fill="#000000" font-family="sans-serif" font-size="13" lengthAdjust="spacing" textLength="70" x="132.5" y="279.3164">27,938 gas</text><text fill="#000000" font-family="sans-serif" font-size="13" lengthAdjust="spacing" textLength="57" x="132.5" y="294.627">0.03 ETH</text><polygon fill="#181818" points="136.5,309.3691,126.5,313.3691,136.5,317.3691,132.5,313.3691" style="stroke:#181818;stroke-width:1.0;"/><line style="stroke:#181818;stroke-width:1.0;stroke-dasharray:2.0,2.0;" x1="130.5" x2="250.5" y1="313.3691" y2="313.3691"/><path d="M142,326.3691 L142,489.3691 L360,489.3691 L360,336.3691 L350,326.3691 L142,326.3691 " fill="#00FFFF" style="stroke:#181818;stroke-width:0.5;"/><path d="M350,326.3691 L350,336.3691 L360,336.3691 L350,326.3691 " fill="#00FFFF" style="stroke:#181818;stroke-width:0.5;"/><text fill="#000000" font-family="sans-serif" font-size="13" lengthAdjust="spacing" textLength="53" x="148" y="343.9375">Deposit:</text><text fill="#000000" font-family="sans-serif" font-size="13" lengthAdjust="spacing" textLength="123" x="156" y="359.248">dst: 0x9AdD..3745,</text><text fill="#000000" font-family="sans-serif" font-size="13" lengthAdjust="spacing" textLength="189" x="156" y="374.5586">wad: 30,000,000,000,000,000</text><text fill="#000000" font-family="sans-serif" font-size="13" lengthAdjust="spacing" textLength="56" x="148" y="389.8691">Transfer:</text><text fill="#000000" font-family="sans-serif" font-size="13" lengthAdjust="spacing" textLength="117" x="156" y="405.1797">src: 0x3Aa3..7e0F,</text><text fill="#000000" font-family="sans-serif" font-size="13" lengthAdjust="spacing" textLength="120" x="156" y="420.4902">dst: 0x1111..097d,</text><text fill="#000000" font-family="sans-serif" font-size="13" lengthAdjust="spacing" textLength="189" x="156" y="435.8008">wad: 30,976,485,805,895,783</text><text fill="#000000" font-family="sans-serif" font-size="13" lengthAdjust="spacing" textLength="73" x="148" y="451.1113">Withdrawal:</text><text fill="#000000" font-family="sans-serif" font-size="13" lengthAdjust="spacing" textLength="119" x="156" y="466.4219">src: 0x1111..097d,</text><text fill="#000000" font-family="sans-serif" font-size="13" lengthAdjust="spacing" textLength="189" x="156" y="481.7324">wad: 30,976,485,805,895,783</text><path d="M776,326.3691 L776,397.3691 L932,397.3691 L932,336.3691 L922,326.3691 L776,326.3691 " fill="#00FFFF" style="stroke:#181818;stroke-width:0.5;"/><path d="M922,326.3691 L922,336.3691 L932,336.3691 L922,326.3691 " fill="#00FFFF" style="stroke:#181818;stroke-width:0.5;"/><text fill="#000000" font-family="sans-serif" font-size="13" lengthAdjust="spacing" textLength="56" x="782" y="343.9375">Transfer:</text><text fill="#000000" font-family="sans-serif" font-size="13" lengthAdjust="spacing" textLength="127" x="790" y="359.248">from: 0x6470..3BEe,</text><text fill="#000000" font-family="sans-serif" font-size="13" lengthAdjust="spacing" textLength="111" x="790" y="374.5586">to: 0x3Aa3..7e0F,</text><text fill="#000000" font-family="sans-serif" font-size="13" lengthAdjust="spacing" textLength="113" x="790" y="389.8691">value: 50,000,000</text><path d="M1036,326.3691 L1036,489.3691 L1322,489.3691 L1322,336.3691 L1312,326.3691 L1036,326.3691 " fill="#00FFFF" style="stroke:#181818;stroke-width:0.5;"/><path d="M1312,326.3691 L1312,336.3691 L1322,336.3691 L1312,326.3691 " fill="#00FFFF" style="stroke:#181818;stroke-width:0.5;"/><text fill="#000000" font-family="sans-serif" font-size="13" lengthAdjust="spacing" textLength="33" x="1042" y="343.9375">Sync:</text><text fill="#000000" font-family="sans-serif" font-size="13" lengthAdjust="spacing" textLength="173" x="1050" y="359.248">reserve0: 260,822,782,721,</text><text fill="#000000" font-family="sans-serif" font-size="13" lengthAdjust="spacing" textLength="257" x="1050" y="374.5586">reserve1: 162,,042,615,898,114,378,703</text><text fill="#000000" font-family="sans-serif" font-size="13" lengthAdjust="spacing" textLength="36" x="1042" y="389.8691">Swap:</text><text fill="#000000" font-family="sans-serif" font-size="13" lengthAdjust="spacing" textLength="142" x="1050" y="405.1797">sender: 0x1111..097d,</text><text fill="#000000" font-family="sans-serif" font-size="13" lengthAdjust="spacing" textLength="152" x="1050" y="420.4902">amount0In: 50,000,000,</text><text fill="#000000" font-family="sans-serif" font-size="13" lengthAdjust="spacing" textLength="88" x="1050" y="435.8008">amount1In: 0,</text><text fill="#000000" font-family="sans-serif" font-size="13" lengthAdjust="spacing" textLength="99" x="1050" y="451.1113">amount0Out: 0,</text><text fill="#000000" font-family="sans-serif" font-size="13" lengthAdjust="spacing" textLength="247" x="1050" y="466.4219">amount1Out: 30,976,485,805,895,783,</text><text fill="#000000" font-family="sans-serif" font-size="13" lengthAdjust="spacing" textLength="109" x="1050" y="481.7324">to: 0x1111..097d</text><path d="M132,508.4746 L737,508.4746 L737,515.7852 L727,525.7852 L132,525.7852 L132,508.4746 " fill="#EEEEEE" style="stroke:#000000;stroke-width:1.5;"/><rect fill="none" height="1991.123" style="stroke:#000000;stroke-width:1.5;" width="1304.5" x="132" y="508.4746"/><text fill="#000000" font-family="sans-serif" font-size="13" font-weight="bold" lengthAdjust="spacing" textLength="560" x="147" y="522.043">0x13142a10fe690b3e4c10708a68037e795fb85e048d70ccf15c639efb339e2e43</text><path d="M270,530.7852 L270,647.7852 L492,647.7852 L492,540.7852 L482,530.7852 L270,530.7852 " fill="#FEFFDD" style="stroke:#181818;stroke-width:0.5;"/><path d="M482,530.7852 L482,540.7852 L492,540.7852 L482,530.7852 " fill="#FEFFDD" style="stroke:#181818;stroke-width:0.5;"/><text fill="#000000" font-family="sans-serif" font-size="13" lengthAdjust="spacing" textLength="64" x="276" y="548.3535">Nonce: 41</text><text fill="#000000" font-family="sans-serif" font-size="13" lengthAdjust="spacing" textLength="191" x="276" y="563.6641">Gas Price: 16.543990906 Gwei</text><text fill="#000000" font-family="sans-serif" font-size="13" lengthAdjust="spacing" textLength="185" x="276" y="578.9746">Max Fee: 22.329608758 Gwei</text><text fill="#000000" font-family="sans-serif" font-size="13" lengthAdjust="spacing" textLength="201" x="276" y="594.2852">Max Priority: 0.090965649 Gwei</text><text fill="#000000" font-family="sans-serif" font-size="13" lengthAdjust="spacing" textLength="119" x="276" y="609.5957">Gas Limit: 237,241</text><text fill="#000000" font-family="sans-serif" font-size="13" lengthAdjust="spacing" textLength="118" x="276" y="624.9063">Gas Used: 133,323</text><text fill="#000000" font-family="sans-serif" font-size="13" lengthAdjust="spacing" textLength="114" x="276" y="640.2168">Tx Fee: 0.002 ETH</text><polygon fill="#181818" points="645,762.1328,655,766.1328,645,770.1328,649,766.1328" style="stroke:#181818;stroke-width:1.0;"/><line style="stroke:#181818;stroke-width:1.0;" x1="381" x2="651" y1="766.1328" y2="766.1328"/><text fill="#000000" font-family="sans-serif" font-size="13" lengthAdjust="spacing" textLength="60" x="388" y="669.5273">unoswap(</text><text fill="#000000" font-family="sans-serif" font-size="13" lengthAdjust="spacing" textLength="157" x="388" y="684.8379">srcToken: 0xA0b8..eB48,</text><text fill="#000000" font-family="sans-serif" font-size="13" lengthAdjust="spacing" textLength="132" x="388" y="700.1484">amount: 50,000,000,</text><text fill="#000000" font-family="sans-serif" font-size="13" lengthAdjust="spacing" textLength="233" x="388" y="715.459">minReturn: 30,356,956,089,777,867,</text><text fill="#000000" font-family="sans-serif" font-size="13" lengthAdjust="spacing" textLength="47" x="388" y="730.7695">pools: [</text><text fill="#000000" font-family="sans-serif" font-size="13" lengthAdjust="spacing" textLength="171" x="396" y="746.0801">0: 0x40000000..d73c7e0f])</text><text fill="#000000" font-family="sans-serif" font-size="13" lengthAdjust="spacing" textLength="78" x="388" y="761.3906">133,323 gas</text><polygon fill="#181818" points="837.5,852.6855,847.5,856.6855,837.5,860.6855,841.5,856.6855" style="stroke:#181818;stroke-width:1.0;"/><line style="stroke:#181818;stroke-width:1.0;stroke-dasharray:2.0,2.0;" x1="667" x2="843.5" y1="856.6855" y2="856.6855"/><text fill="#000000" font-family="sans-serif" font-size="13" lengthAdjust="spacing" textLength="85" x="674" y="790.7012">transferFrom(</text><text fill="#000000" font-family="sans-serif" font-size="13" lengthAdjust="spacing" textLength="116" x="674" y="806.0117">src: 0x6470..3BEe,</text><text fill="#000000" font-family="sans-serif" font-size="13" lengthAdjust="spacing" textLength="118" x="674" y="821.3223">dst: 0x3Aa3..7e0F,</text><text fill="#000000" font-family="sans-serif" font-size="13" lengthAdjust="spacing" textLength="109" x="674" y="836.6328">wad: 50,000,000)</text><text fill="#000000" font-family="sans-serif" font-size="13" lengthAdjust="spacing" textLength="70" x="674" y="851.9434">34,892 gas</text><line style="stroke:#181818;stroke-width:1.0;" x1="1024.5" x2="1014.5" y1="947.2383" y2="943.2383"/><line style="stroke:#181818;stroke-width:1.0;" x1="1024.5" x2="1014.5" y1="947.2383" y2="951.2383"/><line style="stroke:#181818;stroke-width:1.0;" x1="859.5" x2="1025.5" y1="947.2383" y2="947.2383"/><text fill="#000000" font-family="sans-serif" font-size="13" lengthAdjust="spacing" textLength="85" x="866.5" y="881.2539">transferFrom(</text><text fill="#000000" font-family="sans-serif" font-size="13" lengthAdjust="spacing" textLength="127" x="866.5" y="896.5645">from: 0x6470..3BEe,</text><text fill="#000000" font-family="sans-serif" font-size="13" lengthAdjust="spacing" textLength="111" x="866.5" y="911.875">to: 0x3Aa3..7e0F,</text><text fill="#000000" font-family="sans-serif" font-size="13" lengthAdjust="spacing" textLength="117" x="866.5" y="927.1855">value: 50,000,000)</text><text fill="#000000" font-family="sans-serif" font-size="13" lengthAdjust="spacing" textLength="70" x="866.5" y="942.4961">27,597 gas</text><line style="stroke:#181818;stroke-width:1.0;" x1="860.5" x2="870.5" y1="991.8594" y2="987.8594"/><line style="stroke:#181818;stroke-width:1.0;" x1="860.5" x2="870.5" y1="991.8594" y2="995.8594"/><line style="stroke:#181818;stroke-width:1.0;stroke-dasharray:2.0,2.0;" x1="859.5" x2="1030.5" y1="991.8594" y2="991.8594"/><text fill="#000000" font-family="sans-serif" font-size="13" lengthAdjust="spacing" textLength="4" x="876.5" y="971.8066"> </text><text fill="#000000" font-family="sans-serif" font-size="13" lengthAdjust="spacing" textLength="25" x="876.5" y="987.1172">true</text><polygon fill="#181818" points="678,1032.4805,668,1036.4805,678,1040.4805,674,1036.4805" style="stroke:#181818;stroke-width:1.0;"/><line style="stroke:#181818;stroke-width:1.0;stroke-dasharray:2.0,2.0;" x1="672" x2="853.5" y1="1036.4805" y2="1036.4805"/><text fill="#000000" font-family="sans-serif" font-size="13" lengthAdjust="spacing" textLength="4" x="684" y="1016.4277"> </text><text fill="#000000" font-family="sans-serif" font-size="13" lengthAdjust="spacing" textLength="25" x="684" y="1031.7383">true</text><path d="M859,1049.4805 L859,1089.4805 L942,1089.4805 L942,1059.4805 L932,1049.4805 L859,1049.4805 " fill="#FEFFDD" style="stroke:#181818;stroke-width:0.5;"/><path d="M932,1049.4805 L932,1059.4805 L942,1059.4805 L932,1049.4805 " fill="#FEFFDD" style="stroke:#181818;stroke-width:0.5;"/><text fill="#000000" font-family="sans-serif" font-size="13" lengthAdjust="spacing" textLength="4" x="865" y="1067.0488"> </text><text fill="#000000" font-family="sans-serif" font-size="13" lengthAdjust="spacing" textLength="62" x="865" y="1082.3594">7,295 gas</text><polygon fill="#181818" points="1162.5,1127.7227,1172.5,1131.7227,1162.5,1135.7227,1166.5,1131.7227" style="stroke:#181818;stroke-width:1.0;"/><line style="stroke:#181818;stroke-width:1.0;" x1="667" x2="1168.5" y1="1131.7227" y2="1131.7227"/><text fill="#000000" font-family="sans-serif" font-size="13" lengthAdjust="spacing" textLength="83" x="674" y="1111.6699">getReserves()</text><text fill="#000000" font-family="sans-serif" font-size="13" lengthAdjust="spacing" textLength="62" x="674" y="1126.9805">2,504 gas</text><polygon fill="#181818" points="678,1202.9648,668,1206.9648,678,1210.9648,674,1206.9648" style="stroke:#181818;stroke-width:1.0;"/><line style="stroke:#181818;stroke-width:1.0;stroke-dasharray:2.0,2.0;" x1="672" x2="1178.5" y1="1206.9648" y2="1206.9648"/><text fill="#000000" font-family="sans-serif" font-size="13" lengthAdjust="spacing" textLength="4" x="684" y="1156.291"> </text><text fill="#000000" font-family="sans-serif" font-size="13" lengthAdjust="spacing" textLength="180" x="684" y="1171.6016">_reserve0: 260,772,782,721,</text><text fill="#000000" font-family="sans-serif" font-size="13" lengthAdjust="spacing" textLength="268" x="684" y="1186.9121">_reserve1: 162,,073,592,383,920,274,486,</text><text fill="#000000" font-family="sans-serif" font-size="13" lengthAdjust="spacing" textLength="238" x="684" y="1202.2227">_blockTimestampLast: 1,677,634,703</text><polygon fill="#181818" points="1162.5,1308.8281,1172.5,1312.8281,1162.5,1316.8281,1166.5,1312.8281" style="stroke:#181818;stroke-width:1.0;"/><line style="stroke:#181818;stroke-width:1.0;" x1="667" x2="1168.5" y1="1312.8281" y2="1312.8281"/><text fill="#000000" font-family="sans-serif" font-size="13" lengthAdjust="spacing" textLength="36" x="674" y="1231.5332">swap(</text><text fill="#000000" font-family="sans-serif" font-size="13" lengthAdjust="spacing" textLength="99" x="674" y="1246.8438">amount0Out: 0,</text><text fill="#000000" font-family="sans-serif" font-size="13" lengthAdjust="spacing" textLength="247" x="674" y="1262.1543">amount1Out: 30,976,485,805,895,783,</text><text fill="#000000" font-family="sans-serif" font-size="13" lengthAdjust="spacing" textLength="113" x="674" y="1277.4648">to: 0x1111..097d,</text><text fill="#000000" font-family="sans-serif" font-size="13" lengthAdjust="spacing" textLength="55" x="674" y="1292.7754">data: 0x)</text><text fill="#000000" font-family="sans-serif" font-size="13" lengthAdjust="spacing" textLength="70" x="674" y="1308.0859">73,056 gas</text><polygon fill="#181818" points="267.5,1384.0703,257.5,1388.0703,267.5,1392.0703,263.5,1388.0703" style="stroke:#181818;stroke-width:1.0;"/><line style="stroke:#181818;stroke-width:1.0;" x1="261.5" x2="1173.5" y1="1388.0703" y2="1388.0703"/><text fill="#000000" font-family="sans-serif" font-size="13" lengthAdjust="spacing" textLength="53" x="273.5" y="1337.3965">transfer(</text><text fill="#000000" font-family="sans-serif" font-size="13" lengthAdjust="spacing" textLength="120" x="273.5" y="1352.707">dst: 0x1111..097d,</text><text fill="#000000" font-family="sans-serif" font-size="13" lengthAdjust="spacing" textLength="193" x="273.5" y="1368.0176">wad: 30,976,485,805,895,783)</text><text fill="#000000" font-family="sans-serif" font-size="13" lengthAdjust="spacing" textLength="70" x="273.5" y="1383.3281">29,962 gas</text><polygon fill="#181818" points="1162.5,1428.6914,1172.5,1432.6914,1162.5,1436.6914,1166.5,1432.6914" style="stroke:#181818;stroke-width:1.0;"/><line style="stroke:#181818;stroke-width:1.0;stroke-dasharray:2.0,2.0;" x1="251.5" x2="1168.5" y1="1432.6914" y2="1432.6914"/><text fill="#000000" font-family="sans-serif" font-size="13" lengthAdjust="spacing" textLength="4" x="258.5" y="1412.6387"> </text><text fill="#000000" font-family="sans-serif" font-size="13" lengthAdjust="spacing" textLength="25" x="258.5" y="1427.9492">true</text><polygon fill="#181818" points="870.5,1488.623,860.5,1492.623,870.5,1496.623,866.5,1492.623" style="stroke:#181818;stroke-width:1.0;"/><line style="stroke:#181818;stroke-width:1.0;stroke-dasharray:2.0,2.0;" x1="864.5" x2="1173.5" y1="1492.623" y2="1492.623"/><text fill="#000000" font-family="sans-serif" font-size="13" lengthAdjust="spacing" textLength="67" x="876.5" y="1457.2598">balanceOf(</text><text fill="#000000" font-family="sans-serif" font-size="13" lengthAdjust="spacing" textLength="90" x="876.5" y="1472.5703">0x3Aa3..7e0F)</text><text fill="#000000" font-family="sans-serif" font-size="13" lengthAdjust="spacing" textLength="62" x="876.5" y="1487.8809">1,315 gas</text><line style="stroke:#181818;stroke-width:1.0;" x1="1024.5" x2="1014.5" y1="1552.5547" y2="1548.5547"/><line style="stroke:#181818;stroke-width:1.0;" x1="1024.5" x2="1014.5" y1="1552.5547" y2="1556.5547"/><line style="stroke:#181818;stroke-width:1.0;" x1="859.5" x2="1025.5" y1="1552.5547" y2="1552.5547"/><text fill="#000000" font-family="sans-serif" font-size="13" lengthAdjust="spacing" textLength="67" x="866.5" y="1517.1914">balanceOf(</text><text fill="#000000" font-family="sans-serif" font-size="13" lengthAdjust="spacing" textLength="148" x="866.5" y="1532.502">account: 0x3Aa3..7e0F)</text><text fill="#000000" font-family="sans-serif" font-size="13" lengthAdjust="spacing" textLength="50" x="866.5" y="1547.8125">529 gas</text><line style="stroke:#181818;stroke-width:1.0;" x1="860.5" x2="870.5" y1="1597.1758" y2="1593.1758"/><line style="stroke:#181818;stroke-width:1.0;" x1="860.5" x2="870.5" y1="1597.1758" y2="1601.1758"/><line style="stroke:#181818;stroke-width:1.0;stroke-dasharray:2.0,2.0;" x1="859.5" x2="1030.5" y1="1597.1758" y2="1597.1758"/><text fill="#000000" font-family="sans-serif" font-size="13" lengthAdjust="spacing" textLength="4" x="876.5" y="1577.123"> </text><text fill="#000000" font-family="sans-serif" font-size="13" lengthAdjust="spacing" textLength="108" x="876.5" y="1592.4336">260,822,782,721</text><polygon fill="#181818" points="1162.5,1637.7969,1172.5,1641.7969,1162.5,1645.7969,1166.5,1641.7969" style="stroke:#181818;stroke-width:1.0;"/><line style="stroke:#181818;stroke-width:1.0;stroke-dasharray:2.0,2.0;" x1="854.5" x2="1168.5" y1="1641.7969" y2="1641.7969"/><text fill="#000000" font-family="sans-serif" font-size="13" lengthAdjust="spacing" textLength="4" x="861.5" y="1621.7441"> </text><text fill="#000000" font-family="sans-serif" font-size="13" lengthAdjust="spacing" textLength="108" x="861.5" y="1637.0547">260,822,782,721</text><path d="M859,1654.7969 L859,1694.7969 L930,1694.7969 L930,1664.7969 L920,1654.7969 L859,1654.7969 " fill="#FEFFDD" style="stroke:#181818;stroke-width:0.5;"/><path d="M920,1654.7969 L920,1664.7969 L930,1664.7969 L920,1654.7969 " fill="#FEFFDD" style="stroke:#181818;stroke-width:0.5;"/><text fill="#000000" font-family="sans-serif" font-size="13" lengthAdjust="spacing" textLength="4" x="865" y="1672.3652"> </text><text fill="#000000" font-family="sans-serif" font-size="13" lengthAdjust="spacing" textLength="50" x="865" y="1687.6758">786 gas</text><polygon fill="#181818" points="267.5,1748.3496,257.5,1752.3496,267.5,1756.3496,263.5,1752.3496" style="stroke:#181818;stroke-width:1.0;"/><line style="stroke:#181818;stroke-width:1.0;" x1="261.5" x2="1173.5" y1="1752.3496" y2="1752.3496"/><text fill="#000000" font-family="sans-serif" font-size="13" lengthAdjust="spacing" textLength="67" x="273.5" y="1716.9863">balanceOf(</text><text fill="#000000" font-family="sans-serif" font-size="13" lengthAdjust="spacing" textLength="90" x="273.5" y="1732.2969">0x3Aa3..7e0F)</text><text fill="#000000" font-family="sans-serif" font-size="13" lengthAdjust="spacing" textLength="50" x="273.5" y="1747.6074">534 gas</text><polygon fill="#181818" points="1162.5,1792.9707,1172.5,1796.9707,1162.5,1800.9707,1166.5,1796.9707" style="stroke:#181818;stroke-width:1.0;"/><line style="stroke:#181818;stroke-width:1.0;stroke-dasharray:2.0,2.0;" x1="251.5" x2="1168.5" y1="1796.9707" y2="1796.9707"/><text fill="#000000" font-family="sans-serif" font-size="13" lengthAdjust="spacing" textLength="4" x="258.5" y="1776.918"> </text><text fill="#000000" font-family="sans-serif" font-size="13" lengthAdjust="spacing" textLength="196" x="258.5" y="1792.2285">162,,042,615,898,114,378,703</text><polygon fill="#181818" points="1326.5,1837.5918,1336.5,1841.5918,1326.5,1845.5918,1330.5,1841.5918" style="stroke:#181818;stroke-width:1.0;"/><line style="stroke:#181818;stroke-width:1.0;" x1="1184.5" x2="1332.5" y1="1841.5918" y2="1841.5918"/><text fill="#000000" font-family="sans-serif" font-size="13" lengthAdjust="spacing" textLength="122" x="1191.5" y="1821.5391">totalFeeBasisPoint()</text><text fill="#000000" font-family="sans-serif" font-size="13" lengthAdjust="spacing" textLength="62" x="1191.5" y="1836.8496">2,342 gas</text><polygon fill="#181818" points="1195.5,1882.2129,1185.5,1886.2129,1195.5,1890.2129,1191.5,1886.2129" style="stroke:#181818;stroke-width:1.0;"/><line style="stroke:#181818;stroke-width:1.0;stroke-dasharray:2.0,2.0;" x1="1189.5" x2="1342.5" y1="1886.2129" y2="1886.2129"/><text fill="#000000" font-family="sans-serif" font-size="13" lengthAdjust="spacing" textLength="4" x="1201.5" y="1866.1602"> </text><text fill="#000000" font-family="sans-serif" font-size="13" lengthAdjust="spacing" textLength="16" x="1201.5" y="1881.4707">30</text><polygon fill="#181818" points="678,1896.2129,668,1900.2129,678,1904.2129,674,1900.2129" style="stroke:#181818;stroke-width:1.0;"/><line style="stroke:#181818;stroke-width:1.0;stroke-dasharray:2.0,2.0;" x1="672" x2="1178.5" y1="1900.2129" y2="1900.2129"/><path d="M1184,1913.2129 L1184,1953.2129 L1275,1953.2129 L1275,1923.2129 L1265,1913.2129 L1184,1913.2129 " fill="#FEFFDD" style="stroke:#181818;stroke-width:0.5;"/><path d="M1265,1913.2129 L1265,1923.2129 L1275,1923.2129 L1265,1913.2129 " fill="#FEFFDD" style="stroke:#181818;stroke-width:0.5;"/><text fill="#000000" font-family="sans-serif" font-size="13" lengthAdjust="spacing" textLength="4" x="1190" y="1930.7813"> </text><text fill="#000000" font-family="sans-serif" font-size="13" lengthAdjust="spacing" textLength="70" x="1190" y="1946.0918">38,903 gas</text><polygon fill="#181818" points="267.5,2006.7656,257.5,2010.7656,267.5,2014.7656,263.5,2010.7656" style="stroke:#181818;stroke-width:1.0;"/><line style="stroke:#181818;stroke-width:1.0;" x1="261.5" x2="656" y1="2010.7656" y2="2010.7656"/><text fill="#000000" font-family="sans-serif" font-size="13" lengthAdjust="spacing" textLength="61" x="273.5" y="1975.4023">withdraw(</text><text fill="#000000" font-family="sans-serif" font-size="13" lengthAdjust="spacing" textLength="193" x="273.5" y="1990.7129">wad: 30,976,485,805,895,783)</text><text fill="#000000" font-family="sans-serif" font-size="13" lengthAdjust="spacing" textLength="62" x="273.5" y="2006.0234">9,219 gas</text><polygon fill="#181818" points="650,2066.6973,660,2070.6973,650,2074.6973,654,2070.6973" style="stroke:#181818;stroke-width:1.0;"/><line style="stroke:#181818;stroke-width:1.0;" x1="256.5" x2="656" y1="2070.6973" y2="2070.6973"/><text fill="#000000" font-family="sans-serif" font-size="13" lengthAdjust="spacing" textLength="58" x="263.5" y="2035.334">fallback()</text><text fill="#000000" font-family="sans-serif" font-size="13" lengthAdjust="spacing" textLength="42" x="263.5" y="2050.6445">79 gas</text><text fill="#000000" font-family="sans-serif" font-size="13" lengthAdjust="spacing" textLength="65" x="263.5" y="2065.9551">0.031 ETH</text><polygon fill="#181818" points="397,2126.6289,387,2130.6289,397,2134.6289,393,2130.6289" style="stroke:#181818;stroke-width:1.0;"/><line style="stroke:#181818;stroke-width:1.0;" x1="391" x2="661" y1="2130.6289" y2="2130.6289"/><text fill="#000000" font-family="sans-serif" font-size="13" lengthAdjust="spacing" textLength="58" x="403" y="2095.2656">fallback()</text><text fill="#000000" font-family="sans-serif" font-size="13" lengthAdjust="spacing" textLength="34" x="403" y="2110.5762">0 gas</text><text fill="#000000" font-family="sans-serif" font-size="13" lengthAdjust="spacing" textLength="65" x="403" y="2125.8867">0.031 ETH</text><polygon fill="#181818" points="650,2140.6289,660,2144.6289,650,2148.6289,654,2144.6289" style="stroke:#181818;stroke-width:1.0;"/><line style="stroke:#181818;stroke-width:1.0;stroke-dasharray:2.0,2.0;" x1="381" x2="656" y1="2144.6289" y2="2144.6289"/><polygon fill="#181818" points="267.5,2154.6289,257.5,2158.6289,267.5,2162.6289,263.5,2158.6289" style="stroke:#181818;stroke-width:1.0;"/><line style="stroke:#181818;stroke-width:1.0;stroke-dasharray:2.0,2.0;" x1="261.5" x2="656" y1="2158.6289" y2="2158.6289"/><polygon fill="#181818" points="645,2168.6289,655,2172.6289,645,2176.6289,649,2172.6289" style="stroke:#181818;stroke-width:1.0;"/><line style="stroke:#181818;stroke-width:1.0;stroke-dasharray:2.0,2.0;" x1="251.5" x2="651" y1="2172.6289" y2="2172.6289"/><path d="M256,2185.6289 L256,2225.6289 L339,2225.6289 L339,2195.6289 L329,2185.6289 L256,2185.6289 " fill="#FEFFDD" style="stroke:#181818;stroke-width:0.5;"/><path d="M329,2185.6289 L329,2195.6289 L339,2195.6289 L329,2185.6289 " fill="#FEFFDD" style="stroke:#181818;stroke-width:0.5;"/><text fill="#000000" font-family="sans-serif" font-size="13" lengthAdjust="spacing" textLength="4" x="262" y="2203.1973"> </text><text fill="#000000" font-family="sans-serif" font-size="13" lengthAdjust="spacing" textLength="62" x="262" y="2218.5078">9,140 gas</text><polygon fill="#181818" points="392,2263.8711,382,2267.8711,392,2271.8711,388,2267.8711" style="stroke:#181818;stroke-width:1.0;"/><line style="stroke:#181818;stroke-width:1.0;stroke-dasharray:2.0,2.0;" x1="386" x2="661" y1="2267.8711" y2="2267.8711"/><text fill="#000000" font-family="sans-serif" font-size="13" lengthAdjust="spacing" textLength="4" x="398" y="2247.8184"> </text><text fill="#000000" font-family="sans-serif" font-size="13" lengthAdjust="spacing" textLength="252" x="398" y="2263.1289">returnAmount: 30,976,485,805,895,783</text><path d="M667,2280.8711 L667,2320.8711 L758,2320.8711 L758,2290.8711 L748,2280.8711 L667,2280.8711 " fill="#FEFFDD" style="stroke:#181818;stroke-width:0.5;"/><path d="M748,2280.8711 L748,2290.8711 L758,2290.8711 L748,2280.8711 " fill="#FEFFDD" style="stroke:#181818;stroke-width:0.5;"/><text fill="#000000" font-family="sans-serif" font-size="13" lengthAdjust="spacing" textLength="4" x="673" y="2298.4395"> </text><text fill="#000000" font-family="sans-serif" font-size="13" lengthAdjust="spacing" textLength="70" x="673" y="2313.75">13,652 gas</text><path d="M142,2331.4922 L142,2494.4922 L360,2494.4922 L360,2341.4922 L350,2331.4922 L142,2331.4922 " fill="#00FFFF" style="stroke:#181818;stroke-width:0.5;"/><path d="M350,2331.4922 L350,2341.4922 L360,2341.4922 L350,2331.4922 " fill="#00FFFF" style="stroke:#181818;stroke-width:0.5;"/><text fill="#000000" font-family="sans-serif" font-size="13" lengthAdjust="spacing" textLength="53" x="148" y="2349.0605">Deposit:</text><text fill="#000000" font-family="sans-serif" font-size="13" lengthAdjust="spacing" textLength="123" x="156" y="2364.3711">dst: 0x9AdD..3745,</text><text fill="#000000" font-family="sans-serif" font-size="13" lengthAdjust="spacing" textLength="189" x="156" y="2379.6816">wad: 30,000,000,000,000,000</text><text fill="#000000" font-family="sans-serif" font-size="13" lengthAdjust="spacing" textLength="56" x="148" y="2394.9922">Transfer:</text><text fill="#000000" font-family="sans-serif" font-size="13" lengthAdjust="spacing" textLength="117" x="156" y="2410.3027">src: 0x3Aa3..7e0F,</text><text fill="#000000" font-family="sans-serif" font-size="13" lengthAdjust="spacing" textLength="120" x="156" y="2425.6133">dst: 0x1111..097d,</text><text fill="#000000" font-family="sans-serif" font-size="13" lengthAdjust="spacing" textLength="189" x="156" y="2440.9238">wad: 30,976,485,805,895,783</text><text fill="#000000" font-family="sans-serif" font-size="13" lengthAdjust="spacing" textLength="73" x="148" y="2456.2344">Withdrawal:</text><text fill="#000000" font-family="sans-serif" font-size="13" lengthAdjust="spacing" textLength="119" x="156" y="2471.5449">src: 0x1111..097d,</text><text fill="#000000" font-family="sans-serif" font-size="13" lengthAdjust="spacing" textLength="189" x="156" y="2486.8555">wad: 30,976,485,805,895,783</text><path d="M776,2331.4922 L776,2402.4922 L932,2402.4922 L932,2341.4922 L922,2331.4922 L776,2331.4922 " fill="#00FFFF" style="stroke:#181818;stroke-width:0.5;"/><path d="M922,2331.4922 L922,2341.4922 L932,2341.4922 L922,2331.4922 " fill="#00FFFF" style="stroke:#181818;stroke-width:0.5;"/><text fill="#000000" font-family="sans-serif" font-size="13" lengthAdjust="spacing" textLength="56" x="782" y="2349.0605">Transfer:</text><text fill="#000000" font-family="sans-serif" font-size="13" lengthAdjust="spacing" textLength="127" x="790" y="2364.3711">from: 0x6470..3BEe,</text><text fill="#000000" font-family="sans-serif" font-size="13" lengthAdjust="spacing" textLength="111" x="790" y="2379.6816">to: 0x3Aa3..7e0F,</text><text fill="#000000" font-family="sans-serif" font-size="13" lengthAdjust="spacing" textLength="113" x="790" y="2394.9922">value: 50,000,000</text><path d="M1036,2331.4922 L1036,2494.4922 L1322,2494.4922 L1322,2341.4922 L1312,2331.4922 L1036,2331.4922 " fill="#00FFFF" style="stroke:#181818;stroke-width:0.5;"/><path d="M1312,2331.4922 L1312,2341.4922 L1322,2341.4922 L1312,2331.4922 " fill="#00FFFF" style="stroke:#181818;stroke-width:0.5;"/><text fill="#000000" font-family="sans-serif" font-size="13" lengthAdjust="spacing" textLength="33" x="1042" y="2349.0605">Sync:</text><text fill="#000000" font-family="sans-serif" font-size="13" lengthAdjust="spacing" textLength="173" x="1050" y="2364.3711">reserve0: 260,822,782,721,</text><text fill="#000000" font-family="sans-serif" font-size="13" lengthAdjust="spacing" textLength="257" x="1050" y="2379.6816">reserve1: 162,,042,615,898,114,378,703</text><text fill="#000000" font-family="sans-serif" font-size="13" lengthAdjust="spacing" textLength="36" x="1042" y="2394.9922">Swap:</text><text fill="#000000" font-family="sans-serif" font-size="13" lengthAdjust="spacing" textLength="142" x="1050" y="2410.3027">sender: 0x1111..097d,</text><text fill="#000000" font-family="sans-serif" font-size="13" lengthAdjust="spacing" textLength="152" x="1050" y="2425.6133">amount0In: 50,000,000,</text><text fill="#000000" font-family="sans-serif" font-size="13" lengthAdjust="spacing" textLength="88" x="1050" y="2440.9238">amount1In: 0,</text><text fill="#000000" font-family="sans-serif" font-size="13" lengthAdjust="spacing" textLength="99" x="1050" y="2456.2344">amount0Out: 0,</text><text fill="#000000" font-family="sans-serif" font-size="13" lengthAdjust="spacing" textLength="247" x="1050" y="2471.5449">amount1Out: 30,976,485,805,895,783,</text><text fill="#000000" font-family="sans-serif" font-size="13" lengthAdjust="spacing" textLength="109" x="1050" y="2486.8555">to: 0x1111..097d</text><text fill="#888888" font-family="sans-serif" font-size="10" lengthAdjust="spacing" textLength="287" x="579.25" y="2607.2188">mainnet, block 16731720, Wed, 01 Mar 2023 05:33:35 GMT</text><text fill="#888888" font-family="sans-serif" font-size="10" lengthAdjust="spacing" textLength="287" x="579.25" y="2618.9961">mainnet, block 16730628, Wed, 01 Mar 2023 01:52:35 GMT</text><text fill="#888888" font-family="sans-serif" font-size="10" lengthAdjust="spacing" textLength="3" x="721.25" y="2630.7734"> </text><!--SRC=[xLPPRzj647xdhrWaBmwmPlVWNe8Xm6TQ86aCsuaVgY9OaKkRY4og56Kx_xwpf7X9ifC-z2q2275sEVTyCvCMHUNAuC5cUUugZEQB8lw6g5ISAaOmkdK9HeIYZxP4Z32EY9XmFk42lVzuiu-DIARtiT69O2rRuF8aRHJRk2fAz8Oy6viaOSXL9DuWkqAUz0GAbhQiiZXRshpotyM4sJ2KSSpgxppf2NHqT5lQvT8bwBowT-LqUdHqS7j-y_ix_-PVp7IwBKj6Ye3EkNErB4zwOaSdXLyO4gEI-ZjFUW9qqYoFxz5ZD477TtUbkxDLLkJegbXNZGc3q-RmIxHhXYLp7OPk7kbQl2Sz0U8_Nv-XqoBBQs-0EAszkSXiTLDyS_bbMJn_toEFSHQ6yoHE6tb0UW8DEB-mhtINaLlBmr0vqZ1wqXF0U7hr2PsvD4FNJtPPMmCdXzUtnvUrHQTbuM_zvQNDobt99d7pC3JMD17qf2VGYFMYBWRlK71N5kib8izQSwTaR8qmnCauvOfoBIATacWkOWv5weZJYMHn54af4aOqZo65Yb01JjCWXof3nQChkueA_Ypos4sGuJnu3xPSbfadgGe5OpJYL2Zq_ibbmKVxZ2uSN34UQg6OuDom_WhuYZAhlayG2KLpxCLzo1wo2dWKDbpN9vzNBkaERZOo2OAIz3X0ti8WwEhzSDhLz0GbRbciikhWtInl-D6TNSro4X9UyqF0iaSB7hOiGUcgTPa70xyxXBor_wnjSDQ8d0G89Iim579pd9mroCDm-6J1M4um8JjFS5FQV9MwqZElojWpy-DDoLpWNcAFbw54eoIEjC2Qm6C4Lfe7jrbrdvJsoIu6Cd-UlO_VRwZtk0DGu_7GwhGi7hoA3V9FpfrNKHMxhZpQnHho97hlzolhGD8ek_wUnrvHwLQkV7G44Yy9reo1lV0mYljB2bKd6SOaObXIxvN6b4QOAusX4mKU4tLOG3EOlnCP-r2iyuhyaG_Dx2-elnZGvDEw6XtG-c1_QFkmz3e74O2t3gEKquXPIb8d3Pbp5yMKAAAjr0GYeun8vreu4kb4aJXEgOWbDowT0vmSSn4Vr6hRWLkCHdG4KHcAY1j3397R46KXPqOIhOJU3r5WCbB8oEn2bIlCDfeQh5BECMUy1sj82Di2R3Si0B3jG9YWTLwi86i7inngkUwqFeJ7JOC_YJIUvKtiHocRvGzPVbKZjyu75n8RU8WsM2c5jLJmpR8e5gi9-ckM8qIys8Wqlp1C58zz4VuDZM9ZlEyKVNzeBGowsNK8ThT0cQ1gWv4Bm4TZ_1PAPla6smEKpF8QcxqZe9r7K45ihBnL4tJ0F9nEkx6qetmFHcVv3aHd-Gv2coufZDfItyw_jvgOyzEJJOy4cUNQZOcw4ilixhv2HJe8poo74Z6Ybjj7SDg1VuBkN7NLe7fLTsiiI3Gse_ssq_Xrt2EKwdj4Vzdr2CN1CuOvGDF0OiPK192L_ijwzxh97jogiW_B3zRdYM89TICX6xwHx3TvKwZZvj3Ih_Q6DXs3TWJrOIlh3y5xi9K8-OBxNSCSJRgs1WwwGXi9VsK8-6WRREHMqMrDn4s2U-MZyf_RXOM6yoa5zSCgyt32i17yjteUIhDntC1zIwnWvYUhT6j-l7Z-Iktg9XVx8_-Axu97FmZgg_DhgA_T-23JHMKNq5PFx2fRNS9oswmtc4TR6MnPEcMSjElDsDU-fE4RZGtXEq3jtNtQR1m7FoegWnarBxZVxLIZvf_QnM9kus_U7sNwLOsETxKzlNZQJRwn5FAYa6vIRY8o_Xl7ftVUUqMZMceNrUR_U3ELNbYqnW9xb_sumL8qcVkrTFvQEl_dfVDV]--></g></svg>